<?xml version="1.0" encoding="utf-8"?>
<!-- Generator: Adobe Illustrator 25.0.1, SVG Export Plug-In . SVG Version: 6.00 Build 0)  -->
<svg version="1.0" id="Layer_1" xmlns="http://www.w3.org/2000/svg" xmlns:xlink="http://www.w3.org/1999/xlink" x="0px" y="0px"
	 viewBox="0 0 43.09 49.19" style="enable-background:new 0 0 43.09 49.19;" xml:space="preserve">
<style type="text/css">
	.st0{fill:#000104;}
	.st1{fill:#FFFFFF;}
	.st2{fill:#EF493E;}
	.st3{opacity:0.6;fill-rule:evenodd;clip-rule:evenodd;fill:#FBBE43;}
	.st4{opacity:0.6;fill-rule:evenodd;clip-rule:evenodd;fill:#EF930E;}
	.st5{opacity:0.6;fill-rule:evenodd;clip-rule:evenodd;fill:#E67906;}
	.st6{fill:#9F8829;}
	.st7{fill:#3972A6;}
	.st8{fill:url(#SVGID_1_);stroke:#2B53A4;stroke-width:0.5;stroke-miterlimit:10;}
	.st9{fill:none;}
	.st10{fill:url(#SVGID_2_);}
	.st11{fill:url(#SVGID_3_);}
	.st12{fill:#B3B3B3;}
	.st13{fill:url(#SVGID_4_);}
	.st14{fill:url(#SVGID_5_);}
	.st15{fill:url(#SVGID_6_);}
	.st16{fill:#FFFFFF;stroke:#FFFFFF;stroke-width:0.25;stroke-miterlimit:10;}
	.st17{fill:#00001D;}
	.st18{fill:#4DA0C5;}
	.st19{fill:url(#SVGID_7_);}
	.st20{fill:#2E6A85;}
	.st21{fill:none;stroke:#144FA1;stroke-width:0.113;stroke-linejoin:round;stroke-miterlimit:10;}
	.st22{fill:#F27337;}
	.st23{fill:#8EB8D4;}
	.st24{fill:#F38056;}
	.st25{fill:#626365;}
	.st26{fill:#EF6D23;}
	.st27{fill:#284B82;}
	.st28{fill:#242956;}
	.st29{fill:#15142A;}
	.st30{fill:#84C343;}
	.st31{fill:#4CA1C6;}
	.st32{fill:#121617;}
	.st33{fill:#CF8966;}
	.st34{fill:#F37639;}
	.st35{opacity:0.3;fill:url(#SVGID_8_);}
	.st36{fill:#373277;}
	.st37{fill:#E61E25;}
	.st38{fill:#2555A5;}
	.st39{fill:#2E225E;}
	.st40{fill:#F8A425;}
	.st41{fill:#2058A7;}
	.st42{fill:none;stroke:#205AA8;stroke-width:0.156;stroke-miterlimit:10;}
	.st43{fill:#49A3C7;}
	.st44{fill-rule:evenodd;clip-rule:evenodd;}
	.st45{fill-rule:evenodd;clip-rule:evenodd;fill:url(#SVGID_9_);}
	.st46{fill-rule:evenodd;clip-rule:evenodd;fill:url(#SVGID_10_);}
	.st47{fill-rule:evenodd;clip-rule:evenodd;fill:url(#SVGID_11_);}
	.st48{fill:#1D2251;}
	.st49{fill:#2260AC;}
	.st50{fill:url(#SVGID_12_);}
	.st51{fill:#FFFFFC;}
	.st52{fill:#4C9FC5;}
	.st53{fill:#28306D;}
	.st54{fill:#4C9EC5;}
	.st55{fill:#28306E;}
	.st56{fill:#29306F;}
	.st57{fill:#F7F7FB;}
	.st58{fill:url(#SVGID_13_);}
	.st59{fill:url(#SVGID_14_);}
	.st60{fill:url(#SVGID_15_);}
	.st61{fill:url(#SVGID_16_);}
	.st62{fill:#10123C;}
	.st63{fill:#F5842C;}
	.st64{fill:#1F305E;}
	.st65{fill:#87BBD1;}
	.st66{fill:#203160;}
	.st67{fill:#235779;}
	.st68{fill:#359FA1;}
	.st69{fill:#A4D1A4;}
	.st70{fill:#B9DBBC;}
	.st71{fill:#C6DDCA;}
	.st72{fill:#662E14;}
	.st73{fill:#1D79A4;}
	.st74{fill:#C14B28;}
	.st75{fill:url(#SVGID_17_);}
	.st76{fill:url(#SVGID_18_);}
	.st77{fill:url(#SVGID_19_);}
	.st78{fill:url(#SVGID_20_);}
	.st79{fill:url(#SVGID_21_);}
	.st80{fill:url(#SVGID_22_);}
	.st81{fill:url(#SVGID_23_);}
	.st82{fill:url(#SVGID_24_);}
	.st83{fill:url(#SVGID_25_);}
	.st84{fill:url(#SVGID_26_);}
	.st85{fill:url(#SVGID_27_);}
	.st86{fill:url(#SVGID_28_);}
	.st87{fill:url(#SVGID_29_);}
	.st88{fill:url(#SVGID_30_);}
	.st89{fill:#1F164B;}
	.st90{clip-path:url(#SVGID_32_);fill:#253D97;}
	.st91{fill:url(#SVGID_33_);}
	.st92{fill:url(#SVGID_34_);}
	.st93{fill:url(#SVGID_35_);}
	.st94{fill:url(#SVGID_36_);}
	.st95{fill:url(#SVGID_37_);}
	.st96{fill:url(#SVGID_38_);}
	.st97{fill:url(#SVGID_39_);}
	.st98{fill:url(#SVGID_40_);}
	.st99{fill:url(#SVGID_41_);}
	.st100{fill:#443F41;}
	.st101{fill:#28306F;}
	.st102{fill:#71C49D;}
	.st103{fill:#F0C6A7;}
	.st104{fill:#DB8D82;}
	.st105{fill:#EFB7AC;}
	.st106{opacity:0.21;}
	.st107{fill-rule:evenodd;clip-rule:evenodd;fill:#A9196E;}
	.st108{fill-rule:evenodd;clip-rule:evenodd;fill:#FBE42C;}
	.st109{fill:#FBE42C;}
	.st110{fill:#A9196E;}
	.st111{fill:#7FC143;}
	.st112{clip-path:url(#SVGID_45_);fill:#7FC143;}
	.st113{clip-path:url(#SVGID_51_);fill:#7FC143;}
	.st114{fill:#243F8F;}
	.st115{fill:#EF4E2F;}
	.st116{fill:#010007;}
	.st117{fill:#0C0D37;}
	.st118{fill:#FBAF2D;}
	.st119{fill:url(#SVGID_54_);}
	.st120{fill-rule:evenodd;clip-rule:evenodd;fill:#FFFFFF;}
	.st121{fill:#1D4690;}
	.st122{fill:#3AA949;}
	.st123{fill:#F37A24;}
	.st124{fill:none;stroke:#F37A24;stroke-width:3.7145;stroke-miterlimit:10;}
	.st125{fill:#3AA949;stroke:#FFFFFF;stroke-width:1.3104;stroke-miterlimit:10;}
	.st126{fill:#46A2BB;}
	.st127{fill:#7153A0;}
	.st128{fill:#27316C;}
	.st129{fill:#2C65AE;}
	.st130{fill:#452D7A;}
	.st131{fill:#442C7A;}
	.st132{fill:#1A2642;}
	.st133{fill-rule:evenodd;clip-rule:evenodd;fill:#567EB8;}
	.st134{fill-rule:evenodd;clip-rule:evenodd;fill:#6A7EB8;}
	.st135{fill-rule:evenodd;clip-rule:evenodd;fill:#6A7EB9;}
	.st136{fill-rule:evenodd;clip-rule:evenodd;fill:#EE3C2D;}
	.st137{fill-rule:evenodd;clip-rule:evenodd;fill:#EF493F;}
	.st138{fill-rule:evenodd;clip-rule:evenodd;fill:#ED2C24;}
	.st139{fill-rule:evenodd;clip-rule:evenodd;fill:#E9AE28;}
	.st140{fill-rule:evenodd;clip-rule:evenodd;fill:#D69B28;}
	.st141{fill-rule:evenodd;clip-rule:evenodd;fill:#FCB729;}
	.st142{fill-rule:evenodd;clip-rule:evenodd;fill:#409E47;}
	.st143{fill-rule:evenodd;clip-rule:evenodd;fill:#4BB450;}
	.st144{fill-rule:evenodd;clip-rule:evenodd;fill:#338440;}
	.st145{fill:#C09C36;}
	.st146{fill:#1E552A;}
	.st147{clip-path:url(#SVGID_56_);fill:url(#SVGID_57_);}
	.st148{fill:#023A1E;}
	.st149{fill:#FFFFFA;}
	.st150{fill:#0D4F28;}
	.st151{fill:#0E5128;}
	.st152{fill:#0D4E27;}
	.st153{fill:#0E5229;}
	.st154{fill:#0E4823;}
	.st155{fill:#0E4C27;}
	.st156{fill:#F3F6E0;}
	.st157{fill:#0E4F28;}
	.st158{fill:#114823;}
	.st159{fill:#105229;}
	.st160{fill:#0A4A2B;}
	.st161{fill:#134F27;}
	.st162{fill:#165229;}
	.st163{fill:#0D5029;}
	.st164{fill:#0B4E2B;}
	.st165{fill:#105028;}
	.st166{fill:#0A492A;}
	.st167{fill:#E9F3E2;}
	.st168{fill:#144D26;}
	.st169{fill:#185C2F;}
	.st170{fill:#0F5028;}
	.st171{fill:#F3F8EA;}
	.st172{fill:#114D26;}
	.st173{fill:#70A685;}
	.st174{fill:#0D4F2A;}
	.st175{fill:#094A24;}
	.st176{fill:#0F4F27;}
	.st177{fill:#0A4C26;}
	.st178{fill:#A2D29A;}
	.st179{fill:#4D7E44;}
	.st180{fill:#E8F2E1;}
	.st181{fill:#EDF5E5;}
	.st182{fill:#E6F2E7;}
	.st183{fill:#E5F1DC;}
	.st184{fill:#E9F3E3;}
	.st185{fill:#E9F3E5;}
	.st186{fill:#E5F1DB;}
	.st187{fill:#D8ECD7;}
	.st188{fill:#D9EBD4;}
	.st189{fill:#E2F0DE;}
	.st190{fill:#366B4B;}
	.st191{fill:#5D6162;}
	.st192{fill:#212E5F;}
	.st193{fill:#DD1F26;}
	.st194{clip-path:url(#SVGID_59_);}
	.st195{fill:#23396F;}
	.st196{fill:#7FC24E;}
	.st197{clip-path:url(#SVGID_59_);fill:#23396F;}
	.st198{clip-path:url(#SVGID_59_);fill:#7FC24E;}
	.st199{fill:#91CEA4;}
	.st200{fill:#90CEA4;}
	.st201{fill:#C02026;}
	.st202{fill:#362E7E;}
</style>
<g>
	<linearGradient id="SVGID_1_" gradientUnits="userSpaceOnUse" x1="9.6329" y1="18.9216" x2="23.3662" y2="18.9216">
		<stop  offset="0.0279" style="stop-color:#E54598"/>
		<stop  offset="0.2959" style="stop-color:#E93680"/>
		<stop  offset="0.5782" style="stop-color:#ED286B"/>
		<stop  offset="0.6469" style="stop-color:#E72766"/>
		<stop  offset="0.7369" style="stop-color:#D7245A"/>
		<stop  offset="0.8389" style="stop-color:#BC1F44"/>
		<stop  offset="0.9487" style="stop-color:#961927"/>
		<stop  offset="1" style="stop-color:#821517"/>
	</linearGradient>
	<path style="fill:url(#SVGID_1_);" d="M23.37,31.71c0,0-0.75-1.91-1.31-2.25c0,0-6.28,0.59-9.39-3.62c0,0-5.53-5.58-1.66-13.4
		c0,0,3.22-6.85,12.36-6.26c0,0-0.25,3.98,0,4.77c0,0-0.45,0.63-0.72-1.89c0,0-0.81,0.84-0.97,1.95c0,0-0.05,0.53-1.89,1.68
		l-1.51,0.53c0,0-2.05,0.42-1.19,2.11c0,0,0.76,1.05,0.32,1.58l-0.32,0.13c0,0-1.43,0.45-0.58,1.21c0,0,0.36-0.05,0.2,0.82
		l-0.2,0.11c0,0-1.15,0.34-0.26,1.11l0.05,0.5l0.03,0.37l-0.03,0.21c0,0-0.05,0.16-0.14,0.18c-0.08,0.03,0.08,0-0.08,0.03
		c-0.16,0.03-0.35,0.18-0.35,0.18s-2.11,1.86,1.42,2.98c0,0,3.46,0.28,4.47,1.89C21.62,26.61,23.17,29.22,23.37,31.71z"/>
	<g>
		<linearGradient id="SVGID_2_" gradientUnits="userSpaceOnUse" x1="22.3717" y1="23.1248" x2="29.5658" y2="23.1248">
			<stop  offset="0" style="stop-color:#1F305E"/>
			<stop  offset="1" style="stop-color:#0698BE"/>
		</linearGradient>
		<path class="st10" d="M27.46,22.5c0,0,1.89,2.54,2.11,4.6c0,0-5.03-0.63-6.81-3.74c0,0-0.69-1.05-0.22-4.05
			c0,0,1.35,3.48,3.43,5.47c-0.33-0.56-0.67-1.13-1.01-1.7c-0.41-0.69-0.83-1.37-1.24-2.04c-0.07-0.16-0.14-0.31-0.21-0.47
			c-0.22-0.48-0.44-0.95-0.66-1.42c0.65,0.26,1.45,0.64,2.28,1.22C26.19,21.1,26.95,21.88,27.46,22.5z"/>
		<linearGradient id="SVGID_3_" gradientUnits="userSpaceOnUse" x1="22.7063" y1="18.9243" x2="33.6033" y2="18.9243">
			<stop  offset="0" style="stop-color:#1F305E"/>
			<stop  offset="1" style="stop-color:#0698BE"/>
		</linearGradient>
		<path class="st11" d="M24.18,18.04c0.28-0.29,0.68-0.65,1.23-0.93c1.5-0.76,3-0.44,3.47-0.32c0.4,0.13,0.82,0.27,1.24,0.43
			c1.34,0.51,2.5,1.11,3.48,1.72c0,0-1.17,1.53-5,2.22c-0.51,0.09-1.43,0.12-2.52-0.11c-2.35-0.49-3.18-1.81-3.23-1.9
			c-0.07-0.13-0.11-0.28-0.11-0.28c-0.03-0.11-0.05-0.22-0.01-0.33c0.04-0.12,0.14-0.2,0.14-0.2c0.02-0.02,0.09-0.07,0.26-0.11
			c0.1-0.02,0.27-0.05,0.49-0.01c0.4,0.22,0.84,0.43,1.33,0.62c1.55,0.62,2.99,0.83,4.11,0.89c-0.68-0.09-1.51-0.26-2.42-0.56
			C25.64,18.82,24.81,18.41,24.18,18.04z"/>
		<linearGradient id="SVGID_4_" gradientUnits="userSpaceOnUse" x1="22.5048" y1="14.1766" x2="30.2844" y2="14.1766">
			<stop  offset="0" style="stop-color:#1F305E"/>
			<stop  offset="1" style="stop-color:#0698BE"/>
		</linearGradient>
		<path class="st13" d="M22.5,17.72c0,0,1.19-4.46,7.78-7.68c0.02,0.9-0.02,1.64-0.07,2.2c-0.08,0.88-0.17,1.27-0.23,1.5
			c-0.15,0.55-0.35,0.99-0.5,1.29c-0.29,0.44-0.59,0.79-0.83,1.05c-0.19,0.2-0.62,0.65-1.27,1.09c-0.25,0.17-0.53,0.36-0.93,0.55
			c-0.07,0.03-0.33,0.15-0.71,0.27c-0.12,0.04-0.62,0.19-1.32,0.27c-0.38,0.04-0.88,0.07-1.47,0.03c0.76-0.42,1.61-0.97,2.49-1.65
			c0.98-0.76,1.77-1.52,2.4-2.21c-0.79,0.65-1.5,1.15-2.07,1.53c-0.49,0.33-1.09,0.72-1.95,1.16C23.29,17.39,22.84,17.58,22.5,17.72
			z"/>
	</g>
	<g>
		<path d="M15.96,32.69l1.47,3.89l1.47-3.89h0.77v4.76h-0.59V35.6l0.06-2l-1.48,3.86H17.2l-1.48-3.85l0.06,1.99v1.85h-0.59v-4.76
			H15.96z"/>
		<path d="M20.65,37.14c0-0.1,0.03-0.19,0.09-0.26c0.06-0.07,0.15-0.1,0.26-0.1c0.12,0,0.21,0.04,0.27,0.1
			c0.06,0.07,0.09,0.16,0.09,0.26c0,0.1-0.03,0.18-0.09,0.25s-0.15,0.1-0.27,0.1c-0.12,0-0.21-0.03-0.26-0.1
			S20.65,37.24,20.65,37.14z"/>
		<path d="M23.72,35.33c-0.51-0.16-0.88-0.35-1.11-0.57s-0.35-0.5-0.35-0.84c0-0.38,0.14-0.68,0.43-0.93
			c0.28-0.25,0.65-0.37,1.11-0.37c0.31,0,0.58,0.06,0.83,0.19c0.24,0.13,0.43,0.3,0.56,0.52c0.13,0.22,0.2,0.47,0.2,0.73h-0.6
			c0-0.29-0.09-0.52-0.26-0.68c-0.17-0.17-0.42-0.25-0.73-0.25c-0.29,0-0.52,0.07-0.69,0.21s-0.25,0.33-0.25,0.57
			c0,0.2,0.08,0.36,0.23,0.49c0.16,0.13,0.42,0.26,0.79,0.37c0.38,0.11,0.67,0.23,0.88,0.37c0.21,0.13,0.37,0.29,0.47,0.47
			c0.1,0.18,0.15,0.39,0.15,0.63c0,0.39-0.14,0.69-0.43,0.93s-0.67,0.35-1.14,0.35c-0.31,0-0.6-0.06-0.87-0.19
			c-0.27-0.12-0.48-0.3-0.62-0.51c-0.15-0.22-0.22-0.47-0.22-0.74h0.6c0,0.29,0.1,0.52,0.3,0.68c0.2,0.17,0.47,0.25,0.81,0.25
			c0.31,0,0.55-0.07,0.72-0.2c0.17-0.13,0.25-0.32,0.25-0.55s-0.08-0.41-0.23-0.54C24.41,35.58,24.13,35.46,23.72,35.33z"/>
		<path d="M26.08,37.14c0-0.1,0.03-0.19,0.09-0.26c0.06-0.07,0.15-0.1,0.26-0.1c0.12,0,0.21,0.04,0.27,0.1
			c0.06,0.07,0.09,0.16,0.09,0.26c0,0.1-0.03,0.18-0.09,0.25s-0.15,0.1-0.27,0.1c-0.12,0-0.21-0.03-0.26-0.1
			S26.08,37.24,26.08,37.14z"/>
		<path d="M28.42,35.59v1.86h-0.59v-4.76h1.66c0.49,0,0.88,0.13,1.16,0.4c0.28,0.27,0.42,0.62,0.42,1.06c0,0.46-0.14,0.82-0.41,1.07
			s-0.67,0.38-1.17,0.38H28.42z M28.42,35.08h1.07c0.32,0,0.56-0.08,0.73-0.24c0.17-0.16,0.25-0.39,0.25-0.69
			c0-0.28-0.08-0.51-0.25-0.68c-0.17-0.17-0.4-0.26-0.7-0.27h-1.1V35.08z"/>
	</g>
	<g>
		<path d="M13.23,38.52c0.16-0.03,0.38-0.05,0.65-0.05c0.33,0,0.58,0.08,0.73,0.21c0.14,0.12,0.23,0.3,0.23,0.53
			c0,0.23-0.07,0.41-0.2,0.54c-0.18,0.18-0.47,0.28-0.8,0.28c-0.1,0-0.19,0-0.27-0.02v1.02h-0.34V38.52z M13.57,39.74
			c0.07,0.02,0.17,0.03,0.28,0.03c0.41,0,0.65-0.19,0.65-0.54c0-0.33-0.24-0.5-0.62-0.5c-0.15,0-0.26,0.01-0.32,0.03V39.74z"/>
		<path d="M16.79,38.49v1.06h1.26v-1.06h0.34v2.54h-0.34v-1.19h-1.26v1.19h-0.34v-2.54H16.79z"/>
		<path d="M20.56,40.23l-0.27,0.8h-0.35l0.89-2.54h0.41l0.89,2.54h-0.36l-0.28-0.8H20.56z M21.42,39.97l-0.26-0.73
			c-0.06-0.17-0.1-0.32-0.14-0.46h-0.01c-0.04,0.15-0.08,0.31-0.13,0.46l-0.26,0.73H21.42z"/>
		<path d="M23.68,38.52c0.17-0.03,0.41-0.05,0.65-0.05c0.36,0,0.59,0.06,0.76,0.21c0.13,0.11,0.21,0.29,0.21,0.48
			c0,0.33-0.22,0.56-0.49,0.65v0.01c0.2,0.07,0.32,0.25,0.38,0.51c0.08,0.35,0.15,0.6,0.2,0.7h-0.35c-0.04-0.07-0.1-0.29-0.17-0.61
			c-0.08-0.35-0.22-0.48-0.52-0.49h-0.32v1.1h-0.34V38.52z M24.01,39.68h0.34c0.36,0,0.59-0.19,0.59-0.48c0-0.33-0.24-0.47-0.6-0.47
			c-0.16,0-0.28,0.02-0.33,0.03V39.68z"/>
		<path d="M29.13,39.91c-0.02-0.35-0.04-0.78-0.04-1.1h-0.01c-0.09,0.3-0.2,0.61-0.33,0.96l-0.46,1.23h-0.26l-0.42-1.21
			c-0.12-0.36-0.23-0.69-0.3-0.99H27.3c-0.01,0.32-0.03,0.74-0.05,1.12l-0.07,1.09h-0.32l0.18-2.54h0.43l0.45,1.23
			c0.11,0.31,0.2,0.59,0.26,0.86h0.01c0.07-0.26,0.16-0.54,0.28-0.86l0.46-1.23h0.43l0.16,2.54h-0.33L29.13,39.91z"/>
		<path d="M31.59,40.23l-0.27,0.8h-0.35l0.89-2.54h0.41l0.89,2.54h-0.36l-0.28-0.8H31.59z M32.44,39.97l-0.26-0.73
			c-0.06-0.17-0.1-0.32-0.14-0.46h-0.01c-0.04,0.15-0.08,0.31-0.13,0.46l-0.26,0.73H32.44z"/>
	</g>
</g>
</svg>
