<?xml version="1.0" encoding="utf-8"?>
<!-- Generator: Adobe Illustrator 25.0.1, SVG Export Plug-In . SVG Version: 6.00 Build 0)  -->
<svg version="1.0" id="Layer_1" xmlns="http://www.w3.org/2000/svg" xmlns:xlink="http://www.w3.org/1999/xlink" x="0px" y="0px"
	 viewBox="0 0 76.25 58.71" style="enable-background:new 0 0 76.25 58.71;" xml:space="preserve">
<style type="text/css">
	.st0{fill:#000104;}
	.st1{fill:#FFFFFF;}
	.st2{fill:#EF493E;}
	.st3{opacity:0.6;fill-rule:evenodd;clip-rule:evenodd;fill:#FBBE43;}
	.st4{opacity:0.6;fill-rule:evenodd;clip-rule:evenodd;fill:#EF930E;}
	.st5{opacity:0.6;fill-rule:evenodd;clip-rule:evenodd;fill:#E67906;}
	.st6{fill:#9F8829;}
	.st7{fill:#3972A6;}
	.st8{fill:url(#SVGID_1_);stroke:#2B53A4;stroke-width:0.5;stroke-miterlimit:10;}
	.st9{fill:none;}
	.st10{fill:url(#SVGID_2_);}
	.st11{fill:url(#SVGID_3_);}
	.st12{fill:#B3B3B3;}
	.st13{fill:url(#SVGID_4_);}
	.st14{fill:url(#SVGID_5_);}
	.st15{fill:url(#SVGID_6_);}
	.st16{fill:#FFFFFF;stroke:#FFFFFF;stroke-width:0.25;stroke-miterlimit:10;}
	.st17{fill:#00001D;}
	.st18{fill:#4DA0C5;}
	.st19{fill:url(#SVGID_7_);}
	.st20{fill:#2E6A85;}
	.st21{fill:none;stroke:#144FA1;stroke-width:0.113;stroke-linejoin:round;stroke-miterlimit:10;}
	.st22{fill:#F27337;}
	.st23{fill:#8EB8D4;}
	.st24{fill:#F38056;}
	.st25{fill:#626365;}
	.st26{fill:#EF6D23;}
	.st27{fill:#284B82;}
	.st28{fill:#242956;}
	.st29{fill:#15142A;}
	.st30{fill:#84C343;}
	.st31{fill:#4CA1C6;}
	.st32{fill:#121617;}
	.st33{fill:#CF8966;}
	.st34{fill:#F37639;}
	.st35{opacity:0.3;fill:url(#SVGID_8_);}
	.st36{fill:#373277;}
	.st37{fill:#E61E25;}
	.st38{fill:#2555A5;}
	.st39{fill:#2E225E;}
	.st40{fill:#F8A425;}
	.st41{fill:#2058A7;}
	.st42{fill:none;stroke:#205AA8;stroke-width:0.156;stroke-miterlimit:10;}
	.st43{fill:#49A3C7;}
	.st44{fill-rule:evenodd;clip-rule:evenodd;}
	.st45{fill-rule:evenodd;clip-rule:evenodd;fill:url(#SVGID_9_);}
	.st46{fill-rule:evenodd;clip-rule:evenodd;fill:url(#SVGID_10_);}
	.st47{fill-rule:evenodd;clip-rule:evenodd;fill:url(#SVGID_11_);}
	.st48{fill:#1D2251;}
	.st49{fill:#2260AC;}
	.st50{fill:url(#SVGID_12_);}
	.st51{fill:#FFFFFC;}
	.st52{fill:#4C9FC5;}
	.st53{fill:#28306D;}
	.st54{fill:#4C9EC5;}
	.st55{fill:#28306E;}
	.st56{fill:#29306F;}
	.st57{fill:#F7F7FB;}
	.st58{fill:url(#SVGID_13_);}
	.st59{fill:url(#SVGID_14_);}
	.st60{fill:url(#SVGID_15_);}
	.st61{fill:url(#SVGID_16_);}
	.st62{fill:#10123C;}
	.st63{fill:#F5842C;}
	.st64{fill:#1F305E;}
	.st65{fill:#87BBD1;}
	.st66{fill:#203160;}
	.st67{fill:#235779;}
	.st68{fill:#359FA1;}
	.st69{fill:#A4D1A4;}
	.st70{fill:#B9DBBC;}
	.st71{fill:#C6DDCA;}
	.st72{fill:#662E14;}
	.st73{fill:#1D79A4;}
	.st74{fill:#C14B28;}
	.st75{fill:url(#SVGID_17_);}
	.st76{fill:url(#SVGID_18_);}
	.st77{fill:url(#SVGID_19_);}
	.st78{fill:url(#SVGID_20_);}
	.st79{fill:url(#SVGID_21_);}
	.st80{fill:url(#SVGID_22_);}
	.st81{fill:url(#SVGID_23_);}
	.st82{fill:url(#SVGID_24_);}
	.st83{fill:url(#SVGID_25_);}
	.st84{fill:url(#SVGID_26_);}
	.st85{fill:url(#SVGID_27_);}
	.st86{fill:url(#SVGID_28_);}
	.st87{fill:url(#SVGID_29_);}
	.st88{fill:url(#SVGID_30_);}
	.st89{fill:#1F164B;}
	.st90{clip-path:url(#SVGID_32_);fill:#253D97;}
	.st91{fill:url(#SVGID_33_);}
	.st92{fill:url(#SVGID_34_);}
	.st93{fill:url(#SVGID_35_);}
	.st94{fill:url(#SVGID_36_);}
	.st95{fill:url(#SVGID_37_);}
	.st96{fill:url(#SVGID_38_);}
	.st97{fill:url(#SVGID_39_);}
	.st98{fill:url(#SVGID_40_);}
	.st99{fill:url(#SVGID_41_);}
	.st100{fill:#443F41;}
	.st101{fill:#28306F;}
	.st102{fill:#71C49D;}
	.st103{fill:#F0C6A7;}
	.st104{fill:#DB8D82;}
	.st105{fill:#EFB7AC;}
	.st106{opacity:0.21;}
	.st107{fill-rule:evenodd;clip-rule:evenodd;fill:#A9196E;}
	.st108{fill-rule:evenodd;clip-rule:evenodd;fill:#FBE42C;}
	.st109{fill:#FBE42C;}
	.st110{fill:#A9196E;}
	.st111{fill:#7FC143;}
	.st112{clip-path:url(#SVGID_45_);fill:#7FC143;}
	.st113{clip-path:url(#SVGID_51_);fill:#7FC143;}
	.st114{fill:#243F8F;}
	.st115{fill:#EF4E2F;}
	.st116{fill:#010007;}
	.st117{fill:#0C0D37;}
	.st118{fill:#FBAF2D;}
	.st119{fill:url(#SVGID_54_);}
	.st120{fill-rule:evenodd;clip-rule:evenodd;fill:#FFFFFF;}
	.st121{fill:#1D4690;}
	.st122{fill:#3AA949;}
	.st123{fill:#F37A24;}
	.st124{fill:none;stroke:#F37A24;stroke-width:3.7145;stroke-miterlimit:10;}
	.st125{fill:#3AA949;stroke:#FFFFFF;stroke-width:1.3104;stroke-miterlimit:10;}
	.st126{fill:#46A2BB;}
	.st127{fill:#7153A0;}
	.st128{fill:#27316C;}
	.st129{fill:#2C65AE;}
	.st130{fill:#452D7A;}
	.st131{fill:#442C7A;}
	.st132{fill:#1A2642;}
	.st133{fill-rule:evenodd;clip-rule:evenodd;fill:#567EB8;}
	.st134{fill-rule:evenodd;clip-rule:evenodd;fill:#6A7EB8;}
	.st135{fill-rule:evenodd;clip-rule:evenodd;fill:#6A7EB9;}
	.st136{fill-rule:evenodd;clip-rule:evenodd;fill:#EE3C2D;}
	.st137{fill-rule:evenodd;clip-rule:evenodd;fill:#EF493F;}
	.st138{fill-rule:evenodd;clip-rule:evenodd;fill:#ED2C24;}
	.st139{fill-rule:evenodd;clip-rule:evenodd;fill:#E9AE28;}
	.st140{fill-rule:evenodd;clip-rule:evenodd;fill:#D69B28;}
	.st141{fill-rule:evenodd;clip-rule:evenodd;fill:#FCB729;}
	.st142{fill-rule:evenodd;clip-rule:evenodd;fill:#409E47;}
	.st143{fill-rule:evenodd;clip-rule:evenodd;fill:#4BB450;}
	.st144{fill-rule:evenodd;clip-rule:evenodd;fill:#338440;}
	.st145{fill:#C09C36;}
	.st146{fill:#1E552A;}
	.st147{clip-path:url(#SVGID_56_);fill:url(#SVGID_57_);}
	.st148{fill:#023A1E;}
	.st149{fill:#FFFFFA;}
	.st150{fill:#0D4F28;}
	.st151{fill:#0E5128;}
	.st152{fill:#0D4E27;}
	.st153{fill:#0E5229;}
	.st154{fill:#0E4823;}
	.st155{fill:#0E4C27;}
	.st156{fill:#F3F6E0;}
	.st157{fill:#0E4F28;}
	.st158{fill:#114823;}
	.st159{fill:#105229;}
	.st160{fill:#0A4A2B;}
	.st161{fill:#134F27;}
	.st162{fill:#165229;}
	.st163{fill:#0D5029;}
	.st164{fill:#0B4E2B;}
	.st165{fill:#105028;}
	.st166{fill:#0A492A;}
	.st167{fill:#E9F3E2;}
	.st168{fill:#144D26;}
	.st169{fill:#185C2F;}
	.st170{fill:#0F5028;}
	.st171{fill:#F3F8EA;}
	.st172{fill:#114D26;}
	.st173{fill:#70A685;}
	.st174{fill:#0D4F2A;}
	.st175{fill:#094A24;}
	.st176{fill:#0F4F27;}
	.st177{fill:#0A4C26;}
	.st178{fill:#A2D29A;}
	.st179{fill:#4D7E44;}
	.st180{fill:#E8F2E1;}
	.st181{fill:#EDF5E5;}
	.st182{fill:#E6F2E7;}
	.st183{fill:#E5F1DC;}
	.st184{fill:#E9F3E3;}
	.st185{fill:#E9F3E5;}
	.st186{fill:#E5F1DB;}
	.st187{fill:#D8ECD7;}
	.st188{fill:#D9EBD4;}
	.st189{fill:#E2F0DE;}
	.st190{fill:#366B4B;}
	.st191{fill:#5D6162;}
	.st192{fill:#212E5F;}
	.st193{fill:#DD1F26;}
	.st194{clip-path:url(#SVGID_59_);}
	.st195{fill:#23396F;}
	.st196{fill:#7FC24E;}
	.st197{clip-path:url(#SVGID_59_);fill:#23396F;}
	.st198{clip-path:url(#SVGID_59_);fill:#7FC24E;}
	.st199{fill:#91CEA4;}
	.st200{fill:#90CEA4;}
	.st201{fill:#C02026;}
	.st202{fill:#362E7E;}
</style>
<g>
	<g>
		<path class="st202" d="M7.06,46.24h1.25v0.24H7.36v0.75h0.88v0.24H7.36v1.02h-0.3V46.24z"/>
		<path class="st202" d="M12.5,47.34c0,0.78-0.48,1.19-1.07,1.19c-0.61,0-1.04-0.46-1.04-1.14c0-0.71,0.46-1.18,1.07-1.18
			C12.09,46.2,12.5,46.68,12.5,47.34z M10.71,47.38c0,0.48,0.27,0.91,0.74,0.91c0.47,0,0.74-0.42,0.74-0.94
			c0-0.45-0.24-0.92-0.74-0.92C10.95,46.44,10.71,46.89,10.71,47.38z"/>
		<path class="st202" d="M14.68,46.27c0.15-0.03,0.37-0.05,0.57-0.05c0.32,0,0.53,0.06,0.67,0.18c0.12,0.1,0.18,0.25,0.18,0.43
			c0,0.3-0.19,0.49-0.44,0.57v0.01c0.18,0.06,0.28,0.22,0.34,0.45c0.08,0.31,0.13,0.53,0.18,0.62h-0.31
			c-0.04-0.06-0.09-0.26-0.15-0.54c-0.07-0.31-0.19-0.43-0.46-0.44h-0.28v0.98h-0.3V46.27z M14.98,47.3h0.31
			c0.32,0,0.52-0.17,0.52-0.43c0-0.29-0.22-0.42-0.53-0.42c-0.14,0-0.25,0.01-0.29,0.03V47.3z"/>
		<path class="st202" d="M21.07,46.24v0.94h1.12v-0.94h0.3v2.25h-0.3v-1.06h-1.12v1.06h-0.3v-2.25H21.07z"/>
		<path class="st202" d="M26,47.44h-0.9v0.81h1v0.24h-1.3v-2.25h1.25v0.24H25.1v0.71H26V47.44z"/>
		<path class="st202" d="M28.65,47.78l-0.24,0.71h-0.31l0.79-2.25h0.36l0.79,2.25h-0.32l-0.25-0.71H28.65z M29.41,47.56l-0.23-0.65
			c-0.05-0.15-0.09-0.28-0.12-0.41h-0.01c-0.03,0.13-0.07,0.27-0.12,0.41l-0.23,0.65H29.41z"/>
		<path class="st202" d="M32.17,46.24h0.3v2.01h0.99v0.24h-1.29V46.24z"/>
		<path class="st202" d="M35.72,46.49h-0.7v-0.25h1.71v0.25h-0.71v2h-0.3V46.49z"/>
		<path class="st202" d="M39.08,46.24v0.94h1.12v-0.94h0.3v2.25h-0.3v-1.06h-1.12v1.06h-0.3v-2.25H39.08z"/>
		<path class="st202" d="M43.3,48.49v-0.96l-0.73-1.3h0.34l0.33,0.62c0.09,0.17,0.16,0.31,0.23,0.46h0.01
			c0.07-0.15,0.14-0.29,0.23-0.46l0.33-0.62h0.34l-0.78,1.29v0.96H43.3z"/>
		<path class="st202" d="M48.88,46.24h1.25v0.24h-0.95v0.75h0.88v0.24h-0.88v1.02h-0.3V46.24z"/>
		<path class="st202" d="M52.65,46.24v1.33c0,0.5,0.23,0.72,0.54,0.72c0.34,0,0.56-0.22,0.56-0.72v-1.33h0.3v1.31
			c0,0.69-0.37,0.98-0.88,0.98c-0.47,0-0.83-0.26-0.83-0.96v-1.33H52.65z"/>
		<path class="st202" d="M56.8,46.49h-0.7v-0.25h1.71v0.25H57.1v2h-0.3V46.49z"/>
		<path class="st202" d="M60.15,46.24v1.33c0,0.5,0.23,0.72,0.54,0.72c0.34,0,0.56-0.22,0.56-0.72v-1.33h0.3v1.31
			c0,0.69-0.37,0.98-0.88,0.98c-0.47,0-0.83-0.26-0.83-0.96v-1.33H60.15z"/>
		<path class="st202" d="M63.87,46.27c0.15-0.03,0.37-0.05,0.57-0.05c0.32,0,0.53,0.06,0.67,0.18c0.12,0.1,0.18,0.25,0.18,0.43
			c0,0.3-0.19,0.49-0.44,0.57v0.01c0.18,0.06,0.28,0.22,0.34,0.45c0.08,0.31,0.13,0.53,0.18,0.62h-0.31
			c-0.04-0.06-0.09-0.26-0.15-0.54c-0.07-0.31-0.19-0.43-0.46-0.44h-0.28v0.98h-0.3V46.27z M64.17,47.3h0.31
			c0.32,0,0.52-0.17,0.52-0.43c0-0.29-0.22-0.42-0.53-0.42c-0.14,0-0.25,0.01-0.29,0.03V47.3z"/>
		<path class="st202" d="M68.71,47.44h-0.9v0.81h1v0.24h-1.3v-2.25h1.25v0.24h-0.95v0.71h0.9V47.44z"/>
	</g>
	<g>
		<path class="st202" d="M14.58,38.02l-2.26,5.13h-1.47L8.6,38.02h1.61l1.43,3.34l1.46-3.34H14.58z"/>
		<path class="st202" d="M18.24,42.15h-2.23l-0.42,1h-1.52l2.33-5.13h1.47l2.34,5.13h-1.55L18.24,42.15z M17.81,41.08l-0.68-1.64
			l-0.68,1.64H17.81z"/>
		<path class="st202" d="M22.94,41.78h-0.81v1.36h-1.49v-5.13h2.41c0.48,0,0.89,0.08,1.24,0.23s0.62,0.37,0.81,0.66
			c0.19,0.29,0.29,0.62,0.29,1.01c0,0.37-0.09,0.7-0.27,0.97s-0.43,0.49-0.76,0.65l1.14,1.61h-1.6L22.94,41.78z M23.65,39.36
			c-0.16-0.13-0.39-0.2-0.69-0.2h-0.83v1.5h0.83c0.31,0,0.54-0.06,0.69-0.19c0.16-0.13,0.23-0.31,0.23-0.55S23.8,39.49,23.65,39.36z
			"/>
		<path class="st202" d="M26.21,38.02h1.49v5.13h-1.49V38.02z"/>
		<path class="st202" d="M32.99,42.03v1.12h-4.23v-5.13h4.14v1.12h-2.66V40h2.34v1.09h-2.34v0.94H32.99z"/>
	</g>
	<g>
		<path class="st202" d="M38.24,38.49c0.39,0.32,0.59,0.75,0.59,1.31s-0.2,1-0.59,1.31c-0.39,0.32-0.93,0.48-1.61,0.48h-1.3v1.55
			h-0.75v-5.13h2.06C37.32,38.02,37.85,38.17,38.24,38.49z M37.7,40.66c0.25-0.2,0.38-0.48,0.38-0.85c0-0.37-0.12-0.66-0.38-0.85
			c-0.25-0.2-0.62-0.3-1.09-0.3h-1.28v2.3h1.28C37.09,40.96,37.45,40.86,37.7,40.66z"/>
		<path class="st202" d="M44.47,38.02v5.13h-0.75v-2.29h-3.03v2.29h-0.75v-5.13h0.75v2.21h3.03v-2.21H44.47z"/>
		<path class="st202" d="M49.42,41.87h-2.8l-0.58,1.28h-0.78l2.39-5.13h0.75l2.4,5.13H50L49.42,41.87z M49.15,41.28l-1.14-2.52
			l-1.14,2.52H49.15z"/>
		<path class="st202" d="M55.1,43.15l-1.14-1.58c-0.14,0.01-0.25,0.01-0.33,0.01h-1.3v1.56h-0.75v-5.13h2.06
			c0.68,0,1.22,0.16,1.61,0.48c0.39,0.32,0.59,0.75,0.59,1.31c0,0.4-0.1,0.73-0.3,1.01c-0.2,0.28-0.49,0.48-0.86,0.61l1.25,1.72
			H55.1z M54.7,40.66c0.25-0.2,0.38-0.49,0.38-0.86c0-0.37-0.12-0.66-0.38-0.85c-0.25-0.2-0.62-0.3-1.09-0.3h-1.28v2.31h1.28
			C54.08,40.96,54.45,40.86,54.7,40.66z"/>
		<path class="st202" d="M61.94,43.15l-0.01-3.74l-1.91,3.12h-0.35l-1.91-3.1v3.72h-0.72v-5.13h0.62l2.2,3.61l2.17-3.61h0.62
			l0.01,5.13H61.94z"/>
		<path class="st202" d="M67.6,41.87h-2.8l-0.58,1.28h-0.78l2.39-5.13h0.75l2.4,5.13h-0.79L67.6,41.87z M67.34,41.28l-1.14-2.52
			l-1.14,2.52H67.34z"/>
	</g>
	<path class="st202" d="M67.22,7.02c-1.5-1.85-3.83-3.04-6.44-3.04c0,0-10.12,0-10.18,0c-1.04,0.02-2.03,0.23-2.94,0.6
		c-0.7,0.28-1.35,0.65-1.93,1.1c-0.43,0.33-7.24,9.03-7.24,9.03c-0.58,0.76-1.68,0.92-2.46,0.35l-6.42-4.65l-2.59-1.88l-2.08-1.51
		L23.3,5.84c0,0,0,0,0,0L22.97,5.6l-0.43-0.31c-0.57-0.36-1.18-0.66-1.83-0.88c-0.02-0.01-0.05-0.01-0.07-0.02
		c-0.07-0.02-0.14-0.05-0.21-0.07c-0.03-0.01-0.05-0.01-0.08-0.02c-0.07-0.02-0.14-0.04-0.21-0.06c-0.03-0.01-0.07-0.02-0.11-0.03
		c-0.06-0.01-0.12-0.03-0.18-0.04c-0.04-0.01-0.08-0.02-0.12-0.02c-0.06-0.01-0.12-0.02-0.18-0.04C19.53,4.11,19.5,4.1,19.47,4.1
		c-0.07-0.01-0.14-0.02-0.21-0.03c-0.02,0-0.04-0.01-0.06-0.01C18.82,4,18.44,3.98,18.04,3.98c-0.75,0-1.48,0.1-2.17,0.28l0,0
		c-0.6,0.16-1.17,0.38-1.7,0.66c-0.31,0.16-0.61,0.34-0.89,0.54c-0.16,0.14-0.52,0.4-0.52,0.4c-0.42,0.35-0.81,0.74-1.15,1.16
		C11.3,7.4,11.03,7.81,10.8,8.24l17.9,12.37l0.72,0.51c1.41,0.99,3.37,0.7,4.41-0.66l0,0L15.38,7.76c0.77-0.47,1.69-0.74,2.66-0.74
		c0,0,0.36,0.01,0.36,0.01c0.83,0.06,1.61,0.31,2.29,0.71l0.01,0.01c0.25,0.15,0.71,0.52,0.71,0.52L35.6,18.55
		c1.23,0.46,2.61,0.36,3.76-0.27c0,0,0.4-0.29,0.54-0.41c0.1-0.09,6.92-8.99,7.15-9.23l0,0c0.19-0.2,0.39-0.39,0.61-0.56
		c0.83-0.64,1.87-1.02,3-1.05l10.12,0c2.82,0,5.11,2.25,5.06,5.01c-0.05,2.7-2.37,4.84-5.14,4.84h-8.1c-0.64,0-1.27,0.05-1.88,0.15
		c-2.28,0.37-4.32,1.4-5.92,2.88c0,0-0.01,0.01-0.01,0.01c-0.13,0.12-0.26,0.24-0.38,0.37c-0.77,0.79-1.43,1.69-1.94,2.68
		c-0.18,0.34-0.34,0.7-0.47,1.06c-0.11,0.27-0.2,0.54-0.28,0.82c-0.23,0.79-0.38,1.62-0.42,2.47c-0.01,0.19-0.02,0.38-0.02,0.58
		c0,1.06,0.15,2.08,0.44,3.04c0.19,0.65,0.44,1.28,0.75,1.88c0.51,0.99,1.16,1.89,1.94,2.68v-7.6c0-0.67,0.09-1.32,0.25-1.94
		c0.1-0.38,0.22-0.75,0.37-1.1c0.29-0.68,0.67-1.31,1.13-1.88c1.5-1.85,3.83-3.04,6.44-3.04h7.81l-0.01-0.01
		c0.13,0.01,0.26,0.01,0.39,0.01c0.7,0,1.38-0.09,2.02-0.25c1.77-0.44,3.31-1.44,4.41-2.8c1.1-1.36,1.75-3.07,1.75-4.93
		S68.32,8.38,67.22,7.02z"/>
</g>
</svg>
