<?xml version="1.0" encoding="utf-8"?>
<!-- Generator: Adobe Illustrator 25.0.1, SVG Export Plug-In . SVG Version: 6.00 Build 0)  -->
<svg version="1.0" id="Layer_1" xmlns="http://www.w3.org/2000/svg" xmlns:xlink="http://www.w3.org/1999/xlink" x="0px" y="0px"
	 viewBox="0 0 82.88 59.71" style="enable-background:new 0 0 82.88 59.71;" xml:space="preserve">
<style type="text/css">
	.st0{fill:#000104;}
	.st1{fill:#FFFFFF;}
	.st2{fill:#EF493E;}
	.st3{opacity:0.6;fill-rule:evenodd;clip-rule:evenodd;fill:#FBBE43;}
	.st4{opacity:0.6;fill-rule:evenodd;clip-rule:evenodd;fill:#EF930E;}
	.st5{opacity:0.6;fill-rule:evenodd;clip-rule:evenodd;fill:#E67906;}
	.st6{fill:#9F8829;}
	.st7{fill:#3972A6;}
	.st8{fill:url(#SVGID_1_);stroke:#2B53A4;stroke-width:0.5;stroke-miterlimit:10;}
	.st9{fill:none;}
	.st10{fill:url(#SVGID_2_);}
	.st11{fill:url(#SVGID_3_);}
	.st12{fill:#B3B3B3;}
	.st13{fill:url(#SVGID_4_);}
	.st14{fill:url(#SVGID_5_);}
	.st15{fill:url(#SVGID_6_);}
	.st16{fill:#FFFFFF;stroke:#FFFFFF;stroke-width:0.25;stroke-miterlimit:10;}
	.st17{fill:#00001D;}
	.st18{fill:#4DA0C5;}
	.st19{fill:url(#SVGID_7_);}
	.st20{fill:#2E6A85;}
	.st21{fill:none;stroke:#144FA1;stroke-width:0.113;stroke-linejoin:round;stroke-miterlimit:10;}
	.st22{fill:#F27337;}
	.st23{fill:#8EB8D4;}
	.st24{fill:#F38056;}
	.st25{fill:#626365;}
	.st26{fill:#EF6D23;}
	.st27{fill:#284B82;}
	.st28{fill:#242956;}
	.st29{fill:#15142A;}
	.st30{fill:#84C343;}
	.st31{fill:#4CA1C6;}
	.st32{fill:#121617;}
	.st33{fill:#CF8966;}
	.st34{fill:#F37639;}
	.st35{opacity:0.3;fill:url(#SVGID_8_);}
	.st36{fill:#373277;}
	.st37{fill:#E61E25;}
	.st38{fill:#2555A5;}
	.st39{fill:#2E225E;}
	.st40{fill:#F8A425;}
	.st41{fill:#2058A7;}
	.st42{fill:none;stroke:#205AA8;stroke-width:0.156;stroke-miterlimit:10;}
	.st43{fill:#49A3C7;}
	.st44{fill-rule:evenodd;clip-rule:evenodd;}
	.st45{fill-rule:evenodd;clip-rule:evenodd;fill:url(#SVGID_9_);}
	.st46{fill-rule:evenodd;clip-rule:evenodd;fill:url(#SVGID_10_);}
	.st47{fill-rule:evenodd;clip-rule:evenodd;fill:url(#SVGID_11_);}
	.st48{fill:#1D2251;}
	.st49{fill:#2260AC;}
	.st50{fill:url(#SVGID_12_);}
	.st51{fill:#FFFFFC;}
	.st52{fill:#4C9FC5;}
	.st53{fill:#28306D;}
	.st54{fill:#4C9EC5;}
	.st55{fill:#28306E;}
	.st56{fill:#29306F;}
	.st57{fill:#F7F7FB;}
	.st58{fill:url(#SVGID_13_);}
	.st59{fill:url(#SVGID_14_);}
	.st60{fill:url(#SVGID_15_);}
	.st61{fill:url(#SVGID_16_);}
	.st62{fill:#10123C;}
	.st63{fill:#F5842C;}
	.st64{fill:#1F305E;}
	.st65{fill:#87BBD1;}
	.st66{fill:#203160;}
	.st67{fill:#235779;}
	.st68{fill:#359FA1;}
	.st69{fill:#A4D1A4;}
	.st70{fill:#B9DBBC;}
	.st71{fill:#C6DDCA;}
	.st72{fill:#662E14;}
	.st73{fill:#1D79A4;}
	.st74{fill:#C14B28;}
	.st75{fill:url(#SVGID_17_);}
	.st76{fill:url(#SVGID_18_);}
	.st77{fill:url(#SVGID_19_);}
	.st78{fill:url(#SVGID_20_);}
	.st79{fill:url(#SVGID_21_);}
	.st80{fill:url(#SVGID_22_);}
	.st81{fill:url(#SVGID_23_);}
	.st82{fill:url(#SVGID_24_);}
	.st83{fill:url(#SVGID_25_);}
	.st84{fill:url(#SVGID_26_);}
	.st85{fill:url(#SVGID_27_);}
	.st86{fill:url(#SVGID_28_);}
	.st87{fill:url(#SVGID_29_);}
	.st88{fill:url(#SVGID_30_);}
	.st89{fill:#1F164B;}
	.st90{clip-path:url(#SVGID_32_);fill:#253D97;}
	.st91{fill:url(#SVGID_33_);}
	.st92{fill:url(#SVGID_34_);}
	.st93{fill:url(#SVGID_35_);}
	.st94{fill:url(#SVGID_36_);}
	.st95{fill:url(#SVGID_37_);}
	.st96{fill:url(#SVGID_38_);}
	.st97{fill:url(#SVGID_39_);}
	.st98{fill:url(#SVGID_40_);}
	.st99{fill:url(#SVGID_41_);}
	.st100{fill:#443F41;}
	.st101{fill:#28306F;}
	.st102{fill:#71C49D;}
	.st103{fill:#F0C6A7;}
	.st104{fill:#DB8D82;}
	.st105{fill:#EFB7AC;}
	.st106{opacity:0.21;}
	.st107{fill-rule:evenodd;clip-rule:evenodd;fill:#A9196E;}
	.st108{fill-rule:evenodd;clip-rule:evenodd;fill:#FBE42C;}
	.st109{fill:#FBE42C;}
	.st110{fill:#A9196E;}
	.st111{fill:#7FC143;}
	.st112{clip-path:url(#SVGID_45_);fill:#7FC143;}
	.st113{clip-path:url(#SVGID_51_);fill:#7FC143;}
	.st114{fill:#243F8F;}
	.st115{fill:#EF4E2F;}
	.st116{fill:#010007;}
	.st117{fill:#0C0D37;}
	.st118{fill:#FBAF2D;}
	.st119{fill:url(#SVGID_54_);}
	.st120{fill-rule:evenodd;clip-rule:evenodd;fill:#FFFFFF;}
	.st121{fill:#1D4690;}
	.st122{fill:#3AA949;}
	.st123{fill:#F37A24;}
	.st124{fill:none;stroke:#F37A24;stroke-width:3.7145;stroke-miterlimit:10;}
	.st125{fill:#3AA949;stroke:#FFFFFF;stroke-width:1.3104;stroke-miterlimit:10;}
	.st126{fill:#46A2BB;}
	.st127{fill:#7153A0;}
	.st128{fill:#27316C;}
	.st129{fill:#2C65AE;}
	.st130{fill:#452D7A;}
	.st131{fill:#442C7A;}
	.st132{fill:#1A2642;}
	.st133{fill-rule:evenodd;clip-rule:evenodd;fill:#567EB8;}
	.st134{fill-rule:evenodd;clip-rule:evenodd;fill:#6A7EB8;}
	.st135{fill-rule:evenodd;clip-rule:evenodd;fill:#6A7EB9;}
	.st136{fill-rule:evenodd;clip-rule:evenodd;fill:#EE3C2D;}
	.st137{fill-rule:evenodd;clip-rule:evenodd;fill:#EF493F;}
	.st138{fill-rule:evenodd;clip-rule:evenodd;fill:#ED2C24;}
	.st139{fill-rule:evenodd;clip-rule:evenodd;fill:#E9AE28;}
	.st140{fill-rule:evenodd;clip-rule:evenodd;fill:#D69B28;}
	.st141{fill-rule:evenodd;clip-rule:evenodd;fill:#FCB729;}
	.st142{fill-rule:evenodd;clip-rule:evenodd;fill:#409E47;}
	.st143{fill-rule:evenodd;clip-rule:evenodd;fill:#4BB450;}
	.st144{fill-rule:evenodd;clip-rule:evenodd;fill:#338440;}
	.st145{fill:#C09C36;}
	.st146{fill:#1E552A;}
	.st147{clip-path:url(#SVGID_56_);fill:url(#SVGID_57_);}
	.st148{fill:#023A1E;}
	.st149{fill:#FFFFFA;}
	.st150{fill:#0D4F28;}
	.st151{fill:#0E5128;}
	.st152{fill:#0D4E27;}
	.st153{fill:#0E5229;}
	.st154{fill:#0E4823;}
	.st155{fill:#0E4C27;}
	.st156{fill:#F3F6E0;}
	.st157{fill:#0E4F28;}
	.st158{fill:#114823;}
	.st159{fill:#105229;}
	.st160{fill:#0A4A2B;}
	.st161{fill:#134F27;}
	.st162{fill:#165229;}
	.st163{fill:#0D5029;}
	.st164{fill:#0B4E2B;}
	.st165{fill:#105028;}
	.st166{fill:#0A492A;}
	.st167{fill:#E9F3E2;}
	.st168{fill:#144D26;}
	.st169{fill:#185C2F;}
	.st170{fill:#0F5028;}
	.st171{fill:#F3F8EA;}
	.st172{fill:#114D26;}
	.st173{fill:#70A685;}
	.st174{fill:#0D4F2A;}
	.st175{fill:#094A24;}
	.st176{fill:#0F4F27;}
	.st177{fill:#0A4C26;}
	.st178{fill:#A2D29A;}
	.st179{fill:#4D7E44;}
	.st180{fill:#E8F2E1;}
	.st181{fill:#EDF5E5;}
	.st182{fill:#E6F2E7;}
	.st183{fill:#E5F1DC;}
	.st184{fill:#E9F3E3;}
	.st185{fill:#E9F3E5;}
	.st186{fill:#E5F1DB;}
	.st187{fill:#D8ECD7;}
	.st188{fill:#D9EBD4;}
	.st189{fill:#E2F0DE;}
	.st190{fill:#366B4B;}
	.st191{fill:#5D6162;}
	.st192{fill:#212E5F;}
	.st193{fill:#DD1F26;}
	.st194{clip-path:url(#SVGID_59_);}
	.st195{fill:#23396F;}
	.st196{fill:#7FC24E;}
	.st197{clip-path:url(#SVGID_59_);fill:#23396F;}
	.st198{clip-path:url(#SVGID_59_);fill:#7FC24E;}
	.st199{fill:#91CEA4;}
	.st200{fill:#90CEA4;}
	.st201{fill:#C02026;}
	.st202{fill:#362E7E;}
</style>
<g>
	<path class="st62" d="M39.29,22.04c0.42,0.26,0.8,0.47,1.15,0.72c1.72,1.23,2.64,2.94,3.02,4.94c0.39,2.1,0.39,4.2-0.38,6.22
		c-1.17,3.06-3.45,4.83-6.8,5.23c-1.67,0.2-3.32,0.11-4.89-0.53c-2.63-1.07-4.14-3.05-4.77-5.72c-0.29-1.23-0.32-2.48-0.18-3.74
		c0.01-0.1,0.07-0.23,0.15-0.3c1-0.76,2.06-1.43,3.2-1.97c0.04-0.02,0.08-0.01,0.17-0.02c-0.04,0.13-0.07,0.22-0.1,0.32
		c-0.67,1.94-0.74,3.9-0.14,5.86c0.71,2.32,2.67,3.74,5.15,3.8c0.84,0.02,1.66-0.04,2.45-0.33c1.53-0.56,2.49-1.67,2.96-3.15
		c0.66-2.08,0.65-4.19-0.05-6.27c-0.69-2.06-2.33-3.22-4.53-3.38c-1.04-0.07-2,0.09-2.96,0.47c-5.54,2.21-10.65,5.14-15.29,8.81
		c-1.84,1.46-3.58,3.01-5.16,4.74c-0.2,0.22-0.34,0.24-0.59,0.06c-0.74-0.55-1.49-1.07-2.25-1.6c-0.23-0.16-0.24-0.27-0.05-0.47
		c4.46-4.68,9.49-8.68,15.21-11.82c5.53-3.04,11.42-5.12,17.67-6.21c2.46-0.43,4.93-0.74,7.43-0.81c1.68-0.05,3.36-0.1,5.04-0.04
		c3.06,0.1,6.08,0.45,9.07,1.13c0.12,0.03,0.25,0.03,0.34,0.09c0.11,0.07,0.24,0.2,0.25,0.31c0.04,0.61,0.05,1.23,0.08,1.84
		c0.01,0.28-0.11,0.33-0.38,0.31c-1.89-0.17-3.77-0.39-5.66-0.48c-1.84-0.09-3.69-0.11-5.53-0.05c-2.86,0.09-5.7,0.38-8.51,0.91
		c-1.52,0.29-3.02,0.65-4.53,0.98C39.69,21.91,39.52,21.97,39.29,22.04z"/>
	<path class="st62" d="M69.97,36.34c-0.43,0.49-0.8,0.95-1.22,1.36c-1.01,0.98-2.26,1.45-3.68,1.52c-0.94,0.05-1.87,0-2.78-0.29
		c-2-0.64-3.25-2.26-3.33-4.31c-0.04-0.97,0.08-1.91,0.49-2.8c0.7-1.49,1.97-2.35,3.54-2.75c1.19-0.3,2.41-0.45,3.63-0.64
		c1-0.16,2.01-0.28,3.01-0.41c0.25-0.03,0.35-0.13,0.35-0.39c-0.02-0.75-0.13-1.48-0.45-2.17c-0.47-1.02-1.29-1.6-2.42-1.71
		c-2.21-0.22-4.18,0.41-5.94,1.7c-0.14,0.1-0.27,0.19-0.47,0.33c-0.02-0.17-0.04-0.27-0.04-0.37c0-0.72,0.01-1.44-0.01-2.17
		c0-0.23,0.08-0.37,0.28-0.49c1.51-0.86,3.13-1.31,4.87-1.42c1.03-0.06,2.05-0.03,3.05,0.22c2.15,0.54,3.37,1.94,3.8,4.02
		c0.14,0.68,0.2,1.39,0.2,2.09c0.02,3.57,0.01,7.14,0.01,10.7c0,0.47,0,0.47-0.49,0.47c-0.67,0-1.33-0.01-2,0.01
		c-0.31,0.01-0.43-0.09-0.42-0.4C69.99,37.75,69.97,37.07,69.97,36.34z M69.97,31.68c0-0.47-0.01-0.81,0-1.15
		c0.01-0.24-0.08-0.31-0.34-0.27c-1.06,0.15-2.12,0.28-3.17,0.42c-1.02,0.14-2.03,0.28-2.98,0.69c-0.77,0.33-1.29,0.87-1.46,1.68
		c-0.07,0.34-0.09,0.69-0.1,1.04c-0.01,1.14,0.64,2.09,1.75,2.48c1.9,0.67,4.26,0.15,5.55-1.89C69.84,33.73,70.03,32.67,69.97,31.68
		z"/>
	<path class="st62" d="M50.99,24.98c0.41-0.92,0.91-1.76,1.67-2.43c1.25-1.12,2.72-1.35,4.33-0.99c0.12,0.03,0.29,0.17,0.29,0.27
		c0.02,0.88,0.01,1.76,0.01,2.67c-0.37-0.13-0.69-0.29-1.03-0.37c-1.91-0.43-3.46,0.28-4.41,2.02c-0.66,1.19-0.86,2.48-0.86,3.82
		c0,2.79,0,5.59,0,8.38c0,0.5,0,0.5-0.5,0.5c-0.65,0-1.31,0-1.96,0c-0.43,0-0.43-0.01-0.43-0.43c0-3.43,0-6.86,0-10.29
		c0-1.97,0-3.95,0-5.92c0-0.47,0-0.47,0.49-0.47c0.68,0,1.35,0.01,2.03-0.01c0.29-0.01,0.38,0.1,0.38,0.37
		C50.98,23.05,50.99,24.01,50.99,24.98z"/>
	<path class="st63" d="M32.12,31.28c-0.07-1.51,1.38-2.84,2.96-2.8c1.57,0.04,2.87,1.3,2.86,2.85c0,1.56-1.32,2.85-2.91,2.84
		C33.33,34.16,32.06,32.82,32.12,31.28z"/>
	<path class="st62" d="M67.86,43.51c0.88-0.74,1.69-0.62,2.23,0.09c0.36-0.19,0.68-0.44,1.05-0.53c0.84-0.21,1.53,0.28,1.58,1.11
		c0.06,0.85,0.04,1.7,0.06,2.54c0.01,0.29-0.17,0.32-0.4,0.32c-0.26,0.01-0.34-0.11-0.34-0.35c0.01-0.65,0.01-1.3,0-1.94
		c0-0.19-0.02-0.38-0.07-0.57c-0.15-0.57-0.8-0.76-1.26-0.37c-0.27,0.23-0.41,0.52-0.41,0.87c0,0.66-0.01,1.32,0,1.97
		c0.01,0.29-0.11,0.4-0.41,0.39c-0.23-0.01-0.33-0.1-0.33-0.33c0.01-0.66,0.01-1.32,0-1.97c0-0.2-0.03-0.4-0.08-0.59
		c-0.08-0.29-0.3-0.47-0.6-0.51c-0.32-0.05-0.61,0.03-0.78,0.29c-0.14,0.23-0.25,0.5-0.26,0.76c-0.04,0.67-0.02,1.34-0.01,2.01
		c0,0.27-0.1,0.36-0.37,0.35c-0.25,0-0.38-0.07-0.38-0.35c0.01-1.08,0.01-2.17,0-3.25c0-0.23,0.06-0.36,0.33-0.36
		c0.25,0,0.44,0.03,0.42,0.34C67.83,43.45,67.85,43.48,67.86,43.51z"/>
	<path class="st62" d="M51.58,44.29c0-0.77,0.01-1.55,0-2.32c-0.01-0.3,0.09-0.43,0.41-0.41c0.51,0.03,1.02,0.01,1.53,0.05
		c0.9,0.07,1.43,0.59,1.52,1.46c0.08,0.82-0.43,1.59-1.23,1.81c-0.31,0.08-0.64,0.12-0.97,0.13c-0.52,0.02-0.52,0.01-0.52,0.53
		c0,0.39-0.01,0.79,0,1.18c0.01,0.26-0.11,0.33-0.35,0.33c-0.25,0-0.39-0.06-0.39-0.34C51.58,45.9,51.58,45.1,51.58,44.29
		C51.58,44.29,51.58,44.29,51.58,44.29z M52.83,44.38c0.26-0.05,0.54-0.07,0.79-0.16c0.48-0.16,0.67-0.53,0.63-1.13
		c-0.03-0.45-0.28-0.73-0.76-0.82c-0.29-0.05-0.58-0.04-0.88-0.07c-0.23-0.02-0.31,0.08-0.31,0.29c0.01,0.44,0,0.89,0,1.34
		C52.31,44.35,52.31,44.35,52.83,44.38z"/>
	<path class="st62" d="M56.63,43.62c0.43-0.45,0.9-0.65,1.46-0.59c0.68,0.07,1.11,0.5,1.15,1.25c0.05,0.84,0.02,1.68,0.02,2.51
		c0,0.26-0.19,0.24-0.37,0.25c-0.18,0-0.33-0.03-0.32-0.25c0.01-0.52,0.01-1.04,0-1.56c0-0.25-0.02-0.51-0.05-0.76
		c-0.06-0.53-0.29-0.79-0.73-0.84c-0.42-0.05-0.9,0.23-1.05,0.66c-0.07,0.19-0.09,0.39-0.1,0.59c-0.01,0.6-0.01,1.21,0,1.81
		c0,0.26-0.1,0.36-0.37,0.36c-0.26,0-0.37-0.09-0.37-0.36c0.01-1.69,0.01-3.37,0-5.06c0-0.26,0.1-0.35,0.37-0.35
		c0.26,0,0.37,0.08,0.37,0.35C56.62,42.26,56.63,42.9,56.63,43.62z"/>
	<path class="st62" d="M62.56,46.52c-0.44,0.52-0.96,0.68-1.56,0.55c-0.52-0.11-0.86-0.45-0.92-0.91c-0.08-0.58,0.13-1.08,0.63-1.28
		c0.38-0.15,0.8-0.2,1.2-0.28c0.2-0.04,0.4-0.06,0.6-0.09c0.03-0.63-0.29-0.96-0.87-0.89c-0.28,0.03-0.56,0.16-0.83,0.26
		c-0.1,0.03-0.18,0.1-0.28,0.15c-0.16-0.54-0.1-0.73,0.38-0.85c0.41-0.1,0.86-0.16,1.28-0.12c0.65,0.07,1.02,0.47,1.05,1.11
		c0.03,0.87,0.01,1.74,0.02,2.61c0,0.23-0.15,0.25-0.33,0.25c-0.17,0-0.37,0.03-0.37-0.24C62.56,46.73,62.56,46.66,62.56,46.52z
		 M62.51,45.09c-0.41,0.07-0.82,0.11-1.2,0.2c-0.42,0.1-0.56,0.35-0.49,0.74c0.05,0.3,0.33,0.49,0.71,0.48
		C62.22,46.5,62.64,45.92,62.51,45.09z"/>
	<path class="st62" d="M65.09,43.56c0.24-0.16,0.46-0.36,0.72-0.46c0.18-0.07,0.48-0.07,0.61,0.04c0.12,0.1,0.08,0.38,0.1,0.56
		c-0.08,0.03-0.1,0.05-0.12,0.05c-0.84-0.13-1.29,0.24-1.32,1.09c-0.02,0.6-0.01,1.21,0,1.82c0.01,0.26-0.06,0.4-0.36,0.39
		c-0.28,0-0.39-0.1-0.39-0.38c0.01-1.07,0.01-2.15,0-3.22c0-0.25,0.08-0.37,0.36-0.37c0.27,0,0.42,0.07,0.38,0.36
		C65.08,43.5,65.09,43.56,65.09,43.56z"/>
</g>
</svg>
