<?xml version="1.0" encoding="utf-8"?>
<!-- Generator: Adobe Illustrator 25.0.1, SVG Export Plug-In . SVG Version: 6.00 Build 0)  -->
<svg version="1.0" id="Layer_1" xmlns="http://www.w3.org/2000/svg" xmlns:xlink="http://www.w3.org/1999/xlink" x="0px" y="0px"
	 viewBox="0 0 27.12 29.52" style="enable-background:new 0 0 27.12 29.52;" xml:space="preserve">
<style type="text/css">
	.st0{fill:#000104;}
	.st1{fill:#FFFFFF;}
	.st2{fill:#EF493E;}
	.st3{opacity:0.6;fill-rule:evenodd;clip-rule:evenodd;fill:#FBBE43;}
	.st4{opacity:0.6;fill-rule:evenodd;clip-rule:evenodd;fill:#EF930E;}
	.st5{opacity:0.6;fill-rule:evenodd;clip-rule:evenodd;fill:#E67906;}
	.st6{fill:#9F8829;}
	.st7{fill:#3972A6;}
	.st8{fill:url(#SVGID_1_);stroke:#2B53A4;stroke-width:0.5;stroke-miterlimit:10;}
	.st9{fill:none;}
	.st10{fill:url(#SVGID_2_);}
	.st11{fill:url(#SVGID_3_);}
	.st12{fill:#B3B3B3;}
	.st13{fill:url(#SVGID_4_);}
	.st14{fill:url(#SVGID_5_);}
	.st15{fill:url(#SVGID_6_);}
	.st16{fill:#FFFFFF;stroke:#FFFFFF;stroke-width:0.25;stroke-miterlimit:10;}
	.st17{fill:#00001D;}
	.st18{fill:#4DA0C5;}
	.st19{fill:url(#SVGID_7_);}
	.st20{fill:#2E6A85;}
	.st21{fill:none;stroke:#144FA1;stroke-width:0.113;stroke-linejoin:round;stroke-miterlimit:10;}
	.st22{fill:#F27337;}
	.st23{fill:#8EB8D4;}
	.st24{fill:#F38056;}
	.st25{fill:#626365;}
	.st26{fill:#EF6D23;}
	.st27{fill:#284B82;}
	.st28{fill:#242956;}
	.st29{fill:#15142A;}
	.st30{fill:#84C343;}
	.st31{fill:#4CA1C6;}
	.st32{fill:#121617;}
	.st33{fill:#CF8966;}
	.st34{fill:#F37639;}
	.st35{opacity:0.3;fill:url(#SVGID_8_);}
	.st36{fill:#373277;}
	.st37{fill:#E61E25;}
	.st38{fill:#2555A5;}
	.st39{fill:#2E225E;}
	.st40{fill:#F8A425;}
	.st41{fill:#2058A7;}
	.st42{fill:none;stroke:#205AA8;stroke-width:0.156;stroke-miterlimit:10;}
	.st43{fill:#49A3C7;}
	.st44{fill-rule:evenodd;clip-rule:evenodd;}
	.st45{fill-rule:evenodd;clip-rule:evenodd;fill:url(#SVGID_9_);}
	.st46{fill-rule:evenodd;clip-rule:evenodd;fill:url(#SVGID_10_);}
	.st47{fill-rule:evenodd;clip-rule:evenodd;fill:url(#SVGID_11_);}
	.st48{fill:#1D2251;}
	.st49{fill:#2260AC;}
	.st50{fill:url(#SVGID_12_);}
	.st51{fill:#FFFFFC;}
	.st52{fill:#4C9FC5;}
	.st53{fill:#28306D;}
	.st54{fill:#4C9EC5;}
	.st55{fill:#28306E;}
	.st56{fill:#29306F;}
	.st57{fill:#F7F7FB;}
	.st58{fill:url(#SVGID_13_);}
	.st59{fill:url(#SVGID_14_);}
	.st60{fill:url(#SVGID_15_);}
	.st61{fill:url(#SVGID_16_);}
	.st62{fill:#10123C;}
	.st63{fill:#F5842C;}
	.st64{fill:#1F305E;}
	.st65{fill:#87BBD1;}
	.st66{fill:#203160;}
	.st67{fill:#235779;}
	.st68{fill:#359FA1;}
	.st69{fill:#A4D1A4;}
	.st70{fill:#B9DBBC;}
	.st71{fill:#C6DDCA;}
	.st72{fill:#662E14;}
	.st73{fill:#1D79A4;}
	.st74{fill:#C14B28;}
	.st75{fill:url(#SVGID_17_);}
	.st76{fill:url(#SVGID_18_);}
	.st77{fill:url(#SVGID_19_);}
	.st78{fill:url(#SVGID_20_);}
	.st79{fill:url(#SVGID_21_);}
	.st80{fill:url(#SVGID_22_);}
	.st81{fill:url(#SVGID_23_);}
	.st82{fill:url(#SVGID_24_);}
	.st83{fill:url(#SVGID_25_);}
	.st84{fill:url(#SVGID_26_);}
	.st85{fill:url(#SVGID_27_);}
	.st86{fill:url(#SVGID_28_);}
	.st87{fill:url(#SVGID_29_);}
	.st88{fill:url(#SVGID_30_);}
	.st89{fill:#1F164B;}
	.st90{clip-path:url(#SVGID_32_);fill:#253D97;}
	.st91{fill:url(#SVGID_33_);}
	.st92{fill:url(#SVGID_34_);}
	.st93{fill:url(#SVGID_35_);}
	.st94{fill:url(#SVGID_36_);}
	.st95{fill:url(#SVGID_37_);}
	.st96{fill:url(#SVGID_38_);}
	.st97{fill:url(#SVGID_39_);}
	.st98{fill:url(#SVGID_40_);}
	.st99{fill:url(#SVGID_41_);}
	.st100{fill:#443F41;}
	.st101{fill:#28306F;}
	.st102{fill:#71C49D;}
	.st103{fill:#F0C6A7;}
	.st104{fill:#DB8D82;}
	.st105{fill:#EFB7AC;}
	.st106{opacity:0.21;}
	.st107{fill-rule:evenodd;clip-rule:evenodd;fill:#A9196E;}
	.st108{fill-rule:evenodd;clip-rule:evenodd;fill:#FBE42C;}
	.st109{fill:#FBE42C;}
	.st110{fill:#A9196E;}
	.st111{fill:#7FC143;}
	.st112{clip-path:url(#SVGID_45_);fill:#7FC143;}
	.st113{clip-path:url(#SVGID_51_);fill:#7FC143;}
	.st114{fill:#243F8F;}
	.st115{fill:#EF4E2F;}
	.st116{fill:#010007;}
	.st117{fill:#0C0D37;}
	.st118{fill:#FBAF2D;}
	.st119{fill:url(#SVGID_54_);}
	.st120{fill-rule:evenodd;clip-rule:evenodd;fill:#FFFFFF;}
	.st121{fill:#1D4690;}
	.st122{fill:#3AA949;}
	.st123{fill:#F37A24;}
	.st124{fill:none;stroke:#F37A24;stroke-width:3.7145;stroke-miterlimit:10;}
	.st125{fill:#3AA949;stroke:#FFFFFF;stroke-width:1.3104;stroke-miterlimit:10;}
	.st126{fill:#46A2BB;}
	.st127{fill:#7153A0;}
	.st128{fill:#27316C;}
	.st129{fill:#2C65AE;}
	.st130{fill:#452D7A;}
	.st131{fill:#442C7A;}
	.st132{fill:#1A2642;}
	.st133{fill-rule:evenodd;clip-rule:evenodd;fill:#567EB8;}
	.st134{fill-rule:evenodd;clip-rule:evenodd;fill:#6A7EB8;}
	.st135{fill-rule:evenodd;clip-rule:evenodd;fill:#6A7EB9;}
	.st136{fill-rule:evenodd;clip-rule:evenodd;fill:#EE3C2D;}
	.st137{fill-rule:evenodd;clip-rule:evenodd;fill:#EF493F;}
	.st138{fill-rule:evenodd;clip-rule:evenodd;fill:#ED2C24;}
	.st139{fill-rule:evenodd;clip-rule:evenodd;fill:#E9AE28;}
	.st140{fill-rule:evenodd;clip-rule:evenodd;fill:#D69B28;}
	.st141{fill-rule:evenodd;clip-rule:evenodd;fill:#FCB729;}
	.st142{fill-rule:evenodd;clip-rule:evenodd;fill:#409E47;}
	.st143{fill-rule:evenodd;clip-rule:evenodd;fill:#4BB450;}
	.st144{fill-rule:evenodd;clip-rule:evenodd;fill:#338440;}
	.st145{fill:#C09C36;}
	.st146{fill:#1E552A;}
	.st147{clip-path:url(#SVGID_56_);fill:url(#SVGID_57_);}
	.st148{fill:#023A1E;}
	.st149{fill:#FFFFFA;}
	.st150{fill:#0D4F28;}
	.st151{fill:#0E5128;}
	.st152{fill:#0D4E27;}
	.st153{fill:#0E5229;}
	.st154{fill:#0E4823;}
	.st155{fill:#0E4C27;}
	.st156{fill:#F3F6E0;}
	.st157{fill:#0E4F28;}
	.st158{fill:#114823;}
	.st159{fill:#105229;}
	.st160{fill:#0A4A2B;}
	.st161{fill:#134F27;}
	.st162{fill:#165229;}
	.st163{fill:#0D5029;}
	.st164{fill:#0B4E2B;}
	.st165{fill:#105028;}
	.st166{fill:#0A492A;}
	.st167{fill:#E9F3E2;}
	.st168{fill:#144D26;}
	.st169{fill:#185C2F;}
	.st170{fill:#0F5028;}
	.st171{fill:#F3F8EA;}
	.st172{fill:#114D26;}
	.st173{fill:#70A685;}
	.st174{fill:#0D4F2A;}
	.st175{fill:#094A24;}
	.st176{fill:#0F4F27;}
	.st177{fill:#0A4C26;}
	.st178{fill:#A2D29A;}
	.st179{fill:#4D7E44;}
	.st180{fill:#E8F2E1;}
	.st181{fill:#EDF5E5;}
	.st182{fill:#E6F2E7;}
	.st183{fill:#E5F1DC;}
	.st184{fill:#E9F3E3;}
	.st185{fill:#E9F3E5;}
	.st186{fill:#E5F1DB;}
	.st187{fill:#D8ECD7;}
	.st188{fill:#D9EBD4;}
	.st189{fill:#E2F0DE;}
	.st190{fill:#366B4B;}
	.st191{fill:#5D6162;}
	.st192{fill:#212E5F;}
	.st193{fill:#DD1F26;}
	.st194{clip-path:url(#SVGID_59_);}
	.st195{fill:#23396F;}
	.st196{fill:#7FC24E;}
	.st197{clip-path:url(#SVGID_59_);fill:#23396F;}
	.st198{clip-path:url(#SVGID_59_);fill:#7FC24E;}
	.st199{fill:#91CEA4;}
	.st200{fill:#90CEA4;}
	.st201{fill:#C02026;}
	.st202{fill:#362E7E;}
</style>
<g>
	<rect class="st17" width="27.12" height="29.52"/>
	<path class="st1" d="M23.26,11.79c-0.71-1.32-1.7-2.38-2.97-3.17c-0.74-0.46-1.65-0.82-2.73-1.08c-1.07-0.26-2.52-0.4-4.35-0.4
		H8.55v12.54h2.48V9.27h2.33c1.15,0,2.14,0.08,2.97,0.24c0.83,0.16,1.61,0.45,2.35,0.87c1.01,0.58,1.77,1.37,2.28,2.37
		c0.51,1,0.76,2.24,0.76,3.7c0,1.45-0.23,2.67-0.7,3.64c-0.46,0.97-1.16,1.75-2.09,2.35c-0.74,0.48-1.56,0.8-2.45,0.98
		c-0.73,0.14-1.57,0.23-2.51,0.26v2.13c1.39-0.03,2.53-0.14,3.43-0.34c1.05-0.23,2-0.61,2.85-1.14c1.23-0.76,2.21-1.83,2.95-3.21
		c0.74-1.38,1.11-2.92,1.11-4.61C24.33,14.68,23.97,13.11,23.26,11.79z"/>
	<g>
		<g>
			<path class="st18" d="M5.7,21.92c0,0.07-0.01,0.14-0.04,0.21C5.64,22.2,5.6,22.26,5.56,22.3c-0.06,0.06-0.13,0.11-0.21,0.14
				c-0.08,0.03-0.18,0.05-0.29,0.05H4.8v0.52H4.39v-1.59h0.68c0.1,0,0.19,0.01,0.26,0.03c0.07,0.02,0.13,0.04,0.18,0.08
				c0.06,0.04,0.11,0.1,0.15,0.16S5.7,21.83,5.7,21.92z M5.28,21.93c0-0.04-0.01-0.08-0.04-0.12c-0.02-0.03-0.05-0.06-0.08-0.07
				c-0.04-0.02-0.08-0.03-0.12-0.03c-0.04,0-0.09,0-0.16,0H4.8v0.47h0.12c0.07,0,0.13,0,0.17-0.01c0.05-0.01,0.08-0.03,0.12-0.05
				c0.03-0.02,0.04-0.05,0.06-0.08C5.27,22.02,5.28,21.98,5.28,21.93z"/>
			<path class="st18" d="M7.41,23.01H7v-0.7H6.4v0.7H5.99v-1.59H6.4V22H7v-0.58h0.41V23.01z"/>
			<path class="st18" d="M9.29,23.01H8.87l-0.11-0.32H8.17l-0.11,0.32H7.64l0.59-1.59H8.7L9.29,23.01z M8.66,22.4l-0.2-0.57
				l-0.2,0.57H8.66z"/>
			<path class="st18" d="M11.05,23.01h-0.5l-0.43-0.58H9.93v0.58H9.52v-1.59h0.69c0.09,0,0.18,0,0.24,0.02
				c0.07,0.01,0.13,0.03,0.19,0.07c0.06,0.04,0.11,0.08,0.14,0.14c0.04,0.06,0.05,0.13,0.05,0.21c0,0.12-0.03,0.21-0.08,0.29
				s-0.13,0.14-0.23,0.18L11.05,23.01z M10.41,21.91c0-0.04-0.01-0.07-0.03-0.1c-0.02-0.03-0.04-0.05-0.08-0.07
				c-0.03-0.01-0.06-0.02-0.1-0.02c-0.04,0-0.08,0-0.13,0H9.93v0.43h0.12c0.07,0,0.12,0,0.17-0.01c0.04-0.01,0.08-0.02,0.11-0.04
				c0.03-0.02,0.05-0.05,0.06-0.07C10.4,21.99,10.41,21.95,10.41,21.91z"/>
			<path class="st18" d="M12.9,23.01h-0.41v-1.06l-0.29,0.69h-0.28l-0.29-0.69v1.06h-0.39v-1.59h0.48l0.36,0.8l0.36-0.8h0.47V23.01z
				"/>
			<path class="st18" d="M14.77,23.01h-0.42l-0.11-0.32h-0.59l-0.11,0.32h-0.41l0.59-1.59h0.47L14.77,23.01z M14.14,22.4l-0.2-0.57
				l-0.2,0.57H14.14z"/>
		</g>
	</g>
	<g>
		<g>
			<path class="st1" d="M5.89,24.73c0,0.15-0.03,0.28-0.1,0.4c-0.07,0.12-0.15,0.21-0.26,0.27c-0.08,0.05-0.16,0.08-0.26,0.1
				c-0.09,0.02-0.2,0.03-0.33,0.03H4.39v-1.59h0.58c0.13,0,0.24,0.01,0.34,0.03s0.17,0.05,0.24,0.09c0.11,0.07,0.2,0.16,0.26,0.27
				S5.89,24.58,5.89,24.73z M5.47,24.73c0-0.1-0.02-0.19-0.06-0.27c-0.04-0.07-0.1-0.13-0.18-0.17c-0.04-0.02-0.08-0.03-0.13-0.04
				c-0.04-0.01-0.11-0.01-0.2-0.01H4.8v1h0.1c0.1,0,0.17,0,0.21-0.01s0.09-0.03,0.13-0.05c0.08-0.04,0.13-0.1,0.16-0.17
				C5.45,24.92,5.47,24.83,5.47,24.73z"/>
			<path class="st1" d="M7.74,25.53h-0.5L6.8,24.94H6.61v0.58H6.2v-1.59h0.69c0.09,0,0.17,0,0.24,0.02
				c0.07,0.01,0.13,0.03,0.19,0.07c0.06,0.04,0.11,0.08,0.14,0.14s0.05,0.13,0.05,0.21c0,0.12-0.03,0.21-0.08,0.29
				s-0.13,0.14-0.23,0.18L7.74,25.53z M7.09,24.42c0-0.04-0.01-0.07-0.03-0.1c-0.02-0.03-0.04-0.05-0.08-0.07
				c-0.03-0.01-0.06-0.02-0.1-0.02c-0.04,0-0.08,0-0.13,0H6.61v0.43h0.13c0.06,0,0.12,0,0.16-0.01c0.04-0.01,0.08-0.02,0.11-0.04
				c0.03-0.02,0.05-0.05,0.06-0.07C7.09,24.5,7.09,24.47,7.09,24.42z"/>
			<path class="st1" d="M9.06,25.53H7.91v-1.59h1.15v0.31H8.32v0.27h0.69v0.31H8.32v0.39h0.74V25.53z"/>
			<path class="st1" d="M10.88,25.53h-0.42l-0.11-0.32H9.75l-0.11,0.32H9.23l0.59-1.59h0.47L10.88,25.53z M10.24,24.91l-0.2-0.57
				l-0.2,0.57H10.24z"/>
			<path class="st1" d="M12.77,25.53h-0.41v-1.06l-0.29,0.69h-0.28l-0.29-0.69v1.06H11.1v-1.59h0.48l0.36,0.8l0.36-0.8h0.47V25.53z"
				/>
		</g>
	</g>
	<path class="st18" d="M16.31,6.42c-0.4-0.73-0.97-1.34-1.7-1.83C14,4.17,13.29,3.87,12.49,3.67c-0.8-0.19-1.78-0.29-2.93-0.29H4.35
		v17.25H6.9v-5.2h1.65v-2.18H6.9V5.58h2.53c0.81,0,1.48,0.06,2.01,0.17c0.53,0.12,1,0.31,1.41,0.57c0.47,0.31,0.83,0.71,1.06,1.2
		c0.23,0.49,0.35,1.07,0.35,1.73c0,0.57-0.08,1.08-0.25,1.54c-0.17,0.46-0.45,0.89-0.86,1.3c-0.4,0.4-0.93,0.7-1.57,0.88
		c-0.17,0.05-0.35,0.09-0.54,0.12v2.25c0.7-0.08,1.31-0.22,1.84-0.41c0.9-0.33,1.69-0.83,2.35-1.49c0.53-0.53,0.95-1.16,1.25-1.89
		c0.3-0.73,0.45-1.52,0.45-2.37C16.91,8.07,16.71,7.15,16.31,6.42z"/>
	<g>
		<path class="st1" d="M4.76,26.79H4.44v0.13h0.29v0.13H4.44v0.3H4.27v-0.69h0.5V26.79z"/>
		<path class="st1" d="M5.56,27.01c0,0.11-0.03,0.2-0.09,0.26c-0.06,0.06-0.15,0.1-0.26,0.1c-0.11,0-0.2-0.03-0.26-0.1
			c-0.06-0.07-0.1-0.15-0.1-0.26c0-0.11,0.03-0.2,0.1-0.26s0.15-0.1,0.26-0.1s0.2,0.03,0.26,0.1C5.53,26.81,5.56,26.9,5.56,27.01z
			 M5.32,27.18c0.02-0.02,0.03-0.05,0.04-0.08c0.01-0.03,0.01-0.06,0.01-0.1c0-0.04,0-0.08-0.01-0.11
			c-0.01-0.03-0.02-0.05-0.04-0.07c-0.02-0.02-0.04-0.03-0.05-0.04c-0.02-0.01-0.04-0.01-0.06-0.01c-0.02,0-0.04,0-0.06,0.01
			c-0.02,0.01-0.04,0.02-0.06,0.04c-0.02,0.02-0.03,0.04-0.04,0.07c-0.01,0.03-0.02,0.07-0.02,0.11s0.01,0.08,0.02,0.11
			s0.02,0.05,0.04,0.07c0.02,0.02,0.03,0.03,0.05,0.04s0.04,0.01,0.07,0.01c0.02,0,0.04,0,0.06-0.01S5.31,27.2,5.32,27.18z"/>
		<path class="st1" d="M6.37,27.35H6.15L5.96,27.1H5.88v0.25H5.7v-0.69H6c0.04,0,0.08,0,0.11,0.01c0.03,0,0.06,0.01,0.08,0.03
			c0.03,0.01,0.05,0.04,0.06,0.06c0.02,0.03,0.02,0.06,0.02,0.09c0,0.05-0.01,0.09-0.04,0.12s-0.06,0.06-0.1,0.08L6.37,27.35z
			 M6.09,26.87c0-0.02,0-0.03-0.01-0.04c-0.01-0.01-0.02-0.02-0.04-0.03c-0.01,0-0.03-0.01-0.04-0.01c-0.02,0-0.04,0-0.06,0H5.88
			v0.19h0.05c0.03,0,0.05,0,0.07,0c0.02,0,0.04-0.01,0.05-0.02c0.01-0.01,0.02-0.02,0.03-0.03S6.09,26.89,6.09,26.87z"/>
		<path class="st1" d="M7.34,26.88c0,0.03-0.01,0.06-0.02,0.09C7.32,27,7.3,27.02,7.28,27.04c-0.03,0.03-0.06,0.05-0.09,0.06
			c-0.03,0.01-0.08,0.02-0.13,0.02H6.95v0.23H6.77v-0.69h0.29c0.04,0,0.08,0,0.11,0.01c0.03,0.01,0.06,0.02,0.08,0.03
			c0.03,0.02,0.05,0.04,0.06,0.07C7.33,26.8,7.34,26.84,7.34,26.88z M7.16,26.88c0-0.02-0.01-0.04-0.02-0.05S7.12,26.81,7.1,26.8
			c-0.02-0.01-0.04-0.01-0.05-0.01s-0.04,0-0.07,0H6.95V27H7c0.03,0,0.06,0,0.08,0c0.02,0,0.04-0.01,0.05-0.02
			c0.01-0.01,0.02-0.02,0.03-0.04S7.16,26.9,7.16,26.88z"/>
		<path class="st1" d="M8.09,27.35H7.91v-0.31H7.65v0.31H7.47v-0.69h0.18v0.25h0.26v-0.25h0.18V27.35z"/>
		<path class="st1" d="M8.91,27.35H8.72l-0.05-0.14H8.42l-0.05,0.14H8.19l0.26-0.69h0.21L8.91,27.35z M8.63,27.09l-0.08-0.25
			l-0.09,0.25H8.63z"/>
		<path class="st1" d="M9.68,27.35H9.46L9.27,27.1H9.19v0.25H9.01v-0.69h0.3c0.04,0,0.08,0,0.11,0.01c0.03,0,0.06,0.01,0.08,0.03
			c0.03,0.01,0.05,0.04,0.06,0.06c0.02,0.03,0.02,0.06,0.02,0.09c0,0.05-0.01,0.09-0.04,0.12s-0.06,0.06-0.1,0.08L9.68,27.35z
			 M9.4,26.87c0-0.02,0-0.03-0.01-0.04c-0.01-0.01-0.02-0.02-0.04-0.03c-0.01,0-0.03-0.01-0.04-0.01s-0.04,0-0.06,0H9.19v0.19h0.05
			c0.03,0,0.05,0,0.07,0s0.04-0.01,0.05-0.02c0.01-0.01,0.02-0.02,0.03-0.03S9.4,26.89,9.4,26.87z"/>
		<path class="st1" d="M10.48,27.35H10.3v-0.46l-0.13,0.3h-0.12l-0.13-0.3v0.46H9.75v-0.69h0.21l0.16,0.35l0.16-0.35h0.21V27.35z"/>
		<path class="st1" d="M11.3,27.35h-0.18l-0.05-0.14h-0.26l-0.05,0.14h-0.18l0.26-0.69h0.21L11.3,27.35z M11.02,27.09l-0.09-0.25
			l-0.08,0.25H11.02z"/>
		<path class="st1" d="M11.71,27.37c-0.05,0-0.1-0.01-0.14-0.02c-0.04-0.01-0.08-0.04-0.11-0.07c-0.03-0.03-0.05-0.07-0.07-0.11
			s-0.03-0.1-0.03-0.16c0-0.05,0.01-0.1,0.02-0.15c0.02-0.04,0.04-0.08,0.07-0.12c0.03-0.03,0.07-0.05,0.11-0.07
			c0.04-0.02,0.09-0.02,0.14-0.02c0.03,0,0.06,0,0.08,0c0.02,0,0.04,0.01,0.06,0.01c0.02,0.01,0.04,0.01,0.06,0.02
			c0.02,0.01,0.03,0.01,0.04,0.02v0.17h-0.02c-0.01-0.01-0.02-0.02-0.03-0.03c-0.01-0.01-0.03-0.02-0.05-0.03
			c-0.02-0.01-0.04-0.02-0.05-0.03s-0.04-0.01-0.06-0.01s-0.05,0-0.07,0.01c-0.02,0.01-0.04,0.02-0.06,0.04
			c-0.02,0.02-0.03,0.04-0.04,0.07s-0.02,0.06-0.02,0.11c0,0.04,0.01,0.08,0.02,0.11c0.01,0.03,0.03,0.05,0.05,0.07
			c0.02,0.02,0.04,0.03,0.06,0.04s0.04,0.01,0.07,0.01c0.02,0,0.04,0,0.06-0.01c0.02-0.01,0.04-0.01,0.06-0.03
			c0.02-0.01,0.03-0.02,0.04-0.03c0.01-0.01,0.02-0.02,0.03-0.03h0.02v0.17c-0.02,0.01-0.04,0.01-0.05,0.02s-0.03,0.01-0.05,0.02
			c-0.02,0.01-0.04,0.01-0.06,0.01C11.78,27.36,11.75,27.37,11.71,27.37z"/>
		<path class="st1" d="M12.59,27.35h-0.5v-0.69h0.5v0.13h-0.32v0.12h0.3v0.13h-0.3v0.17h0.32V27.35z"/>
		<path class="st1" d="M13.35,27.1c0,0.08-0.03,0.15-0.08,0.2c-0.05,0.05-0.13,0.07-0.23,0.07s-0.18-0.02-0.23-0.07
			c-0.05-0.04-0.08-0.11-0.08-0.2v-0.44h0.18v0.43c0,0.05,0.01,0.08,0.03,0.11s0.05,0.04,0.1,0.04s0.08-0.01,0.1-0.03
			c0.02-0.02,0.03-0.06,0.03-0.11v-0.43h0.18V27.1z"/>
		<path class="st1" d="M14.06,26.79h-0.21v0.56h-0.18v-0.56h-0.22v-0.13h0.61V26.79z"/>
		<path class="st1" d="M14.54,27.35h-0.41v-0.12h0.11v-0.45h-0.11v-0.12h0.41v0.12h-0.12v0.45h0.12V27.35z"/>
		<path class="st1" d="M15,27.37c-0.05,0-0.1-0.01-0.14-0.02c-0.04-0.01-0.08-0.04-0.11-0.07c-0.03-0.03-0.06-0.07-0.07-0.11
			c-0.02-0.04-0.03-0.1-0.03-0.16c0-0.05,0.01-0.1,0.03-0.15s0.04-0.08,0.07-0.12c0.03-0.03,0.07-0.05,0.11-0.07
			s0.09-0.02,0.15-0.02c0.03,0,0.05,0,0.08,0c0.02,0,0.04,0.01,0.07,0.01c0.02,0.01,0.04,0.01,0.06,0.02
			c0.02,0.01,0.03,0.01,0.04,0.02v0.17h-0.02c-0.01-0.01-0.02-0.02-0.03-0.03c-0.01-0.01-0.03-0.02-0.04-0.03s-0.04-0.02-0.05-0.03
			c-0.02-0.01-0.04-0.01-0.06-0.01c-0.03,0-0.05,0-0.07,0.01c-0.02,0.01-0.04,0.02-0.06,0.04c-0.02,0.02-0.03,0.04-0.04,0.07
			s-0.02,0.06-0.02,0.11c0,0.04,0.01,0.08,0.02,0.11s0.03,0.05,0.05,0.07c0.02,0.02,0.04,0.03,0.06,0.04s0.05,0.01,0.07,0.01
			c0.02,0,0.04,0,0.06-0.01c0.02-0.01,0.04-0.01,0.06-0.03c0.01-0.01,0.03-0.02,0.04-0.03c0.01-0.01,0.02-0.02,0.03-0.03h0.02v0.17
			c-0.02,0.01-0.03,0.01-0.05,0.02s-0.03,0.01-0.05,0.02c-0.02,0.01-0.04,0.01-0.06,0.01C15.06,27.36,15.04,27.37,15,27.37z"/>
		<path class="st1" d="M16.02,27.35h-0.19l-0.05-0.14h-0.26l-0.05,0.14H15.3l0.26-0.69h0.21L16.02,27.35z M15.74,27.09l-0.08-0.25
			l-0.09,0.25H15.74z"/>
		<path class="st1" d="M16.62,27.35h-0.5v-0.69h0.18v0.56h0.32V27.35z"/>
		<path class="st1" d="M17.73,27.35h-0.22l-0.06-0.06c-0.03,0.02-0.06,0.04-0.1,0.05c-0.04,0.01-0.08,0.02-0.12,0.02
			c-0.09,0-0.15-0.02-0.2-0.06c-0.05-0.04-0.07-0.09-0.07-0.16c0-0.03,0-0.05,0.01-0.07c0.01-0.02,0.02-0.04,0.03-0.05
			c0.01-0.02,0.03-0.03,0.04-0.04c0.02-0.01,0.03-0.02,0.04-0.03c-0.01-0.01-0.03-0.02-0.04-0.03s-0.02-0.02-0.03-0.03
			c-0.01-0.01-0.02-0.03-0.02-0.04s-0.01-0.03-0.01-0.05c0-0.02,0-0.04,0.01-0.06c0.01-0.02,0.02-0.04,0.04-0.05
			c0.02-0.02,0.04-0.03,0.08-0.04c0.03-0.01,0.07-0.01,0.12-0.01c0.04,0,0.07,0,0.1,0.01s0.05,0.02,0.07,0.03
			c0.02,0.01,0.03,0.03,0.04,0.05s0.02,0.04,0.02,0.06c0,0.01,0,0.03-0.01,0.05c-0.01,0.02-0.01,0.03-0.02,0.05
			c-0.01,0.02-0.03,0.03-0.05,0.04c-0.02,0.01-0.05,0.03-0.08,0.04l0.14,0.12v-0.15h0.17V27c0,0.04-0.01,0.07-0.02,0.11
			s-0.03,0.06-0.05,0.08L17.73,27.35L17.73,27.35z M17.36,27.22l-0.2-0.18c-0.01,0.01-0.01,0.02-0.02,0.03
			c-0.01,0.02-0.01,0.03-0.01,0.05c0,0.02,0,0.04,0.01,0.05s0.02,0.03,0.03,0.04s0.03,0.02,0.04,0.02c0.02,0,0.03,0.01,0.04,0.01
			c0.02,0,0.04,0,0.06-0.01S17.34,27.23,17.36,27.22z M17.29,26.82c0-0.02,0-0.03-0.01-0.04c0-0.01-0.01-0.02-0.02-0.02
			c-0.01,0-0.02-0.01-0.02-0.01s-0.02,0-0.02,0c-0.01,0-0.01,0-0.02,0c-0.01,0-0.02,0-0.02,0.01c-0.01,0-0.01,0.01-0.02,0.02
			c0,0.01-0.01,0.02-0.01,0.03c0,0.02,0.01,0.04,0.02,0.05c0.02,0.02,0.04,0.03,0.06,0.05c0.02-0.01,0.03-0.03,0.04-0.05
			C17.29,26.85,17.29,26.83,17.29,26.82z"/>
		<path class="st1" d="M18.36,27.37c-0.05,0-0.1-0.01-0.14-0.02c-0.04-0.01-0.08-0.04-0.11-0.07c-0.03-0.03-0.06-0.07-0.07-0.11
			c-0.02-0.04-0.03-0.1-0.03-0.16c0-0.05,0.01-0.1,0.03-0.15s0.04-0.08,0.07-0.12c0.03-0.03,0.07-0.05,0.11-0.07
			s0.09-0.02,0.15-0.02c0.03,0,0.05,0,0.08,0c0.02,0,0.04,0.01,0.07,0.01c0.02,0.01,0.04,0.01,0.06,0.02
			c0.02,0.01,0.03,0.01,0.04,0.02v0.17h-0.02c-0.01-0.01-0.02-0.02-0.03-0.03c-0.01-0.01-0.03-0.02-0.04-0.03s-0.04-0.02-0.05-0.03
			c-0.02-0.01-0.04-0.01-0.06-0.01c-0.03,0-0.05,0-0.07,0.01c-0.02,0.01-0.04,0.02-0.06,0.04c-0.02,0.02-0.03,0.04-0.04,0.07
			s-0.02,0.06-0.02,0.11c0,0.04,0.01,0.08,0.02,0.11s0.03,0.05,0.05,0.07c0.02,0.02,0.04,0.03,0.06,0.04s0.05,0.01,0.07,0.01
			c0.02,0,0.04,0,0.06-0.01c0.02-0.01,0.04-0.01,0.06-0.03c0.01-0.01,0.03-0.02,0.04-0.03c0.01-0.01,0.02-0.02,0.03-0.03h0.02v0.17
			c-0.02,0.01-0.03,0.01-0.05,0.02s-0.03,0.01-0.05,0.02c-0.02,0.01-0.04,0.01-0.06,0.01C18.42,27.36,18.4,27.37,18.36,27.37z"/>
		<path class="st1" d="M19.41,27.01c0,0.11-0.03,0.2-0.1,0.26c-0.06,0.06-0.15,0.1-0.26,0.1s-0.2-0.03-0.26-0.1
			c-0.06-0.07-0.09-0.15-0.09-0.26c0-0.11,0.03-0.2,0.09-0.26c0.06-0.06,0.15-0.1,0.26-0.1s0.2,0.03,0.26,0.1
			S19.41,26.9,19.41,27.01z M19.18,27.18c0.02-0.02,0.03-0.05,0.04-0.08c0.01-0.03,0.01-0.06,0.01-0.1c0-0.04-0.01-0.08-0.02-0.11
			c-0.01-0.03-0.02-0.05-0.04-0.07c-0.02-0.02-0.03-0.03-0.05-0.04c-0.02-0.01-0.04-0.01-0.06-0.01c-0.02,0-0.04,0-0.06,0.01
			s-0.04,0.02-0.05,0.04c-0.02,0.02-0.03,0.04-0.04,0.07c-0.01,0.03-0.02,0.07-0.02,0.11s0,0.08,0.01,0.11s0.02,0.05,0.04,0.07
			c0.02,0.02,0.04,0.03,0.05,0.04c0.02,0.01,0.04,0.01,0.07,0.01s0.04,0,0.07-0.01C19.14,27.21,19.16,27.2,19.18,27.18z"/>
		<path class="st1" d="M20.11,27.13c0,0.07-0.03,0.12-0.09,0.17s-0.14,0.06-0.24,0.06c-0.06,0-0.11-0.01-0.15-0.02
			s-0.08-0.02-0.12-0.04v-0.17h0.02c0.04,0.03,0.08,0.05,0.12,0.07c0.05,0.02,0.09,0.02,0.13,0.02c0.01,0,0.03,0,0.04,0
			c0.02,0,0.03-0.01,0.04-0.01c0.01-0.01,0.03-0.01,0.03-0.02c0.01-0.01,0.01-0.02,0.01-0.04c0-0.01-0.01-0.03-0.02-0.04
			c-0.01-0.01-0.03-0.02-0.06-0.03s-0.05-0.01-0.08-0.02c-0.03,0-0.06-0.01-0.08-0.02c-0.06-0.02-0.1-0.04-0.12-0.08
			c-0.03-0.03-0.04-0.07-0.04-0.12c0-0.06,0.03-0.12,0.09-0.16c0.06-0.04,0.13-0.06,0.22-0.06c0.04,0,0.09,0,0.13,0.01
			s0.08,0.02,0.12,0.03v0.16h-0.02c-0.03-0.02-0.06-0.04-0.1-0.06c-0.04-0.01-0.08-0.02-0.12-0.02c-0.01,0-0.03,0-0.04,0
			c-0.02,0-0.03,0.01-0.04,0.01c-0.01,0-0.02,0.01-0.03,0.02c-0.01,0.01-0.01,0.02-0.01,0.03c0,0.02,0.01,0.03,0.02,0.04
			s0.04,0.02,0.08,0.03c0.03,0.01,0.05,0.01,0.07,0.02s0.05,0.01,0.08,0.02c0.05,0.02,0.09,0.04,0.12,0.07S20.11,27.09,20.11,27.13z
			"/>
		<path class="st1" d="M20.96,27.35h-0.18v-0.46l-0.13,0.3h-0.12l-0.13-0.3v0.46h-0.17v-0.69h0.21l0.16,0.35l0.16-0.35h0.21V27.35z"
			/>
		<path class="st1" d="M21.64,27.35h-0.5v-0.69h0.5v0.13h-0.32v0.12h0.3v0.13h-0.3v0.17h0.32V27.35z"/>
		<path class="st1" d="M22.33,26.79h-0.21v0.56h-0.18v-0.56h-0.22v-0.13h0.61V26.79z"/>
		<path class="st1" d="M22.81,27.35h-0.41v-0.12h0.11v-0.45h-0.11v-0.12h0.41v0.12H22.7v0.45h0.12V27.35z"/>
		<path class="st1" d="M23.27,27.37c-0.05,0-0.1-0.01-0.14-0.02c-0.04-0.01-0.08-0.04-0.11-0.07c-0.03-0.03-0.05-0.07-0.07-0.11
			s-0.03-0.1-0.03-0.16c0-0.05,0.01-0.1,0.02-0.15c0.02-0.04,0.04-0.08,0.07-0.12c0.03-0.03,0.07-0.05,0.11-0.07
			c0.04-0.02,0.09-0.02,0.14-0.02c0.03,0,0.06,0,0.08,0c0.02,0,0.04,0.01,0.06,0.01c0.02,0.01,0.04,0.01,0.06,0.02
			c0.02,0.01,0.03,0.01,0.04,0.02v0.17H23.5c-0.01-0.01-0.02-0.02-0.03-0.03c-0.01-0.01-0.03-0.02-0.05-0.03
			c-0.02-0.01-0.04-0.02-0.05-0.03s-0.04-0.01-0.06-0.01s-0.05,0-0.07,0.01c-0.02,0.01-0.04,0.02-0.06,0.04
			c-0.02,0.02-0.03,0.04-0.04,0.07s-0.02,0.06-0.02,0.11c0,0.04,0.01,0.08,0.02,0.11c0.01,0.03,0.03,0.05,0.05,0.07
			c0.02,0.02,0.04,0.03,0.06,0.04s0.04,0.01,0.07,0.01c0.02,0,0.04,0,0.06-0.01c0.02-0.01,0.04-0.01,0.06-0.03
			c0.02-0.01,0.03-0.02,0.04-0.03c0.01-0.01,0.02-0.02,0.03-0.03h0.02v0.17c-0.02,0.01-0.04,0.01-0.05,0.02s-0.03,0.01-0.05,0.02
			c-0.02,0.01-0.04,0.01-0.06,0.01C23.33,27.36,23.31,27.37,23.27,27.37z"/>
		<path class="st1" d="M24.2,27.13c0,0.07-0.03,0.12-0.09,0.17s-0.14,0.06-0.24,0.06c-0.06,0-0.11-0.01-0.15-0.02
			s-0.08-0.02-0.12-0.04v-0.17h0.02c0.04,0.03,0.08,0.05,0.12,0.07c0.05,0.02,0.09,0.02,0.13,0.02c0.01,0,0.03,0,0.04,0
			c0.02,0,0.03-0.01,0.04-0.01C23.99,27.22,24,27.21,24,27.2c0.01-0.01,0.01-0.02,0.01-0.04c0-0.01-0.01-0.03-0.02-0.04
			c-0.01-0.01-0.03-0.02-0.06-0.03s-0.05-0.01-0.08-0.02c-0.03,0-0.06-0.01-0.08-0.02c-0.06-0.02-0.1-0.04-0.12-0.08
			c-0.03-0.03-0.04-0.07-0.04-0.12c0-0.06,0.03-0.12,0.09-0.16c0.06-0.04,0.13-0.06,0.22-0.06c0.04,0,0.09,0,0.13,0.01
			s0.08,0.02,0.12,0.03v0.16h-0.02c-0.03-0.02-0.06-0.04-0.1-0.06c-0.04-0.01-0.08-0.02-0.12-0.02c-0.01,0-0.03,0-0.04,0
			c-0.02,0-0.03,0.01-0.04,0.01c-0.01,0-0.02,0.01-0.03,0.02c-0.01,0.01-0.01,0.02-0.01,0.03c0,0.02,0.01,0.03,0.02,0.04
			s0.04,0.02,0.08,0.03c0.03,0.01,0.05,0.01,0.07,0.02s0.05,0.01,0.08,0.02c0.05,0.02,0.09,0.04,0.12,0.07S24.2,27.09,24.2,27.13z"
			/>
	</g>
</g>
</svg>
