<?xml version="1.0" encoding="utf-8"?>
<!-- Generator: Adobe Illustrator 25.0.1, SVG Export Plug-In . SVG Version: 6.00 Build 0)  -->
<svg version="1.0" id="Layer_1" xmlns="http://www.w3.org/2000/svg" xmlns:xlink="http://www.w3.org/1999/xlink" x="0px" y="0px"
	 viewBox="0 0 46.45 40.86" style="enable-background:new 0 0 46.45 40.86;" xml:space="preserve">
<style type="text/css">
	.st0{fill:#000104;}
	.st1{fill:#FFFFFF;}
	.st2{fill:#EF493E;}
	.st3{opacity:0.6;fill-rule:evenodd;clip-rule:evenodd;fill:#FBBE43;}
	.st4{opacity:0.6;fill-rule:evenodd;clip-rule:evenodd;fill:#EF930E;}
	.st5{opacity:0.6;fill-rule:evenodd;clip-rule:evenodd;fill:#E67906;}
	.st6{fill:#9F8829;}
	.st7{fill:#3972A6;}
	.st8{fill:url(#SVGID_1_);stroke:#2B53A4;stroke-width:0.5;stroke-miterlimit:10;}
	.st9{fill:none;}
	.st10{fill:url(#SVGID_2_);}
	.st11{fill:url(#SVGID_3_);}
	.st12{fill:#B3B3B3;}
	.st13{fill:url(#SVGID_4_);}
	.st14{fill:url(#SVGID_5_);}
	.st15{fill:url(#SVGID_6_);}
	.st16{fill:#FFFFFF;stroke:#FFFFFF;stroke-width:0.25;stroke-miterlimit:10;}
	.st17{fill:#00001D;}
	.st18{fill:#4DA0C5;}
	.st19{fill:url(#SVGID_7_);}
	.st20{fill:#2E6A85;}
	.st21{fill:none;stroke:#144FA1;stroke-width:0.113;stroke-linejoin:round;stroke-miterlimit:10;}
	.st22{fill:#F27337;}
	.st23{fill:#8EB8D4;}
	.st24{fill:#F38056;}
	.st25{fill:#626365;}
	.st26{fill:#EF6D23;}
	.st27{fill:#284B82;}
	.st28{fill:#242956;}
	.st29{fill:#15142A;}
	.st30{fill:#84C343;}
	.st31{fill:#4CA1C6;}
	.st32{fill:#121617;}
	.st33{fill:#CF8966;}
	.st34{fill:#F37639;}
	.st35{opacity:0.3;fill:url(#SVGID_8_);}
	.st36{fill:#373277;}
	.st37{fill:#E61E25;}
	.st38{fill:#2555A5;}
	.st39{fill:#2E225E;}
	.st40{fill:#F8A425;}
	.st41{fill:#2058A7;}
	.st42{fill:none;stroke:#205AA8;stroke-width:0.156;stroke-miterlimit:10;}
	.st43{fill:#49A3C7;}
	.st44{fill-rule:evenodd;clip-rule:evenodd;}
	.st45{fill-rule:evenodd;clip-rule:evenodd;fill:url(#SVGID_9_);}
	.st46{fill-rule:evenodd;clip-rule:evenodd;fill:url(#SVGID_10_);}
	.st47{fill-rule:evenodd;clip-rule:evenodd;fill:url(#SVGID_11_);}
	.st48{fill:#1D2251;}
	.st49{fill:#2260AC;}
	.st50{fill:url(#SVGID_12_);}
	.st51{fill:#FFFFFC;}
	.st52{fill:#4C9FC5;}
	.st53{fill:#28306D;}
	.st54{fill:#4C9EC5;}
	.st55{fill:#28306E;}
	.st56{fill:#29306F;}
	.st57{fill:#F7F7FB;}
	.st58{fill:url(#SVGID_13_);}
	.st59{fill:url(#SVGID_14_);}
	.st60{fill:url(#SVGID_15_);}
	.st61{fill:url(#SVGID_16_);}
	.st62{fill:#10123C;}
	.st63{fill:#F5842C;}
	.st64{fill:#1F305E;}
	.st65{fill:#87BBD1;}
	.st66{fill:#203160;}
	.st67{fill:#235779;}
	.st68{fill:#359FA1;}
	.st69{fill:#A4D1A4;}
	.st70{fill:#B9DBBC;}
	.st71{fill:#C6DDCA;}
	.st72{fill:#662E14;}
	.st73{fill:#1D79A4;}
	.st74{fill:#C14B28;}
	.st75{fill:url(#SVGID_17_);}
	.st76{fill:url(#SVGID_18_);}
	.st77{fill:url(#SVGID_19_);}
	.st78{fill:url(#SVGID_20_);}
	.st79{fill:url(#SVGID_21_);}
	.st80{fill:url(#SVGID_22_);}
	.st81{fill:url(#SVGID_23_);}
	.st82{fill:url(#SVGID_24_);}
	.st83{fill:url(#SVGID_25_);}
	.st84{fill:url(#SVGID_26_);}
	.st85{fill:url(#SVGID_27_);}
	.st86{fill:url(#SVGID_28_);}
	.st87{fill:url(#SVGID_29_);}
	.st88{fill:url(#SVGID_30_);}
	.st89{fill:#1F164B;}
	.st90{clip-path:url(#SVGID_32_);fill:#253D97;}
	.st91{fill:url(#SVGID_33_);}
	.st92{fill:url(#SVGID_34_);}
	.st93{fill:url(#SVGID_35_);}
	.st94{fill:url(#SVGID_36_);}
	.st95{fill:url(#SVGID_37_);}
	.st96{fill:url(#SVGID_38_);}
	.st97{fill:url(#SVGID_39_);}
	.st98{fill:url(#SVGID_40_);}
	.st99{fill:url(#SVGID_41_);}
	.st100{fill:#443F41;}
	.st101{fill:#28306F;}
	.st102{fill:#71C49D;}
	.st103{fill:#F0C6A7;}
	.st104{fill:#DB8D82;}
	.st105{fill:#EFB7AC;}
	.st106{opacity:0.21;}
	.st107{fill-rule:evenodd;clip-rule:evenodd;fill:#A9196E;}
	.st108{fill-rule:evenodd;clip-rule:evenodd;fill:#FBE42C;}
	.st109{fill:#FBE42C;}
	.st110{fill:#A9196E;}
	.st111{fill:#7FC143;}
	.st112{clip-path:url(#SVGID_45_);fill:#7FC143;}
	.st113{clip-path:url(#SVGID_51_);fill:#7FC143;}
	.st114{fill:#243F8F;}
	.st115{fill:#EF4E2F;}
	.st116{fill:#010007;}
	.st117{fill:#0C0D37;}
	.st118{fill:#FBAF2D;}
	.st119{fill:url(#SVGID_54_);}
	.st120{fill-rule:evenodd;clip-rule:evenodd;fill:#FFFFFF;}
	.st121{fill:#1D4690;}
	.st122{fill:#3AA949;}
	.st123{fill:#F37A24;}
	.st124{fill:none;stroke:#F37A24;stroke-width:3.7145;stroke-miterlimit:10;}
	.st125{fill:#3AA949;stroke:#FFFFFF;stroke-width:1.3104;stroke-miterlimit:10;}
	.st126{fill:#46A2BB;}
	.st127{fill:#7153A0;}
	.st128{fill:#27316C;}
	.st129{fill:#2C65AE;}
	.st130{fill:#452D7A;}
	.st131{fill:#442C7A;}
	.st132{fill:#1A2642;}
	.st133{fill-rule:evenodd;clip-rule:evenodd;fill:#567EB8;}
	.st134{fill-rule:evenodd;clip-rule:evenodd;fill:#6A7EB8;}
	.st135{fill-rule:evenodd;clip-rule:evenodd;fill:#6A7EB9;}
	.st136{fill-rule:evenodd;clip-rule:evenodd;fill:#EE3C2D;}
	.st137{fill-rule:evenodd;clip-rule:evenodd;fill:#EF493F;}
	.st138{fill-rule:evenodd;clip-rule:evenodd;fill:#ED2C24;}
	.st139{fill-rule:evenodd;clip-rule:evenodd;fill:#E9AE28;}
	.st140{fill-rule:evenodd;clip-rule:evenodd;fill:#D69B28;}
	.st141{fill-rule:evenodd;clip-rule:evenodd;fill:#FCB729;}
	.st142{fill-rule:evenodd;clip-rule:evenodd;fill:#409E47;}
	.st143{fill-rule:evenodd;clip-rule:evenodd;fill:#4BB450;}
	.st144{fill-rule:evenodd;clip-rule:evenodd;fill:#338440;}
	.st145{fill:#C09C36;}
	.st146{fill:#1E552A;}
	.st147{clip-path:url(#SVGID_56_);fill:url(#SVGID_57_);}
	.st148{fill:#023A1E;}
	.st149{fill:#FFFFFA;}
	.st150{fill:#0D4F28;}
	.st151{fill:#0E5128;}
	.st152{fill:#0D4E27;}
	.st153{fill:#0E5229;}
	.st154{fill:#0E4823;}
	.st155{fill:#0E4C27;}
	.st156{fill:#F3F6E0;}
	.st157{fill:#0E4F28;}
	.st158{fill:#114823;}
	.st159{fill:#105229;}
	.st160{fill:#0A4A2B;}
	.st161{fill:#134F27;}
	.st162{fill:#165229;}
	.st163{fill:#0D5029;}
	.st164{fill:#0B4E2B;}
	.st165{fill:#105028;}
	.st166{fill:#0A492A;}
	.st167{fill:#E9F3E2;}
	.st168{fill:#144D26;}
	.st169{fill:#185C2F;}
	.st170{fill:#0F5028;}
	.st171{fill:#F3F8EA;}
	.st172{fill:#114D26;}
	.st173{fill:#70A685;}
	.st174{fill:#0D4F2A;}
	.st175{fill:#094A24;}
	.st176{fill:#0F4F27;}
	.st177{fill:#0A4C26;}
	.st178{fill:#A2D29A;}
	.st179{fill:#4D7E44;}
	.st180{fill:#E8F2E1;}
	.st181{fill:#EDF5E5;}
	.st182{fill:#E6F2E7;}
	.st183{fill:#E5F1DC;}
	.st184{fill:#E9F3E3;}
	.st185{fill:#E9F3E5;}
	.st186{fill:#E5F1DB;}
	.st187{fill:#D8ECD7;}
	.st188{fill:#D9EBD4;}
	.st189{fill:#E2F0DE;}
	.st190{fill:#366B4B;}
	.st191{fill:#5D6162;}
	.st192{fill:#212E5F;}
	.st193{fill:#DD1F26;}
	.st194{clip-path:url(#SVGID_59_);}
	.st195{fill:#23396F;}
	.st196{fill:#7FC24E;}
	.st197{clip-path:url(#SVGID_59_);fill:#23396F;}
	.st198{clip-path:url(#SVGID_59_);fill:#7FC24E;}
	.st199{fill:#91CEA4;}
	.st200{fill:#90CEA4;}
	.st201{fill:#C02026;}
	.st202{fill:#362E7E;}
</style>
<g>
	<rect class="st1" width="46.45" height="40.86"/>
	<g>
		<g>
			<path class="st2" d="M15.43,37.08c0-0.49,0.15-0.73,0.45-0.73c0.03,0,0.06,0,0.1,0.01c0.12,0.02,0.18,0.11,0.18,0.28
				c0,0.16-0.03,0.37-0.09,0.62c-0.06,0.19-0.1,0.33-0.12,0.42c0.02,0.12,0.08,0.28,0.18,0.47c0.1,0.19,0.23,0.28,0.4,0.28
				c0.17,0,0.36-0.11,0.56-0.34c0.04-0.05,0.08-0.07,0.12-0.07c0.04,0,0.06,0.02,0.06,0.07c0,0.05-0.02,0.11-0.08,0.19
				c-0.22,0.26-0.45,0.4-0.7,0.4c-0.35,0-0.63-0.26-0.85-0.77c-0.22,0.51-0.54,0.94-0.94,1.31c-0.41,0.37-0.81,0.55-1.21,0.55
				c-0.38,0-0.57-0.29-0.57-0.86c0-0.45,0.42-1.28,1.26-2.49c0.84-1.21,1.48-1.81,1.92-1.81c0.09,0,0.18,0.03,0.25,0.09
				c0.07,0.06,0.11,0.13,0.11,0.2c0-0.01-0.05,0.05-0.16,0.16c-0.1,0.11-0.39,0.42-0.85,0.92c-0.46,0.5-0.91,1.05-1.36,1.65
				c-0.44,0.6-0.66,1.06-0.66,1.39c0,0.09,0.02,0.18,0.07,0.28c0.05,0.1,0.12,0.15,0.23,0.15c0.31,0,0.68-0.24,1.1-0.73
				c0.35-0.43,0.56-0.79,0.64-1.08C15.46,37.49,15.43,37.3,15.43,37.08z"/>
			<path class="st2" d="M17.18,39.87c-0.36,0-0.55-0.24-0.55-0.71c0-0.39,0.21-0.92,0.63-1.6c0.42-0.68,0.76-1.03,1.02-1.03
				c0.07,0,0.15,0.03,0.24,0.09c0.09,0.06,0.13,0.11,0.13,0.17c-0.04,0.05-0.08,0.11-0.13,0.17c-0.05,0.06-0.1,0.13-0.16,0.2
				c-0.06,0.07-0.14,0.17-0.24,0.31c-0.1,0.13-0.2,0.26-0.29,0.38c-0.54,0.69-0.8,1.17-0.8,1.43c0,0.26,0.09,0.39,0.27,0.39
				c0.15,0,0.35-0.08,0.61-0.25c0.6-0.37,1.08-0.78,1.43-1.22c0.13-0.16,0.22-0.25,0.26-0.25c0.05,0,0.07,0.03,0.07,0.09
				c0,0.06-0.08,0.17-0.25,0.34c-0.16,0.17-0.29,0.31-0.39,0.41c-0.1,0.1-0.16,0.17-0.2,0.2c-0.04,0.03-0.1,0.09-0.2,0.18
				c-0.1,0.09-0.17,0.15-0.22,0.19c-0.05,0.04-0.12,0.09-0.21,0.16c-0.09,0.07-0.18,0.12-0.25,0.16c-0.07,0.03-0.15,0.07-0.25,0.11
				C17.56,39.84,17.39,39.87,17.18,39.87z M19.42,35.48c0.1,0.07,0.14,0.15,0.14,0.24c0,0.09-0.04,0.17-0.13,0.24
				c-0.09,0.07-0.19,0.1-0.29,0.1c-0.11,0-0.21-0.04-0.29-0.12c-0.09-0.08-0.13-0.17-0.13-0.27c0-0.2,0.14-0.3,0.41-0.3
				C19.23,35.38,19.33,35.41,19.42,35.48z"/>
			<path class="st2" d="M21.9,37.48c0,0.25-0.24,0.67-0.72,1.25c-0.56,0.69-1.05,1.04-1.45,1.04h-0.17c-0.19,0-0.33-0.1-0.44-0.29
				C19.04,39.35,19,39.2,19,39.03c0-0.43,0.31-1.03,0.94-1.81c0.62-0.78,1.13-1.16,1.52-1.16c0.36,0,0.55,0.19,0.55,0.58
				c0,0.1-0.02,0.23-0.05,0.39c0.01,0.02,0.07,0.03,0.2,0.03c0.13,0,0.32-0.07,0.59-0.2c-0.01,0.12-0.29,0.3-0.85,0.53
				C21.9,37.41,21.9,37.44,21.9,37.48z M21.21,36.92c-0.24,0-0.59,0.29-1.03,0.86c-0.45,0.57-0.67,0.99-0.67,1.26
				c0,0.27,0.09,0.41,0.26,0.41c0.31,0,0.7-0.28,1.17-0.84c0.47-0.56,0.71-0.96,0.71-1.2C21.52,37.35,21.38,37.19,21.21,36.92z"/>
			<path class="st2" d="M26.82,36.3l1.54-0.02c0.02,0.01,0.03,0.03,0.03,0.03c0,0.06-0.44,0.15-1.33,0.27
				c-0.89,0.11-1.37,0.18-1.44,0.2c-0.14,0.12-0.39,0.48-0.75,1.09c-0.36,0.6-0.55,1.04-0.55,1.32c0,0.26,0.18,0.4,0.55,0.4
				c0.17,0,0.4-0.05,0.68-0.16c0.28-0.11,0.49-0.21,0.64-0.3c0.4-0.25,0.83-0.62,1.29-1.1c0.1-0.1,0.17-0.15,0.2-0.15
				c0.02,0,0.03,0.02,0.03,0.06c0,0.04-0.05,0.13-0.16,0.26c-0.37,0.46-0.79,0.83-1.25,1.1c-0.56,0.34-1.09,0.51-1.6,0.51
				c-0.22,0-0.4-0.05-0.54-0.14c-0.14-0.1-0.21-0.29-0.21-0.58c0-0.29,0.13-0.69,0.39-1.21c0.26-0.51,0.45-0.89,0.59-1.14
				c-0.1,0.02-0.19,0.03-0.26,0.03c-0.21,0-0.31-0.08-0.31-0.25c0-0.12,0.09-0.21,0.26-0.26c0.02,0,0.05,0,0.1-0.01h0.62
				c0.13-0.16,0.27-0.35,0.44-0.57c0.2-0.26,0.34-0.39,0.41-0.39c0.07,0,0.16,0.03,0.27,0.09c0.11,0.06,0.16,0.12,0.16,0.2
				c0,0.08-0.17,0.31-0.51,0.7C26.28,36.3,26.52,36.3,26.82,36.3z"/>
			<path class="st2" d="M27.65,39.89c-0.08,0-0.15-0.01-0.21-0.03c-0.46-0.13-0.69-0.39-0.69-0.77c0-0.5,0.31-1.08,0.94-1.74
				c0.63-0.66,1.19-0.99,1.69-0.99c0.16,0,0.3,0.04,0.4,0.13c0.1,0.09,0.16,0.2,0.16,0.33c0,0.4-0.3,0.78-0.91,1.15
				c-0.6,0.36-1.09,0.55-1.47,0.55c-0.06,0-0.11-0.01-0.15-0.02c-0.11,0.19-0.16,0.4-0.16,0.61c0,0.37,0.18,0.56,0.53,0.56
				c0.35,0,0.81-0.24,1.38-0.72c0.44-0.35,0.81-0.72,1.11-1.11c0.06-0.09,0.12-0.13,0.17-0.13c0.05,0,0.07,0.02,0.07,0.06
				c0,0.04-0.03,0.1-0.09,0.18c-0.39,0.51-0.85,0.96-1.39,1.35C28.49,39.69,28.03,39.89,27.65,39.89z M29.67,36.8
				c0-0.09-0.09-0.13-0.27-0.13s-0.44,0.14-0.78,0.42c-0.45,0.37-0.8,0.76-1.05,1.17c0.04,0.01,0.09,0.02,0.14,0.02
				c0.27,0,0.63-0.14,1.09-0.43c0.45-0.29,0.74-0.61,0.85-0.95C29.67,36.86,29.67,36.83,29.67,36.8z"/>
			<path class="st2" d="M30.56,39.89c-0.08,0-0.15-0.01-0.21-0.03c-0.46-0.13-0.69-0.39-0.69-0.77c0-0.5,0.31-1.08,0.94-1.74
				c0.63-0.66,1.19-0.99,1.69-0.99c0.16,0,0.3,0.04,0.4,0.13c0.1,0.09,0.16,0.21,0.16,0.36c0,0.15-0.05,0.31-0.14,0.48
				c-0.09,0.17-0.23,0.25-0.42,0.25c-0.19,0-0.28-0.06-0.28-0.17c0-0.08,0.05-0.2,0.14-0.36c0.1-0.16,0.14-0.25,0.14-0.26
				s-0.01-0.02-0.03-0.02c-0.2,0.02-0.47,0.16-0.82,0.43c-0.35,0.26-0.58,0.49-0.71,0.66l-0.42,0.61c-0.07,0.11-0.12,0.25-0.16,0.41
				c-0.03,0.16-0.05,0.28-0.05,0.35s0.04,0.17,0.13,0.27c0.09,0.1,0.22,0.15,0.38,0.15c0.36,0,0.8-0.21,1.33-0.63
				c0.53-0.42,0.94-0.82,1.22-1.19c0.04-0.04,0.08-0.06,0.13-0.06c0.05,0,0.07,0.01,0.07,0.04c0,0.03-0.02,0.06-0.05,0.11
				c-0.39,0.52-0.86,0.98-1.41,1.37C31.38,39.69,30.93,39.89,30.56,39.89z"/>
		</g>
		<g>
			<g>
				<g>
					<g>
						<path class="st2" d="M21.55,32.11c0,0-4.31-4.11-11.38-6.68c0,0-2.8-0.73-6.09-5.07c-3.11-4.12-2.25-8.25-1.22-10.48
							c1.03-2.24,3.43-6.62,3.43-6.62s1.34,0.33,0.92,2.96L5.95,9.45c0,0-4.27,10.45,8.08,12.82c0,0-6.46-5.53-4.09-9.81
							c0,0,0.87,1.29,2.57,3.49c1.71,2.21,4.42,3.72,6.77,5.73c2.35,2.01,3.89,6.79,2.41,9.86"/>
						<path class="st2" d="M8.78,19.42c0,0-2.03-2.19-0.65-8.03c0.92-3.91,3.7-7.61,0.68-8.99c0,0-0.11,2.19-1.78,5.81
							c-0.79,1.7-1.08,4.35-1.12,5.46C5.82,16.29,8.78,19.42,8.78,19.42z"/>
					</g>
				</g>
				<g>
					<g>
						<path class="st2" d="M24.9,32.11c0,0,4.31-4.11,11.37-6.68c0,0,2.8-0.73,6.09-5.07c3.11-4.12,2.25-8.25,1.22-10.48
							c-1.03-2.24-3.43-6.62-3.43-6.62s-1.34,0.33-0.92,2.96l1.28,3.24c0,0,4.27,10.45-8.08,12.82c0,0,6.46-5.53,4.09-9.81
							c0,0-0.87,1.29-2.57,3.49c-1.71,2.21-4.42,3.72-6.77,5.73c-2.35,2.01-3.89,6.79-2.41,9.86"/>
						<path class="st2" d="M37.67,19.42c0,0,2.03-2.19,0.65-8.03c-0.92-3.91-3.7-7.61-0.68-8.99c0,0,0.11,2.19,1.78,5.81
							c0.79,1.7,1.08,4.35,1.12,5.46C40.63,16.29,37.67,19.42,37.67,19.42z"/>
					</g>
				</g>
			</g>
		</g>
		<g>
			<path class="st3" d="M23.13,0.97c1.28,0.82,2.19,3.04,2.19,5.65c0,2.61-0.92,4.83-2.19,5.65c-1.28-0.82-2.19-3.04-2.19-5.65
				C20.94,4.01,21.86,1.79,23.13,0.97z"/>
			<path class="st3" d="M27,1.65c0.92,1.21,1.02,3.61,0.13,6.06c-0.89,2.45-2.51,4.23-3.99,4.56c-0.92-1.21-1.02-3.61-0.13-6.06
				C23.9,3.76,25.52,1.99,27,1.65z"/>
			<path class="st3" d="M24.73,3.19c0.37,0.97,0.59,2.15,0.59,3.43c0,2.61-0.92,4.83-2.19,5.65c-0.92-1.21-1.02-3.61-0.13-6.06
				C23.44,5.02,24.05,3.98,24.73,3.19z"/>
			<path class="st3" d="M30.4,3.62c0.45,1.45-0.27,3.74-1.95,5.74c-1.68,2-3.81,3.11-5.31,2.92c-0.45-1.45,0.27-3.74,1.95-5.74
				C26.77,4.54,28.89,3.42,30.4,3.62z"/>
			<path class="st3" d="M27.74,4.29c0.02,1.04-0.18,2.23-0.62,3.43c-0.89,2.45-2.51,4.23-3.99,4.56c-0.45-1.45,0.27-3.74,1.95-5.74
				C25.91,5.56,26.83,4.79,27.74,4.29z"/>
			<path class="st4" d="M25.32,6.27c0,0.12,0.01,0.24,0.01,0.36c0,2.61-0.92,4.83-2.19,5.65c-0.45-1.45,0.27-3.74,1.95-5.74
				C25.16,6.45,25.24,6.36,25.32,6.27z"/>
			<path class="st3" d="M32.92,6.62c-0.07,1.52-1.54,3.42-3.8,4.72s-4.64,1.62-5.99,0.93c0.07-1.52,1.54-3.42,3.8-4.72
				C29.19,6.25,31.57,5.93,32.92,6.62z"/>
			<path class="st3" d="M30.2,6.35c-0.34,0.98-0.93,2.03-1.75,3.01c-1.68,2-3.81,3.11-5.31,2.92c0.07-1.52,1.54-3.42,3.8-4.72
				C28.04,6.91,29.17,6.51,30.2,6.35z"/>
			<path class="st4" d="M27.24,7.38c-0.04,0.11-0.08,0.22-0.12,0.34c-0.89,2.45-2.51,4.23-3.99,4.56c0.07-1.52,1.54-3.42,3.8-4.72
				C27.04,7.49,27.14,7.43,27.24,7.38z"/>
			<path class="st5" d="M23.13,12.28c0.05-1.05,0.76-2.28,1.95-3.37C24.72,10.48,24.02,11.71,23.13,12.28z"/>
			
				<ellipse transform="matrix(0.9848 -0.1737 0.1737 0.9848 -1.5254 5.1552)" class="st3" cx="28.7" cy="11.3" rx="5.65" ry="2.19"/>
			<path class="st3" d="M31.8,9.12c-0.66,0.81-1.57,1.59-2.68,2.23c-2.26,1.31-4.64,1.62-5.99,0.93c0.59-1.4,2.61-2.69,5.19-3.14
				C29.58,8.91,30.78,8.92,31.8,9.12z"/>
			<path class="st4" d="M28.67,9.08c-0.07,0.09-0.15,0.19-0.22,0.28c-1.68,2-3.81,3.11-5.31,2.92c0.59-1.4,2.61-2.69,5.19-3.14
				C28.44,9.12,28.55,9.1,28.67,9.08z"/>
			<path class="st5" d="M23.13,12.28c0.4-0.97,1.5-1.88,2.98-2.5C25.24,11.13,24.16,12.05,23.13,12.28z"/>
			<ellipse transform="matrix(0.9397 -0.342 0.342 0.9397 -1.1039 7.6709)" class="st3" cx="21.2" cy="6.97" rx="2.19" ry="5.65"/>
			<path class="st3" d="M23.13,12.28c0.92-1.21,1.02-3.61,0.13-6.06c-0.44-1.2-1.05-2.24-1.73-3.02c-0.37,0.97-0.59,2.15-0.59,3.43
				C20.94,9.24,21.86,11.46,23.13,12.28z"/>
			<path class="st4" d="M23.13,12.28c0.92-1.21,1.02-3.61,0.13-6.06c-0.04-0.11-0.08-0.22-0.13-0.33c-0.04,0.11-0.09,0.22-0.13,0.33
				C22.11,8.67,22.21,11.07,23.13,12.28z"/>
			<path class="st5" d="M23.13,12.28c-0.31-1-0.06-2.4,0.68-3.83C24.01,10.04,23.77,11.44,23.13,12.28z"/>
			<ellipse transform="matrix(0.766 -0.6428 0.6428 0.766 -0.5462 14.3936)" class="st3" cx="19.5" cy="7.95" rx="2.19" ry="5.65"/>
			<path class="st3" d="M23.13,12.28c0.45-1.45-0.27-3.74-1.95-5.74c-0.82-0.98-1.75-1.74-2.66-2.25c-0.02,1.04,0.18,2.23,0.62,3.43
				C20.03,10.17,21.65,11.94,23.13,12.28z"/>
			<path class="st4" d="M23.13,12.28c0.45-1.45-0.27-3.74-1.95-5.74c-0.08-0.09-0.15-0.18-0.23-0.27c0,0.12-0.01,0.24-0.01,0.36
				C20.94,9.24,21.86,11.46,23.13,12.28z"/>
			<path class="st5" d="M22.46,8.44c-0.2,1.6,0.04,3,0.68,3.83C23.44,11.28,23.19,9.87,22.46,8.44z"/>
			<path class="st3" d="M13.34,6.62c0.07,1.52,1.54,3.42,3.8,4.72c2.26,1.31,4.64,1.62,5.99,0.93c-0.07-1.52-1.54-3.42-3.8-4.72
				C17.07,6.25,14.69,5.93,13.34,6.62z"/>
			<path class="st3" d="M23.13,12.28c-0.07-1.52-1.54-3.42-3.8-4.72c-1.11-0.64-2.24-1.04-3.27-1.2c0.34,0.98,0.93,2.03,1.75,3.01
				C19.5,11.36,21.63,12.47,23.13,12.28z"/>
			<path class="st4" d="M23.13,12.28c-0.07-1.52-1.54-3.42-3.8-4.72c-0.1-0.06-0.21-0.12-0.31-0.17c0.04,0.11,0.08,0.22,0.12,0.34
				C20.03,10.17,21.65,11.94,23.13,12.28z"/>
			<path class="st5" d="M21.19,8.91c0.35,1.57,1.06,2.8,1.95,3.37C23.08,11.23,22.37,10,21.19,8.91z"/>
			
				<ellipse transform="matrix(0.1737 -0.9848 0.9848 0.1737 3.3927 26.6339)" class="st3" cx="17.57" cy="11.3" rx="2.19" ry="5.65"/>
			<path class="st3" d="M23.13,12.28c-0.59-1.4-2.61-2.69-5.19-3.14c-1.26-0.22-2.46-0.21-3.48-0.01c0.66,0.81,1.57,1.59,2.68,2.23
				C19.4,12.66,21.79,12.97,23.13,12.28z"/>
			<path class="st4" d="M23.13,12.28c-0.59-1.4-2.61-2.69-5.19-3.14c-0.12-0.02-0.24-0.04-0.35-0.06c0.07,0.09,0.15,0.19,0.22,0.28
				C19.5,11.36,21.63,12.47,23.13,12.28z"/>
			<path class="st5" d="M20.15,9.77c0.87,1.35,1.96,2.27,2.98,2.5C22.73,11.31,21.64,10.4,20.15,9.77z"/>
			<path class="st3" d="M23.13,15.05c0.5-0.2,0.85-0.75,0.85-1.39c0-0.64-0.36-1.19-0.85-1.39c-0.5,0.2-0.85,0.75-0.85,1.39
				C22.28,14.31,22.64,14.85,23.13,15.05z"/>
			<path class="st4" d="M23.13,12.28c0.39,0.26,0.43,0.78,0.05,1.32c-0.02,0.02-0.03,0.05-0.05,0.07c-0.02-0.02-0.04-0.05-0.05-0.07
				C22.71,13.06,22.75,12.54,23.13,12.28z"/>
		</g>
	</g>
</g>
</svg>
