<?xml version="1.0" encoding="utf-8"?>
<!-- Generator: Adobe Illustrator 25.0.1, SVG Export Plug-In . SVG Version: 6.00 Build 0)  -->
<svg version="1.0" id="Layer_1" xmlns="http://www.w3.org/2000/svg" xmlns:xlink="http://www.w3.org/1999/xlink" x="0px" y="0px"
	 viewBox="0 0 64.58 22.72" style="enable-background:new 0 0 64.58 22.72;" xml:space="preserve">
<style type="text/css">
	.st0{fill:#000104;}
	.st1{fill:#FFFFFF;}
	.st2{fill:#EF493E;}
	.st3{opacity:0.6;fill-rule:evenodd;clip-rule:evenodd;fill:#FBBE43;}
	.st4{opacity:0.6;fill-rule:evenodd;clip-rule:evenodd;fill:#EF930E;}
	.st5{opacity:0.6;fill-rule:evenodd;clip-rule:evenodd;fill:#E67906;}
	.st6{fill:#9F8829;}
	.st7{fill:#3972A6;}
	.st8{fill:url(#SVGID_1_);stroke:#2B53A4;stroke-width:0.5;stroke-miterlimit:10;}
	.st9{fill:none;}
	.st10{fill:url(#SVGID_2_);}
	.st11{fill:url(#SVGID_3_);}
	.st12{fill:#B3B3B3;}
	.st13{fill:url(#SVGID_4_);}
	.st14{fill:url(#SVGID_5_);}
	.st15{fill:url(#SVGID_6_);}
	.st16{fill:#FFFFFF;stroke:#FFFFFF;stroke-width:0.25;stroke-miterlimit:10;}
	.st17{fill:#00001D;}
	.st18{fill:#4DA0C5;}
	.st19{fill:url(#SVGID_7_);}
	.st20{fill:#2E6A85;}
	.st21{fill:none;stroke:#144FA1;stroke-width:0.113;stroke-linejoin:round;stroke-miterlimit:10;}
	.st22{fill:#F27337;}
	.st23{fill:#8EB8D4;}
	.st24{fill:#F38056;}
	.st25{fill:#626365;}
	.st26{fill:#EF6D23;}
	.st27{fill:#284B82;}
	.st28{fill:#242956;}
	.st29{fill:#15142A;}
	.st30{fill:#84C343;}
	.st31{fill:#4CA1C6;}
	.st32{fill:#121617;}
	.st33{fill:#CF8966;}
	.st34{fill:#F37639;}
	.st35{opacity:0.3;fill:url(#SVGID_8_);}
	.st36{fill:#373277;}
	.st37{fill:#E61E25;}
	.st38{fill:#2555A5;}
	.st39{fill:#2E225E;}
	.st40{fill:#F8A425;}
	.st41{fill:#2058A7;}
	.st42{fill:none;stroke:#205AA8;stroke-width:0.156;stroke-miterlimit:10;}
	.st43{fill:#49A3C7;}
	.st44{fill-rule:evenodd;clip-rule:evenodd;}
	.st45{fill-rule:evenodd;clip-rule:evenodd;fill:url(#SVGID_9_);}
	.st46{fill-rule:evenodd;clip-rule:evenodd;fill:url(#SVGID_10_);}
	.st47{fill-rule:evenodd;clip-rule:evenodd;fill:url(#SVGID_11_);}
	.st48{fill:#1D2251;}
	.st49{fill:#2260AC;}
	.st50{fill:url(#SVGID_12_);}
	.st51{fill:#FFFFFC;}
	.st52{fill:#4C9FC5;}
	.st53{fill:#28306D;}
	.st54{fill:#4C9EC5;}
	.st55{fill:#28306E;}
	.st56{fill:#29306F;}
	.st57{fill:#F7F7FB;}
	.st58{fill:url(#SVGID_13_);}
	.st59{fill:url(#SVGID_14_);}
	.st60{fill:url(#SVGID_15_);}
	.st61{fill:url(#SVGID_16_);}
	.st62{fill:#10123C;}
	.st63{fill:#F5842C;}
	.st64{fill:#1F305E;}
	.st65{fill:#87BBD1;}
	.st66{fill:#203160;}
	.st67{fill:#235779;}
	.st68{fill:#359FA1;}
	.st69{fill:#A4D1A4;}
	.st70{fill:#B9DBBC;}
	.st71{fill:#C6DDCA;}
	.st72{fill:#662E14;}
	.st73{fill:#1D79A4;}
	.st74{fill:#C14B28;}
	.st75{fill:url(#SVGID_17_);}
	.st76{fill:url(#SVGID_18_);}
	.st77{fill:url(#SVGID_19_);}
	.st78{fill:url(#SVGID_20_);}
	.st79{fill:url(#SVGID_21_);}
	.st80{fill:url(#SVGID_22_);}
	.st81{fill:url(#SVGID_23_);}
	.st82{fill:url(#SVGID_24_);}
	.st83{fill:url(#SVGID_25_);}
	.st84{fill:url(#SVGID_26_);}
	.st85{fill:url(#SVGID_27_);}
	.st86{fill:url(#SVGID_28_);}
	.st87{fill:url(#SVGID_29_);}
	.st88{fill:url(#SVGID_30_);}
	.st89{fill:#1F164B;}
	.st90{clip-path:url(#SVGID_32_);fill:#253D97;}
	.st91{fill:url(#SVGID_33_);}
	.st92{fill:url(#SVGID_34_);}
	.st93{fill:url(#SVGID_35_);}
	.st94{fill:url(#SVGID_36_);}
	.st95{fill:url(#SVGID_37_);}
	.st96{fill:url(#SVGID_38_);}
	.st97{fill:url(#SVGID_39_);}
	.st98{fill:url(#SVGID_40_);}
	.st99{fill:url(#SVGID_41_);}
	.st100{fill:#443F41;}
	.st101{fill:#28306F;}
	.st102{fill:#71C49D;}
	.st103{fill:#F0C6A7;}
	.st104{fill:#DB8D82;}
	.st105{fill:#EFB7AC;}
	.st106{opacity:0.21;}
	.st107{fill-rule:evenodd;clip-rule:evenodd;fill:#A9196E;}
	.st108{fill-rule:evenodd;clip-rule:evenodd;fill:#FBE42C;}
	.st109{fill:#FBE42C;}
	.st110{fill:#A9196E;}
	.st111{fill:#7FC143;}
	.st112{clip-path:url(#SVGID_45_);fill:#7FC143;}
	.st113{clip-path:url(#SVGID_51_);fill:#7FC143;}
	.st114{fill:#243F8F;}
	.st115{fill:#EF4E2F;}
	.st116{fill:#010007;}
	.st117{fill:#0C0D37;}
	.st118{fill:#FBAF2D;}
	.st119{fill:url(#SVGID_54_);}
	.st120{fill-rule:evenodd;clip-rule:evenodd;fill:#FFFFFF;}
	.st121{fill:#1D4690;}
	.st122{fill:#3AA949;}
	.st123{fill:#F37A24;}
	.st124{fill:none;stroke:#F37A24;stroke-width:3.7145;stroke-miterlimit:10;}
	.st125{fill:#3AA949;stroke:#FFFFFF;stroke-width:1.3104;stroke-miterlimit:10;}
	.st126{fill:#46A2BB;}
	.st127{fill:#7153A0;}
	.st128{fill:#27316C;}
	.st129{fill:#2C65AE;}
	.st130{fill:#452D7A;}
	.st131{fill:#442C7A;}
	.st132{fill:#1A2642;}
	.st133{fill-rule:evenodd;clip-rule:evenodd;fill:#567EB8;}
	.st134{fill-rule:evenodd;clip-rule:evenodd;fill:#6A7EB8;}
	.st135{fill-rule:evenodd;clip-rule:evenodd;fill:#6A7EB9;}
	.st136{fill-rule:evenodd;clip-rule:evenodd;fill:#EE3C2D;}
	.st137{fill-rule:evenodd;clip-rule:evenodd;fill:#EF493F;}
	.st138{fill-rule:evenodd;clip-rule:evenodd;fill:#ED2C24;}
	.st139{fill-rule:evenodd;clip-rule:evenodd;fill:#E9AE28;}
	.st140{fill-rule:evenodd;clip-rule:evenodd;fill:#D69B28;}
	.st141{fill-rule:evenodd;clip-rule:evenodd;fill:#FCB729;}
	.st142{fill-rule:evenodd;clip-rule:evenodd;fill:#409E47;}
	.st143{fill-rule:evenodd;clip-rule:evenodd;fill:#4BB450;}
	.st144{fill-rule:evenodd;clip-rule:evenodd;fill:#338440;}
	.st145{fill:#C09C36;}
	.st146{fill:#1E552A;}
	.st147{clip-path:url(#SVGID_56_);fill:url(#SVGID_57_);}
	.st148{fill:#023A1E;}
	.st149{fill:#FFFFFA;}
	.st150{fill:#0D4F28;}
	.st151{fill:#0E5128;}
	.st152{fill:#0D4E27;}
	.st153{fill:#0E5229;}
	.st154{fill:#0E4823;}
	.st155{fill:#0E4C27;}
	.st156{fill:#F3F6E0;}
	.st157{fill:#0E4F28;}
	.st158{fill:#114823;}
	.st159{fill:#105229;}
	.st160{fill:#0A4A2B;}
	.st161{fill:#134F27;}
	.st162{fill:#165229;}
	.st163{fill:#0D5029;}
	.st164{fill:#0B4E2B;}
	.st165{fill:#105028;}
	.st166{fill:#0A492A;}
	.st167{fill:#E9F3E2;}
	.st168{fill:#144D26;}
	.st169{fill:#185C2F;}
	.st170{fill:#0F5028;}
	.st171{fill:#F3F8EA;}
	.st172{fill:#114D26;}
	.st173{fill:#70A685;}
	.st174{fill:#0D4F2A;}
	.st175{fill:#094A24;}
	.st176{fill:#0F4F27;}
	.st177{fill:#0A4C26;}
	.st178{fill:#A2D29A;}
	.st179{fill:#4D7E44;}
	.st180{fill:#E8F2E1;}
	.st181{fill:#EDF5E5;}
	.st182{fill:#E6F2E7;}
	.st183{fill:#E5F1DC;}
	.st184{fill:#E9F3E3;}
	.st185{fill:#E9F3E5;}
	.st186{fill:#E5F1DB;}
	.st187{fill:#D8ECD7;}
	.st188{fill:#D9EBD4;}
	.st189{fill:#E2F0DE;}
	.st190{fill:#366B4B;}
	.st191{fill:#5D6162;}
	.st192{fill:#212E5F;}
	.st193{fill:#DD1F26;}
	.st194{clip-path:url(#SVGID_59_);}
	.st195{fill:#23396F;}
	.st196{fill:#7FC24E;}
	.st197{clip-path:url(#SVGID_59_);fill:#23396F;}
	.st198{clip-path:url(#SVGID_59_);fill:#7FC24E;}
	.st199{fill:#91CEA4;}
	.st200{fill:#90CEA4;}
	.st201{fill:#C02026;}
	.st202{fill:#362E7E;}
</style>
<g>
	<g>
		<g>
			<g>
				<path class="st26" d="M22.69,14.57c0.26-0.04,0.59-0.08,1.02-0.08c0.52,0,0.91,0.12,1.15,0.34c0.23,0.19,0.36,0.49,0.36,0.86
					c0,0.37-0.11,0.66-0.32,0.88c-0.28,0.3-0.74,0.45-1.25,0.45c-0.16,0-0.3-0.01-0.43-0.04v1.64h-0.53V14.57z M23.22,16.55
					c0.12,0.03,0.26,0.04,0.44,0.04c0.64,0,1.03-0.31,1.03-0.88c0-0.54-0.38-0.8-0.97-0.8c-0.23,0-0.41,0.02-0.5,0.04V16.55z"/>
				<path class="st26" d="M26.23,14.58c0.27-0.05,0.65-0.08,1.02-0.08c0.57,0,0.93,0.1,1.19,0.33c0.21,0.18,0.32,0.46,0.32,0.78
					c0,0.54-0.34,0.9-0.77,1.05v0.02c0.32,0.11,0.51,0.4,0.6,0.83c0.13,0.57,0.23,0.97,0.32,1.13h-0.55
					c-0.07-0.12-0.16-0.47-0.27-0.98c-0.12-0.57-0.34-0.78-0.82-0.8h-0.5v1.78h-0.53V14.58z M26.76,16.44h0.54
					c0.57,0,0.93-0.31,0.93-0.78c0-0.53-0.38-0.76-0.95-0.77c-0.25,0-0.44,0.02-0.52,0.05V16.44z"/>
				<path class="st26" d="M31.92,16.7h-1.6v1.48h1.78v0.44H29.8v-4.1h2.22v0.44h-1.69v1.3h1.6V16.7z"/>
				<path class="st26" d="M36.55,16.82c-0.03-0.57-0.07-1.26-0.06-1.77h-0.02c-0.14,0.48-0.31,0.99-0.52,1.56l-0.72,1.99h-0.4
					l-0.66-1.95c-0.19-0.58-0.36-1.11-0.47-1.6h-0.01c-0.01,0.51-0.04,1.2-0.08,1.81l-0.11,1.76h-0.5l0.29-4.1h0.68l0.7,1.98
					c0.17,0.51,0.31,0.96,0.41,1.38h0.02c0.1-0.41,0.25-0.86,0.43-1.38l0.73-1.98h0.68l0.26,4.1h-0.52L36.55,16.82z"/>
				<path class="st26" d="M38.81,14.52v4.1h-0.53v-4.1H38.81z"/>
				<path class="st26" d="M40.56,14.52v2.43c0,0.92,0.41,1.31,0.96,1.31c0.61,0,1-0.4,1-1.31v-2.43h0.54v2.39
					c0,1.26-0.66,1.78-1.55,1.78c-0.84,0-1.47-0.48-1.47-1.75v-2.42H40.56z"/>
				<path class="st26" d="M47.73,16.82c-0.03-0.57-0.07-1.26-0.06-1.77h-0.02c-0.14,0.48-0.31,0.99-0.52,1.56l-0.72,1.99h-0.4
					l-0.66-1.95c-0.2-0.58-0.36-1.11-0.47-1.6h-0.01c-0.01,0.51-0.04,1.2-0.08,1.81l-0.11,1.76h-0.51l0.29-4.1h0.68l0.7,1.98
					c0.17,0.51,0.31,0.96,0.41,1.38h0.02c0.1-0.41,0.25-0.86,0.43-1.38l0.73-1.98h0.68l0.26,4.1h-0.52L47.73,16.82z"/>
				<path class="st26" d="M50.93,14.57c0.26-0.04,0.59-0.08,1.02-0.08c0.52,0,0.91,0.12,1.15,0.34c0.22,0.19,0.36,0.49,0.36,0.86
					c0,0.37-0.11,0.66-0.32,0.88c-0.28,0.3-0.74,0.45-1.25,0.45c-0.16,0-0.3-0.01-0.43-0.04v1.64h-0.53V14.57z M51.46,16.55
					c0.12,0.03,0.26,0.04,0.44,0.04c0.64,0,1.03-0.31,1.03-0.88c0-0.54-0.38-0.8-0.97-0.8c-0.23,0-0.41,0.02-0.5,0.04V16.55z"/>
				<path class="st26" d="M54.99,14.52v2.43c0,0.92,0.41,1.31,0.96,1.31c0.61,0,1-0.4,1-1.31v-2.43h0.54v2.39
					c0,1.26-0.66,1.78-1.55,1.78c-0.84,0-1.47-0.48-1.47-1.75v-2.42H54.99z"/>
				<path class="st26" d="M58.7,14.58c0.27-0.05,0.65-0.08,1.02-0.08c0.57,0,0.93,0.1,1.19,0.33c0.21,0.18,0.32,0.46,0.32,0.78
					c0,0.54-0.34,0.9-0.77,1.05v0.02c0.32,0.11,0.51,0.4,0.6,0.83c0.13,0.57,0.23,0.97,0.32,1.13h-0.55
					c-0.07-0.12-0.16-0.47-0.27-0.98c-0.12-0.57-0.34-0.78-0.82-0.8h-0.5v1.78H58.7V14.58z M59.23,16.44h0.54
					c0.57,0,0.93-0.31,0.93-0.78c0-0.53-0.38-0.76-0.95-0.77c-0.25,0-0.44,0.02-0.52,0.05V16.44z"/>
				<path class="st26" d="M64.4,16.7h-1.6v1.48h1.78v0.44h-2.31v-4.1h2.22v0.44H62.8v1.3h1.6V16.7z"/>
			</g>
		</g>
		<g>
			<g>
				<path class="st26" d="M31.81,22.64c-0.08,0.04-0.25,0.08-0.46,0.08c-0.49,0-0.85-0.31-0.85-0.88c0-0.54,0.37-0.91,0.9-0.91
					c0.21,0,0.35,0.05,0.41,0.08l-0.05,0.18c-0.08-0.04-0.21-0.07-0.35-0.07c-0.4,0-0.67,0.26-0.67,0.71c0,0.42,0.24,0.69,0.66,0.69
					c0.13,0,0.27-0.03,0.36-0.07L31.81,22.64z"/>
				<path class="st26" d="M34.84,21.81c0,0.59-0.36,0.91-0.8,0.91c-0.46,0-0.78-0.35-0.78-0.88c0-0.55,0.34-0.91,0.8-0.91
					C34.54,20.94,34.84,21.3,34.84,21.81z M33.5,21.84c0,0.37,0.2,0.7,0.55,0.7c0.35,0,0.55-0.33,0.55-0.72
					c0-0.34-0.18-0.7-0.55-0.7C33.69,21.12,33.5,21.46,33.5,21.84z"/>
				<path class="st26" d="M36.43,22.42c0.1,0.06,0.25,0.11,0.4,0.11c0.23,0,0.36-0.12,0.36-0.29c0-0.16-0.09-0.25-0.33-0.34
					c-0.28-0.1-0.46-0.25-0.46-0.49c0-0.27,0.22-0.47,0.56-0.47c0.18,0,0.31,0.04,0.38,0.08l-0.06,0.18
					c-0.05-0.03-0.17-0.08-0.33-0.08c-0.23,0-0.32,0.14-0.32,0.26c0,0.16,0.11,0.24,0.34,0.33c0.29,0.11,0.44,0.25,0.44,0.51
					c0,0.27-0.2,0.5-0.6,0.5c-0.17,0-0.35-0.05-0.44-0.11L36.43,22.42z"/>
				<path class="st26" d="M40.52,21.94c-0.01-0.24-0.03-0.53-0.03-0.75h-0.01c-0.06,0.2-0.13,0.42-0.22,0.66l-0.3,0.84h-0.17
					l-0.28-0.82c-0.08-0.24-0.15-0.47-0.2-0.67h0c-0.01,0.22-0.02,0.51-0.04,0.76l-0.04,0.74h-0.21l0.12-1.73h0.28l0.29,0.84
					c0.07,0.21,0.13,0.4,0.17,0.58h0.01c0.04-0.17,0.11-0.36,0.18-0.58l0.31-0.84h0.29l0.11,1.73h-0.22L40.52,21.94z"/>
				<path class="st26" d="M42.71,22.15l-0.18,0.54H42.3l0.59-1.73h0.27l0.59,1.73H43.5l-0.18-0.54H42.71z M43.27,21.98l-0.17-0.5
					c-0.04-0.11-0.06-0.21-0.09-0.32h-0.01c-0.03,0.1-0.05,0.21-0.09,0.31l-0.17,0.5H43.27z"/>
				<path class="st26" d="M45.46,21.16h-0.53v-0.19h1.28v0.19h-0.53v1.54h-0.22V21.16z"/>
				<path class="st26" d="M47.96,20.97v1.73h-0.22v-1.73H47.96z"/>
				<path class="st26" d="M50.88,22.64c-0.08,0.04-0.25,0.08-0.46,0.08c-0.49,0-0.85-0.31-0.85-0.88c0-0.54,0.37-0.91,0.9-0.91
					c0.21,0,0.35,0.05,0.41,0.08l-0.05,0.18c-0.08-0.04-0.21-0.07-0.35-0.07c-0.4,0-0.67,0.26-0.67,0.71c0,0.42,0.24,0.69,0.66,0.69
					c0.14,0,0.28-0.03,0.37-0.07L50.88,22.64z"/>
				<path class="st26" d="M52.47,22.42c0.1,0.06,0.25,0.11,0.4,0.11c0.23,0,0.36-0.12,0.36-0.29c0-0.16-0.09-0.25-0.33-0.34
					c-0.28-0.1-0.46-0.25-0.46-0.49c0-0.27,0.22-0.47,0.56-0.47c0.18,0,0.3,0.04,0.38,0.08l-0.06,0.18
					c-0.06-0.03-0.17-0.08-0.33-0.08c-0.24,0-0.33,0.14-0.33,0.26c0,0.16,0.11,0.24,0.34,0.33c0.29,0.11,0.44,0.25,0.44,0.51
					c0,0.27-0.2,0.5-0.61,0.5c-0.17,0-0.35-0.05-0.44-0.11L52.47,22.42z"/>
			</g>
		</g>
	</g>
	<g>
		<path class="st26" d="M9.03,9.81c0,0,0.01-0.01,0.01-0.01C9.04,9.8,9.03,9.81,9.03,9.81C9.03,9.81,9.03,9.81,9.03,9.81z"/>
		<path class="st26" d="M5.14,10.94c-2.1,2.38-3.82,5.02-5.14,7.9h2.18c1.33-2.69,3.06-5.16,5.15-7.37
			c-0.19-0.04-0.37-0.08-0.56-0.13L5.14,10.94z"/>
		<path class="st26" d="M18.4,10.05c2.22-1.38,6.53-5.12,6.53-5.12c-3.75,1.15-7.22,2.96-10.33,5.37c0.11,0,0.22,0,0.32,0
			C16.09,10.28,17.25,10.19,18.4,10.05z"/>
		<path class="st26" d="M31.45,7.46c-0.7,0.43-1.42,0.84-2.15,1.22C30.03,8.3,30.74,7.9,31.45,7.46z"/>
		<path class="st26" d="M22.48,9.23c-0.24,0.07-0.49,0.13-0.74,0.19c0.24-0.06,0.48-0.12,0.72-0.18
			C22.47,9.24,22.48,9.23,22.48,9.23z"/>
		<path class="st26" d="M15.52,5.33c-0.3,0.15-0.6,0.31-0.9,0.48C14.92,5.64,15.22,5.48,15.52,5.33z"/>
		<path class="st26" d="M20.14,9.77C20.14,9.77,20.14,9.77,20.14,9.77c-0.04,0.01-0.08,0.02-0.12,0.02c0,0,0,0,0,0
			C20.06,9.79,20.1,9.78,20.14,9.77z"/>
		<path class="st26" d="M19.28,9.92c-0.01,0-0.02,0-0.03,0C19.26,9.92,19.27,9.92,19.28,9.92C19.28,9.92,19.28,9.92,19.28,9.92z"/>
		<path class="st26" d="M29.66,1.97c1.74,0.02,3.48,0.18,5.18,0.49C33.14,2.15,31.4,1.99,29.66,1.97z"/>
		<polygon class="st26" points="37.1,0.93 38.78,1.34 37.57,2.57 38.78,1.34 		"/>
		<path class="st26" d="M37.57,2.57c-0.93,0.95-1.94,1.86-2.99,2.69C35.62,4.43,36.63,3.53,37.57,2.57z"/>
		<path class="st26" d="M21.75,9.42c-0.05,0.01-0.09,0.02-0.14,0.03C21.66,9.44,21.7,9.43,21.75,9.42
			C21.75,9.42,21.75,9.42,21.75,9.42z"/>
		<path class="st26" d="M20.99,9.6C20.99,9.6,20.99,9.6,20.99,9.6c-0.07,0.02-0.15,0.03-0.22,0.05c0,0,0,0,0,0
			C20.84,9.63,20.92,9.61,20.99,9.6z"/>
		<path class="st26" d="M33.35,3.72c0.51-0.4,1.01-0.83,1.49-1.26C34.35,2.9,33.86,3.32,33.35,3.72z"/>
		<path class="st26" d="M23.03,2.64c-0.32,0.07-0.64,0.14-0.97,0.22C22.39,2.79,22.71,2.71,23.03,2.64z"/>
		<path class="st26" d="M17.62,4.35c-0.31,0.13-0.61,0.27-0.92,0.41C17.01,4.61,17.31,4.48,17.62,4.35z"/>
		<path class="st26" d="M37.1,0.93C34.59,0.31,31.99,0,29.38,0c-1.44,0-2.88,0.1-4.29,0.28C18.01,1.22,11.33,4.57,6.3,9.7
			c-0.4,0.41-0.79,0.82-1.16,1.25l1.63,0.4c0.19,0.05,0.37,0.09,0.56,0.13c0.13-0.13,0.25-0.27,0.38-0.4
			c0.43-0.44,0.87-0.86,1.32-1.27c0,0,0,0,0,0c0,0,0.01-0.01,0.01-0.01C9.3,9.56,9.57,9.34,9.83,9.11c0.03-0.03,0.07-0.06,0.1-0.09
			c0.26-0.22,0.52-0.43,0.79-0.63c0.04-0.03,0.08-0.07,0.13-0.1c0.27-0.2,0.53-0.4,0.81-0.6c0.04-0.03,0.08-0.06,0.12-0.09
			c0.28-0.2,0.56-0.39,0.84-0.58c0.03-0.02,0.06-0.04,0.08-0.05c0.45-0.29,0.9-0.58,1.36-0.85c0.15-0.09,0.31-0.18,0.46-0.27
			c0.03-0.02,0.06-0.04,0.09-0.05c0.3-0.16,0.59-0.32,0.9-0.48c0.05-0.02,0.09-0.05,0.14-0.07c0.3-0.15,0.59-0.3,0.9-0.44
			c0.05-0.02,0.1-0.05,0.15-0.07c0.3-0.14,0.61-0.28,0.92-0.41c0.04-0.02,0.08-0.03,0.13-0.05c0.32-0.13,0.64-0.26,0.96-0.38
			c0.02-0.01,0.04-0.01,0.06-0.02c0.33-0.12,0.65-0.24,0.98-0.35c0.02-0.01,0.04-0.02,0.06-0.02c0.33-0.11,0.65-0.21,0.98-0.31
			c0.05-0.01,0.09-0.03,0.14-0.04c0.32-0.09,0.64-0.18,0.96-0.26c0.05-0.01,0.11-0.03,0.17-0.04c0.32-0.08,0.64-0.15,0.97-0.22
			c0.05-0.01,0.11-0.02,0.16-0.03c0.33-0.07,0.66-0.13,0.99-0.19c0.04-0.01,0.08-0.01,0.12-0.02c0.35-0.06,0.7-0.11,1.05-0.16
			c0.39-0.05,0.78-0.1,1.18-0.13c0.79-0.07,1.58-0.12,2.38-0.13c0.25,0,0.5,0,0.75,0c1.74,0.02,3.48,0.18,5.18,0.49
			c-0.48,0.44-0.98,0.86-1.49,1.26l1.23,1.54c-0.68,0.54-1.38,1.05-2.1,1.54c0.72-0.48,1.42-1,2.1-1.54
			c1.05-0.83,2.05-1.74,2.99-2.69l1.21-1.24L37.1,0.93z"/>
		<path class="st26" d="M14.07,6.13c-0.46,0.27-0.92,0.55-1.36,0.85C13.15,6.68,13.61,6.4,14.07,6.13z"/>
		<path class="st26" d="M28.91,1.98c0.25,0,0.5,0,0.75,0C29.41,1.97,29.16,1.97,28.91,1.98z"/>
		<path class="st26" d="M9.83,9.11C9.57,9.34,9.3,9.56,9.04,9.8C9.3,9.56,9.57,9.34,9.83,9.11z"/>
		<path class="st26" d="M19.75,3.54c-0.33,0.11-0.66,0.23-0.98,0.35C19.09,3.77,19.42,3.65,19.75,3.54z"/>
		<path class="st26" d="M20.8,3.21c-0.33,0.1-0.66,0.2-0.98,0.31C20.14,3.41,20.47,3.31,20.8,3.21z"/>
		<path class="st26" d="M24.18,2.42c-0.33,0.06-0.66,0.12-0.99,0.19C23.52,2.54,23.85,2.48,24.18,2.42z"/>
		<path class="st26" d="M18.53,10.03c-0.04,0.01-0.09,0.01-0.13,0.02c0,0,0,0,0,0C18.44,10.04,18.48,10.04,18.53,10.03z"/>
		<path class="st26" d="M18.53,10.03c-0.04,0.01-0.09,0.01-0.13,0.02C18.44,10.04,18.48,10.04,18.53,10.03L18.53,10.03z"/>
		<path class="st26" d="M14.6,10.3L14.6,10.3l-0.27,0.21c0,0,0,0-0.01,0.01l0.01,0C14.42,10.44,14.51,10.37,14.6,10.3z"/>
		<path class="st26" d="M20.77,9.65C20.77,9.65,20.77,9.65,20.77,9.65c-0.21,0.04-0.42,0.09-0.63,0.12c0,0,0,0,0,0
			C20.35,9.73,20.56,9.69,20.77,9.65z"/>
		<path class="st26" d="M12.22,12.19c0.05,0,0.1,0.01,0.15,0.01c0.63-0.58,1.28-1.15,1.96-1.69L12.22,12.19z"/>
		<path class="st26" d="M21.27,9.53c-0.09,0.02-0.18,0.04-0.27,0.06c0,0,0,0,0,0C21.08,9.58,21.18,9.56,21.27,9.53z"/>
		<path class="st26" d="M20.02,9.79c-0.12,0.02-0.23,0.04-0.35,0.06C19.79,9.83,19.91,9.82,20.02,9.79
			C20.02,9.79,20.02,9.79,20.02,9.79z"/>
		<path class="st26" d="M18.4,10.05c-1.15,0.15-2.3,0.23-3.47,0.25c-0.11,0-0.22,0-0.32,0c0,0,0,0,0,0l0.33,0
			C16.1,10.28,17.25,10.19,18.4,10.05z"/>
		<path class="st26" d="M22.46,9.24c-0.24,0.06-0.48,0.13-0.72,0.18c0,0,0,0,0,0C21.99,9.36,22.22,9.3,22.46,9.24z"/>
		<path class="st26" d="M33.35,3.72c-2.56,2.03-5.41,3.63-8.47,4.74c-0.24,0.09-0.48,0.17-0.72,0.25c-0.07,0.02-0.14,0.05-0.21,0.07
			c-0.18,0.06-0.36,0.12-0.53,0.17C23.35,8.98,23.28,9,23.21,9.02c-0.22,0.07-0.45,0.13-0.67,0.19c-0.02,0-0.04,0.01-0.05,0.02
			c-0.01,0-0.01,0-0.02,0.01c-0.24,0.06-0.48,0.13-0.72,0.18c-0.05,0.01-0.09,0.02-0.14,0.03c-0.02,0.01-0.04,0.01-0.07,0.02
			c-0.09,0.02-0.19,0.04-0.28,0.06c-0.09,0.02-0.18,0.04-0.27,0.06c-0.07,0.02-0.15,0.03-0.22,0.05c-0.21,0.04-0.42,0.09-0.63,0.13
			c-0.04,0.01-0.08,0.02-0.12,0.02c-0.12,0.02-0.23,0.04-0.35,0.06c-0.13,0.02-0.26,0.05-0.39,0.07c0,0,0,0,0,0
			c-0.01,0-0.02,0-0.03,0c-0.06,0.01-0.12,0.02-0.18,0.03c-0.18,0.03-0.37,0.05-0.55,0.08c0,0,0,0,0,0
			c-0.04,0.01-0.09,0.01-0.13,0.02c0,0,0,0,0,0c-1.15,0.15-2.3,0.23-3.47,0.25l-0.33,0c-0.09,0.07-0.18,0.14-0.27,0.21l-0.01,0
			c-0.68,0.54-1.33,1.1-1.96,1.69c0.7,0.05,1.41,0.07,2.12,0.07c0.16,0,0.32,0,0.47,0c0.17,0,0.34-0.01,0.51-0.01
			c0.11,0,0.22-0.01,0.33-0.01c0.11,0,0.23-0.01,0.34-0.02c0.11-0.01,0.22-0.01,0.33-0.02c0.11-0.01,0.23-0.01,0.34-0.02
			c0.11-0.01,0.22-0.02,0.33-0.02c0.11-0.01,0.23-0.02,0.34-0.03c0.11-0.01,0.22-0.02,0.33-0.03c0.11-0.01,0.22-0.02,0.34-0.04
			c0.11-0.01,0.22-0.02,0.33-0.04c0.11-0.01,0.22-0.03,0.34-0.04c0.11-0.01,0.22-0.03,0.32-0.04c0.11-0.02,0.22-0.03,0.33-0.05
			c0.11-0.02,0.22-0.03,0.32-0.05c0.11-0.02,0.22-0.04,0.33-0.06c0.11-0.02,0.22-0.04,0.32-0.06c0.11-0.02,0.22-0.04,0.33-0.06
			c0.11-0.02,0.21-0.04,0.32-0.06c0.11-0.02,0.22-0.05,0.33-0.07c0.11-0.02,0.21-0.05,0.32-0.07c0.11-0.03,0.22-0.05,0.33-0.08
			c0.11-0.03,0.21-0.05,0.32-0.08c0.11-0.03,0.22-0.06,0.33-0.09c0.1-0.03,0.21-0.05,0.31-0.08c0.11-0.03,0.22-0.06,0.34-0.1
			c0.1-0.03,0.2-0.06,0.3-0.09c0.12-0.03,0.24-0.07,0.35-0.11c0.09-0.03,0.19-0.06,0.28-0.09c0.13-0.04,0.26-0.09,0.4-0.13
			c0.08-0.03,0.16-0.05,0.23-0.08c0.21-0.07,0.42-0.15,0.63-0.22c0.81-0.3,1.62-0.63,2.4-0.99c0.39-0.18,0.78-0.37,1.17-0.56
			c0.06-0.03,0.11-0.06,0.17-0.09c0.73-0.38,1.45-0.79,2.15-1.22c0.35-0.21,0.69-0.43,1.03-0.66c0.72-0.48,1.42-1,2.1-1.54
			L33.35,3.72z"/>
		<path class="st26" d="M32.48,6.8c-0.34,0.23-0.68,0.45-1.03,0.66C31.79,7.25,32.14,7.03,32.48,6.8z"/>
		<path class="st26" d="M29.13,8.77c-0.38,0.2-0.77,0.38-1.17,0.56C28.35,9.16,28.74,8.97,29.13,8.77z"/>
		<path class="st26" d="M19.25,9.93c-0.06,0.01-0.12,0.02-0.18,0.03c0,0,0,0,0,0C19.13,9.94,19.19,9.93,19.25,9.93z"/>
		<path class="st26" d="M21.61,9.46c-0.02,0.01-0.04,0.01-0.06,0.02c0,0,0,0,0,0C21.57,9.47,21.59,9.46,21.61,9.46z"/>
		<polygon class="st26" points="18.53,10.03 18.53,10.03 18.53,10.03 		"/>
		<path class="st26" d="M21.55,9.47c-0.09,0.02-0.19,0.04-0.28,0.06C21.36,9.51,21.45,9.49,21.55,9.47
			C21.55,9.47,21.55,9.47,21.55,9.47z"/>
		<path class="st26" d="M19.67,9.85c-0.13,0.02-0.26,0.05-0.39,0.07c0,0,0,0,0,0C19.41,9.9,19.54,9.88,19.67,9.85z"/>
		<polygon class="st26" points="19.28,9.92 19.28,9.92 19.28,9.92 		"/>
		<path class="st26" d="M19.08,9.95C19.08,9.95,19.08,9.95,19.08,9.95c-0.18,0.03-0.37,0.05-0.55,0.08c0,0,0,0,0,0
			C18.71,10.01,18.89,9.98,19.08,9.95z"/>
	</g>
</g>
</svg>
