<?xml version="1.0" encoding="utf-8"?>
<!-- Generator: Adobe Illustrator 25.0.1, SVG Export Plug-In . SVG Version: 6.00 Build 0)  -->
<svg version="1.0" id="Layer_1" xmlns="http://www.w3.org/2000/svg" xmlns:xlink="http://www.w3.org/1999/xlink" x="0px" y="0px"
	 viewBox="0 0 46.36 47.25" style="enable-background:new 0 0 46.36 47.25;" xml:space="preserve">
<style type="text/css">
	.st0{fill:#000104;}
	.st1{fill:#FFFFFF;}
	.st2{fill:#EF493E;}
	.st3{opacity:0.6;fill-rule:evenodd;clip-rule:evenodd;fill:#FBBE43;}
	.st4{opacity:0.6;fill-rule:evenodd;clip-rule:evenodd;fill:#EF930E;}
	.st5{opacity:0.6;fill-rule:evenodd;clip-rule:evenodd;fill:#E67906;}
	.st6{fill:#9F8829;}
	.st7{fill:#3972A6;}
	.st8{fill:url(#SVGID_1_);stroke:#2B53A4;stroke-width:0.5;stroke-miterlimit:10;}
	.st9{fill:none;}
	.st10{fill:url(#SVGID_2_);}
	.st11{fill:url(#SVGID_3_);}
	.st12{fill:#B3B3B3;}
	.st13{fill:url(#SVGID_4_);}
	.st14{fill:url(#SVGID_5_);}
	.st15{fill:url(#SVGID_6_);}
	.st16{fill:#FFFFFF;stroke:#FFFFFF;stroke-width:0.25;stroke-miterlimit:10;}
	.st17{fill:#00001D;}
	.st18{fill:#4DA0C5;}
	.st19{fill:url(#SVGID_7_);}
	.st20{fill:#2E6A85;}
	.st21{fill:none;stroke:#144FA1;stroke-width:0.113;stroke-linejoin:round;stroke-miterlimit:10;}
	.st22{fill:#F27337;}
	.st23{fill:#8EB8D4;}
	.st24{fill:#F38056;}
	.st25{fill:#626365;}
	.st26{fill:#EF6D23;}
	.st27{fill:#284B82;}
	.st28{fill:#242956;}
	.st29{fill:#15142A;}
	.st30{fill:#84C343;}
	.st31{fill:#4CA1C6;}
	.st32{fill:#121617;}
	.st33{fill:#CF8966;}
	.st34{fill:#F37639;}
	.st35{opacity:0.3;fill:url(#SVGID_8_);}
	.st36{fill:#373277;}
	.st37{fill:#E61E25;}
	.st38{fill:#2555A5;}
	.st39{fill:#2E225E;}
	.st40{fill:#F8A425;}
	.st41{fill:#2058A7;}
	.st42{fill:none;stroke:#205AA8;stroke-width:0.156;stroke-miterlimit:10;}
	.st43{fill:#49A3C7;}
	.st44{fill-rule:evenodd;clip-rule:evenodd;}
	.st45{fill-rule:evenodd;clip-rule:evenodd;fill:url(#SVGID_9_);}
	.st46{fill-rule:evenodd;clip-rule:evenodd;fill:url(#SVGID_10_);}
	.st47{fill-rule:evenodd;clip-rule:evenodd;fill:url(#SVGID_11_);}
	.st48{fill:#1D2251;}
	.st49{fill:#2260AC;}
	.st50{fill:url(#SVGID_12_);}
	.st51{fill:#FFFFFC;}
	.st52{fill:#4C9FC5;}
	.st53{fill:#28306D;}
	.st54{fill:#4C9EC5;}
	.st55{fill:#28306E;}
	.st56{fill:#29306F;}
	.st57{fill:#F7F7FB;}
	.st58{fill:url(#SVGID_13_);}
	.st59{fill:url(#SVGID_14_);}
	.st60{fill:url(#SVGID_15_);}
	.st61{fill:url(#SVGID_16_);}
	.st62{fill:#10123C;}
	.st63{fill:#F5842C;}
	.st64{fill:#1F305E;}
	.st65{fill:#87BBD1;}
	.st66{fill:#203160;}
	.st67{fill:#235779;}
	.st68{fill:#359FA1;}
	.st69{fill:#A4D1A4;}
	.st70{fill:#B9DBBC;}
	.st71{fill:#C6DDCA;}
	.st72{fill:#662E14;}
	.st73{fill:#1D79A4;}
	.st74{fill:#C14B28;}
	.st75{fill:url(#SVGID_17_);}
	.st76{fill:url(#SVGID_18_);}
	.st77{fill:url(#SVGID_19_);}
	.st78{fill:url(#SVGID_20_);}
	.st79{fill:url(#SVGID_21_);}
	.st80{fill:url(#SVGID_22_);}
	.st81{fill:url(#SVGID_23_);}
	.st82{fill:url(#SVGID_24_);}
	.st83{fill:url(#SVGID_25_);}
	.st84{fill:url(#SVGID_26_);}
	.st85{fill:url(#SVGID_27_);}
	.st86{fill:url(#SVGID_28_);}
	.st87{fill:url(#SVGID_29_);}
	.st88{fill:url(#SVGID_30_);}
	.st89{fill:#1F164B;}
	.st90{clip-path:url(#SVGID_32_);fill:#253D97;}
	.st91{fill:url(#SVGID_33_);}
	.st92{fill:url(#SVGID_34_);}
	.st93{fill:url(#SVGID_35_);}
	.st94{fill:url(#SVGID_36_);}
	.st95{fill:url(#SVGID_37_);}
	.st96{fill:url(#SVGID_38_);}
	.st97{fill:url(#SVGID_39_);}
	.st98{fill:url(#SVGID_40_);}
	.st99{fill:url(#SVGID_41_);}
	.st100{fill:#443F41;}
	.st101{fill:#28306F;}
	.st102{fill:#71C49D;}
	.st103{fill:#F0C6A7;}
	.st104{fill:#DB8D82;}
	.st105{fill:#EFB7AC;}
	.st106{opacity:0.21;}
	.st107{fill-rule:evenodd;clip-rule:evenodd;fill:#A9196E;}
	.st108{fill-rule:evenodd;clip-rule:evenodd;fill:#FBE42C;}
	.st109{fill:#FBE42C;}
	.st110{fill:#A9196E;}
	.st111{fill:#7FC143;}
	.st112{clip-path:url(#SVGID_45_);fill:#7FC143;}
	.st113{clip-path:url(#SVGID_51_);fill:#7FC143;}
	.st114{fill:#243F8F;}
	.st115{fill:#EF4E2F;}
	.st116{fill:#010007;}
	.st117{fill:#0C0D37;}
	.st118{fill:#FBAF2D;}
	.st119{fill:url(#SVGID_54_);}
	.st120{fill-rule:evenodd;clip-rule:evenodd;fill:#FFFFFF;}
	.st121{fill:#1D4690;}
	.st122{fill:#3AA949;}
	.st123{fill:#F37A24;}
	.st124{fill:none;stroke:#F37A24;stroke-width:3.7145;stroke-miterlimit:10;}
	.st125{fill:#3AA949;stroke:#FFFFFF;stroke-width:1.3104;stroke-miterlimit:10;}
	.st126{fill:#46A2BB;}
	.st127{fill:#7153A0;}
	.st128{fill:#27316C;}
	.st129{fill:#2C65AE;}
	.st130{fill:#452D7A;}
	.st131{fill:#442C7A;}
	.st132{fill:#1A2642;}
	.st133{fill-rule:evenodd;clip-rule:evenodd;fill:#567EB8;}
	.st134{fill-rule:evenodd;clip-rule:evenodd;fill:#6A7EB8;}
	.st135{fill-rule:evenodd;clip-rule:evenodd;fill:#6A7EB9;}
	.st136{fill-rule:evenodd;clip-rule:evenodd;fill:#EE3C2D;}
	.st137{fill-rule:evenodd;clip-rule:evenodd;fill:#EF493F;}
	.st138{fill-rule:evenodd;clip-rule:evenodd;fill:#ED2C24;}
	.st139{fill-rule:evenodd;clip-rule:evenodd;fill:#E9AE28;}
	.st140{fill-rule:evenodd;clip-rule:evenodd;fill:#D69B28;}
	.st141{fill-rule:evenodd;clip-rule:evenodd;fill:#FCB729;}
	.st142{fill-rule:evenodd;clip-rule:evenodd;fill:#409E47;}
	.st143{fill-rule:evenodd;clip-rule:evenodd;fill:#4BB450;}
	.st144{fill-rule:evenodd;clip-rule:evenodd;fill:#338440;}
	.st145{fill:#C09C36;}
	.st146{fill:#1E552A;}
	.st147{clip-path:url(#SVGID_56_);fill:url(#SVGID_57_);}
	.st148{fill:#023A1E;}
	.st149{fill:#FFFFFA;}
	.st150{fill:#0D4F28;}
	.st151{fill:#0E5128;}
	.st152{fill:#0D4E27;}
	.st153{fill:#0E5229;}
	.st154{fill:#0E4823;}
	.st155{fill:#0E4C27;}
	.st156{fill:#F3F6E0;}
	.st157{fill:#0E4F28;}
	.st158{fill:#114823;}
	.st159{fill:#105229;}
	.st160{fill:#0A4A2B;}
	.st161{fill:#134F27;}
	.st162{fill:#165229;}
	.st163{fill:#0D5029;}
	.st164{fill:#0B4E2B;}
	.st165{fill:#105028;}
	.st166{fill:#0A492A;}
	.st167{fill:#E9F3E2;}
	.st168{fill:#144D26;}
	.st169{fill:#185C2F;}
	.st170{fill:#0F5028;}
	.st171{fill:#F3F8EA;}
	.st172{fill:#114D26;}
	.st173{fill:#70A685;}
	.st174{fill:#0D4F2A;}
	.st175{fill:#094A24;}
	.st176{fill:#0F4F27;}
	.st177{fill:#0A4C26;}
	.st178{fill:#A2D29A;}
	.st179{fill:#4D7E44;}
	.st180{fill:#E8F2E1;}
	.st181{fill:#EDF5E5;}
	.st182{fill:#E6F2E7;}
	.st183{fill:#E5F1DC;}
	.st184{fill:#E9F3E3;}
	.st185{fill:#E9F3E5;}
	.st186{fill:#E5F1DB;}
	.st187{fill:#D8ECD7;}
	.st188{fill:#D9EBD4;}
	.st189{fill:#E2F0DE;}
	.st190{fill:#366B4B;}
	.st191{fill:#5D6162;}
	.st192{fill:#212E5F;}
	.st193{fill:#DD1F26;}
	.st194{clip-path:url(#SVGID_59_);}
	.st195{fill:#23396F;}
	.st196{fill:#7FC24E;}
	.st197{clip-path:url(#SVGID_59_);fill:#23396F;}
	.st198{clip-path:url(#SVGID_59_);fill:#7FC24E;}
	.st199{fill:#91CEA4;}
	.st200{fill:#90CEA4;}
	.st201{fill:#C02026;}
	.st202{fill:#362E7E;}
</style>
<g>
	<path class="st114" d="M28.56,8.8C28.56,8.8,28.56,8.8,28.56,8.8l0,0.47v3.41c-0.12-0.01-0.24-0.02-0.37-0.02
		c-0.39,0-0.77,0.04-1.14,0.1c-0.34,0.07-0.66,0.16-0.98,0.27c-0.06,0.02-0.12,0.04-0.18,0.06c-1.69,0.66-3.04,1.96-3.73,3.6
		c-0.01,0.02-0.02,0.05-0.03,0.07c-0.02,0.04-0.04,0.09-0.05,0.13l-0.53,1.34l-0.48,1.22l-0.4,1.01l-1.55,3.91c0,0,0,0,0,0
		l-1.99,5.02l-1.66-4.23L10.62,12.8h3.74l0.12,0.3l2.42,6.17l1.59-4.05c-0.03,0.09-0.05,0.19-0.07,0.28c0,0,0-0.01,0.01-0.01
		c0.11-0.28,0.23-0.55,0.36-0.81c0,0,0,0,0,0c0,0,0-0.01,0-0.01c0.27-0.55,0.6-1.07,0.96-1.56c0,0,0,0,0-0.01c0,0,0,0,0,0
		c0.16-0.21,0.33-0.42,0.5-0.62c0.02-0.02,0.04-0.04,0.06-0.07c0.17-0.19,0.35-0.38,0.54-0.57c0,0,0,0,0,0
		c0.12-0.11,0.24-0.22,0.36-0.33c0.06-0.05,0.11-0.1,0.17-0.14c0.07-0.06,0.13-0.12,0.2-0.17c0.08-0.07,0.17-0.13,0.26-0.2
		c0.04-0.03,0.08-0.06,0.12-0.1c0.1-0.08,0.21-0.15,0.32-0.22c0.03-0.02,0.05-0.04,0.08-0.05c0.12-0.08,0.24-0.16,0.36-0.23
		c0.01-0.01,0.03-0.02,0.04-0.03c0.13-0.08,0.26-0.16,0.4-0.23c0.01,0,0.01-0.01,0.02-0.01c0.14-0.08,0.28-0.15,0.42-0.22
		c0,0,0,0,0.01,0c0.14-0.07,0.29-0.14,0.44-0.2c0,0,0,0,0,0c0,0,0,0,0,0c0.14-0.06,0.28-0.12,0.42-0.17c0,0,0.01,0,0.01-0.01
		c0.14-0.05,0.29-0.11,0.43-0.16c0,0,0,0,0.01,0c0.89-0.3,1.83-0.49,2.81-0.55c0,0,0,0,0,0l0.01-0.02h0.67h0h0L28.56,8.8L28.56,8.8z
		 M28.24,25.77c0.12,0,0.25-0.01,0.37-0.02v0.23v1.07v2.11v0.47c-0.05,0-0.1,0-0.15,0c-3.55,0-6.7-1.68-8.64-4.28l1.86-4.74
		C22.33,23.57,25.02,25.77,28.24,25.77z"/>
	<g>
		<polygon class="st115" points="17.23,36.43 14.81,31.28 13.47,31.28 16.56,37.86 		"/>
		<polygon class="st115" points="17.23,39.28 17.23,39.28 17.23,39.28 		"/>
		<polygon class="st115" points="17.23,39.28 17.23,39.28 17.23,39.28 		"/>
		<polygon class="st115" points="17.9,37.86 21,31.28 19.66,31.28 17.23,36.43 		"/>
		<polygon class="st115" points="17.23,39.28 17.23,39.28 17.23,39.28 17.33,39.08 17.13,39.08 		"/>
		<polygon class="st115" points="17.23,36.43 16.56,37.86 17.13,39.08 17.33,39.08 17.9,37.86 		"/>
	</g>
	<g>
		<polygon class="st115" points="14.52,13.11 14.4,12.8 10.66,12.8 15.51,25.18 17.16,29.41 19.05,24.65 16.94,19.27 		"/>
		<path class="st115" d="M18.45,15.5c0,0,0-0.01,0.01-0.01c0.02-0.06,0.05-0.12,0.07-0.18l-0.01-0.09
			C18.5,15.31,18.48,15.41,18.45,15.5z"/>
	</g>
	<polygon class="st115" points="12.84,8.8 9.09,8.8 10.29,11.85 14.03,11.85 	"/>
	<path class="st114" d="M11.56,31.28h1.35v8h-1.35V31.28z M21.47,34.13l2.42,5.15h1.34l-3.09-6.58L21.47,34.13z M21.47,31.28
		L21.47,31.28L21.47,31.28L21.47,31.28z M21.47,31.28L21.47,31.28L21.47,31.28L21.47,31.28z M20.8,32.71l-3.09,6.58h1.34l2.42-5.15
		L20.8,32.71z M21.47,31.28L21.47,31.28L21.47,31.28l-0.1,0.21h0.2L21.47,31.28z M21.47,34.13l0.67-1.43l-0.57-1.22h-0.2l-0.57,1.22
		L21.47,34.13z M35.47,31.32c-2.24,0-4.07,1.78-4.07,3.96c0,2.18,1.82,3.96,4.07,3.96c2.24,0,4.07-1.78,4.07-3.96
		C39.54,33.1,37.71,31.32,35.47,31.32z M35.47,38.05c-1.57,0-2.84-1.24-2.84-2.77c0-1.53,1.28-2.77,2.84-2.77
		c1.57,0,2.84,1.24,2.84,2.77C38.31,36.81,37.04,38.05,35.47,38.05z M28.59,38.05c-1.57,0-2.84-1.24-2.84-2.77
		c0-1.53,1.28-2.77,2.84-2.77c0.87,0,1.63,0.39,2.15,0.98v-1.56c-0.63-0.38-1.36-0.61-2.15-0.61c-2.24,0-4.07,1.78-4.07,3.96
		c0,2.18,1.82,3.96,4.07,3.96c0.79,0,1.53-0.23,2.15-0.61v-1.56C30.22,37.67,29.46,38.05,28.59,38.05z"/>
	<path class="st115" d="M29.74,8.8h-0.15v0v0.47v2.11v1.07v0.23c0.12-0.01,0.24-0.02,0.37-0.02c3.72,0,6.73,2.93,6.73,6.55
		c0,3.62-3.01,6.55-6.73,6.55c-0.12,0-0.25-0.01-0.37-0.02v3.41v0.47v0h0.15c5.91,0,10.71-4.67,10.71-10.42
		C40.45,13.47,35.65,8.8,29.74,8.8z"/>
	<polygon class="st116" points="28.05,13.11 28.06,13.11 28.06,13.1 	"/>
	<g>
		<path class="st114" d="M11.84,40.72h0.84v0.16h-0.64v0.5h0.59v0.16h-0.59v0.68h-0.2V40.72z"/>
		<path class="st114" d="M13.8,41.68c0,0.4-0.29,0.58-0.56,0.58c-0.3,0-0.53-0.21-0.53-0.56c0-0.36,0.24-0.58,0.55-0.58
			C13.58,41.12,13.8,41.35,13.8,41.68z M12.91,41.69c0,0.24,0.14,0.42,0.34,0.42c0.19,0,0.34-0.18,0.34-0.42
			c0-0.18-0.09-0.42-0.33-0.42C13.01,41.27,12.91,41.48,12.91,41.69z"/>
		<path class="st114" d="M13.86,41.48c0-0.13,0-0.24-0.01-0.34h0.18l0.01,0.21h0.01c0.05-0.15,0.17-0.24,0.31-0.24
			c0.02,0,0.04,0,0.06,0.01v0.19c-0.02,0-0.04-0.01-0.07-0.01c-0.14,0-0.24,0.11-0.27,0.25c0,0.03-0.01,0.06-0.01,0.09v0.58h-0.2
			V41.48z"/>
		<path class="st114" d="M14.94,40.89h-0.47v-0.17h1.15v0.17h-0.47v1.35h-0.2V40.89z"/>
		<path class="st114" d="M15.49,41.48c0-0.13,0-0.24-0.01-0.34h0.18l0.01,0.21h0.01c0.05-0.15,0.17-0.24,0.31-0.24
			c0.02,0,0.04,0,0.06,0.01v0.19c-0.02,0-0.04-0.01-0.07-0.01c-0.14,0-0.24,0.11-0.27,0.25c0,0.03-0.01,0.06-0.01,0.09v0.58h-0.2
			V41.48z"/>
		<path class="st114" d="M16.66,42.23l-0.02-0.14h-0.01c-0.06,0.08-0.18,0.16-0.34,0.16c-0.23,0-0.34-0.15-0.34-0.31
			c0-0.26,0.24-0.41,0.67-0.4v-0.02c0-0.09-0.03-0.25-0.25-0.25c-0.1,0-0.21,0.03-0.29,0.08l-0.05-0.13c0.09-0.06,0.23-0.1,0.37-0.1
			c0.34,0,0.42,0.23,0.42,0.44v0.41c0,0.09,0,0.19,0.02,0.26H16.66z M16.63,41.68c-0.22,0-0.47,0.03-0.47,0.24
			c0,0.13,0.09,0.19,0.19,0.19c0.15,0,0.24-0.09,0.27-0.18c0.01-0.02,0.01-0.04,0.01-0.06V41.68z"/>
		<path class="st114" d="M17.93,40.64v1.31c0,0.1,0,0.21,0.01,0.28h-0.18l-0.01-0.19h0c-0.06,0.12-0.2,0.21-0.38,0.21
			c-0.27,0-0.48-0.22-0.48-0.55c0-0.36,0.23-0.58,0.5-0.58c0.17,0,0.29,0.08,0.34,0.17h0v-0.65H17.93z M17.73,41.59
			c0-0.02,0-0.06-0.01-0.08c-0.03-0.13-0.14-0.23-0.29-0.23c-0.21,0-0.33,0.18-0.33,0.42c0,0.22,0.11,0.4,0.33,0.4
			c0.14,0,0.26-0.09,0.3-0.24c0.01-0.03,0.01-0.05,0.01-0.08V41.59z"/>
		<path class="st114" d="M18.19,41.72c0,0.27,0.18,0.38,0.38,0.38c0.14,0,0.23-0.02,0.31-0.06l0.03,0.14
			c-0.07,0.03-0.19,0.07-0.37,0.07c-0.34,0-0.55-0.22-0.55-0.55c0-0.33,0.2-0.59,0.52-0.59c0.36,0,0.46,0.31,0.46,0.51
			c0,0.04,0,0.07-0.01,0.09H18.19z M18.79,41.58c0-0.12-0.05-0.32-0.28-0.32c-0.21,0-0.29,0.18-0.31,0.32H18.79z"/>
		<path class="st114" d="M19.6,41.76l-0.16,0.48h-0.21l0.53-1.51H20l0.53,1.51h-0.21l-0.17-0.48H19.6z M20.11,41.6l-0.15-0.44
			c-0.03-0.1-0.06-0.19-0.08-0.28h0c-0.02,0.09-0.05,0.18-0.08,0.27l-0.15,0.44H20.11z"/>
		<path class="st114" d="M20.56,41.44c0-0.11,0-0.2-0.01-0.29h0.18l0.01,0.18h0c0.06-0.1,0.18-0.2,0.37-0.2
			c0.15,0,0.39,0.09,0.39,0.46v0.65h-0.2v-0.63c0-0.17-0.07-0.32-0.26-0.32c-0.13,0-0.24,0.09-0.27,0.2
			c-0.01,0.03-0.01,0.06-0.01,0.09v0.65h-0.2V41.44z"/>
		<path class="st114" d="M22.61,40.64v1.31c0,0.1,0,0.21,0.01,0.28h-0.18l-0.01-0.19h0c-0.06,0.12-0.2,0.21-0.38,0.21
			c-0.27,0-0.48-0.22-0.48-0.55c0-0.36,0.23-0.58,0.5-0.58c0.17,0,0.29,0.08,0.34,0.17h0v-0.65H22.61z M22.41,41.59
			c0-0.02,0-0.06-0.01-0.08c-0.03-0.13-0.14-0.23-0.29-0.23c-0.21,0-0.33,0.18-0.33,0.42c0,0.22,0.11,0.4,0.33,0.4
			c0.14,0,0.26-0.09,0.3-0.24c0.01-0.03,0.01-0.05,0.01-0.08V41.59z"/>
		<path class="st114" d="M23.33,42.23l-0.51-1.51h0.22l0.24,0.74c0.07,0.2,0.12,0.39,0.17,0.57h0c0.04-0.17,0.11-0.37,0.18-0.56
			l0.26-0.75h0.21l-0.56,1.51H23.33z"/>
		<path class="st114" d="M24.12,41.72c0,0.27,0.18,0.38,0.38,0.38c0.14,0,0.23-0.02,0.31-0.06l0.03,0.14
			c-0.07,0.03-0.19,0.07-0.37,0.07c-0.34,0-0.55-0.22-0.55-0.55c0-0.33,0.2-0.59,0.52-0.59c0.36,0,0.46,0.31,0.46,0.51
			c0,0.04,0,0.07-0.01,0.09H24.12z M24.71,41.58c0-0.12-0.05-0.32-0.28-0.32c-0.21,0-0.29,0.18-0.31,0.32H24.71z"/>
		<path class="st114" d="M25.21,40.83v0.31h0.29v0.15h-0.29v0.59c0,0.13,0.04,0.21,0.15,0.21c0.05,0,0.09-0.01,0.12-0.01l0.01,0.15
			c-0.04,0.02-0.1,0.03-0.18,0.03c-0.09,0-0.17-0.03-0.22-0.08c-0.06-0.06-0.08-0.16-0.08-0.28V41.3h-0.17v-0.15h0.17v-0.26
			L25.21,40.83z"/>
		<path class="st114" d="M25.64,41.72c0,0.27,0.18,0.38,0.38,0.38c0.14,0,0.23-0.02,0.31-0.06l0.03,0.14
			c-0.07,0.03-0.19,0.07-0.37,0.07c-0.34,0-0.55-0.22-0.55-0.55c0-0.33,0.2-0.59,0.52-0.59c0.36,0,0.46,0.31,0.46,0.51
			c0,0.04,0,0.07-0.01,0.09H25.64z M26.24,41.58c0-0.12-0.05-0.32-0.28-0.32c-0.21,0-0.29,0.18-0.31,0.32H26.24z"/>
		<path class="st114" d="M26.5,41.48c0-0.13,0-0.24-0.01-0.34h0.18l0.01,0.21h0.01c0.05-0.15,0.17-0.24,0.31-0.24
			c0.02,0,0.04,0,0.06,0.01v0.19c-0.02,0-0.04-0.01-0.07-0.01c-0.14,0-0.24,0.11-0.27,0.25c0,0.03-0.01,0.06-0.01,0.09v0.58h-0.2
			V41.48z"/>
		<path class="st114" d="M27.3,40.84c0,0.07-0.05,0.12-0.13,0.12c-0.07,0-0.12-0.05-0.12-0.12c0-0.07,0.05-0.12,0.13-0.12
			C27.25,40.72,27.3,40.77,27.3,40.84z M27.07,42.23v-1.09h0.2v1.09H27.07z"/>
		<path class="st114" d="M27.42,41.44c0-0.11,0-0.2-0.01-0.29h0.18l0.01,0.18h0c0.06-0.1,0.18-0.2,0.37-0.2
			c0.15,0,0.39,0.09,0.39,0.46v0.65h-0.2v-0.63c0-0.17-0.07-0.32-0.26-0.32c-0.13,0-0.24,0.09-0.27,0.2
			c-0.01,0.03-0.01,0.06-0.01,0.09v0.65h-0.2V41.44z"/>
		<path class="st114" d="M29.13,42.23l-0.02-0.14h-0.01c-0.06,0.08-0.18,0.16-0.34,0.16c-0.23,0-0.34-0.15-0.34-0.31
			c0-0.26,0.24-0.41,0.67-0.4v-0.02c0-0.09-0.03-0.25-0.25-0.25c-0.1,0-0.21,0.03-0.29,0.08l-0.05-0.13c0.09-0.06,0.23-0.1,0.37-0.1
			c0.34,0,0.42,0.23,0.42,0.44v0.41c0,0.09,0,0.19,0.02,0.26H29.13z M29.1,41.68c-0.22,0-0.47,0.03-0.47,0.24
			c0,0.13,0.09,0.19,0.19,0.19c0.15,0,0.24-0.09,0.27-0.18c0.01-0.02,0.01-0.04,0.01-0.06V41.68z"/>
		<path class="st114" d="M29.44,41.48c0-0.13,0-0.24-0.01-0.34h0.18l0.01,0.21h0.01c0.05-0.15,0.17-0.24,0.31-0.24
			c0.02,0,0.04,0,0.06,0.01v0.19c-0.02,0-0.04-0.01-0.07-0.01c-0.14,0-0.24,0.11-0.27,0.25c0,0.03-0.01,0.06-0.01,0.09v0.58h-0.2
			V41.48z"/>
		<path class="st114" d="M30.14,41.15l0.24,0.64c0.03,0.07,0.05,0.16,0.07,0.22h0c0.02-0.07,0.04-0.15,0.07-0.23l0.22-0.64h0.21
			l-0.3,0.77c-0.14,0.37-0.24,0.56-0.38,0.68c-0.1,0.08-0.2,0.12-0.25,0.13l-0.05-0.17c0.05-0.02,0.12-0.05,0.18-0.1
			c0.05-0.04,0.12-0.12,0.17-0.22c0.01-0.02,0.02-0.04,0.02-0.05c0-0.01,0-0.03-0.01-0.05l-0.41-1H30.14z"/>
		<path class="st114" d="M31.24,41.99c0.09,0.05,0.22,0.1,0.36,0.1c0.21,0,0.33-0.11,0.33-0.26c0-0.14-0.08-0.22-0.29-0.3
			c-0.25-0.09-0.41-0.22-0.41-0.43c0-0.24,0.2-0.41,0.5-0.41c0.16,0,0.27,0.04,0.34,0.07l-0.06,0.16c-0.05-0.03-0.15-0.07-0.29-0.07
			c-0.21,0-0.29,0.12-0.29,0.23c0,0.14,0.09,0.21,0.31,0.29c0.26,0.1,0.4,0.22,0.4,0.44c0,0.23-0.18,0.44-0.54,0.44
			c-0.15,0-0.31-0.04-0.4-0.1L31.24,41.99z"/>
		<path class="st114" d="M33.14,41.94c0,0.11,0,0.21,0.01,0.3h-0.18l-0.01-0.18h0c-0.05,0.09-0.17,0.2-0.37,0.2
			c-0.17,0-0.38-0.09-0.38-0.48v-0.63h0.2v0.6c0,0.21,0.06,0.35,0.25,0.35c0.14,0,0.23-0.09,0.27-0.18c0.01-0.03,0.02-0.07,0.02-0.1
			v-0.67h0.2V41.94z"/>
		<path class="st114" d="M33.29,41.5c0-0.14,0-0.25-0.01-0.35h0.18l0.01,0.19h0c0.08-0.13,0.21-0.21,0.4-0.21
			c0.27,0,0.47,0.22,0.47,0.55c0,0.39-0.24,0.58-0.51,0.58c-0.15,0-0.28-0.06-0.34-0.17h0v0.59h-0.2V41.5z M33.49,41.79
			c0,0.03,0,0.06,0.01,0.08c0.04,0.14,0.16,0.23,0.3,0.23c0.21,0,0.34-0.17,0.34-0.42c0-0.22-0.12-0.4-0.33-0.4
			c-0.14,0-0.27,0.1-0.31,0.24c-0.01,0.02-0.01,0.05-0.01,0.08V41.79z"/>
		<path class="st114" d="M34.41,41.5c0-0.14,0-0.25-0.01-0.35h0.18l0.01,0.19h0c0.08-0.13,0.21-0.21,0.4-0.21
			c0.27,0,0.47,0.22,0.47,0.55c0,0.39-0.24,0.58-0.51,0.58c-0.15,0-0.28-0.06-0.34-0.17h0v0.59h-0.2V41.5z M34.61,41.79
			c0,0.03,0,0.06,0.01,0.08c0.04,0.14,0.16,0.23,0.3,0.23c0.21,0,0.34-0.17,0.34-0.42c0-0.22-0.12-0.4-0.33-0.4
			c-0.14,0-0.27,0.1-0.31,0.24c-0.01,0.02-0.01,0.05-0.01,0.08V41.79z"/>
		<path class="st114" d="M35.54,40.64h0.2v1.59h-0.2V40.64z"/>
		<path class="st114" d="M36.12,40.84c0,0.07-0.05,0.12-0.13,0.12c-0.07,0-0.12-0.05-0.12-0.12c0-0.07,0.05-0.12,0.13-0.12
			C36.07,40.72,36.12,40.77,36.12,40.84z M35.89,42.23v-1.09h0.2v1.09H35.89z"/>
		<path class="st114" d="M36.36,41.72c0,0.27,0.18,0.38,0.38,0.38c0.15,0,0.23-0.02,0.31-0.06l0.03,0.14
			c-0.07,0.03-0.19,0.07-0.37,0.07c-0.34,0-0.55-0.22-0.55-0.55c0-0.33,0.2-0.59,0.52-0.59c0.36,0,0.46,0.31,0.46,0.51
			c0,0.04,0,0.07-0.01,0.09H36.36z M36.95,41.58c0-0.12-0.05-0.32-0.28-0.32c-0.21,0-0.29,0.18-0.31,0.32H36.95z"/>
		<path class="st114" d="M37.18,42.03c0.06,0.04,0.17,0.08,0.27,0.08c0.15,0,0.22-0.07,0.22-0.16c0-0.09-0.06-0.15-0.21-0.2
			c-0.2-0.07-0.29-0.18-0.29-0.31c0-0.17,0.15-0.32,0.38-0.32c0.11,0,0.21,0.03,0.27,0.07l-0.05,0.14
			c-0.04-0.03-0.12-0.06-0.23-0.06c-0.12,0-0.19,0.07-0.19,0.15c0,0.09,0.07,0.13,0.21,0.18c0.19,0.07,0.29,0.17,0.29,0.33
			c0,0.19-0.15,0.33-0.42,0.33c-0.12,0-0.24-0.03-0.31-0.07L37.18,42.03z"/>
	</g>
</g>
</svg>
