<?xml version="1.0" encoding="utf-8"?>
<!-- Generator: Adobe Illustrator 25.0.1, SVG Export Plug-In . SVG Version: 6.00 Build 0)  -->
<svg version="1.0" id="Layer_1" xmlns="http://www.w3.org/2000/svg" xmlns:xlink="http://www.w3.org/1999/xlink" x="0px" y="0px"
	 viewBox="0 0 63.77 18.45" style="enable-background:new 0 0 63.77 18.45;" xml:space="preserve">
<style type="text/css">
	.st0{fill:#000104;}
	.st1{fill:#FFFFFF;}
	.st2{fill:#EF493E;}
	.st3{opacity:0.6;fill-rule:evenodd;clip-rule:evenodd;fill:#FBBE43;}
	.st4{opacity:0.6;fill-rule:evenodd;clip-rule:evenodd;fill:#EF930E;}
	.st5{opacity:0.6;fill-rule:evenodd;clip-rule:evenodd;fill:#E67906;}
	.st6{fill:#9F8829;}
	.st7{fill:#3972A6;}
	.st8{fill:url(#SVGID_1_);stroke:#2B53A4;stroke-width:0.5;stroke-miterlimit:10;}
	.st9{fill:none;}
	.st10{fill:url(#SVGID_2_);}
	.st11{fill:url(#SVGID_3_);}
	.st12{fill:#B3B3B3;}
	.st13{fill:url(#SVGID_4_);}
	.st14{fill:url(#SVGID_5_);}
	.st15{fill:url(#SVGID_6_);}
	.st16{fill:#FFFFFF;stroke:#FFFFFF;stroke-width:0.25;stroke-miterlimit:10;}
	.st17{fill:#00001D;}
	.st18{fill:#4DA0C5;}
	.st19{fill:url(#SVGID_7_);}
	.st20{fill:#2E6A85;}
	.st21{fill:none;stroke:#144FA1;stroke-width:0.113;stroke-linejoin:round;stroke-miterlimit:10;}
	.st22{fill:#F27337;}
	.st23{fill:#8EB8D4;}
	.st24{fill:#F38056;}
	.st25{fill:#626365;}
	.st26{fill:#EF6D23;}
	.st27{fill:#284B82;}
	.st28{fill:#242956;}
	.st29{fill:#15142A;}
	.st30{fill:#84C343;}
	.st31{fill:#4CA1C6;}
	.st32{fill:#121617;}
	.st33{fill:#CF8966;}
	.st34{fill:#F37639;}
	.st35{opacity:0.3;fill:url(#SVGID_8_);}
	.st36{fill:#373277;}
	.st37{fill:#E61E25;}
	.st38{fill:#2555A5;}
	.st39{fill:#2E225E;}
	.st40{fill:#F8A425;}
	.st41{fill:#2058A7;}
	.st42{fill:none;stroke:#205AA8;stroke-width:0.156;stroke-miterlimit:10;}
	.st43{fill:#49A3C7;}
	.st44{fill-rule:evenodd;clip-rule:evenodd;}
	.st45{fill-rule:evenodd;clip-rule:evenodd;fill:url(#SVGID_9_);}
	.st46{fill-rule:evenodd;clip-rule:evenodd;fill:url(#SVGID_10_);}
	.st47{fill-rule:evenodd;clip-rule:evenodd;fill:url(#SVGID_11_);}
	.st48{fill:#1D2251;}
	.st49{fill:#2260AC;}
	.st50{fill:url(#SVGID_12_);}
	.st51{fill:#FFFFFC;}
	.st52{fill:#4C9FC5;}
	.st53{fill:#28306D;}
	.st54{fill:#4C9EC5;}
	.st55{fill:#28306E;}
	.st56{fill:#29306F;}
	.st57{fill:#F7F7FB;}
	.st58{fill:url(#SVGID_13_);}
	.st59{fill:url(#SVGID_14_);}
	.st60{fill:url(#SVGID_15_);}
	.st61{fill:url(#SVGID_16_);}
	.st62{fill:#10123C;}
	.st63{fill:#F5842C;}
	.st64{fill:#1F305E;}
	.st65{fill:#87BBD1;}
	.st66{fill:#203160;}
	.st67{fill:#235779;}
	.st68{fill:#359FA1;}
	.st69{fill:#A4D1A4;}
	.st70{fill:#B9DBBC;}
	.st71{fill:#C6DDCA;}
	.st72{fill:#662E14;}
	.st73{fill:#1D79A4;}
	.st74{fill:#C14B28;}
	.st75{fill:url(#SVGID_17_);}
	.st76{fill:url(#SVGID_18_);}
	.st77{fill:url(#SVGID_19_);}
	.st78{fill:url(#SVGID_20_);}
	.st79{fill:url(#SVGID_21_);}
	.st80{fill:url(#SVGID_22_);}
	.st81{fill:url(#SVGID_23_);}
	.st82{fill:url(#SVGID_24_);}
	.st83{fill:url(#SVGID_25_);}
	.st84{fill:url(#SVGID_26_);}
	.st85{fill:url(#SVGID_27_);}
	.st86{fill:url(#SVGID_28_);}
	.st87{fill:url(#SVGID_29_);}
	.st88{fill:url(#SVGID_30_);}
	.st89{fill:#1F164B;}
	.st90{clip-path:url(#SVGID_32_);fill:#253D97;}
	.st91{fill:url(#SVGID_33_);}
	.st92{fill:url(#SVGID_34_);}
	.st93{fill:url(#SVGID_35_);}
	.st94{fill:url(#SVGID_36_);}
	.st95{fill:url(#SVGID_37_);}
	.st96{fill:url(#SVGID_38_);}
	.st97{fill:url(#SVGID_39_);}
	.st98{fill:url(#SVGID_40_);}
	.st99{fill:url(#SVGID_41_);}
	.st100{fill:#443F41;}
	.st101{fill:#28306F;}
	.st102{fill:#71C49D;}
	.st103{fill:#F0C6A7;}
	.st104{fill:#DB8D82;}
	.st105{fill:#EFB7AC;}
	.st106{opacity:0.21;}
	.st107{fill-rule:evenodd;clip-rule:evenodd;fill:#A9196E;}
	.st108{fill-rule:evenodd;clip-rule:evenodd;fill:#FBE42C;}
	.st109{fill:#FBE42C;}
	.st110{fill:#A9196E;}
	.st111{fill:#7FC143;}
	.st112{clip-path:url(#SVGID_45_);fill:#7FC143;}
	.st113{clip-path:url(#SVGID_51_);fill:#7FC143;}
	.st114{fill:#243F8F;}
	.st115{fill:#EF4E2F;}
	.st116{fill:#010007;}
	.st117{fill:#0C0D37;}
	.st118{fill:#FBAF2D;}
	.st119{fill:url(#SVGID_54_);}
	.st120{fill-rule:evenodd;clip-rule:evenodd;fill:#FFFFFF;}
	.st121{fill:#1D4690;}
	.st122{fill:#3AA949;}
	.st123{fill:#F37A24;}
	.st124{fill:none;stroke:#F37A24;stroke-width:3.7145;stroke-miterlimit:10;}
	.st125{fill:#3AA949;stroke:#FFFFFF;stroke-width:1.3104;stroke-miterlimit:10;}
	.st126{fill:#46A2BB;}
	.st127{fill:#7153A0;}
	.st128{fill:#27316C;}
	.st129{fill:#2C65AE;}
	.st130{fill:#452D7A;}
	.st131{fill:#442C7A;}
	.st132{fill:#1A2642;}
	.st133{fill-rule:evenodd;clip-rule:evenodd;fill:#567EB8;}
	.st134{fill-rule:evenodd;clip-rule:evenodd;fill:#6A7EB8;}
	.st135{fill-rule:evenodd;clip-rule:evenodd;fill:#6A7EB9;}
	.st136{fill-rule:evenodd;clip-rule:evenodd;fill:#EE3C2D;}
	.st137{fill-rule:evenodd;clip-rule:evenodd;fill:#EF493F;}
	.st138{fill-rule:evenodd;clip-rule:evenodd;fill:#ED2C24;}
	.st139{fill-rule:evenodd;clip-rule:evenodd;fill:#E9AE28;}
	.st140{fill-rule:evenodd;clip-rule:evenodd;fill:#D69B28;}
	.st141{fill-rule:evenodd;clip-rule:evenodd;fill:#FCB729;}
	.st142{fill-rule:evenodd;clip-rule:evenodd;fill:#409E47;}
	.st143{fill-rule:evenodd;clip-rule:evenodd;fill:#4BB450;}
	.st144{fill-rule:evenodd;clip-rule:evenodd;fill:#338440;}
	.st145{fill:#C09C36;}
	.st146{fill:#1E552A;}
	.st147{clip-path:url(#SVGID_56_);fill:url(#SVGID_57_);}
	.st148{fill:#023A1E;}
	.st149{fill:#FFFFFA;}
	.st150{fill:#0D4F28;}
	.st151{fill:#0E5128;}
	.st152{fill:#0D4E27;}
	.st153{fill:#0E5229;}
	.st154{fill:#0E4823;}
	.st155{fill:#0E4C27;}
	.st156{fill:#F3F6E0;}
	.st157{fill:#0E4F28;}
	.st158{fill:#114823;}
	.st159{fill:#105229;}
	.st160{fill:#0A4A2B;}
	.st161{fill:#134F27;}
	.st162{fill:#165229;}
	.st163{fill:#0D5029;}
	.st164{fill:#0B4E2B;}
	.st165{fill:#105028;}
	.st166{fill:#0A492A;}
	.st167{fill:#E9F3E2;}
	.st168{fill:#144D26;}
	.st169{fill:#185C2F;}
	.st170{fill:#0F5028;}
	.st171{fill:#F3F8EA;}
	.st172{fill:#114D26;}
	.st173{fill:#70A685;}
	.st174{fill:#0D4F2A;}
	.st175{fill:#094A24;}
	.st176{fill:#0F4F27;}
	.st177{fill:#0A4C26;}
	.st178{fill:#A2D29A;}
	.st179{fill:#4D7E44;}
	.st180{fill:#E8F2E1;}
	.st181{fill:#EDF5E5;}
	.st182{fill:#E6F2E7;}
	.st183{fill:#E5F1DC;}
	.st184{fill:#E9F3E3;}
	.st185{fill:#E9F3E5;}
	.st186{fill:#E5F1DB;}
	.st187{fill:#D8ECD7;}
	.st188{fill:#D9EBD4;}
	.st189{fill:#E2F0DE;}
	.st190{fill:#366B4B;}
	.st191{fill:#5D6162;}
	.st192{fill:#212E5F;}
	.st193{fill:#DD1F26;}
	.st194{clip-path:url(#SVGID_59_);}
	.st195{fill:#23396F;}
	.st196{fill:#7FC24E;}
	.st197{clip-path:url(#SVGID_59_);fill:#23396F;}
	.st198{clip-path:url(#SVGID_59_);fill:#7FC24E;}
	.st199{fill:#91CEA4;}
	.st200{fill:#90CEA4;}
	.st201{fill:#C02026;}
	.st202{fill:#362E7E;}
</style>
<g>
	<g>
		<path class="st37" d="M4.43,18.41v-2.53H5.5c0.12,0,0.22,0.02,0.32,0.07c0.1,0.05,0.18,0.11,0.25,0.19
			c0.07,0.08,0.13,0.17,0.17,0.27c0.04,0.1,0.06,0.2,0.06,0.31c0,0.14-0.03,0.28-0.1,0.4c-0.06,0.13-0.16,0.23-0.27,0.32
			c-0.12,0.08-0.25,0.12-0.41,0.12h-0.6v0.85H4.43z M4.92,17.13h0.57c0.06,0,0.12-0.02,0.16-0.05C5.7,17.05,5.74,17,5.77,16.94
			c0.03-0.06,0.04-0.13,0.04-0.22c0-0.09-0.02-0.16-0.05-0.22c-0.03-0.06-0.07-0.11-0.12-0.14c-0.05-0.03-0.11-0.05-0.17-0.05H4.92
			V17.13z"/>
		<path class="st37" d="M8.78,18.41H8.3v-1.03c0-0.14-0.03-0.25-0.08-0.32c-0.06-0.07-0.13-0.11-0.23-0.11
			c-0.06,0-0.12,0.02-0.18,0.05c-0.06,0.03-0.12,0.08-0.17,0.13c-0.05,0.06-0.09,0.12-0.12,0.2v1.08H7.04v-2.6h0.47v1.1
			c0.07-0.12,0.17-0.21,0.29-0.27c0.12-0.07,0.25-0.1,0.39-0.1c0.12,0,0.22,0.02,0.3,0.06c0.08,0.04,0.14,0.1,0.18,0.17
			c0.04,0.07,0.07,0.15,0.09,0.23c0.02,0.09,0.02,0.17,0.02,0.26V18.41z"/>
		<path class="st37" d="M9.51,17.87c0-0.12,0.03-0.22,0.1-0.31c0.07-0.09,0.16-0.16,0.28-0.21c0.12-0.05,0.26-0.08,0.42-0.08
			c0.08,0,0.16,0.01,0.24,0.02c0.08,0.01,0.15,0.03,0.21,0.06v-0.1c0-0.11-0.03-0.2-0.1-0.27c-0.07-0.06-0.17-0.09-0.31-0.09
			c-0.1,0-0.2,0.02-0.3,0.05c-0.09,0.04-0.19,0.09-0.29,0.15l-0.15-0.31c0.12-0.08,0.25-0.14,0.38-0.18
			c0.13-0.04,0.27-0.06,0.41-0.06c0.27,0,0.47,0.07,0.62,0.19c0.15,0.13,0.22,0.32,0.22,0.56v0.59c0,0.05,0.01,0.08,0.03,0.11
			c0.02,0.02,0.05,0.03,0.09,0.04v0.39c-0.04,0.01-0.08,0.01-0.12,0.02c-0.03,0-0.06,0.01-0.09,0c-0.1,0-0.17-0.02-0.22-0.06
			c-0.05-0.04-0.08-0.09-0.09-0.16l-0.01-0.1c-0.08,0.1-0.19,0.19-0.31,0.24c-0.12,0.06-0.24,0.09-0.37,0.09
			c-0.12,0-0.23-0.03-0.33-0.08s-0.18-0.12-0.23-0.21C9.54,18.07,9.51,17.98,9.51,17.87z M10.67,17.96
			c0.03-0.02,0.05-0.05,0.06-0.08c0.02-0.03,0.02-0.06,0.02-0.08v-0.18c-0.06-0.02-0.12-0.04-0.19-0.05
			c-0.07-0.01-0.13-0.02-0.19-0.02c-0.12,0-0.23,0.03-0.3,0.08c-0.08,0.05-0.12,0.12-0.12,0.21c0,0.05,0.01,0.09,0.04,0.13
			c0.03,0.04,0.06,0.08,0.11,0.1c0.05,0.03,0.11,0.04,0.18,0.04c0.07,0,0.14-0.01,0.21-0.04C10.57,18.03,10.63,18,10.67,17.96z"/>
		<path class="st37" d="M13.24,16.96c-0.15,0-0.28,0.03-0.39,0.08c-0.11,0.05-0.2,0.13-0.25,0.24v1.13h-0.47v-1.85h0.44v0.38
			c0.07-0.13,0.15-0.23,0.25-0.3c0.1-0.07,0.21-0.11,0.33-0.12c0.02,0,0.04,0,0.06,0c0.01,0,0.03,0,0.04,0.01V16.96z"/>
		<path class="st37" d="M16.85,18.41h-0.48v-1.03c0-0.15-0.03-0.26-0.08-0.32c-0.05-0.07-0.12-0.1-0.21-0.1
			c-0.1,0-0.18,0.04-0.27,0.11c-0.08,0.07-0.14,0.16-0.18,0.28v1.07h-0.48v-1.03c0-0.15-0.02-0.26-0.07-0.32
			c-0.05-0.07-0.12-0.1-0.21-0.1c-0.09,0-0.18,0.03-0.27,0.1c-0.09,0.07-0.15,0.16-0.18,0.27v1.08h-0.47v-1.85h0.43v0.34
			c0.07-0.12,0.17-0.21,0.29-0.28c0.12-0.06,0.26-0.1,0.41-0.1c0.15,0,0.28,0.04,0.36,0.11c0.09,0.08,0.14,0.17,0.17,0.28
			c0.08-0.13,0.17-0.22,0.29-0.29c0.12-0.07,0.25-0.1,0.4-0.1c0.11,0,0.21,0.02,0.28,0.06s0.13,0.1,0.17,0.17
			c0.04,0.07,0.07,0.15,0.08,0.23c0.02,0.09,0.02,0.17,0.02,0.26V18.41z"/>
		<path class="st37" d="M17.58,17.87c0-0.12,0.03-0.22,0.1-0.31c0.07-0.09,0.16-0.16,0.28-0.21c0.12-0.05,0.26-0.08,0.42-0.08
			c0.08,0,0.16,0.01,0.24,0.02c0.08,0.01,0.15,0.03,0.21,0.06v-0.1c0-0.11-0.03-0.2-0.1-0.27c-0.07-0.06-0.17-0.09-0.31-0.09
			c-0.1,0-0.2,0.02-0.3,0.05c-0.09,0.04-0.19,0.09-0.29,0.15l-0.15-0.31c0.12-0.08,0.25-0.14,0.38-0.18
			c0.13-0.04,0.27-0.06,0.41-0.06c0.27,0,0.47,0.07,0.62,0.19c0.15,0.13,0.22,0.32,0.22,0.56v0.59c0,0.05,0.01,0.08,0.03,0.11
			c0.02,0.02,0.05,0.03,0.09,0.04v0.39c-0.04,0.01-0.08,0.01-0.12,0.02c-0.03,0-0.06,0.01-0.09,0c-0.1,0-0.17-0.02-0.22-0.06
			c-0.05-0.04-0.08-0.09-0.09-0.16l-0.01-0.1c-0.08,0.1-0.19,0.19-0.31,0.24c-0.12,0.06-0.24,0.09-0.37,0.09
			c-0.12,0-0.23-0.03-0.33-0.08s-0.18-0.12-0.23-0.21C17.61,18.07,17.58,17.98,17.58,17.87z M18.74,17.96
			c0.03-0.02,0.05-0.05,0.06-0.08c0.02-0.03,0.02-0.06,0.02-0.08v-0.18c-0.06-0.02-0.12-0.04-0.19-0.05
			c-0.07-0.01-0.13-0.02-0.19-0.02c-0.12,0-0.23,0.03-0.3,0.08s-0.12,0.12-0.12,0.21c0,0.05,0.01,0.09,0.04,0.13
			c0.03,0.04,0.06,0.08,0.11,0.1c0.05,0.03,0.11,0.04,0.18,0.04s0.14-0.01,0.21-0.04C18.64,18.03,18.7,18,18.74,17.96z"/>
		<path class="st37" d="M21.06,18.45c-0.15,0-0.29-0.03-0.41-0.08c-0.12-0.05-0.22-0.12-0.31-0.21c-0.09-0.09-0.15-0.19-0.2-0.31
			c-0.05-0.12-0.07-0.24-0.07-0.36c0-0.17,0.04-0.33,0.12-0.48c0.08-0.15,0.19-0.26,0.34-0.35c0.15-0.09,0.32-0.13,0.52-0.13
			c0.2,0,0.38,0.04,0.52,0.13c0.14,0.09,0.25,0.2,0.32,0.35l-0.46,0.14c-0.04-0.07-0.09-0.12-0.16-0.16
			c-0.07-0.04-0.14-0.06-0.22-0.06c-0.09,0-0.17,0.02-0.24,0.07c-0.07,0.05-0.13,0.11-0.18,0.19c-0.04,0.08-0.07,0.18-0.07,0.29
			c0,0.11,0.02,0.2,0.07,0.29c0.04,0.08,0.1,0.15,0.18,0.2c0.07,0.05,0.16,0.07,0.25,0.07c0.06,0,0.11-0.01,0.16-0.03
			c0.05-0.02,0.1-0.05,0.14-0.08c0.04-0.03,0.07-0.07,0.09-0.11l0.46,0.14c-0.04,0.09-0.11,0.18-0.19,0.25
			c-0.08,0.07-0.18,0.13-0.29,0.17S21.2,18.45,21.06,18.45z"/>
		<path class="st37" d="M23.5,18.45c-0.15,0-0.29-0.03-0.41-0.08c-0.12-0.05-0.22-0.12-0.31-0.21c-0.09-0.09-0.15-0.19-0.2-0.3
			c-0.05-0.11-0.07-0.23-0.07-0.36c0-0.17,0.04-0.33,0.12-0.48c0.08-0.15,0.19-0.26,0.34-0.35c0.15-0.09,0.32-0.13,0.53-0.13
			c0.2,0,0.38,0.04,0.52,0.13c0.14,0.09,0.26,0.2,0.34,0.35c0.08,0.14,0.12,0.3,0.12,0.47c0,0.03,0,0.06,0,0.09
			c0,0.03,0,0.05-0.01,0.07h-1.44c0.01,0.1,0.03,0.18,0.08,0.25c0.05,0.07,0.11,0.12,0.18,0.16c0.07,0.04,0.15,0.06,0.23,0.06
			c0.1,0,0.19-0.02,0.27-0.07s0.14-0.11,0.17-0.19l0.41,0.11c-0.04,0.09-0.11,0.18-0.19,0.25c-0.08,0.07-0.18,0.13-0.3,0.17
			C23.76,18.43,23.64,18.45,23.5,18.45z M23.01,17.34h0.98c-0.01-0.09-0.04-0.17-0.08-0.24c-0.04-0.07-0.1-0.12-0.17-0.16
			c-0.07-0.04-0.15-0.06-0.24-0.06c-0.09,0-0.16,0.02-0.23,0.06c-0.07,0.04-0.13,0.09-0.17,0.16
			C23.04,17.17,23.02,17.25,23.01,17.34z"/>
		<path class="st37" d="M25.18,17.72v-1.16h0.48v1.05c0,0.14,0.03,0.25,0.08,0.32c0.05,0.07,0.13,0.11,0.23,0.11
			c0.06,0,0.12-0.01,0.18-0.04c0.06-0.02,0.12-0.06,0.17-0.11c0.05-0.05,0.09-0.11,0.13-0.18v-1.15h0.48v1.32
			c0,0.05,0.01,0.08,0.02,0.11c0.02,0.02,0.05,0.03,0.09,0.04v0.39c-0.05,0.01-0.09,0.01-0.12,0.02c-0.03,0-0.06,0.01-0.09,0.01
			c-0.08,0-0.15-0.02-0.2-0.06c-0.05-0.04-0.09-0.09-0.1-0.16l-0.01-0.15c-0.08,0.12-0.19,0.22-0.32,0.28
			c-0.13,0.06-0.27,0.1-0.43,0.1c-0.19,0-0.34-0.06-0.44-0.19C25.24,18.14,25.18,17.96,25.18,17.72z"/>
		<path class="st37" d="M28.96,18.32c-0.04,0.02-0.09,0.04-0.15,0.06c-0.06,0.02-0.12,0.04-0.18,0.05c-0.07,0.01-0.13,0.02-0.2,0.02
			c-0.09,0-0.17-0.02-0.25-0.05c-0.07-0.03-0.13-0.08-0.18-0.15c-0.04-0.07-0.07-0.15-0.07-0.26v-1.07H27.7v-0.36h0.24v-0.61h0.48
			v0.61h0.39v0.36h-0.39v0.9c0,0.06,0.02,0.11,0.05,0.14c0.03,0.03,0.08,0.04,0.13,0.04c0.05,0,0.1-0.01,0.14-0.03
			c0.05-0.02,0.09-0.03,0.12-0.05L28.96,18.32z"/>
		<path class="st37" d="M29.65,16.28v-0.47h0.47v0.47H29.65z M29.65,18.41v-1.87h0.47v1.87H29.65z"/>
		<path class="st37" d="M31.87,18.45c-0.15,0-0.29-0.03-0.41-0.08c-0.12-0.05-0.22-0.12-0.31-0.21c-0.09-0.09-0.15-0.19-0.2-0.31
			c-0.05-0.12-0.07-0.24-0.07-0.36c0-0.17,0.04-0.33,0.12-0.48c0.08-0.15,0.19-0.26,0.34-0.35c0.15-0.09,0.32-0.13,0.52-0.13
			c0.2,0,0.38,0.04,0.52,0.13c0.14,0.09,0.25,0.2,0.32,0.35l-0.46,0.14c-0.04-0.07-0.09-0.12-0.16-0.16
			c-0.07-0.04-0.14-0.06-0.22-0.06c-0.09,0-0.17,0.02-0.24,0.07c-0.07,0.05-0.13,0.11-0.18,0.19c-0.04,0.08-0.07,0.18-0.07,0.29
			c0,0.11,0.02,0.2,0.07,0.29c0.04,0.08,0.1,0.15,0.18,0.2c0.07,0.05,0.16,0.07,0.25,0.07c0.06,0,0.11-0.01,0.16-0.03
			c0.05-0.02,0.1-0.05,0.14-0.08c0.04-0.03,0.07-0.07,0.09-0.11l0.46,0.14c-0.04,0.09-0.11,0.18-0.19,0.25
			c-0.08,0.07-0.18,0.13-0.29,0.17C32.14,18.43,32.01,18.45,31.87,18.45z"/>
		<path class="st37" d="M33.33,17.87c0-0.12,0.03-0.22,0.1-0.31c0.07-0.09,0.16-0.16,0.28-0.21c0.12-0.05,0.26-0.08,0.42-0.08
			c0.08,0,0.16,0.01,0.24,0.02c0.08,0.01,0.15,0.03,0.21,0.06v-0.1c0-0.11-0.03-0.2-0.1-0.27c-0.07-0.06-0.17-0.09-0.31-0.09
			c-0.1,0-0.2,0.02-0.3,0.05c-0.09,0.04-0.19,0.09-0.29,0.15l-0.15-0.31c0.12-0.08,0.25-0.14,0.38-0.18
			c0.13-0.04,0.27-0.06,0.41-0.06c0.27,0,0.47,0.07,0.62,0.19c0.15,0.13,0.22,0.32,0.22,0.56v0.59c0,0.05,0.01,0.08,0.03,0.11
			c0.02,0.02,0.05,0.03,0.09,0.04v0.39c-0.04,0.01-0.08,0.01-0.12,0.02c-0.03,0-0.06,0.01-0.09,0c-0.1,0-0.17-0.02-0.22-0.06
			c-0.05-0.04-0.08-0.09-0.09-0.16l-0.01-0.1c-0.08,0.1-0.19,0.19-0.31,0.24c-0.12,0.06-0.24,0.09-0.37,0.09
			c-0.12,0-0.23-0.03-0.33-0.08s-0.18-0.12-0.23-0.21C33.36,18.07,33.33,17.98,33.33,17.87z M34.49,17.96
			c0.03-0.02,0.05-0.05,0.06-0.08c0.02-0.03,0.02-0.06,0.02-0.08v-0.18c-0.06-0.02-0.12-0.04-0.19-0.05
			c-0.07-0.01-0.13-0.02-0.19-0.02c-0.12,0-0.23,0.03-0.3,0.08s-0.12,0.12-0.12,0.21c0,0.05,0.01,0.09,0.04,0.13
			c0.03,0.04,0.06,0.08,0.11,0.1c0.05,0.03,0.11,0.04,0.18,0.04s0.14-0.01,0.21-0.04C34.39,18.03,34.45,18,34.49,17.96z"/>
		<path class="st37" d="M35.94,15.81h0.48v2.01c0,0.09,0.01,0.15,0.04,0.18c0.03,0.03,0.07,0.04,0.11,0.04c0.04,0,0.08,0,0.12-0.01
			c0.04-0.01,0.07-0.02,0.11-0.04l0.06,0.37c-0.06,0.03-0.14,0.05-0.22,0.07c-0.08,0.02-0.16,0.02-0.23,0.02
			c-0.15,0-0.27-0.04-0.35-0.12c-0.08-0.08-0.12-0.19-0.12-0.34V15.81z"/>
		<path class="st37" d="M38.76,18.41v-2.53h0.49v2.53H38.76z"/>
		<path class="st37" d="M41.92,18.41h-0.48v-1.03c0-0.15-0.03-0.26-0.08-0.32c-0.05-0.07-0.12-0.1-0.22-0.1
			c-0.06,0-0.13,0.02-0.19,0.05c-0.07,0.03-0.12,0.08-0.17,0.13c-0.05,0.06-0.09,0.12-0.12,0.2v1.08h-0.47v-1.85h0.43v0.34
			c0.05-0.08,0.11-0.15,0.18-0.2c0.07-0.05,0.16-0.1,0.25-0.13c0.09-0.03,0.2-0.05,0.31-0.05c0.12,0,0.21,0.02,0.29,0.06
			c0.07,0.04,0.13,0.1,0.17,0.17c0.04,0.07,0.07,0.15,0.08,0.23c0.02,0.09,0.02,0.17,0.02,0.26V18.41z"/>
		<path class="st37" d="M42.66,17.49c0-0.18,0.04-0.34,0.11-0.48c0.07-0.15,0.17-0.26,0.3-0.35c0.13-0.08,0.27-0.13,0.43-0.13
			c0.14,0,0.26,0.03,0.37,0.1c0.11,0.07,0.2,0.15,0.26,0.26v-1.08h0.48v2.07c0,0.05,0.01,0.09,0.02,0.11s0.05,0.03,0.09,0.04v0.39
			c-0.09,0.02-0.15,0.02-0.2,0.02c-0.09,0-0.16-0.02-0.21-0.06c-0.06-0.04-0.09-0.1-0.09-0.17l-0.01-0.12
			c-0.07,0.12-0.16,0.21-0.28,0.27c-0.12,0.06-0.24,0.09-0.37,0.09c-0.13,0-0.25-0.02-0.35-0.07c-0.11-0.05-0.2-0.12-0.28-0.2
			c-0.08-0.09-0.14-0.19-0.19-0.31C42.68,17.75,42.66,17.62,42.66,17.49z M44.13,17.73V17.3c-0.02-0.07-0.06-0.13-0.11-0.18
			c-0.05-0.05-0.11-0.1-0.17-0.13c-0.06-0.03-0.13-0.05-0.19-0.05c-0.07,0-0.14,0.02-0.2,0.05c-0.06,0.03-0.11,0.07-0.16,0.12
			c-0.04,0.05-0.08,0.11-0.1,0.18c-0.02,0.07-0.03,0.14-0.03,0.21c0,0.08,0.01,0.15,0.04,0.21c0.03,0.07,0.06,0.12,0.11,0.17
			c0.05,0.05,0.1,0.09,0.16,0.12c0.06,0.03,0.13,0.04,0.21,0.04c0.05,0,0.09-0.01,0.14-0.02c0.05-0.02,0.09-0.04,0.13-0.06
			c0.04-0.03,0.08-0.06,0.11-0.1C44.09,17.82,44.11,17.78,44.13,17.73z"/>
		<path class="st37" d="M45.49,17.72v-1.16h0.48v1.05c0,0.14,0.03,0.25,0.08,0.32s0.13,0.11,0.23,0.11c0.06,0,0.12-0.01,0.18-0.04
			c0.06-0.02,0.12-0.06,0.17-0.11c0.05-0.05,0.09-0.11,0.13-0.18v-1.15h0.48v1.32c0,0.05,0.01,0.08,0.02,0.11
			c0.02,0.02,0.05,0.03,0.09,0.04v0.39c-0.05,0.01-0.09,0.01-0.12,0.02s-0.06,0.01-0.09,0.01c-0.08,0-0.15-0.02-0.2-0.06
			c-0.05-0.04-0.09-0.09-0.1-0.16l-0.01-0.15c-0.08,0.12-0.19,0.22-0.32,0.28c-0.13,0.06-0.27,0.1-0.43,0.1
			c-0.19,0-0.34-0.06-0.44-0.19C45.54,18.14,45.49,17.96,45.49,17.72z"/>
		<path class="st37" d="M48.85,18.45c-0.16,0-0.31-0.03-0.46-0.08c-0.15-0.05-0.27-0.13-0.37-0.23l0.17-0.31
			c0.11,0.09,0.22,0.16,0.32,0.2c0.11,0.04,0.21,0.06,0.31,0.06c0.09,0,0.17-0.02,0.22-0.05c0.06-0.03,0.08-0.08,0.08-0.14
			c0-0.05-0.02-0.08-0.05-0.11s-0.08-0.05-0.13-0.06c-0.06-0.02-0.13-0.04-0.21-0.06c-0.14-0.04-0.25-0.08-0.34-0.13
			c-0.09-0.04-0.16-0.1-0.21-0.16c-0.05-0.06-0.07-0.15-0.07-0.25c0-0.12,0.03-0.23,0.09-0.32c0.06-0.09,0.15-0.16,0.26-0.21
			c0.11-0.05,0.25-0.07,0.4-0.07c0.13,0,0.26,0.02,0.38,0.06c0.12,0.04,0.23,0.11,0.32,0.2l-0.2,0.31
			c-0.09-0.08-0.18-0.13-0.27-0.17c-0.09-0.03-0.17-0.05-0.26-0.05c-0.05,0-0.1,0.01-0.14,0.02c-0.04,0.01-0.08,0.03-0.11,0.06
			c-0.03,0.03-0.04,0.06-0.04,0.11c0,0.04,0.01,0.08,0.04,0.1c0.02,0.03,0.06,0.05,0.11,0.07c0.05,0.02,0.11,0.04,0.19,0.06
			c0.15,0.04,0.28,0.08,0.38,0.13c0.1,0.04,0.18,0.1,0.23,0.16c0.05,0.07,0.08,0.15,0.08,0.27c0,0.18-0.07,0.33-0.2,0.43
			C49.26,18.4,49.08,18.45,48.85,18.45z"/>
		<path class="st37" d="M51.47,18.32c-0.04,0.02-0.09,0.04-0.15,0.06c-0.06,0.02-0.12,0.04-0.18,0.05c-0.07,0.01-0.13,0.02-0.2,0.02
			c-0.09,0-0.17-0.02-0.25-0.05c-0.07-0.03-0.13-0.08-0.18-0.15c-0.04-0.07-0.07-0.15-0.07-0.26v-1.07h-0.24v-0.36h0.24v-0.61h0.48
			v0.61h0.39v0.36h-0.39v0.9c0,0.06,0.02,0.11,0.05,0.14c0.03,0.03,0.08,0.04,0.13,0.04c0.05,0,0.1-0.01,0.14-0.03
			s0.09-0.03,0.12-0.05L51.47,18.32z"/>
		<path class="st37" d="M53.28,16.96c-0.15,0-0.28,0.03-0.39,0.08c-0.11,0.05-0.2,0.13-0.25,0.24v1.13h-0.47v-1.85h0.44v0.38
			c0.07-0.13,0.15-0.23,0.25-0.3c0.1-0.07,0.21-0.11,0.33-0.12c0.02,0,0.04,0,0.06,0c0.01,0,0.03,0,0.04,0.01V16.96z"/>
		<path class="st37" d="M53.98,16.28v-0.47h0.47v0.47H53.98z M53.98,18.41v-1.87h0.47v1.87H53.98z"/>
		<path class="st37" d="M56.2,18.45c-0.15,0-0.29-0.03-0.41-0.08c-0.12-0.05-0.22-0.12-0.31-0.21c-0.09-0.09-0.15-0.19-0.2-0.3
			c-0.05-0.11-0.07-0.23-0.07-0.36c0-0.17,0.04-0.33,0.12-0.48c0.08-0.15,0.19-0.26,0.34-0.35c0.15-0.09,0.32-0.13,0.53-0.13
			c0.2,0,0.38,0.04,0.52,0.13c0.14,0.09,0.26,0.2,0.33,0.35c0.08,0.14,0.12,0.3,0.12,0.47c0,0.03,0,0.06,0,0.09
			c0,0.03,0,0.05-0.01,0.07h-1.44c0.01,0.1,0.03,0.18,0.08,0.25c0.05,0.07,0.11,0.12,0.18,0.16c0.07,0.04,0.15,0.06,0.23,0.06
			c0.1,0,0.19-0.02,0.27-0.07c0.08-0.05,0.14-0.11,0.17-0.19l0.41,0.11c-0.04,0.09-0.11,0.18-0.19,0.25
			c-0.08,0.07-0.18,0.13-0.3,0.17C56.47,18.43,56.34,18.45,56.2,18.45z M55.71,17.34h0.98c-0.01-0.09-0.04-0.17-0.08-0.24
			c-0.04-0.07-0.1-0.12-0.17-0.16c-0.07-0.04-0.15-0.06-0.24-0.06c-0.09,0-0.16,0.02-0.23,0.06c-0.07,0.04-0.13,0.09-0.17,0.16
			C55.75,17.17,55.72,17.25,55.71,17.34z"/>
		<path class="st37" d="M58.6,18.45c-0.16,0-0.31-0.03-0.46-0.08c-0.15-0.05-0.27-0.13-0.37-0.23l0.17-0.31
			c0.11,0.09,0.22,0.16,0.32,0.2c0.11,0.04,0.21,0.06,0.31,0.06c0.09,0,0.17-0.02,0.22-0.05c0.06-0.03,0.08-0.08,0.08-0.14
			c0-0.05-0.02-0.08-0.05-0.11c-0.03-0.02-0.08-0.05-0.13-0.06c-0.06-0.02-0.13-0.04-0.21-0.06c-0.14-0.04-0.25-0.08-0.34-0.13
			c-0.09-0.04-0.16-0.1-0.21-0.16c-0.05-0.06-0.07-0.15-0.07-0.25c0-0.12,0.03-0.23,0.09-0.32c0.06-0.09,0.15-0.16,0.26-0.21
			c0.11-0.05,0.25-0.07,0.4-0.07c0.13,0,0.26,0.02,0.38,0.06c0.12,0.04,0.23,0.11,0.32,0.2l-0.2,0.31
			c-0.09-0.08-0.18-0.13-0.27-0.17c-0.09-0.03-0.17-0.05-0.26-0.05c-0.05,0-0.1,0.01-0.14,0.02c-0.04,0.01-0.08,0.03-0.11,0.06
			c-0.03,0.03-0.04,0.06-0.04,0.11c0,0.04,0.01,0.08,0.04,0.1c0.02,0.03,0.06,0.05,0.11,0.07c0.05,0.02,0.11,0.04,0.19,0.06
			c0.15,0.04,0.28,0.08,0.38,0.13c0.1,0.04,0.18,0.1,0.23,0.16c0.05,0.07,0.08,0.15,0.08,0.27c0,0.18-0.07,0.33-0.2,0.43
			C59.01,18.4,58.83,18.45,58.6,18.45z"/>
	</g>
	<g>
		<path class="st9" d="M51.31,10.21c0.73,0,1.51-0.34,1.92-1.02h2.83l0.2-1.09h-6.64C49.44,9.37,50.02,10.21,51.31,10.21z"/>
		<path class="st9" d="M52.26,4.5c-1.07,0-1.93,0.77-2.32,1.9h3.78C53.85,5.36,53.28,4.5,52.26,4.5z"/>
		<path class="st38" d="M56.06,9.19l-0.01,0.06c0.01-0.02,0.02-0.04,0.03-0.06H56.06z"/>
		<g>
			<path class="st37" d="M46.72,7.33c0.13-0.72,0.4-1.38,0.77-1.98l0.35-1.87h-1.84l-1.32,6.79L44.37,12h1.91l0.45-2.5
				C46.58,8.87,46.57,8.14,46.72,7.33z"/>
			<polygon class="st37" points="47.63,0.72 46.6,1.46 46.4,1.63 46.39,1.68 46.19,2.6 46.71,2.6 48.01,2.6 48.04,2.44 48.55,0 			
				"/>
		</g>
		<polygon class="st1" points="44.06,3.48 44.06,3.48 44.06,3.48 		"/>
		<g>
			<path class="st39" d="M56.44,8.1c0.16-0.71,0.23-1.39,0.19-2.02L56.26,8.1H56.44z"/>
			<g>
				<path class="st39" d="M53.24,9.19c-0.41,0.68-1.19,1.02-1.92,1.02c-1.29,0-1.87-0.84-1.69-2.11h6.64l0.37-2.02
					c-0.12-2.14-1.42-3.64-4-3.64c-2.05,0-4.05,1.14-5.15,2.91l-0.76,4.14c0.41,1.78,1.93,2.77,4.17,2.77
					c2.06,0,4.19-0.91,5.15-3.02l0.01-0.06H53.24z M52.26,4.5c1.02,0,1.6,0.86,1.46,1.9h-3.78C50.33,5.27,51.18,4.5,52.26,4.5z"/>
				<path class="st39" d="M14.4,7.56c-0.14,0.76-0.41,1.51-0.79,2.18L13.19,12h3.04l0.85-4.6c0.21-1.16,1.19-2.2,2.7-2.2
					c0.41,0,0.76,0.07,1.13,0.18l0.51-2.76c-0.01-0.01-0.01-0.01-0.01-0.02h-0.77c-1.18,0-2.31,0.57-2.94,1.56
					c-0.04,0.06-0.07,0.12-0.1,0.17h-0.04l0.3-1.63h-2.95l-0.46,2.48C14.58,5.92,14.55,6.73,14.4,7.56z"/>
				<path class="st39" d="M14.4,7.56c0.15-0.83,0.18-1.64,0.05-2.37l-0.84,4.55C13.99,9.07,14.26,8.32,14.4,7.56z"/>
				<path class="st39" d="M43.49,5.74l-2.26,0.42c-0.01,0.12-0.02,0.25-0.04,0.38L40.2,12h2.21L43.49,5.74z"/>
				<path class="st39" d="M44.06,3.47c-0.37-0.61-1.07-1.03-2.34-1.03c-1.25,0-2.26,0.52-3.18,1.5c-0.29-1.13-1.26-1.5-2.42-1.5
					c-1.13,0-2.22,0.61-2.95,1.54h-0.04l0.25-1.37h-2.95L28.69,12h3.04l0.84-4.53c0.35-1.9,0.93-2.52,2.02-2.52
					c0.82,0,1.02,0.68,0.82,1.77L34.44,12h3.04l0.84-4.55c0.28-1.5,0.59-2.51,1.89-2.51c0.55,0,0.89,0.29,0.99,0.8l1.87-1.49
					L44.06,3.47z"/>
				<path class="st39" d="M46.72,7.33c-0.15,0.81-0.14,1.54,0,2.17l0.76-4.14C47.12,5.95,46.86,6.61,46.72,7.33z"/>
				<path class="st39" d="M26.43,9.19c-0.41,0.68-1.19,1.02-1.92,1.02c-1.29,0-1.87-0.84-1.69-2.11h6.64l0.37-2.02
					c-0.12-2.14-1.42-3.64-4-3.64c-2.05,0-4.05,1.14-5.15,2.91l-0.76,4.14c0.41,1.78,1.93,2.77,4.17,2.77
					c2.06,0,4.19-0.91,5.15-3.02l0.01-0.06H26.43z M25.45,4.5c1.02,0,1.6,0.86,1.46,1.9h-3.78C23.52,5.27,24.38,4.5,25.45,4.5z"/>
				<path class="st39" d="M19.92,7.33c-0.15,0.81-0.14,1.54,0,2.17l0.76-4.14C20.32,5.95,20.05,6.61,19.92,7.33z"/>
				<path class="st39" d="M63.77,2.6h-0.78c-1.18,0-2.31,0.57-2.94,1.56c-0.04,0.06-0.07,0.12-0.1,0.17h-0.04l0.3-1.63h-2.95
					l-0.62,3.37c0.04,0.63-0.03,1.31-0.19,2.02h-0.18l-0.2,1.09h0.02c-0.01,0.02-0.02,0.04-0.03,0.06L55.54,12h3.04l0.85-4.6
					c0.21-1.16,1.19-2.2,2.7-2.2c0.41,0,0.76,0.07,1.13,0.18L63.77,2.6C63.77,2.6,63.77,2.6,63.77,2.6z"/>
				<polygon class="st39" points="5.66,2.71 0,5.33 5.21,5.33 5.68,2.76 				"/>
				<path class="st39" d="M7.18,11c0.47,0.84,1.27,1.27,2.41,1.27c1.8,0,3.17-1.07,4-2.53l0.84-4.55c-0.27-1.57-1.27-2.74-3.26-2.74
					c-1.07,0-2.05,0.47-2.81,1.34H8.34l0.2-1.07h-2.9L5.63,2.76L5.15,5.33l-1.81,9.79H3.6l0.38-1.75h2.74L7.15,11H7.18z M8.25,7.26
					c0.35-1.91,1.5-2.49,2.32-2.49c1.34,0,1.57,1.31,1.35,2.49c-0.23,1.27-0.96,2.68-2.32,2.68C8.22,9.94,7.95,8.89,8.25,7.26z"/>
				<polygon class="st39" points="48.55,13.36 46.03,13.36 44.12,13.36 42.97,13.36 42.96,13.36 42.17,13.36 39.95,13.36 
					38.89,13.36 15.73,13.36 3.85,13.36 3.47,15.11 15.4,15.11 58.05,15.11 58.33,13.36 				"/>
			</g>
		</g>
	</g>
</g>
</svg>
