<?xml version="1.0" encoding="utf-8"?>
<!-- Generator: Adobe Illustrator 25.0.1, SVG Export Plug-In . SVG Version: 6.00 Build 0)  -->
<svg version="1.0" id="Layer_1" xmlns="http://www.w3.org/2000/svg" xmlns:xlink="http://www.w3.org/1999/xlink" x="0px" y="0px"
	 viewBox="0 0 36.41 25.11" style="enable-background:new 0 0 36.41 25.11;" xml:space="preserve">
<style type="text/css">
	.st0{fill:#000104;}
	.st1{fill:#FFFFFF;}
	.st2{fill:#EF493E;}
	.st3{opacity:0.6;fill-rule:evenodd;clip-rule:evenodd;fill:#FBBE43;}
	.st4{opacity:0.6;fill-rule:evenodd;clip-rule:evenodd;fill:#EF930E;}
	.st5{opacity:0.6;fill-rule:evenodd;clip-rule:evenodd;fill:#E67906;}
	.st6{fill:#9F8829;}
	.st7{fill:#3972A6;}
	.st8{fill:url(#SVGID_1_);stroke:#2B53A4;stroke-width:0.5;stroke-miterlimit:10;}
	.st9{fill:none;}
	.st10{fill:url(#SVGID_2_);}
	.st11{fill:url(#SVGID_3_);}
	.st12{fill:#B3B3B3;}
	.st13{fill:url(#SVGID_4_);}
	.st14{fill:url(#SVGID_5_);}
	.st15{fill:url(#SVGID_6_);}
	.st16{fill:#FFFFFF;stroke:#FFFFFF;stroke-width:0.25;stroke-miterlimit:10;}
	.st17{fill:#00001D;}
	.st18{fill:#4DA0C5;}
	.st19{fill:url(#SVGID_7_);}
	.st20{fill:#2E6A85;}
	.st21{fill:none;stroke:#144FA1;stroke-width:0.113;stroke-linejoin:round;stroke-miterlimit:10;}
	.st22{fill:#F27337;}
	.st23{fill:#8EB8D4;}
	.st24{fill:#F38056;}
	.st25{fill:#626365;}
	.st26{fill:#EF6D23;}
	.st27{fill:#284B82;}
	.st28{fill:#242956;}
	.st29{fill:#15142A;}
	.st30{fill:#84C343;}
	.st31{fill:#4CA1C6;}
	.st32{fill:#121617;}
	.st33{fill:#CF8966;}
	.st34{fill:#F37639;}
	.st35{opacity:0.3;fill:url(#SVGID_8_);}
	.st36{fill:#373277;}
	.st37{fill:#E61E25;}
	.st38{fill:#2555A5;}
	.st39{fill:#2E225E;}
	.st40{fill:#F8A425;}
	.st41{fill:#2058A7;}
	.st42{fill:none;stroke:#205AA8;stroke-width:0.156;stroke-miterlimit:10;}
	.st43{fill:#49A3C7;}
	.st44{fill-rule:evenodd;clip-rule:evenodd;}
	.st45{fill-rule:evenodd;clip-rule:evenodd;fill:url(#SVGID_9_);}
	.st46{fill-rule:evenodd;clip-rule:evenodd;fill:url(#SVGID_10_);}
	.st47{fill-rule:evenodd;clip-rule:evenodd;fill:url(#SVGID_11_);}
	.st48{fill:#1D2251;}
	.st49{fill:#2260AC;}
	.st50{fill:url(#SVGID_12_);}
	.st51{fill:#FFFFFC;}
	.st52{fill:#4C9FC5;}
	.st53{fill:#28306D;}
	.st54{fill:#4C9EC5;}
	.st55{fill:#28306E;}
	.st56{fill:#29306F;}
	.st57{fill:#F7F7FB;}
	.st58{fill:url(#SVGID_13_);}
	.st59{fill:url(#SVGID_14_);}
	.st60{fill:url(#SVGID_15_);}
	.st61{fill:url(#SVGID_16_);}
	.st62{fill:#10123C;}
	.st63{fill:#F5842C;}
	.st64{fill:#1F305E;}
	.st65{fill:#87BBD1;}
	.st66{fill:#203160;}
	.st67{fill:#235779;}
	.st68{fill:#359FA1;}
	.st69{fill:#A4D1A4;}
	.st70{fill:#B9DBBC;}
	.st71{fill:#C6DDCA;}
	.st72{fill:#662E14;}
	.st73{fill:#1D79A4;}
	.st74{fill:#C14B28;}
	.st75{fill:url(#SVGID_17_);}
	.st76{fill:url(#SVGID_18_);}
	.st77{fill:url(#SVGID_19_);}
	.st78{fill:url(#SVGID_20_);}
	.st79{fill:url(#SVGID_21_);}
	.st80{fill:url(#SVGID_22_);}
	.st81{fill:url(#SVGID_23_);}
	.st82{fill:url(#SVGID_24_);}
	.st83{fill:url(#SVGID_25_);}
	.st84{fill:url(#SVGID_26_);}
	.st85{fill:url(#SVGID_27_);}
	.st86{fill:url(#SVGID_28_);}
	.st87{fill:url(#SVGID_29_);}
	.st88{fill:url(#SVGID_30_);}
	.st89{fill:#1F164B;}
	.st90{clip-path:url(#SVGID_32_);fill:#253D97;}
	.st91{fill:url(#SVGID_33_);}
	.st92{fill:url(#SVGID_34_);}
	.st93{fill:url(#SVGID_35_);}
	.st94{fill:url(#SVGID_36_);}
	.st95{fill:url(#SVGID_37_);}
	.st96{fill:url(#SVGID_38_);}
	.st97{fill:url(#SVGID_39_);}
	.st98{fill:url(#SVGID_40_);}
	.st99{fill:url(#SVGID_41_);}
	.st100{fill:#443F41;}
	.st101{fill:#28306F;}
	.st102{fill:#71C49D;}
	.st103{fill:#F0C6A7;}
	.st104{fill:#DB8D82;}
	.st105{fill:#EFB7AC;}
	.st106{opacity:0.21;}
	.st107{fill-rule:evenodd;clip-rule:evenodd;fill:#A9196E;}
	.st108{fill-rule:evenodd;clip-rule:evenodd;fill:#FBE42C;}
	.st109{fill:#FBE42C;}
	.st110{fill:#A9196E;}
	.st111{fill:#7FC143;}
	.st112{clip-path:url(#SVGID_45_);fill:#7FC143;}
	.st113{clip-path:url(#SVGID_51_);fill:#7FC143;}
	.st114{fill:#243F8F;}
	.st115{fill:#EF4E2F;}
	.st116{fill:#010007;}
	.st117{fill:#0C0D37;}
	.st118{fill:#FBAF2D;}
	.st119{fill:url(#SVGID_54_);}
	.st120{fill-rule:evenodd;clip-rule:evenodd;fill:#FFFFFF;}
	.st121{fill:#1D4690;}
	.st122{fill:#3AA949;}
	.st123{fill:#F37A24;}
	.st124{fill:none;stroke:#F37A24;stroke-width:3.7145;stroke-miterlimit:10;}
	.st125{fill:#3AA949;stroke:#FFFFFF;stroke-width:1.3104;stroke-miterlimit:10;}
	.st126{fill:#46A2BB;}
	.st127{fill:#7153A0;}
	.st128{fill:#27316C;}
	.st129{fill:#2C65AE;}
	.st130{fill:#452D7A;}
	.st131{fill:#442C7A;}
	.st132{fill:#1A2642;}
	.st133{fill-rule:evenodd;clip-rule:evenodd;fill:#567EB8;}
	.st134{fill-rule:evenodd;clip-rule:evenodd;fill:#6A7EB8;}
	.st135{fill-rule:evenodd;clip-rule:evenodd;fill:#6A7EB9;}
	.st136{fill-rule:evenodd;clip-rule:evenodd;fill:#EE3C2D;}
	.st137{fill-rule:evenodd;clip-rule:evenodd;fill:#EF493F;}
	.st138{fill-rule:evenodd;clip-rule:evenodd;fill:#ED2C24;}
	.st139{fill-rule:evenodd;clip-rule:evenodd;fill:#E9AE28;}
	.st140{fill-rule:evenodd;clip-rule:evenodd;fill:#D69B28;}
	.st141{fill-rule:evenodd;clip-rule:evenodd;fill:#FCB729;}
	.st142{fill-rule:evenodd;clip-rule:evenodd;fill:#409E47;}
	.st143{fill-rule:evenodd;clip-rule:evenodd;fill:#4BB450;}
	.st144{fill-rule:evenodd;clip-rule:evenodd;fill:#338440;}
	.st145{fill:#C09C36;}
	.st146{fill:#1E552A;}
	.st147{clip-path:url(#SVGID_56_);fill:url(#SVGID_57_);}
	.st148{fill:#023A1E;}
	.st149{fill:#FFFFFA;}
	.st150{fill:#0D4F28;}
	.st151{fill:#0E5128;}
	.st152{fill:#0D4E27;}
	.st153{fill:#0E5229;}
	.st154{fill:#0E4823;}
	.st155{fill:#0E4C27;}
	.st156{fill:#F3F6E0;}
	.st157{fill:#0E4F28;}
	.st158{fill:#114823;}
	.st159{fill:#105229;}
	.st160{fill:#0A4A2B;}
	.st161{fill:#134F27;}
	.st162{fill:#165229;}
	.st163{fill:#0D5029;}
	.st164{fill:#0B4E2B;}
	.st165{fill:#105028;}
	.st166{fill:#0A492A;}
	.st167{fill:#E9F3E2;}
	.st168{fill:#144D26;}
	.st169{fill:#185C2F;}
	.st170{fill:#0F5028;}
	.st171{fill:#F3F8EA;}
	.st172{fill:#114D26;}
	.st173{fill:#70A685;}
	.st174{fill:#0D4F2A;}
	.st175{fill:#094A24;}
	.st176{fill:#0F4F27;}
	.st177{fill:#0A4C26;}
	.st178{fill:#A2D29A;}
	.st179{fill:#4D7E44;}
	.st180{fill:#E8F2E1;}
	.st181{fill:#EDF5E5;}
	.st182{fill:#E6F2E7;}
	.st183{fill:#E5F1DC;}
	.st184{fill:#E9F3E3;}
	.st185{fill:#E9F3E5;}
	.st186{fill:#E5F1DB;}
	.st187{fill:#D8ECD7;}
	.st188{fill:#D9EBD4;}
	.st189{fill:#E2F0DE;}
	.st190{fill:#366B4B;}
	.st191{fill:#5D6162;}
	.st192{fill:#212E5F;}
	.st193{fill:#DD1F26;}
	.st194{clip-path:url(#SVGID_59_);}
	.st195{fill:#23396F;}
	.st196{fill:#7FC24E;}
	.st197{clip-path:url(#SVGID_59_);fill:#23396F;}
	.st198{clip-path:url(#SVGID_59_);fill:#7FC24E;}
	.st199{fill:#91CEA4;}
	.st200{fill:#90CEA4;}
	.st201{fill:#C02026;}
	.st202{fill:#362E7E;}
</style>
<g>
	<g>
		<path class="st132" d="M1.24,16.89h0.95v2.59c0,1.17-0.58,1.58-1.5,1.58c-0.22,0-0.51-0.04-0.69-0.1l0.11-0.75
			c0.13,0.04,0.3,0.07,0.49,0.07c0.4,0,0.65-0.18,0.65-0.82V16.89z"/>
		<path class="st132" d="M6.81,16.89v2.36c0,0.71,0.28,1.07,0.76,1.07c0.5,0,0.78-0.34,0.78-1.07v-2.36H9.3v2.3
			c0,1.27-0.66,1.87-1.76,1.87c-1.06,0-1.69-0.57-1.69-1.88v-2.29H6.81z"/>
		<path class="st132" d="M13,16.89h0.96v3.32h1.68v0.78H13V16.89z"/>
		<path class="st132" d="M19.07,20.99v-4.1h1.11l0.88,1.5c0.25,0.43,0.5,0.94,0.69,1.41h0.02c-0.06-0.54-0.08-1.1-0.08-1.71v-1.2
			h0.88v4.1h-1l-0.9-1.58c-0.25-0.44-0.53-0.97-0.73-1.45l-0.02,0.01c0.02,0.54,0.04,1.12,0.04,1.79v1.24H19.07z"/>
		<path class="st132" d="M27.24,19.94l-0.3,1.05h-0.99l1.29-4.1h1.25l1.31,4.1h-1.03l-0.32-1.05H27.24z M28.31,19.24l-0.26-0.87
			c-0.07-0.24-0.15-0.55-0.21-0.79h-0.01c-0.06,0.24-0.13,0.55-0.19,0.79l-0.25,0.87H28.31z"/>
		<path class="st132" d="M33.23,16.94c0.31-0.05,0.76-0.09,1.27-0.09c0.63,0,1.06,0.09,1.36,0.32c0.25,0.19,0.39,0.48,0.39,0.86
			c0,0.52-0.38,0.88-0.74,1.01v0.02c0.29,0.12,0.46,0.39,0.56,0.77c0.13,0.46,0.26,1,0.34,1.16h-0.98
			c-0.07-0.12-0.17-0.45-0.29-0.96c-0.11-0.51-0.29-0.65-0.68-0.66h-0.29v1.61h-0.94V16.94z M34.17,18.71h0.38
			c0.48,0,0.76-0.23,0.76-0.59c0-0.38-0.26-0.57-0.7-0.57c-0.23,0-0.36,0.02-0.43,0.03V18.71z"/>
	</g>
	<g>
		<g>
			<path class="st133" d="M6.26,13.08L6.26,13.08C7.91,6.65,11.1,2.29,15.83,0C8.9,0.74,3.04,5.1,0.14,11.19
				c0.44-0.09,0.89-0.14,1.34-0.14C3.38,11.06,5.05,11.84,6.26,13.08L6.26,13.08z"/>
			<g>
				<path class="st134" d="M15.83,0c-3.96,1.13-7.11,4.35-9.86,9.29c0.66-1.96,2.05-3.69,3.5-5.44c-1.8,1.31-4.54,5.53-5.23,7.81
					c1.29,0.58,2.01,1.42,2.01,1.42s1.3-5.88,4.7-9.34C12.52,2.15,14.03,0.81,15.83,0L15.83,0z"/>
				<path class="st135" d="M2.21,11.08C3.07,9,4.58,6.43,6.87,4.62C5.35,5.4,3.71,6.88,1.96,9.06c2.67-4.01,11.92-8.73,11.92-8.73
					s-3.85,0.6-7.49,3.32c-3.37,2.5-5.04,5.11-6.25,7.54C1.31,10.95,2.21,11.08,2.21,11.08z"/>
			</g>
		</g>
		<g>
			<path class="st136" d="M17.38,13.25V0.17C12.6,2.76,9.14,7.28,7.65,13.1l-0.01,0.01l0,0c1.22-1.26,2.9-2.06,4.81-2.06
				C14.42,11.06,16.15,11.91,17.38,13.25L17.38,13.25z"/>
			<path class="st137" d="M14.94,2.68c-1.49,0.87-2.8,3.24-4.76,6.38c1.91-4.18,4.56-6.86,7.2-8.89c-2.3,1.27-3.74,2.42-5.52,4.52
				c-1.65,1.94-3.26,4.83-4.21,8.4c0.94-0.9,1.6-1.28,1.87-1.36C11.11,7.76,13.08,4.75,14.94,2.68L14.94,2.68z"/>
			<path class="st138" d="M16.72,8.77c0,0,0.56-8.54,0.66-8.54v13.02c0,0-0.32-0.38-0.86-0.79c-0.39-0.3-0.81-0.54-0.81-0.54
				s0.13-2.31,0.31-4.2c0.13-1.39,0.95-5.96,0.95-5.96L16.72,8.77z"/>
		</g>
		<g>
			<path class="st139" d="M18.46,13.25V0.17c4.78,2.59,8.24,7.1,9.73,12.93l0.01,0.01l0,0c-1.22-1.26-2.9-2.06-4.81-2.06
				C21.42,11.06,19.68,11.91,18.46,13.25L18.46,13.25z"/>
			<path class="st140" d="M20.89,2.68c1.49,0.87,2.8,3.24,4.76,6.38c-1.91-4.18-4.56-6.86-7.2-8.89c2.3,1.27,3.74,2.42,5.52,4.52
				c1.65,1.94,3.26,4.83,4.21,8.4c-0.94-0.9-1.6-1.28-1.87-1.36C24.72,7.76,22.75,4.75,20.89,2.68L20.89,2.68z"/>
			<path class="st141" d="M19.12,8.77c0,0-0.56-8.54-0.66-8.54v13.02c0,0,0.32-0.38,0.86-0.79c0.39-0.3,0.81-0.54,0.81-0.54
				s-0.13-2.31-0.31-4.2c-0.13-1.39-0.95-5.96-0.95-5.96L19.12,8.77z"/>
		</g>
		<g>
			<path class="st142" d="M29.59,13.08L29.59,13.08C27.94,6.65,24.75,2.29,20.03,0c6.92,0.74,12.79,5.1,15.69,11.19
				c-0.44-0.09-0.89-0.14-1.34-0.14C32.48,11.06,30.81,11.84,29.59,13.08L29.59,13.08z"/>
			<g>
				<path class="st143" d="M20.03,0c3.96,1.13,7.11,4.35,9.86,9.29c-0.66-1.96-2.05-3.77-3.5-5.52c1.8,1.31,4.54,5.61,5.23,7.89
					c-1.29,0.58-2.01,1.42-2.01,1.42s-1.3-5.88-4.7-9.34C23.33,2.15,21.83,0.81,20.03,0L20.03,0z"/>
				<path class="st144" d="M33.65,11.08C32.78,9,31.27,6.43,28.98,4.62c1.52,0.78,3.16,2.26,4.91,4.44
					c-2.67-4.01-11.92-8.73-11.92-8.73s3.85,0.6,7.49,3.32c3.37,2.5,5.04,5.11,6.25,7.54C34.54,10.95,33.65,11.08,33.65,11.08z"/>
			</g>
		</g>
	</g>
	<g>
		<path class="st132" d="M4.24,23.12v0.72h0.65v-0.72h0.53v1.95H4.89V24.3H4.24v0.77H3.7v-1.95H4.24z"/>
		<path class="st132" d="M8.24,24.29H7.52v0.36h0.81v0.43H6.98v-1.95h1.3v0.43H7.52v0.32h0.72V24.29z"/>
		<path class="st132" d="M10.34,24.62l-0.11,0.45H9.67l0.58-1.95h0.71l0.6,1.95h-0.58l-0.13-0.45H10.34z M10.78,24.24l-0.09-0.35
			c-0.03-0.11-0.07-0.27-0.1-0.38h-0.01c-0.03,0.12-0.06,0.28-0.09,0.39l-0.09,0.35H10.78z"/>
		<path class="st132" d="M13,23.12h0.54v1.51h0.77v0.44H13V23.12z"/>
		<path class="st132" d="M15.82,23.56H15.3v-0.44h1.57v0.44h-0.52v1.51h-0.54V23.56z"/>
		<path class="st132" d="M18.84,23.12v0.72h0.65v-0.72h0.53v1.95H19.5V24.3h-0.65v0.77h-0.54v-1.95H18.84z"/>
		<path class="st132" d="M23.09,25.03c-0.08,0.04-0.26,0.08-0.51,0.08c-0.75,0-1.08-0.46-1.08-0.98c0-0.69,0.52-1.04,1.11-1.04
			c0.23,0,0.42,0.04,0.5,0.09l-0.1,0.41c-0.09-0.03-0.21-0.07-0.37-0.07c-0.31,0-0.58,0.18-0.58,0.58c0,0.36,0.22,0.58,0.59,0.58
			c0.13,0,0.28-0.03,0.36-0.06L23.09,25.03z"/>
		<path class="st132" d="M25.12,24.62l-0.11,0.45h-0.56l0.58-1.95h0.71l0.6,1.95h-0.58l-0.13-0.45H25.12z M25.56,24.24l-0.09-0.35
			c-0.03-0.11-0.07-0.27-0.1-0.38h-0.01c-0.03,0.12-0.06,0.28-0.09,0.39l-0.09,0.35H25.56z"/>
		<path class="st132" d="M27.79,23.15c0.15-0.02,0.38-0.04,0.65-0.04c0.31,0,0.53,0.04,0.68,0.15c0.13,0.1,0.2,0.23,0.2,0.43
			c0,0.24-0.19,0.42-0.34,0.47v0.01c0.13,0.05,0.2,0.18,0.26,0.35c0.06,0.2,0.13,0.48,0.17,0.56h-0.55
			c-0.03-0.06-0.08-0.21-0.14-0.45c-0.05-0.23-0.13-0.28-0.29-0.28h-0.09v0.73h-0.53V23.15z M28.32,23.97h0.14
			c0.2,0,0.32-0.1,0.32-0.24c0-0.15-0.1-0.23-0.28-0.23c-0.1,0-0.15,0.01-0.18,0.01V23.97z"/>
		<path class="st132" d="M32.06,24.29h-0.72v0.36h0.81v0.43h-1.34v-1.95h1.3v0.43h-0.76v0.32h0.72V24.29z"/>
	</g>
</g>
</svg>
