<?xml version="1.0" encoding="utf-8"?>
<!-- Generator: Adobe Illustrator 25.0.1, SVG Export Plug-In . SVG Version: 6.00 Build 0)  -->
<svg version="1.0" id="Layer_1" xmlns="http://www.w3.org/2000/svg" xmlns:xlink="http://www.w3.org/1999/xlink" x="0px" y="0px"
	 viewBox="0 0 42.21 26.58" style="enable-background:new 0 0 42.21 26.58;" xml:space="preserve">
<style type="text/css">
	.st0{fill:#000104;}
	.st1{fill:#FFFFFF;}
	.st2{fill:#EF493E;}
	.st3{opacity:0.6;fill-rule:evenodd;clip-rule:evenodd;fill:#FBBE43;}
	.st4{opacity:0.6;fill-rule:evenodd;clip-rule:evenodd;fill:#EF930E;}
	.st5{opacity:0.6;fill-rule:evenodd;clip-rule:evenodd;fill:#E67906;}
	.st6{fill:#9F8829;}
	.st7{fill:#3972A6;}
	.st8{fill:url(#SVGID_1_);stroke:#2B53A4;stroke-width:0.5;stroke-miterlimit:10;}
	.st9{fill:none;}
	.st10{fill:url(#SVGID_2_);}
	.st11{fill:url(#SVGID_3_);}
	.st12{fill:#B3B3B3;}
	.st13{fill:url(#SVGID_4_);}
	.st14{fill:url(#SVGID_5_);}
	.st15{fill:url(#SVGID_6_);}
	.st16{fill:#FFFFFF;stroke:#FFFFFF;stroke-width:0.25;stroke-miterlimit:10;}
	.st17{fill:#00001D;}
	.st18{fill:#4DA0C5;}
	.st19{fill:url(#SVGID_7_);}
	.st20{fill:#2E6A85;}
	.st21{fill:none;stroke:#144FA1;stroke-width:0.113;stroke-linejoin:round;stroke-miterlimit:10;}
	.st22{fill:#F27337;}
	.st23{fill:#8EB8D4;}
	.st24{fill:#F38056;}
	.st25{fill:#626365;}
	.st26{fill:#EF6D23;}
	.st27{fill:#284B82;}
	.st28{fill:#242956;}
	.st29{fill:#15142A;}
	.st30{fill:#84C343;}
	.st31{fill:#4CA1C6;}
	.st32{fill:#121617;}
	.st33{fill:#CF8966;}
	.st34{fill:#F37639;}
	.st35{opacity:0.3;fill:url(#SVGID_8_);}
	.st36{fill:#373277;}
	.st37{fill:#E61E25;}
	.st38{fill:#2555A5;}
	.st39{fill:#2E225E;}
	.st40{fill:#F8A425;}
	.st41{fill:#2058A7;}
	.st42{fill:none;stroke:#205AA8;stroke-width:0.156;stroke-miterlimit:10;}
	.st43{fill:#49A3C7;}
	.st44{fill-rule:evenodd;clip-rule:evenodd;}
	.st45{fill-rule:evenodd;clip-rule:evenodd;fill:url(#SVGID_9_);}
	.st46{fill-rule:evenodd;clip-rule:evenodd;fill:url(#SVGID_10_);}
	.st47{fill-rule:evenodd;clip-rule:evenodd;fill:url(#SVGID_11_);}
	.st48{fill:#1D2251;}
	.st49{fill:#2260AC;}
	.st50{fill:url(#SVGID_12_);}
	.st51{fill:#FFFFFC;}
	.st52{fill:#4C9FC5;}
	.st53{fill:#28306D;}
	.st54{fill:#4C9EC5;}
	.st55{fill:#28306E;}
	.st56{fill:#29306F;}
	.st57{fill:#F7F7FB;}
	.st58{fill:url(#SVGID_13_);}
	.st59{fill:url(#SVGID_14_);}
	.st60{fill:url(#SVGID_15_);}
	.st61{fill:url(#SVGID_16_);}
	.st62{fill:#10123C;}
	.st63{fill:#F5842C;}
	.st64{fill:#1F305E;}
	.st65{fill:#87BBD1;}
	.st66{fill:#203160;}
	.st67{fill:#235779;}
	.st68{fill:#359FA1;}
	.st69{fill:#A4D1A4;}
	.st70{fill:#B9DBBC;}
	.st71{fill:#C6DDCA;}
	.st72{fill:#662E14;}
	.st73{fill:#1D79A4;}
	.st74{fill:#C14B28;}
	.st75{fill:url(#SVGID_17_);}
	.st76{fill:url(#SVGID_18_);}
	.st77{fill:url(#SVGID_19_);}
	.st78{fill:url(#SVGID_20_);}
	.st79{fill:url(#SVGID_21_);}
	.st80{fill:url(#SVGID_22_);}
	.st81{fill:url(#SVGID_23_);}
	.st82{fill:url(#SVGID_24_);}
	.st83{fill:url(#SVGID_25_);}
	.st84{fill:url(#SVGID_26_);}
	.st85{fill:url(#SVGID_27_);}
	.st86{fill:url(#SVGID_28_);}
	.st87{fill:url(#SVGID_29_);}
	.st88{fill:url(#SVGID_30_);}
	.st89{fill:#1F164B;}
	.st90{clip-path:url(#SVGID_32_);fill:#253D97;}
	.st91{fill:url(#SVGID_33_);}
	.st92{fill:url(#SVGID_34_);}
	.st93{fill:url(#SVGID_35_);}
	.st94{fill:url(#SVGID_36_);}
	.st95{fill:url(#SVGID_37_);}
	.st96{fill:url(#SVGID_38_);}
	.st97{fill:url(#SVGID_39_);}
	.st98{fill:url(#SVGID_40_);}
	.st99{fill:url(#SVGID_41_);}
	.st100{fill:#443F41;}
	.st101{fill:#28306F;}
	.st102{fill:#71C49D;}
	.st103{fill:#F0C6A7;}
	.st104{fill:#DB8D82;}
	.st105{fill:#EFB7AC;}
	.st106{opacity:0.21;}
	.st107{fill-rule:evenodd;clip-rule:evenodd;fill:#A9196E;}
	.st108{fill-rule:evenodd;clip-rule:evenodd;fill:#FBE42C;}
	.st109{fill:#FBE42C;}
	.st110{fill:#A9196E;}
	.st111{fill:#7FC143;}
	.st112{clip-path:url(#SVGID_45_);fill:#7FC143;}
	.st113{clip-path:url(#SVGID_51_);fill:#7FC143;}
	.st114{fill:#243F8F;}
	.st115{fill:#EF4E2F;}
	.st116{fill:#010007;}
	.st117{fill:#0C0D37;}
	.st118{fill:#FBAF2D;}
	.st119{fill:url(#SVGID_54_);}
	.st120{fill-rule:evenodd;clip-rule:evenodd;fill:#FFFFFF;}
	.st121{fill:#1D4690;}
	.st122{fill:#3AA949;}
	.st123{fill:#F37A24;}
	.st124{fill:none;stroke:#F37A24;stroke-width:3.7145;stroke-miterlimit:10;}
	.st125{fill:#3AA949;stroke:#FFFFFF;stroke-width:1.3104;stroke-miterlimit:10;}
	.st126{fill:#46A2BB;}
	.st127{fill:#7153A0;}
	.st128{fill:#27316C;}
	.st129{fill:#2C65AE;}
	.st130{fill:#452D7A;}
	.st131{fill:#442C7A;}
	.st132{fill:#1A2642;}
	.st133{fill-rule:evenodd;clip-rule:evenodd;fill:#567EB8;}
	.st134{fill-rule:evenodd;clip-rule:evenodd;fill:#6A7EB8;}
	.st135{fill-rule:evenodd;clip-rule:evenodd;fill:#6A7EB9;}
	.st136{fill-rule:evenodd;clip-rule:evenodd;fill:#EE3C2D;}
	.st137{fill-rule:evenodd;clip-rule:evenodd;fill:#EF493F;}
	.st138{fill-rule:evenodd;clip-rule:evenodd;fill:#ED2C24;}
	.st139{fill-rule:evenodd;clip-rule:evenodd;fill:#E9AE28;}
	.st140{fill-rule:evenodd;clip-rule:evenodd;fill:#D69B28;}
	.st141{fill-rule:evenodd;clip-rule:evenodd;fill:#FCB729;}
	.st142{fill-rule:evenodd;clip-rule:evenodd;fill:#409E47;}
	.st143{fill-rule:evenodd;clip-rule:evenodd;fill:#4BB450;}
	.st144{fill-rule:evenodd;clip-rule:evenodd;fill:#338440;}
	.st145{fill:#C09C36;}
	.st146{fill:#1E552A;}
	.st147{clip-path:url(#SVGID_56_);fill:url(#SVGID_57_);}
	.st148{fill:#023A1E;}
	.st149{fill:#FFFFFA;}
	.st150{fill:#0D4F28;}
	.st151{fill:#0E5128;}
	.st152{fill:#0D4E27;}
	.st153{fill:#0E5229;}
	.st154{fill:#0E4823;}
	.st155{fill:#0E4C27;}
	.st156{fill:#F3F6E0;}
	.st157{fill:#0E4F28;}
	.st158{fill:#114823;}
	.st159{fill:#105229;}
	.st160{fill:#0A4A2B;}
	.st161{fill:#134F27;}
	.st162{fill:#165229;}
	.st163{fill:#0D5029;}
	.st164{fill:#0B4E2B;}
	.st165{fill:#105028;}
	.st166{fill:#0A492A;}
	.st167{fill:#E9F3E2;}
	.st168{fill:#144D26;}
	.st169{fill:#185C2F;}
	.st170{fill:#0F5028;}
	.st171{fill:#F3F8EA;}
	.st172{fill:#114D26;}
	.st173{fill:#70A685;}
	.st174{fill:#0D4F2A;}
	.st175{fill:#094A24;}
	.st176{fill:#0F4F27;}
	.st177{fill:#0A4C26;}
	.st178{fill:#A2D29A;}
	.st179{fill:#4D7E44;}
	.st180{fill:#E8F2E1;}
	.st181{fill:#EDF5E5;}
	.st182{fill:#E6F2E7;}
	.st183{fill:#E5F1DC;}
	.st184{fill:#E9F3E3;}
	.st185{fill:#E9F3E5;}
	.st186{fill:#E5F1DB;}
	.st187{fill:#D8ECD7;}
	.st188{fill:#D9EBD4;}
	.st189{fill:#E2F0DE;}
	.st190{fill:#366B4B;}
	.st191{fill:#5D6162;}
	.st192{fill:#212E5F;}
	.st193{fill:#DD1F26;}
	.st194{clip-path:url(#SVGID_59_);}
	.st195{fill:#23396F;}
	.st196{fill:#7FC24E;}
	.st197{clip-path:url(#SVGID_59_);fill:#23396F;}
	.st198{clip-path:url(#SVGID_59_);fill:#7FC24E;}
	.st199{fill:#91CEA4;}
	.st200{fill:#90CEA4;}
	.st201{fill:#C02026;}
	.st202{fill:#362E7E;}
</style>
<g>
	<g>
		<path d="M19.63,20.02c-0.11-0.24-0.21-0.47-0.3-0.69c-0.98-2.24-1.95-4.49-2.93-6.73c0-0.01-0.01-0.02-0.01-0.03
			c-0.04-0.06-0.02-0.1,0.02-0.15c0.33-0.37,0.66-0.74,0.99-1.11c0.54-0.6,1.08-1.21,1.62-1.81c0.02-0.02,0.04-0.04,0.08-0.08
			c0.61,1.44,1.21,2.87,1.82,4.33c2.58-4.55,5.16-9.08,7.74-13.62c0.02,0.03,0.03,0.05,0.04,0.08c0.8,2.57,1.59,5.14,2.39,7.71
			c0.02,0.07,0,0.11-0.04,0.16c-1.65,1.72-3.3,3.45-4.95,5.17c-2.12,2.22-4.25,4.44-6.37,6.66C19.69,19.94,19.67,19.98,19.63,20.02z
			"/>
		<path d="M8.04,19.63c0.02-0.03,0.05-0.05,0.07-0.08c1.46-1.7,2.93-3.4,4.39-5.1c1.93-2.24,3.86-4.48,5.8-6.72
			c0.05-0.06,0.06-0.11,0.03-0.18c-1.03-2.4-2.06-4.8-3.09-7.21c-0.04-0.1-0.09-0.21-0.14-0.34c-2.36,6.55-4.71,13.08-7.06,19.62
			C8.03,19.62,8.03,19.62,8.04,19.63z"/>
		<path d="M34.17,19.3c-0.89-3.16-1.77-6.32-2.66-9.5c-0.03,0.03-0.05,0.05-0.07,0.06c-0.98,0.93-1.96,1.87-2.94,2.8
			c-0.01,0.01-0.02,0.02-0.04,0.04c-0.02,0.02-0.03,0.04,0,0.06c0.01,0.02,0.03,0.03,0.04,0.05c1.86,2.14,3.72,4.28,5.58,6.41
			c0.02,0.03,0.05,0.06,0.08,0.09C34.16,19.3,34.16,19.3,34.17,19.3z"/>
	</g>
	<g>
		<path d="M2.4,24.7c-0.01-0.33-0.03-0.73-0.03-1.14H2.37c-0.09,0.35-0.21,0.75-0.31,1.07l-0.34,1.08H1.23l-0.29-1.07
			c-0.09-0.33-0.18-0.71-0.25-1.08H0.68c-0.01,0.37-0.03,0.8-0.04,1.15l-0.05,1.05H0L0.18,23h0.83l0.27,0.92
			c0.09,0.32,0.17,0.66,0.23,0.99h0.02c0.07-0.32,0.17-0.69,0.26-0.99L2.09,23h0.82l0.15,2.77H2.45L2.4,24.7z"/>
		<path d="M5.18,25.28c0,0.19,0.01,0.37,0.03,0.48H4.65l-0.04-0.2H4.6c-0.13,0.16-0.34,0.25-0.57,0.25c-0.41,0-0.65-0.3-0.65-0.62
			c0-0.52,0.47-0.77,1.18-0.77V24.4c0-0.11-0.06-0.26-0.37-0.26c-0.21,0-0.42,0.07-0.55,0.15l-0.12-0.4
			c0.14-0.08,0.42-0.18,0.78-0.18c0.67,0,0.88,0.39,0.88,0.87V25.28z M4.58,24.82c-0.33,0-0.58,0.08-0.58,0.32
			c0,0.16,0.11,0.24,0.25,0.24c0.15,0,0.28-0.1,0.32-0.23c0.01-0.03,0.01-0.07,0.01-0.11V24.82z"/>
		<path d="M6.09,23.76l0.27,0.93c0.05,0.17,0.08,0.33,0.12,0.49h0.01c0.03-0.16,0.07-0.32,0.11-0.49l0.26-0.93h0.66l-0.75,2.01H6.14
			l-0.73-2.01H6.09z"/>
		<path d="M8.22,24.96c0.02,0.26,0.28,0.38,0.57,0.38c0.21,0,0.38-0.03,0.55-0.09l0.08,0.42c-0.21,0.09-0.46,0.13-0.73,0.13
			c-0.68,0-1.07-0.39-1.07-1.02c0-0.51,0.32-1.07,1.01-1.07c0.65,0,0.89,0.5,0.89,1c0,0.11-0.01,0.2-0.02,0.25H8.22z M8.95,24.53
			c0-0.15-0.07-0.41-0.35-0.41c-0.27,0-0.37,0.24-0.39,0.41H8.95z"/>
		<path d="M9.9,24.4c0-0.25-0.01-0.46-0.02-0.64h0.54l0.03,0.28h0.01c0.08-0.13,0.28-0.32,0.62-0.32c0.41,0,0.72,0.28,0.72,0.87
			v1.19h-0.62v-1.11c0-0.26-0.09-0.44-0.32-0.44c-0.17,0-0.28,0.12-0.32,0.23c-0.02,0.04-0.02,0.1-0.02,0.16v1.16H9.9V24.4z"/>
		<path d="M14.8,24.59h-1.02v0.66h1.14v0.51h-1.76V23h1.7v0.51h-1.08v0.58h1.02V24.59z"/>
		<path d="M15.79,23.76l0.2,0.34c0.06,0.1,0.11,0.2,0.16,0.3h0.01c0.05-0.11,0.1-0.21,0.16-0.31l0.18-0.32h0.68l-0.66,0.96
			l0.67,1.05h-0.71l-0.2-0.36c-0.06-0.1-0.11-0.2-0.16-0.31h-0.01c-0.05,0.11-0.1,0.21-0.15,0.31l-0.19,0.36h-0.69l0.68-1.03
			l-0.66-0.98H15.79z"/>
		<path d="M17.45,24.43c0-0.26-0.01-0.48-0.02-0.67h0.54L18,24.04h0.01c0.15-0.21,0.38-0.32,0.67-0.32c0.44,0,0.83,0.38,0.83,1.02
			c0,0.73-0.46,1.08-0.91,1.08c-0.24,0-0.43-0.1-0.52-0.23h-0.01v1h-0.62V24.43z M18.07,24.9c0,0.05,0,0.09,0.01,0.13
			c0.04,0.17,0.18,0.29,0.37,0.29c0.27,0,0.43-0.23,0.43-0.57c0-0.32-0.14-0.56-0.42-0.56c-0.18,0-0.33,0.13-0.37,0.32
			c-0.01,0.03-0.01,0.07-0.01,0.11V24.9z"/>
		<path d="M20.38,24.96c0.02,0.26,0.28,0.38,0.57,0.38c0.21,0,0.38-0.03,0.55-0.09l0.08,0.42c-0.21,0.09-0.46,0.13-0.73,0.13
			c-0.68,0-1.07-0.39-1.07-1.02c0-0.51,0.32-1.07,1.01-1.07c0.65,0,0.89,0.5,0.89,1c0,0.11-0.01,0.2-0.02,0.25H20.38z M21.11,24.53
			c0-0.15-0.07-0.41-0.35-0.41c-0.27,0-0.37,0.24-0.39,0.41H21.11z"/>
		<path d="M22.06,24.42c0-0.29,0-0.49-0.02-0.66h0.53l0.02,0.37h0.02c0.1-0.3,0.34-0.42,0.54-0.42c0.06,0,0.09,0,0.13,0.01v0.59
			c-0.05-0.01-0.1-0.02-0.17-0.02c-0.23,0-0.38,0.12-0.43,0.32c-0.01,0.04-0.01,0.09-0.01,0.14v1.01h-0.62V24.42z"/>
		<path d="M24.4,23.21v0.55h0.45v0.46H24.4v0.73c0,0.24,0.06,0.35,0.25,0.35c0.09,0,0.13,0,0.19-0.02l0,0.47
			c-0.08,0.03-0.23,0.05-0.4,0.05c-0.2,0-0.37-0.07-0.47-0.17c-0.11-0.12-0.17-0.31-0.17-0.59v-0.82h-0.27v-0.46h0.27v-0.38
			L24.4,23.21z"/>
		<path d="M25.21,25.22c0.12,0.07,0.35,0.15,0.54,0.15c0.19,0,0.27-0.06,0.27-0.16s-0.06-0.16-0.29-0.23
			c-0.42-0.14-0.58-0.37-0.58-0.6c0-0.38,0.32-0.66,0.82-0.66c0.23,0,0.44,0.06,0.56,0.12l-0.11,0.43
			c-0.09-0.04-0.27-0.11-0.44-0.11c-0.15,0-0.24,0.06-0.24,0.16c0,0.09,0.08,0.15,0.32,0.23c0.38,0.13,0.54,0.32,0.54,0.62
			c0,0.38-0.29,0.65-0.87,0.65c-0.26,0-0.5-0.06-0.65-0.14L25.21,25.22z"/>
		<path d="M28.46,23v1.59c0,0.48,0.18,0.72,0.5,0.72c0.33,0,0.51-0.23,0.51-0.72V23h0.62v1.55c0,0.85-0.43,1.26-1.15,1.26
			c-0.7,0-1.11-0.39-1.11-1.27V23H28.46z"/>
		<path d="M30.65,25.12c0.16,0.09,0.43,0.17,0.69,0.17c0.29,0,0.44-0.12,0.44-0.3c0-0.17-0.13-0.27-0.46-0.39
			c-0.46-0.16-0.76-0.42-0.76-0.82c0-0.47,0.4-0.83,1.05-0.83c0.31,0,0.54,0.06,0.71,0.14l-0.14,0.5c-0.11-0.05-0.31-0.13-0.58-0.13
			c-0.27,0-0.4,0.13-0.4,0.27c0,0.18,0.15,0.25,0.51,0.39c0.49,0.18,0.71,0.43,0.71,0.82c0,0.46-0.35,0.86-1.11,0.86
			c-0.32,0-0.63-0.09-0.78-0.17L30.65,25.12z"/>
		<path d="M33.49,25.05l-0.19,0.71h-0.65L33.49,23h0.82l0.86,2.77H34.5l-0.21-0.71H33.49z M34.19,24.59L34.02,24
			c-0.04-0.16-0.09-0.37-0.13-0.53h-0.01c-0.04,0.16-0.08,0.37-0.12,0.53l-0.17,0.59H34.19z"/>
		<path d="M36.99,23v2.77h-0.62V23H36.99z"/>
		<path d="M37.51,24.4c0-0.25-0.01-0.46-0.02-0.64h0.54l0.03,0.28h0.01c0.08-0.13,0.28-0.32,0.62-0.32c0.41,0,0.72,0.28,0.72,0.87
			v1.19h-0.62v-1.11c0-0.26-0.09-0.44-0.32-0.44c-0.17,0-0.27,0.12-0.32,0.23c-0.02,0.04-0.02,0.1-0.02,0.16v1.16h-0.62V24.4z"/>
		<path d="M41.42,25.71c-0.11,0.05-0.32,0.09-0.56,0.09c-0.65,0-1.06-0.4-1.06-1.03c0-0.58,0.4-1.06,1.15-1.06
			c0.16,0,0.35,0.03,0.48,0.08l-0.1,0.46c-0.07-0.03-0.18-0.06-0.35-0.06c-0.33,0-0.54,0.23-0.54,0.56c0,0.37,0.25,0.56,0.55,0.56
			c0.15,0,0.26-0.03,0.36-0.07L41.42,25.71z"/>
		<path d="M41.73,25.55c0-0.15,0.1-0.26,0.25-0.26c0.14,0,0.24,0.11,0.24,0.26c0,0.15-0.09,0.26-0.25,0.26
			C41.82,25.81,41.73,25.7,41.73,25.55z"/>
	</g>
</g>
</svg>
