<?xml version="1.0" encoding="utf-8"?>
<!-- Generator: Adobe Illustrator 25.0.1, SVG Export Plug-In . SVG Version: 6.00 Build 0)  -->
<svg version="1.0" id="Layer_1" xmlns="http://www.w3.org/2000/svg" xmlns:xlink="http://www.w3.org/1999/xlink" x="0px" y="0px"
	 viewBox="0 0 64.05 14.89" style="enable-background:new 0 0 64.05 14.89;" xml:space="preserve">
<style type="text/css">
	.st0{fill:#000104;}
	.st1{fill:#FFFFFF;}
	.st2{fill:#EF493E;}
	.st3{opacity:0.6;fill-rule:evenodd;clip-rule:evenodd;fill:#FBBE43;}
	.st4{opacity:0.6;fill-rule:evenodd;clip-rule:evenodd;fill:#EF930E;}
	.st5{opacity:0.6;fill-rule:evenodd;clip-rule:evenodd;fill:#E67906;}
	.st6{fill:#9F8829;}
	.st7{fill:#3972A6;}
	.st8{fill:url(#SVGID_1_);stroke:#2B53A4;stroke-width:0.5;stroke-miterlimit:10;}
	.st9{fill:none;}
	.st10{fill:url(#SVGID_2_);}
	.st11{fill:url(#SVGID_3_);}
	.st12{fill:#B3B3B3;}
	.st13{fill:url(#SVGID_4_);}
	.st14{fill:url(#SVGID_5_);}
	.st15{fill:url(#SVGID_6_);}
	.st16{fill:#FFFFFF;stroke:#FFFFFF;stroke-width:0.25;stroke-miterlimit:10;}
	.st17{fill:#00001D;}
	.st18{fill:#4DA0C5;}
	.st19{fill:url(#SVGID_7_);}
	.st20{fill:#2E6A85;}
	.st21{fill:none;stroke:#144FA1;stroke-width:0.113;stroke-linejoin:round;stroke-miterlimit:10;}
	.st22{fill:#F27337;}
	.st23{fill:#8EB8D4;}
	.st24{fill:#F38056;}
	.st25{fill:#626365;}
	.st26{fill:#EF6D23;}
	.st27{fill:#284B82;}
	.st28{fill:#242956;}
	.st29{fill:#15142A;}
	.st30{fill:#84C343;}
	.st31{fill:#4CA1C6;}
	.st32{fill:#121617;}
	.st33{fill:#CF8966;}
	.st34{fill:#F37639;}
	.st35{opacity:0.3;fill:url(#SVGID_8_);}
	.st36{fill:#373277;}
	.st37{fill:#E61E25;}
	.st38{fill:#2555A5;}
	.st39{fill:#2E225E;}
	.st40{fill:#F8A425;}
	.st41{fill:#2058A7;}
	.st42{fill:none;stroke:#205AA8;stroke-width:0.156;stroke-miterlimit:10;}
	.st43{fill:#49A3C7;}
	.st44{fill-rule:evenodd;clip-rule:evenodd;}
	.st45{fill-rule:evenodd;clip-rule:evenodd;fill:url(#SVGID_9_);}
	.st46{fill-rule:evenodd;clip-rule:evenodd;fill:url(#SVGID_10_);}
	.st47{fill-rule:evenodd;clip-rule:evenodd;fill:url(#SVGID_11_);}
	.st48{fill:#1D2251;}
	.st49{fill:#2260AC;}
	.st50{fill:url(#SVGID_12_);}
	.st51{fill:#FFFFFC;}
	.st52{fill:#4C9FC5;}
	.st53{fill:#28306D;}
	.st54{fill:#4C9EC5;}
	.st55{fill:#28306E;}
	.st56{fill:#29306F;}
	.st57{fill:#F7F7FB;}
	.st58{fill:url(#SVGID_13_);}
	.st59{fill:url(#SVGID_14_);}
	.st60{fill:url(#SVGID_15_);}
	.st61{fill:url(#SVGID_16_);}
	.st62{fill:#10123C;}
	.st63{fill:#F5842C;}
	.st64{fill:#1F305E;}
	.st65{fill:#87BBD1;}
	.st66{fill:#203160;}
	.st67{fill:#235779;}
	.st68{fill:#359FA1;}
	.st69{fill:#A4D1A4;}
	.st70{fill:#B9DBBC;}
	.st71{fill:#C6DDCA;}
	.st72{fill:#662E14;}
	.st73{fill:#1D79A4;}
	.st74{fill:#C14B28;}
	.st75{fill:url(#SVGID_17_);}
	.st76{fill:url(#SVGID_18_);}
	.st77{fill:url(#SVGID_19_);}
	.st78{fill:url(#SVGID_20_);}
	.st79{fill:url(#SVGID_21_);}
	.st80{fill:url(#SVGID_22_);}
	.st81{fill:url(#SVGID_23_);}
	.st82{fill:url(#SVGID_24_);}
	.st83{fill:url(#SVGID_25_);}
	.st84{fill:url(#SVGID_26_);}
	.st85{fill:url(#SVGID_27_);}
	.st86{fill:url(#SVGID_28_);}
	.st87{fill:url(#SVGID_29_);}
	.st88{fill:url(#SVGID_30_);}
	.st89{fill:#1F164B;}
	.st90{clip-path:url(#SVGID_32_);fill:#253D97;}
	.st91{fill:url(#SVGID_33_);}
	.st92{fill:url(#SVGID_34_);}
	.st93{fill:url(#SVGID_35_);}
	.st94{fill:url(#SVGID_36_);}
	.st95{fill:url(#SVGID_37_);}
	.st96{fill:url(#SVGID_38_);}
	.st97{fill:url(#SVGID_39_);}
	.st98{fill:url(#SVGID_40_);}
	.st99{fill:url(#SVGID_41_);}
	.st100{fill:#443F41;}
	.st101{fill:#28306F;}
	.st102{fill:#71C49D;}
	.st103{fill:#F0C6A7;}
	.st104{fill:#DB8D82;}
	.st105{fill:#EFB7AC;}
	.st106{opacity:0.21;}
	.st107{fill-rule:evenodd;clip-rule:evenodd;fill:#A9196E;}
	.st108{fill-rule:evenodd;clip-rule:evenodd;fill:#FBE42C;}
	.st109{fill:#FBE42C;}
	.st110{fill:#A9196E;}
	.st111{fill:#7FC143;}
	.st112{clip-path:url(#SVGID_45_);fill:#7FC143;}
	.st113{clip-path:url(#SVGID_51_);fill:#7FC143;}
	.st114{fill:#243F8F;}
	.st115{fill:#EF4E2F;}
	.st116{fill:#010007;}
	.st117{fill:#0C0D37;}
	.st118{fill:#FBAF2D;}
	.st119{fill:url(#SVGID_54_);}
	.st120{fill-rule:evenodd;clip-rule:evenodd;fill:#FFFFFF;}
	.st121{fill:#1D4690;}
	.st122{fill:#3AA949;}
	.st123{fill:#F37A24;}
	.st124{fill:none;stroke:#F37A24;stroke-width:3.7145;stroke-miterlimit:10;}
	.st125{fill:#3AA949;stroke:#FFFFFF;stroke-width:1.3104;stroke-miterlimit:10;}
	.st126{fill:#46A2BB;}
	.st127{fill:#7153A0;}
	.st128{fill:#27316C;}
	.st129{fill:#2C65AE;}
	.st130{fill:#452D7A;}
	.st131{fill:#442C7A;}
	.st132{fill:#1A2642;}
	.st133{fill-rule:evenodd;clip-rule:evenodd;fill:#567EB8;}
	.st134{fill-rule:evenodd;clip-rule:evenodd;fill:#6A7EB8;}
	.st135{fill-rule:evenodd;clip-rule:evenodd;fill:#6A7EB9;}
	.st136{fill-rule:evenodd;clip-rule:evenodd;fill:#EE3C2D;}
	.st137{fill-rule:evenodd;clip-rule:evenodd;fill:#EF493F;}
	.st138{fill-rule:evenodd;clip-rule:evenodd;fill:#ED2C24;}
	.st139{fill-rule:evenodd;clip-rule:evenodd;fill:#E9AE28;}
	.st140{fill-rule:evenodd;clip-rule:evenodd;fill:#D69B28;}
	.st141{fill-rule:evenodd;clip-rule:evenodd;fill:#FCB729;}
	.st142{fill-rule:evenodd;clip-rule:evenodd;fill:#409E47;}
	.st143{fill-rule:evenodd;clip-rule:evenodd;fill:#4BB450;}
	.st144{fill-rule:evenodd;clip-rule:evenodd;fill:#338440;}
	.st145{fill:#C09C36;}
	.st146{fill:#1E552A;}
	.st147{clip-path:url(#SVGID_56_);fill:url(#SVGID_57_);}
	.st148{fill:#023A1E;}
	.st149{fill:#FFFFFA;}
	.st150{fill:#0D4F28;}
	.st151{fill:#0E5128;}
	.st152{fill:#0D4E27;}
	.st153{fill:#0E5229;}
	.st154{fill:#0E4823;}
	.st155{fill:#0E4C27;}
	.st156{fill:#F3F6E0;}
	.st157{fill:#0E4F28;}
	.st158{fill:#114823;}
	.st159{fill:#105229;}
	.st160{fill:#0A4A2B;}
	.st161{fill:#134F27;}
	.st162{fill:#165229;}
	.st163{fill:#0D5029;}
	.st164{fill:#0B4E2B;}
	.st165{fill:#105028;}
	.st166{fill:#0A492A;}
	.st167{fill:#E9F3E2;}
	.st168{fill:#144D26;}
	.st169{fill:#185C2F;}
	.st170{fill:#0F5028;}
	.st171{fill:#F3F8EA;}
	.st172{fill:#114D26;}
	.st173{fill:#70A685;}
	.st174{fill:#0D4F2A;}
	.st175{fill:#094A24;}
	.st176{fill:#0F4F27;}
	.st177{fill:#0A4C26;}
	.st178{fill:#A2D29A;}
	.st179{fill:#4D7E44;}
	.st180{fill:#E8F2E1;}
	.st181{fill:#EDF5E5;}
	.st182{fill:#E6F2E7;}
	.st183{fill:#E5F1DC;}
	.st184{fill:#E9F3E3;}
	.st185{fill:#E9F3E5;}
	.st186{fill:#E5F1DB;}
	.st187{fill:#D8ECD7;}
	.st188{fill:#D9EBD4;}
	.st189{fill:#E2F0DE;}
	.st190{fill:#366B4B;}
	.st191{fill:#5D6162;}
	.st192{fill:#212E5F;}
	.st193{fill:#DD1F26;}
	.st194{clip-path:url(#SVGID_59_);}
	.st195{fill:#23396F;}
	.st196{fill:#7FC24E;}
	.st197{clip-path:url(#SVGID_59_);fill:#23396F;}
	.st198{clip-path:url(#SVGID_59_);fill:#7FC24E;}
	.st199{fill:#91CEA4;}
	.st200{fill:#90CEA4;}
	.st201{fill:#C02026;}
	.st202{fill:#362E7E;}
</style>
<g>
	<path class="st32" d="M33.55,1.41c0.44,1.05,0.89,2.09,1.33,3.14c0.77,1.83,1.51,3.67,2.3,5.49c0.2,0.47,0.55,0.87,0.84,1.31h-2.22
		c0.47-0.44,0.38-0.89,0.17-1.37c-0.2-0.47-0.38-0.95-0.53-1.43c-0.12-0.39-0.35-0.57-0.77-0.56C33.74,8.02,32.81,8.01,31.88,8
		c-0.37,0-0.59,0.13-0.71,0.49c-0.19,0.55-0.4,1.09-0.63,1.62c-0.19,0.44-0.26,0.84,0.2,1.18c-0.01,0.05-0.02,0.1-0.03,0.14
		c-0.65,0-1.31-0.06-1.95,0.01c-1.83,0.19-3.07-0.6-3.99-2.14c-0.59-0.99-1.35-1.87-2.08-2.86c0.21-0.02,0.44-0.03,0.66-0.05
		c1.06-0.1,1.76-0.73,1.92-1.71c0.2-1.22-0.19-2.26-1.07-2.55c-0.57-0.18-1.2-0.19-1.81-0.2c-0.38-0.01-0.59,0.26-0.59,0.66
		c0,2.6-0.01,5.2,0.02,7.81c0,0.31,0.24,0.62,0.38,0.96h-1.88c0.68-0.63,0.52-1.42,0.52-2.17c0.01-2.02-0.01-4.04,0.01-6.07
		c0-0.62-0.07-1.19-0.69-1.6c1.43,0,2.78-0.08,4.11,0.02c1.13,0.08,1.89,0.87,2.05,1.83c0.24,1.46-0.27,2.67-1.38,3.26
		c-0.2,0.11-0.41,0.19-0.76,0.35c1.13,1.34,2.16,2.69,3.34,3.89c0.76,0.78,1.61,0.5,2.09-0.57c0.69-1.54,1.32-3.1,1.98-4.66
		c0.52-1.23,1.02-2.47,1.54-3.7c0.08-0.19,0.19-0.36,0.28-0.54C33.45,1.41,33.5,1.41,33.55,1.41 M33.37,3.14
		c-0.07,0.05-0.11,0.06-0.12,0.09c-0.52,1.3-1.05,2.6-1.57,3.9c-0.13,0.34,0.04,0.45,0.35,0.45c0.79,0,1.58,0.01,2.37,0
		c0.6-0.01,0.66-0.09,0.45-0.64C34.43,5.8,34,4.67,33.58,3.54C33.52,3.4,33.44,3.28,33.37,3.14"/>
	<path class="st33" d="M16.28,13.84c-1.74,0.36-3.43-0.54-4.04-2.31c-0.41-1.18-0.56-2.46-0.78-3.7c-0.22-1.26-0.39-2.52-0.58-3.79
		C10.82,4.03,10.75,4.02,10.69,4c-1.14,2.53-2.27,5.05-3.44,7.66c-1.2-2.59-2.37-5.12-3.61-7.8c-0.1,0.31-0.18,0.47-0.2,0.64
		c-0.18,1.94-0.37,3.88-0.49,5.83c-0.02,0.33,0.28,0.69,0.43,1.03H1.22c0.88-0.42,0.99-1.12,1.07-1.87c0.19-1.87,0.4-3.74,0.65-5.6
		C3.18,2.04,2.06,0.49,0.2,0.18C0.13,0.17,0.07,0.15,0,0.02c0.41,0,0.84-0.06,1.23,0.01c1.33,0.25,2.16,1.13,2.71,2.29
		c0.97,2.03,1.9,4.08,2.85,6.12c0.19,0.41,0.39,0.82,0.66,1.38c1.3-2.9,2.55-5.68,3.8-8.46c0.06,0.01,0.12,0.02,0.18,0.03
		c0.14,0.84,0.29,1.67,0.43,2.51c0.37,2.24,0.72,4.48,1.1,6.71c0.25,1.43,1.4,2.99,3.02,3.11C16.05,13.72,16.11,13.77,16.28,13.84"
		/>
	<path class="st32" d="M63.95,9.82c-0.18,0.49-0.35,0.99-0.55,1.48c-0.04,0.08-0.21,0.15-0.32,0.15c-1.7,0.01-3.4,0.01-5.12-0.06
		c0.53-0.45,0.58-1.01,0.58-1.6c-0.01-2.22-0.01-4.43,0-6.65c0-0.61-0.02-1.19-0.67-1.69c0.82,0,1.5,0.01,2.18,0
		c0.72-0.01,1.45,0.02,2.16-0.05c1.07-0.1,1.27,0.1,1.03,1.3c-0.29-0.78-0.87-0.83-1.51-0.8C61.16,1.91,60.6,1.9,60.03,1.9
		c-0.37,0-0.55,0.16-0.55,0.54c0.01,1.11-0.01,2.22,0.02,3.32c0.01,0.18,0.21,0.5,0.32,0.5c0.92-0.03,1.86,0.26,2.79-0.27v1.12
		c-0.74-0.59-1.6-0.33-2.41-0.35c-0.49-0.01-0.72,0.27-0.72,0.77c0.01,0.97,0.01,1.93,0,2.9c0,0.3,0.06,0.54,0.42,0.54
		c0.63,0.01,1.27,0.02,1.9,0c0.81-0.02,1.45-0.38,1.87-1.09c0.04-0.06,0.05-0.14,0.07-0.21C63.81,9.73,63.88,9.78,63.95,9.82"/>
	<path class="st32" d="M47.72,7.4c0.25,2.38-1.12,3.9-3.51,4.08c-2.17,0.16-4.13-0.81-4.94-2.54c-0.98-2.12-0.82-4.18,0.62-6.05
		c0.64-0.83,1.59-1.26,2.61-1.48c1.34-0.29,2.66-0.26,3.91,0.37c0.82,0.41,0.99,0.81,0.77,1.78c-0.06-0.06-0.11-0.1-0.14-0.16
		c-1.65-2.5-5.42-2.3-6.72,0.42c-0.88,1.84-0.83,3.74,0.25,5.5c0.9,1.46,2.32,1.93,3.96,1.7c1.68-0.24,2.6-1.34,3.02-2.92
		C47.6,7.9,47.64,7.72,47.72,7.4"/>
	<path class="st32" d="M50.09,11.29c0.63-0.39,0.62-0.99,0.62-1.6c-0.01-2.23-0.01-4.46,0-6.69c0-0.57-0.12-1.07-0.7-1.5h2.23
		C51.5,2.13,51.6,2.91,51.6,3.67c0,2.2,0.01,4.39-0.02,6.59c0,0.48,0.15,0.68,0.62,0.69c0.44,0.01,0.88,0.06,1.32,0.07
		c0.89,0.02,1.72-0.16,2.3-0.94c0.23,0.69-0.2,1.36-0.85,1.36c-1.6,0.01-3.19,0-4.79,0L50.09,11.29z"/>
	<path class="st32" d="M17.61,1.51c-0.72,0.48-0.7,1.11-0.7,1.75c0.01,2.25,0.01,4.5,0,6.75c0,0.52,0.1,0.98,0.64,1.36h-2.14
		c0.58-0.47,0.59-1.05,0.58-1.66c-0.01-2.23-0.01-4.46,0-6.69c0-0.57-0.07-1.08-0.68-1.51H17.61z"/>
	<g>
		<path class="st32" d="M19.32,14.85h-1.16v-2.24h0.26v2h0.9V14.85z"/>
		<path class="st32" d="M23.73,14.85h-0.29l-0.24-0.63h-0.95l-0.22,0.63h-0.29l0.86-2.24h0.27L23.73,14.85z M23.12,13.99l-0.35-0.96
			c-0.01-0.03-0.02-0.08-0.03-0.15h-0.01c-0.01,0.06-0.02,0.11-0.04,0.15l-0.35,0.96H23.12z"/>
		<path class="st32" d="M26.3,14.85v-2.24h0.64c0.19,0,0.35,0.05,0.46,0.14s0.17,0.22,0.17,0.37c0,0.13-0.03,0.24-0.1,0.33
			c-0.07,0.09-0.16,0.16-0.28,0.2v0.01c0.15,0.02,0.27,0.08,0.36,0.17c0.09,0.1,0.14,0.22,0.14,0.38c0,0.19-0.07,0.35-0.21,0.47
			c-0.14,0.12-0.31,0.18-0.52,0.18H26.3z M26.56,12.85v0.72h0.27c0.14,0,0.26-0.04,0.34-0.1s0.12-0.17,0.12-0.29
			c0-0.22-0.14-0.33-0.43-0.33H26.56z M26.56,13.81v0.81h0.36c0.15,0,0.27-0.04,0.36-0.11c0.08-0.07,0.13-0.17,0.13-0.3
			c0-0.26-0.18-0.4-0.54-0.4H26.56z"/>
		<path class="st32" d="M31.28,14.89c-0.32,0-0.57-0.11-0.76-0.31c-0.19-0.21-0.29-0.48-0.29-0.82c0-0.36,0.1-0.65,0.29-0.86
			s0.46-0.32,0.8-0.32c0.31,0,0.56,0.1,0.75,0.31c0.19,0.21,0.28,0.48,0.28,0.82c0,0.37-0.1,0.66-0.29,0.87
			C31.86,14.79,31.6,14.89,31.28,14.89z M31.3,12.81c-0.23,0-0.43,0.08-0.57,0.25s-0.22,0.39-0.22,0.67c0,0.28,0.07,0.5,0.21,0.67
			c0.14,0.17,0.33,0.25,0.56,0.25c0.25,0,0.44-0.08,0.58-0.24c0.14-0.16,0.21-0.38,0.21-0.67c0-0.3-0.07-0.52-0.21-0.69
			C31.73,12.89,31.54,12.81,31.3,12.81z"/>
		<path class="st32" d="M36.63,14.85h-0.31l-0.38-0.63c-0.04-0.06-0.07-0.11-0.1-0.15s-0.07-0.08-0.1-0.1
			c-0.04-0.03-0.07-0.04-0.11-0.06c-0.04-0.01-0.08-0.02-0.13-0.02h-0.22v0.95h-0.26v-2.24h0.67c0.1,0,0.19,0.01,0.27,0.04
			s0.16,0.06,0.22,0.11c0.06,0.05,0.11,0.11,0.14,0.19c0.04,0.07,0.05,0.16,0.05,0.26c0,0.08-0.01,0.15-0.04,0.21
			s-0.06,0.12-0.1,0.17c-0.04,0.05-0.1,0.09-0.16,0.13c-0.06,0.04-0.13,0.06-0.21,0.08v0.01c0.04,0.02,0.07,0.04,0.1,0.06
			s0.05,0.05,0.08,0.08c0.03,0.03,0.05,0.06,0.07,0.1s0.05,0.08,0.08,0.13L36.63,14.85z M35.29,12.85v0.81h0.36
			c0.07,0,0.13-0.01,0.18-0.03c0.06-0.02,0.1-0.05,0.14-0.09c0.04-0.04,0.07-0.08,0.1-0.14c0.02-0.05,0.04-0.11,0.04-0.18
			c0-0.12-0.04-0.21-0.12-0.28c-0.08-0.07-0.19-0.1-0.34-0.1H35.29z"/>
		<path class="st32" d="M40.92,14.85h-0.29l-0.24-0.63h-0.95l-0.22,0.63h-0.29l0.86-2.24h0.27L40.92,14.85z M40.3,13.99l-0.35-0.96
			c-0.01-0.03-0.02-0.08-0.04-0.15h-0.01c-0.01,0.06-0.02,0.11-0.04,0.15l-0.35,0.96H40.3z"/>
		<path class="st32" d="M44.58,12.85h-0.65v2h-0.26v-2h-0.65v-0.24h1.56V12.85z"/>
		<path class="st32" d="M47.93,14.89c-0.32,0-0.57-0.11-0.76-0.31c-0.19-0.21-0.29-0.48-0.29-0.82c0-0.36,0.1-0.65,0.29-0.86
			s0.46-0.32,0.8-0.32c0.31,0,0.56,0.1,0.75,0.31C48.91,13.1,49,13.37,49,13.7c0,0.37-0.1,0.66-0.29,0.87S48.26,14.89,47.93,14.89z
			 M47.95,12.81c-0.24,0-0.43,0.08-0.57,0.25s-0.22,0.39-0.22,0.67c0,0.28,0.07,0.5,0.21,0.67c0.14,0.17,0.33,0.25,0.56,0.25
			c0.25,0,0.44-0.08,0.58-0.24c0.14-0.16,0.21-0.38,0.21-0.67c0-0.3-0.07-0.52-0.21-0.69C48.38,12.89,48.2,12.81,47.95,12.81z"/>
		<path class="st32" d="M53.29,14.85h-0.31l-0.38-0.63c-0.03-0.06-0.07-0.11-0.1-0.15c-0.03-0.04-0.07-0.08-0.1-0.1
			c-0.03-0.03-0.07-0.04-0.11-0.06s-0.08-0.02-0.13-0.02h-0.21v0.95h-0.26v-2.24h0.67c0.1,0,0.19,0.01,0.27,0.04
			c0.08,0.02,0.15,0.06,0.21,0.11c0.06,0.05,0.11,0.11,0.14,0.19c0.03,0.07,0.05,0.16,0.05,0.26c0,0.08-0.01,0.15-0.04,0.21
			s-0.06,0.12-0.1,0.17c-0.04,0.05-0.1,0.09-0.16,0.13c-0.06,0.04-0.13,0.06-0.21,0.08v0.01c0.04,0.02,0.07,0.04,0.1,0.06
			c0.03,0.02,0.05,0.05,0.08,0.08c0.03,0.03,0.05,0.06,0.07,0.1c0.02,0.04,0.05,0.08,0.08,0.13L53.29,14.85z M51.95,12.85v0.81h0.36
			c0.07,0,0.13-0.01,0.18-0.03c0.06-0.02,0.1-0.05,0.14-0.09c0.04-0.04,0.07-0.08,0.1-0.14s0.03-0.11,0.03-0.18
			c0-0.12-0.04-0.21-0.12-0.28s-0.19-0.1-0.34-0.1H51.95z"/>
		<path class="st32" d="M56.11,14.85h-0.26v-2.24h0.26V14.85z"/>
		<path class="st32" d="M60.13,14.85h-1.19v-2.24h1.14v0.24H59.2v0.75h0.81v0.24H59.2v0.79h0.93V14.85z"/>
		<path class="st32" d="M62.69,14.76v-0.31c0.04,0.03,0.08,0.06,0.13,0.08c0.05,0.02,0.1,0.05,0.16,0.06
			c0.05,0.02,0.11,0.03,0.17,0.04c0.05,0.01,0.11,0.01,0.15,0.01c0.16,0,0.28-0.03,0.36-0.09c0.08-0.06,0.12-0.15,0.12-0.26
			c0-0.06-0.01-0.11-0.04-0.16s-0.06-0.09-0.11-0.12c-0.05-0.04-0.1-0.07-0.17-0.11c-0.06-0.03-0.13-0.07-0.21-0.11
			c-0.08-0.04-0.15-0.08-0.22-0.12c-0.07-0.04-0.13-0.09-0.18-0.13c-0.05-0.05-0.09-0.1-0.12-0.17c-0.03-0.06-0.04-0.13-0.04-0.22
			c0-0.1,0.02-0.19,0.07-0.27s0.1-0.14,0.18-0.19s0.16-0.09,0.25-0.11c0.09-0.02,0.19-0.04,0.29-0.04c0.22,0,0.38,0.03,0.48,0.08
			v0.3c-0.13-0.09-0.3-0.14-0.51-0.14c-0.06,0-0.12,0.01-0.17,0.02c-0.06,0.01-0.11,0.03-0.15,0.06c-0.04,0.03-0.08,0.06-0.11,0.1
			c-0.03,0.04-0.04,0.09-0.04,0.16c0,0.06,0.01,0.11,0.03,0.15s0.05,0.08,0.09,0.11s0.09,0.07,0.15,0.1
			c0.06,0.03,0.13,0.07,0.21,0.11c0.08,0.04,0.16,0.08,0.23,0.12c0.07,0.04,0.13,0.09,0.19,0.15c0.05,0.05,0.1,0.11,0.13,0.18
			s0.05,0.14,0.05,0.22c0,0.11-0.02,0.2-0.07,0.28c-0.04,0.08-0.1,0.14-0.17,0.19c-0.07,0.05-0.16,0.08-0.25,0.1s-0.2,0.03-0.3,0.03
			c-0.04,0-0.08,0-0.13-0.01c-0.05-0.01-0.11-0.01-0.16-0.03s-0.11-0.02-0.15-0.04C62.76,14.8,62.72,14.78,62.69,14.76z"/>
	</g>
</g>
</svg>
