<?xml version="1.0" encoding="utf-8"?>
<!-- Generator: Adobe Illustrator 25.0.1, SVG Export Plug-In . SVG Version: 6.00 Build 0)  -->
<svg version="1.0" id="Layer_1" xmlns="http://www.w3.org/2000/svg" xmlns:xlink="http://www.w3.org/1999/xlink" x="0px" y="0px"
	 viewBox="0 0 50.63 11.61" style="enable-background:new 0 0 50.63 11.61;" xml:space="preserve">
<style type="text/css">
	.st0{fill:#000104;}
	.st1{fill:#FFFFFF;}
	.st2{fill:#EF493E;}
	.st3{opacity:0.6;fill-rule:evenodd;clip-rule:evenodd;fill:#FBBE43;}
	.st4{opacity:0.6;fill-rule:evenodd;clip-rule:evenodd;fill:#EF930E;}
	.st5{opacity:0.6;fill-rule:evenodd;clip-rule:evenodd;fill:#E67906;}
	.st6{fill:#9F8829;}
	.st7{fill:#3972A6;}
	.st8{fill:url(#SVGID_1_);stroke:#2B53A4;stroke-width:0.5;stroke-miterlimit:10;}
	.st9{fill:none;}
	.st10{fill:url(#SVGID_2_);}
	.st11{fill:url(#SVGID_3_);}
	.st12{fill:#B3B3B3;}
	.st13{fill:url(#SVGID_4_);}
	.st14{fill:url(#SVGID_5_);}
	.st15{fill:url(#SVGID_6_);}
	.st16{fill:#FFFFFF;stroke:#FFFFFF;stroke-width:0.25;stroke-miterlimit:10;}
	.st17{fill:#00001D;}
	.st18{fill:#4DA0C5;}
	.st19{fill:url(#SVGID_7_);}
	.st20{fill:#2E6A85;}
	.st21{fill:none;stroke:#144FA1;stroke-width:0.113;stroke-linejoin:round;stroke-miterlimit:10;}
	.st22{fill:#F27337;}
	.st23{fill:#8EB8D4;}
	.st24{fill:#F38056;}
	.st25{fill:#626365;}
	.st26{fill:#EF6D23;}
	.st27{fill:#284B82;}
	.st28{fill:#242956;}
	.st29{fill:#15142A;}
	.st30{fill:#84C343;}
	.st31{fill:#4CA1C6;}
	.st32{fill:#121617;}
	.st33{fill:#CF8966;}
	.st34{fill:#F37639;}
	.st35{opacity:0.3;fill:url(#SVGID_8_);}
	.st36{fill:#373277;}
	.st37{fill:#E61E25;}
	.st38{fill:#2555A5;}
	.st39{fill:#2E225E;}
	.st40{fill:#F8A425;}
	.st41{fill:#2058A7;}
	.st42{fill:none;stroke:#205AA8;stroke-width:0.156;stroke-miterlimit:10;}
	.st43{fill:#49A3C7;}
	.st44{fill-rule:evenodd;clip-rule:evenodd;}
	.st45{fill-rule:evenodd;clip-rule:evenodd;fill:url(#SVGID_9_);}
	.st46{fill-rule:evenodd;clip-rule:evenodd;fill:url(#SVGID_10_);}
	.st47{fill-rule:evenodd;clip-rule:evenodd;fill:url(#SVGID_11_);}
	.st48{fill:#1D2251;}
	.st49{fill:#2260AC;}
	.st50{fill:url(#SVGID_12_);}
	.st51{fill:#FFFFFC;}
	.st52{fill:#4C9FC5;}
	.st53{fill:#28306D;}
	.st54{fill:#4C9EC5;}
	.st55{fill:#28306E;}
	.st56{fill:#29306F;}
	.st57{fill:#F7F7FB;}
	.st58{fill:url(#SVGID_13_);}
	.st59{fill:url(#SVGID_14_);}
	.st60{fill:url(#SVGID_15_);}
	.st61{fill:url(#SVGID_16_);}
	.st62{fill:#10123C;}
	.st63{fill:#F5842C;}
	.st64{fill:#1F305E;}
	.st65{fill:#87BBD1;}
	.st66{fill:#203160;}
	.st67{fill:#235779;}
	.st68{fill:#359FA1;}
	.st69{fill:#A4D1A4;}
	.st70{fill:#B9DBBC;}
	.st71{fill:#C6DDCA;}
	.st72{fill:#662E14;}
	.st73{fill:#1D79A4;}
	.st74{fill:#C14B28;}
	.st75{fill:url(#SVGID_17_);}
	.st76{fill:url(#SVGID_18_);}
	.st77{fill:url(#SVGID_19_);}
	.st78{fill:url(#SVGID_20_);}
	.st79{fill:url(#SVGID_21_);}
	.st80{fill:url(#SVGID_22_);}
	.st81{fill:url(#SVGID_23_);}
	.st82{fill:url(#SVGID_24_);}
	.st83{fill:url(#SVGID_25_);}
	.st84{fill:url(#SVGID_26_);}
	.st85{fill:url(#SVGID_27_);}
	.st86{fill:url(#SVGID_28_);}
	.st87{fill:url(#SVGID_29_);}
	.st88{fill:url(#SVGID_30_);}
	.st89{fill:#1F164B;}
	.st90{clip-path:url(#SVGID_32_);fill:#253D97;}
	.st91{fill:url(#SVGID_33_);}
	.st92{fill:url(#SVGID_34_);}
	.st93{fill:url(#SVGID_35_);}
	.st94{fill:url(#SVGID_36_);}
	.st95{fill:url(#SVGID_37_);}
	.st96{fill:url(#SVGID_38_);}
	.st97{fill:url(#SVGID_39_);}
	.st98{fill:url(#SVGID_40_);}
	.st99{fill:url(#SVGID_41_);}
	.st100{fill:#443F41;}
	.st101{fill:#28306F;}
	.st102{fill:#71C49D;}
	.st103{fill:#F0C6A7;}
	.st104{fill:#DB8D82;}
	.st105{fill:#EFB7AC;}
	.st106{opacity:0.21;}
	.st107{fill-rule:evenodd;clip-rule:evenodd;fill:#A9196E;}
	.st108{fill-rule:evenodd;clip-rule:evenodd;fill:#FBE42C;}
	.st109{fill:#FBE42C;}
	.st110{fill:#A9196E;}
	.st111{fill:#7FC143;}
	.st112{clip-path:url(#SVGID_45_);fill:#7FC143;}
	.st113{clip-path:url(#SVGID_51_);fill:#7FC143;}
	.st114{fill:#243F8F;}
	.st115{fill:#EF4E2F;}
	.st116{fill:#010007;}
	.st117{fill:#0C0D37;}
	.st118{fill:#FBAF2D;}
	.st119{fill:url(#SVGID_54_);}
	.st120{fill-rule:evenodd;clip-rule:evenodd;fill:#FFFFFF;}
	.st121{fill:#1D4690;}
	.st122{fill:#3AA949;}
	.st123{fill:#F37A24;}
	.st124{fill:none;stroke:#F37A24;stroke-width:3.7145;stroke-miterlimit:10;}
	.st125{fill:#3AA949;stroke:#FFFFFF;stroke-width:1.3104;stroke-miterlimit:10;}
	.st126{fill:#46A2BB;}
	.st127{fill:#7153A0;}
	.st128{fill:#27316C;}
	.st129{fill:#2C65AE;}
	.st130{fill:#452D7A;}
	.st131{fill:#442C7A;}
	.st132{fill:#1A2642;}
	.st133{fill-rule:evenodd;clip-rule:evenodd;fill:#567EB8;}
	.st134{fill-rule:evenodd;clip-rule:evenodd;fill:#6A7EB8;}
	.st135{fill-rule:evenodd;clip-rule:evenodd;fill:#6A7EB9;}
	.st136{fill-rule:evenodd;clip-rule:evenodd;fill:#EE3C2D;}
	.st137{fill-rule:evenodd;clip-rule:evenodd;fill:#EF493F;}
	.st138{fill-rule:evenodd;clip-rule:evenodd;fill:#ED2C24;}
	.st139{fill-rule:evenodd;clip-rule:evenodd;fill:#E9AE28;}
	.st140{fill-rule:evenodd;clip-rule:evenodd;fill:#D69B28;}
	.st141{fill-rule:evenodd;clip-rule:evenodd;fill:#FCB729;}
	.st142{fill-rule:evenodd;clip-rule:evenodd;fill:#409E47;}
	.st143{fill-rule:evenodd;clip-rule:evenodd;fill:#4BB450;}
	.st144{fill-rule:evenodd;clip-rule:evenodd;fill:#338440;}
	.st145{fill:#C09C36;}
	.st146{fill:#1E552A;}
	.st147{clip-path:url(#SVGID_56_);fill:url(#SVGID_57_);}
	.st148{fill:#023A1E;}
	.st149{fill:#FFFFFA;}
	.st150{fill:#0D4F28;}
	.st151{fill:#0E5128;}
	.st152{fill:#0D4E27;}
	.st153{fill:#0E5229;}
	.st154{fill:#0E4823;}
	.st155{fill:#0E4C27;}
	.st156{fill:#F3F6E0;}
	.st157{fill:#0E4F28;}
	.st158{fill:#114823;}
	.st159{fill:#105229;}
	.st160{fill:#0A4A2B;}
	.st161{fill:#134F27;}
	.st162{fill:#165229;}
	.st163{fill:#0D5029;}
	.st164{fill:#0B4E2B;}
	.st165{fill:#105028;}
	.st166{fill:#0A492A;}
	.st167{fill:#E9F3E2;}
	.st168{fill:#144D26;}
	.st169{fill:#185C2F;}
	.st170{fill:#0F5028;}
	.st171{fill:#F3F8EA;}
	.st172{fill:#114D26;}
	.st173{fill:#70A685;}
	.st174{fill:#0D4F2A;}
	.st175{fill:#094A24;}
	.st176{fill:#0F4F27;}
	.st177{fill:#0A4C26;}
	.st178{fill:#A2D29A;}
	.st179{fill:#4D7E44;}
	.st180{fill:#E8F2E1;}
	.st181{fill:#EDF5E5;}
	.st182{fill:#E6F2E7;}
	.st183{fill:#E5F1DC;}
	.st184{fill:#E9F3E3;}
	.st185{fill:#E9F3E5;}
	.st186{fill:#E5F1DB;}
	.st187{fill:#D8ECD7;}
	.st188{fill:#D9EBD4;}
	.st189{fill:#E2F0DE;}
	.st190{fill:#366B4B;}
	.st191{fill:#5D6162;}
	.st192{fill:#212E5F;}
	.st193{fill:#DD1F26;}
	.st194{clip-path:url(#SVGID_59_);}
	.st195{fill:#23396F;}
	.st196{fill:#7FC24E;}
	.st197{clip-path:url(#SVGID_59_);fill:#23396F;}
	.st198{clip-path:url(#SVGID_59_);fill:#7FC24E;}
	.st199{fill:#91CEA4;}
	.st200{fill:#90CEA4;}
	.st201{fill:#C02026;}
	.st202{fill:#362E7E;}
</style>
<g>
	<rect x="24.8" class="st30" width="1.97" height="11.61"/>
	<path class="st30" d="M43.33,7.51c-0.09-0.24-0.23-0.47-0.41-0.66c-0.17-0.19-0.39-0.36-0.65-0.51c-0.24-0.14-0.52-0.29-0.84-0.42
		L41.41,5.9l-2.53-0.79c-0.47-0.18-0.53-0.47-0.53-0.7c0-0.09,0.03-0.17,0.08-0.25c0.06-0.09,0.15-0.18,0.26-0.25
		c0.12-0.08,0.26-0.14,0.43-0.18c0.17-0.04,0.36-0.07,0.55-0.07c0.2,0,0.39,0.02,0.58,0.06c0.17,0.04,0.32,0.1,0.45,0.19
		c0.12,0.08,0.21,0.19,0.28,0.32c0.07,0.13,0.1,0.31,0.1,0.52v0.32h2.14V4.78c0-0.5-0.09-0.95-0.26-1.33
		c-0.17-0.39-0.42-0.72-0.74-0.97c-0.31-0.25-0.69-0.45-1.11-0.57c-0.42-0.12-0.88-0.19-1.38-0.19c-0.51,0-0.98,0.07-1.4,0.2
		c-0.43,0.13-0.8,0.32-1.11,0.57c-0.32,0.25-0.57,0.55-0.74,0.9c-0.18,0.35-0.27,0.75-0.27,1.17c0,1.15,0.57,2,1.68,2.51l0.02,0.01
		l2.72,0.85c0.35,0.16,0.49,0.28,0.54,0.34c0.07,0.09,0.11,0.18,0.11,0.29c0,0.28-0.12,0.49-0.37,0.66
		c-0.29,0.19-0.68,0.29-1.18,0.29c-0.61,0-1.07-0.15-1.35-0.44c-0.06-0.06-0.1-0.11-0.14-0.16c-0.03-0.04-0.04-0.09-0.06-0.14
		c-0.01-0.05-0.02-0.12-0.03-0.19h-2.19c0.09,0.87,0.41,1.56,0.97,2.05c0.65,0.57,1.58,0.85,2.78,0.85c0.56,0,1.08-0.08,1.54-0.23
		c0.47-0.15,0.87-0.37,1.19-0.65c0.33-0.28,0.59-0.61,0.77-0.99c0.18-0.38,0.27-0.8,0.27-1.25C43.47,8.04,43.42,7.75,43.33,7.51z"/>
	<path class="st30" d="M50.63,9.28c-0.02-0.09-0.03-0.21-0.03-0.35V4.69c0-0.56-0.08-1.04-0.24-1.43c-0.16-0.41-0.41-0.74-0.74-1
		c-0.32-0.25-0.72-0.43-1.19-0.54c-0.45-0.1-0.97-0.15-1.55-0.15c-0.58,0-1.1,0.07-1.57,0.2c-0.48,0.14-0.89,0.35-1.23,0.63
		c-0.35,0.28-0.62,0.64-0.8,1.06C43.1,3.87,43,4.35,43,4.89v0.2h2.24v-0.2c0-0.45,0.13-0.77,0.39-0.97c0.28-0.22,0.7-0.33,1.25-0.33
		c0.29,0,0.54,0.02,0.75,0.07c0.19,0.04,0.35,0.11,0.47,0.21c0.12,0.09,0.21,0.22,0.27,0.38c0.07,0.17,0.1,0.4,0.1,0.69v0.15
		l-0.6,0.08c-1.69,0.19-2.86,0.45-3.57,0.78c-1.1,0.52-1.66,1.41-1.66,2.66c0,0.45,0.08,0.87,0.23,1.23
		c0.15,0.37,0.38,0.68,0.66,0.94c0.28,0.26,0.63,0.46,1.03,0.6c0.39,0.13,0.82,0.2,1.28,0.2c1.08,0,2.04-0.38,2.87-1.12
		c0.32,0.84,1.02,1.04,1.6,1.04c0.08,0,0.15,0,0.22-0.01c0.03,0,0.06-0.01,0.09-0.01V9.28z M48.46,7.8c0,0.23-0.05,0.44-0.17,0.64
		c-0.12,0.21-0.28,0.4-0.48,0.56c-0.2,0.16-0.45,0.3-0.73,0.4c-0.28,0.1-0.58,0.15-0.9,0.15c-0.42,0-0.75-0.09-0.96-0.28
		c-0.2-0.17-0.3-0.42-0.3-0.76c0-0.17,0.02-0.32,0.07-0.44c0.04-0.11,0.12-0.2,0.22-0.29c0.12-0.1,0.29-0.19,0.49-0.27
		c0.22-0.09,0.5-0.17,0.81-0.24c0.25-0.05,0.47-0.1,0.67-0.14c0.19-0.04,0.38-0.07,0.55-0.1c0.17-0.03,0.34-0.05,0.51-0.08
		c0.06-0.01,0.13-0.02,0.2-0.03V7.8z"/>
	<g>
		<g>
			<path class="st31" d="M30.53,11.3c0.02-0.01,0.04-0.02,0.06-0.04c0.55-0.33,1.1-0.68,1.62-1.06c0.59-0.43,1.13-0.91,1.6-1.47
				c0.21-0.25,0.39-0.51,0.56-0.78c0-0.01,0.01-0.01,0.02-0.02c0,0.01-0.01,0.03-0.01,0.04c-0.18,0.49-0.45,0.92-0.78,1.32
				c-0.39,0.47-0.85,0.88-1.34,1.26c-0.4,0.3-0.81,0.58-1.24,0.84c-0.01,0-0.01,0.01-0.02,0.01l0.66,0.07c0.09,0,0.18,0,0.27-0.01
				c0.61-0.04,1.17-0.21,1.69-0.51c0.77-0.45,1.32-1.08,1.65-1.9c0.09-0.23,0.16-0.47,0.2-0.71c0-0.02,0.01-0.03,0.01-0.05
				l0.04-0.39c0-0.07,0-0.14,0-0.22c0-0.72-0.2-1.38-0.59-2c-0.08-0.13-0.18-0.25-0.28-0.38c-0.01-0.01-0.02-0.02-0.03-0.03
				c-0.01,0.03-0.02,0.06-0.03,0.09c-0.19,0.63-0.55,1.14-1.07,1.56c-0.31,0.25-0.65,0.46-0.99,0.66c-0.32,0.19-0.64,0.38-0.94,0.59
				c-0.29,0.21-0.56,0.45-0.76,0.75c-0.19,0.28-0.31,0.59-0.37,0.92c-0.08,0.48-0.05,0.96,0.04,1.44
				C30.52,11.28,30.52,11.29,30.53,11.3z"/>
		</g>
	</g>
	<path class="st31" d="M22.32,8.61c-0.27,0-0.54,0-0.81,0c-0.07,0-0.17,0.01-0.26,0.06c-0.01,0.01-0.03,0.01-0.04,0.02
		C21.09,8.75,21,8.87,20.87,8.94c-0.13,0.07-0.28,0.12-0.42,0.16c-0.28,0.06-0.57,0.06-0.85,0.03C18.39,8.96,17.41,8,17.33,6.77
		c0-0.05-0.01-0.1-0.01-0.15c-0.01-0.33-0.02-0.65-0.09-0.97c-0.17-0.84-0.52-1.58-1.05-2.21c-0.48-0.57-1.06-1.01-1.74-1.33
		c-0.44-0.2-0.9-0.34-1.37-0.4c-0.49-0.06-0.98-0.08-1.46,0.03c-0.3,0.07-0.61,0.13-0.9,0.23c-0.61,0.22-1.16,0.56-1.64,1.01
		C8.93,3.1,8.8,3.23,8.66,3.37C8.64,3.34,8.61,3.32,8.58,3.29c-0.3-0.33-0.64-0.62-1.02-0.86C6.95,2.04,6.29,1.79,5.57,1.71
		C4.98,1.63,4.39,1.65,3.8,1.8C3.25,1.93,2.74,2.15,2.26,2.46C1.64,2.86,1.14,3.38,0.75,4C0.4,4.56,0.18,5.16,0.07,5.8
		C0.03,6.1,0.01,6.4,0.01,6.7C0,7.38,0,8.06,0,8.74c0,0.03,0,0.05,0,0.08v2.7h1.07c0.69,0,1.25-0.56,1.27-1.25c0,0,0,0,0,0
		c0.04-0.17,0.02-0.33,0.02-0.5V8.93V7.92v-0.6h0c0-0.23,0-0.45,0-0.68c0-0.49,0.12-0.97,0.38-1.39c0.43-0.69,1.06-1.09,1.86-1.2
		c0.55-0.07,1.08,0.02,1.56,0.3c0.84,0.49,1.29,1.24,1.32,2.2c0.03,0.91,0.01,1.82,0.01,2.74c0,0.31,0.09,0.6,0.22,0.87
		c0.25,0.52,0.69,0.94,1.22,1.16c0.26,0.11,0.53,0.18,0.81,0.17c0.07,0,0.11-0.02,0.11-0.1c0-0.04,0-0.08,0-0.12
		c0-1.55,0-3.1,0-4.65C9.85,6.3,9.89,5.99,10,5.7c0.38-0.94,1.07-1.51,2.08-1.66c0.52-0.08,1.04,0.01,1.51,0.27
		c0.88,0.5,1.35,1.25,1.37,2.27c0.01,0.52,0.09,1.02,0.25,1.52c0.37,1.17,1.2,2.16,2.27,2.76c0.48,0.27,0.99,0.46,1.53,0.56
		c1.11,0.21,2.3,0.04,3.31-0.47c0.39-0.2,0.76-0.45,1.09-0.74c0.37-0.33,0.69-0.71,0.98-1.16c0.02-0.04,0.04-0.07,0.04-0.1
		l0.01-0.02l0.11-0.31L22.32,8.61z"/>
	<g>
		<g>
			<g>
				<path class="st30" d="M40.42,1.67c-0.23-0.05-0.47-0.09-0.71-0.1c-0.34-0.01-0.67-0.01-1.01,0.04
					c-0.23,0.04-0.46,0.08-0.68,0.14c-0.37,0.1-0.71,0.25-1.04,0.44c-0.48,0.27-0.9,0.61-1.26,1.03c-0.39,0.44-0.7,0.94-0.92,1.48
					l0.15,0.17l0.01,0.01C34.98,4.9,34.99,4.91,35,4.93c0.03,0.04,0.06,0.08,0.09,0.12c0.07,0.1,0.15,0.19,0.22,0.3
					c0.44,0.69,0.67,1.46,0.68,2.28c0,0.05,0,0.11,0,0.16l0,0.07l0,0.02l0,0.02l-0.04,0.41l0,0.03l-0.01,0.02l-0.01,0.02l0,0.01
					c-0.05,0.28-0.13,0.56-0.23,0.81c-0.02,0.04-0.04,0.08-0.05,0.12c0.11-0.16,0.21-0.32,0.3-0.48c0.14-0.27,0.26-0.55,0.35-0.85
					c0.09-0.29,0.15-0.58,0.19-0.89c0.02-0.19,0.02-0.38,0.03-0.58c0-0.23,0.04-0.45,0.09-0.67c0.06-0.28,0.17-0.54,0.31-0.79
					c0.26-0.45,0.61-0.81,1.06-1.06c0.32-0.18,0.65-0.31,1.02-0.35c0.11-0.01,0.22-0.04,0.34-0.04c0.22-0.01,0.43,0.01,0.65,0.05
					c0.02-0.05,0.04-0.09,0.07-0.14c0.34-0.47,0.78-1.25,1.38-1.51C41.09,1.87,40.75,1.75,40.42,1.67z"/>
			</g>
			<g>
				<path class="st30" d="M35.17,3.18c-0.08-0.08-0.16-0.16-0.24-0.24c0,0,0-0.01,0.01-0.01c-0.02-0.02-0.03-0.04-0.05-0.06
					c-0.08-0.07-0.16-0.15-0.25-0.22c-0.59-0.46-1.24-0.79-1.97-0.96c-0.09-0.02-0.17-0.04-0.26-0.05c-0.1-0.02-0.2-0.03-0.3-0.05
					c-0.1-0.01-0.2-0.03-0.3-0.03c-0.07,0-0.15,0-0.22,0c0,0,0,0,0,0v0c-0.36,0-0.72,0.02-1.08,0.11c-0.29,0.07-0.57,0.14-0.85,0.26
					c-0.35,0.14-0.68,0.32-0.98,0.54c-0.54,0.38-0.98,0.85-1.34,1.4c-0.18,0.28-0.33,0.57-0.44,0.87C26.85,4.87,26.8,5,26.77,5.13
					c-0.05,0.18-0.08,0.36-0.12,0.53c-0.05,0.23-0.07,0.46-0.08,0.69C26.56,6.57,26.56,6.78,26.59,7c0.03,0.23,0.07,0.46,0.11,0.69
					c0.07,0.32,0.18,0.62,0.32,0.92c0.17,0.39,0.4,0.74,0.67,1.07c0.25,0.31,0.54,0.58,0.85,0.82c0.29,0.22,0.59,0.4,0.91,0.55
					c0.18,0.08,0.36,0.15,0.55,0.21c-0.08-0.53-0.08-0.98,0-1.4c0.05-0.26,0.12-0.5,0.23-0.72c-0.36-0.18-0.68-0.42-0.94-0.74
					c-0.36-0.44-0.58-0.93-0.65-1.5c-0.05-0.4-0.02-0.8,0.1-1.2c0.13-0.45,0.36-0.84,0.68-1.18c0.29-0.31,0.64-0.54,1.04-0.7
					c0.35-0.14,0.71-0.2,1.08-0.21c0.23,0,0.46,0.04,0.69,0.09c0.24,0.05,0.46,0.15,0.68,0.26c0.37,0.19,0.68,0.46,0.93,0.79
					c0.02,0.03,0.04,0.05,0.08,0.09c0,0,0,0,0-0.01c0.11,0.16,0.2,0.32,0.28,0.5C34.35,4.53,34.69,3.8,35.17,3.18z"/>
			</g>
		</g>
	</g>
	<path class="st31" d="M24.49,5.7c-0.06-0.44-0.18-0.87-0.36-1.27c-0.18-0.39-0.39-0.76-0.67-1.08c-0.34-0.38-0.72-0.72-1.16-0.98
		c-0.54-0.32-1.12-0.54-1.75-0.62c-0.33-0.04-0.68-0.04-1.02-0.02c-0.28,0.02-0.57,0.07-0.84,0.15c-0.3,0.09-0.58,0.22-0.86,0.34
		c-0.41,0.19-0.77,0.47-1.1,0.78c-0.05,0.04-0.04,0.08,0,0.12c0.06,0.07,0.12,0.13,0.17,0.2c0.64,0.88,0.99,1.86,0.99,2.96
		c0,0.36,0.09,0.7,0.26,1.01c0.04,0.08,0.1,0.11,0.19,0.11c0.98,0,1.97,0,2.95,0c0.02,0,0.05,0,0.07,0c0.97,0,1.93,0,2.9,0
		c0.09,0,0.14-0.03,0.15-0.12c0-0.05,0.01-0.1,0.02-0.15C24.54,6.65,24.55,6.18,24.49,5.7z M17.84,5.19
		c0.01-0.03,0.02-0.07,0.03-0.11l0.07,0.11C17.91,5.19,17.87,5.19,17.84,5.19z M19.57,5.19c-0.06-0.27-0.13-0.47-0.14-0.53
		c-0.05-0.2-0.13-0.42-0.21-0.64c0.14-0.05,0.27-0.08,0.4-0.1c1.06-0.12,1.99,0.43,2.41,1.26C21.21,5.19,20.39,5.19,19.57,5.19z"/>
</g>
</svg>
