<?xml version="1.0" encoding="utf-8"?>
<!-- Generator: Adobe Illustrator 25.0.1, SVG Export Plug-In . SVG Version: 6.00 Build 0)  -->
<svg version="1.0" id="Layer_1" xmlns="http://www.w3.org/2000/svg" xmlns:xlink="http://www.w3.org/1999/xlink" x="0px" y="0px"
	 viewBox="0 0 65.22 51.38" style="enable-background:new 0 0 65.22 51.38;" xml:space="preserve">
<style type="text/css">
	.st0{fill:#000104;}
	.st1{fill:#FFFFFF;}
	.st2{fill:#EF493E;}
	.st3{opacity:0.6;fill-rule:evenodd;clip-rule:evenodd;fill:#FBBE43;}
	.st4{opacity:0.6;fill-rule:evenodd;clip-rule:evenodd;fill:#EF930E;}
	.st5{opacity:0.6;fill-rule:evenodd;clip-rule:evenodd;fill:#E67906;}
	.st6{fill:#9F8829;}
	.st7{fill:#3972A6;}
	.st8{fill:url(#SVGID_1_);stroke:#2B53A4;stroke-width:0.5;stroke-miterlimit:10;}
	.st9{fill:none;}
	.st10{fill:url(#SVGID_2_);}
	.st11{fill:url(#SVGID_3_);}
	.st12{fill:#B3B3B3;}
	.st13{fill:url(#SVGID_4_);}
	.st14{fill:url(#SVGID_5_);}
	.st15{fill:url(#SVGID_6_);}
	.st16{fill:#FFFFFF;stroke:#FFFFFF;stroke-width:0.25;stroke-miterlimit:10;}
	.st17{fill:#00001D;}
	.st18{fill:#4DA0C5;}
	.st19{fill:url(#SVGID_7_);}
	.st20{fill:#2E6A85;}
	.st21{fill:none;stroke:#144FA1;stroke-width:0.113;stroke-linejoin:round;stroke-miterlimit:10;}
	.st22{fill:#F27337;}
	.st23{fill:#8EB8D4;}
	.st24{fill:#F38056;}
	.st25{fill:#626365;}
	.st26{fill:#EF6D23;}
	.st27{fill:#284B82;}
	.st28{fill:#242956;}
	.st29{fill:#15142A;}
	.st30{fill:#84C343;}
	.st31{fill:#4CA1C6;}
	.st32{fill:#121617;}
	.st33{fill:#CF8966;}
	.st34{fill:#F37639;}
	.st35{opacity:0.3;fill:url(#SVGID_8_);}
	.st36{fill:#373277;}
	.st37{fill:#E61E25;}
	.st38{fill:#2555A5;}
	.st39{fill:#2E225E;}
	.st40{fill:#F8A425;}
	.st41{fill:#2058A7;}
	.st42{fill:none;stroke:#205AA8;stroke-width:0.156;stroke-miterlimit:10;}
	.st43{fill:#49A3C7;}
	.st44{fill-rule:evenodd;clip-rule:evenodd;}
	.st45{fill-rule:evenodd;clip-rule:evenodd;fill:url(#SVGID_9_);}
	.st46{fill-rule:evenodd;clip-rule:evenodd;fill:url(#SVGID_10_);}
	.st47{fill-rule:evenodd;clip-rule:evenodd;fill:url(#SVGID_11_);}
	.st48{fill:#1D2251;}
	.st49{fill:#2260AC;}
	.st50{fill:url(#SVGID_12_);}
	.st51{fill:#FFFFFC;}
	.st52{fill:#4C9FC5;}
	.st53{fill:#28306D;}
	.st54{fill:#4C9EC5;}
	.st55{fill:#28306E;}
	.st56{fill:#29306F;}
	.st57{fill:#F7F7FB;}
	.st58{fill:url(#SVGID_13_);}
	.st59{fill:url(#SVGID_14_);}
	.st60{fill:url(#SVGID_15_);}
	.st61{fill:url(#SVGID_16_);}
	.st62{fill:#10123C;}
	.st63{fill:#F5842C;}
	.st64{fill:#1F305E;}
	.st65{fill:#87BBD1;}
	.st66{fill:#203160;}
	.st67{fill:#235779;}
	.st68{fill:#359FA1;}
	.st69{fill:#A4D1A4;}
	.st70{fill:#B9DBBC;}
	.st71{fill:#C6DDCA;}
	.st72{fill:#662E14;}
	.st73{fill:#1D79A4;}
	.st74{fill:#C14B28;}
	.st75{fill:url(#SVGID_17_);}
	.st76{fill:url(#SVGID_18_);}
	.st77{fill:url(#SVGID_19_);}
	.st78{fill:url(#SVGID_20_);}
	.st79{fill:url(#SVGID_21_);}
	.st80{fill:url(#SVGID_22_);}
	.st81{fill:url(#SVGID_23_);}
	.st82{fill:url(#SVGID_24_);}
	.st83{fill:url(#SVGID_25_);}
	.st84{fill:url(#SVGID_26_);}
	.st85{fill:url(#SVGID_27_);}
	.st86{fill:url(#SVGID_28_);}
	.st87{fill:url(#SVGID_29_);}
	.st88{fill:url(#SVGID_30_);}
	.st89{fill:#1F164B;}
	.st90{clip-path:url(#SVGID_32_);fill:#253D97;}
	.st91{fill:url(#SVGID_33_);}
	.st92{fill:url(#SVGID_34_);}
	.st93{fill:url(#SVGID_35_);}
	.st94{fill:url(#SVGID_36_);}
	.st95{fill:url(#SVGID_37_);}
	.st96{fill:url(#SVGID_38_);}
	.st97{fill:url(#SVGID_39_);}
	.st98{fill:url(#SVGID_40_);}
	.st99{fill:url(#SVGID_41_);}
	.st100{fill:#443F41;}
	.st101{fill:#28306F;}
	.st102{fill:#71C49D;}
	.st103{fill:#F0C6A7;}
	.st104{fill:#DB8D82;}
	.st105{fill:#EFB7AC;}
	.st106{opacity:0.21;}
	.st107{fill-rule:evenodd;clip-rule:evenodd;fill:#A9196E;}
	.st108{fill-rule:evenodd;clip-rule:evenodd;fill:#FBE42C;}
	.st109{fill:#FBE42C;}
	.st110{fill:#A9196E;}
	.st111{fill:#7FC143;}
	.st112{clip-path:url(#SVGID_45_);fill:#7FC143;}
	.st113{clip-path:url(#SVGID_51_);fill:#7FC143;}
	.st114{fill:#243F8F;}
	.st115{fill:#EF4E2F;}
	.st116{fill:#010007;}
	.st117{fill:#0C0D37;}
	.st118{fill:#FBAF2D;}
	.st119{fill:url(#SVGID_54_);}
	.st120{fill-rule:evenodd;clip-rule:evenodd;fill:#FFFFFF;}
	.st121{fill:#1D4690;}
	.st122{fill:#3AA949;}
	.st123{fill:#F37A24;}
	.st124{fill:none;stroke:#F37A24;stroke-width:3.7145;stroke-miterlimit:10;}
	.st125{fill:#3AA949;stroke:#FFFFFF;stroke-width:1.3104;stroke-miterlimit:10;}
	.st126{fill:#46A2BB;}
	.st127{fill:#7153A0;}
	.st128{fill:#27316C;}
	.st129{fill:#2C65AE;}
	.st130{fill:#452D7A;}
	.st131{fill:#442C7A;}
	.st132{fill:#1A2642;}
	.st133{fill-rule:evenodd;clip-rule:evenodd;fill:#567EB8;}
	.st134{fill-rule:evenodd;clip-rule:evenodd;fill:#6A7EB8;}
	.st135{fill-rule:evenodd;clip-rule:evenodd;fill:#6A7EB9;}
	.st136{fill-rule:evenodd;clip-rule:evenodd;fill:#EE3C2D;}
	.st137{fill-rule:evenodd;clip-rule:evenodd;fill:#EF493F;}
	.st138{fill-rule:evenodd;clip-rule:evenodd;fill:#ED2C24;}
	.st139{fill-rule:evenodd;clip-rule:evenodd;fill:#E9AE28;}
	.st140{fill-rule:evenodd;clip-rule:evenodd;fill:#D69B28;}
	.st141{fill-rule:evenodd;clip-rule:evenodd;fill:#FCB729;}
	.st142{fill-rule:evenodd;clip-rule:evenodd;fill:#409E47;}
	.st143{fill-rule:evenodd;clip-rule:evenodd;fill:#4BB450;}
	.st144{fill-rule:evenodd;clip-rule:evenodd;fill:#338440;}
	.st145{fill:#C09C36;}
	.st146{fill:#1E552A;}
	.st147{clip-path:url(#SVGID_56_);fill:url(#SVGID_57_);}
	.st148{fill:#023A1E;}
	.st149{fill:#FFFFFA;}
	.st150{fill:#0D4F28;}
	.st151{fill:#0E5128;}
	.st152{fill:#0D4E27;}
	.st153{fill:#0E5229;}
	.st154{fill:#0E4823;}
	.st155{fill:#0E4C27;}
	.st156{fill:#F3F6E0;}
	.st157{fill:#0E4F28;}
	.st158{fill:#114823;}
	.st159{fill:#105229;}
	.st160{fill:#0A4A2B;}
	.st161{fill:#134F27;}
	.st162{fill:#165229;}
	.st163{fill:#0D5029;}
	.st164{fill:#0B4E2B;}
	.st165{fill:#105028;}
	.st166{fill:#0A492A;}
	.st167{fill:#E9F3E2;}
	.st168{fill:#144D26;}
	.st169{fill:#185C2F;}
	.st170{fill:#0F5028;}
	.st171{fill:#F3F8EA;}
	.st172{fill:#114D26;}
	.st173{fill:#70A685;}
	.st174{fill:#0D4F2A;}
	.st175{fill:#094A24;}
	.st176{fill:#0F4F27;}
	.st177{fill:#0A4C26;}
	.st178{fill:#A2D29A;}
	.st179{fill:#4D7E44;}
	.st180{fill:#E8F2E1;}
	.st181{fill:#EDF5E5;}
	.st182{fill:#E6F2E7;}
	.st183{fill:#E5F1DC;}
	.st184{fill:#E9F3E3;}
	.st185{fill:#E9F3E5;}
	.st186{fill:#E5F1DB;}
	.st187{fill:#D8ECD7;}
	.st188{fill:#D9EBD4;}
	.st189{fill:#E2F0DE;}
	.st190{fill:#366B4B;}
	.st191{fill:#5D6162;}
	.st192{fill:#212E5F;}
	.st193{fill:#DD1F26;}
	.st194{clip-path:url(#SVGID_59_);}
	.st195{fill:#23396F;}
	.st196{fill:#7FC24E;}
	.st197{clip-path:url(#SVGID_59_);fill:#23396F;}
	.st198{clip-path:url(#SVGID_59_);fill:#7FC24E;}
	.st199{fill:#91CEA4;}
	.st200{fill:#90CEA4;}
	.st201{fill:#C02026;}
	.st202{fill:#362E7E;}
</style>
<g>
	<g>
		<path class="st128" d="M7.5,33.09c0.45-1.96,0.71-3.29,0.78-3.98c0.32,0,0.71,0,1.18,0c0.31,0,0.61,0,0.91,0c0.46,0,0.82,0,1.08,0
			c0.73,0,1.26,0.15,1.59,0.44c0.33,0.29,0.43,0.7,0.31,1.23c-0.09,0.41-0.32,0.78-0.68,1.1c-0.37,0.32-0.82,0.57-1.37,0.73
			c0.58,0.12,0.99,0.35,1.24,0.69c0.25,0.34,0.31,0.77,0.2,1.29c-0.15,0.65-0.5,1.21-1.05,1.68c-0.63,0.54-1.38,0.81-2.25,0.81
			c-0.28,0-0.56,0-0.83,0c-0.29,0-0.58,0-0.87,0c-0.52,0-0.94,0-1.26,0C6.72,36.4,7.06,35.07,7.5,33.09z M8.53,36.24h0.51
			c0.41,0,0.77-0.14,1.08-0.42c0.3-0.28,0.51-0.67,0.63-1.17c0.13-0.59,0.13-0.99-0.01-1.22s-0.43-0.34-0.88-0.34H9.23L8.53,36.24z
			 M9.43,32.26H10c0.77,0,1.25-0.41,1.42-1.22c0.17-0.73-0.11-1.1-0.84-1.1c-0.25,0-0.48,0.03-0.67,0.1L9.43,32.26z"/>
		<path class="st128" d="M16.42,31.39c0.84,0,1.47,0.27,1.87,0.8c0.41,0.54,0.51,1.24,0.32,2.12c-0.2,0.88-0.62,1.59-1.27,2.12
			c-0.65,0.54-1.39,0.8-2.24,0.8c-0.85,0-1.47-0.27-1.88-0.8s-0.51-1.24-0.31-2.12c0.19-0.88,0.62-1.59,1.26-2.12
			C14.83,31.66,15.57,31.39,16.42,31.39z M16.3,31.89c-0.43,0-0.77,0.19-1.03,0.56c-0.26,0.38-0.48,1-0.67,1.86
			c-0.21,0.95-0.26,1.61-0.13,1.98c0.11,0.3,0.35,0.45,0.73,0.45c0.42,0,0.76-0.19,1.02-0.56c0.26-0.38,0.49-1,0.69-1.86
			c0.21-0.95,0.25-1.61,0.11-1.98C16.93,32.04,16.68,31.89,16.3,31.89z"/>
		<path class="st128" d="M18.81,34.32c0.27-1.2,0.45-2.11,0.54-2.76h1.58l-0.16,0.7c0.63-0.58,1.29-0.86,1.98-0.86
			c0.62,0,1.05,0.17,1.31,0.52c0.26,0.34,0.31,0.83,0.17,1.46l-0.21,0.95c-0.28,1.26-0.46,2.18-0.54,2.76h-1.66
			c0.2-0.6,0.44-1.52,0.71-2.76l0.21-0.95c0.1-0.41,0.09-0.71-0.01-0.89c-0.1-0.18-0.32-0.27-0.65-0.27c-0.41,0-0.76,0.12-1.04,0.37
			c-0.28,0.25-0.47,0.6-0.58,1.06l-0.15,0.68c-0.28,1.26-0.46,2.18-0.54,2.76h-1.66C18.31,36.44,18.55,35.52,18.81,34.32z"/>
		<path class="st128" d="M29.57,34.32c-0.26,1.15-0.44,2.07-0.54,2.76h-1.57l0.16-0.7c-0.63,0.58-1.29,0.86-1.98,0.86
			c-0.62,0-1.05-0.17-1.31-0.51c-0.26-0.34-0.32-0.83-0.18-1.46l0.22-0.95c0.28-1.26,0.46-2.18,0.54-2.76h1.66
			c-0.2,0.6-0.44,1.52-0.71,2.76l-0.22,0.95c-0.09,0.41-0.08,0.71,0.02,0.89c0.11,0.18,0.32,0.27,0.65,0.27
			c0.41,0,0.76-0.12,1.04-0.37c0.28-0.25,0.47-0.6,0.57-1.06l0.16-0.68c0.26-1.16,0.44-2.08,0.54-2.76h1.66
			C30.07,32.19,29.83,33.11,29.57,34.32z"/>
		<path class="st128" d="M30.05,34.32c0.27-1.2,0.45-2.11,0.54-2.76h1.58l-0.16,0.7c0.63-0.58,1.26-0.86,1.91-0.86
			c0.89,0,1.37,0.34,1.45,1.03c0.69-0.69,1.38-1.03,2.09-1.03c1.22,0,1.69,0.66,1.38,1.97l-0.21,0.95
			c-0.28,1.24-0.46,2.16-0.54,2.76h-1.66c0.19-0.59,0.43-1.51,0.71-2.76l0.21-0.95c0.1-0.42,0.1-0.72,0.01-0.89s-0.29-0.26-0.6-0.26
			c-0.37,0-0.69,0.13-0.96,0.38c-0.27,0.26-0.46,0.61-0.57,1.05l-0.15,0.67c-0.28,1.24-0.46,2.16-0.54,2.76h-1.66
			c0.19-0.59,0.43-1.51,0.71-2.76l0.21-0.95c0.1-0.42,0.1-0.72,0.01-0.89c-0.09-0.17-0.29-0.26-0.6-0.26
			c-0.37,0-0.69,0.13-0.96,0.38c-0.27,0.26-0.46,0.61-0.57,1.05l-0.15,0.67c-0.28,1.24-0.46,2.16-0.54,2.76h-1.66
			C29.55,36.45,29.78,35.53,30.05,34.32z"/>
		<path class="st129" d="M41.93,34.59l1-1.61c1.34-2.17,2.13-3.52,2.38-4.06h1.14c-0.18,0.23-0.38,0.52-0.61,0.88
			c-0.23,0.35-0.88,1.37-1.94,3.06c-1.38,2.23-2.18,3.57-2.39,4.02h-1.15c-0.02-0.45-0.22-1.79-0.61-4.02
			c-0.37-2.17-0.63-3.49-0.77-3.94h2.09c0.02,0.69,0.21,2.04,0.56,4.04L41.93,34.59z"/>
		<path class="st129" d="M45.4,34.12c0.28-1.26,0.46-2.18,0.54-2.76h1.66c-0.2,0.63-0.44,1.55-0.7,2.76
			c-0.27,1.2-0.45,2.11-0.54,2.76h-1.66C44.89,36.28,45.13,35.36,45.4,34.12z M46.38,29.09c0.05-0.24,0.18-0.45,0.4-0.62
			c0.21-0.17,0.45-0.26,0.7-0.26c0.25,0,0.44,0.09,0.58,0.26c0.14,0.17,0.18,0.38,0.13,0.63c-0.06,0.24-0.19,0.45-0.41,0.62
			c-0.22,0.17-0.45,0.26-0.7,0.26c-0.25,0-0.44-0.09-0.58-0.26C46.36,29.54,46.32,29.33,46.38,29.09z"/>
		<path class="st129" d="M50.51,28.92c-0.21,0.64-0.42,1.46-0.63,2.45c0.62,0,1.03,0,1.2,0l-0.13,0.58
			c-0.18-0.02-0.58-0.03-1.2-0.03l-0.92,4.09c-0.08,0.36,0.03,0.55,0.34,0.55c0.13,0,0.26-0.04,0.41-0.12
			c0.14-0.08,0.27-0.18,0.38-0.31h0.06l-0.17,0.76c-0.32,0.11-0.67,0.17-1.06,0.17c-0.55,0-0.94-0.14-1.17-0.42
			c-0.23-0.28-0.28-0.68-0.16-1.21l0.79-3.51c-0.4,0-0.69,0.01-0.88,0.03l0.13-0.58c0.19,0,0.48,0,0.87,0
			c0.16-0.76,0.27-1.37,0.32-1.83L50.51,28.92z"/>
		<path class="st129" d="M51.78,34.15c-0.19,0.84-0.21,1.45-0.07,1.83c0.14,0.38,0.46,0.57,0.97,0.57c0.59,0,1.19-0.27,1.81-0.82
			l-0.18,0.83c-0.55,0.33-1.25,0.49-2.09,0.49c-0.77,0-1.36-0.24-1.76-0.71c-0.45-0.53-0.57-1.26-0.36-2.19
			c0.21-0.89,0.61-1.61,1.2-2.14c0.59-0.54,1.28-0.8,2.05-0.8c0.79,0,1.34,0.26,1.66,0.77c0.31,0.51,0.36,1.24,0.15,2.18H51.78z
			 M51.9,33.6h1.69c0.15-0.66,0.2-1.14,0.13-1.45c-0.06-0.3-0.24-0.46-0.53-0.46c-0.27,0-0.52,0.17-0.75,0.5
			C52.22,32.54,52.04,33,51.9,33.6z"/>
		<path class="st129" d="M56.04,31.62c0.68-0.28,1.36-0.42,2.05-0.42c1.6,0,2.27,0.59,2,1.78l-0.26,1.14
			c-0.28,1.26-0.46,2.18-0.54,2.76h-1.57l0.17-0.73c-0.56,0.6-1.19,0.9-1.9,0.9c-0.48,0-0.83-0.14-1.07-0.41
			c-0.24-0.27-0.31-0.62-0.21-1.04c0.1-0.45,0.35-0.83,0.76-1.16c0.41-0.32,1.02-0.63,1.84-0.91l1.27-0.44l0.07-0.36
			c0.16-0.69-0.07-1.03-0.7-1.03c-0.64,0-1.33,0.29-2.05,0.86h-0.07L56.04,31.62z M58.46,33.65l-1.16,0.41
			c-0.28,0.1-0.49,0.22-0.63,0.38c-0.14,0.15-0.24,0.38-0.31,0.67c-0.07,0.31-0.06,0.57,0.02,0.79c0.09,0.22,0.22,0.33,0.4,0.33
			c0.27,0,0.54-0.12,0.83-0.37c0.29-0.25,0.47-0.52,0.53-0.83L58.46,33.65z"/>
	</g>
	<g>
		<g>
			<path class="st130" d="M43.15,42l0.15-0.27c0.24-0.43,0.42-0.76,0.52-0.96h0.25c0.01,0.21,0.03,0.51,0.07,0.92l0.03,0.3
				l0.15-0.27c0.29-0.5,0.46-0.82,0.52-0.95h0.25c-0.11,0.17-0.29,0.46-0.53,0.87c-0.22,0.39-0.39,0.69-0.49,0.89h-0.25
				c-0.01-0.25-0.03-0.56-0.07-0.93l-0.03-0.27l-0.14,0.26c-0.34,0.61-0.51,0.92-0.52,0.93H42.8c-0.01-0.17-0.04-0.47-0.08-0.89
				c-0.05-0.44-0.08-0.73-0.12-0.87h0.45c0,0.09,0.02,0.4,0.07,0.95L43.15,42z"/>
			<path class="st130" d="M45.85,41.71c-0.12-0.01-0.29-0.02-0.5-0.02h-0.06l-0.15,0.65h0.09c0.24,0,0.41-0.01,0.51-0.04l-0.05,0.22
				c-0.07,0-0.23,0-0.5,0c-0.26,0-0.43,0-0.5,0c0.05-0.15,0.13-0.44,0.23-0.88c0.1-0.43,0.16-0.73,0.17-0.88c0.07,0,0.24,0,0.5,0
				s0.43,0,0.5,0l-0.05,0.22c-0.09-0.02-0.26-0.04-0.5-0.04h-0.09l-0.12,0.56h0.06c0.21,0,0.38-0.01,0.51-0.02L45.85,41.71z"/>
			<path class="st130" d="M47.25,41.98h-0.57c-0.16,0.27-0.27,0.45-0.31,0.54h-0.25c0.07-0.09,0.26-0.38,0.56-0.87
				c0.26-0.42,0.44-0.72,0.53-0.89h0.25c0.01,0.13,0.05,0.42,0.13,0.89c0.08,0.47,0.14,0.76,0.18,0.87h-0.46
				C47.31,42.4,47.29,42.22,47.25,41.98z M47.22,41.8l-0.09-0.53L46.8,41.8H47.22z"/>
			<path class="st130" d="M48.53,40.76c0.07,0,0.13,0,0.2,0c0.1,0,0.18,0,0.24,0c0.29,0,0.51,0.08,0.65,0.24
				c0.14,0.16,0.17,0.37,0.11,0.63c-0.06,0.28-0.21,0.5-0.43,0.67c-0.21,0.15-0.45,0.23-0.73,0.23c-0.06,0-0.14,0-0.24,0
				c-0.07,0-0.13,0-0.2,0c-0.11,0-0.22,0-0.32,0c0.05-0.15,0.13-0.44,0.23-0.88c0.1-0.44,0.16-0.73,0.17-0.88
				C48.31,40.76,48.42,40.76,48.53,40.76z M48.28,42.31c0.05,0.02,0.13,0.03,0.25,0.03c0.22,0,0.39-0.05,0.51-0.16
				c0.12-0.11,0.21-0.29,0.26-0.55c0.05-0.24,0.05-0.42-0.02-0.53c-0.07-0.11-0.22-0.16-0.43-0.16c-0.11,0-0.19,0.01-0.26,0.03
				L48.28,42.31z"/>
			<path class="st130" d="M50.38,40.76c0.07,0,0.13,0,0.2,0c0.1,0,0.18,0,0.24,0c0.29,0,0.51,0.08,0.65,0.24
				c0.14,0.16,0.17,0.37,0.11,0.63c-0.06,0.28-0.21,0.5-0.43,0.67c-0.21,0.15-0.45,0.23-0.73,0.23c-0.06,0-0.14,0-0.24,0
				c-0.07,0-0.13,0-0.2,0c-0.11,0-0.22,0-0.32,0c0.05-0.15,0.13-0.44,0.23-0.88c0.1-0.44,0.16-0.73,0.17-0.88
				C50.16,40.76,50.26,40.76,50.38,40.76z M50.12,42.31c0.05,0.02,0.13,0.03,0.25,0.03c0.22,0,0.39-0.05,0.51-0.16
				c0.12-0.11,0.21-0.29,0.26-0.55c0.05-0.24,0.05-0.42-0.02-0.53c-0.07-0.11-0.22-0.16-0.43-0.16c-0.11,0-0.19,0.01-0.26,0.03
				L50.12,42.31z"/>
			<path class="st130" d="M52.9,42.02l0.22-0.36c0.3-0.48,0.47-0.78,0.53-0.9h0.25c-0.04,0.05-0.08,0.12-0.14,0.19
				c-0.05,0.08-0.19,0.3-0.43,0.68c-0.31,0.49-0.48,0.79-0.53,0.89h-0.25c0-0.1-0.05-0.4-0.13-0.89c-0.08-0.48-0.14-0.77-0.17-0.87
				h0.46c0,0.15,0.05,0.45,0.12,0.89L52.9,42.02z"/>
			<path class="st130" d="M54.52,41.98h-0.57c-0.16,0.27-0.27,0.45-0.31,0.54h-0.25c0.07-0.09,0.26-0.38,0.56-0.87
				c0.26-0.42,0.44-0.72,0.53-0.89h0.25c0.01,0.13,0.05,0.42,0.13,0.89c0.08,0.47,0.14,0.76,0.18,0.87h-0.46
				C54.58,42.4,54.56,42.22,54.52,41.98z M54.49,41.8l-0.09-0.53l-0.33,0.53H54.49z"/>
			<path class="st130" d="M55.92,40.76c-0.05,0.14-0.13,0.43-0.23,0.88l-0.16,0.7h0.09c0.24,0,0.41-0.01,0.51-0.04l-0.05,0.22
				c-0.07,0-0.23,0-0.5,0c-0.26,0-0.43,0-0.5,0c0.05-0.15,0.13-0.45,0.23-0.89c0.1-0.44,0.16-0.73,0.17-0.88H55.92z"/>
			<path class="st130" d="M57.02,40.76c-0.05,0.14-0.13,0.43-0.23,0.88l-0.05,0.22c-0.04,0.16-0.02,0.27,0.05,0.35
				c0.07,0.08,0.19,0.12,0.36,0.12c0.16,0,0.3-0.04,0.41-0.12s0.17-0.2,0.21-0.34l0.05-0.22c0.1-0.44,0.16-0.74,0.17-0.88h0.24
				c-0.05,0.14-0.12,0.44-0.23,0.88l-0.05,0.22c-0.05,0.22-0.16,0.39-0.33,0.52c-0.17,0.12-0.38,0.18-0.63,0.18
				c-0.25,0-0.44-0.06-0.55-0.18c-0.11-0.12-0.14-0.29-0.09-0.52l0.05-0.22c0.1-0.44,0.16-0.74,0.17-0.88H57.02z"/>
			<path class="st130" d="M59.18,41.71c-0.12-0.01-0.29-0.02-0.5-0.02h-0.06l-0.15,0.65h0.09c0.24,0,0.41-0.01,0.51-0.04l-0.05,0.22
				c-0.07,0-0.23,0-0.5,0c-0.26,0-0.43,0-0.5,0c0.05-0.15,0.13-0.44,0.23-0.88c0.1-0.43,0.16-0.73,0.17-0.88c0.07,0,0.24,0,0.5,0
				s0.43,0,0.5,0l-0.05,0.22c-0.09-0.02-0.26-0.04-0.5-0.04h-0.09l-0.12,0.56h0.06c0.21,0,0.38-0.01,0.51-0.02L59.18,41.71z"/>
		</g>
	</g>
	<g>
		<g>
			<path class="st130" d="M6.79,39.22c0.1-0.43,0.15-0.72,0.17-0.87c0.07,0,0.16,0,0.28,0c0.07,0,0.14,0,0.21,0
				c0.06,0,0.13,0,0.19,0c0.15,0,0.26,0.04,0.33,0.12c0.07,0.08,0.09,0.19,0.06,0.32c-0.04,0.17-0.13,0.3-0.27,0.39
				c-0.14,0.1-0.32,0.15-0.54,0.15H7.14C7.06,39.7,7.01,39.95,7,40.08H6.57C6.62,39.94,6.69,39.65,6.79,39.22z M7.18,39.15h0.08
				c0.1,0,0.19-0.03,0.25-0.08c0.06-0.05,0.1-0.13,0.13-0.24c0.02-0.09,0.01-0.17-0.02-0.22s-0.09-0.08-0.17-0.08
				c-0.05,0-0.09,0.01-0.13,0.02L7.18,39.15z"/>
			<path class="st130" d="M11.24,40.08c0.05-0.15,0.12-0.42,0.21-0.82h-0.82c-0.09,0.42-0.14,0.7-0.16,0.82h-0.43
				c0.05-0.15,0.12-0.44,0.22-0.87c0.1-0.44,0.16-0.72,0.17-0.87h0.43c-0.05,0.14-0.12,0.39-0.19,0.73h0.82
				c0.08-0.36,0.13-0.6,0.14-0.73h0.43c-0.05,0.14-0.12,0.43-0.22,0.87c-0.1,0.45-0.16,0.74-0.17,0.87H11.24z"/>
			<path class="st130" d="M15.08,39.54h-0.56c-0.16,0.26-0.26,0.44-0.3,0.54h-0.25c0.07-0.09,0.26-0.38,0.55-0.86
				c0.26-0.41,0.43-0.71,0.53-0.88h0.25c0.01,0.12,0.05,0.42,0.13,0.88c0.08,0.46,0.14,0.75,0.17,0.86h-0.46
				C15.14,39.96,15.12,39.78,15.08,39.54z M15.05,39.36l-0.09-0.52l-0.32,0.52H15.05z"/>
			<path class="st130" d="M18.74,40.08c-0.03-0.14-0.12-0.39-0.26-0.75h-0.01c-0.08,0.38-0.13,0.62-0.14,0.75H17.9
				c0.05-0.14,0.12-0.43,0.22-0.87c0.1-0.43,0.15-0.72,0.17-0.87c0.07,0,0.16,0,0.27,0c0.07,0,0.13,0,0.2,0c0.1,0,0.18,0,0.23,0
				c0.17,0,0.3,0.04,0.38,0.12s0.1,0.19,0.07,0.33c-0.03,0.12-0.09,0.23-0.19,0.32c-0.1,0.09-0.21,0.15-0.35,0.18
				c0.14,0.39,0.25,0.65,0.34,0.79H18.74z M18.51,39.15h0.1c0.12,0,0.21-0.03,0.28-0.08c0.07-0.05,0.11-0.13,0.14-0.24
				c0.02-0.11,0.02-0.18-0.01-0.23c-0.03-0.05-0.08-0.07-0.17-0.07c-0.09,0-0.16,0.01-0.2,0.02L18.51,39.15z"/>
			<path class="st130" d="M22.07,39.05l-0.09,0.3c-0.13,0.41-0.2,0.65-0.21,0.74h-0.24c0.06-0.13,0.17-0.42,0.31-0.87
				c0.15-0.46,0.24-0.75,0.26-0.87h0.25c0,0.07,0.02,0.16,0.04,0.26c0.02,0.11,0.06,0.31,0.12,0.59l0.09,0.42l0.28-0.42
				c0.17-0.25,0.29-0.44,0.37-0.55c0.07-0.12,0.13-0.22,0.17-0.3h0.25c-0.04,0.18-0.08,0.47-0.13,0.87
				c-0.05,0.43-0.08,0.72-0.08,0.87h-0.43c0.04-0.17,0.08-0.41,0.12-0.74l0.04-0.31l-0.21,0.33c-0.25,0.38-0.4,0.62-0.45,0.72h-0.25
				c0-0.08-0.05-0.32-0.13-0.72L22.07,39.05z"/>
			<path class="st130" d="M26.86,39.54H26.3c-0.16,0.26-0.26,0.44-0.3,0.54h-0.25c0.07-0.09,0.26-0.38,0.55-0.86
				c0.26-0.41,0.43-0.71,0.53-0.88h0.25c0.01,0.12,0.05,0.42,0.13,0.88c0.08,0.46,0.14,0.75,0.17,0.86h-0.46
				C26.91,39.96,26.89,39.78,26.86,39.54z M26.82,39.36l-0.09-0.52l-0.32,0.52H26.82z"/>
			<path class="st130" d="M31.25,38.7c-0.06-0.16-0.18-0.23-0.35-0.23c-0.16,0-0.3,0.06-0.41,0.19s-0.2,0.31-0.25,0.55
				c-0.05,0.24-0.05,0.43,0.01,0.55c0.06,0.12,0.18,0.19,0.35,0.19c0.09,0,0.19-0.02,0.28-0.06c0.09-0.04,0.18-0.09,0.25-0.17h0.03
				L31.09,40c-0.17,0.08-0.35,0.12-0.56,0.12c-0.12,0-0.23-0.02-0.33-0.05c-0.1-0.04-0.18-0.09-0.25-0.15
				c-0.16-0.16-0.21-0.4-0.15-0.7c0.06-0.28,0.21-0.5,0.45-0.67c0.1-0.07,0.21-0.13,0.33-0.17c0.12-0.04,0.23-0.06,0.34-0.06
				c0.19,0,0.37,0.04,0.52,0.11l-0.16,0.29H31.25z"/>
			<path class="st130" d="M34.59,39.28c-0.12-0.01-0.29-0.02-0.49-0.02h-0.06l-0.14,0.64h0.09c0.24,0,0.41-0.01,0.5-0.03l-0.05,0.22
				c-0.07,0-0.23,0-0.49,0c-0.26,0-0.43,0-0.5,0c0.05-0.15,0.13-0.44,0.22-0.87c0.1-0.43,0.15-0.72,0.17-0.87c0.07,0,0.23,0,0.49,0
				c0.26,0,0.43,0,0.5,0l-0.05,0.21c-0.09-0.02-0.26-0.03-0.49-0.03H34.2l-0.12,0.55h0.06c0.21,0,0.38-0.01,0.5-0.02L34.59,39.28z"
				/>
			<path class="st130" d="M37.6,38.34c-0.05,0.14-0.13,0.43-0.23,0.87l-0.05,0.22c-0.04,0.15-0.02,0.27,0.05,0.34
				c0.07,0.08,0.18,0.11,0.35,0.11c0.16,0,0.29-0.04,0.4-0.12c0.1-0.08,0.17-0.19,0.21-0.34l0.05-0.22c0.1-0.44,0.16-0.73,0.17-0.87
				h0.24c-0.05,0.14-0.12,0.43-0.22,0.87l-0.05,0.22c-0.05,0.22-0.15,0.39-0.32,0.51c-0.17,0.12-0.37,0.18-0.62,0.18
				c-0.25,0-0.43-0.06-0.54-0.18s-0.14-0.29-0.09-0.51L37,39.21c0.1-0.44,0.16-0.73,0.17-0.87H37.6z"/>
			<path class="st130" d="M41.91,38.52l-0.16,0.69c-0.1,0.45-0.16,0.74-0.17,0.87h-0.43c0.05-0.14,0.12-0.43,0.22-0.87l0.16-0.69
				c-0.18,0-0.34,0.01-0.47,0.03l0.05-0.21c0.07,0,0.29,0,0.65,0c0.37,0,0.59,0,0.65,0l-0.05,0.21
				C42.24,38.53,42.09,38.52,41.91,38.52z"/>
			<path class="st130" d="M44.94,39.21c-0.1,0.45-0.16,0.74-0.17,0.87h-0.43c0.05-0.14,0.12-0.43,0.22-0.87
				c0.1-0.44,0.16-0.73,0.17-0.87h0.43C45.11,38.48,45.04,38.77,44.94,39.21z"/>
			<path class="st130" d="M48.8,38.7c-0.06-0.16-0.18-0.23-0.35-0.23c-0.16,0-0.3,0.06-0.41,0.19s-0.2,0.31-0.25,0.55
				c-0.05,0.24-0.05,0.43,0.01,0.55c0.06,0.12,0.18,0.19,0.35,0.19c0.09,0,0.19-0.02,0.28-0.06c0.09-0.04,0.18-0.09,0.25-0.17h0.03
				L48.64,40c-0.17,0.08-0.35,0.12-0.56,0.12c-0.12,0-0.23-0.02-0.33-0.05c-0.1-0.04-0.18-0.09-0.25-0.15
				c-0.16-0.16-0.21-0.4-0.15-0.7c0.06-0.28,0.21-0.5,0.45-0.67c0.1-0.07,0.21-0.13,0.33-0.17c0.12-0.04,0.23-0.06,0.34-0.06
				c0.19,0,0.37,0.04,0.52,0.11l-0.16,0.29H48.8z"/>
			<path class="st130" d="M51.96,39.54H51.4c-0.16,0.26-0.26,0.44-0.3,0.54h-0.25c0.07-0.09,0.26-0.38,0.55-0.86
				c0.26-0.41,0.43-0.71,0.53-0.88h0.25c0.01,0.12,0.05,0.42,0.13,0.88c0.08,0.46,0.14,0.75,0.17,0.86h-0.46
				C52.02,39.96,52,39.78,51.96,39.54z M51.93,39.36l-0.09-0.52l-0.32,0.52H51.93z"/>
			<path class="st130" d="M55.6,38.34c-0.05,0.14-0.13,0.43-0.23,0.87l-0.15,0.69h0.09c0.24,0,0.41-0.01,0.5-0.03l-0.05,0.22
				c-0.07,0-0.23,0-0.49,0c-0.26,0-0.43,0-0.5,0c0.05-0.15,0.13-0.44,0.22-0.87c0.1-0.43,0.16-0.72,0.17-0.87H55.6z"/>
			<path class="st130" d="M58.18,39.61c0.03,0.1,0.07,0.19,0.14,0.25s0.15,0.09,0.23,0.09c0.08,0,0.16-0.02,0.22-0.06
				c0.06-0.04,0.1-0.1,0.11-0.17c0.02-0.11-0.02-0.2-0.12-0.26l-0.17-0.1c-0.13-0.08-0.22-0.17-0.26-0.25
				c-0.04-0.09-0.05-0.2-0.02-0.32c0.03-0.14,0.11-0.25,0.22-0.34c0.12-0.09,0.26-0.13,0.42-0.13c0.17,0,0.32,0.03,0.44,0.09
				l-0.17,0.26h-0.03c-0.06-0.12-0.15-0.18-0.28-0.18c-0.07,0-0.13,0.02-0.18,0.05c-0.05,0.04-0.08,0.08-0.09,0.14
				c-0.01,0.05-0.01,0.1,0.02,0.15c0.03,0.04,0.07,0.09,0.15,0.13l0.16,0.1c0.1,0.06,0.18,0.14,0.22,0.24
				c0.04,0.1,0.05,0.2,0.03,0.31c-0.04,0.16-0.12,0.29-0.24,0.39s-0.27,0.15-0.43,0.15c-0.08,0-0.17-0.01-0.26-0.03
				c-0.09-0.02-0.17-0.05-0.22-0.08l0.09-0.4H58.18z"/>
		</g>
	</g>
	<path class="st129" d="M37.55,13.72c-0.96,0-1.86,0.37-2.53,1.04l-1.17,1.16c0.02-0.02-0.1-0.25-0.12-0.28
		c-0.04-0.09-0.09-0.18-0.15-0.27c-0.04-0.07-0.08-0.13-0.12-0.2c-0.11-0.18-0.25-0.34-0.39-0.49C32.4,14,31.47,13.6,30.51,13.6
		c-0.93,0-1.81,0.35-2.46,1c-0.01,0.01-0.02,0.02-0.03,0.03l-0.01,0.01l-0.15,0.15l0,0.01c-0.97,1.12-1.1,2.76-0.3,4.05l0.22,0.35
		l1.47-1.38l-0.09-0.21c-0.23-0.56-0.11-1.19,0.32-1.61c0.21-0.2,0.47-0.34,0.75-0.4c0.01,0,0.02,0,0.03-0.01c0.01,0,0.02,0,0.03,0
		l0.01,0c0.07-0.01,0.14-0.01,0.21-0.01c0.4,0,0.77,0.15,1.05,0.43c0.59,0.58,0.58,1.53-0.02,2.12l-0.6,0.59l1.44,1.4l4.04-3.97
		c0.29-0.29,0.68-0.45,1.1-0.45c0.4,0,0.77,0.15,1.05,0.43c0.59,0.58,0.58,1.53-0.02,2.12l-5.95,5.89l1.41,1.39l5.95-5.89
		c0.67-0.66,1.05-1.54,1.05-2.46c0.01-0.93-0.35-1.8-1.01-2.45C39.36,14.08,38.48,13.72,37.55,13.72z"/>
	<polygon class="st131" points="34.05,26.51 26.72,19.53 26.62,19.53 33.99,28.07 41.82,19.09 	"/>
	<path class="st128" d="M32.38,21l-2.86-2.78l-1.45,1.32l2.88,2.95l0,0l1.32,1.28l5.85-5.69c0.37-0.36,0.37-0.96,0-1.32v0
		c-0.37-0.36-0.98-0.36-1.35,0L32.38,21z"/>
</g>
</svg>
