<?xml version="1.0" encoding="utf-8"?>
<!-- Generator: Adobe Illustrator 25.0.1, SVG Export Plug-In . SVG Version: 6.00 Build 0)  -->
<svg version="1.0" id="Layer_1" xmlns="http://www.w3.org/2000/svg" xmlns:xlink="http://www.w3.org/1999/xlink" x="0px" y="0px"
	 viewBox="0 0 58.28 38.86" style="enable-background:new 0 0 58.28 38.86;" xml:space="preserve">
<style type="text/css">
	.st0{fill:#000104;}
	.st1{fill:#FFFFFF;}
	.st2{fill:#EF493E;}
	.st3{opacity:0.6;fill-rule:evenodd;clip-rule:evenodd;fill:#FBBE43;}
	.st4{opacity:0.6;fill-rule:evenodd;clip-rule:evenodd;fill:#EF930E;}
	.st5{opacity:0.6;fill-rule:evenodd;clip-rule:evenodd;fill:#E67906;}
	.st6{fill:#9F8829;}
	.st7{fill:#3972A6;}
	.st8{fill:url(#SVGID_1_);stroke:#2B53A4;stroke-width:0.5;stroke-miterlimit:10;}
	.st9{fill:none;}
	.st10{fill:url(#SVGID_2_);}
	.st11{fill:url(#SVGID_3_);}
	.st12{fill:#B3B3B3;}
	.st13{fill:url(#SVGID_4_);}
	.st14{fill:url(#SVGID_5_);}
	.st15{fill:url(#SVGID_6_);}
	.st16{fill:#FFFFFF;stroke:#FFFFFF;stroke-width:0.25;stroke-miterlimit:10;}
	.st17{fill:#00001D;}
	.st18{fill:#4DA0C5;}
	.st19{fill:url(#SVGID_7_);}
	.st20{fill:#2E6A85;}
	.st21{fill:none;stroke:#144FA1;stroke-width:0.113;stroke-linejoin:round;stroke-miterlimit:10;}
	.st22{fill:#F27337;}
	.st23{fill:#8EB8D4;}
	.st24{fill:#F38056;}
	.st25{fill:#626365;}
	.st26{fill:#EF6D23;}
	.st27{fill:#284B82;}
	.st28{fill:#242956;}
	.st29{fill:#15142A;}
	.st30{fill:#84C343;}
	.st31{fill:#4CA1C6;}
	.st32{fill:#121617;}
	.st33{fill:#CF8966;}
	.st34{fill:#F37639;}
	.st35{opacity:0.3;fill:url(#SVGID_8_);}
	.st36{fill:#373277;}
	.st37{fill:#E61E25;}
	.st38{fill:#2555A5;}
	.st39{fill:#2E225E;}
	.st40{fill:#F8A425;}
	.st41{fill:#2058A7;}
	.st42{fill:none;stroke:#205AA8;stroke-width:0.156;stroke-miterlimit:10;}
	.st43{fill:#49A3C7;}
	.st44{fill-rule:evenodd;clip-rule:evenodd;}
	.st45{fill-rule:evenodd;clip-rule:evenodd;fill:url(#SVGID_9_);}
	.st46{fill-rule:evenodd;clip-rule:evenodd;fill:url(#SVGID_10_);}
	.st47{fill-rule:evenodd;clip-rule:evenodd;fill:url(#SVGID_11_);}
	.st48{fill:#1D2251;}
	.st49{fill:#2260AC;}
	.st50{fill:url(#SVGID_12_);}
	.st51{fill:#FFFFFC;}
	.st52{fill:#4C9FC5;}
	.st53{fill:#28306D;}
	.st54{fill:#4C9EC5;}
	.st55{fill:#28306E;}
	.st56{fill:#29306F;}
	.st57{fill:#F7F7FB;}
	.st58{fill:url(#SVGID_13_);}
	.st59{fill:url(#SVGID_14_);}
	.st60{fill:url(#SVGID_15_);}
	.st61{fill:url(#SVGID_16_);}
	.st62{fill:#10123C;}
	.st63{fill:#F5842C;}
	.st64{fill:#1F305E;}
	.st65{fill:#87BBD1;}
	.st66{fill:#203160;}
	.st67{fill:#235779;}
	.st68{fill:#359FA1;}
	.st69{fill:#A4D1A4;}
	.st70{fill:#B9DBBC;}
	.st71{fill:#C6DDCA;}
	.st72{fill:#662E14;}
	.st73{fill:#1D79A4;}
	.st74{fill:#C14B28;}
	.st75{fill:url(#SVGID_17_);}
	.st76{fill:url(#SVGID_18_);}
	.st77{fill:url(#SVGID_19_);}
	.st78{fill:url(#SVGID_20_);}
	.st79{fill:url(#SVGID_21_);}
	.st80{fill:url(#SVGID_22_);}
	.st81{fill:url(#SVGID_23_);}
	.st82{fill:url(#SVGID_24_);}
	.st83{fill:url(#SVGID_25_);}
	.st84{fill:url(#SVGID_26_);}
	.st85{fill:url(#SVGID_27_);}
	.st86{fill:url(#SVGID_28_);}
	.st87{fill:url(#SVGID_29_);}
	.st88{fill:url(#SVGID_30_);}
	.st89{fill:#1F164B;}
	.st90{clip-path:url(#SVGID_32_);fill:#253D97;}
	.st91{fill:url(#SVGID_33_);}
	.st92{fill:url(#SVGID_34_);}
	.st93{fill:url(#SVGID_35_);}
	.st94{fill:url(#SVGID_36_);}
	.st95{fill:url(#SVGID_37_);}
	.st96{fill:url(#SVGID_38_);}
	.st97{fill:url(#SVGID_39_);}
	.st98{fill:url(#SVGID_40_);}
	.st99{fill:url(#SVGID_41_);}
	.st100{fill:#443F41;}
	.st101{fill:#28306F;}
	.st102{fill:#71C49D;}
	.st103{fill:#F0C6A7;}
	.st104{fill:#DB8D82;}
	.st105{fill:#EFB7AC;}
	.st106{opacity:0.21;}
	.st107{fill-rule:evenodd;clip-rule:evenodd;fill:#A9196E;}
	.st108{fill-rule:evenodd;clip-rule:evenodd;fill:#FBE42C;}
	.st109{fill:#FBE42C;}
	.st110{fill:#A9196E;}
	.st111{fill:#7FC143;}
	.st112{clip-path:url(#SVGID_45_);fill:#7FC143;}
	.st113{clip-path:url(#SVGID_51_);fill:#7FC143;}
	.st114{fill:#243F8F;}
	.st115{fill:#EF4E2F;}
	.st116{fill:#010007;}
	.st117{fill:#0C0D37;}
	.st118{fill:#FBAF2D;}
	.st119{fill:url(#SVGID_54_);}
	.st120{fill-rule:evenodd;clip-rule:evenodd;fill:#FFFFFF;}
	.st121{fill:#1D4690;}
	.st122{fill:#3AA949;}
	.st123{fill:#F37A24;}
	.st124{fill:none;stroke:#F37A24;stroke-width:3.7145;stroke-miterlimit:10;}
	.st125{fill:#3AA949;stroke:#FFFFFF;stroke-width:1.3104;stroke-miterlimit:10;}
	.st126{fill:#46A2BB;}
	.st127{fill:#7153A0;}
	.st128{fill:#27316C;}
	.st129{fill:#2C65AE;}
	.st130{fill:#452D7A;}
	.st131{fill:#442C7A;}
	.st132{fill:#1A2642;}
	.st133{fill-rule:evenodd;clip-rule:evenodd;fill:#567EB8;}
	.st134{fill-rule:evenodd;clip-rule:evenodd;fill:#6A7EB8;}
	.st135{fill-rule:evenodd;clip-rule:evenodd;fill:#6A7EB9;}
	.st136{fill-rule:evenodd;clip-rule:evenodd;fill:#EE3C2D;}
	.st137{fill-rule:evenodd;clip-rule:evenodd;fill:#EF493F;}
	.st138{fill-rule:evenodd;clip-rule:evenodd;fill:#ED2C24;}
	.st139{fill-rule:evenodd;clip-rule:evenodd;fill:#E9AE28;}
	.st140{fill-rule:evenodd;clip-rule:evenodd;fill:#D69B28;}
	.st141{fill-rule:evenodd;clip-rule:evenodd;fill:#FCB729;}
	.st142{fill-rule:evenodd;clip-rule:evenodd;fill:#409E47;}
	.st143{fill-rule:evenodd;clip-rule:evenodd;fill:#4BB450;}
	.st144{fill-rule:evenodd;clip-rule:evenodd;fill:#338440;}
	.st145{fill:#C09C36;}
	.st146{fill:#1E552A;}
	.st147{clip-path:url(#SVGID_56_);fill:url(#SVGID_57_);}
	.st148{fill:#023A1E;}
	.st149{fill:#FFFFFA;}
	.st150{fill:#0D4F28;}
	.st151{fill:#0E5128;}
	.st152{fill:#0D4E27;}
	.st153{fill:#0E5229;}
	.st154{fill:#0E4823;}
	.st155{fill:#0E4C27;}
	.st156{fill:#F3F6E0;}
	.st157{fill:#0E4F28;}
	.st158{fill:#114823;}
	.st159{fill:#105229;}
	.st160{fill:#0A4A2B;}
	.st161{fill:#134F27;}
	.st162{fill:#165229;}
	.st163{fill:#0D5029;}
	.st164{fill:#0B4E2B;}
	.st165{fill:#105028;}
	.st166{fill:#0A492A;}
	.st167{fill:#E9F3E2;}
	.st168{fill:#144D26;}
	.st169{fill:#185C2F;}
	.st170{fill:#0F5028;}
	.st171{fill:#F3F8EA;}
	.st172{fill:#114D26;}
	.st173{fill:#70A685;}
	.st174{fill:#0D4F2A;}
	.st175{fill:#094A24;}
	.st176{fill:#0F4F27;}
	.st177{fill:#0A4C26;}
	.st178{fill:#A2D29A;}
	.st179{fill:#4D7E44;}
	.st180{fill:#E8F2E1;}
	.st181{fill:#EDF5E5;}
	.st182{fill:#E6F2E7;}
	.st183{fill:#E5F1DC;}
	.st184{fill:#E9F3E3;}
	.st185{fill:#E9F3E5;}
	.st186{fill:#E5F1DB;}
	.st187{fill:#D8ECD7;}
	.st188{fill:#D9EBD4;}
	.st189{fill:#E2F0DE;}
	.st190{fill:#366B4B;}
	.st191{fill:#5D6162;}
	.st192{fill:#212E5F;}
	.st193{fill:#DD1F26;}
	.st194{clip-path:url(#SVGID_59_);}
	.st195{fill:#23396F;}
	.st196{fill:#7FC24E;}
	.st197{clip-path:url(#SVGID_59_);fill:#23396F;}
	.st198{clip-path:url(#SVGID_59_);fill:#7FC24E;}
	.st199{fill:#91CEA4;}
	.st200{fill:#90CEA4;}
	.st201{fill:#C02026;}
	.st202{fill:#362E7E;}
</style>
<g>
	<path d="M31.06,5.37c0.85-0.01,1.59,0.15,2.3,0.37L31.31,3.6c-0.29-0.3-0.75-0.3-1.03,0l-2.21,2.3
		C28.92,5.62,29.87,5.38,31.06,5.37"/>
	<path d="M27.87,6.03l2.37-2.47c0.15-0.15,0.34-0.24,0.56-0.24h0c0.21,0,0.41,0.09,0.56,0.24l2.2,2.3L33.35,5.8
		c-0.57-0.17-1.33-0.37-2.24-0.37h-0.05c-1.29,0.01-2.26,0.29-2.97,0.53L27.87,6.03z M30.8,3.43L30.8,3.43
		c-0.18,0-0.35,0.07-0.47,0.21l-2.05,2.14c0.7-0.22,1.62-0.45,2.79-0.46h0.05c0.82,0,1.52,0.16,2.07,0.31l-1.91-1.99
		C31.15,3.51,30.98,3.43,30.8,3.43"/>
	<path d="M40.6,11.97l-1.66-1.7c-0.56-0.56-1.11-1.13-1.68-1.68c-0.56-0.56-1.13-1.1-1.71-1.65c-0.58-0.54-1.15-1.08-1.75-1.61
		c0.5,0.62,1.02,1.22,1.54,1.82c0.52,0.6,1.05,1.19,1.58,1.78c0.53,0.59,1.07,1.17,1.61,1.75l1.24,1.31c0.1,0.11,0.1,0.28,0,0.39
		l-1.25,1.32c-0.54,0.59-1.09,1.17-1.62,1.77c-0.54,0.59-1.07,1.19-1.6,1.79c-0.52,0.61-1.05,1.21-1.55,1.84
		c0.6-0.53,1.18-1.07,1.76-1.62c0.58-0.55,1.15-1.1,1.72-1.67c0.57-0.56,1.13-1.13,1.69-1.69l1.67-1.72l0.02-0.02
		c0.1-0.11,0.1-0.29,0-0.4L40.6,11.97z"/>
	<path d="M33.8,19.14l-0.08-0.08c0.46-0.57,0.94-1.12,1.4-1.66l0.15-0.18c0.61-0.69,1.11-1.26,1.6-1.79
		c0.34-0.38,0.7-0.77,1.04-1.14c0.19-0.21,0.39-0.42,0.58-0.63l1.25-1.32c0.08-0.09,0.08-0.23,0-0.32l-1.24-1.31
		c-0.15-0.16-0.3-0.33-0.45-0.49c-0.38-0.41-0.77-0.84-1.16-1.26c-0.54-0.59-1.08-1.21-1.58-1.78l-0.04-0.05
		c-0.5-0.57-1.01-1.17-1.5-1.77l0.08-0.08c0.54,0.47,1.07,0.97,1.58,1.45l0.17,0.16c0.52,0.5,1.12,1.07,1.71,1.65
		c0.39,0.38,0.78,0.77,1.15,1.15c0.18,0.18,0.35,0.35,0.53,0.53l1.67,1.72c0.13,0.13,0.13,0.34,0,0.48l-0.02,0.02l-1.67,1.72
		c-0.2,0.2-0.39,0.4-0.59,0.59c-0.36,0.36-0.73,0.74-1.1,1.1c-0.6,0.59-1.2,1.18-1.72,1.67l-0.13,0.12
		C34.9,18.14,34.36,18.65,33.8,19.14 M34.35,5.88c0.34,0.4,0.68,0.8,1.01,1.18l0.04,0.05c0.5,0.57,1.04,1.18,1.58,1.78
		c0.38,0.42,0.77,0.85,1.16,1.26c0.15,0.16,0.3,0.33,0.45,0.49l1.24,1.31c0.12,0.13,0.12,0.34,0,0.47l-1.25,1.32
		c-0.19,0.21-0.39,0.42-0.58,0.63c-0.34,0.37-0.7,0.75-1.04,1.13c-0.48,0.53-0.99,1.1-1.6,1.79l-0.15,0.18
		c-0.3,0.35-0.61,0.71-0.92,1.08c0.36-0.33,0.71-0.66,1.06-0.99l0.13-0.12c0.51-0.49,1.12-1.07,1.72-1.66
		c0.37-0.36,0.74-0.74,1.1-1.1c0.2-0.2,0.39-0.39,0.59-0.59l1.69-1.74c0.08-0.09,0.08-0.23,0-0.32l-1.67-1.72
		c-0.18-0.18-0.35-0.35-0.53-0.53C38,9.4,37.62,9.01,37.23,8.63c-0.58-0.58-1.19-1.15-1.7-1.65l-0.17-0.16
		C35.02,6.51,34.69,6.19,34.35,5.88"/>
	<path d="M19.91,11.57l1.92-1.97c0.65-0.65,1.29-1.31,1.95-1.95C24.43,7,25.1,6.37,25.76,5.74c0.67-0.63,1.33-1.26,2.03-1.86
		C27.2,4.59,26.6,5.29,26,5.99c-0.61,0.69-1.22,1.38-1.83,2.06c-0.61,0.69-1.24,1.36-1.86,2.03l-1.44,1.52
		c-0.12,0.13-0.12,0.33,0,0.46l1.45,1.53c0.63,0.68,1.26,1.36,1.88,2.05c0.62,0.69,1.24,1.38,1.85,2.08c0.61,0.7,1.21,1.41,1.8,2.13
		c-0.69-0.61-1.37-1.25-2.04-1.88c-0.67-0.64-1.33-1.28-1.99-1.93c-0.66-0.64-1.31-1.31-1.96-1.96l-1.94-1.99l-0.02-0.02
		c-0.12-0.13-0.12-0.34,0-0.46L19.91,11.57z"/>
	<path d="M27.81,19.89c-0.68-0.6-1.35-1.22-1.99-1.83l-0.05-0.05c-0.64-0.62-1.33-1.27-1.99-1.93c-0.45-0.44-0.9-0.89-1.34-1.33
		c-0.21-0.21-0.42-0.42-0.63-0.63l-1.96-2.02c-0.14-0.15-0.14-0.39,0-0.54l0.02-0.02l1.92-1.97c0.22-0.22,0.43-0.43,0.65-0.65
		c0.42-0.43,0.86-0.87,1.3-1.3c0.57-0.56,1.18-1.15,1.98-1.92l0.09-0.09c0.63-0.59,1.27-1.2,1.93-1.78l0.08,0.08
		c-0.58,0.72-1.2,1.43-1.79,2.11c-0.7,0.8-1.28,1.46-1.84,2.06c-0.47,0.52-0.95,1.04-1.42,1.55l-0.45,0.48l-1.44,1.52
		c-0.1,0.11-0.1,0.28,0,0.38l1.45,1.53c0.23,0.26,0.47,0.51,0.71,0.76c0.39,0.42,0.79,0.85,1.18,1.28c0.62,0.68,1.24,1.38,1.83,2.06
		l0.02,0.02l0.2,0.23c0.53,0.62,1.08,1.26,1.61,1.91L27.81,19.89z M19.96,11.61l-0.02,0.02c-0.1,0.11-0.1,0.28,0,0.39l0.02,0.02
		l1.94,1.99c0.21,0.21,0.42,0.42,0.63,0.63c0.43,0.44,0.88,0.89,1.34,1.33c0.66,0.66,1.35,1.32,1.99,1.93l0.05,0.05
		c0.47,0.44,0.94,0.89,1.43,1.32c-0.37-0.45-0.76-0.89-1.13-1.32l-0.21-0.25c-0.6-0.68-1.22-1.38-1.83-2.06
		c-0.39-0.43-0.79-0.86-1.18-1.28c-0.24-0.26-0.47-0.51-0.71-0.77l-1.45-1.53c-0.14-0.15-0.14-0.39,0-0.54l1.88-2
		c0.47-0.5,0.95-1.03,1.42-1.55c0.55-0.61,1.14-1.26,1.83-2.06c0.43-0.5,0.87-1.01,1.31-1.53c-0.46,0.42-0.92,0.85-1.37,1.27
		L25.8,5.78c-0.8,0.76-1.41,1.35-1.98,1.91c-0.44,0.43-0.88,0.87-1.3,1.3c-0.22,0.22-0.43,0.43-0.65,0.65L19.96,11.61z"/>
	<path d="M30.94,11.09c3.43,0.11,5.08-1.37,5.08-1.37c-1.31-0.72-3.7-1.24-3.7-1.24c0.19,1.64-1.26,1.66-1.26,1.66
		c-1.7-0.16-1.08-1.77-1.08-1.77c-0.8,0.05-4.45,1.33-4.45,1.33C28.47,11.29,30.94,11.09,30.94,11.09"/>
	<path d="M30.68,11.15c-0.72,0-2.81-0.12-5.17-1.4l-0.11-0.06l0.12-0.04c0.15-0.05,3.67-1.28,4.46-1.34l0.09-0.01l-0.03,0.08
		c0,0.01-0.27,0.71,0.05,1.2c0.18,0.28,0.51,0.44,0.98,0.49c0,0,0.55-0.01,0.91-0.41c0.25-0.28,0.35-0.68,0.29-1.19L32.26,8.4
		l0.08,0.02c0.02,0.01,2.41,0.53,3.71,1.25l0.07,0.04l-0.06,0.05c-0.02,0.01-1.6,1.39-4.77,1.39c-0.11,0-0.23,0-0.35,0
		C30.92,11.14,30.83,11.15,30.68,11.15 M25.67,9.71c2.84,1.5,5.23,1.32,5.26,1.32h0.01c0.12,0,0.23,0.01,0.35,0.01
		c2.78,0,4.31-1.06,4.63-1.31c-1.16-0.62-3.12-1.08-3.53-1.18c0.04,0.51-0.06,0.91-0.32,1.2c-0.39,0.43-0.98,0.44-1,0.44
		c-0.52-0.05-0.88-0.23-1.08-0.54c-0.28-0.44-0.15-1-0.09-1.22C29.07,8.54,26.29,9.5,25.67,9.71"/>
	<path d="M30.91,7.32c2.44-0.08,4.5,1.27,5.49,1.58l-1.38-1.44c-0.98-0.36-2.36-0.81-3.6-0.86c-1.8-0.07-3.81,0.62-5.13,1.18
		l-0.69,0.72C27.23,7.97,29.33,7.37,30.91,7.32"/>
	<path d="M36.59,9.02l-0.21-0.07c-0.26-0.08-0.59-0.23-0.97-0.41c-1.03-0.47-2.58-1.18-4.29-1.18c-0.07,0-0.14,0-0.21,0
		c-1.62,0.05-3.8,0.69-5.3,1.17L25.4,8.61l0.86-0.89c1.31-0.55,3.19-1.19,4.9-1.19c0.09,0,0.17,0,0.26,0.01
		c0.96,0.04,2.15,0.32,3.62,0.86l0.02,0.01L36.59,9.02z M31.12,7.26c1.74,0,3.3,0.71,4.34,1.19c0.27,0.12,0.52,0.24,0.73,0.32
		l-1.21-1.26c-1.45-0.54-2.62-0.82-3.57-0.85c-0.08,0-0.17,0-0.25,0c-1.69,0-3.55,0.63-4.85,1.17l-0.53,0.55
		c1.49-0.47,3.56-1.06,5.12-1.11C30.97,7.26,31.05,7.26,31.12,7.26"/>
	<path d="M37.47,10.03c-0.14,0.04-0.3,0.09-0.45,0.14c-0.53,0.36-1.03,0.93-1.4,2.18c-0.36,1.23,1.53,1.74,2.05,1.85l1.39-1.45
		c0.28-0.3,0.28-0.78,0-1.07L37.47,10.03z"/>
	<path d="M37.69,14.26l-0.03-0.01c-0.25-0.05-1.53-0.34-1.98-1.07c-0.16-0.26-0.2-0.55-0.11-0.85c0.39-1.37,0.97-1.9,1.42-2.21
		L37,10.12c0.15-0.05,0.3-0.1,0.46-0.15l0.03-0.01l0.02,0.02l1.59,1.65c0.31,0.32,0.31,0.83,0,1.15L37.69,14.26z M37.05,10.22
		c-0.44,0.3-0.98,0.82-1.37,2.15c-0.08,0.27-0.05,0.53,0.1,0.76c0.42,0.67,1.63,0.96,1.87,1.01l1.37-1.42c0.26-0.27,0.26-0.72,0-1
		l-1.56-1.63C37.31,10.13,37.18,10.18,37.05,10.22"/>
	<path d="M24.61,12.4c1.77-0.15,1.83,2.22,0.81,2.34c-1.02,0.13-0.91-1.21-0.91-1.21c-0.28-0.01-0.54,0.21-0.7,0.54l2.26,2.36
		c3.1-0.19,6.67-4.52,6.72-4.52l0.05-0.02c-0.73,0.14-1.46,0.19-2.27,0.2c-1.61,0.04-4.81-1.19-5.29-1.5
		c-0.27-0.17-0.89-0.28-1.39-0.33l-1.35,1.41c-0.28,0.3-0.28,0.78,0,1.07l0.5,0.52C23.32,12.8,23.81,12.47,24.61,12.4"/>
	<path d="M26.05,16.49l-0.02-0.02l-2.29-2.38l0.02-0.03c0.18-0.35,0.46-0.57,0.74-0.57h0.02l0.06,0l0,0.06c0,0.01-0.05,0.69,0.28,1
		c0.14,0.13,0.33,0.18,0.56,0.15c0.47-0.06,0.66-0.61,0.61-1.1c-0.06-0.54-0.42-1.14-1.25-1.14c-0.05,0-0.1,0-0.16,0.01
		c-0.72,0.06-1.24,0.34-1.53,0.84l-0.04,0.07l-0.55-0.57c-0.3-0.32-0.3-0.83,0-1.15l1.37-1.43l0.03,0c0.49,0.06,1.13,0.16,1.41,0.34
		c0.48,0.31,3.57,1.49,5.19,1.49c0.02,0,0.05,0,0.07,0c0.72-0.02,1.5-0.05,2.25-0.2l0.5-0.1l-0.51,0.23
		c-0.02,0.02-0.07,0.07-0.13,0.14c-2.51,2.76-4.8,4.28-6.61,4.39L26.05,16.49z M23.88,14.07l2.21,2.31
		c1.78-0.12,4.03-1.62,6.51-4.35c0.01-0.01,0.03-0.03,0.04-0.04c-0.7,0.12-1.4,0.15-2.07,0.17c-0.02,0-0.05,0-0.07,0
		c-1.64,0-4.76-1.19-5.25-1.51c-0.21-0.13-0.67-0.24-1.33-0.32l-1.33,1.39c-0.26,0.28-0.26,0.72,0,1l0.44,0.46
		c0.32-0.49,0.85-0.77,1.58-0.83c0.96-0.08,1.46,0.56,1.53,1.23c0.06,0.55-0.17,1.16-0.71,1.23c-0.26,0.03-0.49-0.03-0.65-0.18
		c-0.32-0.29-0.33-0.84-0.32-1.03C24.24,13.62,24.03,13.79,23.88,14.07"/>
	<path d="M35.03,11.07c-0.12,0.07-0.24,0.13-0.36,0.19c-0.27,0.28-0.68,0.73-1.3,1.47c-1.41,1.7-4.1,3.87-6.41,4.64l3.32,3.46
		c0.28,0.3,0.75,0.3,1.03,0l2.78-2.9C33.07,16.71,34.5,12.11,35.03,11.07"/>
	<path d="M30.8,21.11L30.8,21.11c-0.21,0-0.41-0.09-0.56-0.24l-3.38-3.53l0.09-0.03c2.3-0.76,4.96-2.9,6.38-4.62
		c0.53-0.64,0.96-1.13,1.3-1.47l0.02-0.01c0.13-0.06,0.24-0.12,0.35-0.19l0.17-0.1l-0.09,0.17c-0.53,1.06-1.93,5.63-0.95,6.8
		l0.03,0.04l-0.03,0.04l-2.78,2.89C31.21,21.02,31.01,21.11,30.8,21.11 M27.07,17.39l3.26,3.4c0.13,0.13,0.29,0.2,0.47,0.2h0
		c0.18,0,0.35-0.07,0.47-0.2l2.74-2.86c-0.95-1.26,0.35-5.5,0.89-6.73c-0.06,0.03-0.13,0.07-0.19,0.1
		c-0.33,0.34-0.77,0.83-1.29,1.46C32,14.48,29.37,16.6,27.07,17.39"/>
	<path d="M11.65,26.58c-0.41,0.24-0.91,0.36-1.52,0.36h-1.9v2.45H7.45V23.4h2.78c1.48,0,2.23,0.6,2.23,1.79
		C12.45,25.81,12.19,26.27,11.65,26.58 M10.28,24.17H8.24v2h2.05c0.4,0,0.72-0.08,0.97-0.25c0.27-0.17,0.4-0.42,0.4-0.72
		C11.66,24.51,11.2,24.17,10.28,24.17"/>
	<path d="M8.28,29.43H7.41v-6.06h2.82c1.5,0,2.27,0.62,2.27,1.83c0,0.62-0.28,1.1-0.82,1.42c-0.41,0.24-0.93,0.37-1.54,0.37H8.28
		V29.43z M7.49,29.35H8.2V26.9h1.94c0.59,0,1.1-0.12,1.49-0.36h0c0.53-0.31,0.78-0.75,0.78-1.35c0-1.18-0.72-1.75-2.18-1.75H7.49
		V29.35z M10.29,26.21H8.2v-2.08h2.08c0.94,0,1.42,0.36,1.42,1.07c0,0.32-0.14,0.58-0.42,0.76C11.03,26.13,10.7,26.21,10.29,26.21
		 M8.28,26.13h2.01c0.39,0,0.71-0.08,0.94-0.24c0.26-0.17,0.39-0.4,0.39-0.69c0-0.67-0.44-0.99-1.34-0.99h-2V26.13z"/>
	<polygon points="17.06,29.39 17.06,26.66 13.36,26.66 13.36,29.39 12.57,29.39 12.57,23.4 13.36,23.4 13.36,25.89 17.06,25.89 
		17.06,23.4 17.85,23.4 17.85,29.39 	"/>
	<path d="M17.89,29.43h-0.87V26.7H13.4v2.73h-0.87v-6.06h0.87v2.49h3.62v-2.49h0.87V29.43z M17.1,29.35h0.71v-5.91H17.1v2.49h-3.78
		v-2.49h-0.71v5.91h0.71v-2.73h3.78V29.35z"/>
	<path d="M22.82,29.39l-0.8-1.77h-2.75l-0.81,1.77h-0.89l2.8-5.99h0.62l2.7,5.99H22.82z M20.67,24.65l-1.03,2.21h2.04L20.67,24.65z"
		/>
	<path d="M23.75,29.43h-0.96l-0.01-0.02l-0.79-1.74h-2.7l-0.81,1.77H17.5l0.03-0.06l2.81-6.01h0.67l0.01,0.02L23.75,29.43z
		 M22.84,29.35h0.78l-2.67-5.91h-0.56l-2.76,5.91h0.8l0.81-1.77h2.81l0.01,0.02L22.84,29.35z M21.74,26.89h-2.17l0.03-0.06
		l1.07-2.29L21.74,26.89z M19.7,26.81h1.91l-0.95-2.07L19.7,26.81z"/>
	<path d="M27.72,26.46c0.43,0.29,0.64,0.72,0.64,1.31v1.62h-0.79V27.8c0-0.61-0.45-0.92-1.35-0.92h-2.01v2.51h-0.79V23.4h2.88
		c1.43,0,2.15,0.55,2.15,1.66C28.44,25.69,28.2,26.16,27.72,26.46 M26.31,24.17h-2.1v1.94h1.97c0.44,0,0.79-0.08,1.05-0.24
		c0.29-0.18,0.43-0.44,0.43-0.78C27.65,24.48,27.2,24.17,26.31,24.17"/>
	<path d="M28.4,29.43h-0.87V27.8c0-0.59-0.43-0.88-1.31-0.88h-1.97v2.51h-0.87v-6.06h2.92c1.45,0,2.19,0.57,2.19,1.7
		c0,0.62-0.23,1.09-0.69,1.4c0.41,0.29,0.61,0.73,0.61,1.31V29.43z M27.61,29.35h0.71v-1.58c0-0.57-0.21-1-0.63-1.27l-0.05-0.03
		l0.05-0.03c0.47-0.3,0.71-0.76,0.71-1.37c0-1.09-0.69-1.62-2.11-1.62h-2.84v5.91h0.71v-2.51h2.05c0.92,0,1.39,0.32,1.39,0.96V29.35
		z M26.18,26.15h-2.01v-2.02h2.14c0.92,0,1.38,0.32,1.38,0.96c0,0.35-0.15,0.63-0.45,0.81C26.98,26.07,26.62,26.15,26.18,26.15
		 M24.25,26.07h1.93c0.43,0,0.77-0.08,1.02-0.23c0.28-0.17,0.41-0.42,0.41-0.75c0-0.59-0.43-0.88-1.3-0.88h-2.06V26.07z"/>
	<path d="M33.35,29.39l-0.8-1.77H29.8l-0.81,1.77H28.1l2.8-5.99h0.62l2.7,5.99H33.35z M31.2,24.65l-1.03,2.21h2.04L31.2,24.65z"/>
	<path d="M34.28,29.43h-0.96l-0.01-0.02l-0.79-1.74h-2.7l-0.81,1.77h-0.98l0.03-0.06l2.81-6.01h0.67l0.01,0.02L34.28,29.43z
		 M33.38,29.35h0.78l-2.67-5.91h-0.57l-2.76,5.91h0.8l0.81-1.77h2.81l0.01,0.02L33.38,29.35z M32.27,26.89H30.1l0.03-0.06l1.07-2.29
		L32.27,26.89z M30.23,26.81h1.91l-0.95-2.07L30.23,26.81z"/>
	<path d="M39.21,28.63c-0.57,0.55-1.34,0.82-2.3,0.82c-0.97,0-1.74-0.27-2.3-0.81c-0.56-0.55-0.84-1.29-0.84-2.23
		c0-0.94,0.29-1.68,0.86-2.21c0.56-0.51,1.32-0.77,2.28-0.77c0.97,0,1.73,0.26,2.29,0.77c0.58,0.53,0.86,1.27,0.86,2.21
		C40.06,27.34,39.78,28.08,39.21,28.63 M38.65,24.76c-0.41-0.38-1-0.57-1.75-0.57c-0.76,0-1.34,0.19-1.74,0.57
		c-0.41,0.38-0.61,0.93-0.61,1.63c0,0.71,0.21,1.26,0.62,1.67c0.41,0.41,0.99,0.61,1.73,0.61c0.75,0,1.34-0.2,1.75-0.6
		c0.41-0.4,0.62-0.96,0.62-1.67C39.27,25.69,39.07,25.15,38.65,24.76"/>
	<path d="M36.91,29.49c-0.98,0-1.76-0.28-2.33-0.83c-0.57-0.55-0.86-1.31-0.86-2.26c0-0.95,0.3-1.7,0.88-2.24
		c0.56-0.52,1.34-0.78,2.31-0.78c0.97,0,1.76,0.26,2.32,0.78c0.58,0.54,0.88,1.29,0.88,2.24c0,0.94-0.29,1.7-0.86,2.25
		C38.67,29.21,37.88,29.49,36.91,29.49 M36.91,23.47c-0.95,0-1.71,0.26-2.26,0.76c-0.56,0.52-0.85,1.25-0.85,2.18
		c0,0.93,0.28,1.67,0.83,2.2c0.55,0.53,1.32,0.8,2.27,0.8c0.95,0,1.72-0.27,2.28-0.81c0.56-0.54,0.84-1.28,0.84-2.2
		c0-0.92-0.29-1.66-0.85-2.18C38.62,23.72,37.86,23.47,36.91,23.47 M36.9,28.72c-0.75,0-1.34-0.21-1.76-0.62
		c-0.42-0.41-0.63-0.98-0.63-1.7c0-0.71,0.21-1.27,0.62-1.66c0.41-0.39,1.01-0.58,1.77-0.58c0.76,0,1.36,0.19,1.78,0.58
		c0.42,0.39,0.63,0.95,0.63,1.67c0,0.72-0.21,1.29-0.63,1.7C38.26,28.51,37.66,28.72,36.9,28.72 M36.9,24.24
		c-0.74,0-1.32,0.19-1.71,0.56c-0.4,0.37-0.6,0.91-0.6,1.6c0,0.69,0.2,1.24,0.61,1.64c0.4,0.4,0.98,0.6,1.71,0.6
		c0.74,0,1.32-0.2,1.72-0.59c0.4-0.39,0.61-0.95,0.61-1.65c0-0.7-0.2-1.24-0.61-1.61C38.22,24.42,37.64,24.24,36.9,24.24"/>
	<polygon points="44.68,29.39 44.68,26.66 40.98,26.66 40.98,29.39 40.19,29.39 40.19,23.4 40.98,23.4 40.98,25.89 44.68,25.89 
		44.68,23.4 45.47,23.4 45.47,29.39 	"/>
	<path d="M45.51,29.43h-0.87V26.7h-3.62v2.73h-0.87v-6.06h0.87v2.49h3.62v-2.49h0.87V29.43z M44.72,29.35h0.71v-5.91h-0.71v2.49
		h-3.78v-2.49h-0.71v5.91h0.71v-2.73h3.78V29.35z"/>
	<path d="M48.36,29.45c-0.75,0-1.36-0.14-1.83-0.41c-0.6-0.35-0.91-0.9-0.91-1.66v-0.39h0.79v0.36c0,0.88,0.65,1.32,1.95,1.32
		c0.47,0,0.86-0.07,1.16-0.21c0.35-0.16,0.53-0.4,0.53-0.72c0-0.23-0.06-0.4-0.16-0.5c-0.11-0.11-0.3-0.2-0.59-0.28
		c-0.16-0.05-0.55-0.14-1.16-0.27c-0.72-0.15-1.21-0.3-1.48-0.43c-0.57-0.29-0.85-0.72-0.85-1.31c0-1.08,0.8-1.62,2.39-1.62
		c1.66,0,2.5,0.73,2.52,2.18h-0.77c-0.04-0.62-0.21-1.02-0.51-1.18c-0.27-0.15-0.68-0.23-1.24-0.23c-1.07,0-1.6,0.28-1.6,0.86
		c0,0.27,0.13,0.47,0.38,0.61c0.21,0.11,0.57,0.21,1.1,0.3c1.02,0.18,1.71,0.38,2.06,0.59c0.47,0.28,0.7,0.72,0.7,1.31
		c0,0.59-0.29,1.04-0.88,1.33C49.51,29.33,48.98,29.45,48.36,29.45"/>
	<path d="M48.36,29.49c-0.75,0-1.37-0.14-1.85-0.41c-0.61-0.36-0.93-0.93-0.93-1.69v-0.43h0.87v0.4c0,0.86,0.62,1.28,1.91,1.28
		c0.47,0,0.85-0.07,1.14-0.21c0.34-0.15,0.51-0.38,0.51-0.68c0-0.22-0.05-0.38-0.15-0.48c-0.1-0.1-0.29-0.19-0.57-0.27
		c-0.17-0.05-0.57-0.14-1.16-0.26c-0.72-0.15-1.22-0.3-1.48-0.44c-0.58-0.29-0.87-0.74-0.87-1.34c0-1.1,0.82-1.66,2.43-1.66
		c1.68,0,2.54,0.75,2.56,2.22l0,0.04h-0.85l0-0.04c-0.04-0.61-0.2-0.99-0.49-1.15c-0.26-0.15-0.67-0.22-1.22-0.22
		c-1.03,0-1.56,0.27-1.56,0.82c0,0.26,0.12,0.45,0.36,0.57c0.2,0.1,0.57,0.2,1.08,0.3c1.02,0.18,1.72,0.38,2.07,0.6
		c0.48,0.29,0.72,0.74,0.72,1.34c0,0.61-0.3,1.07-0.9,1.37C49.53,29.37,48.98,29.49,48.36,29.49 M45.66,27.03v0.35
		c0,0.74,0.3,1.28,0.89,1.63c0.46,0.27,1.07,0.4,1.81,0.4c0.61,0,1.15-0.11,1.58-0.34c0.58-0.29,0.86-0.72,0.86-1.3
		c0-0.58-0.22-1-0.68-1.27c-0.34-0.21-1.03-0.41-2.05-0.59c-0.53-0.09-0.9-0.19-1.11-0.3c-0.27-0.14-0.4-0.36-0.4-0.64
		c0-0.59,0.55-0.89,1.64-0.89c0.56,0,0.98,0.08,1.26,0.23c0.31,0.17,0.48,0.56,0.53,1.18h0.69c-0.04-1.41-0.85-2.1-2.48-2.1
		c-1.56,0-2.35,0.53-2.35,1.58c0,0.56,0.28,0.99,0.83,1.27c0.26,0.13,0.75,0.28,1.46,0.43c0.59,0.13,0.99,0.22,1.16,0.27
		c0.29,0.08,0.49,0.18,0.6,0.29c0.12,0.11,0.18,0.29,0.18,0.53c0,0.33-0.19,0.59-0.55,0.75c-0.3,0.14-0.7,0.22-1.17,0.22
		c-1.32,0-1.99-0.46-1.99-1.36v-0.32H45.66z"/>
	<path d="M11.04,30.96h0.83c0.04,0,0.09,0,0.14,0.01c0.05,0.01,0.09,0.02,0.13,0.03c0.04,0.02,0.08,0.04,0.12,0.07
		c0.04,0.03,0.07,0.06,0.1,0.11c0.03,0.04,0.05,0.1,0.06,0.16c0.02,0.06,0.02,0.13,0.02,0.22c0,0.08-0.01,0.15-0.03,0.22
		c-0.02,0.06-0.04,0.11-0.07,0.16c-0.03,0.04-0.06,0.08-0.1,0.11c-0.04,0.03-0.08,0.05-0.12,0.06c-0.04,0.02-0.09,0.03-0.13,0.03
		c-0.05,0.01-0.09,0.01-0.13,0.01h-0.46v0.63h-0.35V30.96z M11.81,31.84c0.05,0,0.1-0.01,0.13-0.02c0.03-0.01,0.06-0.04,0.08-0.06
		c0.02-0.03,0.03-0.06,0.04-0.1c0.01-0.04,0.01-0.08,0.01-0.12c0-0.04,0-0.08-0.01-0.12c-0.01-0.04-0.02-0.07-0.04-0.1
		c-0.02-0.03-0.04-0.05-0.08-0.07c-0.03-0.02-0.08-0.03-0.13-0.03h-0.42v0.6H11.81z"/>
	<path d="M11.43,32.79H11v-1.88h0.87c0.04,0,0.09,0,0.14,0.01c0.05,0.01,0.1,0.02,0.14,0.04c0.04,0.02,0.09,0.04,0.13,0.07
		c0.04,0.03,0.08,0.07,0.1,0.12c0.03,0.05,0.05,0.1,0.07,0.17c0.02,0.06,0.02,0.14,0.02,0.22c0,0.09-0.01,0.16-0.03,0.22
		c-0.02,0.06-0.04,0.12-0.07,0.17c-0.03,0.05-0.07,0.09-0.11,0.12c-0.04,0.03-0.08,0.05-0.13,0.07c-0.04,0.02-0.09,0.03-0.14,0.03
		c-0.05,0.01-0.1,0.01-0.14,0.01h-0.42V32.79z M11.08,32.71h0.27v-0.63h0.51c0.03,0,0.08,0,0.13-0.01c0.04-0.01,0.08-0.02,0.12-0.03
		c0.04-0.02,0.08-0.03,0.11-0.06c0.03-0.02,0.06-0.06,0.09-0.09c0.03-0.04,0.05-0.09,0.06-0.14c0.02-0.06,0.02-0.13,0.02-0.2
		s-0.01-0.15-0.02-0.21c-0.01-0.06-0.03-0.11-0.06-0.14c-0.02-0.04-0.05-0.07-0.09-0.1c-0.03-0.03-0.07-0.04-0.11-0.06
		C12.08,31.02,12.04,31.01,12,31C11.95,31,11.91,31,11.87,31h-0.79V32.71z M11.82,31.88h-0.46V31.2h0.46c0.06,0,0.11,0.01,0.15,0.03
		c0.04,0.02,0.07,0.05,0.09,0.08c0.02,0.03,0.04,0.07,0.04,0.11c0.01,0.04,0.01,0.08,0.01,0.12c0,0.05,0,0.09-0.01,0.13
		c-0.01,0.04-0.02,0.08-0.04,0.11c-0.03,0.03-0.06,0.06-0.1,0.08C11.92,31.87,11.87,31.88,11.82,31.88 M11.43,31.8h0.38
		c0.05,0,0.08-0.01,0.11-0.02c0.03-0.01,0.05-0.03,0.06-0.05c0.02-0.02,0.03-0.05,0.03-0.08c0.01-0.03,0.01-0.07,0.01-0.11
		c0-0.04,0-0.08-0.01-0.11c-0.01-0.03-0.02-0.06-0.03-0.08c-0.02-0.02-0.04-0.04-0.06-0.05c-0.03-0.01-0.07-0.02-0.11-0.02h-0.38
		V31.8z"/>
	<polygon points="17.63,30.96 17.99,30.96 17.99,31.7 18.88,31.7 18.88,30.96 19.24,30.96 19.24,32.75 18.88,32.75 18.88,31.98 
		17.99,31.98 17.99,32.75 17.63,32.75 	"/>
	<path d="M19.28,32.79h-0.43v-0.77h-0.82v0.77h-0.43v-1.88h0.43v0.75h0.82v-0.75h0.43V32.79z M18.92,32.71h0.27V31h-0.27v0.75h-0.98
		V31h-0.27v1.72h0.27v-0.77h0.98V32.71z"/>
	<path d="M25.01,30.96h0.47l0.69,1.8h-0.39l-0.18-0.49h-0.71l-0.17,0.49h-0.38L25.01,30.96z M25.5,32l-0.26-0.76h-0.01L24.98,32
		H25.5z"/>
	<path d="M26.23,32.79h-0.48l-0.18-0.49h-0.66l-0.17,0.49h-0.47l0.02-0.05l0.69-1.82h0.52l0.01,0.03L26.23,32.79z M25.81,32.71h0.3
		L25.45,31h-0.41l-0.65,1.72h0.3l0.17-0.49h0.77L25.81,32.71z M25.56,32.04h-0.64l0.29-0.84h0.06l0.02,0.03L25.56,32.04z
		 M25.04,31.96h0.41l-0.2-0.61L25.04,31.96z"/>
	<path d="M31.27,30.96h0.78c0.06,0,0.11,0,0.16,0.01c0.05,0.01,0.1,0.02,0.15,0.03c0.05,0.02,0.09,0.04,0.13,0.06
		c0.04,0.03,0.07,0.06,0.1,0.1c0.03,0.04,0.05,0.09,0.07,0.15c0.02,0.06,0.02,0.13,0.02,0.21c0,0.05,0,0.1-0.01,0.14
		c-0.01,0.04-0.02,0.08-0.04,0.11c-0.02,0.03-0.04,0.06-0.06,0.09c-0.02,0.02-0.04,0.05-0.07,0.06c-0.05,0.04-0.11,0.07-0.18,0.09v0
		l0.44,0.73h-0.4l-0.39-0.66h-0.35v0.66h-0.35V30.96z M32.04,31.81c0.18,0,0.28-0.1,0.28-0.29c0-0.05-0.01-0.09-0.02-0.13
		c-0.01-0.04-0.03-0.06-0.06-0.09c-0.03-0.02-0.06-0.04-0.09-0.05c-0.04-0.01-0.07-0.02-0.12-0.02h-0.41v0.57H32.04z"/>
	<path d="M32.83,32.79h-0.5l-0.01-0.02l-0.38-0.64h-0.28v0.66h-0.43v-1.88h0.82c0.06,0,0.11,0,0.17,0.01
		c0.06,0.01,0.11,0.02,0.16,0.04c0.05,0.02,0.1,0.04,0.14,0.07c0.04,0.03,0.08,0.07,0.11,0.12c0.03,0.05,0.06,0.1,0.07,0.17
		c0.02,0.06,0.02,0.13,0.02,0.22c0,0.06,0,0.11-0.02,0.15c-0.01,0.05-0.03,0.09-0.04,0.12c-0.02,0.03-0.04,0.07-0.06,0.09
		c-0.02,0.02-0.05,0.05-0.07,0.07c-0.04,0.03-0.09,0.06-0.15,0.08L32.83,32.79z M32.38,32.71h0.31l-0.41-0.68v-0.04l0.03-0.01
		c0.06-0.01,0.12-0.04,0.17-0.08c0.02-0.02,0.04-0.04,0.06-0.06c0.02-0.02,0.04-0.05,0.05-0.08c0.02-0.03,0.03-0.06,0.04-0.1
		c0.01-0.04,0.01-0.08,0.01-0.14c0-0.08-0.01-0.14-0.02-0.2c-0.01-0.05-0.03-0.1-0.06-0.14c-0.03-0.04-0.06-0.07-0.09-0.09
		c-0.04-0.02-0.08-0.04-0.12-0.06c-0.04-0.01-0.09-0.02-0.14-0.03C32.15,31,32.1,31,32.05,31h-0.74v1.72h0.27v-0.66h0.41L32,32.07
		L32.38,32.71z M32.04,31.85h-0.46V31.2h0.46c0.05,0,0.09,0.01,0.13,0.02c0.04,0.01,0.08,0.03,0.11,0.05
		c0.03,0.03,0.05,0.06,0.07,0.1c0.02,0.04,0.02,0.09,0.02,0.14C32.36,31.79,32.19,31.85,32.04,31.85 M31.66,31.77h0.38
		c0.16,0,0.24-0.08,0.24-0.25c0-0.05-0.01-0.09-0.02-0.12c-0.01-0.03-0.03-0.05-0.05-0.07c-0.02-0.02-0.05-0.03-0.07-0.04
		c-0.03-0.01-0.07-0.01-0.11-0.01h-0.37V31.77z"/>
	<path d="M37.96,30.96h0.61l0.39,1.08h0.01l0.4-1.08h0.6v1.8h-0.35v-1.52h-0.01l-0.04,0.11c-0.01,0.03-0.02,0.07-0.03,0.1
		c-0.01,0.03-0.02,0.06-0.03,0.09l-0.27,0.73h-0.53l-0.28-0.73c-0.01-0.02-0.02-0.05-0.03-0.09c-0.01-0.03-0.02-0.07-0.04-0.1
		c-0.01-0.04-0.03-0.07-0.04-0.11h-0.01v1.52h-0.35V30.96z"/>
	<path d="M40.02,32.79h-0.43v-1.34c0,0,0,0.01,0,0.01l-0.01,0.03c-0.01,0.02-0.02,0.04-0.02,0.06l-0.28,0.75h-0.58l-0.29-0.77
		c-0.01-0.02-0.02-0.04-0.03-0.07c0,0,0-0.01,0-0.01v1.35h-0.43v-1.88h0.68l0.37,1.02l0.38-1.02h0.67V32.79z M39.66,32.71h0.27V31
		H39.4L39,32.08h-0.07L38.54,31H38v1.72h0.27V31.2h0.07l0.02,0.03l0.04,0.11c0.01,0.03,0.02,0.06,0.04,0.1
		c0.01,0.03,0.02,0.05,0.03,0.07l0.27,0.72h0.47l0.26-0.7c0.01-0.02,0.01-0.04,0.02-0.06l0.01-0.03c0.01-0.03,0.02-0.07,0.03-0.1
		l0.05-0.14h0.07l0.01,0.04V32.71z"/>
	<path d="M45.75,30.96h0.47l0.69,1.8h-0.39l-0.18-0.49h-0.71l-0.17,0.49h-0.38L45.75,30.96z M46.24,32l-0.26-0.76h-0.01L45.72,32
		H46.24z"/>
	<path d="M46.96,32.79h-0.48l-0.18-0.49h-0.66l-0.17,0.49h-0.47l0.02-0.05l0.69-1.82h0.52l0.01,0.03L46.96,32.79z M46.54,32.71h0.3
		L46.19,31h-0.41l-0.65,1.72h0.3l0.17-0.49h0.77L46.54,32.71z M46.3,32.04h-0.64l0.29-0.84h0.06l0.02,0.03L46.3,32.04z M45.78,31.96
		h0.41l-0.21-0.6L45.78,31.96z"/>
</g>
</svg>
