<?xml version="1.0" encoding="utf-8"?>
<!-- Generator: Adobe Illustrator 25.0.1, SVG Export Plug-In . SVG Version: 6.00 Build 0)  -->
<svg version="1.0" id="Layer_1" xmlns="http://www.w3.org/2000/svg" xmlns:xlink="http://www.w3.org/1999/xlink" x="0px" y="0px"
	 viewBox="0 0 101.99 33.82" style="enable-background:new 0 0 101.99 33.82;" xml:space="preserve">
<style type="text/css">
	.st0{fill:#000104;}
	.st1{fill:#FFFFFF;}
	.st2{fill:#EF493E;}
	.st3{opacity:0.6;fill-rule:evenodd;clip-rule:evenodd;fill:#FBBE43;}
	.st4{opacity:0.6;fill-rule:evenodd;clip-rule:evenodd;fill:#EF930E;}
	.st5{opacity:0.6;fill-rule:evenodd;clip-rule:evenodd;fill:#E67906;}
	.st6{fill:#9F8829;}
	.st7{fill:#3972A6;}
	.st8{fill:url(#SVGID_1_);stroke:#2B53A4;stroke-width:0.5;stroke-miterlimit:10;}
	.st9{fill:none;}
	.st10{fill:url(#SVGID_2_);}
	.st11{fill:url(#SVGID_3_);}
	.st12{fill:#B3B3B3;}
	.st13{fill:url(#SVGID_4_);}
	.st14{fill:url(#SVGID_5_);}
	.st15{fill:url(#SVGID_6_);}
	.st16{fill:#FFFFFF;stroke:#FFFFFF;stroke-width:0.25;stroke-miterlimit:10;}
	.st17{fill:#00001D;}
	.st18{fill:#4DA0C5;}
	.st19{fill:url(#SVGID_7_);}
	.st20{fill:#2E6A85;}
	.st21{fill:none;stroke:#144FA1;stroke-width:0.113;stroke-linejoin:round;stroke-miterlimit:10;}
	.st22{fill:#F27337;}
	.st23{fill:#8EB8D4;}
	.st24{fill:#F38056;}
	.st25{fill:#626365;}
	.st26{fill:#EF6D23;}
	.st27{fill:#284B82;}
	.st28{fill:#242956;}
	.st29{fill:#15142A;}
	.st30{fill:#84C343;}
	.st31{fill:#4CA1C6;}
	.st32{fill:#121617;}
	.st33{fill:#CF8966;}
	.st34{fill:#F37639;}
	.st35{opacity:0.3;fill:url(#SVGID_8_);}
	.st36{fill:#373277;}
	.st37{fill:#E61E25;}
	.st38{fill:#2555A5;}
	.st39{fill:#2E225E;}
	.st40{fill:#F8A425;}
	.st41{fill:#2058A7;}
	.st42{fill:none;stroke:#205AA8;stroke-width:0.156;stroke-miterlimit:10;}
	.st43{fill:#49A3C7;}
	.st44{fill-rule:evenodd;clip-rule:evenodd;}
	.st45{fill-rule:evenodd;clip-rule:evenodd;fill:url(#SVGID_9_);}
	.st46{fill-rule:evenodd;clip-rule:evenodd;fill:url(#SVGID_10_);}
	.st47{fill-rule:evenodd;clip-rule:evenodd;fill:url(#SVGID_11_);}
	.st48{fill:#1D2251;}
	.st49{fill:#2260AC;}
	.st50{fill:url(#SVGID_12_);}
	.st51{fill:#FFFFFC;}
	.st52{fill:#4C9FC5;}
	.st53{fill:#28306D;}
	.st54{fill:#4C9EC5;}
	.st55{fill:#28306E;}
	.st56{fill:#29306F;}
	.st57{fill:#F7F7FB;}
	.st58{fill:url(#SVGID_13_);}
	.st59{fill:url(#SVGID_14_);}
	.st60{fill:url(#SVGID_15_);}
	.st61{fill:url(#SVGID_16_);}
	.st62{fill:#10123C;}
	.st63{fill:#F5842C;}
	.st64{fill:#1F305E;}
	.st65{fill:#87BBD1;}
	.st66{fill:#203160;}
	.st67{fill:#235779;}
	.st68{fill:#359FA1;}
	.st69{fill:#A4D1A4;}
	.st70{fill:#B9DBBC;}
	.st71{fill:#C6DDCA;}
	.st72{fill:#662E14;}
	.st73{fill:#1D79A4;}
	.st74{fill:#C14B28;}
	.st75{fill:url(#SVGID_17_);}
	.st76{fill:url(#SVGID_18_);}
	.st77{fill:url(#SVGID_19_);}
	.st78{fill:url(#SVGID_20_);}
	.st79{fill:url(#SVGID_21_);}
	.st80{fill:url(#SVGID_22_);}
	.st81{fill:url(#SVGID_23_);}
	.st82{fill:url(#SVGID_24_);}
	.st83{fill:url(#SVGID_25_);}
	.st84{fill:url(#SVGID_26_);}
	.st85{fill:url(#SVGID_27_);}
	.st86{fill:url(#SVGID_28_);}
	.st87{fill:url(#SVGID_29_);}
	.st88{fill:url(#SVGID_30_);}
	.st89{fill:#1F164B;}
	.st90{clip-path:url(#SVGID_32_);fill:#253D97;}
	.st91{fill:url(#SVGID_33_);}
	.st92{fill:url(#SVGID_34_);}
	.st93{fill:url(#SVGID_35_);}
	.st94{fill:url(#SVGID_36_);}
	.st95{fill:url(#SVGID_37_);}
	.st96{fill:url(#SVGID_38_);}
	.st97{fill:url(#SVGID_39_);}
	.st98{fill:url(#SVGID_40_);}
	.st99{fill:url(#SVGID_41_);}
	.st100{fill:#443F41;}
	.st101{fill:#28306F;}
	.st102{fill:#71C49D;}
	.st103{fill:#F0C6A7;}
	.st104{fill:#DB8D82;}
	.st105{fill:#EFB7AC;}
	.st106{opacity:0.21;}
	.st107{fill-rule:evenodd;clip-rule:evenodd;fill:#A9196E;}
	.st108{fill-rule:evenodd;clip-rule:evenodd;fill:#FBE42C;}
	.st109{fill:#FBE42C;}
	.st110{fill:#A9196E;}
	.st111{fill:#7FC143;}
	.st112{clip-path:url(#SVGID_45_);fill:#7FC143;}
	.st113{clip-path:url(#SVGID_51_);fill:#7FC143;}
	.st114{fill:#243F8F;}
	.st115{fill:#EF4E2F;}
	.st116{fill:#010007;}
	.st117{fill:#0C0D37;}
	.st118{fill:#FBAF2D;}
	.st119{fill:url(#SVGID_54_);}
	.st120{fill-rule:evenodd;clip-rule:evenodd;fill:#FFFFFF;}
	.st121{fill:#1D4690;}
	.st122{fill:#3AA949;}
	.st123{fill:#F37A24;}
	.st124{fill:none;stroke:#F37A24;stroke-width:3.7145;stroke-miterlimit:10;}
	.st125{fill:#3AA949;stroke:#FFFFFF;stroke-width:1.3104;stroke-miterlimit:10;}
	.st126{fill:#46A2BB;}
	.st127{fill:#7153A0;}
	.st128{fill:#27316C;}
	.st129{fill:#2C65AE;}
	.st130{fill:#452D7A;}
	.st131{fill:#442C7A;}
	.st132{fill:#1A2642;}
	.st133{fill-rule:evenodd;clip-rule:evenodd;fill:#567EB8;}
	.st134{fill-rule:evenodd;clip-rule:evenodd;fill:#6A7EB8;}
	.st135{fill-rule:evenodd;clip-rule:evenodd;fill:#6A7EB9;}
	.st136{fill-rule:evenodd;clip-rule:evenodd;fill:#EE3C2D;}
	.st137{fill-rule:evenodd;clip-rule:evenodd;fill:#EF493F;}
	.st138{fill-rule:evenodd;clip-rule:evenodd;fill:#ED2C24;}
	.st139{fill-rule:evenodd;clip-rule:evenodd;fill:#E9AE28;}
	.st140{fill-rule:evenodd;clip-rule:evenodd;fill:#D69B28;}
	.st141{fill-rule:evenodd;clip-rule:evenodd;fill:#FCB729;}
	.st142{fill-rule:evenodd;clip-rule:evenodd;fill:#409E47;}
	.st143{fill-rule:evenodd;clip-rule:evenodd;fill:#4BB450;}
	.st144{fill-rule:evenodd;clip-rule:evenodd;fill:#338440;}
	.st145{fill:#C09C36;}
	.st146{fill:#1E552A;}
	.st147{clip-path:url(#SVGID_56_);fill:url(#SVGID_57_);}
	.st148{fill:#023A1E;}
	.st149{fill:#FFFFFA;}
	.st150{fill:#0D4F28;}
	.st151{fill:#0E5128;}
	.st152{fill:#0D4E27;}
	.st153{fill:#0E5229;}
	.st154{fill:#0E4823;}
	.st155{fill:#0E4C27;}
	.st156{fill:#F3F6E0;}
	.st157{fill:#0E4F28;}
	.st158{fill:#114823;}
	.st159{fill:#105229;}
	.st160{fill:#0A4A2B;}
	.st161{fill:#134F27;}
	.st162{fill:#165229;}
	.st163{fill:#0D5029;}
	.st164{fill:#0B4E2B;}
	.st165{fill:#105028;}
	.st166{fill:#0A492A;}
	.st167{fill:#E9F3E2;}
	.st168{fill:#144D26;}
	.st169{fill:#185C2F;}
	.st170{fill:#0F5028;}
	.st171{fill:#F3F8EA;}
	.st172{fill:#114D26;}
	.st173{fill:#70A685;}
	.st174{fill:#0D4F2A;}
	.st175{fill:#094A24;}
	.st176{fill:#0F4F27;}
	.st177{fill:#0A4C26;}
	.st178{fill:#A2D29A;}
	.st179{fill:#4D7E44;}
	.st180{fill:#E8F2E1;}
	.st181{fill:#EDF5E5;}
	.st182{fill:#E6F2E7;}
	.st183{fill:#E5F1DC;}
	.st184{fill:#E9F3E3;}
	.st185{fill:#E9F3E5;}
	.st186{fill:#E5F1DB;}
	.st187{fill:#D8ECD7;}
	.st188{fill:#D9EBD4;}
	.st189{fill:#E2F0DE;}
	.st190{fill:#366B4B;}
	.st191{fill:#5D6162;}
	.st192{fill:#212E5F;}
	.st193{fill:#DD1F26;}
	.st194{clip-path:url(#SVGID_59_);}
	.st195{fill:#23396F;}
	.st196{fill:#7FC24E;}
	.st197{clip-path:url(#SVGID_59_);fill:#23396F;}
	.st198{clip-path:url(#SVGID_59_);fill:#7FC24E;}
	.st199{fill:#91CEA4;}
	.st200{fill:#90CEA4;}
	.st201{fill:#C02026;}
	.st202{fill:#362E7E;}
</style>
<linearGradient id="SVGID_1_" gradientUnits="userSpaceOnUse" x1="-208.5636" y1="439.6515" x2="-210.4782" y2="540.4866" gradientTransform="matrix(0 -1 1 0 -437.0819 -192.5166)">
	<stop  offset="0" style="stop-color:#8F3F1E"/>
	<stop  offset="0.2617" style="stop-color:#F1D964"/>
	<stop  offset="0.3726" style="stop-color:#EBEC92"/>
	<stop  offset="0.4775" style="stop-color:#F1D964"/>
	<stop  offset="0.494" style="stop-color:#E1C55A"/>
	<stop  offset="0.5358" style="stop-color:#BE9743"/>
	<stop  offset="0.5759" style="stop-color:#A27431"/>
	<stop  offset="0.6133" style="stop-color:#8E5A24"/>
	<stop  offset="0.6471" style="stop-color:#824A1D"/>
	<stop  offset="0.6739" style="stop-color:#7E451A"/>
	<stop  offset="0.709" style="stop-color:#834B1D"/>
	<stop  offset="0.7565" style="stop-color:#925C24"/>
	<stop  offset="0.8111" style="stop-color:#AB7931"/>
	<stop  offset="0.8705" style="stop-color:#CDA043"/>
	<stop  offset="0.9231" style="stop-color:#F1C955"/>
	<stop  offset="0.9515" style="stop-color:#EED665"/>
	<stop  offset="1" style="stop-color:#EAEA7D"/>
</linearGradient>
<path style="fill:url(#SVGID_1_);" d="M10.87,21.01c0.21,0.09,0.55,0.13,1.05,0.13v0.37h-1.56H9.67H8.75v-0.37
	c0.28,0,0.49-0.04,0.62-0.13c0.13-0.09,0.19-0.25,0.19-0.5v-7.13c0-0.25-0.06-0.42-0.19-0.5c-0.13-0.09-0.33-0.13-0.62-0.13v-0.37
	h0.93h0.88v8.13C10.56,20.76,10.66,20.92,10.87,21.01z M15.11,21.51l-5.26-9.13h1.56l5.27,9.13H15.11z M17.17,21.01
	c0.13,0.09,0.33,0.13,0.62,0.13v0.37h-0.93h-0.88v-8.13c0-0.25-0.1-0.42-0.31-0.5c-0.21-0.09-0.55-0.13-1.05-0.13v-0.37h1.56h0.68
	h0.93v0.37c-0.28,0-0.49,0.04-0.62,0.13c-0.13,0.09-0.19,0.25-0.19,0.5v7.13C16.98,20.76,17.04,20.92,17.17,21.01z M21.77,12.36
	v0.37c-0.28,0-0.49,0.04-0.62,0.13c-0.13,0.09-0.19,0.25-0.19,0.5v4.75c0,0.95,0.2,1.63,0.6,2.05c0.4,0.42,0.94,0.63,1.61,0.63
	c0.67,0,1.2-0.2,1.6-0.59c0.4-0.39,0.6-1.02,0.6-1.89v-4.93c0-0.25-0.08-0.42-0.25-0.5c-0.17-0.09-0.45-0.13-0.84-0.13v-0.37h1.25
	h0.72h0.93v0.37c-0.29,0-0.49,0.04-0.62,0.13c-0.13,0.09-0.19,0.25-0.19,0.5v4.95c0,1.13-0.28,1.96-0.84,2.49
	c-0.56,0.54-1.35,0.8-2.36,0.8c-1.22,0-2.14-0.27-2.75-0.82c-0.62-0.54-0.93-1.43-0.93-2.67v-4.77c0-0.25-0.06-0.42-0.19-0.5
	c-0.13-0.09-0.33-0.13-0.62-0.13v-0.37h0.93h1.24H21.77z M28.23,12.34c0.16,0.02,0.37,0.04,0.63,0.04h5.46
	c0.27,0,0.47-0.01,0.63-0.04c0.15-0.02,0.3-0.07,0.45-0.15l0.07,0.79l0.13,1.52l-0.38,0.03c-0.04-0.47-0.11-0.81-0.22-1.03
	c-0.11-0.22-0.29-0.32-0.54-0.32h-5.74c-0.26,0-0.44,0.11-0.54,0.32c-0.11,0.21-0.19,0.56-0.25,1.05l-0.37-0.04l0.15-1.52l0.09-0.79
	C27.93,12.27,28.07,12.32,28.23,12.34z M32.56,21.01c0.16,0.09,0.42,0.13,0.78,0.13v0.37h-1.16h-1.16h-1.18v-0.37
	c0.36,0,0.62-0.04,0.78-0.13c0.16-0.09,0.24-0.25,0.24-0.5v-8.13h1.47v8.13C32.32,20.76,32.4,20.92,32.56,21.01z M42.38,20
	c0.45-0.36,0.75-0.79,0.88-1.28l0.37,0.07c-0.13,0.78-0.45,1.45-0.96,2c-0.51,0.55-1.36,0.82-2.56,0.82c-1.33,0-2.35-0.43-3.06-1.28
	c-0.72-0.85-1.08-2.03-1.08-3.53c0-0.92,0.17-1.72,0.5-2.41c0.33-0.69,0.81-1.22,1.43-1.6c0.62-0.38,1.35-0.57,2.19-0.57
	c1.31,0,2.21,0.33,2.71,1c0.5,0.67,0.75,1.53,0.75,2.6v0.29l-1.66-0.16c0.12-0.42,0.18-0.82,0.18-1.2c0-0.59-0.16-1.03-0.49-1.31
	c-0.32-0.28-0.76-0.42-1.31-0.42c-0.81,0-1.48,0.29-2.02,0.88c-0.54,0.59-0.81,1.56-0.81,2.9c0,0.76,0.13,1.43,0.38,1.99
	c0.25,0.56,0.61,0.99,1.08,1.29c0.47,0.3,1.02,0.45,1.66,0.45C41.32,20.54,41.93,20.36,42.38,20z M44.37,21.51v-0.37
	c0.28,0,0.49-0.04,0.62-0.13c0.13-0.09,0.19-0.25,0.19-0.5v-7.13c0-0.25-0.06-0.42-0.19-0.5c-0.13-0.09-0.33-0.13-0.62-0.13v-0.37
	h0.93h1.35v8.13c0,0.25,0.06,0.42,0.19,0.5c0.13,0.09,0.33,0.13,0.62,0.13v0.37h-0.93H45.3H44.37z M49.38,21.51v-0.37
	c0.34,0,0.58-0.01,0.7-0.02c0.12-0.01,0.19-0.05,0.19-0.11s-0.05-0.16-0.17-0.3l-3.99-5.08v-1.02h0.54c0,0.44,0.17,0.8,0.5,1.08
	c0.33,0.28,0.72,0.42,1.16,0.42c0.48,0,0.84-0.13,1.09-0.39c0.25-0.26,0.37-0.6,0.37-1.02c0-0.5-0.13-0.87-0.38-1.13
	c-0.25-0.26-0.67-0.39-1.24-0.39h-1.65v-0.8h2c0.87,0,1.56,0.19,2.05,0.58c0.49,0.39,0.74,0.92,0.74,1.6c0,0.7-0.25,1.23-0.76,1.58
	c-0.51,0.36-1.1,0.54-1.79,0.54c-0.36,0-0.66-0.04-0.9-0.11l-0.03,0.07c0.33,0.2,0.69,0.45,1.06,0.76c0.37,0.31,0.68,0.6,0.93,0.89
	l2.56,2.95v0.27h-1.43H49.38z M54.22,20.55c-0.07,0.24-0.03,0.4,0.11,0.47c0.14,0.08,0.44,0.11,0.91,0.11v0.37h-1.49H53h-0.93v-0.37
	c0.3,0,0.54-0.04,0.72-0.12c0.18-0.08,0.3-0.24,0.37-0.47l2.12-7.21c0.07-0.24,0.03-0.4-0.11-0.47c-0.14-0.08-0.44-0.11-0.91-0.11
	v-0.37h1.49h1.69l2.39,8.17c0.07,0.23,0.19,0.38,0.37,0.47c0.18,0.08,0.42,0.12,0.72,0.12v0.37H60h-1.16h-1.49v-0.37
	c0.46,0,0.76-0.04,0.91-0.11c0.14-0.08,0.18-0.23,0.11-0.47l-2.33-7.97h0.52L54.22,20.55z M58.76,18.07v0.8h-4.33v-0.8H58.76z
	 M66.95,20c0.45-0.36,0.75-0.79,0.88-1.28l0.37,0.07c-0.13,0.78-0.45,1.45-0.96,2c-0.51,0.55-1.36,0.82-2.56,0.82
	c-1.33,0-2.35-0.43-3.06-1.28c-0.72-0.85-1.08-2.03-1.08-3.53c0-0.92,0.17-1.72,0.5-2.41c0.33-0.69,0.81-1.22,1.43-1.6
	s1.35-0.57,2.19-0.57c1.31,0,2.21,0.33,2.71,1c0.5,0.67,0.75,1.53,0.75,2.6v0.29l-1.66-0.16c0.12-0.42,0.18-0.82,0.18-1.2
	c0-0.59-0.16-1.03-0.49-1.31c-0.32-0.28-0.76-0.42-1.31-0.42c-0.81,0-1.48,0.29-2.02,0.88c-0.54,0.59-0.81,1.56-0.81,2.9
	c0,0.76,0.13,1.43,0.38,1.99c0.25,0.56,0.61,0.99,1.08,1.29c0.47,0.3,1.02,0.45,1.66,0.45C65.89,20.54,66.5,20.36,66.95,20z
	 M71.41,21.01c0.13,0.09,0.33,0.13,0.62,0.13v0.37H71.1h-1.24h-0.93v-0.37c0.28,0,0.49-0.04,0.62-0.13c0.13-0.09,0.19-0.25,0.19-0.5
	v-7.13c0-0.25-0.06-0.42-0.19-0.5c-0.13-0.09-0.33-0.13-0.62-0.13v-0.37h0.93h1.24h0.93v0.37c-0.28,0-0.49,0.04-0.62,0.13
	c-0.13,0.09-0.19,0.25-0.19,0.5v7.13C71.22,20.76,71.28,20.92,71.41,21.01z M77.35,12.38v0.37c-0.48,0-0.85,0.02-1.11,0.07
	c-0.26,0.05-0.46,0.16-0.61,0.34l-4.71,5.88l-0.65-0.7l4.11-5.18c0.11-0.14,0.16-0.24,0.16-0.29c0-0.05-0.06-0.09-0.18-0.1
	c-0.12-0.01-0.36-0.02-0.7-0.02v-0.37h1.56h0.88H77.35z M77.05,21.06c0.23,0.05,0.52,0.08,0.87,0.08v0.37h-0.93h-1.31h-1.56v-0.37
	c0.34,0,0.58-0.01,0.71-0.02c0.13-0.01,0.19-0.05,0.2-0.11c0-0.06-0.05-0.16-0.15-0.31l-2.77-3.8l1.69,0.11l2.71,3.68
	C76.64,20.89,76.83,21.01,77.05,21.06z M78.23,21.14c0.28,0,0.49-0.04,0.62-0.13c0.13-0.09,0.19-0.25,0.19-0.5v-7.13
	c0-0.25-0.06-0.42-0.19-0.5c-0.13-0.09-0.33-0.13-0.62-0.13v-0.37h0.93h1.35v9.13h-1.35h-0.93V21.14z M83.89,16.23
	c0.09-0.1,0.13-0.27,0.13-0.51h0.38v0.76v0.59v0.76h-0.38c0-0.24-0.04-0.41-0.13-0.51c-0.09-0.1-0.26-0.15-0.52-0.15h-3.11v-0.79
	h3.11C83.62,16.38,83.8,16.33,83.89,16.23z M85.64,14.49l-0.38,0.07c-0.1-0.48-0.21-0.83-0.34-1.05c-0.13-0.22-0.32-0.33-0.57-0.33
	h-4.04v-0.8h4.9l0.12,0.6L85.64,14.49z M85.11,20.37c0.16-0.22,0.31-0.57,0.46-1.04l0.37,0.11l-0.46,1.45l-0.19,0.62h-4.93v-0.8
	h4.15C84.75,20.71,84.95,20.6,85.11,20.37z M86.85,21.51v-0.37c0.28,0,0.49-0.04,0.62-0.13c0.13-0.09,0.19-0.25,0.19-0.5v-7.13
	c0-0.25-0.06-0.42-0.19-0.5c-0.13-0.09-0.33-0.13-0.62-0.13v-0.37h0.93h1.35v8.13c0,0.25,0.06,0.42,0.19,0.5
	c0.13,0.09,0.33,0.13,0.62,0.13v0.37h-0.93h-1.24H86.85z M91.85,21.51v-0.37c0.34,0,0.58-0.01,0.7-0.02
	c0.12-0.01,0.19-0.05,0.19-0.11c0-0.06-0.05-0.16-0.17-0.3l-3.99-5.08v-1.02h0.54c0,0.44,0.17,0.8,0.5,1.08
	c0.33,0.28,0.72,0.42,1.16,0.42c0.48,0,0.84-0.13,1.09-0.39c0.25-0.26,0.37-0.6,0.37-1.02c0-0.5-0.13-0.87-0.38-1.13
	c-0.25-0.26-0.67-0.39-1.24-0.39h-1.65v-0.8h2c0.87,0,1.56,0.19,2.05,0.58c0.49,0.39,0.74,0.92,0.74,1.6c0,0.7-0.25,1.23-0.76,1.58
	c-0.51,0.36-1.1,0.54-1.79,0.54c-0.36,0-0.66-0.04-0.9-0.11l-0.03,0.07c0.33,0.2,0.69,0.45,1.06,0.76c0.37,0.31,0.68,0.6,0.93,0.89
	l2.56,2.95v0.27h-1.43H91.85z"/>
</svg>
