<?xml version="1.0" encoding="utf-8"?>
<!-- Generator: Adobe Illustrator 25.0.1, SVG Export Plug-In . SVG Version: 6.00 Build 0)  -->
<svg version="1.0" id="Layer_1" xmlns="http://www.w3.org/2000/svg" xmlns:xlink="http://www.w3.org/1999/xlink" x="0px" y="0px"
	 viewBox="0 0 80.38 43.79" style="enable-background:new 0 0 80.38 43.79;" xml:space="preserve">
<style type="text/css">
	.st0{fill:#000104;}
	.st1{fill:#FFFFFF;}
	.st2{fill:#EF493E;}
	.st3{opacity:0.6;fill-rule:evenodd;clip-rule:evenodd;fill:#FBBE43;}
	.st4{opacity:0.6;fill-rule:evenodd;clip-rule:evenodd;fill:#EF930E;}
	.st5{opacity:0.6;fill-rule:evenodd;clip-rule:evenodd;fill:#E67906;}
	.st6{fill:#9F8829;}
	.st7{fill:#3972A6;}
	.st8{fill:url(#SVGID_1_);stroke:#2B53A4;stroke-width:0.5;stroke-miterlimit:10;}
	.st9{fill:none;}
	.st10{fill:url(#SVGID_2_);}
	.st11{fill:url(#SVGID_3_);}
	.st12{fill:#B3B3B3;}
	.st13{fill:url(#SVGID_4_);}
	.st14{fill:url(#SVGID_5_);}
	.st15{fill:url(#SVGID_6_);}
	.st16{fill:#FFFFFF;stroke:#FFFFFF;stroke-width:0.25;stroke-miterlimit:10;}
	.st17{fill:#00001D;}
	.st18{fill:#4DA0C5;}
	.st19{fill:url(#SVGID_7_);}
	.st20{fill:#2E6A85;}
	.st21{fill:none;stroke:#144FA1;stroke-width:0.113;stroke-linejoin:round;stroke-miterlimit:10;}
	.st22{fill:#F27337;}
	.st23{fill:#8EB8D4;}
	.st24{fill:#F38056;}
	.st25{fill:#626365;}
	.st26{fill:#EF6D23;}
	.st27{fill:#284B82;}
	.st28{fill:#242956;}
	.st29{fill:#15142A;}
	.st30{fill:#84C343;}
	.st31{fill:#4CA1C6;}
	.st32{fill:#121617;}
	.st33{fill:#CF8966;}
	.st34{fill:#F37639;}
	.st35{opacity:0.3;fill:url(#SVGID_8_);}
	.st36{fill:#373277;}
	.st37{fill:#E61E25;}
	.st38{fill:#2555A5;}
	.st39{fill:#2E225E;}
	.st40{fill:#F8A425;}
	.st41{fill:#2058A7;}
	.st42{fill:none;stroke:#205AA8;stroke-width:0.156;stroke-miterlimit:10;}
	.st43{fill:#49A3C7;}
	.st44{fill-rule:evenodd;clip-rule:evenodd;}
	.st45{fill-rule:evenodd;clip-rule:evenodd;fill:url(#SVGID_9_);}
	.st46{fill-rule:evenodd;clip-rule:evenodd;fill:url(#SVGID_10_);}
	.st47{fill-rule:evenodd;clip-rule:evenodd;fill:url(#SVGID_11_);}
	.st48{fill:#1D2251;}
	.st49{fill:#2260AC;}
	.st50{fill:url(#SVGID_12_);}
	.st51{fill:#FFFFFC;}
	.st52{fill:#4C9FC5;}
	.st53{fill:#28306D;}
	.st54{fill:#4C9EC5;}
	.st55{fill:#28306E;}
	.st56{fill:#29306F;}
	.st57{fill:#F7F7FB;}
	.st58{fill:url(#SVGID_13_);}
	.st59{fill:url(#SVGID_14_);}
	.st60{fill:url(#SVGID_15_);}
	.st61{fill:url(#SVGID_16_);}
	.st62{fill:#10123C;}
	.st63{fill:#F5842C;}
	.st64{fill:#1F305E;}
	.st65{fill:#87BBD1;}
	.st66{fill:#203160;}
	.st67{fill:#235779;}
	.st68{fill:#359FA1;}
	.st69{fill:#A4D1A4;}
	.st70{fill:#B9DBBC;}
	.st71{fill:#C6DDCA;}
	.st72{fill:#662E14;}
	.st73{fill:#1D79A4;}
	.st74{fill:#C14B28;}
	.st75{fill:url(#SVGID_17_);}
	.st76{fill:url(#SVGID_18_);}
	.st77{fill:url(#SVGID_19_);}
	.st78{fill:url(#SVGID_20_);}
	.st79{fill:url(#SVGID_21_);}
	.st80{fill:url(#SVGID_22_);}
	.st81{fill:url(#SVGID_23_);}
	.st82{fill:url(#SVGID_24_);}
	.st83{fill:url(#SVGID_25_);}
	.st84{fill:url(#SVGID_26_);}
	.st85{fill:url(#SVGID_27_);}
	.st86{fill:url(#SVGID_28_);}
	.st87{fill:url(#SVGID_29_);}
	.st88{fill:url(#SVGID_30_);}
	.st89{fill:#1F164B;}
	.st90{clip-path:url(#SVGID_32_);fill:#253D97;}
	.st91{fill:url(#SVGID_33_);}
	.st92{fill:url(#SVGID_34_);}
	.st93{fill:url(#SVGID_35_);}
	.st94{fill:url(#SVGID_36_);}
	.st95{fill:url(#SVGID_37_);}
	.st96{fill:url(#SVGID_38_);}
	.st97{fill:url(#SVGID_39_);}
	.st98{fill:url(#SVGID_40_);}
	.st99{fill:url(#SVGID_41_);}
	.st100{fill:#443F41;}
	.st101{fill:#28306F;}
	.st102{fill:#71C49D;}
	.st103{fill:#F0C6A7;}
	.st104{fill:#DB8D82;}
	.st105{fill:#EFB7AC;}
	.st106{opacity:0.21;}
	.st107{fill-rule:evenodd;clip-rule:evenodd;fill:#A9196E;}
	.st108{fill-rule:evenodd;clip-rule:evenodd;fill:#FBE42C;}
	.st109{fill:#FBE42C;}
	.st110{fill:#A9196E;}
	.st111{fill:#7FC143;}
	.st112{clip-path:url(#SVGID_45_);fill:#7FC143;}
	.st113{clip-path:url(#SVGID_51_);fill:#7FC143;}
	.st114{fill:#243F8F;}
	.st115{fill:#EF4E2F;}
	.st116{fill:#010007;}
	.st117{fill:#0C0D37;}
	.st118{fill:#FBAF2D;}
	.st119{fill:url(#SVGID_54_);}
	.st120{fill-rule:evenodd;clip-rule:evenodd;fill:#FFFFFF;}
	.st121{fill:#1D4690;}
	.st122{fill:#3AA949;}
	.st123{fill:#F37A24;}
	.st124{fill:none;stroke:#F37A24;stroke-width:3.7145;stroke-miterlimit:10;}
	.st125{fill:#3AA949;stroke:#FFFFFF;stroke-width:1.3104;stroke-miterlimit:10;}
	.st126{fill:#46A2BB;}
	.st127{fill:#7153A0;}
	.st128{fill:#27316C;}
	.st129{fill:#2C65AE;}
	.st130{fill:#452D7A;}
	.st131{fill:#442C7A;}
	.st132{fill:#1A2642;}
	.st133{fill-rule:evenodd;clip-rule:evenodd;fill:#567EB8;}
	.st134{fill-rule:evenodd;clip-rule:evenodd;fill:#6A7EB8;}
	.st135{fill-rule:evenodd;clip-rule:evenodd;fill:#6A7EB9;}
	.st136{fill-rule:evenodd;clip-rule:evenodd;fill:#EE3C2D;}
	.st137{fill-rule:evenodd;clip-rule:evenodd;fill:#EF493F;}
	.st138{fill-rule:evenodd;clip-rule:evenodd;fill:#ED2C24;}
	.st139{fill-rule:evenodd;clip-rule:evenodd;fill:#E9AE28;}
	.st140{fill-rule:evenodd;clip-rule:evenodd;fill:#D69B28;}
	.st141{fill-rule:evenodd;clip-rule:evenodd;fill:#FCB729;}
	.st142{fill-rule:evenodd;clip-rule:evenodd;fill:#409E47;}
	.st143{fill-rule:evenodd;clip-rule:evenodd;fill:#4BB450;}
	.st144{fill-rule:evenodd;clip-rule:evenodd;fill:#338440;}
	.st145{fill:#C09C36;}
	.st146{fill:#1E552A;}
	.st147{clip-path:url(#SVGID_56_);fill:url(#SVGID_57_);}
	.st148{fill:#023A1E;}
	.st149{fill:#FFFFFA;}
	.st150{fill:#0D4F28;}
	.st151{fill:#0E5128;}
	.st152{fill:#0D4E27;}
	.st153{fill:#0E5229;}
	.st154{fill:#0E4823;}
	.st155{fill:#0E4C27;}
	.st156{fill:#F3F6E0;}
	.st157{fill:#0E4F28;}
	.st158{fill:#114823;}
	.st159{fill:#105229;}
	.st160{fill:#0A4A2B;}
	.st161{fill:#134F27;}
	.st162{fill:#165229;}
	.st163{fill:#0D5029;}
	.st164{fill:#0B4E2B;}
	.st165{fill:#105028;}
	.st166{fill:#0A492A;}
	.st167{fill:#E9F3E2;}
	.st168{fill:#144D26;}
	.st169{fill:#185C2F;}
	.st170{fill:#0F5028;}
	.st171{fill:#F3F8EA;}
	.st172{fill:#114D26;}
	.st173{fill:#70A685;}
	.st174{fill:#0D4F2A;}
	.st175{fill:#094A24;}
	.st176{fill:#0F4F27;}
	.st177{fill:#0A4C26;}
	.st178{fill:#A2D29A;}
	.st179{fill:#4D7E44;}
	.st180{fill:#E8F2E1;}
	.st181{fill:#EDF5E5;}
	.st182{fill:#E6F2E7;}
	.st183{fill:#E5F1DC;}
	.st184{fill:#E9F3E3;}
	.st185{fill:#E9F3E5;}
	.st186{fill:#E5F1DB;}
	.st187{fill:#D8ECD7;}
	.st188{fill:#D9EBD4;}
	.st189{fill:#E2F0DE;}
	.st190{fill:#366B4B;}
	.st191{fill:#5D6162;}
	.st192{fill:#212E5F;}
	.st193{fill:#DD1F26;}
	.st194{clip-path:url(#SVGID_59_);}
	.st195{fill:#23396F;}
	.st196{fill:#7FC24E;}
	.st197{clip-path:url(#SVGID_59_);fill:#23396F;}
	.st198{clip-path:url(#SVGID_59_);fill:#7FC24E;}
	.st199{fill:#91CEA4;}
	.st200{fill:#90CEA4;}
	.st201{fill:#C02026;}
	.st202{fill:#362E7E;}
</style>
<g>
	<path class="st111" d="M50.16,3.14H33.36c-3.01,0-5.47,2.4-5.47,5.33v6.09c0,2.93,2.47,5.32,5.47,5.32h16.81
		c3.01,0,5.47-2.4,5.47-5.32V8.46C55.64,5.53,53.17,3.14,50.16,3.14z M41.49,7.82c0.01,0.26-0.08,0.32-0.34,0.32
		c-2.12-0.01-4.25,0.03-6.37-0.02c-1.11-0.03-1.46,1.06-1.14,1.74c0.19,0.41,0.52,0.6,0.98,0.6c2.16-0.01,4.32,0,6.49-0.01
		c0.29,0,0.39,0.07,0.38,0.37c-0.02,0.66-0.02,1.32,0,1.98c0.01,0.27-0.08,0.34-0.35,0.34c-2.16-0.01-4.32-0.01-6.49-0.01
		c-0.77,0-1.23,0.54-1.12,1.29c0.1,0.65,0.49,0.97,1.16,0.97c2.14,0,4.29,0.01,6.43-0.01c0.28-0.01,0.37,0.07,0.36,0.35
		c-0.02,0.66-0.02,1.32,0,1.98c0.01,0.29-0.09,0.35-0.37,0.35c-1.22-0.01-2.44-0.01-3.65-0.01c-1.12,0-2.23-0.02-3.33,0.01
		c-2.08,0.04-3.23-1.5-3.46-3c-0.17-1.11-0.02-2.15,0.57-3.12c0.05-0.09,0.01-0.27-0.05-0.38c-0.78-1.48-0.84-2.97,0.01-4.43
		c0.62-1.07,1.61-1.59,2.87-1.6c2.36-0.01,4.71,0,7.08-0.01c0.25,0,0.34,0.06,0.33,0.32C41.47,6.5,41.47,7.16,41.49,7.82z
		 M52.16,11.76c-0.65,0.88-1.53,1.32-2.64,1.33c-1.02,0.01-2.05-0.02-3.06,0.04c-1.05,0.05-1.62,0.67-1.65,1.72
		c-0.02,0.96-0.01,1.93,0.02,2.9c0.01,0.28-0.08,0.35-0.36,0.35c-0.73-0.02-1.45-0.01-2.18,0c-0.21,0-0.29-0.06-0.29-0.28
		c0.01-1.34-0.01-2.67,0.02-4.01c0.01-0.47,0.09-0.96,0.25-1.4c0.44-1.27,1.52-1.99,2.95-2c1.18-0.01,2.36-0.01,3.53,0
		c0.48,0.01,0.89-0.12,1.09-0.58c0.22-0.49,0.16-0.97-0.19-1.4c-0.25-0.3-0.61-0.32-0.97-0.32h-6.1c-0.58,0-0.58,0-0.58-0.56
		c-0.01-0.7-0.02-1.4-0.02-2.09h7.9c0.12,0.03,0.25,0.06,0.37,0.09c0.7,0.16,1.29,0.51,1.74,1.06C53.16,7.97,53.24,10.3,52.16,11.76
		z"/>
	<polygon class="st111" points="18.82,25.15 15.36,25.15 15.36,26.11 18.85,26.11 18.85,27.22 13.94,27.22 13.94,22.07 18.83,22.07 
		18.83,23.19 15.36,23.19 15.36,24.15 18.82,24.15 	"/>
	<polygon class="st111" points="22.13,25.56 20.85,27.23 19.32,27.23 21.34,24.55 19.42,22.07 20.98,22.07 22.16,23.59 23.35,22.07 
		24.88,22.07 22.95,24.61 24.98,27.23 23.43,27.23 	"/>
	<path class="st111" d="M29.77,27.22H27.3c-0.39,0-0.73-0.03-1.03-0.1c-0.29-0.07-0.54-0.2-0.73-0.38
		c-0.19-0.19-0.34-0.45-0.44-0.78c-0.1-0.33-0.14-0.77-0.14-1.3c0-0.54,0.05-0.97,0.14-1.3c0.1-0.33,0.24-0.6,0.44-0.78
		c0.2-0.19,0.44-0.32,0.73-0.39c0.3-0.07,0.64-0.1,1.03-0.1h2.47v1.13h-2.46c-0.18,0-0.33,0.02-0.45,0.06
		c-0.12,0.04-0.22,0.11-0.29,0.22c-0.07,0.11-0.13,0.26-0.16,0.44c-0.03,0.19-0.05,0.43-0.05,0.72c0,0.29,0.02,0.53,0.05,0.72
		c0.04,0.19,0.09,0.34,0.16,0.44c0.08,0.11,0.18,0.18,0.3,0.22c0.12,0.04,0.27,0.06,0.45,0.06h2.46V27.22z"/>
	<polygon class="st111" points="35.46,25.15 32,25.15 32,26.11 35.48,26.11 35.48,27.22 30.58,27.22 30.58,22.07 35.47,22.07 
		35.47,23.19 32,23.19 32,24.15 35.46,24.15 	"/>
	<polygon class="st111" points="37.78,26.11 41.06,26.11 41.06,27.22 36.37,27.22 36.37,22.07 37.78,22.07 	"/>
	<polygon class="st111" points="43.09,26.11 46.36,26.11 46.36,27.22 41.67,27.22 41.67,22.07 43.09,22.07 	"/>
	<polygon class="st111" points="51.85,25.15 48.4,25.15 48.4,26.11 51.88,26.11 51.88,27.22 46.98,27.22 46.98,22.07 51.86,22.07 
		51.86,23.19 48.4,23.19 48.4,24.15 51.85,24.15 	"/>
	<polygon class="st111" points="57.07,25.72 57.07,22.07 58.38,22.07 58.38,27.22 56.65,27.22 54.08,23.7 54.08,27.22 52.76,27.22 
		52.76,22.07 54.44,22.07 	"/>
	<path class="st111" d="M63.96,27.22h-2.47c-0.39,0-0.73-0.03-1.03-0.1c-0.29-0.07-0.54-0.2-0.74-0.38
		c-0.19-0.19-0.34-0.45-0.44-0.78c-0.09-0.33-0.14-0.77-0.14-1.3c0-0.54,0.05-0.97,0.14-1.3c0.1-0.33,0.25-0.6,0.44-0.78
		c0.19-0.19,0.44-0.32,0.74-0.39c0.3-0.07,0.64-0.1,1.03-0.1h2.47v1.13H61.5c-0.18,0-0.33,0.02-0.45,0.06
		c-0.12,0.04-0.22,0.11-0.29,0.22c-0.07,0.11-0.13,0.26-0.16,0.44c-0.03,0.19-0.05,0.43-0.05,0.72c0,0.29,0.02,0.53,0.05,0.72
		c0.03,0.19,0.09,0.34,0.16,0.44c0.07,0.11,0.17,0.18,0.3,0.22c0.12,0.04,0.27,0.06,0.45,0.06h2.46V27.22z"/>
	<polygon class="st111" points="69.65,25.15 66.19,25.15 66.19,26.11 69.67,26.11 69.67,27.22 64.77,27.22 64.77,22.07 69.66,22.07 
		69.66,23.19 66.19,23.19 66.19,24.15 69.65,24.15 	"/>
	<path class="st111" d="M28.25,29.76c-0.07-0.14-0.16-0.25-0.27-0.32c-0.12-0.08-0.25-0.13-0.43-0.16
		c-0.12-0.02-0.29-0.03-0.52-0.03h-1.31v3.36h0.46v-1.37h0.88c0.49,0,0.82-0.09,1.01-0.3c0.18-0.2,0.28-0.44,0.28-0.72
		C28.36,30.06,28.32,29.9,28.25,29.76z M27.71,30.69c-0.12,0.11-0.34,0.16-0.63,0.16h-0.89v-1.2h0.88c0.21,0,0.35,0.01,0.43,0.03
		c0.12,0.03,0.21,0.09,0.29,0.2c0.07,0.1,0.11,0.22,0.11,0.36C27.89,30.43,27.83,30.58,27.71,30.69z"/>
	<polygon class="st111" points="32.81,32.61 32.81,29.25 33.26,29.25 33.26,30.63 35.05,30.63 35.05,29.25 35.51,29.25 35.51,32.61 
		35.05,32.61 35.05,31.03 33.26,31.03 33.26,32.61 	"/>
	<path class="st111" d="M41.56,29.25h-0.49l-1.32,3.36h0.48l0.38-1.02h1.44l0.4,1.02h0.52L41.56,29.25z M40.74,31.23l0.38-0.99
		c0.08-0.21,0.14-0.42,0.19-0.64c0.05,0.18,0.14,0.41,0.24,0.7l0.36,0.93H40.74z"/>
	<path class="st111" d="M49.63,31.7c-0.12-0.18-0.24-0.33-0.38-0.45c-0.06-0.06-0.16-0.11-0.27-0.16c0.33-0.05,0.57-0.15,0.73-0.32
		c0.16-0.16,0.23-0.36,0.23-0.6c0-0.18-0.05-0.35-0.14-0.51c-0.1-0.15-0.22-0.26-0.38-0.32c-0.16-0.06-0.4-0.09-0.7-0.09h-1.53v3.36
		h0.45v-1.49h0.53c0.11,0,0.2,0.01,0.25,0.02c0.06,0.02,0.14,0.04,0.21,0.09c0.06,0.04,0.14,0.12,0.23,0.23
		c0.09,0.11,0.19,0.26,0.33,0.46l0.45,0.7h0.58L49.63,31.7z M48.63,30.74h-0.98v-1.11h1.09c0.25,0,0.44,0.05,0.56,0.15
		c0.12,0.11,0.18,0.23,0.18,0.39c0,0.11-0.03,0.21-0.09,0.3c-0.07,0.09-0.15,0.16-0.27,0.2C49,30.71,48.84,30.74,48.63,30.74z"/>
	<path class="st111" d="M54.5,32.61v-3.35h0.69L56,31.63c0.08,0.22,0.13,0.39,0.16,0.5c0.04-0.12,0.1-0.3,0.18-0.54l0.83-2.33h0.61
		v3.35h-0.44V29.8l-1,2.81h-0.41l-1-2.85v2.85H54.5z"/>
	<g>
		<g>
			<defs>
				<rect id="SVGID_42_" x="58.58" y="30.74" width="11.15" height="0.53"/>
			</defs>
			<clipPath id="SVGID_1_">
				<use xlink:href="#SVGID_42_"  style="overflow:visible;"/>
			</clipPath>
		</g>
		<g>
			<defs>
				<rect id="SVGID_44_" x="58.58" y="30.74" width="11.15" height="0.53"/>
			</defs>
			<use xlink:href="#SVGID_44_"  style="overflow:visible;fill:#7FC143;"/>
			<clipPath id="SVGID_2_">
				<use xlink:href="#SVGID_44_"  style="overflow:visible;"/>
			</clipPath>
			<rect x="58.58" y="30.74" style="clip-path:url(#SVGID_2_);fill:#7FC143;" width="11.15" height="0.53"/>
		</g>
		<g>
			<defs>
				<rect id="SVGID_46_" x="58.58" y="30.74" width="11.15" height="0.53"/>
			</defs>
			<clipPath id="SVGID_3_">
				<use xlink:href="#SVGID_46_"  style="overflow:visible;"/>
			</clipPath>
		</g>
	</g>
	<g>
		<g>
			<defs>
				<rect id="SVGID_48_" x="13.84" y="30.74" width="11.15" height="0.53"/>
			</defs>
			<clipPath id="SVGID_4_">
				<use xlink:href="#SVGID_48_"  style="overflow:visible;"/>
			</clipPath>
		</g>
		<g>
			<defs>
				<rect id="SVGID_50_" x="13.84" y="30.74" width="11.15" height="0.53"/>
			</defs>
			<use xlink:href="#SVGID_50_"  style="overflow:visible;fill:#7FC143;"/>
			<clipPath id="SVGID_5_">
				<use xlink:href="#SVGID_50_"  style="overflow:visible;"/>
			</clipPath>
			<rect x="13.84" y="30.74" style="clip-path:url(#SVGID_5_);fill:#7FC143;" width="11.15" height="0.53"/>
		</g>
		<g>
			<defs>
				<rect id="SVGID_52_" x="13.84" y="30.74" width="11.15" height="0.53"/>
			</defs>
			<clipPath id="SVGID_6_">
				<use xlink:href="#SVGID_52_"  style="overflow:visible;"/>
			</clipPath>
		</g>
	</g>
</g>
</svg>
