<?xml version="1.0" encoding="utf-8"?>
<!-- Generator: Adobe Illustrator 25.0.1, SVG Export Plug-In . SVG Version: 6.00 Build 0)  -->
<svg version="1.0" id="Layer_1" xmlns="http://www.w3.org/2000/svg" xmlns:xlink="http://www.w3.org/1999/xlink" x="0px" y="0px"
	 viewBox="0 0 71.13 65.7" style="enable-background:new 0 0 71.13 65.7;" xml:space="preserve">
<style type="text/css">
	.st0{fill:#000104;}
	.st1{fill:#FFFFFF;}
	.st2{fill:#EF493E;}
	.st3{opacity:0.6;fill-rule:evenodd;clip-rule:evenodd;fill:#FBBE43;}
	.st4{opacity:0.6;fill-rule:evenodd;clip-rule:evenodd;fill:#EF930E;}
	.st5{opacity:0.6;fill-rule:evenodd;clip-rule:evenodd;fill:#E67906;}
	.st6{fill:#9F8829;}
	.st7{fill:#3972A6;}
	.st8{fill:url(#SVGID_1_);stroke:#2B53A4;stroke-width:0.5;stroke-miterlimit:10;}
	.st9{fill:none;}
	.st10{fill:url(#SVGID_2_);}
	.st11{fill:url(#SVGID_3_);}
	.st12{fill:#B3B3B3;}
	.st13{fill:url(#SVGID_4_);}
	.st14{fill:url(#SVGID_5_);}
	.st15{fill:url(#SVGID_6_);}
	.st16{fill:#FFFFFF;stroke:#FFFFFF;stroke-width:0.25;stroke-miterlimit:10;}
	.st17{fill:#00001D;}
	.st18{fill:#4DA0C5;}
	.st19{fill:url(#SVGID_7_);}
	.st20{fill:#2E6A85;}
	.st21{fill:none;stroke:#144FA1;stroke-width:0.113;stroke-linejoin:round;stroke-miterlimit:10;}
	.st22{fill:#F27337;}
	.st23{fill:#8EB8D4;}
	.st24{fill:#F38056;}
	.st25{fill:#626365;}
	.st26{fill:#EF6D23;}
	.st27{fill:#284B82;}
	.st28{fill:#242956;}
	.st29{fill:#15142A;}
	.st30{fill:#84C343;}
	.st31{fill:#4CA1C6;}
	.st32{fill:#121617;}
	.st33{fill:#CF8966;}
	.st34{fill:#F37639;}
	.st35{opacity:0.3;fill:url(#SVGID_8_);}
	.st36{fill:#373277;}
	.st37{fill:#E61E25;}
	.st38{fill:#2555A5;}
	.st39{fill:#2E225E;}
	.st40{fill:#F8A425;}
	.st41{fill:#2058A7;}
	.st42{fill:none;stroke:#205AA8;stroke-width:0.156;stroke-miterlimit:10;}
	.st43{fill:#49A3C7;}
	.st44{fill-rule:evenodd;clip-rule:evenodd;}
	.st45{fill-rule:evenodd;clip-rule:evenodd;fill:url(#SVGID_9_);}
	.st46{fill-rule:evenodd;clip-rule:evenodd;fill:url(#SVGID_10_);}
	.st47{fill-rule:evenodd;clip-rule:evenodd;fill:url(#SVGID_11_);}
	.st48{fill:#1D2251;}
	.st49{fill:#2260AC;}
	.st50{fill:url(#SVGID_12_);}
	.st51{fill:#FFFFFC;}
	.st52{fill:#4C9FC5;}
	.st53{fill:#28306D;}
	.st54{fill:#4C9EC5;}
	.st55{fill:#28306E;}
	.st56{fill:#29306F;}
	.st57{fill:#F7F7FB;}
	.st58{fill:url(#SVGID_13_);}
	.st59{fill:url(#SVGID_14_);}
	.st60{fill:url(#SVGID_15_);}
	.st61{fill:url(#SVGID_16_);}
	.st62{fill:#10123C;}
	.st63{fill:#F5842C;}
	.st64{fill:#1F305E;}
	.st65{fill:#87BBD1;}
	.st66{fill:#203160;}
	.st67{fill:#235779;}
	.st68{fill:#359FA1;}
	.st69{fill:#A4D1A4;}
	.st70{fill:#B9DBBC;}
	.st71{fill:#C6DDCA;}
	.st72{fill:#662E14;}
	.st73{fill:#1D79A4;}
	.st74{fill:#C14B28;}
	.st75{fill:url(#SVGID_17_);}
	.st76{fill:url(#SVGID_18_);}
	.st77{fill:url(#SVGID_19_);}
	.st78{fill:url(#SVGID_20_);}
	.st79{fill:url(#SVGID_21_);}
	.st80{fill:url(#SVGID_22_);}
	.st81{fill:url(#SVGID_23_);}
	.st82{fill:url(#SVGID_24_);}
	.st83{fill:url(#SVGID_25_);}
	.st84{fill:url(#SVGID_26_);}
	.st85{fill:url(#SVGID_27_);}
	.st86{fill:url(#SVGID_28_);}
	.st87{fill:url(#SVGID_29_);}
	.st88{fill:url(#SVGID_30_);}
	.st89{fill:#1F164B;}
	.st90{clip-path:url(#SVGID_32_);fill:#253D97;}
	.st91{fill:url(#SVGID_33_);}
	.st92{fill:url(#SVGID_34_);}
	.st93{fill:url(#SVGID_35_);}
	.st94{fill:url(#SVGID_36_);}
	.st95{fill:url(#SVGID_37_);}
	.st96{fill:url(#SVGID_38_);}
	.st97{fill:url(#SVGID_39_);}
	.st98{fill:url(#SVGID_40_);}
	.st99{fill:url(#SVGID_41_);}
	.st100{fill:#443F41;}
	.st101{fill:#28306F;}
	.st102{fill:#71C49D;}
	.st103{fill:#F0C6A7;}
	.st104{fill:#DB8D82;}
	.st105{fill:#EFB7AC;}
	.st106{opacity:0.21;}
	.st107{fill-rule:evenodd;clip-rule:evenodd;fill:#A9196E;}
	.st108{fill-rule:evenodd;clip-rule:evenodd;fill:#FBE42C;}
	.st109{fill:#FBE42C;}
	.st110{fill:#A9196E;}
	.st111{fill:#7FC143;}
	.st112{clip-path:url(#SVGID_45_);fill:#7FC143;}
	.st113{clip-path:url(#SVGID_51_);fill:#7FC143;}
	.st114{fill:#243F8F;}
	.st115{fill:#EF4E2F;}
	.st116{fill:#010007;}
	.st117{fill:#0C0D37;}
	.st118{fill:#FBAF2D;}
	.st119{fill:url(#SVGID_54_);}
	.st120{fill-rule:evenodd;clip-rule:evenodd;fill:#FFFFFF;}
	.st121{fill:#1D4690;}
	.st122{fill:#3AA949;}
	.st123{fill:#F37A24;}
	.st124{fill:none;stroke:#F37A24;stroke-width:3.7145;stroke-miterlimit:10;}
	.st125{fill:#3AA949;stroke:#FFFFFF;stroke-width:1.3104;stroke-miterlimit:10;}
	.st126{fill:#46A2BB;}
	.st127{fill:#7153A0;}
	.st128{fill:#27316C;}
	.st129{fill:#2C65AE;}
	.st130{fill:#452D7A;}
	.st131{fill:#442C7A;}
	.st132{fill:#1A2642;}
	.st133{fill-rule:evenodd;clip-rule:evenodd;fill:#567EB8;}
	.st134{fill-rule:evenodd;clip-rule:evenodd;fill:#6A7EB8;}
	.st135{fill-rule:evenodd;clip-rule:evenodd;fill:#6A7EB9;}
	.st136{fill-rule:evenodd;clip-rule:evenodd;fill:#EE3C2D;}
	.st137{fill-rule:evenodd;clip-rule:evenodd;fill:#EF493F;}
	.st138{fill-rule:evenodd;clip-rule:evenodd;fill:#ED2C24;}
	.st139{fill-rule:evenodd;clip-rule:evenodd;fill:#E9AE28;}
	.st140{fill-rule:evenodd;clip-rule:evenodd;fill:#D69B28;}
	.st141{fill-rule:evenodd;clip-rule:evenodd;fill:#FCB729;}
	.st142{fill-rule:evenodd;clip-rule:evenodd;fill:#409E47;}
	.st143{fill-rule:evenodd;clip-rule:evenodd;fill:#4BB450;}
	.st144{fill-rule:evenodd;clip-rule:evenodd;fill:#338440;}
	.st145{fill:#C09C36;}
	.st146{fill:#1E552A;}
	.st147{clip-path:url(#SVGID_56_);fill:url(#SVGID_57_);}
	.st148{fill:#023A1E;}
	.st149{fill:#FFFFFA;}
	.st150{fill:#0D4F28;}
	.st151{fill:#0E5128;}
	.st152{fill:#0D4E27;}
	.st153{fill:#0E5229;}
	.st154{fill:#0E4823;}
	.st155{fill:#0E4C27;}
	.st156{fill:#F3F6E0;}
	.st157{fill:#0E4F28;}
	.st158{fill:#114823;}
	.st159{fill:#105229;}
	.st160{fill:#0A4A2B;}
	.st161{fill:#134F27;}
	.st162{fill:#165229;}
	.st163{fill:#0D5029;}
	.st164{fill:#0B4E2B;}
	.st165{fill:#105028;}
	.st166{fill:#0A492A;}
	.st167{fill:#E9F3E2;}
	.st168{fill:#144D26;}
	.st169{fill:#185C2F;}
	.st170{fill:#0F5028;}
	.st171{fill:#F3F8EA;}
	.st172{fill:#114D26;}
	.st173{fill:#70A685;}
	.st174{fill:#0D4F2A;}
	.st175{fill:#094A24;}
	.st176{fill:#0F4F27;}
	.st177{fill:#0A4C26;}
	.st178{fill:#A2D29A;}
	.st179{fill:#4D7E44;}
	.st180{fill:#E8F2E1;}
	.st181{fill:#EDF5E5;}
	.st182{fill:#E6F2E7;}
	.st183{fill:#E5F1DC;}
	.st184{fill:#E9F3E3;}
	.st185{fill:#E9F3E5;}
	.st186{fill:#E5F1DB;}
	.st187{fill:#D8ECD7;}
	.st188{fill:#D9EBD4;}
	.st189{fill:#E2F0DE;}
	.st190{fill:#366B4B;}
	.st191{fill:#5D6162;}
	.st192{fill:#212E5F;}
	.st193{fill:#DD1F26;}
	.st194{clip-path:url(#SVGID_59_);}
	.st195{fill:#23396F;}
	.st196{fill:#7FC24E;}
	.st197{clip-path:url(#SVGID_59_);fill:#23396F;}
	.st198{clip-path:url(#SVGID_59_);fill:#7FC24E;}
	.st199{fill:#91CEA4;}
	.st200{fill:#90CEA4;}
	.st201{fill:#C02026;}
	.st202{fill:#362E7E;}
</style>
<g>
	<g>
		<path d="M20.96,34.93c0.55,0,1.22-0.03,2.01-0.08c0.8-0.06,1.32-0.08,1.57-0.08c0.45,0,0.77,0.07,0.97,0.21
			c0.2,0.14,0.3,0.38,0.3,0.71c0,0.37-0.13,0.8-0.4,1.3c-0.48-0.22-1.24-0.33-2.28-0.33c-0.1,0-0.59,0.01-1.46,0.04l-0.05,2.28
			c0.18,0.01,0.49,0.01,0.91,0.01c1.25,0,2.1-0.07,2.54-0.22c0.16,0.36,0.24,0.68,0.24,0.96c0,0.36-0.11,0.61-0.33,0.76
			c-0.21,0.15-0.56,0.22-1.05,0.22l-0.73-0.01c-0.52-0.01-1.06-0.02-1.62-0.02c-0.02,1.05-0.03,1.92-0.05,2.61
			c0.53,0.03,0.99,0.04,1.39,0.04c1,0,1.76-0.13,2.29-0.38c0.24,0.5,0.36,0.92,0.36,1.24c0,0.38-0.14,0.64-0.41,0.79
			c-0.24,0.12-0.66,0.18-1.27,0.18c-0.22,0-0.55,0-0.97-0.01c-0.42-0.01-0.73-0.02-0.93-0.02c-0.21,0-0.57,0-1.08,0.02
			c-0.52,0.01-0.93,0.01-1.24,0.01c-0.3,0-0.51-0.05-0.62-0.16c-0.12-0.11-0.18-0.31-0.18-0.59c0,0.06,0.03-0.46,0.09-1.55
			c0.06-1.09,0.09-2.21,0.09-3.35c0-2.21-0.09-3.75-0.28-4.62C19.87,34.91,20.59,34.93,20.96,34.93z"/>
		<path d="M32.56,39.74c0,0.2-0.09,0.35-0.26,0.46c-0.16,0.11-0.43,0.19-0.81,0.25c0.23,0.27,0.35,0.59,0.35,0.94
			c0,0.57-0.22,1.03-0.67,1.36c-0.45,0.34-1.07,0.5-1.85,0.5c-0.2,0-0.35-0.01-0.44-0.02c-0.11,0.13-0.16,0.24-0.16,0.33
			c0,0.16,0.11,0.29,0.32,0.36c0.15,0.05,0.49,0.12,1.01,0.21c0.82,0.14,1.39,0.3,1.7,0.5c0.36,0.23,0.54,0.57,0.54,1.03
			c0,0.58-0.28,1.07-0.84,1.45c-0.58,0.39-1.36,0.59-2.31,0.59c-0.88,0-1.57-0.16-2.06-0.47c-0.48-0.31-0.72-0.74-0.72-1.28
			c0-0.7,0.39-1.2,1.17-1.52c-0.2-0.12-0.3-0.3-0.3-0.53c0-0.28,0.19-0.59,0.57-0.94c-0.71-0.38-1.07-0.9-1.07-1.55
			c0-0.56,0.23-1.03,0.7-1.42c0.48-0.39,1.09-0.59,1.83-0.59c0.49,0,0.97,0.11,1.43,0.34c0.81-0.2,1.32-0.41,1.53-0.63
			C32.45,39.31,32.56,39.52,32.56,39.74z M28.01,45.76c0,0.24,0.11,0.44,0.34,0.58c0.24,0.15,0.55,0.23,0.96,0.23
			c0.39,0,0.7-0.07,0.93-0.21c0.22-0.13,0.33-0.3,0.33-0.5c0-0.22-0.15-0.39-0.46-0.5c-0.13-0.05-0.6-0.17-1.41-0.37
			C28.24,45.19,28.01,45.44,28.01,45.76z M28.59,40.76c-0.18,0.15-0.27,0.35-0.27,0.6c0,0.23,0.09,0.42,0.28,0.57
			c0.19,0.16,0.42,0.24,0.71,0.24c0.29,0,0.53-0.08,0.72-0.24c0.18-0.15,0.27-0.34,0.27-0.57c0-0.25-0.09-0.45-0.26-0.6
			c-0.18-0.15-0.41-0.23-0.71-0.23C29.01,40.53,28.77,40.6,28.59,40.76z"/>
		<path d="M38.17,39.49c0.48,0,0.72,0.18,0.72,0.54c0,0.09-0.7,1.76-2.11,5c-0.48,1.12-0.76,1.75-0.84,1.89
			c-0.25,0.42-0.56,0.63-0.94,0.63c-0.42,0-0.82-0.29-1.2-0.87c0.37-0.28,0.67-0.66,0.9-1.13l0.23-0.47
			c-0.65-1.51-1.14-2.58-1.5-3.2c-0.41-0.72-0.75-1.08-1.01-1.08c0.29-0.9,0.74-1.35,1.35-1.35c0.31,0,0.55,0.16,0.73,0.47
			c0.04,0.08,0.19,0.46,0.44,1.14c0.3,0.82,0.62,1.6,0.93,2.33c0.72-1.62,1.08-2.64,1.08-3.08c0-0.21-0.06-0.38-0.17-0.51
			C37.27,39.59,37.73,39.49,38.17,39.49z"/>
	</g>
	<g>
		<g>
			<path d="M22.18,51.35c0,0.38-0.41,0.57-1.21,0.57c-0.75,0-1.35-0.2-1.81-0.59c-0.45-0.39-0.67-0.89-0.67-1.52
				c0-0.68,0.29-1.24,0.88-1.69c0.5-0.38,1.13-0.57,1.9-0.57c0.58,0,0.87,0.14,0.87,0.43c0,0.16-0.08,0.36-0.23,0.6
				c-0.23-0.11-0.48-0.16-0.78-0.16c-0.44,0-0.8,0.12-1.07,0.36c-0.27,0.24-0.4,0.56-0.4,0.96c0,0.39,0.13,0.71,0.38,0.96
				c0.25,0.24,0.59,0.36,1,0.36c0.31,0,0.61-0.08,0.9-0.25C22.1,51,22.18,51.18,22.18,51.35z"/>
			<path d="M24.91,51.87c-0.24,0-0.37-0.11-0.39-0.33c-0.28,0.25-0.58,0.37-0.9,0.37c-0.3,0-0.54-0.08-0.72-0.24
				c-0.18-0.16-0.27-0.37-0.27-0.63c0-0.32,0.12-0.57,0.37-0.75c0.25-0.19,0.6-0.28,1.04-0.28c0.12,0,0.27,0.01,0.46,0.04v-0.11
				c0-0.15-0.05-0.27-0.16-0.35c-0.11-0.09-0.27-0.13-0.48-0.13c-0.34,0-0.59,0.11-0.75,0.33c-0.16-0.08-0.25-0.19-0.25-0.33
				c0-0.17,0.1-0.31,0.31-0.42c0.22-0.11,0.51-0.17,0.88-0.17c0.46,0,0.79,0.09,1,0.28c0.21,0.19,0.32,0.49,0.32,0.89l-0.01,0.23
				c0,0.14-0.01,0.28-0.01,0.42c0,0.47,0.07,0.8,0.2,0.98C25.31,51.8,25.1,51.87,24.91,51.87z M24.48,50.52
				c-0.12-0.02-0.23-0.03-0.33-0.03c-0.21,0-0.37,0.04-0.49,0.12c-0.11,0.08-0.17,0.18-0.17,0.32c0,0.12,0.04,0.21,0.12,0.28
				c0.08,0.07,0.19,0.1,0.32,0.1c0.2,0,0.38-0.08,0.55-0.24c0-0.06-0.01-0.18-0.01-0.36V50.52z"/>
			<path d="M27.11,49.64c0.26-0.5,0.55-0.75,0.88-0.75c0.14,0,0.25,0.04,0.34,0.13c0.09,0.09,0.14,0.21,0.14,0.35
				c0,0.26-0.16,0.47-0.49,0.62c-0.03-0.18-0.12-0.26-0.28-0.26c-0.19,0-0.37,0.16-0.53,0.47c-0.01,0.15-0.02,0.32-0.02,0.5
				c0,0.45,0.07,0.79,0.2,1c-0.27,0.12-0.52,0.18-0.75,0.18c-0.16,0-0.27-0.03-0.34-0.1c-0.07-0.07-0.1-0.18-0.1-0.33
				c0-0.07,0.01-0.28,0.03-0.62c0.02-0.35,0.03-0.66,0.03-0.93c0-0.36-0.05-0.66-0.15-0.9c0.22-0.06,0.41-0.09,0.56-0.09
				c0.17,0,0.3,0.04,0.38,0.12c0.08,0.08,0.12,0.2,0.12,0.37c0,0.07-0.01,0.15-0.02,0.26H27.11z"/>
			<path d="M31.41,51.42c0,0.15-0.09,0.27-0.27,0.35c-0.18,0.09-0.44,0.14-0.78,0.14c-0.55,0-0.98-0.13-1.27-0.39
				c-0.3-0.26-0.44-0.62-0.44-1.1c0-0.46,0.15-0.83,0.45-1.12c0.3-0.29,0.7-0.43,1.18-0.43c0.4,0,0.73,0.1,0.97,0.3
				c0.24,0.2,0.36,0.45,0.36,0.75c0,0.26-0.1,0.45-0.29,0.55c-0.18,0.1-0.49,0.14-0.93,0.14c-0.3,0-0.57-0.02-0.83-0.05v0.01
				c0,0.22,0.08,0.39,0.23,0.51c0.15,0.12,0.37,0.17,0.66,0.17c0.33,0,0.59-0.07,0.77-0.22C31.35,51.18,31.41,51.31,31.41,51.42z
				 M30.27,50.15c0.16,0,0.26-0.01,0.33-0.04c0.07-0.03,0.11-0.1,0.11-0.19c0-0.14-0.04-0.24-0.13-0.33
				c-0.09-0.08-0.2-0.12-0.35-0.12c-0.35,0-0.56,0.21-0.62,0.63C29.91,50.13,30.13,50.15,30.27,50.15z"/>
		</g>
	</g>
	<g>
		<path d="M34.29,48.29c0.23,0,0.51-0.01,0.85-0.03c0.33-0.02,0.56-0.03,0.67-0.03c0.5,0,0.89,0.11,1.16,0.33
			c0.27,0.22,0.4,0.53,0.4,0.94c0,0.46-0.16,0.83-0.47,1.1c-0.32,0.27-0.75,0.41-1.29,0.41c-0.13,0-0.26-0.01-0.39-0.02
			c0,0.56,0.06,0.98,0.18,1.27c-0.28,0.13-0.54,0.19-0.79,0.19c-0.2,0-0.34-0.04-0.42-0.13c-0.08-0.09-0.11-0.24-0.11-0.45
			c0-0.1,0.01-0.35,0.04-0.76c0.03-0.41,0.04-0.76,0.04-1.07c0-0.95-0.06-1.54-0.19-1.76C34.05,48.29,34.15,48.29,34.29,48.29z
			 M35.51,50.3c0.24,0,0.42-0.06,0.55-0.18c0.13-0.12,0.19-0.29,0.19-0.51c0-0.4-0.23-0.6-0.68-0.6c-0.09,0-0.2,0.01-0.32,0.04
			c-0.02,0.38-0.04,0.78-0.04,1.23C35.31,50.3,35.41,50.3,35.51,50.3z"/>
		<path d="M40.3,52.46c-0.16,0-0.28-0.04-0.34-0.1c-0.06-0.07-0.09-0.19-0.09-0.35c0-0.07,0.01-0.22,0.02-0.44
			c0.01-0.22,0.02-0.41,0.02-0.56c0-0.29-0.03-0.5-0.1-0.62c-0.07-0.13-0.2-0.2-0.38-0.2c-0.16,0-0.35,0.06-0.59,0.18
			c-0.02,0.19-0.03,0.42-0.03,0.69c0,0.61,0.05,1.03,0.16,1.24c-0.24,0.11-0.47,0.17-0.7,0.17c-0.17,0-0.28-0.04-0.34-0.11
			c-0.06-0.07-0.08-0.2-0.08-0.38c0-0.07,0.01-0.34,0.04-0.83c0.02-0.49,0.03-0.94,0.03-1.36c0-0.78-0.06-1.27-0.17-1.48
			c0.25-0.11,0.49-0.17,0.71-0.17c0.16,0,0.28,0.04,0.34,0.11c0.06,0.07,0.09,0.2,0.09,0.38c0,0.04-0.01,0.19-0.02,0.42
			c-0.02,0.31-0.03,0.58-0.04,0.82c0.32-0.27,0.65-0.41,1-0.41c0.34,0,0.6,0.09,0.78,0.29c0.18,0.19,0.27,0.47,0.27,0.83
			c0,0.08,0,0.22-0.01,0.4c-0.01,0.18-0.01,0.32-0.01,0.42c0,0.42,0.05,0.72,0.16,0.89C40.79,52.4,40.55,52.46,40.3,52.46z"/>
		<path d="M43.68,52.46c-0.24,0-0.37-0.11-0.39-0.33c-0.28,0.25-0.58,0.37-0.9,0.37c-0.3,0-0.54-0.08-0.72-0.24
			c-0.18-0.16-0.27-0.37-0.27-0.63c0-0.32,0.12-0.57,0.37-0.75c0.25-0.19,0.6-0.28,1.04-0.28c0.12,0,0.27,0.01,0.46,0.04v-0.11
			c0-0.15-0.05-0.27-0.16-0.35c-0.11-0.09-0.27-0.13-0.48-0.13c-0.34,0-0.59,0.11-0.75,0.33c-0.16-0.08-0.25-0.19-0.25-0.33
			c0-0.17,0.1-0.31,0.31-0.42c0.22-0.11,0.51-0.17,0.88-0.17c0.46,0,0.79,0.09,1,0.28c0.21,0.19,0.32,0.49,0.32,0.89l-0.01,0.23
			c0,0.14-0.01,0.28-0.01,0.42c0,0.47,0.07,0.8,0.2,0.98C44.08,52.39,43.87,52.46,43.68,52.46z M43.25,51.11
			c-0.12-0.02-0.23-0.03-0.33-0.03c-0.21,0-0.37,0.04-0.49,0.12c-0.11,0.08-0.17,0.18-0.17,0.32c0,0.12,0.04,0.21,0.12,0.28
			c0.08,0.07,0.19,0.1,0.32,0.1c0.2,0,0.38-0.08,0.55-0.24c0-0.06-0.01-0.18-0.01-0.36V51.11z"/>
		<path d="M45.88,50.23c0.26-0.5,0.55-0.75,0.88-0.75c0.14,0,0.25,0.04,0.34,0.13c0.09,0.09,0.14,0.21,0.14,0.35
			c0,0.26-0.16,0.47-0.49,0.62c-0.03-0.18-0.12-0.26-0.28-0.26c-0.19,0-0.37,0.16-0.53,0.47c-0.01,0.15-0.02,0.32-0.02,0.5
			c0,0.45,0.07,0.79,0.2,1c-0.27,0.12-0.52,0.18-0.75,0.18c-0.16,0-0.27-0.03-0.34-0.1c-0.07-0.07-0.1-0.18-0.1-0.33
			c0-0.07,0.01-0.28,0.03-0.62c0.02-0.35,0.03-0.66,0.03-0.93c0-0.36-0.05-0.66-0.15-0.9c0.22-0.06,0.41-0.09,0.56-0.09
			c0.17,0,0.3,0.04,0.38,0.12c0.08,0.08,0.12,0.2,0.12,0.37c0,0.07-0.01,0.15-0.02,0.26H45.88z"/>
		<path d="M52.66,52.3c-0.23,0.11-0.46,0.16-0.7,0.16c-0.15,0-0.26-0.03-0.33-0.1c-0.07-0.06-0.1-0.17-0.1-0.32
			c0-0.11,0.01-0.29,0.02-0.53c0.01-0.24,0.02-0.42,0.02-0.55c0-0.27-0.04-0.46-0.11-0.58c-0.08-0.12-0.21-0.19-0.39-0.19
			c-0.13,0-0.3,0.07-0.5,0.2c-0.01,0.42-0.02,0.73-0.02,0.94c0,0.43,0.05,0.76,0.15,0.97c-0.23,0.11-0.46,0.17-0.7,0.17
			c-0.16,0-0.27-0.04-0.33-0.11c-0.06-0.07-0.09-0.19-0.09-0.36c0-0.08,0.01-0.23,0.02-0.45c0.01-0.22,0.02-0.41,0.02-0.56
			c0-0.28-0.03-0.48-0.1-0.6c-0.07-0.13-0.2-0.19-0.39-0.19c-0.16,0-0.34,0.07-0.53,0.2c-0.02,0.35-0.02,0.64-0.02,0.87
			c0,0.5,0.05,0.84,0.14,1.04c-0.22,0.11-0.46,0.17-0.69,0.17c-0.15,0-0.26-0.04-0.33-0.11c-0.07-0.07-0.1-0.18-0.1-0.34
			c0-0.09,0.01-0.29,0.04-0.62c0.02-0.33,0.04-0.61,0.04-0.84c0-0.43-0.05-0.76-0.15-0.99c0.18-0.06,0.35-0.08,0.5-0.08
			c0.34,0,0.52,0.13,0.56,0.4c0.31-0.27,0.64-0.4,0.99-0.4c0.38,0,0.66,0.15,0.86,0.45c0.34-0.3,0.69-0.45,1.06-0.45
			c0.7,0,1.05,0.39,1.05,1.16c0,0.08,0,0.21-0.01,0.37c-0.01,0.16-0.01,0.28-0.01,0.35C52.5,51.81,52.55,52.12,52.66,52.3
			L52.66,52.3z"/>
		<path d="M55.36,52.46c-0.24,0-0.37-0.11-0.39-0.33c-0.28,0.25-0.58,0.37-0.9,0.37c-0.3,0-0.54-0.08-0.72-0.24
			c-0.18-0.16-0.27-0.37-0.27-0.63c0-0.32,0.12-0.57,0.37-0.75c0.25-0.19,0.6-0.28,1.04-0.28c0.12,0,0.27,0.01,0.46,0.04v-0.11
			c0-0.15-0.05-0.27-0.16-0.35c-0.11-0.09-0.27-0.13-0.48-0.13c-0.34,0-0.59,0.11-0.75,0.33c-0.16-0.08-0.25-0.19-0.25-0.33
			c0-0.17,0.1-0.31,0.31-0.42c0.22-0.11,0.51-0.17,0.88-0.17c0.46,0,0.79,0.09,1,0.28c0.21,0.19,0.32,0.49,0.32,0.89l-0.01,0.23
			c0,0.14-0.01,0.28-0.01,0.42c0,0.47,0.07,0.8,0.2,0.98C55.76,52.39,55.55,52.46,55.36,52.46z M54.93,51.11
			c-0.12-0.02-0.23-0.03-0.33-0.03c-0.21,0-0.37,0.04-0.49,0.12c-0.11,0.08-0.17,0.18-0.17,0.32c0,0.12,0.04,0.21,0.12,0.28
			c0.08,0.07,0.19,0.1,0.32,0.1c0.2,0,0.38-0.08,0.55-0.24c0-0.06-0.01-0.18-0.01-0.36V51.11z"/>
	</g>
	<g>
		<path d="M36.72,15.24c0.01,1.98,1.67,3.61,3.69,3.61c2.05,0,3.7-1.62,3.7-3.64c0-2.01-1.65-3.61-3.71-3.6
			C38.35,11.61,36.71,13.23,36.72,15.24z"/>
		<path d="M45.14,23.68c0.13,0.03,0.24,0.02,0.35,0C45.38,23.66,45.28,23.63,45.14,23.68z"/>
		<path d="M56.51,25.36c-0.39-0.23-0.83-0.37-1.24-0.56c1.05-2.47,1.43-5.03,1.09-7.69c0.14,2.66-0.43,5.16-1.74,7.49
			c-0.49-0.11-0.98-0.23-1.48-0.32c-1.29-0.25-2.59-0.4-3.89-0.49c-1.2-0.08-2.41-0.13-3.61-0.13c-0.05,0-0.1,0.01-0.15,0.02
			c0.02,0,0.04,0.01,0.06,0.01c1.38,0.05,2.77,0.12,4.14,0.3c1.37,0.18,2.72,0.41,4.02,0.85c0.21,0.07,0.44,0.11,0.62,0.27
			c-1.01,1.58-2.28,2.93-3.81,4.05c-0.64,0.19-1.3,0.25-1.95,0.33c-0.44,0.06-0.88,0.1-1.33,0.13c-0.27,0.01-0.55,0.04-0.82,0.07
			c-0.26,0.05-0.52,0.05-0.78,0.05c0.03,0.03,0.07,0.03,0.11,0.03c-0.04,0-0.08-0.01-0.11-0.03c0.26,0,0.52,0,0.78-0.05
			c-1.07-0.73-2.05-1.56-2.93-2.59c-0.1,1.65,0.34,3.15,0.8,4.65c-0.28,0.09-0.56,0.22-0.87,0.13c-0.03-0.1-0.05-0.2-0.08-0.3
			c-0.66-2.12-0.56-4.2,0.32-6.25c0.69-1.61,1.74-2.99,2.88-4.31c1.25-1.45,2.62-2.79,3.87-4.24c0.48-0.56,0.96-1.11,1.33-1.74
			c0,0,0,0,0,0c0.02-0.02,0.06-0.03,0.04-0.06c-0.02-0.02-0.05-0.01-0.07,0.02c-0.11,0.05-0.23,0.09-0.34,0.14
			c-0.96,0.48-1.87,1.06-2.77,1.63c-1.2,0.77-2.4,1.56-3.7,2.18c-1.52,0.73-3.09,1.18-4.81,1.03c-1.07-0.09-2.02-0.44-2.84-1.14
			c-0.8-0.68-1.32-1.54-1.73-2.47c-0.72-1.6-1.08-3.31-1.48-5c-0.19-0.81-0.39-1.63-0.61-2.49c-0.05,0.13-0.07,0.2-0.1,0.28
			c-1.17,3.4-1.37,6.88-0.75,10.4c0.78,4.4,2.63,8.35,5.42,11.89c0.04,0.05,0.11,0.1,0.09,0.2c-0.41-0.08-0.81-0.18-1.2-0.3
			c-0.08-0.03-0.15-0.06-0.23-0.09c-1.87-0.61-3.56-1.52-5.04-2.78c-0.32-0.28-0.64-0.55-0.97-0.83c-0.09-0.22-0.3-0.35-0.45-0.52
			c-0.59-0.66-1.13-1.35-1.58-2.11c-0.12-0.21-0.29-0.41-0.34-0.65c0.36-0.11,0.74-0.13,1.11-0.19c1.01-0.15,2.03-0.24,3.04-0.32
			c-0.88-0.01-1.75,0.08-2.62,0.15c-0.55,0.05-1.11,0.11-1.66,0.16c-0.35-0.67-0.63-1.36-0.86-2.08c-0.57-1.82-0.77-3.66-0.54-5.55
			c0.19-1.63,0.65-3.18,1.41-4.64c0.54-1.03,1.19-1.99,1.98-2.87c0.16-0.17,0.37-0.31,0.46-0.55c0.39-0.34,0.78-0.68,1.17-1.01
			c1.06-0.89,2.24-1.59,3.51-2.16c0.53-0.24,1.08-0.41,1.62-0.62c0.72-0.2,1.44-0.37,2.18-0.49c0.66-0.11,1.33-0.14,2-0.2
			c0.52,0.02,1.05,0.02,1.57,0.05c3.03,0.22,5.75,1.23,8.16,3.04c0.04,0.03,0.07,0.09,0.15,0.04c-1.21-1.04-2.55-1.86-4-2.52
			c-0.62-0.28-1.27-0.52-1.92-0.73c-1.17-0.36-2.37-0.62-3.6-0.71c-0.25,0.03-0.48-0.08-0.73-0.09c-1.27-0.05-2.54,0.02-3.79,0.25
			c-0.02,0-0.05,0-0.07,0c-1.59,0.27-3.11,0.74-4.55,1.43c-0.61,0.29-1.22,0.6-1.78,0.99c-0.25,0.1-0.44,0.27-0.65,0.42
			c-1.05,0.73-2.01,1.56-2.85,2.51c-0.89,1-1.64,2.1-2.26,3.28c-0.63,1.19-1.08,2.45-1.36,3.76c-0.26,1.22-0.37,2.46-0.32,3.71
			c0.04,0.82,0.13,1.64,0.29,2.44c0.2,1.05,0.55,2.05,0.95,3.04c-0.46,0.15-0.94,0.28-1.39,0.45c-0.92,0.36-1.85,0.7-2.35,1.63
			c0,0.16,0,0.32,0,0.48c0.39,0.69,1.07,1.02,1.78,1.29c0.92,0.35,1.87,0.55,2.84,0.73c0.86,0.15,1.73,0.23,2.6,0.34l0,0
			c0.07,0.08,0.13,0.16,0.21,0.23c0.46,0.44,0.95,0.85,1.47,1.22c0.4,0.29,0.79,0.59,1.24,0.81c0.04,0.03,0.08,0.06,0.12,0.09
			c1.21,0.72,2.48,1.29,3.83,1.7c0.73,0.22,1.46,0.42,2.22,0.5c0.64,0.14,1.29,0.2,1.95,0.23c0.69,0.04,1.38,0.03,2.07-0.01
			c0.08-0.01,0.16-0.01,0.23,0.05c0.26,0.24,0.57,0.43,0.82,0.69c1.05,1.11,2.13,2.19,3.28,3.21c1.02,0.91,2.07,1.79,3.28,2.47
			c0.27,0.15,0.56,0.27,0.84,0.41c0.13,0,0.26,0,0.39,0c0.19-0.17,0.22-0.37,0.14-0.6c-0.04-0.13-0.09-0.26-0.14-0.38
			c-0.24-0.53-0.57-1-0.91-1.47c-1.17-1.57-2.54-2.98-3.94-4.35c-0.18-0.17-0.32-0.36-0.42-0.58c0.03-0.06,0.09-0.06,0.15-0.08
			c0.66-0.19,1.3-0.42,1.93-0.67c0.36-0.14,0.69-0.36,1.07-0.45c1.55,0.27,3.08,0.38,4.54-0.35c-0.79-0.3-1.54-0.65-2.31-0.96
			c0.01-0.17,0.17-0.2,0.27-0.27c0.88-0.66,1.69-1.37,2.41-2.2c-0.83,0.15-1.66,0.29-2.5,0.4c-0.45,0.38-0.98,0.63-1.49,0.9
			c-0.19,0.1-0.37,0.24-0.6,0.23c-0.34-0.21-0.69-0.41-1.03-0.62c-0.1-0.06-0.22-0.1-0.27-0.22c0.47-0.03,0.94-0.07,1.41-0.11
			c0.66-0.06,1.33-0.12,1.99-0.18c0.84-0.11,1.67-0.24,2.5-0.4c0.09-0.02,0.17-0.05,0.26-0.07c1.06-0.23,2.11-0.51,3.1-0.95
			c0.47-0.21,0.92-0.45,1.28-0.83c0.42-0.45,0.43-0.94,0.01-1.39C56.96,25.65,56.74,25.5,56.51,25.36z M23.04,28.34
			c-0.25-0.13-0.47-0.29-0.65-0.5c-0.36-0.41-0.37-0.86-0.02-1.28c0.29-0.35,0.67-0.59,1.07-0.79c0.34-0.17,0.68-0.35,1.06-0.44
			c0.42,0.82,0.87,1.62,1.41,2.36c0.41,0.56,0.84,1.11,1.32,1.62c0.07,0.07,0.17,0.13,0.18,0.25C25.88,29.36,24.4,29.06,23.04,28.34
			z M30.42,29.85c-0.44-0.01-0.88-0.04-1.32-0.08C29.53,29.81,29.97,29.84,30.42,29.85c0.67,0.07,1.34,0.07,2.02,0.11
			C31.76,29.92,31.09,29.92,30.42,29.85z M55.7,27.13c-0.24,0.32-0.56,0.54-0.9,0.73c-0.58,0.31-1.18,0.58-1.83,0.72
			c0.33-0.46,0.66-0.91,0.98-1.37c0.39-0.57,0.72-1.17,1.03-1.79c0.41,0.18,0.73,0.45,0.89,0.87C55.98,26.6,55.89,26.88,55.7,27.13z
			"/>
		<path d="M58.83,15.2c-0.11,0.49-0.39,0.88-0.75,1.23c-0.1,0.07-0.21,0.14-0.31,0.21c-0.19,0.13-0.39,0.26-0.5,0.48
			c-0.66,0.49-0.87,1.73-0.43,2.51c0.04-0.39,0.11-0.77,0.29-1.13c0.07-0.14,0.19-0.26,0.22-0.42c-0.05-0.12-0.06-0.25-0.06-0.38
			c0,0.13,0.01,0.25,0.06,0.38c0.16-0.16,0.31-0.31,0.47-0.47c0.13,0.04,0.05,0.13,0.04,0.19c-0.03,0.23-0.08,0.45-0.12,0.68
			c-0.13,0.6-0.25,1.19-0.38,1.83c0.23-0.08,0.39-0.16,0.53-0.29c0.08-0.11,0.25-0.11,0.31-0.25c0.25-0.17,0.42-0.4,0.56-0.65
			C59.46,17.82,59.24,16.52,58.83,15.2z"/>
		<path d="M55.96,16.17c-0.05-0.25-0.1-0.48-0.15-0.71c0-0.11,0-0.23,0-0.34c0-0.05,0-0.09,0.01-0.14c0.08-0.28,0.12-0.56,0.25-0.82
			c0.03-0.06,0.04-0.17,0.16-0.13c0.04,0.3,0.09,0.6,0.18,0.89c0.1,0.58,0.21,1.16,0.32,1.76c0.07-0.06,0.1-0.08,0.13-0.12
			c0.66-0.72,0.87-1.56,0.7-2.5c-0.11-0.57-0.33-1.1-0.64-1.58c-0.14-0.22-0.23-0.49-0.47-0.64c0.01-0.08-0.05-0.11-0.1-0.16
			c-0.04-0.09-0.09-0.18-0.19-0.25c0,0.24,0,0.44,0,0.65c-0.01,0.22-0.08,0.42-0.17,0.62c-0.09,0.19-0.2,0.36-0.3,0.54
			c-0.55,0.74-0.61,1.9,0,2.68C55.75,16.01,55.79,16.14,55.96,16.17z"/>
		<path d="M53.29,18.73c-0.15,0.62-0.13,1.24,0.22,1.81c0.25,0.46,0.62,0.78,1.11,1.01c0-0.11-0.07-0.14-0.11-0.2
			c-0.4-0.54-0.59-1.14-0.53-1.8c0-0.05-0.02-0.13,0.05-0.15c0.08-0.02,0.1,0.06,0.14,0.11c0.02,0.02,0.04,0.05,0.06,0.08
			c0.06,0.16,0.15,0.3,0.26,0.43c0.33,0.57,0.65,1.14,0.99,1.73c0.65-1.35,0.19-2.71-0.84-3.63v0c-0.07-0.12-0.21-0.18-0.3-0.28
			c-0.21-0.26-0.49-0.45-0.79-0.61c-0.08-0.11-0.2-0.17-0.35-0.23c0,0.05,0,0.08,0.01,0.11C53.46,17.63,53.43,18.17,53.29,18.73z
			 M54.57,18.87c0,0.13,0.01,0.26,0.01,0.38C54.58,19.13,54.58,19,54.57,18.87z"/>
	</g>
</g>
</svg>
