<?xml version="1.0" encoding="utf-8"?>
<!-- Generator: Adobe Illustrator 25.0.1, SVG Export Plug-In . SVG Version: 6.00 Build 0)  -->
<svg version="1.0" id="Layer_1" xmlns="http://www.w3.org/2000/svg" xmlns:xlink="http://www.w3.org/1999/xlink" x="0px" y="0px"
	 viewBox="0 0 20.31 20.51" style="enable-background:new 0 0 20.31 20.51;" xml:space="preserve">
<style type="text/css">
	.st0{fill:#000104;}
	.st1{fill:#FFFFFF;}
	.st2{fill:#EF493E;}
	.st3{opacity:0.6;fill-rule:evenodd;clip-rule:evenodd;fill:#FBBE43;}
	.st4{opacity:0.6;fill-rule:evenodd;clip-rule:evenodd;fill:#EF930E;}
	.st5{opacity:0.6;fill-rule:evenodd;clip-rule:evenodd;fill:#E67906;}
	.st6{fill:#9F8829;}
	.st7{fill:#3972A6;}
	.st8{fill:url(#SVGID_1_);stroke:#2B53A4;stroke-width:0.5;stroke-miterlimit:10;}
	.st9{fill:none;}
	.st10{fill:url(#SVGID_2_);}
	.st11{fill:url(#SVGID_3_);}
	.st12{fill:#B3B3B3;}
	.st13{fill:url(#SVGID_4_);}
	.st14{fill:url(#SVGID_5_);}
	.st15{fill:url(#SVGID_6_);}
	.st16{fill:#FFFFFF;stroke:#FFFFFF;stroke-width:0.25;stroke-miterlimit:10;}
	.st17{fill:#00001D;}
	.st18{fill:#4DA0C5;}
	.st19{fill:url(#SVGID_7_);}
	.st20{fill:#2E6A85;}
	.st21{fill:none;stroke:#144FA1;stroke-width:0.113;stroke-linejoin:round;stroke-miterlimit:10;}
	.st22{fill:#F27337;}
	.st23{fill:#8EB8D4;}
	.st24{fill:#F38056;}
	.st25{fill:#626365;}
	.st26{fill:#EF6D23;}
	.st27{fill:#284B82;}
	.st28{fill:#242956;}
	.st29{fill:#15142A;}
	.st30{fill:#84C343;}
	.st31{fill:#4CA1C6;}
	.st32{fill:#121617;}
	.st33{fill:#CF8966;}
	.st34{fill:#F37639;}
	.st35{opacity:0.3;fill:url(#SVGID_8_);}
	.st36{fill:#373277;}
	.st37{fill:#E61E25;}
	.st38{fill:#2555A5;}
	.st39{fill:#2E225E;}
	.st40{fill:#F8A425;}
	.st41{fill:#2058A7;}
	.st42{fill:none;stroke:#205AA8;stroke-width:0.156;stroke-miterlimit:10;}
	.st43{fill:#49A3C7;}
	.st44{fill-rule:evenodd;clip-rule:evenodd;}
	.st45{fill-rule:evenodd;clip-rule:evenodd;fill:url(#SVGID_9_);}
	.st46{fill-rule:evenodd;clip-rule:evenodd;fill:url(#SVGID_10_);}
	.st47{fill-rule:evenodd;clip-rule:evenodd;fill:url(#SVGID_11_);}
	.st48{fill:#1D2251;}
	.st49{fill:#2260AC;}
	.st50{fill:url(#SVGID_12_);}
	.st51{fill:#FFFFFC;}
	.st52{fill:#4C9FC5;}
	.st53{fill:#28306D;}
	.st54{fill:#4C9EC5;}
	.st55{fill:#28306E;}
	.st56{fill:#29306F;}
	.st57{fill:#F7F7FB;}
	.st58{fill:url(#SVGID_13_);}
	.st59{fill:url(#SVGID_14_);}
	.st60{fill:url(#SVGID_15_);}
	.st61{fill:url(#SVGID_16_);}
	.st62{fill:#10123C;}
	.st63{fill:#F5842C;}
	.st64{fill:#1F305E;}
	.st65{fill:#87BBD1;}
	.st66{fill:#203160;}
	.st67{fill:#235779;}
	.st68{fill:#359FA1;}
	.st69{fill:#A4D1A4;}
	.st70{fill:#B9DBBC;}
	.st71{fill:#C6DDCA;}
	.st72{fill:#662E14;}
	.st73{fill:#1D79A4;}
	.st74{fill:#C14B28;}
	.st75{fill:url(#SVGID_17_);}
	.st76{fill:url(#SVGID_18_);}
	.st77{fill:url(#SVGID_19_);}
	.st78{fill:url(#SVGID_20_);}
	.st79{fill:url(#SVGID_21_);}
	.st80{fill:url(#SVGID_22_);}
	.st81{fill:url(#SVGID_23_);}
	.st82{fill:url(#SVGID_24_);}
	.st83{fill:url(#SVGID_25_);}
	.st84{fill:url(#SVGID_26_);}
	.st85{fill:url(#SVGID_27_);}
	.st86{fill:url(#SVGID_28_);}
	.st87{fill:url(#SVGID_29_);}
	.st88{fill:url(#SVGID_30_);}
	.st89{fill:#1F164B;}
	.st90{clip-path:url(#SVGID_32_);fill:#253D97;}
	.st91{fill:url(#SVGID_33_);}
	.st92{fill:url(#SVGID_34_);}
	.st93{fill:url(#SVGID_35_);}
	.st94{fill:url(#SVGID_36_);}
	.st95{fill:url(#SVGID_37_);}
	.st96{fill:url(#SVGID_38_);}
	.st97{fill:url(#SVGID_39_);}
	.st98{fill:url(#SVGID_40_);}
	.st99{fill:url(#SVGID_41_);}
	.st100{fill:#443F41;}
	.st101{fill:#28306F;}
	.st102{fill:#71C49D;}
	.st103{fill:#F0C6A7;}
	.st104{fill:#DB8D82;}
	.st105{fill:#EFB7AC;}
	.st106{opacity:0.21;}
	.st107{fill-rule:evenodd;clip-rule:evenodd;fill:#A9196E;}
	.st108{fill-rule:evenodd;clip-rule:evenodd;fill:#FBE42C;}
	.st109{fill:#FBE42C;}
	.st110{fill:#A9196E;}
	.st111{fill:#7FC143;}
	.st112{clip-path:url(#SVGID_45_);fill:#7FC143;}
	.st113{clip-path:url(#SVGID_51_);fill:#7FC143;}
	.st114{fill:#243F8F;}
	.st115{fill:#EF4E2F;}
	.st116{fill:#010007;}
	.st117{fill:#0C0D37;}
	.st118{fill:#FBAF2D;}
	.st119{fill:url(#SVGID_54_);}
	.st120{fill-rule:evenodd;clip-rule:evenodd;fill:#FFFFFF;}
	.st121{fill:#1D4690;}
	.st122{fill:#3AA949;}
	.st123{fill:#F37A24;}
	.st124{fill:none;stroke:#F37A24;stroke-width:3.7145;stroke-miterlimit:10;}
	.st125{fill:#3AA949;stroke:#FFFFFF;stroke-width:1.3104;stroke-miterlimit:10;}
	.st126{fill:#46A2BB;}
	.st127{fill:#7153A0;}
	.st128{fill:#27316C;}
	.st129{fill:#2C65AE;}
	.st130{fill:#452D7A;}
	.st131{fill:#442C7A;}
	.st132{fill:#1A2642;}
	.st133{fill-rule:evenodd;clip-rule:evenodd;fill:#567EB8;}
	.st134{fill-rule:evenodd;clip-rule:evenodd;fill:#6A7EB8;}
	.st135{fill-rule:evenodd;clip-rule:evenodd;fill:#6A7EB9;}
	.st136{fill-rule:evenodd;clip-rule:evenodd;fill:#EE3C2D;}
	.st137{fill-rule:evenodd;clip-rule:evenodd;fill:#EF493F;}
	.st138{fill-rule:evenodd;clip-rule:evenodd;fill:#ED2C24;}
	.st139{fill-rule:evenodd;clip-rule:evenodd;fill:#E9AE28;}
	.st140{fill-rule:evenodd;clip-rule:evenodd;fill:#D69B28;}
	.st141{fill-rule:evenodd;clip-rule:evenodd;fill:#FCB729;}
	.st142{fill-rule:evenodd;clip-rule:evenodd;fill:#409E47;}
	.st143{fill-rule:evenodd;clip-rule:evenodd;fill:#4BB450;}
	.st144{fill-rule:evenodd;clip-rule:evenodd;fill:#338440;}
	.st145{fill:#C09C36;}
	.st146{fill:#1E552A;}
	.st147{clip-path:url(#SVGID_56_);fill:url(#SVGID_57_);}
	.st148{fill:#023A1E;}
	.st149{fill:#FFFFFA;}
	.st150{fill:#0D4F28;}
	.st151{fill:#0E5128;}
	.st152{fill:#0D4E27;}
	.st153{fill:#0E5229;}
	.st154{fill:#0E4823;}
	.st155{fill:#0E4C27;}
	.st156{fill:#F3F6E0;}
	.st157{fill:#0E4F28;}
	.st158{fill:#114823;}
	.st159{fill:#105229;}
	.st160{fill:#0A4A2B;}
	.st161{fill:#134F27;}
	.st162{fill:#165229;}
	.st163{fill:#0D5029;}
	.st164{fill:#0B4E2B;}
	.st165{fill:#105028;}
	.st166{fill:#0A492A;}
	.st167{fill:#E9F3E2;}
	.st168{fill:#144D26;}
	.st169{fill:#185C2F;}
	.st170{fill:#0F5028;}
	.st171{fill:#F3F8EA;}
	.st172{fill:#114D26;}
	.st173{fill:#70A685;}
	.st174{fill:#0D4F2A;}
	.st175{fill:#094A24;}
	.st176{fill:#0F4F27;}
	.st177{fill:#0A4C26;}
	.st178{fill:#A2D29A;}
	.st179{fill:#4D7E44;}
	.st180{fill:#E8F2E1;}
	.st181{fill:#EDF5E5;}
	.st182{fill:#E6F2E7;}
	.st183{fill:#E5F1DC;}
	.st184{fill:#E9F3E3;}
	.st185{fill:#E9F3E5;}
	.st186{fill:#E5F1DB;}
	.st187{fill:#D8ECD7;}
	.st188{fill:#D9EBD4;}
	.st189{fill:#E2F0DE;}
	.st190{fill:#366B4B;}
	.st191{fill:#5D6162;}
	.st192{fill:#212E5F;}
	.st193{fill:#DD1F26;}
	.st194{clip-path:url(#SVGID_59_);}
	.st195{fill:#23396F;}
	.st196{fill:#7FC24E;}
	.st197{clip-path:url(#SVGID_59_);fill:#23396F;}
	.st198{clip-path:url(#SVGID_59_);fill:#7FC24E;}
	.st199{fill:#91CEA4;}
	.st200{fill:#90CEA4;}
	.st201{fill:#C02026;}
	.st202{fill:#362E7E;}
</style>
<g>
	<g>
		<path class="st22" d="M10.3,5.44c0.47,0.35,0.54,0.54,0.42,1.08c-0.13,0.59-0.46,1-1.06,1.09C8.89,7.72,8.12,7.64,7.35,7.66
			c-0.18,0-0.17-0.09-0.15-0.23C7.44,6.11,7.66,4.8,7.89,3.48C7.92,3.3,8,3.22,8.21,3.23c0.53,0.02,1.06,0,1.59,0.01
			c0.46,0.01,0.89,0.1,1.08,0.58c0.18,0.43-0.07,1.25-0.43,1.52C10.41,5.37,10.35,5.4,10.3,5.44z M9.02,5.85
			C8.54,5.84,8.45,5.96,8.44,6.54c0,0.29,0.2,0.19,0.33,0.19c0.58,0.02,0.93-0.16,0.9-0.49C9.65,5.83,9.32,5.85,9.02,5.85z
			 M9.03,5.13C9.5,5.14,9.79,4.95,9.78,4.61C9.77,4.27,9.55,4.18,9.24,4.18c-0.42,0.01-0.47,0.1-0.5,0.72
			C8.72,5.17,8.88,5.13,9.03,5.13z"/>
		<path class="st22" d="M12.7,20.46c-1.04,0.21-1.85-0.25-2.52-0.96c-0.88-0.92-1.72-1.88-2.58-2.83c-0.18-0.19-0.36-0.38-0.55-0.58
			c0.27-0.04,0.54-0.06,0.8-0.11c0.69-0.15,1.02-0.73,0.91-1.62c-0.08-0.65-0.49-1.01-1.16-1.01c-0.93,0-0.93,0-0.93,0.92
			c0,1.3,0.01,2.6,0,3.91c0,0.43,0.12,0.72,0.57,0.81c-0.56,0-1.11,0-1.67,0c0.45-0.11,0.57-0.41,0.57-0.85
			c-0.02-1.41-0.01-2.82,0-4.22c0-0.38-0.08-0.68-0.5-0.8c0.8,0,1.61-0.04,2.4,0.01c0.78,0.05,1.29,0.62,1.35,1.38
			c0.07,0.79-0.43,1.54-1.16,1.74c-0.06,0.02-0.13,0.04-0.19,0.06c0,0.03-0.02,0.07-0.01,0.08c1.05,1.14,2.03,2.35,3.21,3.37
			C11.67,20.12,12.14,20.35,12.7,20.46z"/>
		<path class="st22" d="M20.31,11.87c-0.42,0.13-0.75,0.38-1,0.71c-0.79,1.04-1.55,2.09-2.33,3.13c-0.09,0.12-0.1,0.22-0.01,0.35
			c0.51,0.78,1,1.57,1.5,2.34c0.22,0.33,0.53,0.53,0.93,0.6c-0.63,0-1.26,0-1.9,0c0.42-0.25,0.46-0.39,0.21-0.78
			c-0.39-0.61-0.78-1.23-1.19-1.88c-0.48,0.71-0.94,1.38-1.39,2.04c-0.28,0.42-0.58,0.83-0.93,1.19c-0.38,0.4-0.85,0.61-1.38,0.71
			c-0.09,0.02-0.16-0.01-0.22-0.12c0.69-0.16,1.12-0.65,1.5-1.17c0.69-0.93,1.34-1.88,2.02-2.81c0.14-0.19,0.12-0.31,0-0.49
			c-0.4-0.61-0.79-1.23-1.17-1.85c-0.22-0.36-0.49-0.66-0.94-0.72c0.6,0,1.2,0,1.8,0c-0.42,0.21-0.46,0.35-0.21,0.75
			c0.28,0.44,0.56,0.87,0.83,1.31c0.15,0.25,0.23,0.29,0.42,0.02c0.58-0.84,1.17-1.68,1.79-2.49C19.05,12.2,19.57,11.78,20.31,11.87
			z"/>
		<path class="st22" d="M1.1,18.63c0-1.67,0.01-3.29-0.01-4.91c0-0.33-0.22-0.52-0.55-0.59c0.55,0,1.1-0.04,1.64,0.01
			c0.58,0.06,1.14,0.26,1.34,0.9c0.18,0.59,0.03,1.13-0.52,1.52c0.28,0.13,0.56,0.16,0.8,0.31c1.02,0.6,1.13,2.06,0.16,2.74
			C3,19.28,1.94,19.29,0.9,18.81c-0.68-0.31-0.98-0.98-0.89-1.8C0.17,17.71,0.37,18.31,1.1,18.63z M1.98,15.73
			c0.17-0.07,0.23-0.1,0.3-0.13c0.54-0.22,0.76-0.63,0.68-1.28c-0.07-0.55-0.36-0.85-0.91-0.94c-0.27-0.04-0.43-0.01-0.43,0.35
			c0.02,1.38,0.01,2.76,0.01,4.14c0,1.05,0.08,1.12,1.14,0.92c0.01,0,0.03,0,0.04-0.01c0.66-0.14,1.1-0.66,1.17-1.38
			c0.07-0.72-0.24-1.23-0.91-1.5C2.76,15.76,2.42,15.74,1.98,15.73z"/>
		<path class="st22" d="M10.57,14.55c-0.29-0.02-0.41-0.19-0.47-0.42c-0.07-0.28-0.01-0.53,0.23-0.71c0.21-0.16,0.45-0.23,0.7-0.25
			c0.63-0.05,1.26-0.11,2-0.17c-0.4,0.31-0.4,0.66-0.4,1.02c0,1.39,0.01,2.79,0,4.18c0,0.42,0.15,0.68,0.57,0.78
			c-0.56,0-1.11,0-1.78,0c0.59-0.11,0.69-0.44,0.68-0.9c-0.02-1.47-0.02-2.95,0-4.42c0-0.28-0.08-0.38-0.36-0.33
			c-0.2,0.03-0.4,0.01-0.6,0.03C10.37,13.42,10.14,13.87,10.57,14.55z"/>
	</g>
	<path class="st23" d="M5.01,2.15C5.59,1.7,6.27,1.44,6.92,1.14C7.27,0.97,7.63,0.83,7.99,0.7c0.36-0.13,0.73-0.25,1.1-0.34
		c0.37-0.1,0.75-0.18,1.14-0.24c0.69-0.11,1.43-0.14,2.13-0.1c0.18,0.01,0.37,0.03,0.54,0.07c0.38,0.08,0.76,0.17,1.13,0.31
		c0.08,0.03,0.15,0.06,0.23,0.1c0.38,0.18,0.73,0.42,1.04,0.71c0.3,0.29,0.54,0.63,0.72,1c0.19,0.38,0.31,0.8,0.36,1.22
		c0.02,0.16,0.03,0.33,0.03,0.49c0.01,1.03,0.01,1.03-1.01,1.03c-0.23,0-0.47,0.02-0.68,0c-0.33-0.02-0.4-0.1-0.39-0.41
		c0.06-1.36-0.48-2.43-1.67-3.12c-0.92-0.53-1.94-0.65-2.99-0.58C8.11,0.95,5.09,2.14,5.01,2.15z"/>
	<path class="st23" d="M13.64,8.91c-0.45,0.39-1.01,0.61-1.54,0.85c-1.21,0.56-2.47,0.97-3.79,1.1C6.77,11,5.25,10.97,3.94,9.96
		c-0.91-0.7-1.35-1.65-1.39-2.78C2.54,6.82,2.39,6.35,2.63,6.1C2.86,5.86,3.33,6,3.7,6.02c0.95,0.06,0.87-0.01,0.92,0.86
		c0.09,1.41,1.15,2.68,2.7,3.04c1.67,0.39,3.28,0.09,4.86-0.47c0.48-0.17,0.96-0.38,1.44-0.56L13.64,8.91z"/>
</g>
</svg>
