<?xml version="1.0" encoding="utf-8"?>
<!-- Generator: Adobe Illustrator 25.0.1, SVG Export Plug-In . SVG Version: 6.00 Build 0)  -->
<svg version="1.0" id="Layer_1" xmlns="http://www.w3.org/2000/svg" xmlns:xlink="http://www.w3.org/1999/xlink" x="0px" y="0px"
	 viewBox="0 0 38.52 13.19" style="enable-background:new 0 0 38.52 13.19;" xml:space="preserve">
<style type="text/css">
	.st0{fill:#000104;}
	.st1{fill:#FFFFFF;}
	.st2{fill:#EF493E;}
	.st3{opacity:0.6;fill-rule:evenodd;clip-rule:evenodd;fill:#FBBE43;}
	.st4{opacity:0.6;fill-rule:evenodd;clip-rule:evenodd;fill:#EF930E;}
	.st5{opacity:0.6;fill-rule:evenodd;clip-rule:evenodd;fill:#E67906;}
	.st6{fill:#9F8829;}
	.st7{fill:#3972A6;}
	.st8{fill:url(#SVGID_1_);stroke:#2B53A4;stroke-width:0.5;stroke-miterlimit:10;}
	.st9{fill:none;}
	.st10{fill:url(#SVGID_2_);}
	.st11{fill:url(#SVGID_3_);}
	.st12{fill:#B3B3B3;}
	.st13{fill:url(#SVGID_4_);}
	.st14{fill:url(#SVGID_5_);}
	.st15{fill:url(#SVGID_6_);}
	.st16{fill:#FFFFFF;stroke:#FFFFFF;stroke-width:0.25;stroke-miterlimit:10;}
	.st17{fill:#00001D;}
	.st18{fill:#4DA0C5;}
	.st19{fill:url(#SVGID_7_);}
	.st20{fill:#2E6A85;}
	.st21{fill:none;stroke:#144FA1;stroke-width:0.113;stroke-linejoin:round;stroke-miterlimit:10;}
	.st22{fill:#F27337;}
	.st23{fill:#8EB8D4;}
	.st24{fill:#F38056;}
	.st25{fill:#626365;}
	.st26{fill:#EF6D23;}
	.st27{fill:#284B82;}
	.st28{fill:#242956;}
	.st29{fill:#15142A;}
	.st30{fill:#84C343;}
	.st31{fill:#4CA1C6;}
	.st32{fill:#121617;}
	.st33{fill:#CF8966;}
	.st34{fill:#F37639;}
	.st35{opacity:0.3;fill:url(#SVGID_8_);}
	.st36{fill:#373277;}
	.st37{fill:#E61E25;}
	.st38{fill:#2555A5;}
	.st39{fill:#2E225E;}
	.st40{fill:#F8A425;}
	.st41{fill:#2058A7;}
	.st42{fill:none;stroke:#205AA8;stroke-width:0.156;stroke-miterlimit:10;}
	.st43{fill:#49A3C7;}
	.st44{fill-rule:evenodd;clip-rule:evenodd;}
	.st45{fill-rule:evenodd;clip-rule:evenodd;fill:url(#SVGID_9_);}
	.st46{fill-rule:evenodd;clip-rule:evenodd;fill:url(#SVGID_10_);}
	.st47{fill-rule:evenodd;clip-rule:evenodd;fill:url(#SVGID_11_);}
	.st48{fill:#1D2251;}
	.st49{fill:#2260AC;}
	.st50{fill:url(#SVGID_12_);}
	.st51{fill:#FFFFFC;}
	.st52{fill:#4C9FC5;}
	.st53{fill:#28306D;}
	.st54{fill:#4C9EC5;}
	.st55{fill:#28306E;}
	.st56{fill:#29306F;}
	.st57{fill:#F7F7FB;}
	.st58{fill:url(#SVGID_13_);}
	.st59{fill:url(#SVGID_14_);}
	.st60{fill:url(#SVGID_15_);}
	.st61{fill:url(#SVGID_16_);}
	.st62{fill:#10123C;}
	.st63{fill:#F5842C;}
	.st64{fill:#1F305E;}
	.st65{fill:#87BBD1;}
	.st66{fill:#203160;}
	.st67{fill:#235779;}
	.st68{fill:#359FA1;}
	.st69{fill:#A4D1A4;}
	.st70{fill:#B9DBBC;}
	.st71{fill:#C6DDCA;}
	.st72{fill:#662E14;}
	.st73{fill:#1D79A4;}
	.st74{fill:#C14B28;}
	.st75{fill:url(#SVGID_17_);}
	.st76{fill:url(#SVGID_18_);}
	.st77{fill:url(#SVGID_19_);}
	.st78{fill:url(#SVGID_20_);}
	.st79{fill:url(#SVGID_21_);}
	.st80{fill:url(#SVGID_22_);}
	.st81{fill:url(#SVGID_23_);}
	.st82{fill:url(#SVGID_24_);}
	.st83{fill:url(#SVGID_25_);}
	.st84{fill:url(#SVGID_26_);}
	.st85{fill:url(#SVGID_27_);}
	.st86{fill:url(#SVGID_28_);}
	.st87{fill:url(#SVGID_29_);}
	.st88{fill:url(#SVGID_30_);}
	.st89{fill:#1F164B;}
	.st90{clip-path:url(#SVGID_32_);fill:#253D97;}
	.st91{fill:url(#SVGID_33_);}
	.st92{fill:url(#SVGID_34_);}
	.st93{fill:url(#SVGID_35_);}
	.st94{fill:url(#SVGID_36_);}
	.st95{fill:url(#SVGID_37_);}
	.st96{fill:url(#SVGID_38_);}
	.st97{fill:url(#SVGID_39_);}
	.st98{fill:url(#SVGID_40_);}
	.st99{fill:url(#SVGID_41_);}
	.st100{fill:#443F41;}
	.st101{fill:#28306F;}
	.st102{fill:#71C49D;}
	.st103{fill:#F0C6A7;}
	.st104{fill:#DB8D82;}
	.st105{fill:#EFB7AC;}
	.st106{opacity:0.21;}
	.st107{fill-rule:evenodd;clip-rule:evenodd;fill:#A9196E;}
	.st108{fill-rule:evenodd;clip-rule:evenodd;fill:#FBE42C;}
	.st109{fill:#FBE42C;}
	.st110{fill:#A9196E;}
	.st111{fill:#7FC143;}
	.st112{clip-path:url(#SVGID_45_);fill:#7FC143;}
	.st113{clip-path:url(#SVGID_51_);fill:#7FC143;}
	.st114{fill:#243F8F;}
	.st115{fill:#EF4E2F;}
	.st116{fill:#010007;}
	.st117{fill:#0C0D37;}
	.st118{fill:#FBAF2D;}
	.st119{fill:url(#SVGID_54_);}
	.st120{fill-rule:evenodd;clip-rule:evenodd;fill:#FFFFFF;}
	.st121{fill:#1D4690;}
	.st122{fill:#3AA949;}
	.st123{fill:#F37A24;}
	.st124{fill:none;stroke:#F37A24;stroke-width:3.7145;stroke-miterlimit:10;}
	.st125{fill:#3AA949;stroke:#FFFFFF;stroke-width:1.3104;stroke-miterlimit:10;}
	.st126{fill:#46A2BB;}
	.st127{fill:#7153A0;}
	.st128{fill:#27316C;}
	.st129{fill:#2C65AE;}
	.st130{fill:#452D7A;}
	.st131{fill:#442C7A;}
	.st132{fill:#1A2642;}
	.st133{fill-rule:evenodd;clip-rule:evenodd;fill:#567EB8;}
	.st134{fill-rule:evenodd;clip-rule:evenodd;fill:#6A7EB8;}
	.st135{fill-rule:evenodd;clip-rule:evenodd;fill:#6A7EB9;}
	.st136{fill-rule:evenodd;clip-rule:evenodd;fill:#EE3C2D;}
	.st137{fill-rule:evenodd;clip-rule:evenodd;fill:#EF493F;}
	.st138{fill-rule:evenodd;clip-rule:evenodd;fill:#ED2C24;}
	.st139{fill-rule:evenodd;clip-rule:evenodd;fill:#E9AE28;}
	.st140{fill-rule:evenodd;clip-rule:evenodd;fill:#D69B28;}
	.st141{fill-rule:evenodd;clip-rule:evenodd;fill:#FCB729;}
	.st142{fill-rule:evenodd;clip-rule:evenodd;fill:#409E47;}
	.st143{fill-rule:evenodd;clip-rule:evenodd;fill:#4BB450;}
	.st144{fill-rule:evenodd;clip-rule:evenodd;fill:#338440;}
	.st145{fill:#C09C36;}
	.st146{fill:#1E552A;}
	.st147{clip-path:url(#SVGID_56_);fill:url(#SVGID_57_);}
	.st148{fill:#023A1E;}
	.st149{fill:#FFFFFA;}
	.st150{fill:#0D4F28;}
	.st151{fill:#0E5128;}
	.st152{fill:#0D4E27;}
	.st153{fill:#0E5229;}
	.st154{fill:#0E4823;}
	.st155{fill:#0E4C27;}
	.st156{fill:#F3F6E0;}
	.st157{fill:#0E4F28;}
	.st158{fill:#114823;}
	.st159{fill:#105229;}
	.st160{fill:#0A4A2B;}
	.st161{fill:#134F27;}
	.st162{fill:#165229;}
	.st163{fill:#0D5029;}
	.st164{fill:#0B4E2B;}
	.st165{fill:#105028;}
	.st166{fill:#0A492A;}
	.st167{fill:#E9F3E2;}
	.st168{fill:#144D26;}
	.st169{fill:#185C2F;}
	.st170{fill:#0F5028;}
	.st171{fill:#F3F8EA;}
	.st172{fill:#114D26;}
	.st173{fill:#70A685;}
	.st174{fill:#0D4F2A;}
	.st175{fill:#094A24;}
	.st176{fill:#0F4F27;}
	.st177{fill:#0A4C26;}
	.st178{fill:#A2D29A;}
	.st179{fill:#4D7E44;}
	.st180{fill:#E8F2E1;}
	.st181{fill:#EDF5E5;}
	.st182{fill:#E6F2E7;}
	.st183{fill:#E5F1DC;}
	.st184{fill:#E9F3E3;}
	.st185{fill:#E9F3E5;}
	.st186{fill:#E5F1DB;}
	.st187{fill:#D8ECD7;}
	.st188{fill:#D9EBD4;}
	.st189{fill:#E2F0DE;}
	.st190{fill:#366B4B;}
	.st191{fill:#5D6162;}
	.st192{fill:#212E5F;}
	.st193{fill:#DD1F26;}
	.st194{clip-path:url(#SVGID_59_);}
	.st195{fill:#23396F;}
	.st196{fill:#7FC24E;}
	.st197{clip-path:url(#SVGID_59_);fill:#23396F;}
	.st198{clip-path:url(#SVGID_59_);fill:#7FC24E;}
	.st199{fill:#91CEA4;}
	.st200{fill:#90CEA4;}
	.st201{fill:#C02026;}
	.st202{fill:#362E7E;}
</style>
<g>
	<rect y="9.76" class="st191" width="38.52" height="3.43"/>
	<path class="st1" d="M35.2,12.27c-0.04,0.08-0.11,0.15-0.21,0.21c-0.1,0.05-0.21,0.08-0.32,0.08c-0.13,0-0.23-0.03-0.3-0.1
		c-0.07-0.07-0.11-0.16-0.11-0.28c0-0.28,0.23-0.41,0.69-0.41h0.26V12.27z M35.48,11.6c0-0.25-0.06-0.44-0.18-0.58
		c-0.12-0.13-0.29-0.2-0.51-0.2c-0.28,0-0.51,0.09-0.71,0.26l0.09,0.15c0.17-0.12,0.35-0.18,0.53-0.18c0.32,0,0.49,0.16,0.49,0.49
		v0.02h-0.29c-0.64,0-0.96,0.21-0.96,0.64c0,0.18,0.06,0.32,0.17,0.42c0.12,0.1,0.27,0.16,0.46,0.16c0.25,0,0.47-0.08,0.64-0.25
		l0.04,0.2h0.21V11.6z M29.55,11.62c0-0.25-0.06-0.44-0.17-0.58c-0.12-0.14-0.3-0.22-0.53-0.22c-0.28,0-0.51,0.1-0.69,0.3
		c-0.11-0.2-0.3-0.3-0.58-0.3c-0.23,0-0.43,0.08-0.61,0.24h-0.01l-0.03-0.19h-0.24v1.86h0.28v-1.42c0.05-0.07,0.13-0.13,0.22-0.18
		c0.1-0.05,0.19-0.07,0.28-0.07c0.34,0,0.51,0.2,0.51,0.59v1.08h0.28v-1.11c0-0.12-0.01-0.22-0.04-0.32
		c0.16-0.16,0.33-0.24,0.52-0.24c0.35,0,0.52,0.2,0.52,0.61v1.06h0.28V11.62z M21.98,10.82c-0.17,0-0.34,0.08-0.51,0.25h-0.01
		l-0.03-0.2H21.2v1.86h0.28v-1.43c0.12-0.16,0.27-0.24,0.43-0.24c0.11,0,0.21,0.04,0.31,0.12l0.23-0.16
		C22.34,10.89,22.18,10.82,21.98,10.82 M16.38,12.27c-0.04,0.08-0.11,0.15-0.21,0.21c-0.1,0.05-0.21,0.08-0.32,0.08
		c-0.13,0-0.23-0.03-0.3-0.1c-0.07-0.07-0.11-0.16-0.11-0.28c0-0.28,0.23-0.41,0.69-0.41h0.26V12.27z M16.66,11.6
		c0-0.25-0.06-0.44-0.18-0.58c-0.12-0.13-0.29-0.2-0.51-0.2c-0.28,0-0.51,0.09-0.71,0.26l0.09,0.15c0.17-0.12,0.35-0.18,0.53-0.18
		c0.32,0,0.49,0.16,0.49,0.49v0.02h-0.29c-0.64,0-0.96,0.21-0.96,0.64c0,0.18,0.06,0.32,0.17,0.42c0.12,0.1,0.27,0.16,0.46,0.16
		c0.25,0,0.47-0.08,0.64-0.25l0.04,0.2h0.21V11.6z M10.73,11.62c0-0.53-0.24-0.8-0.72-0.8c-0.23,0-0.43,0.08-0.61,0.25v-0.98
		l-0.28,0.14v2.5h0.28v-1.43c0.05-0.07,0.12-0.13,0.22-0.17c0.1-0.05,0.2-0.07,0.29-0.07c0.35,0,0.53,0.19,0.53,0.58v1.09h0.28
		V11.62z M3.75,10.33c0.41,0,0.61,0.18,0.61,0.54c0,0.37-0.2,0.55-0.6,0.55c-0.13,0-0.25-0.01-0.35-0.02v-1.04
		C3.51,10.34,3.62,10.33,3.75,10.33 M3.42,12.73v-1.08c0.13,0.02,0.25,0.02,0.37,0.02c0.27,0,0.48-0.06,0.64-0.19
		c0.18-0.14,0.26-0.35,0.26-0.61c0-0.52-0.31-0.79-0.94-0.79c-0.18,0-0.4,0.02-0.65,0.05v2.59H3.42z"/>
	<path class="st192" d="M6.23,7.24H2.57V0H0v9.26h6.23V7.24z M7.75,5.01H5.9C6.26,3.69,6.5,2.81,6.6,2.36
		c0.1-0.45,0.17-0.77,0.21-0.97C6.85,1.6,6.93,1.95,7.06,2.44c0.13,0.49,0.23,0.89,0.32,1.19L7.75,5.01z M11.48,9.26L8.36,0H5.24
		l-2.3,6.88l2.48,0h2.81l0.65,2.38H11.48z"/>
	<path class="st193" d="M15.88,2.74C15.88,0.91,14.59,0,12,0H8.88l0.64,1.89h2.45c0.88,0,1.32,0.32,1.32,0.96
		c0,0.77-0.45,1.16-1.35,1.16h-1.71l0.64,1.88h1.24l2.02,3.37h2.91l-2.77-4.03C15.34,4.64,15.88,3.81,15.88,2.74 M22.65,4.63
		c0,0.89-0.15,1.55-0.46,1.97c-0.3,0.42-0.77,0.63-1.41,0.63c-1.24,0-1.86-0.87-1.86-2.61c0-1.75,0.63-2.63,1.88-2.63
		c0.62,0,1.08,0.21,1.39,0.64C22.5,3.06,22.65,3.73,22.65,4.63 M25.28,4.63c0-1.52-0.38-2.67-1.14-3.45C23.38,0.39,22.27,0,20.8,0
		c-1.47,0-2.58,0.4-3.35,1.18c-0.77,0.79-1.15,1.93-1.15,3.43c0,1.51,0.39,2.67,1.16,3.46c0.77,0.79,1.88,1.19,3.33,1.19
		c1.47,0,2.59-0.39,3.35-1.18C24.9,7.29,25.28,6.14,25.28,4.63"/>
	<path class="st192" d="M29.34,1.94h9.19V0h-9.19v0c-1.06,0.01-1.9,0.24-2.51,0.69c-0.62,0.46-0.93,1.11-0.93,1.94
		c0,0.44,0.07,0.83,0.22,1.15c0.15,0.32,0.37,0.61,0.67,0.86c0.3,0.25,0.75,0.51,1.36,0.78c0.67,0.29,1.08,0.48,1.23,0.58
		c0.15,0.1,0.27,0.19,0.34,0.28c0.07,0.09,0.1,0.2,0.1,0.32c0,0.2-0.09,0.36-0.26,0.48c-0.17,0.13-0.45,0.19-0.82,0.19
		c-0.01,0-0.02,0-0.03,0h-3.35c-0.2,0.47-0.47,0.88-0.81,1.22c-0.29,0.3-0.7,0.55-1.09,0.75h5.34v0c0.69-0.01,1.3-0.13,1.82-0.36
		c0.55-0.24,0.97-0.58,1.26-1.01c0.29-0.43,0.44-0.93,0.44-1.49c0-0.61-0.16-1.11-0.46-1.51c-0.31-0.4-0.86-0.77-1.66-1.12
		C29.36,3.39,28.85,3.14,28.66,3c-0.19-0.14-0.28-0.3-0.28-0.47c0-0.16,0.07-0.3,0.22-0.41C28.75,2,29.01,1.94,29.34,1.94
		 M32.85,5.46h5.67v-2h-7.56C31.82,3.85,32.57,4.58,32.85,5.46 M38.52,9.26v-2H32.9c-0.22,0.85-0.92,1.56-1.67,2H38.52z"/>
</g>
</svg>
