<?xml version="1.0" encoding="utf-8"?>
<!-- Generator: Adobe Illustrator 25.0.1, SVG Export Plug-In . SVG Version: 6.00 Build 0)  -->
<svg version="1.0" id="Layer_1" xmlns="http://www.w3.org/2000/svg" xmlns:xlink="http://www.w3.org/1999/xlink" x="0px" y="0px"
	 viewBox="0 0 29.98 29.18" style="enable-background:new 0 0 29.98 29.18;" xml:space="preserve">
<style type="text/css">
	.st0{fill:#000104;}
	.st1{fill:#FFFFFF;}
	.st2{fill:#EF493E;}
	.st3{opacity:0.6;fill-rule:evenodd;clip-rule:evenodd;fill:#FBBE43;}
	.st4{opacity:0.6;fill-rule:evenodd;clip-rule:evenodd;fill:#EF930E;}
	.st5{opacity:0.6;fill-rule:evenodd;clip-rule:evenodd;fill:#E67906;}
	.st6{fill:#9F8829;}
	.st7{fill:#3972A6;}
	.st8{fill:url(#SVGID_1_);stroke:#2B53A4;stroke-width:0.5;stroke-miterlimit:10;}
	.st9{fill:none;}
	.st10{fill:url(#SVGID_2_);}
	.st11{fill:url(#SVGID_3_);}
	.st12{fill:#B3B3B3;}
	.st13{fill:url(#SVGID_4_);}
	.st14{fill:url(#SVGID_5_);}
	.st15{fill:url(#SVGID_6_);}
	.st16{fill:#FFFFFF;stroke:#FFFFFF;stroke-width:0.25;stroke-miterlimit:10;}
	.st17{fill:#00001D;}
	.st18{fill:#4DA0C5;}
	.st19{fill:url(#SVGID_7_);}
	.st20{fill:#2E6A85;}
	.st21{fill:none;stroke:#144FA1;stroke-width:0.113;stroke-linejoin:round;stroke-miterlimit:10;}
	.st22{fill:#F27337;}
	.st23{fill:#8EB8D4;}
	.st24{fill:#F38056;}
	.st25{fill:#626365;}
	.st26{fill:#EF6D23;}
	.st27{fill:#284B82;}
	.st28{fill:#242956;}
	.st29{fill:#15142A;}
	.st30{fill:#84C343;}
	.st31{fill:#4CA1C6;}
	.st32{fill:#121617;}
	.st33{fill:#CF8966;}
	.st34{fill:#F37639;}
	.st35{opacity:0.3;fill:url(#SVGID_8_);}
	.st36{fill:#373277;}
	.st37{fill:#E61E25;}
	.st38{fill:#2555A5;}
	.st39{fill:#2E225E;}
	.st40{fill:#F8A425;}
	.st41{fill:#2058A7;}
	.st42{fill:none;stroke:#205AA8;stroke-width:0.156;stroke-miterlimit:10;}
	.st43{fill:#49A3C7;}
	.st44{fill-rule:evenodd;clip-rule:evenodd;}
	.st45{fill-rule:evenodd;clip-rule:evenodd;fill:url(#SVGID_9_);}
	.st46{fill-rule:evenodd;clip-rule:evenodd;fill:url(#SVGID_10_);}
	.st47{fill-rule:evenodd;clip-rule:evenodd;fill:url(#SVGID_11_);}
	.st48{fill:#1D2251;}
	.st49{fill:#2260AC;}
	.st50{fill:url(#SVGID_12_);}
	.st51{fill:#FFFFFC;}
	.st52{fill:#4C9FC5;}
	.st53{fill:#28306D;}
	.st54{fill:#4C9EC5;}
	.st55{fill:#28306E;}
	.st56{fill:#29306F;}
	.st57{fill:#F7F7FB;}
	.st58{fill:url(#SVGID_13_);}
	.st59{fill:url(#SVGID_14_);}
	.st60{fill:url(#SVGID_15_);}
	.st61{fill:url(#SVGID_16_);}
	.st62{fill:#10123C;}
	.st63{fill:#F5842C;}
	.st64{fill:#1F305E;}
	.st65{fill:#87BBD1;}
	.st66{fill:#203160;}
	.st67{fill:#235779;}
	.st68{fill:#359FA1;}
	.st69{fill:#A4D1A4;}
	.st70{fill:#B9DBBC;}
	.st71{fill:#C6DDCA;}
	.st72{fill:#662E14;}
	.st73{fill:#1D79A4;}
	.st74{fill:#C14B28;}
	.st75{fill:url(#SVGID_17_);}
	.st76{fill:url(#SVGID_18_);}
	.st77{fill:url(#SVGID_19_);}
	.st78{fill:url(#SVGID_20_);}
	.st79{fill:url(#SVGID_21_);}
	.st80{fill:url(#SVGID_22_);}
	.st81{fill:url(#SVGID_23_);}
	.st82{fill:url(#SVGID_24_);}
	.st83{fill:url(#SVGID_25_);}
	.st84{fill:url(#SVGID_26_);}
	.st85{fill:url(#SVGID_27_);}
	.st86{fill:url(#SVGID_28_);}
	.st87{fill:url(#SVGID_29_);}
	.st88{fill:url(#SVGID_30_);}
	.st89{fill:#1F164B;}
	.st90{clip-path:url(#SVGID_32_);fill:#253D97;}
	.st91{fill:url(#SVGID_33_);}
	.st92{fill:url(#SVGID_34_);}
	.st93{fill:url(#SVGID_35_);}
	.st94{fill:url(#SVGID_36_);}
	.st95{fill:url(#SVGID_37_);}
	.st96{fill:url(#SVGID_38_);}
	.st97{fill:url(#SVGID_39_);}
	.st98{fill:url(#SVGID_40_);}
	.st99{fill:url(#SVGID_41_);}
	.st100{fill:#443F41;}
	.st101{fill:#28306F;}
	.st102{fill:#71C49D;}
	.st103{fill:#F0C6A7;}
	.st104{fill:#DB8D82;}
	.st105{fill:#EFB7AC;}
	.st106{opacity:0.21;}
	.st107{fill-rule:evenodd;clip-rule:evenodd;fill:#A9196E;}
	.st108{fill-rule:evenodd;clip-rule:evenodd;fill:#FBE42C;}
	.st109{fill:#FBE42C;}
	.st110{fill:#A9196E;}
	.st111{fill:#7FC143;}
	.st112{clip-path:url(#SVGID_45_);fill:#7FC143;}
	.st113{clip-path:url(#SVGID_51_);fill:#7FC143;}
	.st114{fill:#243F8F;}
	.st115{fill:#EF4E2F;}
	.st116{fill:#010007;}
	.st117{fill:#0C0D37;}
	.st118{fill:#FBAF2D;}
	.st119{fill:url(#SVGID_54_);}
	.st120{fill-rule:evenodd;clip-rule:evenodd;fill:#FFFFFF;}
	.st121{fill:#1D4690;}
	.st122{fill:#3AA949;}
	.st123{fill:#F37A24;}
	.st124{fill:none;stroke:#F37A24;stroke-width:3.7145;stroke-miterlimit:10;}
	.st125{fill:#3AA949;stroke:#FFFFFF;stroke-width:1.3104;stroke-miterlimit:10;}
	.st126{fill:#46A2BB;}
	.st127{fill:#7153A0;}
	.st128{fill:#27316C;}
	.st129{fill:#2C65AE;}
	.st130{fill:#452D7A;}
	.st131{fill:#442C7A;}
	.st132{fill:#1A2642;}
	.st133{fill-rule:evenodd;clip-rule:evenodd;fill:#567EB8;}
	.st134{fill-rule:evenodd;clip-rule:evenodd;fill:#6A7EB8;}
	.st135{fill-rule:evenodd;clip-rule:evenodd;fill:#6A7EB9;}
	.st136{fill-rule:evenodd;clip-rule:evenodd;fill:#EE3C2D;}
	.st137{fill-rule:evenodd;clip-rule:evenodd;fill:#EF493F;}
	.st138{fill-rule:evenodd;clip-rule:evenodd;fill:#ED2C24;}
	.st139{fill-rule:evenodd;clip-rule:evenodd;fill:#E9AE28;}
	.st140{fill-rule:evenodd;clip-rule:evenodd;fill:#D69B28;}
	.st141{fill-rule:evenodd;clip-rule:evenodd;fill:#FCB729;}
	.st142{fill-rule:evenodd;clip-rule:evenodd;fill:#409E47;}
	.st143{fill-rule:evenodd;clip-rule:evenodd;fill:#4BB450;}
	.st144{fill-rule:evenodd;clip-rule:evenodd;fill:#338440;}
	.st145{fill:#C09C36;}
	.st146{fill:#1E552A;}
	.st147{clip-path:url(#SVGID_56_);fill:url(#SVGID_57_);}
	.st148{fill:#023A1E;}
	.st149{fill:#FFFFFA;}
	.st150{fill:#0D4F28;}
	.st151{fill:#0E5128;}
	.st152{fill:#0D4E27;}
	.st153{fill:#0E5229;}
	.st154{fill:#0E4823;}
	.st155{fill:#0E4C27;}
	.st156{fill:#F3F6E0;}
	.st157{fill:#0E4F28;}
	.st158{fill:#114823;}
	.st159{fill:#105229;}
	.st160{fill:#0A4A2B;}
	.st161{fill:#134F27;}
	.st162{fill:#165229;}
	.st163{fill:#0D5029;}
	.st164{fill:#0B4E2B;}
	.st165{fill:#105028;}
	.st166{fill:#0A492A;}
	.st167{fill:#E9F3E2;}
	.st168{fill:#144D26;}
	.st169{fill:#185C2F;}
	.st170{fill:#0F5028;}
	.st171{fill:#F3F8EA;}
	.st172{fill:#114D26;}
	.st173{fill:#70A685;}
	.st174{fill:#0D4F2A;}
	.st175{fill:#094A24;}
	.st176{fill:#0F4F27;}
	.st177{fill:#0A4C26;}
	.st178{fill:#A2D29A;}
	.st179{fill:#4D7E44;}
	.st180{fill:#E8F2E1;}
	.st181{fill:#EDF5E5;}
	.st182{fill:#E6F2E7;}
	.st183{fill:#E5F1DC;}
	.st184{fill:#E9F3E3;}
	.st185{fill:#E9F3E5;}
	.st186{fill:#E5F1DB;}
	.st187{fill:#D8ECD7;}
	.st188{fill:#D9EBD4;}
	.st189{fill:#E2F0DE;}
	.st190{fill:#366B4B;}
	.st191{fill:#5D6162;}
	.st192{fill:#212E5F;}
	.st193{fill:#DD1F26;}
	.st194{clip-path:url(#SVGID_59_);}
	.st195{fill:#23396F;}
	.st196{fill:#7FC24E;}
	.st197{clip-path:url(#SVGID_59_);fill:#23396F;}
	.st198{clip-path:url(#SVGID_59_);fill:#7FC24E;}
	.st199{fill:#91CEA4;}
	.st200{fill:#90CEA4;}
	.st201{fill:#C02026;}
	.st202{fill:#362E7E;}
</style>
<g>
	<path class="st1" d="M8.12,20.71c0,0,0.17,0.04,0.24,0.05c0.43,0.07,1.01-0.15,1.27-0.64l0.06-0.08"/>
	<path class="st199" d="M8.25,20.41c-0.05,0.08-0.09,0.15-0.13,0.23"/>
	<line class="st199" x1="8.35" y1="20.25" x2="8.25" y2="20.41"/>
	<ellipse class="st1" cx="14.99" cy="14.59" rx="14.99" ry="14.59"/>
	<path class="st200" d="M18.07,12.44c0,0.43-0.06,0.91-0.21,1.34c-0.56,1.6-1.99,2.57-3.58,2.57c-2.79,0-4.19-2.26-4.19-4.97
		c0-3.2,1.76-5.23,4.22-5.23c1.88,0,3.14,1.2,3.61,2.66c0.12,0.34,0.15,0.71,0.15,1.14V12.44z M18.48,4.5l-0.12,2.08h-0.06
		c-0.62-1.14-1.96-2.4-4.43-2.4c-3.26,0-6.39,2.66-6.39,7.34c0,3.83,2.52,6.74,6.04,6.74c2.2,0,3.72-1.03,4.52-2.31h0.06v1.54
		c0,3.48-1.94,4.83-4.58,4.83c-1.76,0-3.23-0.51-4.16-1.09l-0.65,1.91c1.14,0.74,3.02,1.14,4.72,1.14c1.79,0,3.78-0.4,5.16-1.66
		c1.38-1.2,2.02-3.14,2.02-6.31V8.3c0-1.68,0.06-2.8,0.12-3.8H18.48z"/>
	<path class="st200" d="M8.3,21.38c0,0,0.19,0.04,0.27,0.05c0.48,0.08,1.12-0.14,1.39-0.67l0.06-0.09"/>
	<path class="st200" d="M8.57,21.06c-0.04,0.07-0.08,0.14-0.12,0.22"/>
	<line class="st200" x1="8.66" y1="20.91" x2="8.57" y2="21.06"/>
	<path class="st200" d="M7.33,20.86c0,0,0.24,0.61,0.52,0.93l0.04-0.06l-0.02,0.07l0.15,0c0,0,0.51-1.47,1.84-2.1
		c0,0-0.99,0.68-1.42,1.56c0,0,0.79,0.16,1.19-0.38c0.38-0.51,0.5-1.33,1.11-1.57c0,0-2.7-0.31-2.52,1.81c0,0-0.19,0.26-0.31,0.51
		c-0.13-0.18-1.24-1.87-0.89-3.78c0,0-0.04,1.68,0.65,2.87c0,0,0.95-0.78,0.55-1.63c-0.38-0.85-1.13-1.65-0.9-2.53
		C7.32,16.56,4.71,19.28,7.33,20.86z"/>
	<path d="M5.91,24.81c0.36,0.31,0.7,0.27,1.04-0.09l0.22-0.25l-0.54-0.46l-0.2,0.23l0.26,0.23l-0.06,0.07
		c-0.08,0.09-0.16,0.14-0.24,0.15c-0.08,0.01-0.16-0.02-0.25-0.1c-0.09-0.08-0.14-0.16-0.13-0.25c0-0.09,0.06-0.19,0.17-0.31
		l0.28-0.31c0.11-0.12,0.21-0.2,0.3-0.21c0.09-0.02,0.18,0.01,0.27,0.09c0.08,0.07,0.12,0.14,0.13,0.22c0,0.08-0.02,0.15-0.08,0.22
		l-0.01,0.01l0.28,0.24l0.01-0.01c0.13-0.15,0.19-0.3,0.17-0.47c-0.02-0.17-0.11-0.32-0.27-0.46c-0.36-0.31-0.72-0.27-1.06,0.11
		l-0.3,0.33C5.55,24.16,5.55,24.5,5.91,24.81z"/>
	<path d="M7.95,24.86c0.14,0.1,0.15,0.22,0.04,0.37l-0.02,0.03l-0.42-0.29l0.01-0.01c0.06-0.09,0.13-0.14,0.19-0.15
		C7.82,24.8,7.88,24.82,7.95,24.86z M8.13,25.65l0.11-0.16c0.13-0.18,0.18-0.34,0.15-0.49c-0.03-0.15-0.11-0.28-0.27-0.38
		c-0.16-0.11-0.31-0.15-0.46-0.12c-0.15,0.03-0.29,0.13-0.42,0.31l-0.1,0.14c-0.13,0.18-0.18,0.35-0.15,0.5
		c0.03,0.15,0.12,0.28,0.28,0.39c0.15,0.1,0.29,0.15,0.42,0.14c0.14-0.01,0.24-0.07,0.32-0.18l0.01-0.01l-0.28-0.19L7.73,25.6
		l-0.13,0.06L7.45,25.6c-0.07-0.05-0.12-0.11-0.13-0.18c-0.01-0.07,0.01-0.14,0.08-0.23l0.02-0.03L8.13,25.65z"/>
	<path d="M9.33,25.66l0.12-0.21l-0.25-0.14l0.21-0.35L9.05,24.9l-0.15,0.25l-0.18-0.1L8.6,25.25l0.18,0.1l-0.41,0.68
		c-0.07,0.11-0.08,0.22-0.05,0.32c0.03,0.1,0.1,0.19,0.22,0.25l0.15,0.08l0.15-0.25l-0.1-0.05c-0.08-0.05-0.1-0.11-0.05-0.2
		l0.39-0.66L9.33,25.66z"/>
	<polygon points="11.35,25.75 11.07,26.49 10.45,26.26 10.74,25.52 10.39,25.39 9.69,27.19 10.04,27.32 10.34,26.56 10.95,26.78 
		10.66,27.54 11.01,27.67 11.7,25.87 	"/>
	<path d="M12.34,26.79c0.17,0.04,0.23,0.14,0.19,0.32l-0.01,0.04l-0.5-0.11l0-0.01c0.02-0.11,0.06-0.18,0.12-0.21
		C12.19,26.78,12.26,26.77,12.34,26.79z M12.81,27.45l0.04-0.19c0.05-0.21,0.03-0.38-0.05-0.51c-0.08-0.13-0.22-0.21-0.4-0.25
		c-0.19-0.04-0.34-0.02-0.47,0.07c-0.13,0.08-0.22,0.23-0.27,0.44l-0.04,0.17c-0.05,0.22-0.03,0.39,0.06,0.52
		c0.09,0.13,0.22,0.21,0.41,0.25c0.18,0.04,0.33,0.03,0.45-0.03c0.12-0.06,0.2-0.16,0.23-0.29l0-0.01l-0.33-0.07l0,0.01l-0.09,0.1
		c-0.05,0.02-0.1,0.02-0.17,0.01c-0.09-0.02-0.15-0.06-0.19-0.11s-0.05-0.14-0.02-0.24l0.01-0.04L12.81,27.45z"/>
	<path d="M13.69,27.9c-0.14-0.01-0.21-0.08-0.2-0.2c0.01-0.12,0.09-0.17,0.24-0.16l0.26,0.02l-0.01,0.1
		c-0.01,0.09-0.03,0.15-0.08,0.19C13.85,27.89,13.78,27.9,13.69,27.9z M13.81,26.7c-0.17-0.01-0.3,0.02-0.41,0.09
		c-0.1,0.07-0.16,0.17-0.17,0.31l0,0.01l0.33,0.02l0-0.01L13.63,27c0.04-0.03,0.1-0.04,0.16-0.04c0.16,0.01,0.23,0.09,0.22,0.25
		L14,27.33l-0.31-0.02c-0.16-0.01-0.29,0.02-0.38,0.09c-0.1,0.07-0.15,0.17-0.16,0.3c-0.01,0.14,0.02,0.25,0.1,0.34
		c0.08,0.09,0.19,0.13,0.34,0.15c0.08,0.01,0.15,0,0.2-0.02l0.16-0.1l-0.01,0.12l0.34,0.02l0.07-0.95c0.01-0.17-0.03-0.3-0.12-0.39
		C14.14,26.77,14,26.71,13.81,26.7z"/>
	<path d="M15.17,28.18l0.16,0l-0.01-0.3l-0.12,0l-0.11-0.03c-0.02-0.02-0.03-0.07-0.04-0.13l-0.05-1.46l-0.35,0.01l0.05,1.48
		c0,0.14,0.05,0.25,0.13,0.32C14.92,28.15,15.03,28.19,15.17,28.18z"/>
	<path d="M16.26,26.87l-0.03-0.24l-0.28,0.03l-0.05-0.4l-0.34,0.16l0.03,0.28l-0.2,0.02l0.03,0.24l0.2-0.02l0.09,0.78
		c0.01,0.13,0.07,0.22,0.15,0.29c0.09,0.07,0.2,0.09,0.33,0.08l0.17-0.02l-0.03-0.29l-0.11,0.01c-0.1,0.01-0.15-0.03-0.16-0.13
		l-0.09-0.76L16.26,26.87z"/>
	<path d="M16.79,28.01l0.35-0.08l-0.21-0.88c-0.02-0.08-0.01-0.15,0.02-0.2c0.03-0.05,0.08-0.09,0.15-0.1
		c0.07-0.02,0.13-0.01,0.18,0.03c0.05,0.03,0.09,0.09,0.1,0.17l0.21,0.88l0.35-0.08l-0.22-0.92c-0.04-0.16-0.11-0.27-0.21-0.35
		c-0.1-0.07-0.23-0.09-0.38-0.06c-0.07,0.01-0.12,0.04-0.18,0.08l-0.13,0.14l-0.14-0.59l-0.35,0.08L16.79,28.01z"/>
	<path d="M18.63,26.01l0.02,0.95l-0.58-0.77l-0.35,0.12l0.95,1.17l0,0.02l-0.03,0.13l-0.11,0.07l-0.11,0.04l0.1,0.29l0.12-0.04
		c0.11-0.04,0.19-0.09,0.24-0.16c0.05-0.07,0.08-0.16,0.08-0.27l0.01-1.67L18.63,26.01z"/>
	<path d="M21.05,26.57c0.42-0.21,0.51-0.54,0.28-0.97l-0.16-0.29l-0.63,0.32l0.14,0.27l0.31-0.16l0.04,0.08
		c0.06,0.1,0.07,0.19,0.05,0.27c-0.02,0.07-0.08,0.14-0.18,0.19c-0.11,0.05-0.2,0.06-0.29,0.03c-0.08-0.04-0.16-0.12-0.24-0.26
		l-0.2-0.37c-0.08-0.15-0.11-0.26-0.1-0.35c0.01-0.09,0.07-0.16,0.18-0.21c0.09-0.05,0.18-0.06,0.26-0.03
		c0.08,0.02,0.14,0.08,0.18,0.15l0.01,0.02l0.33-0.17l-0.01-0.02c-0.09-0.17-0.22-0.28-0.39-0.32c-0.17-0.04-0.34-0.01-0.54,0.08
		c-0.43,0.22-0.52,0.55-0.28,1l0.21,0.39C20.29,26.66,20.62,26.78,21.05,26.57z"/>
	<path d="M22.47,25.76c0.17-0.1,0.27-0.22,0.29-0.36c0.03-0.14-0.01-0.29-0.12-0.46l-0.47-0.73l-0.3,0.18l0.46,0.72
		c0.06,0.09,0.09,0.17,0.09,0.22c0,0.06-0.04,0.11-0.12,0.16c-0.08,0.05-0.15,0.06-0.2,0.03c-0.06-0.03-0.11-0.09-0.17-0.17
		l-0.46-0.71l-0.3,0.18l0.47,0.73C21.87,25.9,22.14,25.96,22.47,25.76z"/>
	<path d="M23.17,23.81l-0.15-0.2l-0.23,0.16l-0.24-0.33l-0.21,0.3l0.17,0.23l-0.17,0.12l0.15,0.2l0.17-0.12l0.47,0.64
		c0.08,0.1,0.17,0.16,0.28,0.18c0.11,0.02,0.22-0.01,0.33-0.09l0.14-0.1l-0.18-0.24l-0.09,0.06c-0.08,0.05-0.15,0.04-0.21-0.04
		l-0.46-0.62L23.17,23.81z"/>
</g>
</svg>
