<?xml version="1.0" encoding="utf-8"?>
<!-- Generator: Adobe Illustrator 25.0.1, SVG Export Plug-In . SVG Version: 6.00 Build 0)  -->
<svg version="1.0" id="Layer_1" xmlns="http://www.w3.org/2000/svg" xmlns:xlink="http://www.w3.org/1999/xlink" x="0px" y="0px"
	 viewBox="0 0 38.64 37.62" style="enable-background:new 0 0 38.64 37.62;" xml:space="preserve">
<style type="text/css">
	.st0{fill:#000104;}
	.st1{fill:#FFFFFF;}
	.st2{fill:#EF493E;}
	.st3{opacity:0.6;fill-rule:evenodd;clip-rule:evenodd;fill:#FBBE43;}
	.st4{opacity:0.6;fill-rule:evenodd;clip-rule:evenodd;fill:#EF930E;}
	.st5{opacity:0.6;fill-rule:evenodd;clip-rule:evenodd;fill:#E67906;}
	.st6{fill:#9F8829;}
	.st7{fill:#3972A6;}
	.st8{fill:url(#SVGID_1_);stroke:#2B53A4;stroke-width:0.5;stroke-miterlimit:10;}
	.st9{fill:none;}
	.st10{fill:url(#SVGID_2_);}
	.st11{fill:url(#SVGID_3_);}
	.st12{fill:#B3B3B3;}
	.st13{fill:url(#SVGID_4_);}
	.st14{fill:url(#SVGID_5_);}
	.st15{fill:url(#SVGID_6_);}
	.st16{fill:#FFFFFF;stroke:#FFFFFF;stroke-width:0.25;stroke-miterlimit:10;}
	.st17{fill:#00001D;}
	.st18{fill:#4DA0C5;}
	.st19{fill:url(#SVGID_7_);}
	.st20{fill:#2E6A85;}
	.st21{fill:none;stroke:#144FA1;stroke-width:0.113;stroke-linejoin:round;stroke-miterlimit:10;}
	.st22{fill:#F27337;}
	.st23{fill:#8EB8D4;}
	.st24{fill:#F38056;}
	.st25{fill:#626365;}
	.st26{fill:#EF6D23;}
	.st27{fill:#284B82;}
	.st28{fill:#242956;}
	.st29{fill:#15142A;}
	.st30{fill:#84C343;}
	.st31{fill:#4CA1C6;}
	.st32{fill:#121617;}
	.st33{fill:#CF8966;}
	.st34{fill:#F37639;}
	.st35{opacity:0.3;fill:url(#SVGID_8_);}
	.st36{fill:#373277;}
	.st37{fill:#E61E25;}
	.st38{fill:#2555A5;}
	.st39{fill:#2E225E;}
	.st40{fill:#F8A425;}
	.st41{fill:#2058A7;}
	.st42{fill:none;stroke:#205AA8;stroke-width:0.156;stroke-miterlimit:10;}
	.st43{fill:#49A3C7;}
	.st44{fill-rule:evenodd;clip-rule:evenodd;}
	.st45{fill-rule:evenodd;clip-rule:evenodd;fill:url(#SVGID_9_);}
	.st46{fill-rule:evenodd;clip-rule:evenodd;fill:url(#SVGID_10_);}
	.st47{fill-rule:evenodd;clip-rule:evenodd;fill:url(#SVGID_11_);}
	.st48{fill:#1D2251;}
	.st49{fill:#2260AC;}
	.st50{fill:url(#SVGID_12_);}
	.st51{fill:#FFFFFC;}
	.st52{fill:#4C9FC5;}
	.st53{fill:#28306D;}
	.st54{fill:#4C9EC5;}
	.st55{fill:#28306E;}
	.st56{fill:#29306F;}
	.st57{fill:#F7F7FB;}
	.st58{fill:url(#SVGID_13_);}
	.st59{fill:url(#SVGID_14_);}
	.st60{fill:url(#SVGID_15_);}
	.st61{fill:url(#SVGID_16_);}
	.st62{fill:#10123C;}
	.st63{fill:#F5842C;}
	.st64{fill:#1F305E;}
	.st65{fill:#87BBD1;}
	.st66{fill:#203160;}
	.st67{fill:#235779;}
	.st68{fill:#359FA1;}
	.st69{fill:#A4D1A4;}
	.st70{fill:#B9DBBC;}
	.st71{fill:#C6DDCA;}
	.st72{fill:#662E14;}
	.st73{fill:#1D79A4;}
	.st74{fill:#C14B28;}
	.st75{fill:url(#SVGID_17_);}
	.st76{fill:url(#SVGID_18_);}
	.st77{fill:url(#SVGID_19_);}
	.st78{fill:url(#SVGID_20_);}
	.st79{fill:url(#SVGID_21_);}
	.st80{fill:url(#SVGID_22_);}
	.st81{fill:url(#SVGID_23_);}
	.st82{fill:url(#SVGID_24_);}
	.st83{fill:url(#SVGID_25_);}
	.st84{fill:url(#SVGID_26_);}
	.st85{fill:url(#SVGID_27_);}
	.st86{fill:url(#SVGID_28_);}
	.st87{fill:url(#SVGID_29_);}
	.st88{fill:url(#SVGID_30_);}
	.st89{fill:#1F164B;}
	.st90{clip-path:url(#SVGID_32_);fill:#253D97;}
	.st91{fill:url(#SVGID_33_);}
	.st92{fill:url(#SVGID_34_);}
	.st93{fill:url(#SVGID_35_);}
	.st94{fill:url(#SVGID_36_);}
	.st95{fill:url(#SVGID_37_);}
	.st96{fill:url(#SVGID_38_);}
	.st97{fill:url(#SVGID_39_);}
	.st98{fill:url(#SVGID_40_);}
	.st99{fill:url(#SVGID_41_);}
	.st100{fill:#443F41;}
	.st101{fill:#28306F;}
	.st102{fill:#71C49D;}
	.st103{fill:#F0C6A7;}
	.st104{fill:#DB8D82;}
	.st105{fill:#EFB7AC;}
	.st106{opacity:0.21;}
	.st107{fill-rule:evenodd;clip-rule:evenodd;fill:#A9196E;}
	.st108{fill-rule:evenodd;clip-rule:evenodd;fill:#FBE42C;}
	.st109{fill:#FBE42C;}
	.st110{fill:#A9196E;}
	.st111{fill:#7FC143;}
	.st112{clip-path:url(#SVGID_45_);fill:#7FC143;}
	.st113{clip-path:url(#SVGID_51_);fill:#7FC143;}
	.st114{fill:#243F8F;}
	.st115{fill:#EF4E2F;}
	.st116{fill:#010007;}
	.st117{fill:#0C0D37;}
	.st118{fill:#FBAF2D;}
	.st119{fill:url(#SVGID_54_);}
	.st120{fill-rule:evenodd;clip-rule:evenodd;fill:#FFFFFF;}
	.st121{fill:#1D4690;}
	.st122{fill:#3AA949;}
	.st123{fill:#F37A24;}
	.st124{fill:none;stroke:#F37A24;stroke-width:3.7145;stroke-miterlimit:10;}
	.st125{fill:#3AA949;stroke:#FFFFFF;stroke-width:1.3104;stroke-miterlimit:10;}
	.st126{fill:#46A2BB;}
	.st127{fill:#7153A0;}
	.st128{fill:#27316C;}
	.st129{fill:#2C65AE;}
	.st130{fill:#452D7A;}
	.st131{fill:#442C7A;}
	.st132{fill:#1A2642;}
	.st133{fill-rule:evenodd;clip-rule:evenodd;fill:#567EB8;}
	.st134{fill-rule:evenodd;clip-rule:evenodd;fill:#6A7EB8;}
	.st135{fill-rule:evenodd;clip-rule:evenodd;fill:#6A7EB9;}
	.st136{fill-rule:evenodd;clip-rule:evenodd;fill:#EE3C2D;}
	.st137{fill-rule:evenodd;clip-rule:evenodd;fill:#EF493F;}
	.st138{fill-rule:evenodd;clip-rule:evenodd;fill:#ED2C24;}
	.st139{fill-rule:evenodd;clip-rule:evenodd;fill:#E9AE28;}
	.st140{fill-rule:evenodd;clip-rule:evenodd;fill:#D69B28;}
	.st141{fill-rule:evenodd;clip-rule:evenodd;fill:#FCB729;}
	.st142{fill-rule:evenodd;clip-rule:evenodd;fill:#409E47;}
	.st143{fill-rule:evenodd;clip-rule:evenodd;fill:#4BB450;}
	.st144{fill-rule:evenodd;clip-rule:evenodd;fill:#338440;}
	.st145{fill:#C09C36;}
	.st146{fill:#1E552A;}
	.st147{clip-path:url(#SVGID_56_);fill:url(#SVGID_57_);}
	.st148{fill:#023A1E;}
	.st149{fill:#FFFFFA;}
	.st150{fill:#0D4F28;}
	.st151{fill:#0E5128;}
	.st152{fill:#0D4E27;}
	.st153{fill:#0E5229;}
	.st154{fill:#0E4823;}
	.st155{fill:#0E4C27;}
	.st156{fill:#F3F6E0;}
	.st157{fill:#0E4F28;}
	.st158{fill:#114823;}
	.st159{fill:#105229;}
	.st160{fill:#0A4A2B;}
	.st161{fill:#134F27;}
	.st162{fill:#165229;}
	.st163{fill:#0D5029;}
	.st164{fill:#0B4E2B;}
	.st165{fill:#105028;}
	.st166{fill:#0A492A;}
	.st167{fill:#E9F3E2;}
	.st168{fill:#144D26;}
	.st169{fill:#185C2F;}
	.st170{fill:#0F5028;}
	.st171{fill:#F3F8EA;}
	.st172{fill:#114D26;}
	.st173{fill:#70A685;}
	.st174{fill:#0D4F2A;}
	.st175{fill:#094A24;}
	.st176{fill:#0F4F27;}
	.st177{fill:#0A4C26;}
	.st178{fill:#A2D29A;}
	.st179{fill:#4D7E44;}
	.st180{fill:#E8F2E1;}
	.st181{fill:#EDF5E5;}
	.st182{fill:#E6F2E7;}
	.st183{fill:#E5F1DC;}
	.st184{fill:#E9F3E3;}
	.st185{fill:#E9F3E5;}
	.st186{fill:#E5F1DB;}
	.st187{fill:#D8ECD7;}
	.st188{fill:#D9EBD4;}
	.st189{fill:#E2F0DE;}
	.st190{fill:#366B4B;}
	.st191{fill:#5D6162;}
	.st192{fill:#212E5F;}
	.st193{fill:#DD1F26;}
	.st194{clip-path:url(#SVGID_59_);}
	.st195{fill:#23396F;}
	.st196{fill:#7FC24E;}
	.st197{clip-path:url(#SVGID_59_);fill:#23396F;}
	.st198{clip-path:url(#SVGID_59_);fill:#7FC24E;}
	.st199{fill:#91CEA4;}
	.st200{fill:#90CEA4;}
	.st201{fill:#C02026;}
	.st202{fill:#362E7E;}
</style>
<g>
	<g>
		<path class="st117" d="M18.69,0c0.42,0,0.84,0,1.26,0c0.19,0.01,0.38,0.03,0.57,0.04c1.06,0.06,2.1,0.2,3.13,0.44
			c3.07,0.69,5.8,2.03,8.2,4.02c2,1.66,3.59,3.65,4.77,5.94c0.8,1.57,1.36,3.21,1.69,4.93c0.14,0.73,0.24,1.48,0.28,2.22
			c0.01,0.2,0.03,0.4,0.04,0.6c0,0.41,0,0.82,0,1.22c-0.01,0.05-0.01,0.1-0.02,0.15c-0.06,0.66-0.11,1.33-0.19,1.99
			c-0.15,1.13-0.43,2.23-0.81,3.3c-1.29,3.63-3.5,6.61-6.63,8.94c-2.12,1.57-4.48,2.66-7.06,3.28c-1.12,0.27-2.25,0.43-3.4,0.5
			c-0.19,0.01-0.38,0.03-0.57,0.04c-0.42,0-0.84,0-1.26,0c-0.04-0.01-0.08-0.01-0.12-0.02c-0.54-0.04-1.07-0.07-1.61-0.13
			c-0.98-0.1-1.95-0.3-2.9-0.56c-3.68-1.03-6.79-2.95-9.31-5.75c-1.39-1.54-2.49-3.27-3.29-5.17c-0.54-1.27-0.93-2.58-1.17-3.93
			c-0.12-0.69-0.21-1.38-0.25-2.07C0.03,19.8,0.01,19.61,0,19.42c0-0.41,0-0.82,0-1.22c0.01-0.04,0.01-0.08,0.02-0.12
			c0.02-0.25,0.03-0.5,0.05-0.74c0.07-0.99,0.23-1.96,0.47-2.92c0.79-3.17,2.32-5.95,4.58-8.35C7,4.08,9.22,2.55,11.77,1.49
			c1.37-0.57,2.79-0.98,4.26-1.22c0.69-0.11,1.38-0.16,2.08-0.24C18.3,0.02,18.5,0.01,18.69,0z M19.33,36.7
			c10.14,0,18.36-8,18.37-17.86c0.01-9.88-8.21-17.9-18.35-17.9c-10.15,0-18.38,8-18.38,17.87C0.96,28.69,9.18,36.7,19.33,36.7z"/>
		<path class="st1" d="M19.33,36.7c-10.14,0-18.37-8.01-18.36-17.89c0-9.87,8.23-17.88,18.38-17.87c10.14,0,18.36,8.02,18.35,17.9
			C37.69,28.7,29.46,36.7,19.33,36.7z M19.33,1.31C9.4,1.32,1.4,9.11,1.35,18.73c-0.05,9.72,8,17.58,17.94,17.6
			c9.96,0.02,17.98-7.8,18.02-17.43C37.35,9.18,29.29,1.32,19.33,1.31z"/>
		<path class="st117" d="M19.33,1.31c9.96,0.01,18.02,7.87,17.98,17.58c-0.04,9.63-8.06,17.45-18.02,17.43
			C9.35,36.31,1.3,28.44,1.35,18.73C1.4,9.11,9.4,1.32,19.33,1.31z M24.02,15.16c0.55,0,0.97-0.21,1.23-0.59
			c0.57-0.82,1.13-1.63,1.7-2.45c0.67-0.97,1.34-1.94,2.02-2.91c0.08-0.12,0.14-0.24,0.13-0.39c-0.01-0.24-0.19-0.46-0.42-0.52
			c-0.26-0.07-0.5,0.02-0.65,0.23c-0.36,0.51-0.71,1.03-1.07,1.55c-0.88,1.27-1.77,2.55-2.65,3.82c-0.12,0.17-0.29,0.18-0.4,0.01
			c-0.53-0.77-1.07-1.54-1.58-2.33c-0.58-0.9-1.12-1.82-1.75-2.69c-0.29-0.4-0.69-0.6-1.18-0.61c-0.59-0.01-1.02,0.25-1.36,0.72
			c-0.86,1.22-1.75,2.43-2.62,3.65c-0.39,0.54-0.78,1.08-1.17,1.62c-0.18,0.25-0.13,0.57,0.12,0.75c0.29,0.22,0.68,0.16,0.9-0.14
			c1.13-1.57,2.26-3.13,3.39-4.7c0.16-0.22,0.31-0.44,0.47-0.65c0.13-0.17,0.29-0.17,0.41,0.01c0.39,0.57,0.79,1.13,1.18,1.71
			c0.74,1.09,1.47,2.19,2.2,3.28C23.2,14.94,23.6,15.15,24.02,15.16z M31.29,26.4c2-0.04,3.54-1.5,3.55-3.45
			c0.01-1.95-1.54-3.46-3.54-3.46c-2,0-3.54,1.49-3.55,3.44C27.74,24.88,29.29,26.36,31.29,26.4z M7.9,26.43
			c0.51-0.02,0.89-0.22,1.17-0.62c0.49-0.72,0.99-1.43,1.48-2.15c0.74-1.07,1.48-2.14,2.22-3.21c0.09-0.13,0.14-0.26,0.11-0.41
			c-0.05-0.27-0.21-0.43-0.49-0.49c-0.21-0.04-0.44,0.07-0.59,0.28c-0.63,0.92-1.26,1.83-1.9,2.75c-0.6,0.87-1.2,1.74-1.8,2.6
			c-0.08,0.11-0.17,0.16-0.27,0.11c-0.06-0.03-0.11-0.09-0.15-0.15c-1.19-1.75-2.38-3.51-3.57-5.26C4.06,19.8,4,19.72,3.92,19.67
			c-0.24-0.17-0.55-0.14-0.76,0.06c-0.19,0.19-0.22,0.48-0.06,0.72c1.22,1.8,2.44,3.6,3.67,5.4C7.04,26.24,7.44,26.41,7.9,26.43z
			 M21.48,26.43c0.49,0,0.91-0.22,1.18-0.62c0.44-0.63,0.87-1.26,1.31-1.89c0.8-1.16,1.6-2.31,2.39-3.47
			c0.07-0.1,0.11-0.24,0.12-0.36c0.01-0.24-0.17-0.45-0.4-0.52c-0.24-0.07-0.49,0-0.64,0.2c-0.05,0.06-0.09,0.12-0.13,0.18
			c-1.2,1.74-2.4,3.48-3.6,5.22c-0.12,0.18-0.28,0.18-0.41,0c-0.1-0.14-0.19-0.28-0.29-0.43c-0.77-1.14-1.54-2.27-2.31-3.41
			c-0.35-0.51-0.69-1.02-1.04-1.53c-0.11-0.16-0.26-0.24-0.45-0.25c-0.24-0.01-0.42,0.08-0.54,0.28c-0.12,0.21-0.1,0.42,0.04,0.61
			c1.22,1.79,2.43,3.58,3.64,5.37C20.63,26.23,21.02,26.41,21.48,26.43z M9.07,14.6c0,0.25,0.16,0.38,0.47,0.5
			c0.05,0.02,0.12,0.02,0.18,0.01c0.19-0.03,0.32-0.14,0.43-0.29c0.51-0.72,1.03-1.44,1.55-2.17c0.73-1.03,1.47-2.05,2.2-3.08
			c0.23-0.33,0.17-0.61-0.17-0.82C13.48,8.59,13.18,8.65,13,8.9c-0.31,0.43-0.62,0.86-0.92,1.29c-0.95,1.33-1.91,2.66-2.86,4
			C9.13,14.3,9.07,14.43,9.07,14.6z M15.31,22.97C15.31,22.97,15.31,22.97,15.31,22.97c0-0.96,0-1.92,0-2.88
			c0-0.21-0.07-0.4-0.28-0.5c-0.21-0.1-0.43-0.1-0.63,0.03c-0.18,0.11-0.23,0.3-0.23,0.5c0,0.7,0,1.4,0,2.1c0,1.22,0,2.44,0,3.66
			c0,0.21,0.07,0.4,0.28,0.5c0.21,0.1,0.43,0.1,0.63-0.03c0.18-0.11,0.23-0.29,0.23-0.49C15.31,24.89,15.31,23.93,15.31,22.97z
			 M16.92,31.68c0.07,0,0.12-0.01,0.17,0c0.09,0.01,0.13-0.03,0.16-0.11c0.04-0.14,0.1-0.27,0.15-0.41c0.02-0.05,0.04-0.07,0.1-0.07
			c0.32,0,0.65,0,0.97,0c0.06,0,0.09,0.02,0.11,0.08c0.05,0.15,0.1,0.29,0.15,0.43c0.01,0.03,0.05,0.08,0.09,0.08
			c0.07,0.01,0.14,0,0.23,0c-0.01-0.04-0.02-0.08-0.03-0.11c-0.22-0.61-0.44-1.22-0.66-1.83c-0.08-0.23-0.08-0.23-0.34-0.23
			c-0.03,0-0.07,0-0.1,0c-0.14,0-0.22,0.06-0.27,0.18c-0.06,0.17-0.12,0.33-0.18,0.5C17.28,30.69,17.11,31.18,16.92,31.68z
			 M20.24,30.27c-0.11-0.01-0.21-0.03-0.32-0.04c-0.07-0.01-0.14,0-0.21,0c-0.26,0-0.44,0.17-0.44,0.42c0,0.2,0,0.4,0,0.6
			c0,0.25,0.18,0.43,0.44,0.43c0.21,0,0.42,0,0.63,0c0.13,0,0.15-0.02,0.15-0.15c0-0.64,0-1.28,0-1.92c0-0.03,0-0.06,0-0.1
			c-0.05,0-0.08,0-0.12,0c-0.13,0-0.13,0-0.13,0.13C20.24,29.86,20.24,30.08,20.24,30.27z M21.81,30.27c-0.1-0.01-0.2-0.03-0.3-0.04
			c-0.08-0.01-0.15,0-0.23,0c-0.26,0-0.43,0.17-0.44,0.42c0,0.2,0,0.39,0,0.59c0,0.26,0.18,0.44,0.46,0.44c0.2,0,0.4,0,0.6,0
			c0.16,0,0.17-0.01,0.17-0.16c0-0.63,0-1.26,0-1.9c0-0.03,0-0.07-0.01-0.11c-0.04,0-0.08,0-0.12,0c-0.1-0.02-0.14,0.02-0.14,0.13
			C21.82,29.86,21.81,30.07,21.81,30.27z M15.32,30.28c-0.1-0.02-0.18-0.04-0.27-0.04c-0.09-0.01-0.17,0-0.26,0
			c-0.25,0-0.43,0.17-0.43,0.42c0,0.2,0,0.4,0,0.6c0,0.26,0.18,0.43,0.45,0.43c0.21,0,0.41,0,0.62,0c0.14,0,0.15-0.02,0.15-0.16
			c0-0.63,0-1.26,0-1.9c0-0.04,0-0.07,0-0.11c-0.05,0-0.09,0-0.13,0c-0.1-0.01-0.13,0.02-0.13,0.12
			C15.32,29.85,15.32,30.07,15.32,30.28z M10.85,29.52c-0.03,0-0.07,0-0.1,0c-0.28,0-0.56,0-0.84,0c-0.34,0-0.55,0.2-0.55,0.53
			c0,0.51,0,1.02,0,1.53c0,0.03,0,0.07,0.01,0.11c0.07,0,0.12,0,0.18,0c0.07,0,0.09-0.02,0.09-0.09c0-0.16,0-0.32,0-0.48
			c0-0.13,0-0.26,0-0.39c0.32,0,0.63,0,0.93,0c0.23,0,0.23,0,0.22-0.22c0-0.01-0.01-0.01-0.01-0.01c-0.38,0-0.76,0-1.15,0
			c0-0.14,0-0.3,0-0.46c0-0.18,0.08-0.26,0.27-0.26c0.25,0,0.5,0,0.75,0C10.89,29.77,10.9,29.75,10.85,29.52z M11.38,31.04
			c0.05,0.01,0.09,0.03,0.12,0.03c0.26,0,0.52,0,0.78,0c0.07,0,0.1-0.03,0.1-0.1c0-0.11,0-0.22,0-0.33c0-0.24-0.16-0.4-0.41-0.41
			c-0.15-0.01-0.3-0.01-0.45,0c-0.25,0.01-0.4,0.16-0.4,0.4c0,0.21,0,0.41,0,0.62c0,0.25,0.18,0.42,0.44,0.42c0.23,0,0.46,0,0.69,0
			c0.02,0,0.05-0.01,0.07-0.01c0-0.04,0-0.07,0-0.11c0.02-0.11-0.03-0.13-0.13-0.13c-0.21,0.01-0.42,0-0.63,0
			c-0.12,0-0.18-0.06-0.18-0.18C11.38,31.19,11.38,31.12,11.38,31.04z M13.01,31.04c0.04,0.01,0.08,0.03,0.12,0.03
			c0.27,0,0.53,0,0.8,0c0.07,0,0.1-0.03,0.1-0.09c0-0.12,0-0.23,0-0.35c-0.01-0.23-0.16-0.39-0.4-0.4c-0.15-0.01-0.31-0.01-0.46,0
			c-0.25,0.01-0.4,0.16-0.4,0.41c0,0.21,0,0.42,0,0.63c0,0.21,0.15,0.39,0.37,0.4c0.27,0.02,0.55,0,0.83,0c0-0.04,0-0.07,0-0.11
			c0-0.14,0-0.14-0.13-0.14c-0.21,0-0.41,0-0.62,0c-0.13,0-0.19-0.06-0.19-0.19C13.01,31.18,13.01,31.11,13.01,31.04z M26.45,31.04
			c0.05,0.01,0.09,0.02,0.13,0.02c0.25,0,0.51,0,0.76,0c0.08,0,0.11-0.04,0.11-0.11c0-0.11,0-0.21,0-0.32c0-0.24-0.16-0.4-0.41-0.41
			c-0.15,0-0.3-0.01-0.45,0c-0.25,0.01-0.4,0.16-0.4,0.4c0,0.21,0,0.41,0,0.62c0,0.25,0.18,0.42,0.44,0.42c0.23,0,0.46,0,0.69,0
			c0.02,0,0.05-0.01,0.07-0.01c0-0.04,0-0.07,0-0.11c0.02-0.11-0.03-0.13-0.13-0.13c-0.21,0.01-0.42,0-0.63,0
			c-0.12,0-0.18-0.06-0.18-0.18C26.44,31.19,26.45,31.12,26.45,31.04z M15.31,7.67c0-0.29-0.2-0.56-0.58-0.56
			c-0.34,0-0.57,0.25-0.57,0.56c0,0.31,0.25,0.56,0.57,0.56C15.06,8.24,15.31,7.99,15.31,7.67z M15.33,17.62
			c0-0.32-0.25-0.56-0.58-0.56c-0.32,0-0.58,0.25-0.57,0.56c0,0.31,0.25,0.55,0.57,0.56C15.08,18.17,15.33,17.93,15.33,17.62z
			 M28.98,30.23c-0.28,0-0.56-0.01-0.84,0c-0.22,0.01-0.35,0.16-0.36,0.38c0,0.04,0,0.08,0,0.12c0,0.15,0.01,0.16,0.16,0.19
			c0.26,0.06,0.52,0.12,0.78,0.19c0.05,0.01,0.09,0.02,0.09,0.09c0,0.18-0.04,0.23-0.24,0.24c-0.19,0-0.38,0-0.58,0
			c-0.22,0-0.22,0-0.19,0.22c0,0.01,0.01,0.01,0.01,0.02c0.29,0,0.58,0.01,0.87,0c0.22-0.01,0.35-0.16,0.36-0.38
			c0-0.07,0-0.14,0-0.2c0.01-0.1-0.03-0.15-0.14-0.17c-0.26-0.05-0.52-0.12-0.78-0.18c-0.03-0.01-0.08-0.04-0.09-0.06
			c-0.03-0.13,0.03-0.2,0.16-0.2c0.2,0,0.4,0,0.6,0c0.2,0,0.2,0,0.19-0.2C28.99,30.26,28.99,30.25,28.98,30.23z M23.71,30.25
			c-0.13,0-0.25,0-0.39,0c0-0.16,0-0.33,0-0.5c0-0.22,0-0.22-0.23-0.21c-0.01,0-0.01,0.01-0.02,0.01c0,0.01,0,0.03,0,0.05
			c0,0.56,0,1.12,0,1.68c0,0.18,0.12,0.34,0.3,0.38c0.14,0.03,0.28,0.02,0.43,0.03c0-0.06,0-0.11,0-0.15
			c0.01-0.08-0.02-0.11-0.11-0.11c-0.06,0.01-0.12,0-0.18,0c-0.14,0-0.2-0.06-0.2-0.19c0-0.13,0-0.25,0-0.38c0-0.13,0-0.26,0-0.39
			c0.08,0,0.14,0,0.2,0C23.75,30.48,23.75,30.48,23.71,30.25z M24.57,30.24c0.01,0.03,0.02,0.06,0.03,0.09
			c0.18,0.42,0.36,0.84,0.53,1.26c0.02,0.06,0.05,0.09,0.12,0.1c0.08,0,0.11-0.04,0.13-0.1c0.1-0.24,0.21-0.48,0.31-0.72
			c0.09-0.21,0.17-0.41,0.27-0.63c-0.06,0-0.11,0.01-0.16,0c-0.1-0.01-0.14,0.03-0.17,0.11c-0.1,0.26-0.2,0.51-0.31,0.77
			c-0.02,0.05-0.04,0.1-0.06,0.15c-0.01-0.02-0.02-0.02-0.02-0.03c-0.11-0.27-0.22-0.54-0.32-0.8c-0.09-0.21-0.09-0.21-0.32-0.2
			C24.6,30.23,24.59,30.23,24.57,30.24z M22.69,31.67c0-0.48,0-0.95,0-1.43c-0.08,0-0.16,0-0.25,0c0,0.04,0,0.08,0,0.11
			c0,0.37,0,0.74,0,1.11C22.44,31.7,22.44,31.7,22.69,31.67z M24.33,31.67c0-0.48,0-0.95,0-1.43c-0.09,0-0.17,0-0.25,0
			c0,0.41,0,0.82,0,1.22C24.07,31.7,24.07,31.7,24.33,31.67z M24.08,29.6c-0.03,0.27,0,0.3,0.24,0.25c0-0.08,0-0.16,0-0.25
			C24.24,29.6,24.16,29.6,24.08,29.6z M22.69,29.86c0-0.09,0-0.17,0-0.26c-0.08,0-0.16,0-0.24,0
			C22.42,29.93,22.42,29.86,22.69,29.86z"/>
		<path class="st1" d="M24.02,15.16c-0.43-0.02-0.82-0.22-1.1-0.63c-0.73-1.1-1.47-2.19-2.2-3.28c-0.39-0.57-0.79-1.14-1.18-1.71
			c-0.12-0.17-0.29-0.17-0.41-0.01c-0.16,0.21-0.31,0.43-0.47,0.65c-1.13,1.57-2.26,3.13-3.39,4.7c-0.22,0.3-0.61,0.36-0.9,0.14
			c-0.24-0.19-0.3-0.5-0.12-0.75c0.39-0.54,0.78-1.08,1.17-1.62c0.88-1.21,1.76-2.42,2.62-3.65c0.33-0.47,0.77-0.74,1.36-0.72
			c0.49,0.01,0.89,0.21,1.18,0.61c0.63,0.87,1.17,1.79,1.75,2.69c0.51,0.79,1.05,1.55,1.58,2.33c0.11,0.17,0.29,0.16,0.4-0.01
			c0.88-1.27,1.77-2.55,2.65-3.82c0.36-0.52,0.71-1.03,1.07-1.55c0.15-0.21,0.39-0.3,0.65-0.23c0.23,0.06,0.41,0.27,0.42,0.52
			c0.01,0.14-0.05,0.27-0.13,0.39c-0.67,0.97-1.35,1.94-2.02,2.91c-0.57,0.82-1.13,1.63-1.7,2.45
			C24.99,14.95,24.57,15.17,24.02,15.16z"/>
		<path class="st1" d="M31.29,26.4c-2-0.04-3.55-1.52-3.54-3.47c0.01-1.95,1.55-3.44,3.55-3.44c2,0,3.55,1.51,3.54,3.46
			C34.83,24.9,33.28,26.36,31.29,26.4z M31.3,25.46c1.4,0.03,2.58-1.15,2.59-2.5c0.01-1.39-1.2-2.54-2.58-2.54
			c-1.41-0.01-2.6,1.16-2.61,2.52C28.7,24.3,29.9,25.49,31.3,25.46z"/>
		<path class="st1" d="M7.9,26.43c-0.46-0.02-0.86-0.19-1.13-0.58c-1.23-1.8-2.45-3.6-3.67-5.4c-0.16-0.24-0.13-0.53,0.06-0.72
			c0.21-0.2,0.51-0.23,0.76-0.06C4,19.72,4.06,19.8,4.11,19.88c1.19,1.75,2.38,3.51,3.57,5.26c0.04,0.06,0.09,0.12,0.15,0.15
			c0.1,0.05,0.19,0,0.27-0.11c0.6-0.87,1.2-1.74,1.8-2.6c0.63-0.92,1.26-1.83,1.9-2.75c0.15-0.21,0.38-0.32,0.59-0.28
			c0.28,0.06,0.44,0.21,0.49,0.49c0.03,0.15-0.02,0.29-0.11,0.41c-0.74,1.07-1.48,2.14-2.22,3.21c-0.49,0.72-0.99,1.43-1.48,2.15
			C8.8,26.21,8.41,26.41,7.9,26.43z"/>
		<path class="st1" d="M21.48,26.43c-0.46-0.02-0.86-0.2-1.13-0.6c-1.22-1.79-2.43-3.58-3.64-5.37c-0.13-0.2-0.16-0.4-0.04-0.61
			c0.12-0.2,0.3-0.3,0.54-0.28c0.19,0.01,0.34,0.09,0.45,0.25c0.35,0.51,0.69,1.02,1.04,1.53c0.77,1.14,1.54,2.27,2.31,3.41
			c0.1,0.14,0.19,0.28,0.29,0.43c0.12,0.18,0.29,0.18,0.41,0c1.2-1.74,2.4-3.48,3.6-5.22c0.04-0.06,0.08-0.13,0.13-0.18
			c0.15-0.2,0.4-0.27,0.64-0.2c0.23,0.07,0.41,0.28,0.4,0.52c0,0.12-0.05,0.26-0.12,0.36c-0.79,1.16-1.59,2.31-2.39,3.47
			c-0.44,0.63-0.87,1.26-1.31,1.89C22.39,26.21,21.98,26.43,21.48,26.43z"/>
		<path class="st118" d="M9.07,14.6c0-0.17,0.06-0.3,0.14-0.42c0.95-1.33,1.91-2.66,2.86-4C12.39,9.76,12.69,9.33,13,8.9
			c0.18-0.25,0.48-0.31,0.74-0.15c0.34,0.21,0.4,0.5,0.17,0.82c-0.73,1.03-1.47,2.05-2.2,3.08c-0.52,0.72-1.03,1.44-1.55,2.17
			c-0.11,0.15-0.24,0.27-0.43,0.29c-0.06,0.01-0.13,0.01-0.18-0.01C9.24,14.98,9.07,14.85,9.07,14.6z"/>
		<path class="st118" d="M15.31,22.97c0,0.96,0,1.92,0,2.88c0,0.19-0.05,0.38-0.23,0.49c-0.2,0.13-0.42,0.12-0.63,0.03
			c-0.21-0.1-0.28-0.29-0.28-0.5c0-1.22,0-2.44,0-3.66c0-0.7,0-1.4,0-2.1c0-0.2,0.05-0.38,0.23-0.5c0.2-0.13,0.42-0.13,0.63-0.03
			c0.21,0.1,0.28,0.29,0.28,0.5C15.32,21.05,15.31,22.01,15.31,22.97C15.31,22.97,15.31,22.97,15.31,22.97z"/>
		<path class="st1" d="M16.92,31.68c0.18-0.51,0.36-0.99,0.54-1.48c0.06-0.17,0.12-0.33,0.18-0.5c0.05-0.13,0.13-0.18,0.27-0.18
			c0.03,0,0.07,0,0.1,0c0.25,0,0.25,0,0.34,0.23c0.22,0.61,0.44,1.22,0.66,1.83c0.01,0.03,0.02,0.06,0.03,0.11
			c-0.08,0-0.16,0.01-0.23,0c-0.03-0.01-0.07-0.05-0.09-0.08c-0.06-0.14-0.11-0.29-0.15-0.43c-0.02-0.06-0.05-0.08-0.11-0.08
			c-0.32,0-0.65,0-0.97,0c-0.06,0-0.09,0.02-0.1,0.07c-0.05,0.14-0.1,0.27-0.15,0.41c-0.03,0.08-0.07,0.12-0.16,0.11
			C17.04,31.68,16.99,31.68,16.92,31.68z M18.46,30.84c-0.01-0.04-0.02-0.06-0.03-0.09c-0.11-0.29-0.21-0.59-0.32-0.88
			c-0.02-0.06-0.04-0.1-0.12-0.1c-0.08,0-0.12,0.03-0.13,0.1c-0.01,0.04-0.03,0.08-0.04,0.12c-0.1,0.28-0.2,0.56-0.3,0.85
			c0.29,0,0.57,0,0.85,0C18.39,30.84,18.42,30.84,18.46,30.84z"/>
		<path class="st1" d="M20.24,30.27c0-0.19,0-0.41,0-0.62c0-0.13,0-0.13,0.13-0.13c0.03,0,0.07,0,0.12,0c0,0.04,0,0.07,0,0.1
			c0,0.64,0,1.28,0,1.92c0,0.13-0.02,0.15-0.15,0.15c-0.21,0-0.42,0-0.63,0c-0.26,0-0.44-0.18-0.44-0.43c0-0.2,0-0.4,0-0.6
			c0-0.25,0.18-0.42,0.44-0.42c0.07,0,0.14,0,0.21,0C20.03,30.24,20.13,30.26,20.24,30.27z M20.24,31.44c0-0.28,0-0.56,0-0.83
			c0-0.08-0.06-0.13-0.16-0.13c-0.13,0-0.25,0-0.38,0c-0.11,0-0.17,0.06-0.17,0.17c0,0.21,0,0.42,0,0.63c0,0.09,0.06,0.16,0.16,0.16
			C19.87,31.44,20.04,31.44,20.24,31.44z"/>
		<path class="st1" d="M21.81,30.27c0-0.2,0.01-0.41,0-0.63c0-0.11,0.03-0.14,0.14-0.13c0.04,0.01,0.08,0,0.12,0
			c0,0.04,0.01,0.08,0.01,0.11c0,0.63,0,1.26,0,1.9c0,0.15-0.01,0.16-0.17,0.16c-0.2,0-0.4,0-0.6,0c-0.27,0-0.45-0.17-0.46-0.44
			c0-0.2,0-0.39,0-0.59c0-0.25,0.18-0.42,0.44-0.42c0.08,0,0.15-0.01,0.23,0C21.61,30.24,21.71,30.26,21.81,30.27z M21.81,31.43
			c0-0.28,0-0.54,0-0.8c0-0.1-0.06-0.15-0.17-0.16c-0.12,0-0.24,0-0.37,0c-0.11,0-0.17,0.06-0.17,0.16c0,0.21,0,0.42,0,0.63
			c0,0.08,0.05,0.15,0.13,0.16C21.42,31.44,21.61,31.43,21.81,31.43z"/>
		<path class="st1" d="M15.32,30.28c0-0.2,0.01-0.42,0-0.64c0-0.1,0.03-0.14,0.13-0.12c0.04,0,0.08,0,0.13,0c0,0.04,0,0.08,0,0.11
			c0,0.63,0,1.26,0,1.9c0,0.14-0.02,0.16-0.15,0.16c-0.21,0-0.41,0-0.62,0c-0.27,0-0.45-0.17-0.45-0.43c0-0.2,0-0.4,0-0.6
			c0-0.24,0.18-0.41,0.43-0.42c0.09,0,0.18-0.01,0.26,0C15.13,30.24,15.22,30.26,15.32,30.28z M15.31,31.44c0-0.28,0-0.56,0-0.83
			c0-0.08-0.06-0.13-0.15-0.13c-0.13,0-0.27,0-0.4,0c-0.1,0-0.16,0.06-0.16,0.16c-0.01,0.21,0,0.43,0,0.64
			c0,0.09,0.06,0.16,0.16,0.16C14.94,31.44,15.12,31.44,15.31,31.44z"/>
		<path class="st1" d="M10.85,29.52c0.05,0.24,0.04,0.25-0.19,0.25c-0.25,0-0.5,0-0.75,0c-0.18,0-0.27,0.08-0.27,0.26
			c0,0.16,0,0.32,0,0.46c0.39,0,0.76,0,1.15,0c0,0,0,0,0.01,0.01c0.02,0.22,0.02,0.22-0.22,0.22c-0.31,0-0.61,0-0.93,0
			c0,0.13,0,0.26,0,0.39c0,0.16,0,0.32,0,0.48c0,0.07-0.02,0.09-0.09,0.09c-0.06,0-0.12,0-0.18,0c0-0.04-0.01-0.07-0.01-0.11
			c0-0.51,0-1.02,0-1.53c0-0.33,0.21-0.53,0.55-0.53c0.28,0,0.56,0,0.84,0C10.78,29.52,10.82,29.52,10.85,29.52z"/>
		<path class="st1" d="M11.38,31.04c0,0.07,0,0.14,0,0.22c0,0.11,0.06,0.18,0.18,0.18c0.21,0,0.42,0.01,0.63,0
			c0.1,0,0.15,0.02,0.13,0.13c-0.01,0.03,0,0.07,0,0.11c-0.03,0-0.05,0.01-0.07,0.01c-0.23,0-0.46,0-0.69,0
			c-0.25,0-0.43-0.18-0.44-0.42c0-0.21,0-0.41,0-0.62c0-0.24,0.16-0.39,0.4-0.4c0.15-0.01,0.3-0.01,0.45,0
			c0.25,0.01,0.41,0.17,0.41,0.41c0,0.11,0,0.22,0,0.33c0,0.07-0.02,0.1-0.1,0.1c-0.26,0-0.52,0-0.78,0
			C11.47,31.07,11.43,31.05,11.38,31.04z M12.13,30.83c0-0.08,0-0.14,0-0.2c0-0.1-0.05-0.15-0.15-0.16c-0.15,0-0.29,0-0.44,0
			c-0.1,0-0.15,0.06-0.16,0.16c0,0.06,0,0.13,0,0.2C11.63,30.83,11.88,30.83,12.13,30.83z"/>
		<path class="st1" d="M13.01,31.04c0,0.07,0,0.14,0,0.2c0,0.13,0.06,0.19,0.19,0.19c0.21,0,0.41,0,0.62,0c0.13,0,0.13,0,0.13,0.14
			c0,0.03,0,0.07,0,0.11c-0.29,0-0.56,0.01-0.83,0c-0.21-0.01-0.36-0.2-0.37-0.4c0-0.21,0-0.42,0-0.63c0-0.24,0.15-0.4,0.4-0.41
			c0.15-0.01,0.31-0.01,0.46,0c0.24,0.01,0.39,0.17,0.4,0.4c0,0.12,0,0.23,0,0.35c0,0.06-0.03,0.09-0.1,0.09c-0.27,0-0.53,0-0.8,0
			C13.09,31.07,13.06,31.05,13.01,31.04z M13.76,30.83c0-0.08,0.01-0.16,0-0.23c-0.01-0.07-0.05-0.12-0.13-0.12
			c-0.16,0-0.31,0-0.47,0c-0.09,0-0.13,0.06-0.14,0.14c-0.01,0.07,0,0.14,0,0.22C13.27,30.83,13.51,30.83,13.76,30.83z"/>
		<path class="st1" d="M26.45,31.04c0,0.07,0,0.14,0,0.21c0,0.11,0.06,0.18,0.18,0.18c0.21,0,0.42,0.01,0.63,0
			c0.1,0,0.15,0.02,0.13,0.13c-0.01,0.03,0,0.07,0,0.11c-0.03,0-0.05,0.01-0.07,0.01c-0.23,0-0.46,0-0.69,0
			c-0.25,0-0.43-0.18-0.44-0.42c0-0.21,0-0.41,0-0.62c0-0.24,0.15-0.39,0.4-0.4c0.15-0.01,0.3-0.01,0.45,0
			c0.25,0.01,0.41,0.17,0.41,0.41c0,0.11,0,0.21,0,0.32c0,0.08-0.02,0.11-0.11,0.11c-0.25,0-0.51,0-0.76,0
			C26.54,31.07,26.49,31.05,26.45,31.04z M26.46,30.83c0.24,0,0.49,0,0.73,0c0.01-0.02,0.01-0.03,0.01-0.04c0-0.05,0-0.1,0-0.15
			c0-0.12-0.05-0.16-0.16-0.17c-0.09,0-0.18,0-0.27,0c-0.3,0-0.33,0.03-0.31,0.32C26.45,30.8,26.45,30.81,26.46,30.83z"/>
		<path class="st118" d="M15.31,7.67c0,0.31-0.25,0.56-0.58,0.56c-0.32,0-0.58-0.25-0.57-0.56c0-0.31,0.23-0.56,0.57-0.56
			C15.12,7.12,15.31,7.39,15.31,7.67z"/>
		<path class="st118" d="M15.33,17.62c0,0.32-0.25,0.56-0.58,0.56c-0.32,0-0.57-0.24-0.57-0.56c0-0.32,0.25-0.56,0.57-0.56
			C15.08,17.06,15.33,17.3,15.33,17.62z"/>
		<path class="st1" d="M28.98,30.23c0.01,0.02,0.01,0.03,0.01,0.04c0.02,0.2,0.02,0.2-0.19,0.2c-0.2,0-0.4,0-0.6,0
			c-0.14,0-0.2,0.08-0.16,0.2c0.01,0.03,0.06,0.05,0.09,0.06c0.26,0.06,0.52,0.13,0.78,0.18c0.11,0.02,0.15,0.07,0.14,0.17
			c-0.01,0.07,0,0.14,0,0.2c-0.01,0.22-0.14,0.36-0.36,0.38c-0.29,0.01-0.59,0-0.87,0c-0.01-0.01-0.01-0.02-0.01-0.02
			c-0.02-0.22-0.02-0.22,0.19-0.22c0.19,0,0.38,0,0.58,0c0.2,0,0.24-0.05,0.24-0.24c0-0.07-0.04-0.08-0.09-0.09
			c-0.26-0.06-0.52-0.12-0.78-0.19c-0.15-0.04-0.16-0.04-0.16-0.19c0-0.04,0-0.08,0-0.12c0-0.22,0.14-0.37,0.36-0.38
			C28.42,30.22,28.7,30.23,28.98,30.23z"/>
		<path class="st1" d="M23.71,30.25c0.04,0.23,0.04,0.23-0.18,0.23c-0.06,0-0.12,0-0.2,0c0,0.13,0,0.26,0,0.39c0,0.13,0,0.25,0,0.38
			c0,0.13,0.06,0.19,0.2,0.19c0.06,0,0.12,0,0.18,0c0.08-0.01,0.12,0.03,0.11,0.11c0,0.04,0,0.09,0,0.15c-0.15-0.01-0.3,0-0.43-0.03
			c-0.18-0.04-0.3-0.2-0.3-0.38c0-0.56,0-1.12,0-1.68c0-0.02,0-0.03,0-0.05c0.01-0.01,0.02-0.01,0.02-0.01
			c0.23-0.01,0.23-0.01,0.23,0.21c0,0.17,0,0.34,0,0.5C23.46,30.25,23.58,30.25,23.71,30.25z"/>
		<path class="st1" d="M24.57,30.24c0.02,0,0.03-0.01,0.03-0.01c0.23-0.01,0.23-0.01,0.32,0.2c0.11,0.27,0.22,0.54,0.32,0.8
			c0,0.01,0.01,0.01,0.02,0.03c0.02-0.06,0.04-0.11,0.06-0.15c0.1-0.26,0.21-0.51,0.31-0.77c0.03-0.09,0.08-0.13,0.17-0.11
			c0.05,0.01,0.09,0,0.16,0c-0.09,0.22-0.18,0.43-0.27,0.63c-0.1,0.24-0.21,0.48-0.31,0.72c-0.03,0.06-0.05,0.1-0.13,0.1
			c-0.08,0-0.1-0.04-0.12-0.1c-0.18-0.42-0.36-0.84-0.53-1.26C24.59,30.3,24.59,30.27,24.57,30.24z"/>
		<path class="st1" d="M22.69,31.67c-0.25,0.03-0.25,0.03-0.25-0.2c0-0.37,0-0.74,0-1.11c0-0.04,0-0.07,0-0.11c0.09,0,0.17,0,0.25,0
			C22.69,30.73,22.69,31.2,22.69,31.67z"/>
		<path class="st1" d="M24.33,31.67c-0.25,0.03-0.25,0.03-0.25-0.2c0-0.4,0-0.81,0-1.22c0.09,0,0.17,0,0.25,0
			C24.33,30.73,24.33,31.2,24.33,31.67z"/>
		<path class="st1" d="M24.08,29.6c0.08,0,0.16,0,0.24,0c0,0.09,0,0.17,0,0.25C24.08,29.91,24.05,29.87,24.08,29.6z"/>
		<path class="st1" d="M22.69,29.86c-0.27,0-0.26,0.07-0.24-0.26c0.08,0,0.15,0,0.24,0C22.69,29.69,22.69,29.77,22.69,29.86z"/>
		<path class="st117" d="M31.3,25.46c-1.4,0.03-2.6-1.16-2.59-2.52c0-1.36,1.2-2.52,2.61-2.52c1.38,0.01,2.59,1.15,2.58,2.54
			C33.88,24.3,32.69,25.48,31.3,25.46z"/>
		<path d="M18.46,30.84c-0.04,0-0.07,0-0.1,0c-0.28,0-0.56,0-0.85,0c0.1-0.29,0.2-0.57,0.3-0.85c0.01-0.04,0.03-0.08,0.04-0.12
			c0.02-0.07,0.06-0.09,0.13-0.1c0.08,0,0.1,0.04,0.12,0.1c0.1,0.29,0.21,0.59,0.32,0.88C18.44,30.77,18.45,30.8,18.46,30.84z"/>
		<path d="M20.24,31.44c-0.19,0-0.37,0-0.55,0c-0.1,0-0.15-0.07-0.16-0.16c0-0.21,0-0.42,0-0.63c0-0.1,0.07-0.16,0.17-0.17
			c0.13,0,0.25,0,0.38,0c0.09,0,0.15,0.05,0.16,0.13C20.24,30.88,20.24,31.15,20.24,31.44z"/>
		<path d="M21.81,31.43c-0.2,0-0.39,0.01-0.57,0c-0.09,0-0.13-0.07-0.13-0.16c0-0.21,0-0.42,0-0.63c0-0.1,0.07-0.16,0.17-0.16
			c0.12,0,0.24,0,0.37,0c0.1,0,0.17,0.06,0.17,0.16C21.81,30.89,21.81,31.16,21.81,31.43z"/>
		<path d="M15.31,31.44c-0.19,0-0.37,0-0.55,0c-0.1,0-0.15-0.07-0.16-0.16c0-0.21-0.01-0.43,0-0.64c0-0.09,0.06-0.15,0.16-0.16
			c0.13,0,0.27,0,0.4,0c0.09,0,0.14,0.06,0.15,0.13C15.32,30.88,15.31,31.15,15.31,31.44z"/>
		<path d="M12.13,30.83c-0.25,0-0.5,0-0.75,0c0-0.07,0-0.13,0-0.2c0.01-0.09,0.06-0.15,0.16-0.16c0.15,0,0.29,0,0.44,0
			c0.1,0,0.15,0.06,0.15,0.16C12.13,30.69,12.13,30.75,12.13,30.83z"/>
		<path d="M13.76,30.83c-0.25,0-0.49,0-0.75,0c0-0.08-0.01-0.15,0-0.22c0.01-0.08,0.06-0.13,0.14-0.14c0.16,0,0.31,0,0.47,0
			c0.08,0,0.12,0.05,0.13,0.12C13.77,30.67,13.76,30.74,13.76,30.83z"/>
		<path d="M26.46,30.83c-0.01-0.02-0.01-0.03-0.01-0.03c-0.02-0.29,0.01-0.32,0.31-0.32c0.09,0,0.18,0,0.27,0
			c0.12,0.01,0.16,0.05,0.16,0.17c0,0.05,0,0.1,0,0.15c0,0.01-0.01,0.02-0.01,0.04C26.94,30.83,26.7,30.83,26.46,30.83z"/>
	</g>
</g>
</svg>
