<?xml version="1.0" encoding="utf-8"?>
<!-- Generator: Adobe Illustrator 25.0.1, SVG Export Plug-In . SVG Version: 6.00 Build 0)  -->
<svg version="1.0" id="Layer_1" xmlns="http://www.w3.org/2000/svg" xmlns:xlink="http://www.w3.org/1999/xlink" x="0px" y="0px"
	 viewBox="0 0 37.65 36.8" style="enable-background:new 0 0 37.65 36.8;" xml:space="preserve">
<style type="text/css">
	.st0{fill:#000104;}
	.st1{fill:#FFFFFF;}
	.st2{fill:#EF493E;}
	.st3{opacity:0.6;fill-rule:evenodd;clip-rule:evenodd;fill:#FBBE43;}
	.st4{opacity:0.6;fill-rule:evenodd;clip-rule:evenodd;fill:#EF930E;}
	.st5{opacity:0.6;fill-rule:evenodd;clip-rule:evenodd;fill:#E67906;}
	.st6{fill:#9F8829;}
	.st7{fill:#3972A6;}
	.st8{fill:url(#SVGID_1_);stroke:#2B53A4;stroke-width:0.5;stroke-miterlimit:10;}
	.st9{fill:none;}
	.st10{fill:url(#SVGID_2_);}
	.st11{fill:url(#SVGID_3_);}
	.st12{fill:#B3B3B3;}
	.st13{fill:url(#SVGID_4_);}
	.st14{fill:url(#SVGID_5_);}
	.st15{fill:url(#SVGID_6_);}
	.st16{fill:#FFFFFF;stroke:#FFFFFF;stroke-width:0.25;stroke-miterlimit:10;}
	.st17{fill:#00001D;}
	.st18{fill:#4DA0C5;}
	.st19{fill:url(#SVGID_7_);}
	.st20{fill:#2E6A85;}
	.st21{fill:none;stroke:#144FA1;stroke-width:0.113;stroke-linejoin:round;stroke-miterlimit:10;}
	.st22{fill:#F27337;}
	.st23{fill:#8EB8D4;}
	.st24{fill:#F38056;}
	.st25{fill:#626365;}
	.st26{fill:#EF6D23;}
	.st27{fill:#284B82;}
	.st28{fill:#242956;}
	.st29{fill:#15142A;}
	.st30{fill:#84C343;}
	.st31{fill:#4CA1C6;}
	.st32{fill:#121617;}
	.st33{fill:#CF8966;}
	.st34{fill:#F37639;}
	.st35{opacity:0.3;fill:url(#SVGID_8_);}
	.st36{fill:#373277;}
	.st37{fill:#E61E25;}
	.st38{fill:#2555A5;}
	.st39{fill:#2E225E;}
	.st40{fill:#F8A425;}
	.st41{fill:#2058A7;}
	.st42{fill:none;stroke:#205AA8;stroke-width:0.156;stroke-miterlimit:10;}
	.st43{fill:#49A3C7;}
	.st44{fill-rule:evenodd;clip-rule:evenodd;}
	.st45{fill-rule:evenodd;clip-rule:evenodd;fill:url(#SVGID_9_);}
	.st46{fill-rule:evenodd;clip-rule:evenodd;fill:url(#SVGID_10_);}
	.st47{fill-rule:evenodd;clip-rule:evenodd;fill:url(#SVGID_11_);}
	.st48{fill:#1D2251;}
	.st49{fill:#2260AC;}
	.st50{fill:url(#SVGID_12_);}
	.st51{fill:#FFFFFC;}
	.st52{fill:#4C9FC5;}
	.st53{fill:#28306D;}
	.st54{fill:#4C9EC5;}
	.st55{fill:#28306E;}
	.st56{fill:#29306F;}
	.st57{fill:#F7F7FB;}
	.st58{fill:url(#SVGID_13_);}
	.st59{fill:url(#SVGID_14_);}
	.st60{fill:url(#SVGID_15_);}
	.st61{fill:url(#SVGID_16_);}
	.st62{fill:#10123C;}
	.st63{fill:#F5842C;}
	.st64{fill:#1F305E;}
	.st65{fill:#87BBD1;}
	.st66{fill:#203160;}
	.st67{fill:#235779;}
	.st68{fill:#359FA1;}
	.st69{fill:#A4D1A4;}
	.st70{fill:#B9DBBC;}
	.st71{fill:#C6DDCA;}
	.st72{fill:#662E14;}
	.st73{fill:#1D79A4;}
	.st74{fill:#C14B28;}
	.st75{fill:url(#SVGID_17_);}
	.st76{fill:url(#SVGID_18_);}
	.st77{fill:url(#SVGID_19_);}
	.st78{fill:url(#SVGID_20_);}
	.st79{fill:url(#SVGID_21_);}
	.st80{fill:url(#SVGID_22_);}
	.st81{fill:url(#SVGID_23_);}
	.st82{fill:url(#SVGID_24_);}
	.st83{fill:url(#SVGID_25_);}
	.st84{fill:url(#SVGID_26_);}
	.st85{fill:url(#SVGID_27_);}
	.st86{fill:url(#SVGID_28_);}
	.st87{fill:url(#SVGID_29_);}
	.st88{fill:url(#SVGID_30_);}
	.st89{fill:#1F164B;}
	.st90{clip-path:url(#SVGID_32_);fill:#253D97;}
	.st91{fill:url(#SVGID_33_);}
	.st92{fill:url(#SVGID_34_);}
	.st93{fill:url(#SVGID_35_);}
	.st94{fill:url(#SVGID_36_);}
	.st95{fill:url(#SVGID_37_);}
	.st96{fill:url(#SVGID_38_);}
	.st97{fill:url(#SVGID_39_);}
	.st98{fill:url(#SVGID_40_);}
	.st99{fill:url(#SVGID_41_);}
	.st100{fill:#443F41;}
	.st101{fill:#28306F;}
	.st102{fill:#71C49D;}
	.st103{fill:#F0C6A7;}
	.st104{fill:#DB8D82;}
	.st105{fill:#EFB7AC;}
	.st106{opacity:0.21;}
	.st107{fill-rule:evenodd;clip-rule:evenodd;fill:#A9196E;}
	.st108{fill-rule:evenodd;clip-rule:evenodd;fill:#FBE42C;}
	.st109{fill:#FBE42C;}
	.st110{fill:#A9196E;}
	.st111{fill:#7FC143;}
	.st112{clip-path:url(#SVGID_45_);fill:#7FC143;}
	.st113{clip-path:url(#SVGID_51_);fill:#7FC143;}
	.st114{fill:#243F8F;}
	.st115{fill:#EF4E2F;}
	.st116{fill:#010007;}
	.st117{fill:#0C0D37;}
	.st118{fill:#FBAF2D;}
	.st119{fill:url(#SVGID_54_);}
	.st120{fill-rule:evenodd;clip-rule:evenodd;fill:#FFFFFF;}
	.st121{fill:#1D4690;}
	.st122{fill:#3AA949;}
	.st123{fill:#F37A24;}
	.st124{fill:none;stroke:#F37A24;stroke-width:3.7145;stroke-miterlimit:10;}
	.st125{fill:#3AA949;stroke:#FFFFFF;stroke-width:1.3104;stroke-miterlimit:10;}
	.st126{fill:#46A2BB;}
	.st127{fill:#7153A0;}
	.st128{fill:#27316C;}
	.st129{fill:#2C65AE;}
	.st130{fill:#452D7A;}
	.st131{fill:#442C7A;}
	.st132{fill:#1A2642;}
	.st133{fill-rule:evenodd;clip-rule:evenodd;fill:#567EB8;}
	.st134{fill-rule:evenodd;clip-rule:evenodd;fill:#6A7EB8;}
	.st135{fill-rule:evenodd;clip-rule:evenodd;fill:#6A7EB9;}
	.st136{fill-rule:evenodd;clip-rule:evenodd;fill:#EE3C2D;}
	.st137{fill-rule:evenodd;clip-rule:evenodd;fill:#EF493F;}
	.st138{fill-rule:evenodd;clip-rule:evenodd;fill:#ED2C24;}
	.st139{fill-rule:evenodd;clip-rule:evenodd;fill:#E9AE28;}
	.st140{fill-rule:evenodd;clip-rule:evenodd;fill:#D69B28;}
	.st141{fill-rule:evenodd;clip-rule:evenodd;fill:#FCB729;}
	.st142{fill-rule:evenodd;clip-rule:evenodd;fill:#409E47;}
	.st143{fill-rule:evenodd;clip-rule:evenodd;fill:#4BB450;}
	.st144{fill-rule:evenodd;clip-rule:evenodd;fill:#338440;}
	.st145{fill:#C09C36;}
	.st146{fill:#1E552A;}
	.st147{clip-path:url(#SVGID_56_);fill:url(#SVGID_57_);}
	.st148{fill:#023A1E;}
	.st149{fill:#FFFFFA;}
	.st150{fill:#0D4F28;}
	.st151{fill:#0E5128;}
	.st152{fill:#0D4E27;}
	.st153{fill:#0E5229;}
	.st154{fill:#0E4823;}
	.st155{fill:#0E4C27;}
	.st156{fill:#F3F6E0;}
	.st157{fill:#0E4F28;}
	.st158{fill:#114823;}
	.st159{fill:#105229;}
	.st160{fill:#0A4A2B;}
	.st161{fill:#134F27;}
	.st162{fill:#165229;}
	.st163{fill:#0D5029;}
	.st164{fill:#0B4E2B;}
	.st165{fill:#105028;}
	.st166{fill:#0A492A;}
	.st167{fill:#E9F3E2;}
	.st168{fill:#144D26;}
	.st169{fill:#185C2F;}
	.st170{fill:#0F5028;}
	.st171{fill:#F3F8EA;}
	.st172{fill:#114D26;}
	.st173{fill:#70A685;}
	.st174{fill:#0D4F2A;}
	.st175{fill:#094A24;}
	.st176{fill:#0F4F27;}
	.st177{fill:#0A4C26;}
	.st178{fill:#A2D29A;}
	.st179{fill:#4D7E44;}
	.st180{fill:#E8F2E1;}
	.st181{fill:#EDF5E5;}
	.st182{fill:#E6F2E7;}
	.st183{fill:#E5F1DC;}
	.st184{fill:#E9F3E3;}
	.st185{fill:#E9F3E5;}
	.st186{fill:#E5F1DB;}
	.st187{fill:#D8ECD7;}
	.st188{fill:#D9EBD4;}
	.st189{fill:#E2F0DE;}
	.st190{fill:#366B4B;}
	.st191{fill:#5D6162;}
	.st192{fill:#212E5F;}
	.st193{fill:#DD1F26;}
	.st194{clip-path:url(#SVGID_59_);}
	.st195{fill:#23396F;}
	.st196{fill:#7FC24E;}
	.st197{clip-path:url(#SVGID_59_);fill:#23396F;}
	.st198{clip-path:url(#SVGID_59_);fill:#7FC24E;}
	.st199{fill:#91CEA4;}
	.st200{fill:#90CEA4;}
	.st201{fill:#C02026;}
	.st202{fill:#362E7E;}
</style>
<g>
	
		<radialGradient id="SVGID_1_" cx="-332.9298" cy="213.3267" r="27.4312" gradientTransform="matrix(4.276400e-11 -0.9273 0.9525 4.163300e-11 -184.371 -290.3286)" gradientUnits="userSpaceOnUse">
		<stop  offset="0" style="stop-color:#F06026"/>
		<stop  offset="0.551" style="stop-color:#EB2A24"/>
		<stop  offset="1" style="stop-color:#9C1C1F"/>
	</radialGradient>
	<path style="fill:url(#SVGID_1_);" d="M20.07,0.04c1.25,0.08,2.49,0.27,3.71,0.59c7.63,1.99,13.19,8.46,13.79,16.13
		c0.17,2.16,0.01,4.33,0,6.5c-0.01,2.9,0.06,5.8,0,8.71c-0.01,0.4,0.09,0.8,0,1.19c-0.52,2.25-2,3.41-4.64,3.58
		c-2.38,0.15-4.77,0-7.15,0c-2.62,0.01-5.23,0.1-7.85,0C14.04,36.58,9.79,35,6.81,32.6c-3.26-2.63-5.69-6.35-6.43-10.44
		c-0.4-2.23-0.57-5.01-0.09-7.24C1.47,9.43,4.96,4.6,10.13,2c1.34-0.67,2.82-1.18,4.29-1.51C16.28,0.07,18.18-0.08,20.07,0.04z"/>
	<g>
		<path class="st1" d="M3.24,18.29v-1.01h3.68c1.3,0,1.96,0.63,1.96,1.9v2.8c0,1.27-0.65,1.9-1.96,1.9h-2.3
			c-1.3,0-1.96-0.63-1.96-1.9v-0.02c0-1.25,0.65-1.88,1.96-1.88h2.53v1.01H4.62c-0.61,0-0.92,0.29-0.92,0.87v0.02
			c0,0.6,0.31,0.9,0.92,0.9h2.3c0.61,0,0.92-0.3,0.92-0.9v-2.8c0-0.6-0.31-0.9-0.92-0.9H3.24z"/>
		<path class="st1" d="M15.09,22.88v1.01h-3.1c-1.3,0-1.95-0.63-1.95-1.9v-2.8c0-1.27,0.65-1.9,1.95-1.9h3.1v1.01h-3.1
			c-0.61,0-0.92,0.3-0.92,0.9v2.8c0,0.6,0.31,0.9,0.92,0.9H15.09z"/>
		<path class="st1" d="M15.66,17.28h0.58v-2.8h0.95v2.8h1.23v1.01h-1.23v5.6h-0.95v-5.6h-0.58V17.28z"/>
		<path class="st1" d="M19.22,14.48h1.38v1.37h-1.38V14.48z M19.41,17.28h1.03v6.6h-1.03V17.28z"/>
		<path class="st1" d="M25.16,23.89h-0.93l-2.99-6.6h1.12l2.35,5.27l2.33-5.27h1.13L25.16,23.89z"/>
		<path class="st1" d="M34.42,22.88v1.01h-3.68c-1.3,0-1.95-0.63-1.95-1.9v-2.8c0-1.27,0.65-1.9,1.95-1.9h2.3
			c1.3,0,1.95,0.63,1.95,1.9v0.02c0,1.25-0.65,1.88-1.95,1.88h-2.53v-1.01h2.53c0.61,0,0.92-0.29,0.92-0.87v-0.02
			c0-0.6-0.31-0.9-0.92-0.9h-2.3c-0.61,0-0.92,0.3-0.92,0.9v2.8c0,0.6,0.31,0.9,0.92,0.9H34.42z"/>
	</g>
	<g>
		<g>
			<path class="st1" d="M17.7,29.45v-4.1h1.77c0.47,0,0.8,0.07,0.98,0.2c0.18,0.14,0.27,0.38,0.27,0.73v0.62
				c0,0.36-0.09,0.61-0.26,0.75c-0.18,0.14-0.5,0.21-0.98,0.21h-1.31v1.59H17.7z M20.23,26.91v-0.6c0-0.2-0.05-0.33-0.14-0.41
				c-0.1-0.07-0.3-0.11-0.62-0.11h-1.3v1.64h1.3c0.31,0,0.52-0.04,0.62-0.11C20.18,27.24,20.23,27.11,20.23,26.91z"/>
			<path class="st1" d="M21.44,29.45v-4.1h0.42v1.6c0.07-0.15,0.19-0.26,0.35-0.33c0.16-0.07,0.37-0.11,0.63-0.11
				c0.39,0,0.66,0.08,0.82,0.23c0.16,0.15,0.24,0.42,0.24,0.81v1.9h-0.44v-1.81c0-0.3-0.05-0.5-0.14-0.6
				c-0.09-0.1-0.27-0.14-0.53-0.14c-0.31,0-0.54,0.07-0.68,0.21c-0.14,0.14-0.22,0.36-0.22,0.66v1.69H21.44z"/>
			<path class="st1" d="M26.75,29.15c-0.07,0.12-0.18,0.21-0.32,0.26c-0.15,0.05-0.35,0.08-0.62,0.08c-0.47,0-0.78-0.06-0.94-0.19
				c-0.16-0.13-0.24-0.37-0.24-0.72c0-0.2,0.02-0.36,0.06-0.48c0.04-0.12,0.1-0.21,0.18-0.28c0.07-0.06,0.18-0.1,0.32-0.13
				c0.14-0.02,0.34-0.04,0.6-0.04c0.27,0,0.48,0.02,0.62,0.06c0.14,0.04,0.25,0.12,0.32,0.22v-0.5c0-0.24-0.05-0.39-0.14-0.46
				c-0.1-0.07-0.33-0.1-0.71-0.1c-0.27,0-0.46,0.03-0.55,0.08c-0.09,0.06-0.14,0.16-0.14,0.32h-0.44V27.2
				c0-0.25,0.08-0.43,0.25-0.53c0.16-0.11,0.45-0.16,0.85-0.16c0.32,0,0.55,0.01,0.72,0.04c0.16,0.03,0.29,0.07,0.37,0.12
				c0.09,0.07,0.15,0.15,0.18,0.24c0.04,0.1,0.05,0.26,0.05,0.5v2.03h-0.4L26.75,29.15z M26.72,28.72v-0.31
				c0-0.14-0.07-0.24-0.22-0.3c-0.14-0.06-0.37-0.1-0.69-0.1c-0.29,0-0.48,0.04-0.58,0.11c-0.1,0.07-0.15,0.21-0.15,0.41
				c0,0.23,0.05,0.38,0.15,0.46c0.1,0.08,0.31,0.11,0.62,0.11c0.28,0,0.49-0.03,0.64-0.1C26.65,28.93,26.72,28.84,26.72,28.72z"/>
			<path class="st1" d="M28.04,29.45v-2.9h0.43v0.4c0.06-0.15,0.16-0.26,0.29-0.33c0.13-0.07,0.31-0.11,0.53-0.11
				c0.32,0,0.55,0.08,0.68,0.23c0.13,0.15,0.2,0.42,0.2,0.81v0.02h-0.44v-0.08c0-0.23-0.04-0.39-0.11-0.47
				c-0.07-0.08-0.22-0.12-0.43-0.12c-0.25,0-0.42,0.07-0.53,0.2c-0.11,0.13-0.16,0.36-0.16,0.66v1.69H28.04z"/>
			<path class="st1" d="M30.82,29.45v-2.9h0.43v0.4c0.06-0.15,0.17-0.26,0.31-0.33c0.15-0.07,0.34-0.11,0.58-0.11
				c0.25,0,0.45,0.04,0.59,0.11c0.14,0.07,0.25,0.2,0.32,0.37c0.09-0.17,0.2-0.29,0.34-0.37c0.14-0.07,0.33-0.11,0.56-0.11
				c0.39,0,0.66,0.08,0.81,0.23c0.15,0.15,0.23,0.42,0.23,0.81v1.9h-0.44v-1.76c0-0.32-0.04-0.54-0.13-0.64s-0.25-0.15-0.5-0.15
				c-0.27,0-0.48,0.07-0.6,0.2c-0.13,0.14-0.19,0.36-0.19,0.66v1.69h-0.43v-1.96c0-0.23-0.04-0.39-0.13-0.47
				c-0.08-0.08-0.25-0.12-0.49-0.12c-0.28,0-0.49,0.07-0.62,0.21c-0.13,0.14-0.2,0.36-0.2,0.66v1.69H30.82z"/>
		</g>
	</g>
	<g>
		<path class="st120" d="M14.22,9.33c1.86-3.72,4.54-4.89,8.7-5.01c2.19-0.06,1.71-2.27-0.37-2.09C18.13,2.61,15.55,5.31,14.22,9.33
			z"/>
		<path class="st120" d="M13.7,11.97c-0.72-3.67,0.57-5.92,3.52-8.19c1.55-1.19-0.02-2.54-1.43-1.31
			C12.81,5.06,12.44,8.37,13.7,11.97z"/>
		<path class="st120" d="M15.15,14.06c-2.72-2.08-3.2-4.36-2.58-7.6c0.33-1.7-1.56-1.72-1.77-0.07
			C10.34,9.87,12.1,12.33,15.15,14.06z"/>
		<path class="st120" d="M17.03,14.49c-3.12,0.17-4.84-1.09-6.4-3.65c-0.82-1.35-2.1-0.26-1.24,0.98
			C11.21,14.44,13.91,15.09,17.03,14.49z"/>
		<path class="st120" d="M15.59,8.06c4.04-2.36,7.25-1.87,11.19,0.47c2.07,1.23,3-1.1,0.95-2.16C23.4,4.13,19.32,5.11,15.59,8.06z"
			/>
	</g>
</g>
</svg>
