<?xml version="1.0" encoding="utf-8"?>
<!-- Generator: Adobe Illustrator 25.0.1, SVG Export Plug-In . SVG Version: 6.00 Build 0)  -->
<svg version="1.0" id="Layer_1" xmlns="http://www.w3.org/2000/svg" xmlns:xlink="http://www.w3.org/1999/xlink" x="0px" y="0px"
	 viewBox="0 0 73.71 12.27" style="enable-background:new 0 0 73.71 12.27;" xml:space="preserve">
<style type="text/css">
	.st0{fill:#000104;}
	.st1{fill:#FFFFFF;}
	.st2{fill:#EF493E;}
	.st3{opacity:0.6;fill-rule:evenodd;clip-rule:evenodd;fill:#FBBE43;}
	.st4{opacity:0.6;fill-rule:evenodd;clip-rule:evenodd;fill:#EF930E;}
	.st5{opacity:0.6;fill-rule:evenodd;clip-rule:evenodd;fill:#E67906;}
	.st6{fill:#9F8829;}
	.st7{fill:#3972A6;}
	.st8{fill:url(#SVGID_1_);stroke:#2B53A4;stroke-width:0.5;stroke-miterlimit:10;}
	.st9{fill:none;}
	.st10{fill:url(#SVGID_2_);}
	.st11{fill:url(#SVGID_3_);}
	.st12{fill:#B3B3B3;}
	.st13{fill:url(#SVGID_4_);}
	.st14{fill:url(#SVGID_5_);}
	.st15{fill:url(#SVGID_6_);}
	.st16{fill:#FFFFFF;stroke:#FFFFFF;stroke-width:0.25;stroke-miterlimit:10;}
	.st17{fill:#00001D;}
	.st18{fill:#4DA0C5;}
	.st19{fill:url(#SVGID_7_);}
	.st20{fill:#2E6A85;}
	.st21{fill:none;stroke:#144FA1;stroke-width:0.113;stroke-linejoin:round;stroke-miterlimit:10;}
	.st22{fill:#F27337;}
	.st23{fill:#8EB8D4;}
	.st24{fill:#F38056;}
	.st25{fill:#626365;}
	.st26{fill:#EF6D23;}
	.st27{fill:#284B82;}
	.st28{fill:#242956;}
	.st29{fill:#15142A;}
	.st30{fill:#84C343;}
	.st31{fill:#4CA1C6;}
	.st32{fill:#121617;}
	.st33{fill:#CF8966;}
	.st34{fill:#F37639;}
	.st35{opacity:0.3;fill:url(#SVGID_8_);}
	.st36{fill:#373277;}
	.st37{fill:#E61E25;}
	.st38{fill:#2555A5;}
	.st39{fill:#2E225E;}
	.st40{fill:#F8A425;}
	.st41{fill:#2058A7;}
	.st42{fill:none;stroke:#205AA8;stroke-width:0.156;stroke-miterlimit:10;}
	.st43{fill:#49A3C7;}
	.st44{fill-rule:evenodd;clip-rule:evenodd;}
	.st45{fill-rule:evenodd;clip-rule:evenodd;fill:url(#SVGID_9_);}
	.st46{fill-rule:evenodd;clip-rule:evenodd;fill:url(#SVGID_10_);}
	.st47{fill-rule:evenodd;clip-rule:evenodd;fill:url(#SVGID_11_);}
	.st48{fill:#1D2251;}
	.st49{fill:#2260AC;}
	.st50{fill:url(#SVGID_12_);}
	.st51{fill:#FFFFFC;}
	.st52{fill:#4C9FC5;}
	.st53{fill:#28306D;}
	.st54{fill:#4C9EC5;}
	.st55{fill:#28306E;}
	.st56{fill:#29306F;}
	.st57{fill:#F7F7FB;}
	.st58{fill:url(#SVGID_13_);}
	.st59{fill:url(#SVGID_14_);}
	.st60{fill:url(#SVGID_15_);}
	.st61{fill:url(#SVGID_16_);}
	.st62{fill:#10123C;}
	.st63{fill:#F5842C;}
	.st64{fill:#1F305E;}
	.st65{fill:#87BBD1;}
	.st66{fill:#203160;}
	.st67{fill:#235779;}
	.st68{fill:#359FA1;}
	.st69{fill:#A4D1A4;}
	.st70{fill:#B9DBBC;}
	.st71{fill:#C6DDCA;}
	.st72{fill:#662E14;}
	.st73{fill:#1D79A4;}
	.st74{fill:#C14B28;}
	.st75{fill:url(#SVGID_17_);}
	.st76{fill:url(#SVGID_18_);}
	.st77{fill:url(#SVGID_19_);}
	.st78{fill:url(#SVGID_20_);}
	.st79{fill:url(#SVGID_21_);}
	.st80{fill:url(#SVGID_22_);}
	.st81{fill:url(#SVGID_23_);}
	.st82{fill:url(#SVGID_24_);}
	.st83{fill:url(#SVGID_25_);}
	.st84{fill:url(#SVGID_26_);}
	.st85{fill:url(#SVGID_27_);}
	.st86{fill:url(#SVGID_28_);}
	.st87{fill:url(#SVGID_29_);}
	.st88{fill:url(#SVGID_30_);}
	.st89{fill:#1F164B;}
	.st90{clip-path:url(#SVGID_32_);fill:#253D97;}
	.st91{fill:url(#SVGID_33_);}
	.st92{fill:url(#SVGID_34_);}
	.st93{fill:url(#SVGID_35_);}
	.st94{fill:url(#SVGID_36_);}
	.st95{fill:url(#SVGID_37_);}
	.st96{fill:url(#SVGID_38_);}
	.st97{fill:url(#SVGID_39_);}
	.st98{fill:url(#SVGID_40_);}
	.st99{fill:url(#SVGID_41_);}
	.st100{fill:#443F41;}
	.st101{fill:#28306F;}
	.st102{fill:#71C49D;}
	.st103{fill:#F0C6A7;}
	.st104{fill:#DB8D82;}
	.st105{fill:#EFB7AC;}
	.st106{opacity:0.21;}
	.st107{fill-rule:evenodd;clip-rule:evenodd;fill:#A9196E;}
	.st108{fill-rule:evenodd;clip-rule:evenodd;fill:#FBE42C;}
	.st109{fill:#FBE42C;}
	.st110{fill:#A9196E;}
	.st111{fill:#7FC143;}
	.st112{clip-path:url(#SVGID_45_);fill:#7FC143;}
	.st113{clip-path:url(#SVGID_51_);fill:#7FC143;}
	.st114{fill:#243F8F;}
	.st115{fill:#EF4E2F;}
	.st116{fill:#010007;}
	.st117{fill:#0C0D37;}
	.st118{fill:#FBAF2D;}
	.st119{fill:url(#SVGID_54_);}
	.st120{fill-rule:evenodd;clip-rule:evenodd;fill:#FFFFFF;}
	.st121{fill:#1D4690;}
	.st122{fill:#3AA949;}
	.st123{fill:#F37A24;}
	.st124{fill:none;stroke:#F37A24;stroke-width:3.7145;stroke-miterlimit:10;}
	.st125{fill:#3AA949;stroke:#FFFFFF;stroke-width:1.3104;stroke-miterlimit:10;}
	.st126{fill:#46A2BB;}
	.st127{fill:#7153A0;}
	.st128{fill:#27316C;}
	.st129{fill:#2C65AE;}
	.st130{fill:#452D7A;}
	.st131{fill:#442C7A;}
	.st132{fill:#1A2642;}
	.st133{fill-rule:evenodd;clip-rule:evenodd;fill:#567EB8;}
	.st134{fill-rule:evenodd;clip-rule:evenodd;fill:#6A7EB8;}
	.st135{fill-rule:evenodd;clip-rule:evenodd;fill:#6A7EB9;}
	.st136{fill-rule:evenodd;clip-rule:evenodd;fill:#EE3C2D;}
	.st137{fill-rule:evenodd;clip-rule:evenodd;fill:#EF493F;}
	.st138{fill-rule:evenodd;clip-rule:evenodd;fill:#ED2C24;}
	.st139{fill-rule:evenodd;clip-rule:evenodd;fill:#E9AE28;}
	.st140{fill-rule:evenodd;clip-rule:evenodd;fill:#D69B28;}
	.st141{fill-rule:evenodd;clip-rule:evenodd;fill:#FCB729;}
	.st142{fill-rule:evenodd;clip-rule:evenodd;fill:#409E47;}
	.st143{fill-rule:evenodd;clip-rule:evenodd;fill:#4BB450;}
	.st144{fill-rule:evenodd;clip-rule:evenodd;fill:#338440;}
	.st145{fill:#C09C36;}
	.st146{fill:#1E552A;}
	.st147{clip-path:url(#SVGID_56_);fill:url(#SVGID_57_);}
	.st148{fill:#023A1E;}
	.st149{fill:#FFFFFA;}
	.st150{fill:#0D4F28;}
	.st151{fill:#0E5128;}
	.st152{fill:#0D4E27;}
	.st153{fill:#0E5229;}
	.st154{fill:#0E4823;}
	.st155{fill:#0E4C27;}
	.st156{fill:#F3F6E0;}
	.st157{fill:#0E4F28;}
	.st158{fill:#114823;}
	.st159{fill:#105229;}
	.st160{fill:#0A4A2B;}
	.st161{fill:#134F27;}
	.st162{fill:#165229;}
	.st163{fill:#0D5029;}
	.st164{fill:#0B4E2B;}
	.st165{fill:#105028;}
	.st166{fill:#0A492A;}
	.st167{fill:#E9F3E2;}
	.st168{fill:#144D26;}
	.st169{fill:#185C2F;}
	.st170{fill:#0F5028;}
	.st171{fill:#F3F8EA;}
	.st172{fill:#114D26;}
	.st173{fill:#70A685;}
	.st174{fill:#0D4F2A;}
	.st175{fill:#094A24;}
	.st176{fill:#0F4F27;}
	.st177{fill:#0A4C26;}
	.st178{fill:#A2D29A;}
	.st179{fill:#4D7E44;}
	.st180{fill:#E8F2E1;}
	.st181{fill:#EDF5E5;}
	.st182{fill:#E6F2E7;}
	.st183{fill:#E5F1DC;}
	.st184{fill:#E9F3E3;}
	.st185{fill:#E9F3E5;}
	.st186{fill:#E5F1DB;}
	.st187{fill:#D8ECD7;}
	.st188{fill:#D9EBD4;}
	.st189{fill:#E2F0DE;}
	.st190{fill:#366B4B;}
	.st191{fill:#5D6162;}
	.st192{fill:#212E5F;}
	.st193{fill:#DD1F26;}
	.st194{clip-path:url(#SVGID_59_);}
	.st195{fill:#23396F;}
	.st196{fill:#7FC24E;}
	.st197{clip-path:url(#SVGID_59_);fill:#23396F;}
	.st198{clip-path:url(#SVGID_59_);fill:#7FC24E;}
	.st199{fill:#91CEA4;}
	.st200{fill:#90CEA4;}
	.st201{fill:#C02026;}
	.st202{fill:#362E7E;}
</style>
<g>
	<polygon points="3.01,0.01 6.28,0.01 5.12,3.38 11.08,0.01 13.77,0.01 9.16,2.82 12.33,7.4 8.97,7.4 6.85,4.04 4.74,5.35 4.36,7.5 
		1.09,7.5 	"/>
	<path d="M21.46,1.81l-5.48,0c-0.87,0-2.16,0.24-2.57,1.9c-0.41,1.66-1.25,3.8,0.87,3.8l6.85,0c0.5,0,0.95-0.81,0.95-1.09
		c0-0.28-0.12,0.12-0.83,0.12c-0.71,0-5.64,0-5.64,0L15.6,5.35l6.73,0c0,0,0.42-1.07,0.54-1.6C23,3.22,23.41,1.81,21.46,1.81z
		 M20.42,3.58c-0.25,0.56-0.12,0.73-1.78,0.73c-1.66,0-3.03,0.08-2.7-0.69c0.33-0.77,0.37-0.81,2.24-0.81c0,0,1.04,0,1.49,0
		C20.13,2.82,20.67,3.02,20.42,3.58z"/>
	<path d="M31.75,1.81l-5.48,0c-0.87,0-2.16,0.24-2.57,1.9c-0.42,1.66-1.25,3.8,0.87,3.8l6.85,0c0.5,0,0.95-0.81,0.95-1.09
		c0-0.28-0.12,0.12-0.83,0.12c-0.7,0-5.64,0-5.64,0l-0.01-1.19l6.73,0c0,0,0.42-1.07,0.54-1.6C33.29,3.22,33.7,1.81,31.75,1.81z
		 M30.71,3.58c-0.25,0.56-0.12,0.73-1.78,0.73c-1.66,0-3.03,0.08-2.7-0.69c0.33-0.77,0.37-0.81,2.24-0.81c0,0,1.04,0,1.49,0
		C30.42,2.82,30.96,3.02,30.71,3.58z"/>
	<path d="M41.84,2.09l-4.2,0c-0.44,0-0.37,0.21-0.37,0.21l-0.5,0.03l-0.07-0.2l-2.16,0l-2.41,9.54l2.45-0.02
		c0,0,0.91-3.43,1.16-4.16c0.25-0.73,0.72-0.49,0.72-0.33c0,0.15,0.06,0.12,0.47,0.12c0.4,0,1.9,0.06,3.52,0.06
		c1.62,0,2.24-0.73,2.4-1.21c0.16-0.49,0.44-1.33,0.62-2.64C43.64,2.18,42.49,2.09,41.84,2.09z M41.11,3.83
		c-0.21,0.87-0.44,1.92-0.52,2.16c-0.08,0.24-0.14,0.55-0.75,0.55c-0.6,0-2.59-0.02-2.9-0.02c-0.31,0-1.04,0.18-0.81-0.81
		c0.23-0.99,0.43-1.52,0.52-1.92c0.08-0.4,0.31-0.75,1.43-0.75c1.12,0,1.12-0.02,1.12-0.02l1.49,0C40.92,3.02,41.32,2.96,41.11,3.83
		z"/>
	<path d="M41.35,7.83l-2.47,0c-0.26,0-0.22,0.1-0.22,0.1l-0.29,0.01l-0.04-0.09l-1.27,0l-1.42,4.43l1.44-0.01
		c0,0,0.54-1.59,0.68-1.93c0.15-0.34,0.42-0.22,0.42-0.15c0,0.07,0.04,0.06,0.28,0.06s1.12,0.03,2.07,0.03
		c0.95,0,1.32-0.34,1.41-0.56c0.09-0.23,0.26-0.62,0.37-1.22C42.41,7.87,41.73,7.83,41.35,7.83z M40.92,8.63
		c-0.12,0.4-0.26,0.89-0.31,1c-0.05,0.11-0.08,0.25-0.44,0.25c-0.35,0-1.53-0.01-1.71-0.01c-0.18,0-0.61,0.08-0.48-0.38
		c0.14-0.46,0.26-0.7,0.31-0.89c0.05-0.19,0.18-0.35,0.84-0.35c0.66,0,0.66-0.01,0.66-0.01h0.88C40.81,8.26,41.04,8.23,40.92,8.63z"
		/>
	<path d="M51.52,1.79c-0.81,0-6.38,0.03-6.38,0.03l-0.65,0.94c0,0,4.39,0.06,5.42,0.06c1.03,0,1.15-0.03,1.18,0.3
		c0.03,0.33-0.4,0.39-1.06,0.39l-3.89,0c-1.71,0-2.24,1.03-2.62,2.33s0.97,1.49,1.59,1.49l3.77,0c1.62,0,1.91-0.43,1.91-0.43
		L50.68,7.3l1.93,0c0,0,0.69-2.55,1.06-3.88S52.33,1.79,51.52,1.79z M50.72,5c-0.14,0.46-0.31,1.52-1.04,1.52l-2.88,0
		c-0.35,0-0.79-0.28-0.6-0.99c0.19-0.71,0.19-1.01,0.77-1.01c0.58,0,1.66,0,1.66,0l1.54,0C50.41,4.51,50.86,4.53,50.72,5z"/>
	<path d="M54.83,8.94c-0.45,0-3.55,0.02-3.55,0.02l-0.36,0.52c0,0,2.44,0.03,3.01,0.03c0.57,0,0.64-0.02,0.66,0.17
		C54.6,9.87,54.36,9.9,54,9.9l-2.16,0c-0.95,0-1.25,0.57-1.46,1.3c-0.21,0.73,0.54,0.83,0.88,0.83l2.09,0c0.9,0,1.07-0.24,1.07-0.24
		l-0.06,0.22h1.08c0,0,0.38-1.42,0.59-2.16C56.23,9.11,55.28,8.94,54.83,8.94z M54.38,10.72c-0.08,0.26-0.17,0.84-0.58,0.84l-1.6,0
		c-0.2,0-0.44-0.16-0.33-0.55c0.1-0.39,0.1-0.56,0.43-0.56c0.32,0,0.92,0,0.92,0l0.85,0C54.21,10.45,54.47,10.47,54.38,10.72z"/>
	<path d="M60.57,2.79c0.47,0,1.66,0,1.88,0c0.22,0,0.31,0.04,0.31,0.18c0,0.14,0.38,0.21,0.38-0.19c0-0.4,0.14-0.88-0.9-0.88
		c-1.05,0-4.62,0-5.25,0c-0.63,0-2.04,0.09-2.4,1.56c-0.36,1.47-1.7,4.02,0.88,4.02c2.58,0,5.27,0,5.72,0c0.45,0,0.79-0.1,0.9-0.54
		c0.11-0.44,0.05-0.97-0.27-0.63c-0.32,0.33-0.47,0.26-0.96,0.26c-0.49,0-3.46,0-3.9,0c-0.43,0-0.79-0.04-0.52-1.09
		c0.27-1.05,0.63-2.04,0.67-2.18c0.04-0.14,0.05-0.49,0.87-0.49C58.78,2.81,60.57,2.79,60.57,2.79z"/>
	<path d="M71.03,1.81l-2.4,0c0,0-0.97,0.02-1.82,0.04c-0.85,0.02-2.6-0.3-3.55,2.65c-1.05,3.23,1.28,3,1.28,3s0,0,3.9,0
		c3.9,0,3.81-0.9,4.57-3.27C73.76,1.86,71.52,1.81,71.03,1.81z M70.58,3.67c-0.25,0.81-0.72,2.28-0.76,2.41
		C69.79,6.2,69.77,6.57,69,6.55c-0.78-0.02-2.58,0-2.9,0c-0.32,0-0.88,0.09-0.58-0.98c0.31-1.07,0.6-2.11,0.69-2.3
		c0.09-0.19,0.07-0.46,1.08-0.46c1.01,0,1.28,0,1.28,0l1.64,0C70.46,2.81,70.84,2.86,70.58,3.67z"/>
	<polygon points="73.71,0 73.15,0.61 15.07,0.61 15.88,0.03 	"/>
	<polygon points="31.5,8.3 30.94,8.91 0.75,8.91 1.56,8.33 	"/>
	<polygon points="31,9.7 30.44,10.3 0.25,10.3 1.06,9.73 	"/>
	<polygon points="30.76,11.15 30.2,11.76 0,11.76 0.81,11.18 	"/>
	<path d="M44.46,8.01l-1,3.96h1.06c0,0,0.59-1.95,0.67-2.24c0.07-0.29,0.22-0.4,0.82-0.4c0.6,0,1.8-0.14,1.71,0.45
		c-0.09,0.6-0.5,2.19-0.5,2.19h1c0,0,1.41-2.99-0.04-2.99c-1.45,0-2.86-0.09-2.98,0.14l0.21-1.12L44.46,8.01z"/>
	<path d="M57.56,11.97L58.21,9c0,0,2.02-0.03,2.4-0.03c0.37,0,0.72,0.09,0.84,0.39c0.12,0.3-0.25,0.15-0.75,0.09
		c-0.5-0.06-1.37-0.18-1.53,0.36c-0.16,0.55-0.65,2.12-0.65,2.12L57.56,11.97z"/>
	<path d="M63.22,8.97l-0.78,2.91h1.21c0,0,0.34-1.7,0.42-2c0.08-0.3,0.23-0.39,0.92-0.39c0.68,0,1.64-0.08,1.53,0.38
		c-0.11,0.45-0.47,2.06-0.47,2.06h1.07c0,0,0.45-1.62,0.54-1.94c0.09-0.32,0.22-0.5,0.92-0.5c0.7,0,1.35-0.08,1.32,0.26
		c-0.03,0.33-0.53,2.21-0.53,2.21h1.25c0,0,0.41-1.27,0.48-1.61c0.08-0.33,0.59-1.36-0.73-1.36C69.06,8.98,63.22,8.97,63.22,8.97z"
		/>
</g>
</svg>
