<?xml version="1.0" encoding="utf-8"?>
<!-- Generator: Adobe Illustrator 25.0.1, SVG Export Plug-In . SVG Version: 6.00 Build 0)  -->
<svg version="1.0" id="Layer_1" xmlns="http://www.w3.org/2000/svg" xmlns:xlink="http://www.w3.org/1999/xlink" x="0px" y="0px"
	 viewBox="0 0 77.03 33.54" style="enable-background:new 0 0 77.03 33.54;" xml:space="preserve">
<style type="text/css">
	.st0{fill:#000104;}
	.st1{fill:#FFFFFF;}
	.st2{fill:#EF493E;}
	.st3{opacity:0.6;fill-rule:evenodd;clip-rule:evenodd;fill:#FBBE43;}
	.st4{opacity:0.6;fill-rule:evenodd;clip-rule:evenodd;fill:#EF930E;}
	.st5{opacity:0.6;fill-rule:evenodd;clip-rule:evenodd;fill:#E67906;}
	.st6{fill:#9F8829;}
	.st7{fill:#3972A6;}
	.st8{fill:url(#SVGID_1_);stroke:#2B53A4;stroke-width:0.5;stroke-miterlimit:10;}
	.st9{fill:none;}
	.st10{fill:url(#SVGID_2_);}
	.st11{fill:url(#SVGID_3_);}
	.st12{fill:#B3B3B3;}
	.st13{fill:url(#SVGID_4_);}
	.st14{fill:url(#SVGID_5_);}
	.st15{fill:url(#SVGID_6_);}
	.st16{fill:#FFFFFF;stroke:#FFFFFF;stroke-width:0.25;stroke-miterlimit:10;}
	.st17{fill:#00001D;}
	.st18{fill:#4DA0C5;}
	.st19{fill:url(#SVGID_7_);}
	.st20{fill:#2E6A85;}
	.st21{fill:none;stroke:#144FA1;stroke-width:0.113;stroke-linejoin:round;stroke-miterlimit:10;}
	.st22{fill:#F27337;}
	.st23{fill:#8EB8D4;}
	.st24{fill:#F38056;}
	.st25{fill:#626365;}
	.st26{fill:#EF6D23;}
	.st27{fill:#284B82;}
	.st28{fill:#242956;}
	.st29{fill:#15142A;}
	.st30{fill:#84C343;}
	.st31{fill:#4CA1C6;}
	.st32{fill:#121617;}
	.st33{fill:#CF8966;}
	.st34{fill:#F37639;}
	.st35{opacity:0.3;fill:url(#SVGID_8_);}
	.st36{fill:#373277;}
	.st37{fill:#E61E25;}
	.st38{fill:#2555A5;}
	.st39{fill:#2E225E;}
	.st40{fill:#F8A425;}
	.st41{fill:#2058A7;}
	.st42{fill:none;stroke:#205AA8;stroke-width:0.156;stroke-miterlimit:10;}
	.st43{fill:#49A3C7;}
	.st44{fill-rule:evenodd;clip-rule:evenodd;}
	.st45{fill-rule:evenodd;clip-rule:evenodd;fill:url(#SVGID_9_);}
	.st46{fill-rule:evenodd;clip-rule:evenodd;fill:url(#SVGID_10_);}
	.st47{fill-rule:evenodd;clip-rule:evenodd;fill:url(#SVGID_11_);}
	.st48{fill:#1D2251;}
	.st49{fill:#2260AC;}
	.st50{fill:url(#SVGID_12_);}
	.st51{fill:#FFFFFC;}
	.st52{fill:#4C9FC5;}
	.st53{fill:#28306D;}
	.st54{fill:#4C9EC5;}
	.st55{fill:#28306E;}
	.st56{fill:#29306F;}
	.st57{fill:#F7F7FB;}
	.st58{fill:url(#SVGID_13_);}
	.st59{fill:url(#SVGID_14_);}
	.st60{fill:url(#SVGID_15_);}
	.st61{fill:url(#SVGID_16_);}
	.st62{fill:#10123C;}
	.st63{fill:#F5842C;}
	.st64{fill:#1F305E;}
	.st65{fill:#87BBD1;}
	.st66{fill:#203160;}
	.st67{fill:#235779;}
	.st68{fill:#359FA1;}
	.st69{fill:#A4D1A4;}
	.st70{fill:#B9DBBC;}
	.st71{fill:#C6DDCA;}
	.st72{fill:#662E14;}
	.st73{fill:#1D79A4;}
	.st74{fill:#C14B28;}
	.st75{fill:url(#SVGID_17_);}
	.st76{fill:url(#SVGID_18_);}
	.st77{fill:url(#SVGID_19_);}
	.st78{fill:url(#SVGID_20_);}
	.st79{fill:url(#SVGID_21_);}
	.st80{fill:url(#SVGID_22_);}
	.st81{fill:url(#SVGID_23_);}
	.st82{fill:url(#SVGID_24_);}
	.st83{fill:url(#SVGID_25_);}
	.st84{fill:url(#SVGID_26_);}
	.st85{fill:url(#SVGID_27_);}
	.st86{fill:url(#SVGID_28_);}
	.st87{fill:url(#SVGID_29_);}
	.st88{fill:url(#SVGID_30_);}
	.st89{fill:#1F164B;}
	.st90{clip-path:url(#SVGID_32_);fill:#253D97;}
	.st91{fill:url(#SVGID_33_);}
	.st92{fill:url(#SVGID_34_);}
	.st93{fill:url(#SVGID_35_);}
	.st94{fill:url(#SVGID_36_);}
	.st95{fill:url(#SVGID_37_);}
	.st96{fill:url(#SVGID_38_);}
	.st97{fill:url(#SVGID_39_);}
	.st98{fill:url(#SVGID_40_);}
	.st99{fill:url(#SVGID_41_);}
	.st100{fill:#443F41;}
	.st101{fill:#28306F;}
	.st102{fill:#71C49D;}
	.st103{fill:#F0C6A7;}
	.st104{fill:#DB8D82;}
	.st105{fill:#EFB7AC;}
	.st106{opacity:0.21;}
	.st107{fill-rule:evenodd;clip-rule:evenodd;fill:#A9196E;}
	.st108{fill-rule:evenodd;clip-rule:evenodd;fill:#FBE42C;}
	.st109{fill:#FBE42C;}
	.st110{fill:#A9196E;}
	.st111{fill:#7FC143;}
	.st112{clip-path:url(#SVGID_45_);fill:#7FC143;}
	.st113{clip-path:url(#SVGID_51_);fill:#7FC143;}
	.st114{fill:#243F8F;}
	.st115{fill:#EF4E2F;}
	.st116{fill:#010007;}
	.st117{fill:#0C0D37;}
	.st118{fill:#FBAF2D;}
	.st119{fill:url(#SVGID_54_);}
	.st120{fill-rule:evenodd;clip-rule:evenodd;fill:#FFFFFF;}
	.st121{fill:#1D4690;}
	.st122{fill:#3AA949;}
	.st123{fill:#F37A24;}
	.st124{fill:none;stroke:#F37A24;stroke-width:3.7145;stroke-miterlimit:10;}
	.st125{fill:#3AA949;stroke:#FFFFFF;stroke-width:1.3104;stroke-miterlimit:10;}
	.st126{fill:#46A2BB;}
	.st127{fill:#7153A0;}
	.st128{fill:#27316C;}
	.st129{fill:#2C65AE;}
	.st130{fill:#452D7A;}
	.st131{fill:#442C7A;}
	.st132{fill:#1A2642;}
	.st133{fill-rule:evenodd;clip-rule:evenodd;fill:#567EB8;}
	.st134{fill-rule:evenodd;clip-rule:evenodd;fill:#6A7EB8;}
	.st135{fill-rule:evenodd;clip-rule:evenodd;fill:#6A7EB9;}
	.st136{fill-rule:evenodd;clip-rule:evenodd;fill:#EE3C2D;}
	.st137{fill-rule:evenodd;clip-rule:evenodd;fill:#EF493F;}
	.st138{fill-rule:evenodd;clip-rule:evenodd;fill:#ED2C24;}
	.st139{fill-rule:evenodd;clip-rule:evenodd;fill:#E9AE28;}
	.st140{fill-rule:evenodd;clip-rule:evenodd;fill:#D69B28;}
	.st141{fill-rule:evenodd;clip-rule:evenodd;fill:#FCB729;}
	.st142{fill-rule:evenodd;clip-rule:evenodd;fill:#409E47;}
	.st143{fill-rule:evenodd;clip-rule:evenodd;fill:#4BB450;}
	.st144{fill-rule:evenodd;clip-rule:evenodd;fill:#338440;}
	.st145{fill:#C09C36;}
	.st146{fill:#1E552A;}
	.st147{clip-path:url(#SVGID_56_);fill:url(#SVGID_57_);}
	.st148{fill:#023A1E;}
	.st149{fill:#FFFFFA;}
	.st150{fill:#0D4F28;}
	.st151{fill:#0E5128;}
	.st152{fill:#0D4E27;}
	.st153{fill:#0E5229;}
	.st154{fill:#0E4823;}
	.st155{fill:#0E4C27;}
	.st156{fill:#F3F6E0;}
	.st157{fill:#0E4F28;}
	.st158{fill:#114823;}
	.st159{fill:#105229;}
	.st160{fill:#0A4A2B;}
	.st161{fill:#134F27;}
	.st162{fill:#165229;}
	.st163{fill:#0D5029;}
	.st164{fill:#0B4E2B;}
	.st165{fill:#105028;}
	.st166{fill:#0A492A;}
	.st167{fill:#E9F3E2;}
	.st168{fill:#144D26;}
	.st169{fill:#185C2F;}
	.st170{fill:#0F5028;}
	.st171{fill:#F3F8EA;}
	.st172{fill:#114D26;}
	.st173{fill:#70A685;}
	.st174{fill:#0D4F2A;}
	.st175{fill:#094A24;}
	.st176{fill:#0F4F27;}
	.st177{fill:#0A4C26;}
	.st178{fill:#A2D29A;}
	.st179{fill:#4D7E44;}
	.st180{fill:#E8F2E1;}
	.st181{fill:#EDF5E5;}
	.st182{fill:#E6F2E7;}
	.st183{fill:#E5F1DC;}
	.st184{fill:#E9F3E3;}
	.st185{fill:#E9F3E5;}
	.st186{fill:#E5F1DB;}
	.st187{fill:#D8ECD7;}
	.st188{fill:#D9EBD4;}
	.st189{fill:#E2F0DE;}
	.st190{fill:#366B4B;}
	.st191{fill:#5D6162;}
	.st192{fill:#212E5F;}
	.st193{fill:#DD1F26;}
	.st194{clip-path:url(#SVGID_59_);}
	.st195{fill:#23396F;}
	.st196{fill:#7FC24E;}
	.st197{clip-path:url(#SVGID_59_);fill:#23396F;}
	.st198{clip-path:url(#SVGID_59_);fill:#7FC24E;}
	.st199{fill:#91CEA4;}
	.st200{fill:#90CEA4;}
	.st201{fill:#C02026;}
	.st202{fill:#362E7E;}
</style>
<g>
	<linearGradient id="SVGID_1_" gradientUnits="userSpaceOnUse" x1="0.0466" y1="24.772" x2="37.6695" y2="24.772">
		<stop  offset="0" style="stop-color:#ED2424"/>
		<stop  offset="0.176" style="stop-color:#EF3B25"/>
		<stop  offset="0.539" style="stop-color:#F26527"/>
		<stop  offset="0.8244" style="stop-color:#F47E29"/>
		<stop  offset="0.9949" style="stop-color:#F58829"/>
	</linearGradient>
	<rect x="0.05" y="23.52" style="fill:url(#SVGID_1_);" width="37.62" height="2.51"/>
	<g>
		<g>
			
				<linearGradient id="SVGID_2_" gradientUnits="userSpaceOnUse" x1="-390.5116" y1="-445.6713" x2="-379.8666" y2="-445.6713" gradientTransform="matrix(-0.4701 -0.8826 -0.8826 0.4701 -561.6783 -114.1441)">
				<stop  offset="0" style="stop-color:#ED2424"/>
				<stop  offset="0.176" style="stop-color:#EF3B25"/>
				<stop  offset="0.539" style="stop-color:#F26527"/>
				<stop  offset="0.8244" style="stop-color:#F47E29"/>
				<stop  offset="0.9949" style="stop-color:#F58829"/>
			</linearGradient>
			<path class="st10" d="M13.94,17.65c-0.15-0.11-0.31-0.21-0.46-0.32c-0.39-0.28-0.76-0.59-1.08-0.98
				c-0.22-0.27-0.41-0.56-0.56-0.89c-0.11-0.26-0.18-0.53-0.25-0.8c-0.01-0.06-0.02-0.13-0.02-0.19c0-0.02,0.01-0.04,0.02-0.05
				c0.01-0.01,0.03,0.01,0.04,0.02c0.3,0.32,0.63,0.6,0.97,0.87c0.27,0.22,0.55,0.43,0.83,0.63c0.39,0.27,0.8,0.52,1.19,0.78
				c0.2,0.13,0.4,0.28,0.58,0.43c0.11,0.09,0.2,0.22,0.28,0.33c0.18,0.24,0.28,0.53,0.37,0.82c0.07,0.23,0.1,0.45,0.12,0.69
				c0.02,0.3,0.01,0.6-0.04,0.89c-0.07,0.36-0.19,0.69-0.42,0.96c-0.05,0.06-0.11,0.07-0.17,0.07c-0.33,0-0.66-0.02-0.99-0.1
				c-0.36-0.08-0.72-0.2-1.06-0.38c-0.15-0.08-0.3-0.16-0.45-0.25c-0.48-0.3-0.92-0.67-1.3-1.13c-0.23-0.28-0.45-0.57-0.63-0.9
				c-0.28-0.49-0.5-1.01-0.64-1.56c-0.06-0.23-0.09-0.47-0.14-0.7c-0.05-0.28-0.06-0.55-0.05-0.82c0.01-0.41,0.07-0.81,0.15-1.2
				c0.09-0.42,0.22-0.83,0.38-1.22c0.15-0.36,0.32-0.7,0.53-1.01c0.17-0.25,0.35-0.49,0.56-0.7c0.13-0.13,0.28-0.23,0.42-0.34
				c0.06-0.04,0.12-0.08,0.18-0.1c0.07-0.03,0.15,0,0.21,0.06c0.06,0.06,0.08,0.13,0.04,0.19c-0.07,0.13-0.14,0.27-0.23,0.39
				c-0.33,0.45-0.63,0.93-0.82,1.49c-0.2,0.59-0.31,1.2-0.29,1.86c0.01,0.36,0.07,0.72,0.19,1.07c0.14,0.4,0.35,0.75,0.64,1.03
				c0.17,0.17,0.35,0.34,0.54,0.48c0.19,0.14,0.4,0.26,0.61,0.36c0.17,0.09,0.35,0.14,0.52,0.2c0.06,0.02,0.13,0.03,0.19,0.04
				C13.93,17.67,13.93,17.66,13.94,17.65z"/>
			<path class="st1" d="M12.75,10.62c0.02,0.04,0.03,0.09,0,0.14c-0.07,0.13-0.14,0.27-0.23,0.39c-0.33,0.45-0.63,0.93-0.82,1.49
				c-0.2,0.59-0.31,1.2-0.29,1.86c0.01,0.36,0.07,0.72,0.19,1.07c0.05,0.14,0.11,0.28,0.18,0.41c0.12,0.23,0.28,0.44,0.47,0.63
				c0.17,0.17,0.35,0.34,0.54,0.48c0.19,0.14,0.4,0.26,0.61,0.36c0.17,0.09,0.35,0.14,0.52,0.2c0.06,0.02,0.13,0.03,0.19,0.04
				c0-0.01,0-0.01,0-0.02c-0.15-0.11-0.31-0.21-0.46-0.32c-0.39-0.28-0.76-0.59-1.08-0.98c-0.17-0.21-0.32-0.42-0.45-0.66
				c-0.04-0.07-0.07-0.15-0.11-0.23c-0.11-0.26-0.18-0.53-0.25-0.8c-0.01-0.06-0.02-0.13-0.02-0.19c0-0.02,0.01-0.04,0.02-0.05
				c0.01-0.01,0.03,0.01,0.04,0.02c0.3,0.32,0.63,0.6,0.97,0.87c0.27,0.22,0.55,0.43,0.83,0.63c0.39,0.27,0.8,0.52,1.19,0.78
				c0.2,0.13,0.4,0.28,0.58,0.43c0.11,0.09,0.2,0.22,0.28,0.33c0.05,0.07,0.1,0.15,0.14,0.23c0.1,0.19,0.17,0.39,0.23,0.6
				c0.07,0.23,0.1,0.45,0.12,0.69c0.02,0.3,0.01,0.6-0.04,0.89c-0.07,0.36-0.19,0.69-0.42,0.96c-0.05,0.06-0.11,0.07-0.17,0.07
				c-0.33,0-0.66-0.02-0.99-0.1c-0.36-0.08-0.72-0.2-1.06-0.38c-0.15-0.08-0.3-0.16-0.45-0.25c-0.48-0.3-0.92-0.67-1.3-1.13
				c-0.23-0.28-0.45-0.57-0.63-0.9c-0.04-0.08-0.09-0.15-0.13-0.23c-0.22-0.42-0.4-0.86-0.51-1.33c-0.06-0.23-0.09-0.47-0.14-0.7
				c-0.05-0.28-0.06-0.55-0.05-0.82c0.01-0.41,0.07-0.81,0.15-1.2c0.09-0.42,0.22-0.83,0.38-1.22c0.15-0.36,0.32-0.7,0.53-1.01
				c0.17-0.25,0.35-0.49,0.56-0.7c0.13-0.13,0.28-0.23,0.42-0.34c0.06-0.04,0.12-0.08,0.18-0.1c0.07-0.03,0.15,0,0.21,0.06
				C12.72,10.58,12.74,10.6,12.75,10.62 M12.94,10.52c-0.02-0.04-0.05-0.08-0.08-0.11c-0.13-0.13-0.29-0.17-0.44-0.11
				c-0.09,0.03-0.17,0.08-0.24,0.13l-0.06,0.05c-0.13,0.1-0.26,0.19-0.38,0.31c-0.2,0.19-0.39,0.43-0.59,0.73
				c-0.21,0.32-0.39,0.67-0.55,1.05c-0.17,0.4-0.3,0.83-0.39,1.26c-0.09,0.43-0.15,0.84-0.16,1.24c-0.01,0.32,0.01,0.61,0.06,0.87
				c0.01,0.05,0.02,0.1,0.03,0.14c0.03,0.19,0.07,0.38,0.11,0.57c0.11,0.46,0.29,0.91,0.53,1.38c0.04,0.08,0.08,0.16,0.13,0.24
				c0.18,0.31,0.39,0.62,0.66,0.93c0.39,0.46,0.84,0.86,1.35,1.18c0.15,0.09,0.3,0.17,0.44,0.24l0.02,0.01
				c0.34,0.18,0.71,0.31,1.11,0.4c0.33,0.07,0.68,0.11,1.04,0.1c0.14,0,0.25-0.05,0.33-0.15c0.23-0.27,0.38-0.62,0.47-1.06
				c0.06-0.3,0.07-0.61,0.04-0.95c-0.02-0.27-0.06-0.51-0.13-0.73c-0.06-0.19-0.13-0.42-0.24-0.64c-0.05-0.09-0.1-0.18-0.16-0.25
				l-0.03-0.04c-0.09-0.12-0.18-0.24-0.29-0.34c-0.17-0.14-0.36-0.28-0.6-0.45c-0.17-0.12-0.35-0.23-0.53-0.34
				c-0.22-0.14-0.45-0.29-0.66-0.44c-0.29-0.2-0.56-0.41-0.82-0.62c-0.27-0.21-0.62-0.5-0.94-0.85c-0.07-0.07-0.19-0.12-0.3-0.07
				c-0.01,0.01-0.02,0.01-0.03,0.02c0.01-0.51,0.1-1.01,0.28-1.54c0.16-0.47,0.4-0.91,0.79-1.43c0.09-0.12,0.16-0.26,0.23-0.39
				l0.01-0.03C13,10.75,13,10.63,12.94,10.52L12.94,10.52z"/>
		</g>
		<g>
			
				<linearGradient id="SVGID_3_" gradientUnits="userSpaceOnUse" x1="-383.1924" y1="-446.8525" x2="-381.0484" y2="-446.8525" gradientTransform="matrix(-0.4701 -0.8826 -0.8826 0.4701 -561.6783 -114.1441)">
				<stop  offset="0" style="stop-color:#ED2424"/>
				<stop  offset="0.176" style="stop-color:#EF3B25"/>
				<stop  offset="0.539" style="stop-color:#F26527"/>
				<stop  offset="0.8244" style="stop-color:#F47E29"/>
				<stop  offset="0.9949" style="stop-color:#F58829"/>
			</linearGradient>
			<path class="st11" d="M12.57,11.71c0.12-0.04,0.17,0,0.16,0.1c-0.01,0.08-0.02,0.16-0.05,0.23c-0.13,0.36-0.27,0.72-0.34,1.11
				c-0.05,0.28-0.08,0.57-0.11,0.86c-0.01,0.09-0.02,0.19-0.03,0.28c-0.01,0.05-0.02,0.07-0.06,0.02c-0.12-0.13-0.23-0.25-0.35-0.38
				c-0.02-0.03-0.04-0.08-0.03-0.11c0.04-0.37,0.13-0.73,0.25-1.07c0.11-0.32,0.26-0.61,0.43-0.89
				C12.48,11.8,12.54,11.74,12.57,11.71z"/>
			<path class="st1" d="M12.72,11.73c0.01,0.02,0.01,0.05,0.01,0.08c-0.01,0.08-0.02,0.16-0.05,0.23c-0.13,0.36-0.27,0.72-0.34,1.11
				c-0.05,0.28-0.08,0.57-0.11,0.86c-0.01,0.09-0.02,0.19-0.03,0.28c-0.01,0.05-0.02,0.07-0.06,0.02c-0.12-0.13-0.23-0.25-0.35-0.38
				c0-0.01-0.01-0.01-0.01-0.02c-0.01-0.03-0.02-0.07-0.02-0.1c0.04-0.37,0.13-0.73,0.25-1.07c0.11-0.32,0.26-0.61,0.43-0.89
				c0.04-0.07,0.1-0.13,0.13-0.16C12.65,11.68,12.7,11.69,12.72,11.73 M12.91,11.62c-0.06-0.11-0.2-0.2-0.42-0.13l-0.06,0.02
				l-0.04,0.05c-0.01,0.01-0.01,0.02-0.02,0.03c-0.03,0.04-0.08,0.09-0.12,0.16c-0.2,0.31-0.34,0.62-0.45,0.93
				c-0.13,0.38-0.22,0.75-0.26,1.12c-0.01,0.07,0.01,0.16,0.04,0.22c0.01,0.02,0.03,0.04,0.04,0.06c0.08,0.09,0.16,0.18,0.24,0.27
				c0.04,0.04,0.07,0.08,0.11,0.11c0.11,0.12,0.23,0.1,0.27,0.08c0.05-0.02,0.15-0.07,0.17-0.23c0.01-0.04,0.01-0.09,0.01-0.13
				c0-0.05,0.01-0.1,0.01-0.15c0.01-0.07,0.02-0.15,0.03-0.22c0.03-0.21,0.05-0.42,0.09-0.63c0.06-0.33,0.17-0.64,0.29-0.96
				l0.04-0.11c0.03-0.09,0.06-0.19,0.06-0.29C12.96,11.75,12.94,11.68,12.91,11.62L12.91,11.62z"/>
		</g>
		<g>
			
				<linearGradient id="SVGID_4_" gradientUnits="userSpaceOnUse" x1="-383.962" y1="-446.8173" x2="-381.9109" y2="-446.8173" gradientTransform="matrix(-0.4701 -0.8826 -0.8826 0.4701 -561.6783 -114.1441)">
				<stop  offset="0" style="stop-color:#ED2424"/>
				<stop  offset="0.176" style="stop-color:#EF3B25"/>
				<stop  offset="0.539" style="stop-color:#F26527"/>
				<stop  offset="0.8244" style="stop-color:#F47E29"/>
				<stop  offset="0.9949" style="stop-color:#F58829"/>
			</linearGradient>
			<path class="st13" d="M12.87,12.69c0,0.09,0,0.16,0,0.23c-0.03,0.32-0.06,0.64-0.08,0.97c-0.01,0.24,0,0.48,0,0.72
				c0,0.07,0.01,0.13,0.01,0.2c0,0.03-0.01,0.05-0.01,0.07c-0.02-0.01-0.04-0.01-0.06-0.03c-0.1-0.08-0.2-0.17-0.3-0.25
				c-0.04-0.03-0.06-0.07-0.05-0.13c0.03-0.31,0.05-0.62,0.09-0.93c0.03-0.23,0.08-0.46,0.12-0.69c0.01-0.07,0.04-0.13,0.06-0.19
				c0.02-0.04,0.05-0.08,0.1-0.06C12.8,12.62,12.83,12.66,12.87,12.69z"/>
			<path class="st1" d="M12.87,12.69c0,0.09,0,0.16,0,0.23c-0.03,0.32-0.06,0.64-0.08,0.97c-0.01,0.24,0,0.48,0,0.72
				c0,0.07,0.01,0.13,0.01,0.2c0,0.03-0.01,0.05-0.01,0.07c-0.02-0.01-0.04-0.01-0.06-0.03c-0.1-0.08-0.2-0.17-0.3-0.25
				c-0.02-0.01-0.03-0.03-0.04-0.05c-0.01-0.02-0.02-0.05-0.01-0.08c0.03-0.31,0.05-0.62,0.09-0.93c0.03-0.23,0.08-0.46,0.12-0.69
				c0.01-0.07,0.04-0.13,0.06-0.19c0.02-0.04,0.05-0.08,0.1-0.06C12.8,12.62,12.83,12.66,12.87,12.69 M13.09,12.6l-0.07-0.07
				c-0.01-0.01-0.02-0.02-0.02-0.02c-0.03-0.03-0.07-0.07-0.13-0.1c-0.07-0.03-0.15-0.04-0.22-0.01c-0.08,0.03-0.14,0.1-0.18,0.18
				c-0.03,0.07-0.06,0.15-0.08,0.24l-0.03,0.13c-0.04,0.19-0.08,0.38-0.1,0.58c-0.03,0.21-0.05,0.43-0.06,0.64
				c-0.01,0.1-0.02,0.2-0.03,0.3c-0.01,0.07,0.01,0.14,0.04,0.21c0.02,0.04,0.05,0.08,0.09,0.11c0.04,0.03,0.08,0.07,0.12,0.1
				c0.06,0.05,0.12,0.1,0.18,0.15c0.04,0.04,0.09,0.05,0.11,0.06l0,0l0.25,0.11l0.05-0.27l0-0.01c0.01-0.02,0.02-0.06,0.01-0.11
				c0-0.03,0-0.07-0.01-0.1c0-0.03-0.01-0.06-0.01-0.09c0-0.06,0-0.13,0-0.19c0-0.18-0.01-0.35,0-0.52
				c0.01-0.21,0.03-0.42,0.05-0.62c0.01-0.11,0.02-0.22,0.03-0.34c0-0.06,0-0.11,0-0.17c0-0.02,0-0.05,0-0.08L13.09,12.6L13.09,12.6
				z"/>
		</g>
		<g>
			
				<linearGradient id="SVGID_5_" gradientUnits="userSpaceOnUse" x1="-384.6211" y1="-446.8966" x2="-382.8181" y2="-446.8966" gradientTransform="matrix(-0.4701 -0.8826 -0.8826 0.4701 -561.6783 -114.1441)">
				<stop  offset="0" style="stop-color:#ED2424"/>
				<stop  offset="0.176" style="stop-color:#EF3B25"/>
				<stop  offset="0.539" style="stop-color:#F26527"/>
				<stop  offset="0.8244" style="stop-color:#F47E29"/>
				<stop  offset="0.9949" style="stop-color:#F58829"/>
			</linearGradient>
			<path class="st14" d="M13.35,15.34c-0.07-0.05-0.14-0.11-0.22-0.15c-0.1-0.06-0.14-0.14-0.14-0.28c0-0.27-0.03-0.54-0.04-0.8
				c0-0.18,0.01-0.37,0.02-0.55c0-0.04,0.04-0.09,0.07-0.09c0.03-0.01,0.08,0.03,0.1,0.06c0.03,0.06,0.04,0.12,0.04,0.19
				c0.03,0.33,0.06,0.67,0.1,1c0.02,0.2,0.05,0.4,0.08,0.6C13.36,15.31,13.36,15.31,13.35,15.34z"/>
			<path class="st1" d="M13.14,13.52C13.14,13.52,13.14,13.52,13.14,13.52c0.03,0.06,0.04,0.13,0.04,0.19c0.03,0.33,0.06,0.67,0.1,1
				c0.02,0.2,0.05,0.4,0.08,0.6c0,0,0,0.01-0.01,0.03c-0.07-0.05-0.14-0.11-0.22-0.15c-0.05-0.03-0.09-0.07-0.11-0.11
				c-0.02-0.04-0.03-0.1-0.04-0.16c0-0.27-0.03-0.54-0.04-0.8c0-0.18,0.01-0.37,0.02-0.55c0-0.04,0.04-0.09,0.07-0.09
				C13.07,13.45,13.12,13.49,13.14,13.52 M13.33,13.41c-0.06-0.11-0.2-0.2-0.34-0.17c-0.14,0.03-0.23,0.17-0.24,0.29
				c-0.01,0.16-0.03,0.37-0.02,0.57c0,0.13,0.01,0.26,0.02,0.38c0.01,0.14,0.02,0.28,0.02,0.42c0,0.1,0.02,0.19,0.06,0.27
				c0.04,0.08,0.1,0.14,0.18,0.19c0.04,0.03,0.09,0.06,0.14,0.1c0.02,0.02,0.05,0.03,0.07,0.05l0.23,0.16l0.1-0.26l0-0.01
				c0.01-0.02,0.03-0.07,0.02-0.13c-0.01-0.07-0.02-0.13-0.03-0.2c-0.02-0.13-0.04-0.26-0.05-0.39c-0.02-0.18-0.04-0.37-0.06-0.55
				c-0.01-0.15-0.03-0.3-0.04-0.45c-0.01-0.08-0.02-0.17-0.06-0.26L13.33,13.41L13.33,13.41L13.33,13.41z"/>
		</g>
	</g>
	<g>
		<g>
			
				<linearGradient id="SVGID_6_" gradientUnits="userSpaceOnUse" x1="81.4675" y1="440.2603" x2="92.1124" y2="440.2603" gradientTransform="matrix(0.4701 -0.8826 0.8826 0.4701 -411.1007 -114.1441)">
				<stop  offset="0" style="stop-color:#ED2424"/>
				<stop  offset="0.176" style="stop-color:#EF3B25"/>
				<stop  offset="0.539" style="stop-color:#F26527"/>
				<stop  offset="0.8244" style="stop-color:#F47E29"/>
				<stop  offset="0.9949" style="stop-color:#F58829"/>
			</linearGradient>
			<path class="st15" d="M17.1,17.6c0.15-0.11,0.31-0.21,0.46-0.32c0.39-0.28,0.76-0.59,1.08-0.98c0.22-0.27,0.41-0.56,0.56-0.89
				c0.11-0.26,0.18-0.53,0.25-0.8c0.01-0.06,0.02-0.13,0.02-0.19c0-0.02-0.01-0.04-0.02-0.05c-0.01-0.01-0.03,0.01-0.04,0.02
				c-0.3,0.32-0.63,0.6-0.97,0.87c-0.27,0.22-0.55,0.43-0.83,0.63c-0.39,0.27-0.8,0.52-1.19,0.78c-0.2,0.13-0.4,0.28-0.58,0.43
				c-0.11,0.09-0.2,0.22-0.28,0.33c-0.18,0.24-0.28,0.53-0.37,0.82c-0.07,0.23-0.1,0.45-0.12,0.69c-0.02,0.3-0.01,0.6,0.04,0.89
				c0.07,0.36,0.19,0.69,0.42,0.96c0.05,0.06,0.11,0.07,0.17,0.07c0.33,0,0.66-0.02,0.99-0.1c0.36-0.08,0.72-0.2,1.06-0.38
				c0.15-0.08,0.3-0.16,0.45-0.25c0.48-0.3,0.92-0.67,1.3-1.13c0.23-0.28,0.45-0.57,0.63-0.9c0.28-0.49,0.5-1.01,0.64-1.56
				c0.06-0.23,0.09-0.47,0.14-0.7c0.05-0.28,0.06-0.55,0.05-0.82c-0.01-0.41-0.07-0.81-0.15-1.2c-0.09-0.42-0.22-0.83-0.38-1.22
				c-0.15-0.36-0.32-0.7-0.53-1.01c-0.17-0.25-0.35-0.49-0.56-0.7c-0.13-0.13-0.28-0.23-0.42-0.34c-0.06-0.04-0.12-0.08-0.18-0.1
				c-0.07-0.03-0.15,0-0.21,0.06c-0.06,0.06-0.08,0.13-0.04,0.19c0.07,0.13,0.14,0.27,0.23,0.39c0.33,0.45,0.63,0.93,0.82,1.49
				c0.2,0.59,0.31,1.2,0.29,1.86c-0.01,0.36-0.07,0.72-0.19,1.07c-0.14,0.4-0.35,0.75-0.64,1.03c-0.17,0.17-0.35,0.34-0.54,0.48
				c-0.19,0.14-0.4,0.26-0.61,0.36c-0.17,0.09-0.35,0.14-0.52,0.2c-0.06,0.02-0.13,0.03-0.19,0.04C17.1,17.61,17.1,17.6,17.1,17.6z"
				/>
			<path class="st1" d="M18.63,10.57c0.01-0.02,0.02-0.04,0.04-0.06c0.06-0.06,0.14-0.09,0.21-0.06c0.06,0.02,0.13,0.06,0.18,0.1
				c0.14,0.11,0.29,0.22,0.42,0.34c0.21,0.2,0.39,0.44,0.56,0.7c0.21,0.31,0.38,0.65,0.53,1.01c0.16,0.39,0.29,0.79,0.38,1.22
				c0.09,0.39,0.14,0.79,0.15,1.2c0.01,0.27,0,0.55-0.05,0.82c-0.04,0.23-0.08,0.47-0.14,0.7c-0.11,0.47-0.29,0.91-0.51,1.33
				c-0.04,0.08-0.08,0.15-0.13,0.23c-0.18,0.32-0.4,0.62-0.63,0.9c-0.38,0.46-0.82,0.83-1.3,1.13c-0.15,0.09-0.3,0.17-0.45,0.25
				c-0.34,0.18-0.7,0.3-1.06,0.38c-0.33,0.07-0.66,0.1-0.99,0.1c-0.06,0-0.12-0.02-0.17-0.07c-0.22-0.26-0.35-0.59-0.42-0.96
				c-0.05-0.29-0.06-0.59-0.04-0.89c0.02-0.23,0.05-0.46,0.12-0.69c0.06-0.21,0.13-0.41,0.23-0.6c0.04-0.08,0.09-0.15,0.14-0.23
				c0.09-0.12,0.18-0.24,0.28-0.33c0.19-0.16,0.38-0.3,0.58-0.43c0.4-0.27,0.8-0.51,1.19-0.78c0.28-0.2,0.56-0.41,0.83-0.63
				c0.34-0.27,0.66-0.55,0.97-0.87c0.01-0.01,0.03-0.02,0.04-0.02c0.01,0.01,0.02,0.03,0.02,0.05c-0.01,0.06-0.01,0.13-0.02,0.19
				c-0.06,0.27-0.13,0.54-0.25,0.8c-0.03,0.08-0.07,0.15-0.11,0.23c-0.13,0.24-0.28,0.46-0.45,0.66c-0.32,0.39-0.69,0.7-1.08,0.98
				c-0.15,0.11-0.31,0.21-0.46,0.32c0,0.01,0,0.01,0,0.02c0.06-0.01,0.13-0.02,0.19-0.04c0.18-0.06,0.35-0.12,0.52-0.2
				c0.21-0.11,0.41-0.22,0.61-0.36c0.19-0.14,0.37-0.31,0.54-0.48c0.19-0.18,0.34-0.39,0.47-0.63c0.07-0.13,0.13-0.27,0.18-0.41
				c0.12-0.35,0.18-0.7,0.19-1.07c0.02-0.66-0.09-1.27-0.29-1.86c-0.19-0.56-0.49-1.04-0.82-1.49c-0.09-0.12-0.16-0.25-0.23-0.39
				C18.6,10.66,18.61,10.61,18.63,10.57 M18.44,10.46c-0.06,0.11-0.06,0.23,0,0.34l0.01,0.03c0.07,0.13,0.14,0.26,0.23,0.39
				c0.39,0.52,0.63,0.96,0.79,1.43c0.18,0.52,0.27,1.03,0.28,1.54c-0.01-0.01-0.02-0.01-0.03-0.02c-0.11-0.05-0.23,0-0.3,0.07
				c-0.32,0.34-0.67,0.63-0.94,0.85c-0.26,0.21-0.54,0.42-0.82,0.62c-0.22,0.15-0.45,0.3-0.66,0.44c-0.17,0.11-0.35,0.23-0.53,0.34
				c-0.24,0.16-0.44,0.31-0.6,0.45c-0.12,0.1-0.21,0.22-0.29,0.34l-0.03,0.04c-0.06,0.08-0.11,0.16-0.16,0.25
				c-0.11,0.22-0.19,0.44-0.24,0.64c-0.07,0.22-0.11,0.46-0.13,0.73c-0.03,0.34-0.01,0.65,0.04,0.95c0.08,0.44,0.24,0.79,0.47,1.06
				c0.08,0.1,0.2,0.15,0.33,0.15c0.36,0,0.71-0.03,1.04-0.1c0.41-0.09,0.77-0.22,1.11-0.4l0.02-0.01c0.15-0.08,0.3-0.15,0.44-0.24
				c0.51-0.32,0.97-0.71,1.35-1.18c0.26-0.31,0.48-0.61,0.66-0.93c0.05-0.08,0.09-0.16,0.13-0.24c0.25-0.47,0.42-0.92,0.53-1.38
				c0.05-0.19,0.08-0.39,0.11-0.57c0.01-0.05,0.02-0.1,0.03-0.14c0.05-0.26,0.07-0.55,0.06-0.87c-0.01-0.4-0.06-0.81-0.16-1.24
				c-0.09-0.43-0.23-0.85-0.39-1.26c-0.16-0.38-0.34-0.73-0.55-1.05c-0.2-0.31-0.39-0.54-0.59-0.73c-0.12-0.12-0.25-0.22-0.38-0.31
				l-0.06-0.05c-0.07-0.05-0.15-0.1-0.24-0.13c-0.15-0.06-0.31-0.02-0.44,0.11C18.48,10.38,18.46,10.42,18.44,10.46L18.44,10.46z"/>
		</g>
		<g>
			
				<linearGradient id="SVGID_7_" gradientUnits="userSpaceOnUse" x1="88.9473" y1="439.3805" x2="91.0913" y2="439.3805" gradientTransform="matrix(0.4701 -0.8826 0.8826 0.4701 -411.1007 -114.1441)">
				<stop  offset="0" style="stop-color:#ED2424"/>
				<stop  offset="0.176" style="stop-color:#EF3B25"/>
				<stop  offset="0.539" style="stop-color:#F26527"/>
				<stop  offset="0.8244" style="stop-color:#F47E29"/>
				<stop  offset="0.9949" style="stop-color:#F58829"/>
			</linearGradient>
			<path class="st19" d="M18.81,11.65c-0.12-0.04-0.17,0-0.16,0.1c0.01,0.08,0.02,0.16,0.05,0.23c0.13,0.36,0.27,0.72,0.34,1.11
				c0.05,0.28,0.08,0.57,0.11,0.86c0.01,0.09,0.02,0.19,0.03,0.28c0.01,0.05,0.02,0.07,0.06,0.02c0.12-0.13,0.23-0.25,0.35-0.38
				c0.02-0.03,0.04-0.08,0.03-0.11c-0.04-0.37-0.13-0.73-0.25-1.07c-0.11-0.32-0.26-0.61-0.43-0.89
				C18.89,11.74,18.84,11.68,18.81,11.65z"/>
			<path class="st1" d="M18.65,11.67c0.02-0.04,0.07-0.05,0.15-0.02c0.03,0.03,0.08,0.09,0.13,0.16c0.17,0.28,0.32,0.57,0.43,0.89
				c0.12,0.34,0.21,0.7,0.25,1.07c0,0.03-0.01,0.07-0.02,0.1c0,0.01-0.01,0.01-0.01,0.02c-0.11,0.13-0.23,0.25-0.35,0.38
				c-0.04,0.04-0.06,0.02-0.06-0.02c-0.01-0.09-0.02-0.19-0.03-0.28c-0.04-0.29-0.07-0.58-0.11-0.86c-0.07-0.39-0.2-0.75-0.34-1.11
				c-0.03-0.07-0.04-0.15-0.05-0.23C18.64,11.72,18.64,11.69,18.65,11.67 M18.46,11.57c-0.03,0.06-0.04,0.13-0.04,0.21
				c0.01,0.1,0.03,0.2,0.06,0.29l0.04,0.11c0.12,0.32,0.23,0.63,0.29,0.96c0.03,0.21,0.06,0.42,0.09,0.63
				c0.01,0.07,0.02,0.15,0.03,0.22c0.01,0.05,0.01,0.1,0.01,0.15c0,0.04,0.01,0.09,0.01,0.13c0.02,0.16,0.13,0.22,0.17,0.23
				c0.05,0.02,0.16,0.04,0.27-0.08c0.04-0.04,0.07-0.08,0.11-0.11c0.08-0.09,0.16-0.18,0.24-0.27c0.02-0.02,0.03-0.04,0.04-0.06
				c0.04-0.07,0.05-0.15,0.04-0.22c-0.04-0.37-0.12-0.74-0.26-1.12c-0.11-0.32-0.26-0.62-0.45-0.93c-0.04-0.07-0.09-0.12-0.12-0.16
				c-0.01-0.01-0.02-0.02-0.02-0.03l-0.04-0.05l-0.06-0.02C18.66,11.36,18.52,11.46,18.46,11.57L18.46,11.57z"/>
		</g>
		<g>
			
				<linearGradient id="SVGID_8_" gradientUnits="userSpaceOnUse" x1="88.1777" y1="439.4157" x2="90.2287" y2="439.4157" gradientTransform="matrix(0.4701 -0.8826 0.8826 0.4701 -411.1007 -114.1441)">
				<stop  offset="0" style="stop-color:#ED2424"/>
				<stop  offset="0.176" style="stop-color:#EF3B25"/>
				<stop  offset="0.539" style="stop-color:#F26527"/>
				<stop  offset="0.8244" style="stop-color:#F47E29"/>
				<stop  offset="0.9949" style="stop-color:#F58829"/>
			</linearGradient>
			<path style="fill:url(#SVGID_8_);" d="M18.5,12.64c0,0.09,0,0.16,0,0.23c0.03,0.32,0.06,0.64,0.08,0.97c0.01,0.24,0,0.48,0,0.72
				c0,0.07-0.01,0.13-0.01,0.2c0,0.03,0.01,0.05,0.01,0.07c0.02-0.01,0.04-0.01,0.06-0.03c0.1-0.08,0.2-0.17,0.3-0.25
				c0.04-0.03,0.06-0.07,0.05-0.13c-0.03-0.31-0.05-0.62-0.09-0.93c-0.03-0.23-0.08-0.46-0.12-0.69c-0.01-0.07-0.04-0.13-0.06-0.19
				c-0.02-0.04-0.05-0.08-0.1-0.06C18.57,12.57,18.54,12.61,18.5,12.64z"/>
			<path class="st1" d="M18.5,12.64c0.04-0.03,0.07-0.07,0.1-0.09c0.05-0.02,0.08,0.02,0.1,0.06c0.03,0.06,0.05,0.13,0.06,0.19
				c0.04,0.23,0.09,0.45,0.12,0.69c0.04,0.31,0.06,0.62,0.09,0.93c0,0.03,0,0.06-0.01,0.08c-0.01,0.02-0.02,0.03-0.04,0.05
				c-0.1,0.08-0.2,0.17-0.3,0.25c-0.02,0.01-0.04,0.02-0.06,0.03c0-0.02-0.01-0.05-0.01-0.07c0-0.07,0.01-0.13,0.01-0.2
				c0-0.24,0.02-0.48,0-0.72c-0.02-0.32-0.05-0.64-0.08-0.97C18.5,12.8,18.51,12.72,18.5,12.64 M18.28,12.54l0,0.1
				c0,0.03,0,0.05,0,0.08c0,0.06,0,0.11,0,0.17c0.01,0.11,0.02,0.22,0.03,0.34c0.02,0.2,0.04,0.42,0.05,0.62
				c0.01,0.17,0,0.34,0,0.52c0,0.06,0,0.13,0,0.19c0,0.03,0,0.06-0.01,0.09c0,0.03-0.01,0.07-0.01,0.1c0,0.05,0.01,0.09,0.01,0.11
				l0,0.01l0.05,0.27l0.25-0.11l0,0c0.02-0.01,0.07-0.02,0.11-0.06c0.06-0.05,0.12-0.1,0.18-0.15c0.04-0.03,0.08-0.07,0.12-0.1
				c0.04-0.03,0.07-0.07,0.09-0.11c0.03-0.06,0.05-0.13,0.04-0.21c-0.01-0.1-0.02-0.2-0.03-0.3c-0.02-0.21-0.04-0.43-0.06-0.64
				c-0.02-0.2-0.06-0.39-0.1-0.58l-0.03-0.13c-0.02-0.09-0.05-0.16-0.08-0.24c-0.04-0.09-0.1-0.15-0.18-0.18
				c-0.07-0.03-0.15-0.03-0.22,0.01c-0.06,0.03-0.1,0.07-0.13,0.1c-0.01,0.01-0.01,0.02-0.02,0.02L18.28,12.54L18.28,12.54z"/>
		</g>
		<g>
			
				<linearGradient id="SVGID_9_" gradientUnits="userSpaceOnUse" x1="87.5186" y1="439.3364" x2="89.3216" y2="439.3364" gradientTransform="matrix(0.4701 -0.8826 0.8826 0.4701 -411.1007 -114.1441)">
				<stop  offset="0" style="stop-color:#ED2424"/>
				<stop  offset="0.176" style="stop-color:#EF3B25"/>
				<stop  offset="0.539" style="stop-color:#F26527"/>
				<stop  offset="0.8244" style="stop-color:#F47E29"/>
				<stop  offset="0.9949" style="stop-color:#F58829"/>
			</linearGradient>
			<path style="fill:url(#SVGID_9_);" d="M18.02,15.28c0.07-0.05,0.14-0.11,0.22-0.15c0.1-0.06,0.14-0.14,0.14-0.28
				c0-0.27,0.03-0.54,0.04-0.8c0-0.18-0.01-0.37-0.02-0.55c0-0.04-0.04-0.09-0.07-0.09c-0.03-0.01-0.08,0.03-0.1,0.06
				c-0.03,0.06-0.04,0.12-0.04,0.19c-0.03,0.33-0.06,0.67-0.1,1c-0.02,0.2-0.05,0.4-0.08,0.6C18.01,15.26,18.02,15.26,18.02,15.28z"
				/>
			<path class="st1" d="M18.23,13.46c0.02-0.03,0.07-0.07,0.1-0.06c0.03,0.01,0.07,0.06,0.07,0.09c0.01,0.18,0.03,0.36,0.02,0.55
				c-0.01,0.27-0.04,0.54-0.04,0.8c0,0.07-0.01,0.12-0.04,0.16c-0.02,0.05-0.06,0.08-0.11,0.11c-0.07,0.05-0.14,0.1-0.22,0.15
				c-0.01-0.02-0.01-0.03-0.01-0.03c0.03-0.2,0.06-0.4,0.08-0.6c0.04-0.33,0.06-0.67,0.1-1C18.2,13.59,18.21,13.52,18.23,13.46
				C18.23,13.47,18.23,13.47,18.23,13.46 M18.04,13.36L18.04,13.36l-0.01,0.01c-0.04,0.09-0.05,0.18-0.06,0.26
				c-0.02,0.15-0.03,0.3-0.04,0.45c-0.02,0.18-0.04,0.37-0.06,0.55c-0.01,0.13-0.03,0.26-0.05,0.39c-0.01,0.07-0.02,0.13-0.03,0.2
				c-0.01,0.07,0.01,0.11,0.02,0.13l0,0.01l0.1,0.26l0.23-0.16c0.02-0.02,0.05-0.03,0.07-0.05c0.05-0.04,0.09-0.07,0.14-0.1
				c0.08-0.05,0.14-0.12,0.18-0.19c0.04-0.08,0.06-0.16,0.06-0.27c0-0.14,0.01-0.27,0.02-0.42c0.01-0.12,0.02-0.25,0.02-0.38
				c0-0.2-0.01-0.41-0.02-0.57c-0.01-0.12-0.1-0.27-0.24-0.29C18.24,13.16,18.1,13.25,18.04,13.36L18.04,13.36z"/>
		</g>
	</g>
	<g>
		<path class="st100" d="M10.14,17.51c-0.44,1.97-1.96,3.4-4.67,3.4c-3.43,0-5.06-2.37-5.06-5.36c0-2.89,1.67-5.48,5.17-5.48
			c2.88,0,4.28,1.65,4.54,3.41H7.79c-0.23-0.81-0.81-1.62-2.28-1.62c-1.93,0-2.68,1.69-2.68,3.61c0,1.78,0.65,3.66,2.74,3.66
			c1.53,0,2.01-1,2.21-1.61H10.14z"/>
		<path class="st100" d="M27.31,18.24v0.15c0,0.04,0,2.17,0,2.22h2.29v-2.38c0-1.89-0.81-2.43-1.35-2.62
			c0.78-0.31,1.57-1.08,1.57-2.49c0-1.63-1.27-2.89-3.63-2.89h-4.76v10.54h2.29v-4.22h1.54C27.01,16.54,27.31,17.09,27.31,18.24z
			 M23.73,14.73v-2.69h2.02c1.15,0,1.72,0.48,1.72,1.34c0,0.88-0.49,1.36-1.78,1.36H23.73z"/>
		<polygon class="st100" points="37.17,18.89 32.6,18.89 32.6,16.22 37.17,16.22 37.17,14.35 32.6,14.35 32.6,12.09 37.17,12.09 
			37.17,10.22 30.33,10.22 30.33,20.76 37.17,20.76 		"/>
	</g>
	<g>
		<path class="st100" d="M40.83,25.11c0-0.67,0.01-1.39,0.02-1.78h-0.01c-0.09,0.61-0.38,2.22-0.58,3.31h-0.39
			c-0.15-0.94-0.45-2.66-0.54-3.31h-0.01c0.01,0.42,0.03,1.25,0.03,1.88v1.43h-0.37v-3.65h0.59c0.21,1.08,0.45,2.42,0.5,2.88h0.01
			c0.06-0.46,0.35-1.87,0.55-2.88h0.58v3.65h-0.39V25.11z"/>
		<path class="st100" d="M43.17,24.64v1.16c0,0.6-0.29,0.87-0.75,0.87c-0.46,0-0.74-0.26-0.74-0.86v-1.19
			c0-0.54,0.29-0.82,0.75-0.82C42.92,23.8,43.17,24.11,43.17,24.64z M42.08,24.63v1.2c0,0.3,0.1,0.5,0.34,0.5
			c0.22,0,0.34-0.15,0.34-0.5v-1.2c0-0.27-0.09-0.47-0.34-0.47C42.18,24.15,42.08,24.32,42.08,24.63z"/>
		<path class="st100" d="M43.61,24.8c0-0.45,0-0.7-0.01-0.95h0.38C43.99,23.92,44,24.1,44,24.28c0.11-0.34,0.35-0.47,0.6-0.47v0.48
			c-0.35,0-0.59,0.2-0.59,0.7v1.64h-0.4V24.8z"/>
		<path class="st100" d="M45.22,25.32v0.46c0,0.28,0.06,0.57,0.34,0.57c0.27,0,0.32-0.21,0.32-0.48v-0.02h0.39v0.02
			c0,0.32-0.08,0.82-0.71,0.82c-0.6,0-0.73-0.38-0.73-0.95v-1.04c0-0.42,0.15-0.89,0.74-0.89c0.55,0,0.71,0.4,0.71,0.89
			c0,0.15,0,0.47,0,0.63H45.22z M45.89,25v-0.35c0-0.26-0.04-0.51-0.33-0.51c-0.27,0-0.34,0.22-0.34,0.52V25H45.89z"/>
		<path class="st100" d="M47.18,23.85h0.33v-0.68h0.4v0.68h0.4v0.34h-0.4v1.87c0,0.14,0.03,0.28,0.21,0.28
			c0.05,0,0.14-0.01,0.18-0.02v0.3c-0.09,0.03-0.21,0.04-0.31,0.04c-0.28,0-0.47-0.11-0.47-0.54v-1.94h-0.33V23.85z"/>
		<path class="st100" d="M48.99,22.82v1.28c0.07-0.16,0.24-0.29,0.52-0.29c0.43,0,0.56,0.31,0.56,0.71v2.11h-0.4v-2.01
			c0-0.23-0.03-0.46-0.3-0.46c-0.31,0-0.38,0.23-0.38,0.63v1.84h-0.4v-3.81H48.99z"/>
		<path class="st100" d="M51.89,26.15c0,0.19,0,0.4,0.01,0.48h-0.37c-0.01-0.07-0.03-0.18-0.03-0.23c-0.09,0.21-0.27,0.27-0.47,0.27
			c-0.41,0-0.58-0.36-0.58-0.79v-0.05c0-0.63,0.4-0.85,0.91-0.85c0.04,0,0.07,0,0.12,0v-0.44c0-0.25-0.04-0.41-0.27-0.41
			c-0.22,0-0.28,0.17-0.28,0.38v0.07h-0.39v-0.07c0-0.39,0.16-0.72,0.69-0.72c0.5,0,0.65,0.3,0.65,0.71V26.15z M51.5,25.3
			c-0.03,0-0.1,0-0.14,0c-0.32,0-0.52,0.13-0.52,0.53v0.05c0,0.25,0.08,0.45,0.3,0.45c0.26,0,0.35-0.2,0.35-0.62V25.3z"/>
		<path class="st100" d="M52.42,24.7c0-0.56,0-0.71-0.01-0.85h0.38c0.01,0.06,0.02,0.16,0.02,0.28c0.08-0.2,0.25-0.32,0.52-0.32
			c0.31,0,0.56,0.17,0.56,0.69v2.14h-0.4v-2.07c0-0.27-0.09-0.41-0.3-0.41c-0.24,0-0.38,0.12-0.38,0.64v1.83h-0.4V24.7z"/>
		<path class="st100" d="M55.49,25.32v0.46c0,0.28,0.06,0.57,0.34,0.57c0.27,0,0.32-0.21,0.32-0.48v-0.02h0.39v0.02
			c0,0.32-0.08,0.82-0.71,0.82c-0.6,0-0.73-0.38-0.73-0.95v-1.04c0-0.42,0.15-0.89,0.74-0.89c0.55,0,0.71,0.4,0.71,0.89
			c0,0.15,0,0.47,0,0.63H55.49z M56.17,25v-0.35c0-0.26-0.04-0.51-0.33-0.51c-0.27,0-0.34,0.22-0.34,0.52V25H56.17z"/>
		<path class="st100" d="M57.18,23.85c0.21,0.55,0.32,0.83,0.36,0.98h0.01c0.07-0.19,0.21-0.51,0.38-0.98h0.42l-0.57,1.3l0.58,1.49
			h-0.43c-0.22-0.6-0.33-0.95-0.38-1.1h-0.01c-0.06,0.16-0.19,0.55-0.39,1.1h-0.42l0.58-1.44l-0.57-1.34H57.18z"/>
		<path class="st100" d="M59.01,26.4v1.17h-0.4v-2.92c0-0.38,0-0.63-0.01-0.8h0.38C59,23.91,59,24.02,59,24.15
			c0.07-0.19,0.23-0.34,0.52-0.34c0.39,0,0.58,0.26,0.58,0.81v1.18c0,0.62-0.24,0.88-0.62,0.88C59.2,26.68,59.07,26.53,59.01,26.4z
			 M59.7,25.8v-1.17c0-0.34-0.13-0.47-0.31-0.47c-0.3,0-0.38,0.24-0.38,0.61v0.91c0,0.32,0.05,0.64,0.36,0.64
			C59.61,26.32,59.7,26.13,59.7,25.8z"/>
		<path class="st100" d="M60.87,25.32v0.46c0,0.28,0.06,0.57,0.34,0.57c0.27,0,0.32-0.21,0.32-0.48v-0.02h0.39v0.02
			c0,0.32-0.08,0.82-0.71,0.82c-0.6,0-0.73-0.38-0.73-0.95v-1.04c0-0.42,0.15-0.89,0.74-0.89c0.55,0,0.71,0.4,0.71,0.89
			c0,0.15,0,0.47,0,0.63H60.87z M61.54,25v-0.35c0-0.26-0.04-0.51-0.33-0.51c-0.27,0-0.34,0.22-0.34,0.52V25H61.54z"/>
		<path class="st100" d="M63.69,25.75v0.04c0,0.48-0.13,0.88-0.71,0.88c-0.56,0-0.69-0.38-0.69-0.94v-1.08
			c0-0.47,0.18-0.85,0.72-0.85c0.58,0,0.69,0.42,0.69,0.79v0.11h-0.4v-0.1c0-0.25-0.04-0.47-0.3-0.47c-0.22,0-0.31,0.16-0.31,0.49
			v1.19c0,0.25,0.05,0.52,0.3,0.52c0.23,0,0.3-0.15,0.3-0.5v-0.09H63.69z"/>
		<path class="st100" d="M63.91,23.85h0.33v-0.68h0.4v0.68h0.4v0.34h-0.4v1.87c0,0.14,0.03,0.28,0.21,0.28
			c0.05,0,0.14-0.01,0.18-0.02v0.3c-0.09,0.03-0.21,0.04-0.31,0.04c-0.28,0-0.47-0.11-0.47-0.54v-1.94h-0.33V23.85z"/>
		<path class="st100" d="M66.68,26.15c0,0.19,0,0.4,0.01,0.48h-0.37c-0.01-0.07-0.03-0.18-0.03-0.23c-0.09,0.21-0.27,0.27-0.47,0.27
			c-0.41,0-0.58-0.36-0.58-0.79v-0.05c0-0.63,0.4-0.85,0.91-0.85c0.04,0,0.07,0,0.12,0v-0.44c0-0.25-0.04-0.41-0.27-0.41
			c-0.22,0-0.28,0.17-0.28,0.38v0.07h-0.39v-0.07c0-0.39,0.16-0.72,0.69-0.72c0.5,0,0.65,0.3,0.65,0.71V26.15z M66.29,25.3
			c-0.03,0-0.1,0-0.14,0c-0.32,0-0.52,0.13-0.52,0.53v0.05c0,0.25,0.08,0.45,0.3,0.45c0.26,0,0.35-0.2,0.35-0.62V25.3z"/>
		<path class="st100" d="M66.93,23.85h0.33v-0.68h0.4v0.68h0.4v0.34h-0.4v1.87c0,0.14,0.03,0.28,0.21,0.28
			c0.05,0,0.14-0.01,0.18-0.02v0.3c-0.09,0.03-0.21,0.04-0.31,0.04c-0.28,0-0.47-0.11-0.47-0.54v-1.94h-0.33V23.85z"/>
		<path class="st100" d="M68.36,23.85h0.4v2.78h-0.4V23.85z M68.37,22.82h0.4v0.56h-0.4V22.82z"/>
		<path class="st100" d="M70.7,24.64v1.16c0,0.6-0.29,0.87-0.75,0.87c-0.46,0-0.74-0.26-0.74-0.86v-1.19c0-0.54,0.29-0.82,0.75-0.82
			C70.44,23.8,70.7,24.11,70.7,24.64z M69.61,24.63v1.2c0,0.3,0.1,0.5,0.34,0.5c0.22,0,0.34-0.15,0.34-0.5v-1.2
			c0-0.27-0.09-0.47-0.34-0.47C69.71,24.15,69.61,24.32,69.61,24.63z"/>
		<path class="st100" d="M71.14,24.7c0-0.56,0-0.71-0.01-0.85h0.38c0.01,0.06,0.02,0.16,0.02,0.28c0.08-0.2,0.25-0.32,0.52-0.32
			c0.31,0,0.56,0.17,0.56,0.69v2.14h-0.4v-2.07c0-0.27-0.09-0.41-0.3-0.41c-0.24,0-0.38,0.12-0.38,0.64v1.83h-0.4V24.7z"/>
	</g>
	<g>
		<path class="st100" d="M43.89,16.1h-3.62v3.49h4.05l-0.22,1.46h-5.54V10.21h5.51v1.48h-3.8v2.94h3.62V16.1z"/>
		<path class="st100" d="M51.86,21.05h-1.33c-0.04-0.32-0.08-0.59-0.09-1.01c-0.45,0.82-1.15,1.19-2.22,1.19
			c-2.36,0-3.13-2.15-3.13-5.55c0-3.88,1.31-5.64,3.65-5.64c2.9,0,3.07,2.45,3.1,3.09h-1.71c-0.03-0.42-0.13-1.65-1.44-1.65
			c-1.38,0-1.81,1.71-1.81,4.19c0,2.59,0.34,4.13,1.72,4.13c1.21,0,1.54-0.94,1.54-2.76v-0.58H48.5v-1.45h3.36
			C51.86,15.01,51.86,21.05,51.86,21.05z"/>
		<path class="st100" d="M55.09,21.05v-3.94c0-0.12-0.02-0.21-0.07-0.33l-2.81-6.58h1.93c0.67,1.75,1.54,3.99,1.87,5.11
			c0.4-1.23,1.28-3.45,1.89-5.11h1.83l-2.85,6.6c-0.03,0.07-0.06,0.18-0.06,0.34v3.91H55.09z"/>
		<path class="st100" d="M60.29,10.21h3.19c1.81,0,3.13,1.07,3.13,3.15c0,2.04-1.19,3.18-3.29,3.18h-1.29v4.5h-1.73V10.21z
			 M62.03,15.18h1.1c1.18,0,1.74-0.59,1.74-1.84c0-1.12-0.6-1.75-1.62-1.75h-1.22V15.18z"/>
		<path class="st100" d="M69.52,11.69h-2.41v-1.48h6.56v1.48h-2.41v9.36h-1.73V11.69z"/>
	</g>
</g>
</svg>
