<?xml version="1.0" encoding="utf-8"?>
<!-- Generator: Adobe Illustrator 25.0.1, SVG Export Plug-In . SVG Version: 6.00 Build 0)  -->
<svg version="1.0" id="Layer_1" xmlns="http://www.w3.org/2000/svg" xmlns:xlink="http://www.w3.org/1999/xlink" x="0px" y="0px"
	 viewBox="0 0 61.21 50.61" style="enable-background:new 0 0 61.21 50.61;" xml:space="preserve">
<style type="text/css">
	.st0{fill:#000104;}
	.st1{fill:#FFFFFF;}
	.st2{fill:#EF493E;}
	.st3{opacity:0.6;fill-rule:evenodd;clip-rule:evenodd;fill:#FBBE43;}
	.st4{opacity:0.6;fill-rule:evenodd;clip-rule:evenodd;fill:#EF930E;}
	.st5{opacity:0.6;fill-rule:evenodd;clip-rule:evenodd;fill:#E67906;}
	.st6{fill:#9F8829;}
	.st7{fill:#3972A6;}
	.st8{fill:url(#SVGID_1_);stroke:#2B53A4;stroke-width:0.5;stroke-miterlimit:10;}
	.st9{fill:none;}
	.st10{fill:url(#SVGID_2_);}
	.st11{fill:url(#SVGID_3_);}
	.st12{fill:#B3B3B3;}
	.st13{fill:url(#SVGID_4_);}
	.st14{fill:url(#SVGID_5_);}
	.st15{fill:url(#SVGID_6_);}
	.st16{fill:#FFFFFF;stroke:#FFFFFF;stroke-width:0.25;stroke-miterlimit:10;}
	.st17{fill:#00001D;}
	.st18{fill:#4DA0C5;}
	.st19{fill:url(#SVGID_7_);}
	.st20{fill:#2E6A85;}
	.st21{fill:none;stroke:#144FA1;stroke-width:0.113;stroke-linejoin:round;stroke-miterlimit:10;}
	.st22{fill:#F27337;}
	.st23{fill:#8EB8D4;}
	.st24{fill:#F38056;}
	.st25{fill:#626365;}
	.st26{fill:#EF6D23;}
	.st27{fill:#284B82;}
	.st28{fill:#242956;}
	.st29{fill:#15142A;}
	.st30{fill:#84C343;}
	.st31{fill:#4CA1C6;}
	.st32{fill:#121617;}
	.st33{fill:#CF8966;}
	.st34{fill:#F37639;}
	.st35{opacity:0.3;fill:url(#SVGID_8_);}
	.st36{fill:#373277;}
	.st37{fill:#E61E25;}
	.st38{fill:#2555A5;}
	.st39{fill:#2E225E;}
	.st40{fill:#F8A425;}
	.st41{fill:#2058A7;}
	.st42{fill:none;stroke:#205AA8;stroke-width:0.156;stroke-miterlimit:10;}
	.st43{fill:#49A3C7;}
	.st44{fill-rule:evenodd;clip-rule:evenodd;}
	.st45{fill-rule:evenodd;clip-rule:evenodd;fill:url(#SVGID_9_);}
	.st46{fill-rule:evenodd;clip-rule:evenodd;fill:url(#SVGID_10_);}
	.st47{fill-rule:evenodd;clip-rule:evenodd;fill:url(#SVGID_11_);}
	.st48{fill:#1D2251;}
	.st49{fill:#2260AC;}
	.st50{fill:url(#SVGID_12_);}
	.st51{fill:#FFFFFC;}
	.st52{fill:#4C9FC5;}
	.st53{fill:#28306D;}
	.st54{fill:#4C9EC5;}
	.st55{fill:#28306E;}
	.st56{fill:#29306F;}
	.st57{fill:#F7F7FB;}
	.st58{fill:url(#SVGID_13_);}
	.st59{fill:url(#SVGID_14_);}
	.st60{fill:url(#SVGID_15_);}
	.st61{fill:url(#SVGID_16_);}
	.st62{fill:#10123C;}
	.st63{fill:#F5842C;}
	.st64{fill:#1F305E;}
	.st65{fill:#87BBD1;}
	.st66{fill:#203160;}
	.st67{fill:#235779;}
	.st68{fill:#359FA1;}
	.st69{fill:#A4D1A4;}
	.st70{fill:#B9DBBC;}
	.st71{fill:#C6DDCA;}
	.st72{fill:#662E14;}
	.st73{fill:#1D79A4;}
	.st74{fill:#C14B28;}
	.st75{fill:url(#SVGID_17_);}
	.st76{fill:url(#SVGID_18_);}
	.st77{fill:url(#SVGID_19_);}
	.st78{fill:url(#SVGID_20_);}
	.st79{fill:url(#SVGID_21_);}
	.st80{fill:url(#SVGID_22_);}
	.st81{fill:url(#SVGID_23_);}
	.st82{fill:url(#SVGID_24_);}
	.st83{fill:url(#SVGID_25_);}
	.st84{fill:url(#SVGID_26_);}
	.st85{fill:url(#SVGID_27_);}
	.st86{fill:url(#SVGID_28_);}
	.st87{fill:url(#SVGID_29_);}
	.st88{fill:url(#SVGID_30_);}
	.st89{fill:#1F164B;}
	.st90{clip-path:url(#SVGID_32_);fill:#253D97;}
	.st91{fill:url(#SVGID_33_);}
	.st92{fill:url(#SVGID_34_);}
	.st93{fill:url(#SVGID_35_);}
	.st94{fill:url(#SVGID_36_);}
	.st95{fill:url(#SVGID_37_);}
	.st96{fill:url(#SVGID_38_);}
	.st97{fill:url(#SVGID_39_);}
	.st98{fill:url(#SVGID_40_);}
	.st99{fill:url(#SVGID_41_);}
	.st100{fill:#443F41;}
	.st101{fill:#28306F;}
	.st102{fill:#71C49D;}
	.st103{fill:#F0C6A7;}
	.st104{fill:#DB8D82;}
	.st105{fill:#EFB7AC;}
	.st106{opacity:0.21;}
	.st107{fill-rule:evenodd;clip-rule:evenodd;fill:#A9196E;}
	.st108{fill-rule:evenodd;clip-rule:evenodd;fill:#FBE42C;}
	.st109{fill:#FBE42C;}
	.st110{fill:#A9196E;}
	.st111{fill:#7FC143;}
	.st112{clip-path:url(#SVGID_45_);fill:#7FC143;}
	.st113{clip-path:url(#SVGID_51_);fill:#7FC143;}
	.st114{fill:#243F8F;}
	.st115{fill:#EF4E2F;}
	.st116{fill:#010007;}
	.st117{fill:#0C0D37;}
	.st118{fill:#FBAF2D;}
	.st119{fill:url(#SVGID_54_);}
	.st120{fill-rule:evenodd;clip-rule:evenodd;fill:#FFFFFF;}
	.st121{fill:#1D4690;}
	.st122{fill:#3AA949;}
	.st123{fill:#F37A24;}
	.st124{fill:none;stroke:#F37A24;stroke-width:3.7145;stroke-miterlimit:10;}
	.st125{fill:#3AA949;stroke:#FFFFFF;stroke-width:1.3104;stroke-miterlimit:10;}
	.st126{fill:#46A2BB;}
	.st127{fill:#7153A0;}
	.st128{fill:#27316C;}
	.st129{fill:#2C65AE;}
	.st130{fill:#452D7A;}
	.st131{fill:#442C7A;}
	.st132{fill:#1A2642;}
	.st133{fill-rule:evenodd;clip-rule:evenodd;fill:#567EB8;}
	.st134{fill-rule:evenodd;clip-rule:evenodd;fill:#6A7EB8;}
	.st135{fill-rule:evenodd;clip-rule:evenodd;fill:#6A7EB9;}
	.st136{fill-rule:evenodd;clip-rule:evenodd;fill:#EE3C2D;}
	.st137{fill-rule:evenodd;clip-rule:evenodd;fill:#EF493F;}
	.st138{fill-rule:evenodd;clip-rule:evenodd;fill:#ED2C24;}
	.st139{fill-rule:evenodd;clip-rule:evenodd;fill:#E9AE28;}
	.st140{fill-rule:evenodd;clip-rule:evenodd;fill:#D69B28;}
	.st141{fill-rule:evenodd;clip-rule:evenodd;fill:#FCB729;}
	.st142{fill-rule:evenodd;clip-rule:evenodd;fill:#409E47;}
	.st143{fill-rule:evenodd;clip-rule:evenodd;fill:#4BB450;}
	.st144{fill-rule:evenodd;clip-rule:evenodd;fill:#338440;}
	.st145{fill:#C09C36;}
	.st146{fill:#1E552A;}
	.st147{clip-path:url(#SVGID_56_);fill:url(#SVGID_57_);}
	.st148{fill:#023A1E;}
	.st149{fill:#FFFFFA;}
	.st150{fill:#0D4F28;}
	.st151{fill:#0E5128;}
	.st152{fill:#0D4E27;}
	.st153{fill:#0E5229;}
	.st154{fill:#0E4823;}
	.st155{fill:#0E4C27;}
	.st156{fill:#F3F6E0;}
	.st157{fill:#0E4F28;}
	.st158{fill:#114823;}
	.st159{fill:#105229;}
	.st160{fill:#0A4A2B;}
	.st161{fill:#134F27;}
	.st162{fill:#165229;}
	.st163{fill:#0D5029;}
	.st164{fill:#0B4E2B;}
	.st165{fill:#105028;}
	.st166{fill:#0A492A;}
	.st167{fill:#E9F3E2;}
	.st168{fill:#144D26;}
	.st169{fill:#185C2F;}
	.st170{fill:#0F5028;}
	.st171{fill:#F3F8EA;}
	.st172{fill:#114D26;}
	.st173{fill:#70A685;}
	.st174{fill:#0D4F2A;}
	.st175{fill:#094A24;}
	.st176{fill:#0F4F27;}
	.st177{fill:#0A4C26;}
	.st178{fill:#A2D29A;}
	.st179{fill:#4D7E44;}
	.st180{fill:#E8F2E1;}
	.st181{fill:#EDF5E5;}
	.st182{fill:#E6F2E7;}
	.st183{fill:#E5F1DC;}
	.st184{fill:#E9F3E3;}
	.st185{fill:#E9F3E5;}
	.st186{fill:#E5F1DB;}
	.st187{fill:#D8ECD7;}
	.st188{fill:#D9EBD4;}
	.st189{fill:#E2F0DE;}
	.st190{fill:#366B4B;}
	.st191{fill:#5D6162;}
	.st192{fill:#212E5F;}
	.st193{fill:#DD1F26;}
	.st194{clip-path:url(#SVGID_59_);}
	.st195{fill:#23396F;}
	.st196{fill:#7FC24E;}
	.st197{clip-path:url(#SVGID_59_);fill:#23396F;}
	.st198{clip-path:url(#SVGID_59_);fill:#7FC24E;}
	.st199{fill:#91CEA4;}
	.st200{fill:#90CEA4;}
	.st201{fill:#C02026;}
	.st202{fill:#362E7E;}
</style>
<g>
	<g>
		<g>
			<g>
				<rect x="36.03" y="23.91" width="1.16" height="8.28"/>
				<polygon points="44.7,25.08 44.7,23.95 38.31,23.95 38.31,25.08 40.92,25.08 40.92,32.18 42.08,32.18 42.08,25.08 				"/>
				<polygon points="49.54,23.92 47.76,23.92 44.2,32.16 45.46,32.16 48.65,24.79 51.83,32.16 53.1,32.16 				"/>
				<polygon points="32.44,29.81 24.84,23.91 24.84,32.16 26,32.16 26,26.25 33.6,32.16 33.6,23.88 32.44,23.88 				"/>
				<path d="M19.29,23.88c-2.52,0-4.3,1.88-4.3,4.13v0.02c0,2.25,1.76,4.1,4.27,4.1c2.52,0,4.3-1.88,4.3-4.13v-0.02
					C23.56,25.74,21.8,23.88,19.29,23.88z M22.37,28.03c0,1.73-1.27,3.14-3.08,3.14c-1.82,0-3.11-1.44-3.11-3.17v-0.03
					c0-1.73,1.27-3.14,3.08-3.14c1.82,0,3.11,1.44,3.11,3.17V28.03z"/>
				<path d="M12.36,27.86c0.63-0.32,1.21-0.85,1.21-1.84V26c0-0.55-0.19-1-0.57-1.36c-0.48-0.47-1.25-0.73-2.21-0.73h-3.8v8.24h3.92
					c1.89,0,3.13-0.79,3.13-2.26v-0.02C14.04,28.74,13.35,28.19,12.36,27.86z M8.15,25.04h2.5c1.12,0,1.74,0.44,1.74,1.16v0.03
					c0,0.83-0.75,1.24-1.87,1.24H8.15V25.04z M12.87,29.78c0,0.83-0.83,1.24-2.08,1.24H8.15v-2.42h2.79c1.24,0,1.94,0.44,1.94,1.16
					V29.78z"/>
			</g>
		</g>
		<g>
			<path d="M37,39.6l-0.09-0.04c-0.48-0.21-0.97-0.43-1.11-0.81c-0.33-0.9,1.1-1.8,1.26-1.9c0.67-0.4,1.76-0.81,2.7-0.81
				c0.48,0,0.86,0.11,1.14,0.31c0.13,0.1,0.21,0.2,0.26,0.3c0.05,0.11,0.05,0.21,0.05,0.27c-0.01,0.05-0.02,0.08-0.03,0.09
				c-0.05,0.07-0.02,0.2,0.04,0.27c0.05,0.08,0.12,0.12,0.18,0.12l0.06-0.01l0.02-0.03c0.05-0.05,0.08-0.13,0.09-0.24
				c0.01-0.1,0.01-0.3-0.11-0.54c-0.1-0.22-0.26-0.43-0.48-0.59c-0.36-0.27-0.85-0.4-1.44-0.4c-1,0-2.11,0.4-2.76,0.79
				c-0.82,0.5-1.65,1.42-1.3,2.38c0.24,0.66,0.84,0.93,1.43,1.2c0.3,0.14,0.55,0.25,0.75,0.39c0.43,0.32,0.39,0.78,0.28,1.11
				c-0.32,1-1.62,2.05-2.63,2.08c-0.13,0-0.78-0.02-0.78-0.47c0-0.23,0.11-0.64,0.69-1.24c0.08-0.07,0.04-0.2-0.02-0.28
				c-0.03-0.05-0.1-0.13-0.18-0.13l-0.06,0.01l-0.02,0.03c-0.51,0.53-0.78,1.03-0.77,1.45c0.01,0.8,0.68,1.22,1.33,1.22l0.09,0
				c1.06-0.02,2.32-1.07,2.7-2.23c0.26-0.78,0.06-1.45-0.55-1.9C37.52,39.85,37.26,39.72,37,39.6z"/>
			<path d="M41,37.6l-0.6,0.66c-0.04,0.05,0,0.16,0.09,0.25c0.08,0.08,0.19,0.12,0.23,0.07l0.6-0.66c0.03-0.05,0-0.16-0.08-0.25
				C41.14,37.59,41.05,37.55,41,37.6z"/>
			<path d="M46.72,41.74c-1.97-0.17-3.5-0.16-4.66-0.03c0.65-1.11,1.19-2.12,1.19-2.13l0.01-0.01l0.12-0.2
				c0.02-0.05-0.02-0.17-0.12-0.25c-0.08-0.07-0.18-0.1-0.21-0.05c0,0-0.16,0.21-0.39,0.48c-0.55-0.67-1.42-0.16-1.8,0.43
				c-0.37,0.33-1.05,0.88-1.37,0.83c-0.11-0.05-0.12-0.22,0.03-0.51c0.23-0.44,0.62-0.88,0.85-1.08c0.05-0.04,0.02-0.14-0.06-0.24
				c-0.09-0.09-0.19-0.13-0.24-0.09c-0.24,0.2-0.64,0.66-0.87,1.11c-0.18,0.35-0.26,0.7-0.11,0.96c0.27,0.47,1.02-0.02,1.58-0.48
				c-0.03,0.26,0.06,0.41,0.4,0.48c0.23,0.05,0.91-0.26,1.25-0.59c-0.2,0.35-0.57,1.02-0.81,1.4c-1.11,0.17-1.83,0.44-2.27,0.74
				c-0.29,0.2-0.45,0.4-0.52,0.61c-0.07,0.23-0.03,0.47,0.09,0.67c0.21,0.36,0.64,0.62,1.13,0.63c0.36,0,1.16-1.13,1.87-2.3
				c1.2-0.17,2.86-0.21,5.12-0.02c0.09,0,0.1-0.07,0.04-0.17C46.91,41.83,46.8,41.75,46.72,41.74z M41.15,40.74
				c-0.53-0.03,0.87-1.64,1.35-1.03C42.24,40.25,41.44,40.76,41.15,40.74z M39.71,44.06c-0.3-0.01-0.53-0.11-0.63-0.26
				c-0.05-0.1-0.07-0.24-0.02-0.4c0.06-0.18,0.21-0.37,0.48-0.55c0.35-0.25,0.9-0.47,1.7-0.63C40.62,43.21,39.99,44.06,39.71,44.06z
				"/>
			<path d="M55.17,39.63c-0.08-0.08-0.17-0.03-0.21,0.01c-0.02,0.01-1.4,1.14-1.45,0.89c-0.06-0.29,0.06-0.56,0.08-0.61
				c0.03-0.05-0.01-0.15-0.08-0.23c-0.1-0.09-0.19-0.12-0.23-0.08c0,0-0.97,1.1-1.34,1.2c0.12-0.48,0.34-0.85,0.73-1.16
				c0.19-0.16,0.71-0.39,0.93-0.2c0.04,0.09,0.15,0.19,0.23,0.21c0.08,0.02,0.12-0.04,0.07-0.15c-0.18-0.6-1.05-0.58-1.53-0.2
				c-0.13,0.11-0.26,0.24-0.37,0.38c-0.25,0.06-0.5,0.1-0.67,0.09c-0.14-0.01-0.11-0.25-0.2-0.35c-0.21-0.26-0.72-0.09-1.1,0.08
				l0.39-0.61c0.03-0.05-0.01-0.17-0.11-0.25c-0.08-0.08-0.19-0.11-0.22-0.06l-0.7,1.1c-0.35,0.18-0.69,0.14-0.91,0.11
				c0.02-0.16,0.02-0.31,0-0.45c-0.02-0.13-0.05-0.26-0.12-0.37c-0.07-0.16-0.19-0.28-0.33-0.35c-0.08-0.04-0.17-0.06-0.27-0.05
				c-0.13,0.02-0.19,0.12-0.21,0.27c-0.01,0.13,0.02,0.32,0.11,0.51c0.08,0.19,0.22,0.37,0.41,0.53c-0.04,0.15-0.1,0.29-0.17,0.42
				c-0.13,0.24-0.27,0.42-0.42,0.55c-0.11,0.1-0.22,0.17-0.32,0.2c-0.08,0.02-0.15,0.02-0.2,0c-0.05-0.1-0.01-0.35,0.07-0.62
				c0.12-0.32,0.3-0.64,0.52-0.84c0.02-0.02,0.05-0.04,0.08-0.06c0.04-0.04,0.02-0.14-0.06-0.24c-0.09-0.09-0.19-0.13-0.23-0.1
				c-0.03,0.02-0.06,0.05-0.1,0.07c-0.18,0.16-0.33,0.39-0.45,0.64c-0.32,0.25-1.08,0.82-1.35,0.65c0,0,0.16-0.3,0.3-0.57
				c0.07-0.16,0.15-0.29,0.18-0.4c0.07-0.26,0.02-0.46-0.3-0.55h-0.02c-0.23-0.06-0.86,0.39-1.44,0.86l0.27-0.47
				c0.03-0.05-0.01-0.17-0.11-0.25c-0.09-0.08-0.19-0.1-0.22-0.05l-0.96,1.67c-0.03,0.05,0.02,0.16,0.11,0.25
				c0.08,0.07,0.18,0.1,0.21,0.06c0.04-0.04,1.46-1.36,2.06-1.67c-0.03,0.08-0.07,0.17-0.12,0.25c-0.2,0.4-0.44,0.86,0.04,1.16
				c0.31,0.2,0.8-0.13,1.18-0.46c-0.06,0.29-0.04,0.57,0.1,0.76c0.02,0.02,0.04,0.04,0.06,0.06c0.06,0.07,0.14,0.12,0.21,0.17
				c0.14,0.07,0.28,0.08,0.41,0.04c0.12-0.03,0.23-0.11,0.36-0.22c0.16-0.13,0.31-0.34,0.44-0.58c0.1-0.16,0.16-0.34,0.2-0.52
				c0.21,0.07,0.44,0.07,0.7,0l-0.57,0.9c-0.03,0.05,0.01,0.17,0.11,0.25c0.09,0.08,0.19,0.11,0.22,0.06c0.05-0.09,0.61-1,0.63-1.02
				c0,0,0.95-0.82,1.11-0.63c0.23,0.27,0.32,0.34,0.6,0.36c0.13,0.01,0.37-0.02,0.61-0.07c-0.04,0.07-0.1,0.14-0.13,0.21
				c-0.06,0.13-0.11,0.27-0.12,0.39c-0.02,0.16,0.02,0.3,0.13,0.44c0.06,0.06,0.13,0.12,0.21,0.16c0.23,0.1,0.63-0.22,1.01-0.57
				c-0.01,0.51,0.36,0.65,0.85,0.4c0.29-0.15,0.7-0.51,1.4-1.12C55.25,39.81,55.26,39.73,55.17,39.63z M48.14,39.63
				c-0.07-0.06-0.13-0.13-0.16-0.22c-0.05-0.11-0.07-0.23-0.06-0.32c0.01-0.09,0.04-0.16,0.11-0.16c0.03-0.01,0.05-0.01,0.06,0
				c0.02,0.05,0.04,0.13,0.05,0.23C48.16,39.3,48.16,39.47,48.14,39.63z"/>
		</g>
	</g>
	<linearGradient id="SVGID_1_" gradientUnits="userSpaceOnUse" x1="24.472" y1="13.8077" x2="35.4535" y2="13.8077">
		<stop  offset="0" style="stop-color:#BE923A"/>
		<stop  offset="0.1231" style="stop-color:#A97A33"/>
		<stop  offset="0.4257" style="stop-color:#F1D97F"/>
		<stop  offset="0.5172" style="stop-color:#DBBC68"/>
		<stop  offset="0.6328" style="stop-color:#C5A051"/>
		<stop  offset="0.7478" style="stop-color:#B68B40"/>
		<stop  offset="0.8606" style="stop-color:#AC7E36"/>
		<stop  offset="0.9689" style="stop-color:#A97A33"/>
	</linearGradient>
	<path style="fill:url(#SVGID_1_);" d="M29.56,9.68h-3.32c0-1.2,0.01-2.44,0.01-2.44h-1.78c0,0-0.01,1.25-0.01,2.44h0v1.52h0.01
		c0.01,0.56,0.06,1.12,0.25,1.65c0,0,0.29,0.82,0.83,1.5c1.35,1.72,3.97,2.04,4.29,2.07c-0.69-0.32-1.99-1.04-2.81-2.47
		c-0.5-0.88-0.77-1.66-0.79-2.75h2.72c2.32,0,4.2,1.83,4.2,4.09v3.56h-4.5c-2.32,0-4.2-1.83-4.2-4.09v0.92
		c0,2.59,2.16,4.69,4.82,4.69h6.17v-4.96C35.45,12.25,32.82,9.68,29.56,9.68z"/>
	<path class="st44" d="M33.59,34.28c6.3-0.1,12.46,0.18,18.4,0.79c-6.71-1.06-13.79-1.64-21.11-1.64c-8.24,0-16.16,0.73-23.6,2.06
		c-0.6,0.11-0.94,0.45-0.81,0.79c0,0,0,0.01,0.01,0.01c0.16,0.4,0.88,0.63,1.58,0.5C16.09,35.3,24.65,34.42,33.59,34.28z"/>
</g>
</svg>
