<?xml version="1.0" encoding="utf-8"?>
<!-- Generator: Adobe Illustrator 25.0.1, SVG Export Plug-In . SVG Version: 6.00 Build 0)  -->
<svg version="1.0" id="Layer_1" xmlns="http://www.w3.org/2000/svg" xmlns:xlink="http://www.w3.org/1999/xlink" x="0px" y="0px"
	 viewBox="0 0 76.25 95.06" style="enable-background:new 0 0 76.25 95.06;" xml:space="preserve">
<style type="text/css">
	.st0{fill:#000104;}
	.st1{fill:#FFFFFF;}
	.st2{fill:#EF493E;}
	.st3{opacity:0.6;fill-rule:evenodd;clip-rule:evenodd;fill:#FBBE43;}
	.st4{opacity:0.6;fill-rule:evenodd;clip-rule:evenodd;fill:#EF930E;}
	.st5{opacity:0.6;fill-rule:evenodd;clip-rule:evenodd;fill:#E67906;}
	.st6{fill:#9F8829;}
	.st7{fill:#3972A6;}
	.st8{fill:url(#SVGID_1_);stroke:#2B53A4;stroke-width:0.5;stroke-miterlimit:10;}
	.st9{fill:none;}
	.st10{fill:url(#SVGID_2_);}
	.st11{fill:url(#SVGID_3_);}
	.st12{fill:#B3B3B3;}
	.st13{fill:url(#SVGID_4_);}
	.st14{fill:url(#SVGID_5_);}
	.st15{fill:url(#SVGID_6_);}
	.st16{fill:#FFFFFF;stroke:#FFFFFF;stroke-width:0.25;stroke-miterlimit:10;}
	.st17{fill:#00001D;}
	.st18{fill:#4DA0C5;}
	.st19{fill:url(#SVGID_7_);}
	.st20{fill:#2E6A85;}
	.st21{fill:none;stroke:#144FA1;stroke-width:0.113;stroke-linejoin:round;stroke-miterlimit:10;}
	.st22{fill:#F27337;}
	.st23{fill:#8EB8D4;}
	.st24{fill:#F38056;}
	.st25{fill:#626365;}
	.st26{fill:#EF6D23;}
	.st27{fill:#284B82;}
	.st28{fill:#242956;}
	.st29{fill:#15142A;}
	.st30{fill:#84C343;}
	.st31{fill:#4CA1C6;}
	.st32{fill:#121617;}
	.st33{fill:#CF8966;}
	.st34{fill:#F37639;}
	.st35{opacity:0.3;fill:url(#SVGID_8_);}
	.st36{fill:#373277;}
	.st37{fill:#E61E25;}
	.st38{fill:#2555A5;}
	.st39{fill:#2E225E;}
	.st40{fill:#F8A425;}
	.st41{fill:#2058A7;}
	.st42{fill:none;stroke:#205AA8;stroke-width:0.156;stroke-miterlimit:10;}
	.st43{fill:#49A3C7;}
	.st44{fill-rule:evenodd;clip-rule:evenodd;}
	.st45{fill-rule:evenodd;clip-rule:evenodd;fill:url(#SVGID_9_);}
	.st46{fill-rule:evenodd;clip-rule:evenodd;fill:url(#SVGID_10_);}
	.st47{fill-rule:evenodd;clip-rule:evenodd;fill:url(#SVGID_11_);}
	.st48{fill:#1D2251;}
	.st49{fill:#2260AC;}
	.st50{fill:url(#SVGID_12_);}
	.st51{fill:#FFFFFC;}
	.st52{fill:#4C9FC5;}
	.st53{fill:#28306D;}
	.st54{fill:#4C9EC5;}
	.st55{fill:#28306E;}
	.st56{fill:#29306F;}
	.st57{fill:#F7F7FB;}
	.st58{fill:url(#SVGID_13_);}
	.st59{fill:url(#SVGID_14_);}
	.st60{fill:url(#SVGID_15_);}
	.st61{fill:url(#SVGID_16_);}
	.st62{fill:#10123C;}
	.st63{fill:#F5842C;}
	.st64{fill:#1F305E;}
	.st65{fill:#87BBD1;}
	.st66{fill:#203160;}
	.st67{fill:#235779;}
	.st68{fill:#359FA1;}
	.st69{fill:#A4D1A4;}
	.st70{fill:#B9DBBC;}
	.st71{fill:#C6DDCA;}
	.st72{fill:#662E14;}
	.st73{fill:#1D79A4;}
	.st74{fill:#C14B28;}
	.st75{fill:url(#SVGID_17_);}
	.st76{fill:url(#SVGID_18_);}
	.st77{fill:url(#SVGID_19_);}
	.st78{fill:url(#SVGID_20_);}
	.st79{fill:url(#SVGID_21_);}
	.st80{fill:url(#SVGID_22_);}
	.st81{fill:url(#SVGID_23_);}
	.st82{fill:url(#SVGID_24_);}
	.st83{fill:url(#SVGID_25_);}
	.st84{fill:url(#SVGID_26_);}
	.st85{fill:url(#SVGID_27_);}
	.st86{fill:url(#SVGID_28_);}
	.st87{fill:url(#SVGID_29_);}
	.st88{fill:url(#SVGID_30_);}
	.st89{fill:#1F164B;}
	.st90{clip-path:url(#SVGID_32_);fill:#253D97;}
	.st91{fill:url(#SVGID_33_);}
	.st92{fill:url(#SVGID_34_);}
	.st93{fill:url(#SVGID_35_);}
	.st94{fill:url(#SVGID_36_);}
	.st95{fill:url(#SVGID_37_);}
	.st96{fill:url(#SVGID_38_);}
	.st97{fill:url(#SVGID_39_);}
	.st98{fill:url(#SVGID_40_);}
	.st99{fill:url(#SVGID_41_);}
	.st100{fill:#443F41;}
	.st101{fill:#28306F;}
	.st102{fill:#71C49D;}
	.st103{fill:#F0C6A7;}
	.st104{fill:#DB8D82;}
	.st105{fill:#EFB7AC;}
	.st106{opacity:0.21;}
	.st107{fill-rule:evenodd;clip-rule:evenodd;fill:#A9196E;}
	.st108{fill-rule:evenodd;clip-rule:evenodd;fill:#FBE42C;}
	.st109{fill:#FBE42C;}
	.st110{fill:#A9196E;}
	.st111{fill:#7FC143;}
	.st112{clip-path:url(#SVGID_45_);fill:#7FC143;}
	.st113{clip-path:url(#SVGID_51_);fill:#7FC143;}
	.st114{fill:#243F8F;}
	.st115{fill:#EF4E2F;}
	.st116{fill:#010007;}
	.st117{fill:#0C0D37;}
	.st118{fill:#FBAF2D;}
	.st119{fill:url(#SVGID_54_);}
	.st120{fill-rule:evenodd;clip-rule:evenodd;fill:#FFFFFF;}
	.st121{fill:#1D4690;}
	.st122{fill:#3AA949;}
	.st123{fill:#F37A24;}
	.st124{fill:none;stroke:#F37A24;stroke-width:3.7145;stroke-miterlimit:10;}
	.st125{fill:#3AA949;stroke:#FFFFFF;stroke-width:1.3104;stroke-miterlimit:10;}
	.st126{fill:#46A2BB;}
	.st127{fill:#7153A0;}
	.st128{fill:#27316C;}
	.st129{fill:#2C65AE;}
	.st130{fill:#452D7A;}
	.st131{fill:#442C7A;}
	.st132{fill:#1A2642;}
	.st133{fill-rule:evenodd;clip-rule:evenodd;fill:#567EB8;}
	.st134{fill-rule:evenodd;clip-rule:evenodd;fill:#6A7EB8;}
	.st135{fill-rule:evenodd;clip-rule:evenodd;fill:#6A7EB9;}
	.st136{fill-rule:evenodd;clip-rule:evenodd;fill:#EE3C2D;}
	.st137{fill-rule:evenodd;clip-rule:evenodd;fill:#EF493F;}
	.st138{fill-rule:evenodd;clip-rule:evenodd;fill:#ED2C24;}
	.st139{fill-rule:evenodd;clip-rule:evenodd;fill:#E9AE28;}
	.st140{fill-rule:evenodd;clip-rule:evenodd;fill:#D69B28;}
	.st141{fill-rule:evenodd;clip-rule:evenodd;fill:#FCB729;}
	.st142{fill-rule:evenodd;clip-rule:evenodd;fill:#409E47;}
	.st143{fill-rule:evenodd;clip-rule:evenodd;fill:#4BB450;}
	.st144{fill-rule:evenodd;clip-rule:evenodd;fill:#338440;}
	.st145{fill:#C09C36;}
	.st146{fill:#1E552A;}
	.st147{clip-path:url(#SVGID_56_);fill:url(#SVGID_57_);}
	.st148{fill:#023A1E;}
	.st149{fill:#FFFFFA;}
	.st150{fill:#0D4F28;}
	.st151{fill:#0E5128;}
	.st152{fill:#0D4E27;}
	.st153{fill:#0E5229;}
	.st154{fill:#0E4823;}
	.st155{fill:#0E4C27;}
	.st156{fill:#F3F6E0;}
	.st157{fill:#0E4F28;}
	.st158{fill:#114823;}
	.st159{fill:#105229;}
	.st160{fill:#0A4A2B;}
	.st161{fill:#134F27;}
	.st162{fill:#165229;}
	.st163{fill:#0D5029;}
	.st164{fill:#0B4E2B;}
	.st165{fill:#105028;}
	.st166{fill:#0A492A;}
	.st167{fill:#E9F3E2;}
	.st168{fill:#144D26;}
	.st169{fill:#185C2F;}
	.st170{fill:#0F5028;}
	.st171{fill:#F3F8EA;}
	.st172{fill:#114D26;}
	.st173{fill:#70A685;}
	.st174{fill:#0D4F2A;}
	.st175{fill:#094A24;}
	.st176{fill:#0F4F27;}
	.st177{fill:#0A4C26;}
	.st178{fill:#A2D29A;}
	.st179{fill:#4D7E44;}
	.st180{fill:#E8F2E1;}
	.st181{fill:#EDF5E5;}
	.st182{fill:#E6F2E7;}
	.st183{fill:#E5F1DC;}
	.st184{fill:#E9F3E3;}
	.st185{fill:#E9F3E5;}
	.st186{fill:#E5F1DB;}
	.st187{fill:#D8ECD7;}
	.st188{fill:#D9EBD4;}
	.st189{fill:#E2F0DE;}
	.st190{fill:#366B4B;}
	.st191{fill:#5D6162;}
	.st192{fill:#212E5F;}
	.st193{fill:#DD1F26;}
	.st194{clip-path:url(#SVGID_59_);}
	.st195{fill:#23396F;}
	.st196{fill:#7FC24E;}
	.st197{clip-path:url(#SVGID_59_);fill:#23396F;}
	.st198{clip-path:url(#SVGID_59_);fill:#7FC24E;}
	.st199{fill:#91CEA4;}
	.st200{fill:#90CEA4;}
	.st201{fill:#C02026;}
	.st202{fill:#362E7E;}
</style>
<g>
	<g>
		<ellipse class="st34" cx="44.98" cy="63.74" rx="10.35" ry="2.82"/>
	</g>
	
		<radialGradient id="SVGID_1_" cx="240.1037" cy="18103.2734" r="0.302" gradientTransform="matrix(52.2923 0 0 6.9164 -12510.4766 -125145.4844)" gradientUnits="userSpaceOnUse">
		<stop  offset="0.107" style="stop-color:#393C3E"/>
		<stop  offset="0.1812" style="stop-color:#616365"/>
		<stop  offset="0.2729" style="stop-color:#8B8C8E"/>
		<stop  offset="0.3698" style="stop-color:#AFB0B1"/>
		<stop  offset="0.4711" style="stop-color:#CCCDCD"/>
		<stop  offset="0.5783" style="stop-color:#E2E3E3"/>
		<stop  offset="0.6939" style="stop-color:#F3F3F3"/>
		<stop  offset="0.8242" style="stop-color:#FCFCFC"/>
		<stop  offset="1" style="stop-color:#FFFFFF"/>
	</radialGradient>
	<path style="opacity:0.3;fill:url(#SVGID_1_);" d="M60.88,63.91c0,1.15-7.07,2.09-15.79,2.09c-8.72,0-15.79-0.93-15.79-2.09
		c0-1.15,7.07-2.09,15.79-2.09C53.81,61.82,60.88,62.76,60.88,63.91z"/>
	<g>
		<path class="st36" d="M57.08,35.88c0-6.59-5.34-11.93-11.93-11.93h0c-6.59,0-11.93,5.34-11.93,11.93v0c0,1.57,0.31,3.08,0.86,4.45
			h5.19c-0.94-1.24-1.5-2.78-1.5-4.45v0c0-4.07,3.3-7.37,7.37-7.37h0c4.07,0,7.37,3.3,7.37,7.37v0c0,1.67-0.56,3.22-1.5,4.45h5.01
			h0.18C56.78,38.96,57.08,37.46,57.08,35.88L57.08,35.88z"/>
		<g>
			<path class="st36" d="M45.6,48.03c2.38,0.14,4.48,1.34,5.82,3.13l4.63-9.29C53.9,45.45,50.04,47.88,45.6,48.03z"/>
			<path class="st36" d="M45.6,48.03c-0.15,0.01-0.29,0.01-0.44,0.01h0c-0.16,0-0.32-0.01-0.48-0.01c-2.37,0.14-4.45,1.32-5.8,3.1
				c3.13,6.27,6.28,12.59,6.28,12.6c0,0,0,0,0,0l6.26-12.56C50.08,49.37,47.98,48.17,45.6,48.03z"/>
			<path class="st36" d="M45.16,48.04c0.15,0,0.3-0.01,0.44-0.01c-0.15-0.01-0.31-0.01-0.47-0.01h0c-0.15,0-0.3,0.01-0.45,0.01
				C44.84,48.04,45,48.04,45.16,48.04L45.16,48.04z"/>
		</g>
		<g>
			<path class="st1" d="M38.18,44.36c-0.02,0.09-0.05,0.15-0.1,0.19c-0.05,0.04-0.1,0.05-0.15,0.03c-0.05-0.02-0.09-0.07-0.12-0.16
				c-0.03-0.09-0.02-0.21,0.01-0.37c0.05-0.26,0.19-0.48,0.4-0.66c0.21-0.18,0.47-0.33,0.79-0.45c0.31-0.12,0.66-0.22,1.05-0.3
				c0.39-0.08,0.79-0.15,1.21-0.21c0.14-0.3,0.25-0.54,0.33-0.73c0.07-0.19,0.09-0.29,0.06-0.32c-0.04-0.03-0.02-0.07,0.08-0.14
				c0.1-0.07,0.21-0.12,0.35-0.16c0.14-0.04,0.27-0.04,0.41-0.02c0.14,0.03,0.23,0.12,0.27,0.29c0.02,0.08,0.02,0.19-0.03,0.34
				c-0.04,0.15-0.1,0.33-0.19,0.52c0.3-0.06,0.59-0.13,0.89-0.21c0.3-0.08,0.57-0.17,0.81-0.26c0.24-0.09,0.44-0.18,0.59-0.27
				c0.15-0.09,0.23-0.17,0.24-0.25c0.01-0.09,0.05-0.14,0.11-0.16c0.06-0.02,0.12-0.01,0.18,0.03c0.06,0.03,0.09,0.09,0.11,0.16
				c0.02,0.07-0.02,0.15-0.11,0.24c-0.1,0.1-0.25,0.21-0.45,0.32c-0.2,0.11-0.44,0.23-0.71,0.34c-0.27,0.12-0.57,0.23-0.9,0.34
				c-0.33,0.11-0.68,0.21-1.03,0.31c-0.1,0.24-0.23,0.52-0.39,0.82c-0.16,0.31-0.33,0.62-0.52,0.95c-0.19,0.33-0.38,0.66-0.57,1
				c-0.19,0.34-0.37,0.66-0.53,0.96c-0.16,0.31-0.29,0.59-0.4,0.84c-0.11,0.26-0.17,0.47-0.19,0.63c-0.03,0.23,0.03,0.33,0.18,0.29
				c0.13-0.02,0.28-0.11,0.47-0.27c0.18-0.16,0.38-0.37,0.58-0.63c0.21-0.26,0.42-0.55,0.64-0.87c0.22-0.32,0.43-0.66,0.62-1
				c0-0.02,0.01-0.03,0.01-0.04c0.03-0.06,0.07-0.15,0.14-0.28c0.07-0.12,0.13-0.26,0.2-0.39c0.07-0.14,0.14-0.27,0.2-0.4
				c0.07-0.13,0.11-0.24,0.14-0.32c-0.15-0.03-0.27-0.1-0.37-0.22c-0.1-0.12-0.14-0.25-0.12-0.4c0.02-0.19,0.09-0.36,0.22-0.52
				c0.12-0.16,0.29-0.26,0.51-0.31c0.14-0.03,0.25-0.01,0.33,0.07c0.09,0.08,0.13,0.18,0.12,0.32c-0.01,0.08-0.03,0.19-0.05,0.33
				c-0.03,0.14-0.06,0.26-0.09,0.36c0.03,0.02,0.08,0.02,0.13,0.01c0.06-0.01,0.12-0.02,0.19-0.04c0.15-0.03,0.27-0.08,0.36-0.13
				c0.09-0.05,0.16-0.1,0.23-0.15c0.06-0.05,0.13-0.09,0.19-0.14c0.06-0.04,0.15-0.08,0.25-0.1c0.14-0.03,0.27-0.03,0.4,0
				c0.13,0.03,0.21,0.12,0.26,0.28c0.04,0.16,0.01,0.38-0.1,0.65c-0.11,0.27-0.25,0.56-0.43,0.87c-0.18,0.31-0.36,0.61-0.56,0.92
				c-0.2,0.31-0.36,0.58-0.49,0.81c-0.13,0.24-0.22,0.42-0.25,0.54c-0.03,0.13,0.03,0.17,0.19,0.12c0.06-0.02,0.15-0.09,0.27-0.2
				c0.12-0.12,0.25-0.26,0.39-0.43c0.14-0.17,0.3-0.36,0.45-0.57c0.16-0.21,0.31-0.41,0.44-0.62c0.14-0.2,0.26-0.39,0.37-0.57
				c0.11-0.18,0.19-0.33,0.25-0.44c0.03-0.05,0.06-0.09,0.11-0.11c0.05-0.02,0.09-0.03,0.13-0.03c0.04,0,0.07,0.02,0.09,0.05
				c0.02,0.03,0.01,0.07-0.02,0.12c-0.07,0.12-0.16,0.27-0.28,0.48c-0.12,0.2-0.26,0.42-0.42,0.66c-0.16,0.24-0.33,0.48-0.52,0.72
				c-0.19,0.24-0.37,0.47-0.56,0.68c-0.19,0.21-0.38,0.39-0.57,0.54c-0.19,0.15-0.36,0.24-0.53,0.28c-0.14,0.04-0.25,0.04-0.34,0.01
				c-0.09-0.03-0.16-0.09-0.21-0.18c-0.05-0.09-0.08-0.2-0.08-0.33c0-0.14,0.01-0.29,0.05-0.46c0.05-0.24,0.14-0.51,0.28-0.8
				c0.13-0.29,0.27-0.58,0.42-0.86c0.15-0.29,0.29-0.55,0.43-0.81c0.14-0.25,0.25-0.46,0.32-0.63c-0.15,0.08-0.31,0.15-0.49,0.2
				c-0.18,0.05-0.36,0.08-0.53,0.08c-0.02,0.04-0.05,0.11-0.11,0.22c-0.05,0.1-0.11,0.22-0.18,0.34c-0.06,0.12-0.13,0.25-0.2,0.38
				c-0.07,0.13-0.13,0.24-0.19,0.34c0,0.01,0,0.01-0.01,0.02c0,0.01-0.01,0.01-0.01,0.02c-0.24,0.4-0.48,0.8-0.73,1.18
				c-0.25,0.38-0.5,0.72-0.76,1.03c-0.25,0.31-0.49,0.56-0.72,0.76c-0.23,0.2-0.44,0.32-0.62,0.37c-0.12,0.03-0.24,0.05-0.38,0.07
				c-0.14,0.02-0.27,0.01-0.4-0.02c-0.13-0.03-0.23-0.1-0.3-0.2c-0.07-0.1-0.1-0.27-0.08-0.49c0.04-0.36,0.16-0.76,0.35-1.2
				c0.19-0.44,0.41-0.88,0.66-1.33c0.24-0.45,0.49-0.89,0.74-1.32c0.25-0.43,0.45-0.82,0.61-1.17c-0.35,0.08-0.69,0.17-1.01,0.25
				c-0.32,0.08-0.6,0.18-0.85,0.28c-0.25,0.1-0.45,0.21-0.6,0.32C38.29,44.09,38.21,44.21,38.18,44.36z"/>
			<path class="st1" d="M48.33,44.49c-0.12,0.2-0.26,0.42-0.42,0.66c-0.16,0.24-0.33,0.48-0.52,0.72c-0.19,0.24-0.37,0.47-0.56,0.68
				c-0.19,0.21-0.38,0.39-0.57,0.54c-0.19,0.15-0.36,0.24-0.53,0.28c-0.14,0.04-0.25,0.04-0.34,0.01c-0.09-0.03-0.16-0.09-0.21-0.18
				c-0.05-0.09-0.08-0.2-0.08-0.33c0-0.14,0.01-0.29,0.05-0.46c0.05-0.21,0.12-0.43,0.23-0.67c0.1-0.24,0.22-0.49,0.34-0.74
				c0.13-0.25,0.25-0.49,0.38-0.72c0.13-0.23,0.24-0.44,0.34-0.63c0.1-0.19,0.17-0.34,0.21-0.46c0.04-0.12,0.04-0.2,0-0.23
				c-0.04-0.03-0.02-0.07,0.08-0.14c0.1-0.07,0.21-0.12,0.35-0.16c0.14-0.04,0.27-0.04,0.41-0.02c0.14,0.03,0.23,0.12,0.27,0.29
				c0.04,0.16,0.01,0.38-0.1,0.65c-0.11,0.27-0.25,0.56-0.43,0.87c-0.18,0.31-0.36,0.61-0.56,0.92c-0.2,0.31-0.36,0.58-0.49,0.81
				c-0.13,0.24-0.22,0.42-0.25,0.54c-0.03,0.13,0.03,0.17,0.19,0.12c0.07-0.02,0.16-0.09,0.28-0.21c0.11-0.12,0.24-0.26,0.39-0.43
				c0.14-0.17,0.29-0.36,0.45-0.57c0.15-0.21,0.3-0.41,0.44-0.62c0.14-0.2,0.27-0.4,0.38-0.58c0.11-0.18,0.19-0.33,0.25-0.44
				c0.03-0.05,0.06-0.09,0.11-0.11c0.05-0.02,0.09-0.03,0.13-0.03c0.04,0,0.07,0.02,0.09,0.05c0.02,0.03,0.01,0.07-0.02,0.12
				C48.55,44.13,48.45,44.28,48.33,44.49z M48.05,42.06c0.05-0.08,0.09-0.16,0.15-0.25c0.05-0.08,0.1-0.16,0.14-0.24
				c0.04-0.08,0.07-0.13,0.07-0.17c0.02-0.15-0.02-0.26-0.11-0.34c-0.09-0.07-0.2-0.12-0.32-0.14c-0.12-0.02-0.23-0.02-0.33,0.01
				c-0.1,0.02-0.15,0.06-0.16,0.1c0,0.04-0.03,0.09-0.08,0.17c-0.05,0.08-0.1,0.16-0.16,0.25c-0.06,0.09-0.11,0.18-0.16,0.25
				c-0.05,0.08-0.07,0.14-0.08,0.18c-0.02,0.15,0.02,0.26,0.12,0.34c0.1,0.07,0.21,0.12,0.33,0.14c0.12,0.02,0.23,0.01,0.34-0.01
				c0.11-0.03,0.17-0.06,0.17-0.11C47.98,42.2,48.01,42.14,48.05,42.06z"/>
			<path class="st1" d="M49.34,45.83c-0.01,0.12-0.08,0.21-0.2,0.29c0.03,0.06,0.09,0.09,0.16,0.07c0.09-0.01,0.19-0.08,0.32-0.19
				s0.27-0.26,0.41-0.44c0.15-0.19,0.31-0.41,0.47-0.66c0.17-0.26,0.34-0.54,0.51-0.86c0.11-0.2,0.2-0.41,0.28-0.63
				c0.08-0.22,0.14-0.43,0.17-0.62c0.03-0.19,0.03-0.35,0-0.47c-0.03-0.13-0.11-0.19-0.24-0.19c-0.11,0-0.23,0.05-0.37,0.14
				c-0.13,0.09-0.27,0.21-0.41,0.36c-0.14,0.15-0.28,0.32-0.42,0.51c-0.14,0.19-0.28,0.39-0.42,0.59c-0.17,0.35-0.37,0.73-0.59,1.14
				c-0.23,0.41-0.46,0.83-0.7,1.25c-0.24,0.43-0.48,0.84-0.7,1.24c-0.23,0.4-0.43,0.77-0.6,1.1c-0.17,0.33-0.31,0.61-0.4,0.83
				c-0.09,0.22-0.12,0.37-0.09,0.43c0.02,0.04-0.01,0.1-0.08,0.17c-0.08,0.07-0.17,0.12-0.28,0.15c-0.11,0.03-0.22,0.02-0.34-0.01
				c-0.11-0.04-0.19-0.14-0.23-0.31c-0.03-0.1,0-0.28,0.09-0.53c0.09-0.26,0.22-0.56,0.39-0.92c0.17-0.35,0.36-0.74,0.58-1.16
				c0.22-0.42,0.44-0.84,0.67-1.26c0.23-0.43,0.45-0.84,0.66-1.24c0.21-0.4,0.4-0.76,0.56-1.07c0.16-0.31,0.28-0.57,0.36-0.78
				c0.08-0.2,0.1-0.32,0.07-0.34c-0.04-0.03-0.02-0.07,0.08-0.14c0.1-0.07,0.21-0.12,0.35-0.16c0.14-0.04,0.28-0.04,0.41-0.02
				c0.14,0.03,0.22,0.12,0.27,0.29c0.01,0.06,0.01,0.16-0.02,0.29c0.29-0.34,0.59-0.61,0.91-0.81c0.32-0.2,0.66-0.28,1.03-0.24
				c0.26,0.04,0.44,0.14,0.54,0.29c0.1,0.16,0.15,0.34,0.14,0.56c0,0.22-0.05,0.45-0.14,0.7c-0.09,0.25-0.19,0.49-0.3,0.71
				c-0.22,0.43-0.45,0.81-0.7,1.14c-0.25,0.32-0.5,0.59-0.75,0.81c0.35-0.15,0.66-0.35,0.94-0.6c0.28-0.25,0.55-0.53,0.82-0.84
				c0.25-0.29,0.48-0.58,0.68-0.86c0.21-0.29,0.38-0.54,0.51-0.77c0.03-0.05,0.06-0.08,0.1-0.11s0.09-0.03,0.15-0.01
				c0.04,0.01,0.07,0.04,0.08,0.08c0.01,0.04,0,0.08-0.03,0.12c-0.19,0.33-0.41,0.67-0.66,1c-0.24,0.33-0.51,0.65-0.79,0.97
				c-0.19,0.21-0.38,0.41-0.59,0.59c-0.21,0.19-0.43,0.35-0.67,0.5c-0.24,0.15-0.51,0.27-0.8,0.38c-0.29,0.1-0.61,0.18-0.96,0.22
				l-0.15,0.04c-0.08,0.01-0.17,0.02-0.25,0.02c-0.09,0-0.17-0.01-0.24-0.04c-0.07-0.03-0.13-0.08-0.18-0.15
				c-0.05-0.07-0.06-0.16-0.05-0.28c0.01-0.13,0.05-0.23,0.12-0.28c0.07-0.08,0.15-0.12,0.23-0.14c0.08-0.02,0.15-0.01,0.21,0.02
				C49.33,45.69,49.35,45.75,49.34,45.83z"/>
		</g>
		<g>
			<path class="st34" d="M37.87,44.3c-0.02,0.09-0.05,0.15-0.1,0.19c-0.05,0.04-0.1,0.05-0.15,0.03c-0.05-0.02-0.09-0.07-0.12-0.16
				c-0.03-0.09-0.02-0.21,0.01-0.37c0.05-0.26,0.19-0.48,0.4-0.66c0.21-0.18,0.47-0.33,0.79-0.45c0.31-0.12,0.66-0.22,1.05-0.3
				c0.39-0.08,0.79-0.15,1.21-0.21c0.14-0.3,0.25-0.54,0.33-0.73c0.07-0.19,0.09-0.29,0.06-0.32c-0.04-0.03-0.02-0.07,0.08-0.14
				c0.1-0.07,0.21-0.12,0.35-0.16c0.14-0.04,0.27-0.04,0.41-0.02c0.14,0.03,0.23,0.12,0.27,0.29c0.02,0.08,0.02,0.19-0.03,0.34
				c-0.04,0.15-0.1,0.33-0.19,0.52c0.3-0.06,0.59-0.13,0.89-0.21c0.3-0.08,0.57-0.17,0.81-0.26c0.24-0.09,0.44-0.18,0.59-0.27
				c0.15-0.09,0.23-0.17,0.24-0.25c0.01-0.09,0.05-0.14,0.11-0.16c0.06-0.02,0.12-0.01,0.18,0.03c0.06,0.03,0.09,0.09,0.11,0.16
				c0.02,0.07-0.02,0.15-0.11,0.24c-0.1,0.1-0.25,0.21-0.45,0.32c-0.2,0.11-0.44,0.23-0.71,0.34c-0.27,0.12-0.57,0.23-0.9,0.34
				c-0.33,0.11-0.68,0.21-1.03,0.31c-0.1,0.24-0.23,0.52-0.39,0.82c-0.16,0.31-0.33,0.62-0.52,0.95c-0.19,0.33-0.38,0.66-0.57,1
				c-0.19,0.34-0.37,0.66-0.53,0.96c-0.16,0.31-0.29,0.59-0.4,0.84c-0.11,0.26-0.17,0.47-0.19,0.63c-0.03,0.23,0.03,0.33,0.18,0.29
				c0.13-0.02,0.28-0.11,0.47-0.27c0.18-0.16,0.38-0.37,0.58-0.63c0.21-0.26,0.42-0.55,0.64-0.87c0.22-0.32,0.43-0.66,0.62-1
				c0-0.02,0.01-0.03,0.01-0.04c0.03-0.06,0.07-0.15,0.14-0.28c0.07-0.12,0.13-0.26,0.2-0.39c0.07-0.14,0.14-0.27,0.2-0.4
				c0.07-0.13,0.12-0.24,0.14-0.32c-0.15-0.03-0.27-0.1-0.37-0.22c-0.1-0.12-0.14-0.25-0.12-0.4c0.02-0.19,0.09-0.36,0.22-0.52
				c0.12-0.16,0.29-0.26,0.51-0.31c0.14-0.03,0.25-0.01,0.33,0.07c0.09,0.08,0.13,0.18,0.12,0.32c-0.01,0.08-0.03,0.19-0.05,0.33
				c-0.03,0.14-0.06,0.26-0.09,0.36c0.03,0.02,0.08,0.02,0.13,0.01c0.06-0.01,0.12-0.02,0.19-0.04c0.15-0.03,0.27-0.08,0.36-0.13
				c0.09-0.05,0.16-0.1,0.23-0.15c0.06-0.05,0.13-0.09,0.19-0.14c0.06-0.04,0.15-0.08,0.25-0.1c0.14-0.03,0.27-0.03,0.4,0
				c0.13,0.03,0.21,0.12,0.26,0.28c0.04,0.16,0.01,0.38-0.1,0.65c-0.11,0.27-0.25,0.56-0.43,0.87c-0.18,0.31-0.36,0.61-0.56,0.92
				c-0.2,0.31-0.36,0.58-0.49,0.81c-0.13,0.24-0.22,0.42-0.25,0.54c-0.03,0.13,0.03,0.17,0.19,0.12c0.06-0.02,0.15-0.09,0.27-0.2
				c0.12-0.12,0.25-0.26,0.39-0.43c0.14-0.17,0.3-0.36,0.45-0.57c0.16-0.21,0.31-0.41,0.44-0.62c0.14-0.2,0.26-0.39,0.37-0.57
				c0.11-0.18,0.19-0.33,0.25-0.44c0.03-0.05,0.06-0.09,0.11-0.11c0.05-0.02,0.09-0.03,0.13-0.03c0.04,0,0.07,0.02,0.09,0.05
				C46,44.42,46,44.46,45.97,44.5c-0.07,0.12-0.16,0.27-0.28,0.48c-0.12,0.2-0.26,0.42-0.42,0.66c-0.16,0.24-0.33,0.48-0.52,0.72
				c-0.19,0.24-0.37,0.47-0.56,0.68c-0.19,0.21-0.38,0.39-0.57,0.54c-0.19,0.15-0.36,0.24-0.53,0.28c-0.14,0.04-0.25,0.04-0.34,0.01
				c-0.09-0.03-0.16-0.09-0.21-0.18c-0.05-0.09-0.08-0.2-0.08-0.33c0-0.14,0.01-0.29,0.05-0.46c0.05-0.24,0.14-0.51,0.28-0.8
				c0.13-0.29,0.27-0.58,0.42-0.86c0.15-0.29,0.29-0.55,0.43-0.81c0.14-0.25,0.25-0.46,0.32-0.63c-0.15,0.08-0.31,0.15-0.49,0.2
				c-0.18,0.05-0.36,0.08-0.53,0.08c-0.02,0.04-0.05,0.11-0.11,0.22c-0.05,0.1-0.11,0.22-0.18,0.34c-0.06,0.12-0.13,0.25-0.2,0.38
				c-0.07,0.13-0.13,0.24-0.19,0.34c0,0.01,0,0.01-0.01,0.02c0,0.01-0.01,0.01-0.01,0.02c-0.24,0.4-0.48,0.8-0.73,1.18
				c-0.25,0.38-0.5,0.72-0.76,1.03c-0.25,0.31-0.49,0.56-0.72,0.76c-0.23,0.2-0.44,0.32-0.62,0.37c-0.12,0.03-0.24,0.05-0.38,0.07
				c-0.14,0.02-0.27,0.01-0.4-0.02c-0.13-0.03-0.23-0.1-0.3-0.2c-0.07-0.1-0.1-0.27-0.08-0.49c0.04-0.36,0.16-0.76,0.35-1.2
				c0.19-0.44,0.41-0.88,0.66-1.33c0.24-0.45,0.49-0.89,0.74-1.32c0.25-0.43,0.45-0.82,0.61-1.17c-0.35,0.08-0.69,0.17-1.01,0.25
				c-0.32,0.08-0.6,0.18-0.85,0.28c-0.25,0.1-0.45,0.21-0.6,0.32C37.98,44.03,37.89,44.16,37.87,44.3z"/>
			<path class="st34" d="M48.01,44.43c-0.12,0.2-0.26,0.42-0.42,0.66c-0.16,0.24-0.33,0.48-0.52,0.72
				c-0.19,0.24-0.37,0.47-0.56,0.68c-0.19,0.21-0.38,0.39-0.57,0.54c-0.19,0.15-0.36,0.24-0.53,0.28c-0.14,0.04-0.25,0.04-0.34,0.01
				c-0.09-0.03-0.16-0.09-0.21-0.18c-0.05-0.09-0.08-0.2-0.08-0.33c0-0.14,0.01-0.29,0.05-0.46c0.05-0.21,0.12-0.43,0.23-0.67
				c0.1-0.24,0.22-0.49,0.34-0.74c0.13-0.25,0.25-0.49,0.38-0.72c0.13-0.23,0.24-0.44,0.34-0.63c0.1-0.19,0.17-0.34,0.21-0.46
				c0.04-0.12,0.04-0.2,0-0.23c-0.04-0.03-0.02-0.07,0.08-0.14c0.1-0.07,0.21-0.12,0.35-0.16c0.14-0.04,0.27-0.04,0.41-0.02
				c0.14,0.03,0.23,0.12,0.27,0.29c0.04,0.16,0.01,0.38-0.1,0.65c-0.11,0.27-0.25,0.56-0.43,0.87c-0.18,0.31-0.36,0.61-0.56,0.92
				c-0.2,0.31-0.36,0.58-0.49,0.81c-0.13,0.24-0.22,0.42-0.25,0.54c-0.03,0.13,0.03,0.17,0.19,0.12c0.07-0.02,0.16-0.09,0.28-0.21
				c0.11-0.12,0.24-0.26,0.39-0.43c0.14-0.17,0.29-0.36,0.45-0.57c0.15-0.21,0.3-0.41,0.44-0.62c0.14-0.2,0.27-0.4,0.38-0.58
				c0.11-0.18,0.19-0.33,0.25-0.44c0.03-0.05,0.06-0.09,0.11-0.11c0.05-0.02,0.09-0.03,0.13-0.03c0.04,0,0.07,0.02,0.09,0.05
				c0.02,0.03,0.01,0.07-0.02,0.12C48.23,44.07,48.13,44.23,48.01,44.43z M47.74,42.01c0.05-0.08,0.09-0.16,0.15-0.25
				c0.05-0.08,0.1-0.16,0.14-0.24c0.04-0.08,0.07-0.13,0.07-0.17c0.02-0.15-0.02-0.26-0.11-0.34c-0.09-0.07-0.2-0.12-0.32-0.14
				c-0.12-0.02-0.23-0.02-0.33,0.01c-0.1,0.02-0.15,0.06-0.16,0.1c0,0.04-0.03,0.09-0.08,0.17c-0.05,0.08-0.1,0.16-0.16,0.25
				c-0.06,0.09-0.11,0.18-0.16,0.25c-0.05,0.08-0.07,0.14-0.08,0.18c-0.02,0.15,0.02,0.26,0.12,0.34c0.1,0.07,0.21,0.12,0.33,0.14
				c0.12,0.02,0.23,0.01,0.34-0.01c0.11-0.03,0.17-0.06,0.17-0.11C47.67,42.15,47.69,42.09,47.74,42.01z"/>
			<path class="st34" d="M49.03,45.77c-0.01,0.12-0.08,0.21-0.2,0.29c0.03,0.06,0.09,0.09,0.16,0.07c0.09-0.01,0.19-0.08,0.32-0.19
				c0.13-0.11,0.27-0.26,0.41-0.44c0.15-0.19,0.31-0.41,0.47-0.66c0.17-0.26,0.34-0.54,0.51-0.86c0.11-0.2,0.2-0.41,0.28-0.63
				c0.08-0.22,0.14-0.43,0.17-0.62c0.03-0.19,0.03-0.35,0-0.47c-0.03-0.13-0.11-0.19-0.24-0.19c-0.11,0-0.23,0.05-0.37,0.14
				c-0.13,0.09-0.27,0.21-0.41,0.36c-0.14,0.15-0.28,0.32-0.42,0.51c-0.14,0.19-0.28,0.39-0.42,0.59c-0.17,0.35-0.37,0.73-0.59,1.14
				c-0.23,0.41-0.46,0.83-0.7,1.25c-0.24,0.43-0.48,0.84-0.7,1.24c-0.23,0.4-0.43,0.77-0.6,1.1c-0.17,0.33-0.31,0.61-0.4,0.83
				c-0.09,0.22-0.12,0.37-0.09,0.43c0.02,0.04-0.01,0.1-0.08,0.17c-0.08,0.07-0.17,0.12-0.28,0.15c-0.11,0.03-0.22,0.02-0.34-0.01
				c-0.11-0.04-0.19-0.14-0.23-0.31c-0.03-0.1,0-0.28,0.09-0.53c0.09-0.26,0.22-0.56,0.39-0.92c0.17-0.35,0.36-0.74,0.58-1.16
				c0.22-0.42,0.44-0.84,0.67-1.26c0.23-0.43,0.45-0.84,0.66-1.24c0.21-0.4,0.4-0.76,0.56-1.07c0.16-0.31,0.28-0.57,0.36-0.78
				c0.08-0.2,0.1-0.32,0.07-0.34c-0.04-0.03-0.02-0.07,0.08-0.14c0.1-0.07,0.21-0.12,0.35-0.16c0.14-0.04,0.28-0.04,0.41-0.02
				c0.14,0.03,0.22,0.12,0.27,0.29c0.01,0.06,0.01,0.16-0.02,0.29c0.29-0.34,0.59-0.61,0.91-0.81c0.32-0.2,0.66-0.28,1.03-0.24
				c0.26,0.04,0.44,0.14,0.54,0.29c0.1,0.16,0.15,0.34,0.14,0.56c0,0.22-0.05,0.45-0.14,0.7c-0.09,0.25-0.19,0.49-0.3,0.71
				c-0.22,0.43-0.45,0.81-0.7,1.14c-0.25,0.32-0.5,0.59-0.75,0.81c0.35-0.15,0.66-0.35,0.94-0.6c0.28-0.25,0.55-0.53,0.82-0.84
				c0.25-0.29,0.48-0.58,0.68-0.86c0.21-0.29,0.38-0.54,0.51-0.77c0.03-0.05,0.06-0.08,0.1-0.11s0.09-0.03,0.15-0.01
				c0.04,0.01,0.07,0.04,0.08,0.08c0.01,0.04,0,0.08-0.03,0.12c-0.19,0.33-0.41,0.67-0.66,1c-0.24,0.33-0.51,0.65-0.79,0.97
				c-0.19,0.21-0.38,0.41-0.59,0.59c-0.21,0.19-0.43,0.35-0.67,0.5c-0.24,0.15-0.51,0.27-0.8,0.38c-0.29,0.1-0.61,0.18-0.96,0.22
				l-0.15,0.04c-0.08,0.01-0.17,0.02-0.25,0.02c-0.09,0-0.17-0.01-0.24-0.04c-0.07-0.03-0.13-0.08-0.18-0.15
				c-0.05-0.07-0.06-0.16-0.05-0.28c0.01-0.13,0.05-0.23,0.12-0.28c0.07-0.08,0.15-0.12,0.23-0.14c0.08-0.02,0.15-0.01,0.21,0.02
				C49.01,45.64,49.03,45.7,49.03,45.77z"/>
		</g>
		<g>
			<path class="st34" d="M44.09,37.21c0-1.1,0.01-2.67,0.03-3.55h-0.04c-0.15,1.43-0.47,4.32-0.67,5.82h-1.18
				c-0.16-1.56-0.47-4.5-0.62-5.84h-0.04c0.02,0.84,0.05,2.39,0.05,3.62v2.22h-1.26v-7.14h2c0.19,1.36,0.4,3.14,0.48,4.11h0.03
				c0.11-1.03,0.35-2.53,0.58-4.11h1.99v7.14h-1.34V37.21z"/>
			<path class="st34" d="M47.8,36.39v3.1H46.4v-7.14h1.81c1.21,0,1.81,0.53,1.81,1.77v0.26c0,1.02-0.41,1.32-0.72,1.46
				c0.45,0.21,0.66,0.54,0.66,1.54c0,0.69-0.01,1.73,0.05,2.11h-1.35c-0.09-0.32-0.08-1.25-0.08-2.16c0-0.8-0.09-0.94-0.62-0.94
				H47.8z M47.8,35.3h0.17c0.47,0,0.66-0.14,0.66-0.81v-0.34c0-0.48-0.1-0.72-0.61-0.72H47.8V35.3z"/>
		</g>
	</g>
</g>
</svg>
