<?xml version="1.0" encoding="utf-8"?>
<!-- Generator: Adobe Illustrator 25.0.1, SVG Export Plug-In . SVG Version: 6.00 Build 0)  -->
<svg version="1.0" id="Layer_1" xmlns="http://www.w3.org/2000/svg" xmlns:xlink="http://www.w3.org/1999/xlink" x="0px" y="0px"
	 viewBox="0 0 59.4 24.05" style="enable-background:new 0 0 59.4 24.05;" xml:space="preserve">
<style type="text/css">
	.st0{fill:#000104;}
	.st1{fill:#FFFFFF;}
	.st2{fill:#EF493E;}
	.st3{opacity:0.6;fill-rule:evenodd;clip-rule:evenodd;fill:#FBBE43;}
	.st4{opacity:0.6;fill-rule:evenodd;clip-rule:evenodd;fill:#EF930E;}
	.st5{opacity:0.6;fill-rule:evenodd;clip-rule:evenodd;fill:#E67906;}
	.st6{fill:#9F8829;}
	.st7{fill:#3972A6;}
	.st8{fill:url(#SVGID_1_);stroke:#2B53A4;stroke-width:0.5;stroke-miterlimit:10;}
	.st9{fill:none;}
	.st10{fill:url(#SVGID_2_);}
	.st11{fill:url(#SVGID_3_);}
	.st12{fill:#B3B3B3;}
	.st13{fill:url(#SVGID_4_);}
	.st14{fill:url(#SVGID_5_);}
	.st15{fill:url(#SVGID_6_);}
	.st16{fill:#FFFFFF;stroke:#FFFFFF;stroke-width:0.25;stroke-miterlimit:10;}
	.st17{fill:#00001D;}
	.st18{fill:#4DA0C5;}
	.st19{fill:url(#SVGID_7_);}
	.st20{fill:#2E6A85;}
	.st21{fill:none;stroke:#144FA1;stroke-width:0.113;stroke-linejoin:round;stroke-miterlimit:10;}
	.st22{fill:#F27337;}
	.st23{fill:#8EB8D4;}
	.st24{fill:#F38056;}
	.st25{fill:#626365;}
	.st26{fill:#EF6D23;}
	.st27{fill:#284B82;}
	.st28{fill:#242956;}
	.st29{fill:#15142A;}
	.st30{fill:#84C343;}
	.st31{fill:#4CA1C6;}
	.st32{fill:#121617;}
	.st33{fill:#CF8966;}
	.st34{fill:#F37639;}
	.st35{opacity:0.3;fill:url(#SVGID_8_);}
	.st36{fill:#373277;}
	.st37{fill:#E61E25;}
	.st38{fill:#2555A5;}
	.st39{fill:#2E225E;}
	.st40{fill:#F8A425;}
	.st41{fill:#2058A7;}
	.st42{fill:none;stroke:#205AA8;stroke-width:0.156;stroke-miterlimit:10;}
	.st43{fill:#49A3C7;}
	.st44{fill-rule:evenodd;clip-rule:evenodd;}
	.st45{fill-rule:evenodd;clip-rule:evenodd;fill:url(#SVGID_9_);}
	.st46{fill-rule:evenodd;clip-rule:evenodd;fill:url(#SVGID_10_);}
	.st47{fill-rule:evenodd;clip-rule:evenodd;fill:url(#SVGID_11_);}
	.st48{fill:#1D2251;}
	.st49{fill:#2260AC;}
	.st50{fill:url(#SVGID_12_);}
	.st51{fill:#FFFFFC;}
	.st52{fill:#4C9FC5;}
	.st53{fill:#28306D;}
	.st54{fill:#4C9EC5;}
	.st55{fill:#28306E;}
	.st56{fill:#29306F;}
	.st57{fill:#F7F7FB;}
	.st58{fill:url(#SVGID_13_);}
	.st59{fill:url(#SVGID_14_);}
	.st60{fill:url(#SVGID_15_);}
	.st61{fill:url(#SVGID_16_);}
	.st62{fill:#10123C;}
	.st63{fill:#F5842C;}
	.st64{fill:#1F305E;}
	.st65{fill:#87BBD1;}
	.st66{fill:#203160;}
	.st67{fill:#235779;}
	.st68{fill:#359FA1;}
	.st69{fill:#A4D1A4;}
	.st70{fill:#B9DBBC;}
	.st71{fill:#C6DDCA;}
	.st72{fill:#662E14;}
	.st73{fill:#1D79A4;}
	.st74{fill:#C14B28;}
	.st75{fill:url(#SVGID_17_);}
	.st76{fill:url(#SVGID_18_);}
	.st77{fill:url(#SVGID_19_);}
	.st78{fill:url(#SVGID_20_);}
	.st79{fill:url(#SVGID_21_);}
	.st80{fill:url(#SVGID_22_);}
	.st81{fill:url(#SVGID_23_);}
	.st82{fill:url(#SVGID_24_);}
	.st83{fill:url(#SVGID_25_);}
	.st84{fill:url(#SVGID_26_);}
	.st85{fill:url(#SVGID_27_);}
	.st86{fill:url(#SVGID_28_);}
	.st87{fill:url(#SVGID_29_);}
	.st88{fill:url(#SVGID_30_);}
	.st89{fill:#1F164B;}
	.st90{clip-path:url(#SVGID_32_);fill:#253D97;}
	.st91{fill:url(#SVGID_33_);}
	.st92{fill:url(#SVGID_34_);}
	.st93{fill:url(#SVGID_35_);}
	.st94{fill:url(#SVGID_36_);}
	.st95{fill:url(#SVGID_37_);}
	.st96{fill:url(#SVGID_38_);}
	.st97{fill:url(#SVGID_39_);}
	.st98{fill:url(#SVGID_40_);}
	.st99{fill:url(#SVGID_41_);}
	.st100{fill:#443F41;}
	.st101{fill:#28306F;}
	.st102{fill:#71C49D;}
	.st103{fill:#F0C6A7;}
	.st104{fill:#DB8D82;}
	.st105{fill:#EFB7AC;}
	.st106{opacity:0.21;}
	.st107{fill-rule:evenodd;clip-rule:evenodd;fill:#A9196E;}
	.st108{fill-rule:evenodd;clip-rule:evenodd;fill:#FBE42C;}
	.st109{fill:#FBE42C;}
	.st110{fill:#A9196E;}
	.st111{fill:#7FC143;}
	.st112{clip-path:url(#SVGID_45_);fill:#7FC143;}
	.st113{clip-path:url(#SVGID_51_);fill:#7FC143;}
	.st114{fill:#243F8F;}
	.st115{fill:#EF4E2F;}
	.st116{fill:#010007;}
	.st117{fill:#0C0D37;}
	.st118{fill:#FBAF2D;}
	.st119{fill:url(#SVGID_54_);}
	.st120{fill-rule:evenodd;clip-rule:evenodd;fill:#FFFFFF;}
	.st121{fill:#1D4690;}
	.st122{fill:#3AA949;}
	.st123{fill:#F37A24;}
	.st124{fill:none;stroke:#F37A24;stroke-width:3.7145;stroke-miterlimit:10;}
	.st125{fill:#3AA949;stroke:#FFFFFF;stroke-width:1.3104;stroke-miterlimit:10;}
	.st126{fill:#46A2BB;}
	.st127{fill:#7153A0;}
	.st128{fill:#27316C;}
	.st129{fill:#2C65AE;}
	.st130{fill:#452D7A;}
	.st131{fill:#442C7A;}
	.st132{fill:#1A2642;}
	.st133{fill-rule:evenodd;clip-rule:evenodd;fill:#567EB8;}
	.st134{fill-rule:evenodd;clip-rule:evenodd;fill:#6A7EB8;}
	.st135{fill-rule:evenodd;clip-rule:evenodd;fill:#6A7EB9;}
	.st136{fill-rule:evenodd;clip-rule:evenodd;fill:#EE3C2D;}
	.st137{fill-rule:evenodd;clip-rule:evenodd;fill:#EF493F;}
	.st138{fill-rule:evenodd;clip-rule:evenodd;fill:#ED2C24;}
	.st139{fill-rule:evenodd;clip-rule:evenodd;fill:#E9AE28;}
	.st140{fill-rule:evenodd;clip-rule:evenodd;fill:#D69B28;}
	.st141{fill-rule:evenodd;clip-rule:evenodd;fill:#FCB729;}
	.st142{fill-rule:evenodd;clip-rule:evenodd;fill:#409E47;}
	.st143{fill-rule:evenodd;clip-rule:evenodd;fill:#4BB450;}
	.st144{fill-rule:evenodd;clip-rule:evenodd;fill:#338440;}
	.st145{fill:#C09C36;}
	.st146{fill:#1E552A;}
	.st147{clip-path:url(#SVGID_56_);fill:url(#SVGID_57_);}
	.st148{fill:#023A1E;}
	.st149{fill:#FFFFFA;}
	.st150{fill:#0D4F28;}
	.st151{fill:#0E5128;}
	.st152{fill:#0D4E27;}
	.st153{fill:#0E5229;}
	.st154{fill:#0E4823;}
	.st155{fill:#0E4C27;}
	.st156{fill:#F3F6E0;}
	.st157{fill:#0E4F28;}
	.st158{fill:#114823;}
	.st159{fill:#105229;}
	.st160{fill:#0A4A2B;}
	.st161{fill:#134F27;}
	.st162{fill:#165229;}
	.st163{fill:#0D5029;}
	.st164{fill:#0B4E2B;}
	.st165{fill:#105028;}
	.st166{fill:#0A492A;}
	.st167{fill:#E9F3E2;}
	.st168{fill:#144D26;}
	.st169{fill:#185C2F;}
	.st170{fill:#0F5028;}
	.st171{fill:#F3F8EA;}
	.st172{fill:#114D26;}
	.st173{fill:#70A685;}
	.st174{fill:#0D4F2A;}
	.st175{fill:#094A24;}
	.st176{fill:#0F4F27;}
	.st177{fill:#0A4C26;}
	.st178{fill:#A2D29A;}
	.st179{fill:#4D7E44;}
	.st180{fill:#E8F2E1;}
	.st181{fill:#EDF5E5;}
	.st182{fill:#E6F2E7;}
	.st183{fill:#E5F1DC;}
	.st184{fill:#E9F3E3;}
	.st185{fill:#E9F3E5;}
	.st186{fill:#E5F1DB;}
	.st187{fill:#D8ECD7;}
	.st188{fill:#D9EBD4;}
	.st189{fill:#E2F0DE;}
	.st190{fill:#366B4B;}
	.st191{fill:#5D6162;}
	.st192{fill:#212E5F;}
	.st193{fill:#DD1F26;}
	.st194{clip-path:url(#SVGID_59_);}
	.st195{fill:#23396F;}
	.st196{fill:#7FC24E;}
	.st197{clip-path:url(#SVGID_59_);fill:#23396F;}
	.st198{clip-path:url(#SVGID_59_);fill:#7FC24E;}
	.st199{fill:#91CEA4;}
	.st200{fill:#90CEA4;}
	.st201{fill:#C02026;}
	.st202{fill:#362E7E;}
</style>
<g>
	<g>
		<g>
			<path class="st0" d="M25.11,9.36c0.15,0.59,0.12,1.16-0.08,1.72c-0.21,0.56-0.46,1.07-0.76,1.53c-0.4,0.6-0.85,1.16-1.36,1.68
				c-0.51,0.52-1.05,1-1.63,1.44c-0.56,0.44-1.15,0.85-1.77,1.24c-0.61,0.39-1.24,0.75-1.88,1.07c-1.37,0.68-2.77,1.26-4.2,1.74
				c-1.43,0.48-2.89,0.87-4.37,1.17c-1.35,0.29-2.72,0.5-4.11,0.65c-1.39,0.14-2.77,0.2-4.15,0.16c-0.26-0.01-0.45-0.03-0.55-0.04
				s-0.18-0.04-0.24-0.08c-0.02-0.03,0.01-0.04,0.09-0.06s0.14-0.02,0.15-0.02c0.4-0.03,0.81-0.07,1.23-0.13
				c0.42-0.06,0.84-0.13,1.27-0.19c1.42-0.23,2.82-0.5,4.23-0.83c1.4-0.33,2.79-0.72,4.15-1.18c1.37-0.46,2.72-1.01,4.05-1.63
				c1.33-0.63,2.65-1.35,3.94-2.18c0.9-0.6,1.78-1.3,2.63-2.09c0.85-0.79,1.56-1.65,2.12-2.59c0.13-0.28,0.22-0.56,0.29-0.86
				c0.07-0.29,0.04-0.58-0.1-0.87c-0.11-0.24-0.26-0.44-0.44-0.6c-0.18-0.16-0.39-0.3-0.61-0.4c-0.23-0.11-0.46-0.19-0.7-0.26
				c-0.24-0.07-0.48-0.12-0.7-0.16c-1.04-0.16-2.08-0.19-3.12-0.08c-1.04,0.11-2.06,0.29-3.06,0.54c-0.68,0.79-1.36,1.57-2.05,2.34
				c-0.69,0.77-1.37,1.54-2.05,2.3c-0.04,0.04-0.16,0.17-0.36,0.4c-0.2,0.23-0.44,0.49-0.71,0.8c-0.28,0.31-0.57,0.63-0.89,0.98
				c-0.32,0.35-0.62,0.66-0.89,0.95c-0.28,0.29-0.51,0.53-0.69,0.71c-0.19,0.19-0.29,0.27-0.3,0.24c-0.04-0.03-0.03-0.1,0.04-0.23
				s0.14-0.26,0.24-0.4c0.09-0.14,0.18-0.28,0.27-0.4c0.09-0.13,0.14-0.2,0.17-0.23c0.64-0.86,1.27-1.72,1.9-2.56
				c0.63-0.85,1.28-1.69,1.95-2.55c0.29-0.38,0.58-0.75,0.88-1.12c0.3-0.37,0.61-0.74,0.92-1.12c-0.25,0.05-0.49,0.1-0.72,0.15
				c-0.23,0.05-0.47,0.11-0.7,0.17c-0.44,0.1-0.88,0.2-1.32,0.3c-0.44,0.1-0.9,0.2-1.37,0.3c-0.04,0.01-0.1,0.02-0.18,0.03
				c-0.08,0.01-0.12,0-0.1-0.03c0.01-0.03,0.05-0.05,0.1-0.08c0.06-0.03,0.12-0.07,0.18-0.1c0.06-0.04,0.12-0.07,0.17-0.09
				C9.94,8.79,9.98,8.77,10,8.77c0.75-0.31,1.49-0.58,2.22-0.8s1.49-0.43,2.29-0.63c0.08-0.09,0.14-0.17,0.21-0.24
				c0.06-0.08,0.13-0.16,0.21-0.24c0.46-0.56,0.93-1.11,1.41-1.65c0.48-0.54,0.96-1.07,1.47-1.6c0.24-0.25,0.48-0.49,0.71-0.72
				c0.24-0.23,0.49-0.45,0.75-0.67c0.01-0.01,0.05-0.05,0.12-0.1c0.07-0.06,0.14-0.11,0.23-0.15c0.08-0.04,0.16-0.08,0.23-0.11
				c0.07-0.03,0.12-0.04,0.14-0.01c0,0.14-0.04,0.28-0.11,0.41c-0.08,0.14-0.14,0.27-0.21,0.39c-0.46,0.74-0.97,1.45-1.52,2.12
				c-0.55,0.68-1.1,1.35-1.65,2.03c0.68-0.21,1.3-0.45,1.86-0.7c0.56-0.26,1.16-0.54,1.78-0.84c0.56-0.29,1.09-0.62,1.57-1
				c0.48-0.38,0.89-0.85,1.21-1.42c0.16-0.4,0-0.76-0.49-1.07c-0.49-0.31-1.24-0.5-2.26-0.56c-1.02-0.06-2.27,0.04-3.76,0.31
				c-1.48,0.27-3.13,0.78-4.95,1.53c-0.33,0.14-0.64,0.28-0.93,0.43c-0.29,0.15-0.59,0.31-0.89,0.49c-0.01,0-0.05,0.02-0.1,0.05
				C9.47,4.04,9.41,4.07,9.35,4.11C9.28,4.14,9.2,4.17,9.08,4.21C9.07,4.2,9.09,4.16,9.15,4.11c0.06-0.05,0.12-0.1,0.19-0.16
				C9.41,3.9,9.47,3.85,9.53,3.8c0.06-0.04,0.1-0.07,0.11-0.08c0.56-0.4,1.15-0.78,1.76-1.13c0.61-0.35,1.23-0.68,1.87-0.98
				c0.95-0.43,1.89-0.76,2.82-1.01c0.93-0.25,1.79-0.42,2.6-0.52c0.81-0.09,1.54-0.11,2.21-0.05s1.21,0.19,1.63,0.39
				c0.25,0.11,0.47,0.27,0.66,0.47c0.19,0.2,0.33,0.42,0.42,0.67c0.09,0.24,0.13,0.5,0.11,0.78c-0.02,0.28-0.11,0.55-0.27,0.81
				c-0.34,0.54-0.75,1.02-1.25,1.45c-0.5,0.43-1.01,0.81-1.53,1.15c-0.3,0.2-0.6,0.39-0.9,0.56c-0.3,0.18-0.62,0.34-0.96,0.51h0.49
				c0.6,0.01,1.2,0.04,1.8,0.07c0.6,0.03,1.2,0.14,1.78,0.33c0.5,0.16,0.96,0.42,1.37,0.77C24.68,8.34,24.96,8.79,25.11,9.36z"/>
			<path class="st0" d="M31.22,12.83c-0.1,0.11-0.22,0.24-0.35,0.38c-0.13,0.14-0.26,0.27-0.39,0.39c-0.13,0.12-0.2,0.19-0.23,0.22
				c-0.5,0.44-1.01,0.87-1.54,1.29c-0.53,0.42-1.1,0.8-1.73,1.16c-0.3,0.18-0.61,0.34-0.94,0.48c-0.33,0.14-0.66,0.22-1.01,0.23
				c-0.3,0-0.57-0.1-0.8-0.29c-0.23-0.19-0.33-0.45-0.29-0.78c0.08-0.71,0.31-1.36,0.7-1.93c0.39-0.58,0.82-1.12,1.3-1.63
				c0.24-0.25,0.49-0.49,0.75-0.7c0.26-0.22,0.54-0.43,0.83-0.63c0.28-0.2,0.56-0.38,0.86-0.54c0.3-0.16,0.61-0.28,0.94-0.38
				c0.15-0.05,0.31-0.08,0.49-0.09c0.18-0.01,0.34,0.03,0.49,0.1c0.3,0.18,0.44,0.42,0.41,0.72c-0.03,0.31-0.14,0.62-0.36,0.95
				c-0.1,0.14-0.2,0.27-0.3,0.39c-0.1,0.13-0.21,0.25-0.32,0.38c-0.45,0.49-0.96,0.9-1.52,1.24c-0.4,0.23-0.8,0.42-1.2,0.59
				s-0.86,0.32-1.37,0.46c-0.28,0.36-0.48,0.76-0.6,1.2c0.36,0,0.76-0.08,1.2-0.25c0.44-0.17,0.88-0.38,1.32-0.64
				c0.44-0.26,0.87-0.53,1.3-0.81c0.43-0.28,0.81-0.54,1.17-0.76c0.03-0.01,0.11-0.07,0.24-0.17c0.14-0.1,0.28-0.21,0.44-0.33
				c0.16-0.12,0.37-0.27,0.63-0.44C31.35,12.65,31.32,12.72,31.22,12.83z M26.52,13.64c-0.13,0.14-0.22,0.26-0.29,0.36
				c-0.07,0.1-0.15,0.21-0.23,0.34c0.43-0.11,0.84-0.28,1.25-0.5c0.41-0.22,0.78-0.48,1.13-0.78c0.34-0.3,0.65-0.64,0.92-1.01
				s0.48-0.78,0.63-1.22c-0.66,0.31-1.27,0.72-1.8,1.22C27.58,12.54,27.04,13.08,26.52,13.64z"/>
			<path class="st0" d="M40.93,0.11c0.03,0.03,0.03,0.07,0.01,0.12c-0.02,0.06-0.04,0.12-0.08,0.19c-0.03,0.07-0.06,0.14-0.09,0.2
				c-0.03,0.06-0.05,0.11-0.07,0.13c-0.39,0.7-0.8,1.38-1.23,2.05s-0.87,1.33-1.31,1.99c-0.48,0.7-0.95,1.39-1.44,2.08
				c-0.48,0.68-0.97,1.37-1.46,2.06c-0.64,0.89-1.28,1.77-1.94,2.63c-0.65,0.86-1.3,1.74-1.95,2.61c-0.1,0.14-0.2,0.28-0.31,0.41
				c-0.11,0.14-0.21,0.28-0.31,0.41c0.86-0.61,1.74-1.19,2.63-1.73c0.01-0.01,0.05-0.04,0.12-0.08c0.07-0.04,0.15-0.09,0.24-0.13
				c0.09-0.04,0.17-0.08,0.24-0.11c0.08-0.03,0.13-0.04,0.15-0.03c0.03,0.01,0.01,0.04-0.05,0.09c-0.06,0.04-0.12,0.1-0.18,0.16
				c-0.23,0.2-0.45,0.39-0.69,0.57c-0.23,0.18-0.46,0.37-0.69,0.55c-0.34,0.26-0.67,0.53-1,0.79c-0.33,0.26-0.65,0.54-0.98,0.83
				c-0.13,0.1-0.25,0.21-0.37,0.32c-0.12,0.11-0.24,0.23-0.37,0.34c-0.1,0.09-0.21,0.16-0.32,0.23c-0.11,0.06-0.24,0.07-0.38,0.02
				c-0.24-0.08-0.36-0.23-0.38-0.45c-0.01-0.18,0.04-0.36,0.14-0.56c0.11-0.2,0.2-0.37,0.29-0.51c0.69-1.09,1.43-2.17,2.24-3.25
				c0.63-0.84,1.21-1.64,1.76-2.4c0.55-0.76,1.12-1.54,1.72-2.34c0.5-0.68,1-1.35,1.51-2.01c0.51-0.66,1.03-1.32,1.57-1.97
				c0.38-0.45,0.75-0.91,1.12-1.37s0.76-0.9,1.17-1.32c0.01-0.01,0.05-0.05,0.11-0.11c0.06-0.06,0.13-0.13,0.2-0.2
				c0.07-0.07,0.14-0.12,0.2-0.16S40.9,0.1,40.93,0.11z"/>
			<path class="st0" d="M43.81,0.11c0.03,0.03,0.03,0.07,0.01,0.12c-0.02,0.06-0.04,0.12-0.08,0.19c-0.03,0.07-0.06,0.14-0.09,0.2
				c-0.03,0.06-0.05,0.11-0.07,0.13c-0.39,0.7-0.8,1.38-1.23,2.05s-0.87,1.33-1.31,1.99c-0.48,0.7-0.95,1.39-1.44,2.08
				c-0.48,0.68-0.97,1.37-1.46,2.06c-0.64,0.89-1.28,1.77-1.94,2.63c-0.65,0.86-1.3,1.74-1.95,2.61c-0.1,0.14-0.2,0.28-0.31,0.41
				c-0.11,0.14-0.21,0.28-0.31,0.41c0.86-0.61,1.74-1.19,2.63-1.73c0.01-0.01,0.05-0.04,0.12-0.08c0.07-0.04,0.15-0.09,0.24-0.13
				c0.09-0.04,0.17-0.08,0.24-0.11c0.08-0.03,0.13-0.04,0.15-0.03s0.01,0.04-0.05,0.09c-0.06,0.04-0.12,0.1-0.18,0.16
				c-0.23,0.2-0.45,0.39-0.69,0.57c-0.23,0.18-0.46,0.37-0.69,0.55c-0.34,0.26-0.67,0.53-1,0.79c-0.33,0.26-0.65,0.54-0.98,0.83
				c-0.13,0.1-0.25,0.21-0.37,0.32c-0.12,0.11-0.24,0.23-0.37,0.34c-0.1,0.09-0.21,0.16-0.32,0.23c-0.11,0.06-0.24,0.07-0.38,0.02
				c-0.24-0.08-0.36-0.23-0.38-0.45c-0.01-0.18,0.04-0.36,0.14-0.56c0.11-0.2,0.2-0.37,0.29-0.51c0.69-1.09,1.43-2.17,2.24-3.25
				c0.63-0.84,1.21-1.64,1.76-2.4c0.55-0.76,1.12-1.54,1.72-2.34c0.5-0.68,1-1.35,1.51-2.01c0.51-0.66,1.03-1.32,1.57-1.97
				c0.38-0.45,0.75-0.91,1.12-1.37c0.37-0.46,0.76-0.9,1.17-1.32c0.01-0.01,0.05-0.05,0.11-0.11c0.06-0.06,0.13-0.13,0.2-0.2
				c0.07-0.07,0.14-0.12,0.2-0.16C43.74,0.11,43.78,0.1,43.81,0.11z"/>
			<path class="st0" d="M42.23,12.83c-0.1,0.11-0.22,0.24-0.35,0.38c-0.13,0.14-0.26,0.27-0.39,0.39c-0.13,0.12-0.2,0.19-0.23,0.22
				c-0.5,0.44-1.01,0.87-1.54,1.29c-0.53,0.42-1.1,0.8-1.73,1.16c-0.3,0.18-0.61,0.34-0.94,0.48c-0.33,0.14-0.66,0.22-1.01,0.23
				c-0.3,0-0.57-0.1-0.8-0.29c-0.23-0.19-0.33-0.45-0.29-0.78c0.08-0.71,0.31-1.36,0.7-1.93c0.39-0.58,0.82-1.12,1.3-1.63
				c0.24-0.25,0.49-0.49,0.75-0.7c0.26-0.22,0.54-0.43,0.83-0.63c0.28-0.2,0.56-0.38,0.86-0.54c0.3-0.16,0.61-0.28,0.94-0.38
				c0.15-0.05,0.31-0.08,0.49-0.09c0.18-0.01,0.34,0.03,0.49,0.1c0.3,0.18,0.44,0.42,0.41,0.72c-0.03,0.31-0.14,0.62-0.36,0.95
				c-0.1,0.14-0.2,0.27-0.3,0.39c-0.1,0.13-0.21,0.25-0.32,0.38c-0.45,0.49-0.96,0.9-1.52,1.24c-0.4,0.23-0.8,0.42-1.2,0.59
				c-0.4,0.17-0.86,0.32-1.37,0.46c-0.28,0.36-0.48,0.76-0.6,1.2c0.36,0,0.76-0.08,1.2-0.25c0.44-0.17,0.88-0.38,1.32-0.64
				c0.44-0.26,0.87-0.53,1.3-0.81c0.43-0.28,0.81-0.54,1.17-0.76c0.03-0.01,0.11-0.07,0.24-0.17c0.14-0.1,0.28-0.21,0.44-0.33
				c0.16-0.12,0.37-0.27,0.63-0.44C42.36,12.65,42.33,12.72,42.23,12.83z M37.53,13.64c-0.13,0.14-0.22,0.26-0.29,0.36
				c-0.07,0.1-0.15,0.21-0.23,0.34c0.43-0.11,0.84-0.28,1.25-0.5c0.41-0.22,0.78-0.48,1.13-0.78c0.34-0.3,0.65-0.64,0.92-1.01
				s0.48-0.78,0.63-1.22c-0.66,0.31-1.27,0.72-1.8,1.22C38.59,12.54,38.05,13.08,37.53,13.64z"/>
			<path class="st0" d="M47.64,10.5c0.03,0.14,0.01,0.25-0.04,0.35c-0.05,0.09-0.13,0.18-0.23,0.25c-0.34,0.25-0.67,0.51-1,0.77
				c-0.33,0.26-0.66,0.55-0.99,0.85c-0.49,0.46-0.97,0.93-1.46,1.39c-0.48,0.46-0.97,0.93-1.46,1.39c0.39-0.11,0.78-0.22,1.16-0.32
				c0.39-0.1,0.78-0.2,1.17-0.3c0.19-0.05,0.38-0.1,0.56-0.14s0.38-0.08,0.58-0.1c0.05-0.01,0.11-0.03,0.18-0.04
				c0.07-0.01,0.13-0.01,0.18,0c0.04,0.01,0.03,0.04-0.03,0.08c-0.06,0.04-0.12,0.08-0.18,0.1c-0.36,0.18-0.73,0.34-1.1,0.51
				c-0.37,0.16-0.74,0.32-1.1,0.47c-0.36,0.16-0.73,0.32-1.11,0.48c-0.38,0.16-0.75,0.32-1.11,0.48c-0.18,0.06-0.34,0.13-0.51,0.21
				c-0.16,0.08-0.33,0.15-0.51,0.23c-0.1,0.04-0.19,0.07-0.26,0.09c-0.08,0.03-0.16,0.03-0.26,0c-0.18-0.06-0.29-0.16-0.34-0.3
				c-0.09-0.19-0.07-0.35,0.05-0.49c0.12-0.14,0.24-0.27,0.37-0.39c0.4-0.4,0.84-0.81,1.32-1.23C42.01,14.41,42.5,14,43,13.58
				c0.5-0.41,1.01-0.81,1.52-1.19s1.01-0.74,1.5-1.06c-0.19,0.03-0.43,0.06-0.71,0.1c-0.29,0.04-0.59,0.09-0.9,0.14
				c-0.31,0.05-0.61,0.1-0.9,0.14c-0.29,0.04-0.53,0.08-0.71,0.12c-0.03,0-0.06,0.01-0.1,0.02c-0.04,0.01-0.09,0.02-0.14,0.03
				c-0.05,0.01-0.09,0.01-0.12,0.01c-0.03,0-0.05-0.01-0.05-0.02c0.01-0.03,0.06-0.06,0.15-0.11c0.15-0.08,0.3-0.14,0.45-0.2
				c0.15-0.06,0.3-0.12,0.45-0.18c0.39-0.15,0.77-0.29,1.16-0.43c0.38-0.14,0.77-0.28,1.17-0.41c0.19-0.06,0.38-0.13,0.57-0.19
				c0.19-0.06,0.39-0.13,0.57-0.19c0.15-0.05,0.3-0.05,0.44,0C47.49,10.21,47.59,10.33,47.64,10.5z"/>
			<path class="st0" d="M53.18,10.5c0.03,0.14,0.01,0.25-0.04,0.35c-0.05,0.09-0.13,0.18-0.23,0.25c-0.34,0.25-0.67,0.51-1,0.77
				c-0.33,0.26-0.66,0.55-0.99,0.85c-0.49,0.46-0.97,0.93-1.46,1.39c-0.48,0.46-0.97,0.93-1.46,1.39c0.39-0.11,0.78-0.22,1.16-0.32
				c0.39-0.1,0.78-0.2,1.17-0.3c0.19-0.05,0.38-0.1,0.56-0.14s0.38-0.08,0.58-0.1c0.05-0.01,0.11-0.03,0.18-0.04
				c0.07-0.01,0.13-0.01,0.18,0c0.04,0.01,0.03,0.04-0.03,0.08c-0.06,0.04-0.12,0.08-0.18,0.1c-0.36,0.18-0.73,0.34-1.1,0.51
				c-0.37,0.16-0.74,0.32-1.1,0.47c-0.36,0.16-0.73,0.32-1.11,0.48c-0.38,0.16-0.75,0.32-1.11,0.48c-0.18,0.06-0.34,0.13-0.51,0.21
				c-0.16,0.08-0.33,0.15-0.51,0.23c-0.1,0.04-0.19,0.07-0.26,0.09c-0.08,0.03-0.16,0.03-0.26,0c-0.18-0.06-0.29-0.16-0.34-0.3
				c-0.09-0.19-0.07-0.35,0.05-0.49c0.12-0.14,0.24-0.27,0.37-0.39c0.4-0.4,0.84-0.81,1.32-1.23c0.48-0.42,0.96-0.84,1.47-1.25
				c0.5-0.41,1.01-0.81,1.52-1.19s1.01-0.74,1.5-1.06c-0.19,0.03-0.43,0.06-0.71,0.1c-0.29,0.04-0.59,0.09-0.9,0.14
				c-0.31,0.05-0.61,0.1-0.9,0.14c-0.29,0.04-0.53,0.08-0.71,0.12c-0.03,0-0.06,0.01-0.1,0.02c-0.04,0.01-0.09,0.02-0.14,0.03
				c-0.05,0.01-0.09,0.01-0.12,0.01c-0.03,0-0.05-0.01-0.05-0.02c0.01-0.03,0.06-0.06,0.15-0.11c0.15-0.08,0.3-0.14,0.45-0.2
				c0.15-0.06,0.3-0.12,0.45-0.18c0.39-0.15,0.77-0.29,1.16-0.43c0.38-0.14,0.77-0.28,1.17-0.41c0.19-0.06,0.38-0.13,0.57-0.19
				c0.19-0.06,0.39-0.13,0.57-0.19c0.15-0.05,0.3-0.05,0.44,0C53.03,10.21,53.13,10.33,53.18,10.5z"/>
			<path class="st0" d="M59.4,13.02c0,0.01-0.02,0.04-0.06,0.09c-0.15,0.15-0.31,0.29-0.49,0.43c-0.18,0.14-0.35,0.28-0.53,0.41
				c-0.58,0.41-1.2,0.9-1.86,1.45c-0.21,0.15-0.4,0.31-0.57,0.48c-0.17,0.17-0.35,0.34-0.55,0.52c-0.05,0.04-0.13,0.1-0.24,0.18
				c-0.11,0.08-0.17,0.14-0.2,0.16c-0.1,0.1-0.23,0.13-0.39,0.1c-0.16-0.03-0.29-0.1-0.38-0.22c-0.1-0.13-0.14-0.26-0.1-0.41
				c0.03-0.15,0.08-0.29,0.14-0.43c0.14-0.31,0.28-0.61,0.44-0.88c0.16-0.28,0.33-0.56,0.52-0.85c-0.19,0.16-0.37,0.33-0.54,0.49
				c-0.18,0.16-0.35,0.31-0.53,0.45c-0.28,0.25-0.55,0.49-0.83,0.71c-0.28,0.23-0.56,0.45-0.86,0.68c-0.08,0.06-0.17,0.13-0.27,0.21
				c-0.11,0.08-0.21,0.13-0.32,0.18c-0.11,0.04-0.22,0.07-0.33,0.07c-0.11,0-0.22-0.04-0.32-0.11c-0.14-0.1-0.21-0.24-0.22-0.41
				c-0.01-0.18,0.02-0.33,0.07-0.47c0.13-0.44,0.33-0.87,0.61-1.31c0.28-0.43,0.57-0.83,0.87-1.18c0.3-0.36,0.58-0.65,0.83-0.89
				c0.25-0.24,0.41-0.39,0.49-0.45c0.23-0.21,0.49-0.43,0.8-0.66c0.31-0.23,0.64-0.43,0.99-0.61c0.35-0.18,0.71-0.33,1.08-0.44
				c0.37-0.11,0.72-0.17,1.06-0.17c0.18,0,0.37,0.03,0.58,0.08c0.21,0.05,0.37,0.14,0.47,0.28c0.01,0.01,0.03,0.04,0.06,0.08
				c0.03,0.04,0.02,0.06-0.02,0.05c-0.34-0.09-0.66-0.1-0.98-0.04c-0.31,0.06-0.62,0.17-0.92,0.32c-0.3,0.15-0.59,0.34-0.86,0.55
				c-0.28,0.22-0.54,0.43-0.81,0.63c-0.23,0.19-0.47,0.41-0.73,0.68c-0.26,0.26-0.52,0.55-0.77,0.87c-0.25,0.32-0.49,0.66-0.72,1.01
				c-0.23,0.36-0.44,0.72-0.61,1.1c0.5-0.33,1.03-0.7,1.59-1.12c0.56-0.42,1.1-0.82,1.63-1.21c0.25-0.21,0.52-0.42,0.82-0.63
				c0.29-0.21,0.58-0.42,0.85-0.65c0.08-0.06,0.17-0.14,0.29-0.24c0.12-0.09,0.24-0.18,0.36-0.26c0.12-0.08,0.23-0.16,0.32-0.23
				c0.09-0.07,0.16-0.1,0.2-0.1c0.1-0.03,0.18,0,0.24,0.07c0.06,0.07,0.08,0.15,0.06,0.24c0,0.03-0.03,0.07-0.08,0.13
				c-0.05,0.06-0.11,0.13-0.17,0.21c-0.06,0.08-0.12,0.14-0.18,0.21c-0.06,0.06-0.09,0.11-0.1,0.13c-0.2,0.23-0.42,0.49-0.67,0.79
				s-0.48,0.59-0.71,0.87c-0.23,0.28-0.43,0.53-0.6,0.74c-0.17,0.21-0.28,0.35-0.33,0.41c0.11-0.08,0.27-0.18,0.46-0.3
				c0.19-0.13,0.35-0.23,0.46-0.32c0.35-0.24,0.71-0.47,1.07-0.69c0.36-0.22,0.74-0.43,1.13-0.63c0.03-0.03,0.09-0.06,0.19-0.11
				C59.31,13.01,59.37,12.99,59.4,13.02z"/>
		</g>
	</g>
	<g>
		<g>
			<path class="st0" d="M15.65,24.05c-0.06,0-0.09-0.02-0.09-0.07v-4.42c0-0.04,0.03-0.07,0.09-0.07h2.04
				c0.59,0,1.04,0.12,1.38,0.35c0.33,0.23,0.5,0.55,0.5,0.95c0,0.4-0.17,0.72-0.5,0.94c-0.33,0.23-0.79,0.34-1.38,0.34h-1.56
				c-0.04,0-0.05,0.01-0.05,0.04v1.87c0,0.04-0.03,0.07-0.09,0.07H15.65z M17.66,21.71c0.45,0,0.79-0.08,1.03-0.24
				c0.24-0.16,0.35-0.39,0.35-0.68c0-0.3-0.12-0.52-0.35-0.69c-0.24-0.16-0.58-0.24-1.03-0.24h-1.54c-0.04,0-0.05,0.01-0.05,0.04
				v1.78c0,0.03,0.02,0.04,0.05,0.04H17.66z"/>
			<path class="st0" d="M22.8,19.56c0-0.04,0.03-0.07,0.09-0.07h0.33c0.06,0,0.09,0.02,0.09,0.07v1.96c0,0.03,0.02,0.04,0.05,0.04
				h3.01c0.04,0,0.05-0.01,0.05-0.04v-1.96c0-0.04,0.03-0.07,0.09-0.07h0.33c0.06,0,0.09,0.02,0.09,0.07v4.42
				c0,0.04-0.03,0.07-0.09,0.07h-0.33c-0.06,0-0.09-0.02-0.09-0.07v-2.02c0-0.03-0.02-0.04-0.05-0.04h-3.01
				c-0.04,0-0.05,0.01-0.05,0.04v2.02c0,0.04-0.03,0.07-0.09,0.07h-0.33c-0.06,0-0.09-0.02-0.09-0.07V19.56z"/>
			<path class="st0" d="M32.34,19.56c0.02-0.04,0.05-0.07,0.11-0.07h0.32c0.05,0,0.09,0.02,0.11,0.07l2.12,4.42
				c0.02,0.04,0,0.07-0.06,0.07h-0.35c-0.07,0-0.1-0.02-0.12-0.07l-0.54-1.12h-2.65l-0.54,1.12c-0.02,0.04-0.06,0.07-0.12,0.07
				h-0.35c-0.06,0-0.08-0.02-0.06-0.07L32.34,19.56z M33.75,22.49l-1.14-2.39h-0.03l-1.15,2.39H33.75z"/>
			<path class="st0" d="M41.86,24.05c-0.05,0-0.08-0.02-0.11-0.06l-1.28-1.98h-0.09h-1.57c-0.04,0-0.05,0.01-0.05,0.04v1.93
				c0,0.04-0.03,0.07-0.09,0.07h-0.33c-0.06,0-0.09-0.02-0.09-0.07v-4.42c0-0.04,0.03-0.07,0.09-0.07h2.04
				c0.58,0,1.03,0.11,1.36,0.34c0.33,0.22,0.49,0.53,0.49,0.92c0,0.32-0.11,0.58-0.33,0.79c-0.22,0.21-0.52,0.35-0.92,0.42
				l1.33,2.02c0.02,0.02,0.02,0.04,0.01,0.05c-0.01,0.01-0.03,0.02-0.06,0.02H41.86z M40.37,21.65c0.44,0,0.77-0.08,1-0.23
				c0.23-0.15,0.35-0.38,0.35-0.67c0-0.29-0.12-0.51-0.35-0.66c-0.23-0.16-0.57-0.23-1-0.23h-1.56c-0.04,0-0.05,0.01-0.05,0.04v1.72
				c0,0.03,0.02,0.04,0.05,0.04H40.37z"/>
			<path class="st0" d="M45.64,19.56c0-0.04,0.03-0.07,0.09-0.07h0.34c0.07,0,0.11,0.02,0.13,0.07l1.98,3.26h0.04l1.94-3.26
				c0.02-0.04,0.07-0.07,0.13-0.07h0.35c0.06,0,0.09,0.02,0.09,0.07v4.42c0,0.04-0.03,0.07-0.09,0.07H50.3
				c-0.06,0-0.09-0.02-0.09-0.07v-3.57h-0.03l-1.76,2.89c-0.02,0.03-0.04,0.05-0.06,0.06c-0.02,0.01-0.06,0.02-0.1,0.02h-0.18
				c-0.07,0-0.12-0.02-0.15-0.07l-1.76-2.89h-0.03v3.57c0,0.04-0.03,0.07-0.09,0.07h-0.33c-0.06,0-0.09-0.02-0.09-0.07V19.56z"/>
			<path class="st0" d="M56.11,19.56c0.02-0.04,0.05-0.07,0.11-0.07h0.32c0.05,0,0.09,0.02,0.11,0.07l2.12,4.42
				c0.02,0.04,0,0.07-0.06,0.07h-0.35c-0.07,0-0.1-0.02-0.12-0.07l-0.54-1.12h-2.65l-0.54,1.12c-0.02,0.04-0.06,0.07-0.12,0.07
				h-0.35c-0.06,0-0.08-0.02-0.06-0.07L56.11,19.56z M57.53,22.49l-1.14-2.39h-0.03l-1.15,2.39H57.53z"/>
		</g>
	</g>
</g>
</svg>
