<?xml version="1.0" encoding="utf-8"?>
<!-- Generator: Adobe Illustrator 25.0.1, SVG Export Plug-In . SVG Version: 6.00 Build 0)  -->
<svg version="1.0" id="Layer_1" xmlns="http://www.w3.org/2000/svg" xmlns:xlink="http://www.w3.org/1999/xlink" x="0px" y="0px"
	 viewBox="0 0 33.01 37.34" style="enable-background:new 0 0 33.01 37.34;" xml:space="preserve">
<style type="text/css">
	.st0{fill:#000104;}
	.st1{fill:#FFFFFF;}
	.st2{fill:#EF493E;}
	.st3{opacity:0.6;fill-rule:evenodd;clip-rule:evenodd;fill:#FBBE43;}
	.st4{opacity:0.6;fill-rule:evenodd;clip-rule:evenodd;fill:#EF930E;}
	.st5{opacity:0.6;fill-rule:evenodd;clip-rule:evenodd;fill:#E67906;}
	.st6{fill:#9F8829;}
	.st7{fill:#3972A6;}
	.st8{fill:url(#SVGID_1_);stroke:#2B53A4;stroke-width:0.5;stroke-miterlimit:10;}
	.st9{fill:none;}
	.st10{fill:url(#SVGID_2_);}
	.st11{fill:url(#SVGID_3_);}
	.st12{fill:#B3B3B3;}
	.st13{fill:url(#SVGID_4_);}
	.st14{fill:url(#SVGID_5_);}
	.st15{fill:url(#SVGID_6_);}
	.st16{fill:#FFFFFF;stroke:#FFFFFF;stroke-width:0.25;stroke-miterlimit:10;}
	.st17{fill:#00001D;}
	.st18{fill:#4DA0C5;}
	.st19{fill:url(#SVGID_7_);}
	.st20{fill:#2E6A85;}
	.st21{fill:none;stroke:#144FA1;stroke-width:0.113;stroke-linejoin:round;stroke-miterlimit:10;}
	.st22{fill:#F27337;}
	.st23{fill:#8EB8D4;}
	.st24{fill:#F38056;}
	.st25{fill:#626365;}
	.st26{fill:#EF6D23;}
	.st27{fill:#284B82;}
	.st28{fill:#242956;}
	.st29{fill:#15142A;}
	.st30{fill:#84C343;}
	.st31{fill:#4CA1C6;}
	.st32{fill:#121617;}
	.st33{fill:#CF8966;}
	.st34{fill:#F37639;}
	.st35{opacity:0.3;fill:url(#SVGID_8_);}
	.st36{fill:#373277;}
	.st37{fill:#E61E25;}
	.st38{fill:#2555A5;}
	.st39{fill:#2E225E;}
	.st40{fill:#F8A425;}
	.st41{fill:#2058A7;}
	.st42{fill:none;stroke:#205AA8;stroke-width:0.156;stroke-miterlimit:10;}
	.st43{fill:#49A3C7;}
	.st44{fill-rule:evenodd;clip-rule:evenodd;}
	.st45{fill-rule:evenodd;clip-rule:evenodd;fill:url(#SVGID_9_);}
	.st46{fill-rule:evenodd;clip-rule:evenodd;fill:url(#SVGID_10_);}
	.st47{fill-rule:evenodd;clip-rule:evenodd;fill:url(#SVGID_11_);}
	.st48{fill:#1D2251;}
	.st49{fill:#2260AC;}
	.st50{fill:url(#SVGID_12_);}
	.st51{fill:#FFFFFC;}
	.st52{fill:#4C9FC5;}
	.st53{fill:#28306D;}
	.st54{fill:#4C9EC5;}
	.st55{fill:#28306E;}
	.st56{fill:#29306F;}
	.st57{fill:#F7F7FB;}
	.st58{fill:url(#SVGID_13_);}
	.st59{fill:url(#SVGID_14_);}
	.st60{fill:url(#SVGID_15_);}
	.st61{fill:url(#SVGID_16_);}
	.st62{fill:#10123C;}
	.st63{fill:#F5842C;}
	.st64{fill:#1F305E;}
	.st65{fill:#87BBD1;}
	.st66{fill:#203160;}
	.st67{fill:#235779;}
	.st68{fill:#359FA1;}
	.st69{fill:#A4D1A4;}
	.st70{fill:#B9DBBC;}
	.st71{fill:#C6DDCA;}
	.st72{fill:#662E14;}
	.st73{fill:#1D79A4;}
	.st74{fill:#C14B28;}
	.st75{fill:url(#SVGID_17_);}
	.st76{fill:url(#SVGID_18_);}
	.st77{fill:url(#SVGID_19_);}
	.st78{fill:url(#SVGID_20_);}
	.st79{fill:url(#SVGID_21_);}
	.st80{fill:url(#SVGID_22_);}
	.st81{fill:url(#SVGID_23_);}
	.st82{fill:url(#SVGID_24_);}
	.st83{fill:url(#SVGID_25_);}
	.st84{fill:url(#SVGID_26_);}
	.st85{fill:url(#SVGID_27_);}
	.st86{fill:url(#SVGID_28_);}
	.st87{fill:url(#SVGID_29_);}
	.st88{fill:url(#SVGID_30_);}
	.st89{fill:#1F164B;}
	.st90{clip-path:url(#SVGID_32_);fill:#253D97;}
	.st91{fill:url(#SVGID_33_);}
	.st92{fill:url(#SVGID_34_);}
	.st93{fill:url(#SVGID_35_);}
	.st94{fill:url(#SVGID_36_);}
	.st95{fill:url(#SVGID_37_);}
	.st96{fill:url(#SVGID_38_);}
	.st97{fill:url(#SVGID_39_);}
	.st98{fill:url(#SVGID_40_);}
	.st99{fill:url(#SVGID_41_);}
	.st100{fill:#443F41;}
	.st101{fill:#28306F;}
	.st102{fill:#71C49D;}
	.st103{fill:#F0C6A7;}
	.st104{fill:#DB8D82;}
	.st105{fill:#EFB7AC;}
	.st106{opacity:0.21;}
	.st107{fill-rule:evenodd;clip-rule:evenodd;fill:#A9196E;}
	.st108{fill-rule:evenodd;clip-rule:evenodd;fill:#FBE42C;}
	.st109{fill:#FBE42C;}
	.st110{fill:#A9196E;}
	.st111{fill:#7FC143;}
	.st112{clip-path:url(#SVGID_45_);fill:#7FC143;}
	.st113{clip-path:url(#SVGID_51_);fill:#7FC143;}
	.st114{fill:#243F8F;}
	.st115{fill:#EF4E2F;}
	.st116{fill:#010007;}
	.st117{fill:#0C0D37;}
	.st118{fill:#FBAF2D;}
	.st119{fill:url(#SVGID_54_);}
	.st120{fill-rule:evenodd;clip-rule:evenodd;fill:#FFFFFF;}
	.st121{fill:#1D4690;}
	.st122{fill:#3AA949;}
	.st123{fill:#F37A24;}
	.st124{fill:none;stroke:#F37A24;stroke-width:3.7145;stroke-miterlimit:10;}
	.st125{fill:#3AA949;stroke:#FFFFFF;stroke-width:1.3104;stroke-miterlimit:10;}
	.st126{fill:#46A2BB;}
	.st127{fill:#7153A0;}
	.st128{fill:#27316C;}
	.st129{fill:#2C65AE;}
	.st130{fill:#452D7A;}
	.st131{fill:#442C7A;}
	.st132{fill:#1A2642;}
	.st133{fill-rule:evenodd;clip-rule:evenodd;fill:#567EB8;}
	.st134{fill-rule:evenodd;clip-rule:evenodd;fill:#6A7EB8;}
	.st135{fill-rule:evenodd;clip-rule:evenodd;fill:#6A7EB9;}
	.st136{fill-rule:evenodd;clip-rule:evenodd;fill:#EE3C2D;}
	.st137{fill-rule:evenodd;clip-rule:evenodd;fill:#EF493F;}
	.st138{fill-rule:evenodd;clip-rule:evenodd;fill:#ED2C24;}
	.st139{fill-rule:evenodd;clip-rule:evenodd;fill:#E9AE28;}
	.st140{fill-rule:evenodd;clip-rule:evenodd;fill:#D69B28;}
	.st141{fill-rule:evenodd;clip-rule:evenodd;fill:#FCB729;}
	.st142{fill-rule:evenodd;clip-rule:evenodd;fill:#409E47;}
	.st143{fill-rule:evenodd;clip-rule:evenodd;fill:#4BB450;}
	.st144{fill-rule:evenodd;clip-rule:evenodd;fill:#338440;}
	.st145{fill:#C09C36;}
	.st146{fill:#1E552A;}
	.st147{clip-path:url(#SVGID_56_);fill:url(#SVGID_57_);}
	.st148{fill:#023A1E;}
	.st149{fill:#FFFFFA;}
	.st150{fill:#0D4F28;}
	.st151{fill:#0E5128;}
	.st152{fill:#0D4E27;}
	.st153{fill:#0E5229;}
	.st154{fill:#0E4823;}
	.st155{fill:#0E4C27;}
	.st156{fill:#F3F6E0;}
	.st157{fill:#0E4F28;}
	.st158{fill:#114823;}
	.st159{fill:#105229;}
	.st160{fill:#0A4A2B;}
	.st161{fill:#134F27;}
	.st162{fill:#165229;}
	.st163{fill:#0D5029;}
	.st164{fill:#0B4E2B;}
	.st165{fill:#105028;}
	.st166{fill:#0A492A;}
	.st167{fill:#E9F3E2;}
	.st168{fill:#144D26;}
	.st169{fill:#185C2F;}
	.st170{fill:#0F5028;}
	.st171{fill:#F3F8EA;}
	.st172{fill:#114D26;}
	.st173{fill:#70A685;}
	.st174{fill:#0D4F2A;}
	.st175{fill:#094A24;}
	.st176{fill:#0F4F27;}
	.st177{fill:#0A4C26;}
	.st178{fill:#A2D29A;}
	.st179{fill:#4D7E44;}
	.st180{fill:#E8F2E1;}
	.st181{fill:#EDF5E5;}
	.st182{fill:#E6F2E7;}
	.st183{fill:#E5F1DC;}
	.st184{fill:#E9F3E3;}
	.st185{fill:#E9F3E5;}
	.st186{fill:#E5F1DB;}
	.st187{fill:#D8ECD7;}
	.st188{fill:#D9EBD4;}
	.st189{fill:#E2F0DE;}
	.st190{fill:#366B4B;}
	.st191{fill:#5D6162;}
	.st192{fill:#212E5F;}
	.st193{fill:#DD1F26;}
	.st194{clip-path:url(#SVGID_59_);}
	.st195{fill:#23396F;}
	.st196{fill:#7FC24E;}
	.st197{clip-path:url(#SVGID_59_);fill:#23396F;}
	.st198{clip-path:url(#SVGID_59_);fill:#7FC24E;}
	.st199{fill:#91CEA4;}
	.st200{fill:#90CEA4;}
	.st201{fill:#C02026;}
	.st202{fill:#362E7E;}
</style>
<g>
	<g>
	</g>
	<g>
		<path class="st24" d="M32.46,0c0.28,0.8,0.71,1.63,0.48,2.5c-0.23,1.55-1.33,2.77-1.85,4.22c-2.35,0.24-4.68,1.07-6.4,2.72
			c-3.22,2.97-4.41,8.09-2.34,12.04c1.15,2.23-1.22,4.12-2.64,5.52C18.33,27,16.96,27,15.59,27c1.32-1.33,2.65-2.64,3.98-3.97
			c0.01-3.95-0.01-7.9,0.01-11.85c-2.11-0.01-4.23,0-6.34,0c-0.03,3.72,0.03,7.44-0.02,11.16c0,2.02-1.68,3.36-2.98,4.67
			c-1.37,0-2.73,0-4.1-0.02c1.3-1.34,2.62-2.64,3.94-3.96c0.01-3.95,0.01-7.9,0-11.85c-2.11-0.01-4.23-0.01-6.34,0
			c0.01,5.26-0.01,10.52,0.01,15.78c-1.05,0-2.1,0-3.15,0c0.02-6.31,0-12.62,0.01-18.93C6.77,8.01,12.93,8.03,19.1,8.01
			C20.13,8,21.3,8.14,22.01,8.98c0.57,0.62,0.6,1.52,0.77,2.3c1.28-2.24,2.93-4.29,5.06-5.78c1.33-1.03,3.04-1.61,4.03-3.04
			C32.42,1.76,32.36,0.83,32.46,0z"/>
		<g>
			<path class="st24" d="M0,28.74c0.43,0,0.84-0.01,1.24,0.01c0.07,0,0.15,0.11,0.19,0.19c0.3,0.62,0.59,1.24,0.89,1.86
				c0.05,0.09,0.1,0.19,0.18,0.33c0.2-0.41,0.39-0.77,0.57-1.14c0.17-0.35,0.33-0.69,0.48-1.05c0.06-0.15,0.15-0.22,0.31-0.21
				c0.37,0.01,0.73,0,1.12,0c0,1.87,0,3.69,0,5.54c-0.3,0-0.58,0-0.9,0c0-1.35,0-2.7,0-4.05c-0.02,0-0.04-0.01-0.06-0.01
				c-0.04,0.06-0.08,0.11-0.11,0.17c-0.35,0.74-0.71,1.47-1.06,2.21c-0.08,0.16-0.17,0.23-0.35,0.23c-0.18,0-0.27-0.06-0.35-0.23
				c-0.34-0.73-0.69-1.45-1.04-2.17c-0.03-0.07-0.08-0.14-0.12-0.2c-0.02,0-0.04,0.01-0.06,0.01c0,1.34,0,2.68,0,4.04
				c-0.33,0-0.62,0-0.92,0C0,32.44,0,30.62,0,28.74z"/>
			<path class="st25" d="M24.86,31.77c0.14-0.02,0.25-0.03,0.42-0.05c0-0.49,0-0.98,0-1.46c0-0.49,0-0.98,0-1.49
				c0.09-0.01,0.16-0.03,0.22-0.03c0.56,0,1.11-0.01,1.67,0c1.26,0.02,2.13,1.03,1.97,2.28c-0.07,0.54-0.36,0.96-0.78,1.28
				c-0.07,0.05-0.14,0.1-0.24,0.17c0.32,0.6,0.64,1.18,0.98,1.81c-0.37,0-0.67,0.01-0.98-0.01c-0.06,0-0.13-0.11-0.18-0.18
				c-0.23-0.41-0.46-0.81-0.67-1.23c-0.08-0.14-0.17-0.2-0.33-0.19c-0.24,0.01-0.49,0-0.76,0c0,0.55,0,1.06,0,1.59
				c-0.31,0-0.59,0-0.9,0c0-0.52,0-1.03,0-1.56c-0.16-0.02-0.29-0.04-0.43-0.07C24.86,32.35,24.86,32.07,24.86,31.77z M26.21,31.74
				c0.38,0,0.73,0.02,1.08,0c0.5-0.03,0.9-0.42,0.94-0.9c0.05-0.54-0.26-1.04-0.77-1.12c-0.4-0.06-0.82-0.01-1.25-0.01
				C26.21,30.38,26.21,31.04,26.21,31.74z"/>
			<path class="st24" d="M9.36,34.29c0-1.86,0-3.68,0-5.49c0.02-0.02,0.04-0.04,0.05-0.04c0.86-0.03,1.72-0.13,2.52,0.31
				c1.09,0.59,1.68,1.87,1.4,3.06c-0.3,1.25-1.39,2.14-2.65,2.16C10.25,34.3,9.82,34.29,9.36,34.29z M10.31,33.34
				c0.84,0.13,1.53-0.29,1.87-0.84c0.42-0.68,0.36-1.51-0.13-2.13c-0.36-0.46-1.14-0.82-1.74-0.64
				C10.31,30.93,10.31,32.14,10.31,33.34z"/>
			<path class="st25" d="M24.51,34.28c-0.33,0-0.63,0-0.97,0c-0.13-0.34-0.27-0.68-0.41-1.06c-0.34,0-0.67,0-1,0
				c-0.2,0-0.39,0-0.59,0c-0.72,0.01-0.5-0.11-0.78,0.55c-0.07,0.16-0.12,0.32-0.19,0.5c-0.32,0-0.63,0-0.99,0
				c0.13-0.34,0.25-0.66,0.37-1c-0.1-0.03-0.18-0.05-0.28-0.08c0-0.28,0-0.56,0-0.87c0.22-0.01,0.43-0.02,0.67-0.03
				c0.18-0.47,0.37-0.94,0.56-1.4c0.25-0.65,0.51-1.29,0.76-1.94c0.07-0.2,0.21-0.2,0.37-0.19c0.16,0.01,0.33-0.05,0.42,0.18
				c0.67,1.74,1.35,3.47,2.03,5.2C24.49,34.17,24.5,34.22,24.51,34.28z M21.33,32.27c0.49,0,0.94,0,1.44,0
				c-0.24-0.63-0.46-1.22-0.69-1.82c-0.02,0-0.04,0-0.07,0C21.79,31.04,21.57,31.64,21.33,32.27z"/>
			<path class="st25" d="M33.01,28.76v0.91h-0.59c-0.76,0-1.37,0.61-1.37,1.37l0,0l1.95,0v0.93l-1.94,0v0
				c0,0.77,0.62,1.39,1.39,1.39H33v0.92h-0.61c-1.25,0-2.27-1.02-2.27-2.27l0,0c-0.16-0.02-0.28-0.04-0.42-0.05v-0.88
				c0.13-0.01,0.25-0.03,0.41-0.04v0c0-1.25,1.02-2.27,2.27-2.27H33.01z"/>
			<path class="st25" d="M19.02,28.75c0,0.29,0,0.56,0,0.86c-0.8-0.07-1.46,0.18-1.92,0.84c-0.25,0.36-0.36,0.77-0.32,1.21
				c0.1,1.11,0.84,1.7,2.23,1.78c0,0.28,0,0.57,0,0.85c-0.61,0.2-1.91-0.13-2.61-1.11c-0.72-1-0.71-2.36,0.01-3.35
				C17.07,28.93,18.27,28.53,19.02,28.75z"/>
			<path class="st24" d="M8.78,28.75v0.91H8.2c-0.76,0-1.37,0.61-1.37,1.37v0h1.95v0.93H6.83l0,0c0,0.77,0.62,1.39,1.39,1.39h0.56
				v0.92H8.16c-1.25,0-2.27-1.02-2.27-2.27v0c-0.16-0.02-0.28-0.04-0.42-0.05l0-0.88c0.13-0.01,0.25-0.03,0.41-0.04v0
				c0-1.25,1.02-2.27,2.27-2.27H8.78z"/>
		</g>
	</g>
	<g>
		<path class="st25" d="M27.71,8.06c1.24-0.58,2.62-0.77,3.97-0.95c-0.05,1.34-0.12,2.68-0.2,4.02c-1.43,0.28-2.91,0.74-3.93,1.85
			c-2.05,2-2.26,5.55-0.43,7.77c0.9,1.22,2.31,1.87,3.74,2.26c-0.06,1.34-0.13,2.68-0.22,4.03c-2.26-0.4-4.47-1.36-6.04-3.08
			c-2.27-2.34-3.24-5.84-2.5-9.02C22.76,11.93,24.91,9.31,27.71,8.06z"/>
	</g>
</g>
</svg>
