<?xml version="1.0" encoding="utf-8"?>
<!-- Generator: Adobe Illustrator 25.0.1, SVG Export Plug-In . SVG Version: 6.00 Build 0)  -->
<svg version="1.0" id="Layer_1" xmlns="http://www.w3.org/2000/svg" xmlns:xlink="http://www.w3.org/1999/xlink" x="0px" y="0px"
	 viewBox="0 0 41.76 46.12" style="enable-background:new 0 0 41.76 46.12;" xml:space="preserve">
<style type="text/css">
	.st0{fill:#000104;}
	.st1{fill:#FFFFFF;}
	.st2{fill:#EF493E;}
	.st3{opacity:0.6;fill-rule:evenodd;clip-rule:evenodd;fill:#FBBE43;}
	.st4{opacity:0.6;fill-rule:evenodd;clip-rule:evenodd;fill:#EF930E;}
	.st5{opacity:0.6;fill-rule:evenodd;clip-rule:evenodd;fill:#E67906;}
	.st6{fill:#9F8829;}
	.st7{fill:#3972A6;}
	.st8{fill:url(#SVGID_1_);stroke:#2B53A4;stroke-width:0.5;stroke-miterlimit:10;}
	.st9{fill:none;}
	.st10{fill:url(#SVGID_2_);}
	.st11{fill:url(#SVGID_3_);}
	.st12{fill:#B3B3B3;}
	.st13{fill:url(#SVGID_4_);}
	.st14{fill:url(#SVGID_5_);}
	.st15{fill:url(#SVGID_6_);}
	.st16{fill:#FFFFFF;stroke:#FFFFFF;stroke-width:0.25;stroke-miterlimit:10;}
	.st17{fill:#00001D;}
	.st18{fill:#4DA0C5;}
	.st19{fill:url(#SVGID_7_);}
	.st20{fill:#2E6A85;}
	.st21{fill:none;stroke:#144FA1;stroke-width:0.113;stroke-linejoin:round;stroke-miterlimit:10;}
	.st22{fill:#F27337;}
	.st23{fill:#8EB8D4;}
	.st24{fill:#F38056;}
	.st25{fill:#626365;}
	.st26{fill:#EF6D23;}
	.st27{fill:#284B82;}
	.st28{fill:#242956;}
	.st29{fill:#15142A;}
	.st30{fill:#84C343;}
	.st31{fill:#4CA1C6;}
	.st32{fill:#121617;}
	.st33{fill:#CF8966;}
	.st34{fill:#F37639;}
	.st35{opacity:0.3;fill:url(#SVGID_8_);}
	.st36{fill:#373277;}
	.st37{fill:#E61E25;}
	.st38{fill:#2555A5;}
	.st39{fill:#2E225E;}
	.st40{fill:#F8A425;}
	.st41{fill:#2058A7;}
	.st42{fill:none;stroke:#205AA8;stroke-width:0.156;stroke-miterlimit:10;}
	.st43{fill:#49A3C7;}
	.st44{fill-rule:evenodd;clip-rule:evenodd;}
	.st45{fill-rule:evenodd;clip-rule:evenodd;fill:url(#SVGID_9_);}
	.st46{fill-rule:evenodd;clip-rule:evenodd;fill:url(#SVGID_10_);}
	.st47{fill-rule:evenodd;clip-rule:evenodd;fill:url(#SVGID_11_);}
	.st48{fill:#1D2251;}
	.st49{fill:#2260AC;}
	.st50{fill:url(#SVGID_12_);}
	.st51{fill:#FFFFFC;}
	.st52{fill:#4C9FC5;}
	.st53{fill:#28306D;}
	.st54{fill:#4C9EC5;}
	.st55{fill:#28306E;}
	.st56{fill:#29306F;}
	.st57{fill:#F7F7FB;}
	.st58{fill:url(#SVGID_13_);}
	.st59{fill:url(#SVGID_14_);}
	.st60{fill:url(#SVGID_15_);}
	.st61{fill:url(#SVGID_16_);}
	.st62{fill:#10123C;}
	.st63{fill:#F5842C;}
	.st64{fill:#1F305E;}
	.st65{fill:#87BBD1;}
	.st66{fill:#203160;}
	.st67{fill:#235779;}
	.st68{fill:#359FA1;}
	.st69{fill:#A4D1A4;}
	.st70{fill:#B9DBBC;}
	.st71{fill:#C6DDCA;}
	.st72{fill:#662E14;}
	.st73{fill:#1D79A4;}
	.st74{fill:#C14B28;}
	.st75{fill:url(#SVGID_17_);}
	.st76{fill:url(#SVGID_18_);}
	.st77{fill:url(#SVGID_19_);}
	.st78{fill:url(#SVGID_20_);}
	.st79{fill:url(#SVGID_21_);}
	.st80{fill:url(#SVGID_22_);}
	.st81{fill:url(#SVGID_23_);}
	.st82{fill:url(#SVGID_24_);}
	.st83{fill:url(#SVGID_25_);}
	.st84{fill:url(#SVGID_26_);}
	.st85{fill:url(#SVGID_27_);}
	.st86{fill:url(#SVGID_28_);}
	.st87{fill:url(#SVGID_29_);}
	.st88{fill:url(#SVGID_30_);}
	.st89{fill:#1F164B;}
	.st90{clip-path:url(#SVGID_32_);fill:#253D97;}
	.st91{fill:url(#SVGID_33_);}
	.st92{fill:url(#SVGID_34_);}
	.st93{fill:url(#SVGID_35_);}
	.st94{fill:url(#SVGID_36_);}
	.st95{fill:url(#SVGID_37_);}
	.st96{fill:url(#SVGID_38_);}
	.st97{fill:url(#SVGID_39_);}
	.st98{fill:url(#SVGID_40_);}
	.st99{fill:url(#SVGID_41_);}
	.st100{fill:#443F41;}
	.st101{fill:#28306F;}
	.st102{fill:#71C49D;}
	.st103{fill:#F0C6A7;}
	.st104{fill:#DB8D82;}
	.st105{fill:#EFB7AC;}
	.st106{opacity:0.21;}
	.st107{fill-rule:evenodd;clip-rule:evenodd;fill:#A9196E;}
	.st108{fill-rule:evenodd;clip-rule:evenodd;fill:#FBE42C;}
	.st109{fill:#FBE42C;}
	.st110{fill:#A9196E;}
	.st111{fill:#7FC143;}
	.st112{clip-path:url(#SVGID_45_);fill:#7FC143;}
	.st113{clip-path:url(#SVGID_51_);fill:#7FC143;}
	.st114{fill:#243F8F;}
	.st115{fill:#EF4E2F;}
	.st116{fill:#010007;}
	.st117{fill:#0C0D37;}
	.st118{fill:#FBAF2D;}
	.st119{fill:url(#SVGID_54_);}
	.st120{fill-rule:evenodd;clip-rule:evenodd;fill:#FFFFFF;}
	.st121{fill:#1D4690;}
	.st122{fill:#3AA949;}
	.st123{fill:#F37A24;}
	.st124{fill:none;stroke:#F37A24;stroke-width:3.7145;stroke-miterlimit:10;}
	.st125{fill:#3AA949;stroke:#FFFFFF;stroke-width:1.3104;stroke-miterlimit:10;}
	.st126{fill:#46A2BB;}
	.st127{fill:#7153A0;}
	.st128{fill:#27316C;}
	.st129{fill:#2C65AE;}
	.st130{fill:#452D7A;}
	.st131{fill:#442C7A;}
	.st132{fill:#1A2642;}
	.st133{fill-rule:evenodd;clip-rule:evenodd;fill:#567EB8;}
	.st134{fill-rule:evenodd;clip-rule:evenodd;fill:#6A7EB8;}
	.st135{fill-rule:evenodd;clip-rule:evenodd;fill:#6A7EB9;}
	.st136{fill-rule:evenodd;clip-rule:evenodd;fill:#EE3C2D;}
	.st137{fill-rule:evenodd;clip-rule:evenodd;fill:#EF493F;}
	.st138{fill-rule:evenodd;clip-rule:evenodd;fill:#ED2C24;}
	.st139{fill-rule:evenodd;clip-rule:evenodd;fill:#E9AE28;}
	.st140{fill-rule:evenodd;clip-rule:evenodd;fill:#D69B28;}
	.st141{fill-rule:evenodd;clip-rule:evenodd;fill:#FCB729;}
	.st142{fill-rule:evenodd;clip-rule:evenodd;fill:#409E47;}
	.st143{fill-rule:evenodd;clip-rule:evenodd;fill:#4BB450;}
	.st144{fill-rule:evenodd;clip-rule:evenodd;fill:#338440;}
	.st145{fill:#C09C36;}
	.st146{fill:#1E552A;}
	.st147{clip-path:url(#SVGID_56_);fill:url(#SVGID_57_);}
	.st148{fill:#023A1E;}
	.st149{fill:#FFFFFA;}
	.st150{fill:#0D4F28;}
	.st151{fill:#0E5128;}
	.st152{fill:#0D4E27;}
	.st153{fill:#0E5229;}
	.st154{fill:#0E4823;}
	.st155{fill:#0E4C27;}
	.st156{fill:#F3F6E0;}
	.st157{fill:#0E4F28;}
	.st158{fill:#114823;}
	.st159{fill:#105229;}
	.st160{fill:#0A4A2B;}
	.st161{fill:#134F27;}
	.st162{fill:#165229;}
	.st163{fill:#0D5029;}
	.st164{fill:#0B4E2B;}
	.st165{fill:#105028;}
	.st166{fill:#0A492A;}
	.st167{fill:#E9F3E2;}
	.st168{fill:#144D26;}
	.st169{fill:#185C2F;}
	.st170{fill:#0F5028;}
	.st171{fill:#F3F8EA;}
	.st172{fill:#114D26;}
	.st173{fill:#70A685;}
	.st174{fill:#0D4F2A;}
	.st175{fill:#094A24;}
	.st176{fill:#0F4F27;}
	.st177{fill:#0A4C26;}
	.st178{fill:#A2D29A;}
	.st179{fill:#4D7E44;}
	.st180{fill:#E8F2E1;}
	.st181{fill:#EDF5E5;}
	.st182{fill:#E6F2E7;}
	.st183{fill:#E5F1DC;}
	.st184{fill:#E9F3E3;}
	.st185{fill:#E9F3E5;}
	.st186{fill:#E5F1DB;}
	.st187{fill:#D8ECD7;}
	.st188{fill:#D9EBD4;}
	.st189{fill:#E2F0DE;}
	.st190{fill:#366B4B;}
	.st191{fill:#5D6162;}
	.st192{fill:#212E5F;}
	.st193{fill:#DD1F26;}
	.st194{clip-path:url(#SVGID_59_);}
	.st195{fill:#23396F;}
	.st196{fill:#7FC24E;}
	.st197{clip-path:url(#SVGID_59_);fill:#23396F;}
	.st198{clip-path:url(#SVGID_59_);fill:#7FC24E;}
	.st199{fill:#91CEA4;}
	.st200{fill:#90CEA4;}
	.st201{fill:#C02026;}
	.st202{fill:#362E7E;}
</style>
<g>
	<g id="XMLID_00000031192152592916018600000018048417902226323877_">
		<g id="XMLID_00000137102129738086981350000007511436159022330806_">
			<path class="st101" d="M22.77,10.43c5.22,0,9.22,1.04,11.76,3.33c2.02,1.89,3.5,4.74,3.5,8.39c0,4.61-1.94,8.09-5.14,10.38
				c-3.14,2.21-7.33,3.22-12.39,3.22H10.32v-1.12c3.5-0.24,3.86-0.48,3.86-3.81V15.38c0-3.35-0.36-3.51-3.5-3.75v-1.2H22.77z
				 M18.01,30.47c0,3.09,1.39,3.81,4.4,3.81c7.63,0,11.29-5.4,11.29-11.53c0-4.02-1.61-7.32-4.62-9.16
				c-1.89-1.22-4.35-1.81-7.27-1.81c-1.83,0-2.84,0.27-3.28,0.53c-0.38,0.27-0.52,0.75-0.52,2.26V30.47z"/>
		</g>
		<g id="XMLID_00000161596401389503934280000009883154647446093503_">
			<path class="st102" d="M14.09,18.23c1.26,0,2.19-0.99,2.19-2.1c0-1.25-0.93-2.18-2.13-2.18c-1.2,0-2.24,0.93-2.24,2.18
				C11.9,17.24,12.94,18.23,14.09,18.23z"/>
			<path class="st1" d="M14.15,13.71c1.35,0,2.37,1.04,2.37,2.42c0,1.29-1.09,2.34-2.43,2.34c-1.29,0-2.43-1.09-2.43-2.34
				C11.66,14.79,12.78,13.71,14.15,13.71z M14.09,17.99c1.07,0,1.95-0.84,1.95-1.87c0-1.11-0.81-1.95-1.89-1.95
				c-1.1,0-2,0.87-2,1.95C12.14,17.1,13.07,17.99,14.09,17.99z"/>
		</g>
		<g id="XMLID_00000088104088112966901180000002812212650815420345_">
			<path class="st102" d="M16.69,31.51v-8.43v-4.86c-1.83,0.69-3.88,1.14-6.07,1.49v0.93c2.19,0.36,2.5,0.56,2.54,2.44
				c0,0.18,0.01,0.38,0.01,0.6v7.83c0,2.72-0.3,2.88-2.84,3.11v1.12h9.24v-1.04C16.97,34.41,16.69,34.2,16.69,31.51z"/>
			<path class="st1" d="M16.69,17.99c0.05,0,0.1,0.01,0.14,0.04c0.07,0.04,0.1,0.12,0.1,0.19v13.29c0,2.59,0.23,2.69,2.66,2.96
				c0.12,0.01,0.21,0.11,0.21,0.23v1.04c0,0.13-0.11,0.23-0.24,0.23h-9.24c-0.13,0-0.24-0.1-0.24-0.23v-1.12
				c0-0.12,0.09-0.22,0.22-0.23c2.44-0.23,2.63-0.31,2.63-2.88v-7.83c0-0.22,0-0.41-0.01-0.59c-0.03-1.71-0.19-1.85-2.34-2.21
				c-0.12-0.02-0.2-0.12-0.2-0.23v-0.93c0-0.11,0.09-0.21,0.2-0.23c2.48-0.39,4.39-0.86,6.02-1.48C16.64,18,16.67,17.99,16.69,17.99
				z M19.33,34.91c-2.57-0.31-2.87-0.71-2.87-3.4V18.57c-1.55,0.55-3.34,0.99-5.59,1.35v0.54c2.08,0.36,2.5,0.65,2.54,2.63
				c0,0.19,0.01,0.38,0.01,0.6v7.83c0,2.77-0.4,3.08-2.84,3.33v0.67h8.76V34.91z"/>
		</g>
		<g id="XMLID_00000176018476452859583270000000029029937685469839_">
			<g id="XMLID_00000001657916820754953330000004414181079428453034_">
				<path class="st103" d="M18.36,34.11c0.09,0,0.19,0,0.23-0.06c0.04-0.06,0.04-0.13,0.04-0.2c-0.06,0.01-0.11,0.02-0.17,0.03
					C18.47,33.96,18.42,34.05,18.36,34.11z"/>
			</g>
			<g id="XMLID_00000146467171162911055900000013366883371705085317_">
				<path class="st104" d="M18.36,34.11c-0.03,0-0.06,0-0.09,0c-0.04,0.01-0.04,0.04-0.02,0.07c0.02-0.01,0.04-0.02,0.06-0.03
					C18.32,34.14,18.34,34.12,18.36,34.11z"/>
			</g>
			<g id="XMLID_00000138566126379986481440000017081434348722153604_">
				<path class="st103" d="M18.01,34C18.01,34,18.02,34,18.01,34c0.04,0.04,0.05,0.07,0.1,0.07c0.05,0.01,0.1-0.02,0.14-0.05
					c0.05-0.03,0.09-0.08,0.1-0.14c-0.05,0-0.11,0-0.16,0c-0.02,0-0.03-0.01-0.04-0.01C18.12,33.92,18.07,33.96,18.01,34z"/>
			</g>
			<g id="XMLID_00000110439542607088375280000011259209220489497249_">
				<path class="st103" d="M27.03,25.26c0.16,0.16,0.18,0.42,0.16,0.64c-0.01,0.09,0.12,0.1,0.15,0.02
					c0.05-0.15,0.05-0.33,0.01-0.49c0.01-0.01,0.02-0.02,0.03-0.03c0.27-0.41,0.8-0.58,1.24-0.71c0.45-0.13,0.92-0.2,1.39-0.2
					c0.88,0.01,1.74,0.3,2.45,0.85c1.26,0.97,1.89,2.82,1.21,4.35c-0.18,0.41-0.47,0.7-0.87,0.88c-0.34,0.15-0.68,0.25-0.99,0.45
					c-0.3,0.19-0.56,0.43-0.79,0.7c-0.26,0.31-0.5,0.61-0.85,0.82c-2.95,1.68-6.34-3.45-3.83-5.72c0,0,0,0,0,0
					c0.11,0.01,0.22,0,0.32-0.05c0.11-0.05,0.03-0.23-0.08-0.19c-0.27,0.09-0.57-0.07-0.65-0.36c-0.08-0.28,0.06-0.59,0.25-0.79
					C26.37,25.2,26.77,24.99,27.03,25.26z M26.28,26.22c-0.01-0.15,0.03-0.28,0.1-0.4c0.05,0.02,0.1,0.05,0.13,0.09
					c0.04,0.06,0.03,0.11,0.03,0.17c0,0.06,0.08,0.11,0.12,0.05c0.11-0.15-0.03-0.41-0.2-0.42c0.11-0.11,0.27-0.19,0.41-0.1
					c0.04,0.03,0.07-0.03,0.04-0.06c-0.33-0.43-0.95,0.29-0.75,0.69C26.19,26.31,26.28,26.29,26.28,26.22z M27.22,31.69
					c0.04,0.01,0.05-0.04,0.02-0.06c-0.2-0.13-0.32-0.28-0.39-0.52c-0.02-0.07-0.11-0.04-0.1,0.03
					C26.79,31.38,26.99,31.62,27.22,31.69z M27.48,30.11c0.01,0,0.03-0.01,0.04-0.02c0.23-0.23,0.11-0.58-0.08-0.8
					c-0.19-0.29-0.49-0.46-0.64-0.15c0,0,0,0.01,0,0.01c-0.01,0.02-0.02,0.04-0.03,0.06c-0.1,0.26,0.06,0.6,0.24,0.78
					C27.14,30.11,27.34,30.19,27.48,30.11z M28.33,28.52c0.15,0.23,0.1,0.51,0.13,0.77c0.01,0.07,0.1,0.09,0.12,0.02
					c0.12-0.33,0.1-0.73-0.13-1c-0.23-0.27-0.62-0.35-0.94-0.23c-0.12,0.05-0.08,0.23,0.05,0.21
					C27.85,28.22,28.15,28.25,28.33,28.52z M28.45,30.55c0.14-0.09,0.26-0.21,0.36-0.36c0.01-0.01-0.01-0.02-0.01-0.01
					c-0.15,0.14-0.32,0.25-0.5,0.32c-0.05,0.02-0.06,0.08-0.01,0.11c0.09,0.07,0.23,0.22,0.11,0.33c-0.13,0.12-0.35-0.06-0.32-0.21
					c0.02-0.12-0.15-0.16-0.17-0.05c-0.05,0.3,0.27,0.58,0.54,0.44C28.68,31.01,28.64,30.68,28.45,30.55z M29.64,32.44
					c0.13-0.2,0.01-0.47-0.12-0.64c-0.15-0.2-0.36-0.37-0.61-0.29c-0.02,0-0.03,0.02-0.03,0.03c-0.08,0.05-0.13,0.14-0.12,0.26
					C28.77,32.13,29.34,32.9,29.64,32.44z M30.39,30.89c0.17,0.21,0.11,0.46,0.04,0.69c-0.02,0.07,0.06,0.1,0.11,0.06
					c0.26-0.21,0.19-0.67,0-0.91c-0.24-0.29-0.64-0.32-0.96-0.16c-0.11,0.06-0.01,0.22,0.09,0.17
					C29.91,30.63,30.21,30.67,30.39,30.89z"/>
			</g>
			<g id="XMLID_00000038401247692293699910000002091869855599456651_">
				<path class="st103" d="M18.14,33.7c0,0.01,0.01,0.01,0.01,0.02c0.01,0,0.02-0.01,0.04-0.01c0.45,0.01,1.04-0.2,1.18-0.71
					c0.01-0.05,0.1-0.06,0.11,0c0.02,0.1,0,0.19-0.05,0.28c1.01,0.71,2.44,1.29,3.63,0.75c0.32-0.14,0.54-0.4,0.73-0.68
					c0.25-0.37,0.3-0.73,0.11-1.15c-0.28-0.61-0.75-0.95-1.22-1.38c-0.03-0.03,0-0.09,0.04-0.07c0.6,0.21,1.15,0.88,1.38,1.47
					c0.04,0.1,0.06,0.2,0.08,0.29c0.16-0.63,0.79-1.01,1.35-1.18c0.06-0.02,0.08,0.08,0.03,0.1c-0.61,0.26-1.35,0.75-1.19,1.56
					c0.15,0.74,0.92,0.88,1.54,0.75c0.61-0.12,1.17-0.41,1.8-0.39c0.61,0.01,1.31,0.2,1.78-0.33c-0.72,0.14-1.48-0.04-2.13-0.43
					c-0.01,0-0.02,0.01-0.03,0c-0.36-0.08-0.69-0.17-1.06-0.14c-0.39,0.04-0.73,0.19-1.04,0.42c-0.07,0.05-0.15-0.06-0.09-0.12
					c0.47-0.4,1.23-0.62,1.85-0.43c-0.21-0.16-0.4-0.34-0.58-0.54c-0.58-0.67-1.04-1.64-1.15-2.59c-0.74-0.06-1.42-0.65-2.03-1.04
					c-0.76-0.49-1.52-1.01-2.46-0.98c-0.87,0.02-1.77,0.45-2.02,1.38c-0.24,0.89-0.24,1.97,0.33,2.72c0.02,0.02,0.02,0.04,0.02,0.06
					c0.14,0.07,0.28,0.16,0.41,0.26c0.47,0.35,0.97,0.51,1.55,0.47c0.11-0.01,0.1,0.16,0,0.17c-0.38,0.05-0.77-0.01-1.12-0.16
					c-0.35-0.15-0.61-0.48-0.96-0.6c-0.26-0.09-0.52,0.03-0.66,0.27c-0.13,0.23-0.1,0.46-0.1,0.71c0,0.16-0.03,0.23-0.13,0.35
					c-0.09,0.1-0.15,0-0.22,0.22c-0.03,0.1-0.01,0.23,0,0.34c0,0.02,0.01,0.04,0.01,0.06c0,0.01,0,0.01,0,0.02
					c0.02,0.04,0,0.11-0.05,0.1c-0.08-0.01-0.15-0.02-0.23,0.03c-0.08,0.05-0.12,0.16-0.07,0.25c0.05,0.1,0.14,0.13,0.24,0.1
					c0.12-0.03,0.24-0.09,0.28-0.22C18.07,33.67,18.12,33.66,18.14,33.7z"/>
			</g>
			<g id="XMLID_00000028320509534217305750000018187329674578421439_">
				<path class="st104" d="M26.92,25.57c-0.33-0.43-0.95,0.29-0.75,0.69c0.03,0.05,0.12,0.03,0.11-0.03
					c-0.01-0.15,0.03-0.28,0.1-0.4c0.05,0.02,0.1,0.05,0.13,0.09c0.04,0.06,0.03,0.11,0.03,0.17c0,0.06,0.08,0.11,0.12,0.05
					c0.11-0.15-0.03-0.41-0.2-0.42c0.11-0.11,0.27-0.19,0.41-0.1C26.91,25.65,26.95,25.6,26.92,25.57z"/>
			</g>
			<g id="XMLID_00000111910510195711012090000012747810570523308439_">
				<path class="st105" d="M26.77,29.2c-0.1,0.26,0.06,0.6,0.24,0.78c0.13,0.13,0.32,0.21,0.47,0.12c0.01,0,0.03-0.01,0.04-0.02
					c0.23-0.23,0.11-0.58-0.08-0.8c-0.19-0.29-0.49-0.46-0.64-0.15c0,0,0,0.01,0,0.01C26.79,29.16,26.78,29.18,26.77,29.2z"/>
			</g>
			<g id="XMLID_00000021100964177259186770000000559361893261991316_">
				<path class="st104" d="M26.75,31.14c0.04,0.24,0.24,0.48,0.47,0.55c0.04,0.01,0.05-0.04,0.02-0.06
					c-0.2-0.13-0.32-0.28-0.39-0.52C26.83,31.04,26.74,31.07,26.75,31.14z"/>
			</g>
			<g id="XMLID_00000055681842505773025500000018326872104334174853_">
				<path class="st104" d="M27.51,28.07c-0.12,0.05-0.08,0.23,0.05,0.21c0.28-0.05,0.59-0.03,0.77,0.24
					c0.15,0.23,0.1,0.51,0.13,0.77c0.01,0.07,0.1,0.09,0.12,0.02c0.12-0.33,0.1-0.73-0.13-1C28.22,28.03,27.83,27.95,27.51,28.07z"
					/>
			</g>
			<g id="XMLID_00000128458396010237527030000018100418401527141303_">
				<path class="st104" d="M28.8,30.18c-0.15,0.14-0.32,0.25-0.5,0.32c-0.05,0.02-0.06,0.08-0.01,0.11
					c0.09,0.07,0.23,0.22,0.11,0.33c-0.13,0.12-0.35-0.06-0.32-0.21c0.02-0.12-0.15-0.16-0.17-0.05c-0.05,0.3,0.27,0.58,0.54,0.44
					c0.24-0.12,0.2-0.45,0.01-0.58c0.14-0.09,0.26-0.21,0.36-0.36C28.82,30.18,28.8,30.17,28.8,30.18z"/>
			</g>
			<g id="XMLID_00000032612555872834912660000017078629221839341483_">
				<path class="st105" d="M28.91,31.52c0.25-0.08,0.47,0.09,0.61,0.29c0.12,0.17,0.25,0.44,0.12,0.64
					c-0.3,0.46-0.87-0.31-0.88-0.63c0-0.12,0.05-0.21,0.12-0.26C28.89,31.53,28.9,31.52,28.91,31.52z M29.4,32.17c0,0,0,0.01,0,0.01
					c0,0,0,0,0,0c0.02,0.05,0.03,0.04,0.01-0.02c-0.01-0.01-0.01-0.02-0.02-0.04C29.4,32.14,29.4,32.15,29.4,32.17z"/>
			</g>
			<g id="XMLID_00000128479691902341193400000003553011812098589607_">
				<path class="st104" d="M30.43,31.58c-0.02,0.07,0.06,0.1,0.11,0.06c0.26-0.21,0.19-0.67,0-0.91c-0.24-0.29-0.64-0.32-0.96-0.16
					c-0.11,0.06-0.01,0.22,0.09,0.17c0.24-0.11,0.55-0.07,0.72,0.15C30.56,31.1,30.5,31.35,30.43,31.58z"/>
			</g>
			<g id="XMLID_00000053521905890674360890000004955968044175153848_" class="st106">
				<path class="st103" d="M25.45,28.79c-0.03-0.84,0.39-1.78,1.18-2.09c0.05-0.02,0.07,0.04,0.05,0.08c0.03,0.02,0.04,0.06,0,0.09
					c-0.68,0.7-1.08,1.64-1.06,2.64c0,0.16-0.23,0.16-0.23,0C25.38,29.27,25.4,29.03,25.45,28.79z"/>
			</g>
			<g id="XMLID_00000047018518148139108070000011768138449904172476_" class="st106">
				<path class="st103" d="M25.08,32.84c0,0,0.01,0.01,0.01,0.01c0.03,0.02,0.08,0.01,0.1-0.01l0,0c0.01,0,0.02-0.01,0.04-0.02
					c0.01-0.01,0.03-0.02,0.04-0.04c0.03,0,0.05-0.01,0.08-0.04c0.03-0.01,0.05-0.03,0.08-0.04c0.1-0.04,0.2-0.08,0.3-0.12
					c0.16-0.05,0.32-0.09,0.48-0.1c0.24-0.03,0.47,0,0.7,0.02c0.74,0.54,1.68,1.02,2.54,0.59c0.03-0.01,0.01-0.06-0.02-0.06
					c-0.49,0.06-0.96,0.1-1.43-0.09c-0.27-0.11-0.55-0.27-0.8-0.45c0.02-0.03,0.01-0.08-0.02-0.09c-0.07-0.03-0.14-0.05-0.21-0.07
					c-0.08-0.06-0.15-0.12-0.22-0.17c0-0.02-0.02-0.05-0.05-0.05c-0.01,0-0.01,0-0.02,0c-0.01-0.01-0.03-0.02-0.04-0.04
					c-0.1-0.08-0.2-0.17-0.29-0.27c0-0.01,0-0.02,0-0.02c-0.38-0.59-0.77-1.12-0.92-1.83c-0.01-0.04-0.03-0.06-0.06-0.06
					c-0.04-0.2-0.06-0.4-0.06-0.6c0-0.15-0.23-0.15-0.22,0c0.05,0.93,0.44,1.88,1.06,2.57c-0.41,0.12-0.85,0.39-1.05,0.76
					c-0.01,0.02-0.01,0.04-0.01,0.05c-0.01,0.02-0.03,0.03-0.04,0.05C25.02,32.75,25.04,32.81,25.08,32.84z M26.24,32.27
					c0.1-0.02,0.19-0.04,0.29-0.06c0.02,0.02,0.04,0.03,0.06,0.05C26.48,32.25,26.36,32.26,26.24,32.27z"/>
			</g>
			<g id="XMLID_00000026885399922706244830000004801289301219880332_" class="st106">
				<path class="st103" d="M22.88,30.73c0.54,0.18,1.06,0.63,1.26,1.2c0.32-0.38,0.79-0.66,1.28-0.67c0.05,0,0.06,0.07,0.01,0.08
					c0.03,0,0.06,0,0.09,0c0.04,0,0.06,0.07,0.01,0.08c-0.46,0.1-1.21,0.44-1.24,1c-0.01,0.12-0.17,0.12-0.17,0
					c0-0.05,0-0.1,0.01-0.14c-0.02-0.06-0.05-0.11-0.07-0.17c0,0,0,0,0,0c-0.26-0.55-0.63-0.99-1.22-1.2
					C22.72,30.88,22.76,30.7,22.88,30.73z"/>
			</g>
			<g id="XMLID_00000101070758815060692750000014714169495389883823_" class="st106">
				<path class="st103" d="M18.53,29.27c0.06-0.57,0.17-1.2,0.63-1.59c0.45-0.37,1.14-0.58,1.71-0.5c0.01,0,0.02,0.01,0.02,0.01
					c0.5-0.01,1,0.12,1.4,0.41c0.02,0.01,0.01,0.04-0.01,0.04c-0.51-0.15-1-0.32-1.54-0.27c-0.51,0.05-0.99,0.27-1.35,0.66
					c-0.37,0.41-0.48,0.93-0.52,1.47c-0.01,0.13-0.02,0.25-0.02,0.38c0.06,0.49,0.24,0.97,0.54,1.38c0.02,0.02,0.02,0.05,0.02,0.07
					c0.19,0.14,0.37,0.27,0.58,0.37c0.35,0.18,0.71,0.18,1.08,0.26c0.04,0.01,0.03,0.06,0,0.07c-0.74,0.25-1.52-0.36-2.08-0.77
					c-0.05-0.04-0.05-0.1-0.02-0.14c-0.12-0.24-0.24-0.5-0.3-0.76c-0.04-0.21-0.04-0.42-0.03-0.63c-0.01-0.13-0.01-0.25,0-0.38
					C18.58,29.37,18.53,29.33,18.53,29.27z"/>
			</g>
			<g id="XMLID_00000026876652720028563470000017189798127596257187_" class="st106">
				<path class="st103" d="M19.46,33.32c0.02-0.01,0.03-0.02,0.04-0.03c0,0,0.01,0.01,0.01,0.01c0.69,0.53,1.5,0.98,2.38,1
					c0.72,0.02,1.48-0.26,1.89-0.91c0.01-0.02,0.01-0.03,0.01-0.05c0.23-0.26,0.34-0.6,0.22-1c-0.01-0.04-0.07-0.03-0.07,0.01
					c0.02,1.04-0.98,1.45-1.84,1.46c-0.9,0.01-1.72-0.36-2.5-0.78c-0.01-0.01-0.03-0.01-0.04-0.01c-0.02-0.03-0.06-0.03-0.07,0.01
					c0,0,0,0.01,0,0.01c-0.04,0.03-0.06,0.08-0.05,0.12c-0.02,0.03-0.04,0.05-0.06,0.08C19.34,33.3,19.41,33.35,19.46,33.32z
					 M21.77,34.06c-0.26-0.02-0.51-0.08-0.75-0.16c0.48,0.13,0.97,0.18,1.45,0.11C22.25,34.06,22.01,34.08,21.77,34.06z"/>
			</g>
			<g id="XMLID_00000062183984794074771180000000797172296543620791_" class="st106">
				<path class="st103" d="M17.99,33.97c0.08-0.03,0.09-0.1,0.11-0.17c0.01-0.04,0.07-0.05,0.09-0.01c0.06,0.12-0.05,0.27-0.16,0.31
					C17.95,34.13,17.91,34,17.99,33.97z"/>
			</g>
			<g id="XMLID_00000008123268998350088620000011398240439648579475_" class="st106">
				<path class="st103" d="M18.31,34.11c0.04-0.03,0.07-0.06,0.1-0.11c0.02-0.04,0.03-0.09,0.04-0.14c0.01-0.05,0.09-0.05,0.1,0
					c0.02,0.13-0.04,0.3-0.15,0.37C18.33,34.26,18.25,34.16,18.31,34.11z"/>
			</g>
			<g id="XMLID_00000116935798822858359910000009835312502344430765_" class="st106">
				<path class="st103" d="M26.43,25.72c0.11-0.11,0.33-0.21,0.48-0.12c0.03,0.02,0.03,0.07,0,0.09c-0.12,0.06-0.25,0.05-0.36,0.15
					c0.14,0.11,0.25,0.28,0.16,0.46c-0.04,0.09-0.17,0.01-0.13-0.08c0.05-0.11-0.03-0.21-0.11-0.29c-0.06,0.09-0.08,0.21-0.07,0.32
					c0.01,0.11-0.16,0.11-0.16,0C26.22,26.05,26.28,25.85,26.43,25.72z"/>
			</g>
			<g id="XMLID_00000042735606783299308690000016702526304674261924_" class="st106">
				<path class="st103" d="M27.33,25.63c0.04-0.04,0.08-0.07,0.13-0.11c-0.08-0.03-0.12-0.16-0.02-0.22c0,0,0.01-0.01,0.01-0.01
					c0,0,0,0,0,0c0.18-0.24,0.51-0.45,0.8-0.47c0.02,0,0.03,0.01,0.04,0.03c0.84-0.34,1.76-0.44,2.65-0.24
					c1.03,0.24,2.14,0.93,2.62,1.94c0.01,0.02-0.02,0.05-0.04,0.03c-0.35-0.41-0.69-0.8-1.13-1.11c-0.45-0.31-0.95-0.53-1.47-0.64
					c-0.47-0.1-0.94-0.12-1.41-0.06c-0.72,0.27-1.41,0.52-2.03,1.03C27.37,25.88,27.22,25.73,27.33,25.63z"/>
			</g>
			<g id="XMLID_00000065763989413821475960000007559496742316995234_" class="st106">
				<path class="st103" d="M17.55,33.59c0.08-0.08,0.2-0.1,0.32-0.09c-0.07-0.19-0.02-0.41,0.1-0.56c0.09-0.11,0.19-0.15,0.26-0.27
					c0.09-0.16,0.02-0.31,0.02-0.48c0.01-0.43,0.36-0.86,0.79-0.69c0.04,0.01,0.04,0.09-0.01,0.08c-0.32-0.04-0.55,0.2-0.57,0.52
					c-0.01,0.17,0.05,0.34,0.04,0.51c-0.01,0.12-0.05,0.22-0.13,0.3c-0.18,0.17-0.33,0.24-0.29,0.53c0.01,0.06-0.02,0.1-0.05,0.12
					c0.01,0.03,0,0.07-0.04,0.07c-0.09,0.01-0.19,0-0.27,0.06c-0.07,0.05-0.07,0.11-0.04,0.18c0.02,0.07-0.07,0.16-0.13,0.11
					C17.42,33.88,17.45,33.69,17.55,33.59z"/>
			</g>
			<g id="XMLID_00000160878324119335228950000007900308649403150738_">
				<path class="st104" d="M18.25,34.02c0.05-0.03,0.09-0.08,0.1-0.14c-0.05,0-0.11,0-0.16,0c-0.02,0-0.03-0.01-0.04-0.01
					c-0.03,0.05-0.08,0.1-0.14,0.13c0,0,0,0,0.01,0c0.03,0.03,0.05,0.06,0.09,0.06C18.16,34.07,18.21,34.05,18.25,34.02z
					 M23.45,34.01c-0.55,0.43-1.37,0.46-2.02,0.35c-0.76-0.12-1.48-0.47-2.11-0.94c-0.07,0.08-0.16,0.15-0.24,0.21
					c-0.11,0.08-0.23,0.14-0.35,0.18c0.05,0.09,0.04,0.23-0.02,0.31c-0.07,0.1-0.27,0.17-0.39,0.12c-0.02-0.01-0.05-0.04-0.07-0.07
					c0.02-0.01,0.04-0.02,0.06-0.03c0.02-0.01,0.04-0.03,0.05-0.04c0.09,0,0.19,0,0.23-0.06c0.04-0.06,0.04-0.13,0.04-0.2
					c-0.06,0.01-0.11,0.02-0.17,0.03c0.02,0.08-0.03,0.17-0.1,0.23c-0.03,0-0.06,0-0.09,0c-0.04,0.01-0.04,0.04-0.02,0.07
					c-0.13,0.05-0.32,0.04-0.33-0.13c-0.01,0-0.02,0.01-0.02,0.01c-0.17,0.07-0.36,0.07-0.47-0.1c-0.09-0.13-0.09-0.32,0.02-0.44
					c0.07-0.08,0.2-0.14,0.31-0.13l0.12-0.02c0,0.02,0.01,0.04,0.01,0.06c0,0.01,0,0.01,0,0.02c0.02,0.04,0,0.11-0.05,0.1
					c-0.08-0.01-0.15-0.02-0.23,0.03c-0.08,0.05-0.12,0.16-0.07,0.25c0.05,0.1,0.14,0.13,0.24,0.1c0.12-0.03,0.24-0.09,0.28-0.22
					c0.01-0.04,0.07-0.05,0.09-0.01c0,0.01,0.01,0.01,0.01,0.02c0.01,0,0.02-0.01,0.04-0.01c0.45,0.01,1.04-0.2,1.18-0.71
					c0.01-0.05,0.1-0.06,0.11,0c0.02,0.1,0,0.19-0.05,0.28c1.01,0.71,2.44,1.29,3.63,0.75c0.32-0.14,0.54-0.4,0.73-0.68
					c0.25-0.37,0.3-0.73,0.11-1.15c-0.28-0.61-0.75-0.95-1.22-1.38c-0.03-0.03,0-0.09,0.04-0.07c0.6,0.21,1.15,0.88,1.38,1.47
					c0.04,0.1,0.06,0.2,0.08,0.29c0.16-0.63,0.79-1.01,1.35-1.18c0.06-0.02,0.08,0.08,0.03,0.1c-0.61,0.26-1.35,0.75-1.19,1.56
					c0.15,0.74,0.92,0.88,1.54,0.75c0.61-0.12,1.17-0.41,1.8-0.39c0.61,0.01,1.31,0.2,1.78-0.33l0.12-0.01
					c0.01,0.02,0.01,0.03,0,0.05c-0.39,0.69-1.26,0.48-1.9,0.48c-0.84,0-1.6,0.55-2.45,0.45c-0.55-0.06-1.03-0.47-1.1-1.03
					C24.07,33.38,23.79,33.75,23.45,34.01z"/>
			</g>
			<g id="XMLID_00000132799515692605050230000003787543463328123560_">
				<path class="st104" d="M17.75,33.39c-0.04-0.14-0.07-0.29-0.02-0.43c0.02-0.07,0.06-0.12,0.11-0.18
					c0.02-0.03,0.06-0.03,0.08-0.06c0.16-0.18,0.13-0.22,0.12-0.38c-0.02-0.4,0.11-0.83,0.48-1.01c0.1-0.05,0.2-0.07,0.3-0.06
					c-0.51-0.68-0.5-1.63-0.35-2.46c0.16-0.91,0.73-1.5,1.58-1.73c0.93-0.25,1.81,0.01,2.62,0.5c0.45,0.27,0.89,0.57,1.34,0.85
					c0.4,0.25,0.78,0.49,1.23,0.59c-0.06-0.85,0.18-1.68,0.88-2.27c-0.13-0.06-0.25-0.17-0.33-0.31c-0.22-0.36-0.08-0.82,0.17-1.12
					c0.25-0.3,0.7-0.54,1.07-0.34c0.09,0.05,0.17,0.12,0.22,0.21c0.48-0.61,1.44-0.82,2.15-0.9c0.87-0.1,1.76,0.05,2.55,0.46
					c1.47,0.78,2.41,2.44,2.14,4.16c-0.07,0.43-0.21,0.88-0.46,1.23c-0.23,0.33-0.55,0.52-0.91,0.66c-0.45,0.18-0.87,0.37-1.24,0.7
					c-0.33,0.3-0.56,0.7-0.91,0.99c-0.3,0.25-0.63,0.4-0.96,0.49c0,0.01,0.01,0.01,0.01,0.02l-0.12,0.01
					c-0.72,0.14-1.48-0.04-2.13-0.43c-0.01,0-0.02,0.01-0.03,0c-0.36-0.08-0.69-0.17-1.06-0.14c-0.39,0.04-0.73,0.19-1.04,0.42
					c-0.07,0.05-0.15-0.06-0.09-0.12c0.47-0.4,1.23-0.62,1.85-0.43c-0.21-0.16-0.4-0.34-0.58-0.54c-0.58-0.67-1.04-1.64-1.15-2.59
					c-0.74-0.06-1.42-0.65-2.03-1.04c-0.76-0.49-1.52-1.01-2.46-0.98c-0.87,0.02-1.77,0.45-2.02,1.38
					c-0.24,0.89-0.24,1.97,0.33,2.72c0.02,0.02,0.02,0.04,0.02,0.06c0.14,0.07,0.28,0.16,0.41,0.26c0.47,0.35,0.97,0.51,1.55,0.47
					c0.11-0.01,0.1,0.16,0,0.17c-0.38,0.05-0.77-0.01-1.12-0.16c-0.35-0.15-0.61-0.48-0.96-0.6c-0.26-0.09-0.52,0.03-0.66,0.27
					c-0.13,0.23-0.1,0.46-0.1,0.71c0,0.16-0.03,0.23-0.13,0.35c-0.09,0.1-0.15,0-0.22,0.22c-0.03,0.1-0.01,0.23,0,0.34L17.75,33.39z
					 M26.56,26.57c0.11-0.04,0.18,0.14,0.08,0.19c-0.11,0.05-0.22,0.06-0.32,0.05c0,0,0,0,0,0c-2.51,2.27,0.89,7.4,3.83,5.72
					c0.36-0.2,0.59-0.5,0.85-0.82c0.23-0.28,0.49-0.51,0.79-0.7c0.31-0.2,0.66-0.31,0.99-0.45c0.41-0.18,0.69-0.47,0.87-0.88
					c0.68-1.53,0.05-3.38-1.21-4.35c-0.71-0.54-1.57-0.83-2.45-0.85c-0.47-0.01-0.93,0.06-1.39,0.2c-0.44,0.13-0.97,0.31-1.24,0.71
					c-0.01,0.01-0.02,0.02-0.03,0.03c0.04,0.16,0.04,0.33-0.01,0.49c-0.03,0.08-0.16,0.07-0.15-0.02c0.02-0.22,0-0.47-0.16-0.64
					c-0.26-0.26-0.66-0.05-0.87,0.17c-0.19,0.2-0.34,0.5-0.25,0.79C26,26.5,26.29,26.67,26.56,26.57z"/>
			</g>
		</g>
	</g>
</g>
</svg>
