<?xml version="1.0" encoding="utf-8"?>
<!-- Generator: Adobe Illustrator 25.0.1, SVG Export Plug-In . SVG Version: 6.00 Build 0)  -->
<svg version="1.0" id="Layer_1" xmlns="http://www.w3.org/2000/svg" xmlns:xlink="http://www.w3.org/1999/xlink" x="0px" y="0px"
	 viewBox="0 0 44.5 49.82" style="enable-background:new 0 0 44.5 49.82;" xml:space="preserve">
<style type="text/css">
	.st0{fill:#000104;}
	.st1{fill:#FFFFFF;}
	.st2{fill:#EF493E;}
	.st3{opacity:0.6;fill-rule:evenodd;clip-rule:evenodd;fill:#FBBE43;}
	.st4{opacity:0.6;fill-rule:evenodd;clip-rule:evenodd;fill:#EF930E;}
	.st5{opacity:0.6;fill-rule:evenodd;clip-rule:evenodd;fill:#E67906;}
	.st6{fill:#9F8829;}
	.st7{fill:#3972A6;}
	.st8{fill:url(#SVGID_1_);stroke:#2B53A4;stroke-width:0.5;stroke-miterlimit:10;}
	.st9{fill:none;}
	.st10{fill:url(#SVGID_2_);}
	.st11{fill:url(#SVGID_3_);}
	.st12{fill:#B3B3B3;}
	.st13{fill:url(#SVGID_4_);}
	.st14{fill:url(#SVGID_5_);}
	.st15{fill:url(#SVGID_6_);}
	.st16{fill:#FFFFFF;stroke:#FFFFFF;stroke-width:0.25;stroke-miterlimit:10;}
	.st17{fill:#00001D;}
	.st18{fill:#4DA0C5;}
	.st19{fill:url(#SVGID_7_);}
	.st20{fill:#2E6A85;}
	.st21{fill:none;stroke:#144FA1;stroke-width:0.113;stroke-linejoin:round;stroke-miterlimit:10;}
	.st22{fill:#F27337;}
	.st23{fill:#8EB8D4;}
	.st24{fill:#F38056;}
	.st25{fill:#626365;}
	.st26{fill:#EF6D23;}
	.st27{fill:#284B82;}
	.st28{fill:#242956;}
	.st29{fill:#15142A;}
	.st30{fill:#84C343;}
	.st31{fill:#4CA1C6;}
	.st32{fill:#121617;}
	.st33{fill:#CF8966;}
	.st34{fill:#F37639;}
	.st35{opacity:0.3;fill:url(#SVGID_8_);}
	.st36{fill:#373277;}
	.st37{fill:#E61E25;}
	.st38{fill:#2555A5;}
	.st39{fill:#2E225E;}
	.st40{fill:#F8A425;}
	.st41{fill:#2058A7;}
	.st42{fill:none;stroke:#205AA8;stroke-width:0.156;stroke-miterlimit:10;}
	.st43{fill:#49A3C7;}
	.st44{fill-rule:evenodd;clip-rule:evenodd;}
	.st45{fill-rule:evenodd;clip-rule:evenodd;fill:url(#SVGID_9_);}
	.st46{fill-rule:evenodd;clip-rule:evenodd;fill:url(#SVGID_10_);}
	.st47{fill-rule:evenodd;clip-rule:evenodd;fill:url(#SVGID_11_);}
	.st48{fill:#1D2251;}
	.st49{fill:#2260AC;}
	.st50{fill:url(#SVGID_12_);}
	.st51{fill:#FFFFFC;}
	.st52{fill:#4C9FC5;}
	.st53{fill:#28306D;}
	.st54{fill:#4C9EC5;}
	.st55{fill:#28306E;}
	.st56{fill:#29306F;}
	.st57{fill:#F7F7FB;}
	.st58{fill:url(#SVGID_13_);}
	.st59{fill:url(#SVGID_14_);}
	.st60{fill:url(#SVGID_15_);}
	.st61{fill:url(#SVGID_16_);}
	.st62{fill:#10123C;}
	.st63{fill:#F5842C;}
	.st64{fill:#1F305E;}
	.st65{fill:#87BBD1;}
	.st66{fill:#203160;}
	.st67{fill:#235779;}
	.st68{fill:#359FA1;}
	.st69{fill:#A4D1A4;}
	.st70{fill:#B9DBBC;}
	.st71{fill:#C6DDCA;}
	.st72{fill:#662E14;}
	.st73{fill:#1D79A4;}
	.st74{fill:#C14B28;}
	.st75{fill:url(#SVGID_17_);}
	.st76{fill:url(#SVGID_18_);}
	.st77{fill:url(#SVGID_19_);}
	.st78{fill:url(#SVGID_20_);}
	.st79{fill:url(#SVGID_21_);}
	.st80{fill:url(#SVGID_22_);}
	.st81{fill:url(#SVGID_23_);}
	.st82{fill:url(#SVGID_24_);}
	.st83{fill:url(#SVGID_25_);}
	.st84{fill:url(#SVGID_26_);}
	.st85{fill:url(#SVGID_27_);}
	.st86{fill:url(#SVGID_28_);}
	.st87{fill:url(#SVGID_29_);}
	.st88{fill:url(#SVGID_30_);}
	.st89{fill:#1F164B;}
	.st90{clip-path:url(#SVGID_32_);fill:#253D97;}
	.st91{fill:url(#SVGID_33_);}
	.st92{fill:url(#SVGID_34_);}
	.st93{fill:url(#SVGID_35_);}
	.st94{fill:url(#SVGID_36_);}
	.st95{fill:url(#SVGID_37_);}
	.st96{fill:url(#SVGID_38_);}
	.st97{fill:url(#SVGID_39_);}
	.st98{fill:url(#SVGID_40_);}
	.st99{fill:url(#SVGID_41_);}
	.st100{fill:#443F41;}
	.st101{fill:#28306F;}
	.st102{fill:#71C49D;}
	.st103{fill:#F0C6A7;}
	.st104{fill:#DB8D82;}
	.st105{fill:#EFB7AC;}
	.st106{opacity:0.21;}
	.st107{fill-rule:evenodd;clip-rule:evenodd;fill:#A9196E;}
	.st108{fill-rule:evenodd;clip-rule:evenodd;fill:#FBE42C;}
	.st109{fill:#FBE42C;}
	.st110{fill:#A9196E;}
	.st111{fill:#7FC143;}
	.st112{clip-path:url(#SVGID_45_);fill:#7FC143;}
	.st113{clip-path:url(#SVGID_51_);fill:#7FC143;}
	.st114{fill:#243F8F;}
	.st115{fill:#EF4E2F;}
	.st116{fill:#010007;}
	.st117{fill:#0C0D37;}
	.st118{fill:#FBAF2D;}
	.st119{fill:url(#SVGID_54_);}
	.st120{fill-rule:evenodd;clip-rule:evenodd;fill:#FFFFFF;}
	.st121{fill:#1D4690;}
	.st122{fill:#3AA949;}
	.st123{fill:#F37A24;}
	.st124{fill:none;stroke:#F37A24;stroke-width:3.7145;stroke-miterlimit:10;}
	.st125{fill:#3AA949;stroke:#FFFFFF;stroke-width:1.3104;stroke-miterlimit:10;}
	.st126{fill:#46A2BB;}
	.st127{fill:#7153A0;}
	.st128{fill:#27316C;}
	.st129{fill:#2C65AE;}
	.st130{fill:#452D7A;}
	.st131{fill:#442C7A;}
	.st132{fill:#1A2642;}
	.st133{fill-rule:evenodd;clip-rule:evenodd;fill:#567EB8;}
	.st134{fill-rule:evenodd;clip-rule:evenodd;fill:#6A7EB8;}
	.st135{fill-rule:evenodd;clip-rule:evenodd;fill:#6A7EB9;}
	.st136{fill-rule:evenodd;clip-rule:evenodd;fill:#EE3C2D;}
	.st137{fill-rule:evenodd;clip-rule:evenodd;fill:#EF493F;}
	.st138{fill-rule:evenodd;clip-rule:evenodd;fill:#ED2C24;}
	.st139{fill-rule:evenodd;clip-rule:evenodd;fill:#E9AE28;}
	.st140{fill-rule:evenodd;clip-rule:evenodd;fill:#D69B28;}
	.st141{fill-rule:evenodd;clip-rule:evenodd;fill:#FCB729;}
	.st142{fill-rule:evenodd;clip-rule:evenodd;fill:#409E47;}
	.st143{fill-rule:evenodd;clip-rule:evenodd;fill:#4BB450;}
	.st144{fill-rule:evenodd;clip-rule:evenodd;fill:#338440;}
	.st145{fill:#C09C36;}
	.st146{fill:#1E552A;}
	.st147{clip-path:url(#SVGID_56_);fill:url(#SVGID_57_);}
	.st148{fill:#023A1E;}
	.st149{fill:#FFFFFA;}
	.st150{fill:#0D4F28;}
	.st151{fill:#0E5128;}
	.st152{fill:#0D4E27;}
	.st153{fill:#0E5229;}
	.st154{fill:#0E4823;}
	.st155{fill:#0E4C27;}
	.st156{fill:#F3F6E0;}
	.st157{fill:#0E4F28;}
	.st158{fill:#114823;}
	.st159{fill:#105229;}
	.st160{fill:#0A4A2B;}
	.st161{fill:#134F27;}
	.st162{fill:#165229;}
	.st163{fill:#0D5029;}
	.st164{fill:#0B4E2B;}
	.st165{fill:#105028;}
	.st166{fill:#0A492A;}
	.st167{fill:#E9F3E2;}
	.st168{fill:#144D26;}
	.st169{fill:#185C2F;}
	.st170{fill:#0F5028;}
	.st171{fill:#F3F8EA;}
	.st172{fill:#114D26;}
	.st173{fill:#70A685;}
	.st174{fill:#0D4F2A;}
	.st175{fill:#094A24;}
	.st176{fill:#0F4F27;}
	.st177{fill:#0A4C26;}
	.st178{fill:#A2D29A;}
	.st179{fill:#4D7E44;}
	.st180{fill:#E8F2E1;}
	.st181{fill:#EDF5E5;}
	.st182{fill:#E6F2E7;}
	.st183{fill:#E5F1DC;}
	.st184{fill:#E9F3E3;}
	.st185{fill:#E9F3E5;}
	.st186{fill:#E5F1DB;}
	.st187{fill:#D8ECD7;}
	.st188{fill:#D9EBD4;}
	.st189{fill:#E2F0DE;}
	.st190{fill:#366B4B;}
	.st191{fill:#5D6162;}
	.st192{fill:#212E5F;}
	.st193{fill:#DD1F26;}
	.st194{clip-path:url(#SVGID_59_);}
	.st195{fill:#23396F;}
	.st196{fill:#7FC24E;}
	.st197{clip-path:url(#SVGID_59_);fill:#23396F;}
	.st198{clip-path:url(#SVGID_59_);fill:#7FC24E;}
	.st199{fill:#91CEA4;}
	.st200{fill:#90CEA4;}
	.st201{fill:#C02026;}
	.st202{fill:#362E7E;}
</style>
<g>
	<path class="st89" d="M5.01,32.17h2.24c0.75,0,1.32,0.19,1.72,0.58c0.39,0.39,0.59,0.96,0.59,1.72c0,0.76-0.2,1.34-0.6,1.75
		c-0.4,0.41-0.97,0.62-1.71,0.62H6.62v1.65H5.01V32.17z M7.24,35.43c0.46,0,0.69-0.32,0.69-0.95c0-0.32-0.06-0.55-0.17-0.68
		c-0.11-0.13-0.28-0.2-0.52-0.2H6.62v1.83H7.24z"/>
	<polygon class="st89" points="15.21,32.17 15.21,38.49 13.59,38.49 13.59,36.04 11.9,36.04 11.9,38.49 10.3,38.49 10.3,32.17 
		11.9,32.17 11.9,34.59 13.59,34.59 13.59,32.17 	"/>
	<path class="st89" d="M19.42,37.68h-1.77l-0.12,0.81h-1.62l1.16-6.32H20l1.16,6.32h-1.62L19.42,37.68z M18.74,33.55h-0.4
		l-0.41,2.69h1.23L18.74,33.55z"/>
	<path class="st89" d="M21.88,32.17h2.43c0.76,0,1.33,0.19,1.71,0.55c0.38,0.37,0.57,0.92,0.57,1.64c0,0.72-0.25,1.33-0.74,1.82
		l0.66,2.31h-1.76l-0.44-1.91h-0.82v1.91h-1.61V32.17z M24.33,35.15c0.19,0,0.34-0.08,0.45-0.23c0.11-0.15,0.16-0.34,0.16-0.56
		c0-0.21-0.06-0.4-0.18-0.55s-0.27-0.23-0.46-0.23h-0.82v1.56H24.33z"/>
	<polygon class="st89" points="34.13,32.17 34.13,38.49 32.53,38.49 32.53,34.07 32.43,34.07 31.59,38.18 30.04,38.18 29.19,34.07 
		29.1,34.07 29.1,38.49 27.49,38.49 27.49,32.17 30.19,32.17 30.81,35.94 31.44,32.17 	"/>
	<path class="st89" d="M38.35,37.68h-1.77l-0.12,0.81h-1.62l1.16-6.32h2.92l1.16,6.32h-1.62L38.35,37.68z M37.67,33.55h-0.4
		l-0.41,2.69h1.23L37.67,33.55z"/>
	<path class="st89" d="M27.17,17.94c-0.18,0.35-0.46,0.84-0.83,1.48c-0.38,0.64-0.79,1.32-1.24,2.03c-0.45,0.72-0.92,1.4-1.41,2.05
		c-0.49,0.65-0.93,1.15-1.32,1.5c-0.51,0.46-0.88,0.66-1.12,0.59c-0.24-0.07-0.36-0.31-0.37-0.71c-0.01-0.4,0.09-0.91,0.29-1.53
		c0.2-0.61,0.5-1.23,0.9-1.86c0.29-0.51,0.65-1.04,1.08-1.58c0.43-0.54,0.87-1.01,1.34-1.41c0.47-0.39,0.93-0.66,1.4-0.8
		C26.35,17.56,26.78,17.64,27.17,17.94"/>
	<path class="st89" d="M34,8.92v21.64H10.12v-7.03c0.45,0.1,0.87,0.16,1.28,0.2c-0.12,0.53-0.19,1.04-0.22,1.53
		c-0.04,0.92,0.12,1.67,0.48,2.28c0.36,0.6,0.97,0.9,1.82,0.9c0.59,0,1.26-0.27,2.01-0.8c0.75-0.53,1.52-1.2,2.31-2
		c0.27-0.28,0.54-0.57,0.81-0.86c-0.11,0.43-0.17,0.84-0.2,1.21c-0.05,0.75,0.05,1.35,0.31,1.79c0.25,0.44,0.61,0.66,1.07,0.66
		c0.34,0,0.7-0.12,1.08-0.35c0.38-0.23,0.75-0.52,1.12-0.87c0.37-0.35,0.73-0.74,1.08-1.17c0.35-0.43,0.67-0.85,0.97-1.27
		c-0.16,0.56-0.26,1.07-0.29,1.55c-0.03,0.48,0,0.89,0.1,1.24c0.1,0.35,0.28,0.6,0.54,0.75c0.26,0.15,0.61,0.17,1.03,0.05
		c0.34-0.09,0.73-0.33,1.16-0.71c0.43-0.38,0.87-0.83,1.31-1.34c0.09-0.1,0.17-0.2,0.26-0.3c0,0,0,0,0,0
		c0.21-0.29,0.43-0.71,0.16-0.92c0,0,0,0,0,0c0,0-0.01,0-0.01-0.01c-0.02-0.01-0.05-0.03-0.09-0.05c-0.01,0-0.02-0.01-0.03-0.01
		c-0.01,0-0.02-0.01-0.03-0.01C28.1,25,28.08,25,28.05,24.99c0,0,0,0,0,0c-0.03,0-0.06-0.01-0.09-0.01c-0.02,0-0.05,0-0.07,0
		c-0.04,0-0.08,0-0.12,0h-0.01c-0.18,0.02-0.33,0.07-0.43,0.11c-0.02,0.01-0.04,0.02-0.06,0.03c0,0-0.01,0-0.01,0
		c-0.03,0.02-0.07,0.05-0.13,0.09c0,0-0.01,0-0.01,0.01c-0.32,0.28-0.55,0.39-0.69,0.33c-0.13-0.05-0.18-0.23-0.15-0.54
		c0.03-0.31,0.2-0.82,0.52-1.51c0.15-0.37,0.46-1.04,0.93-2.02c0.47-0.97,1.02-2.09,1.64-3.34c0.62-1.25,1.28-2.57,1.96-3.94
		c0.69-1.38,1.32-2.64,1.9-3.79C33.51,9.88,33.77,9.38,34,8.92"/>
	<path class="st89" d="M17.81,19.39c-0.16,0.41-0.4,0.8-0.75,1.18c-0.34,0.38-0.78,0.72-1.32,1.04l0,0c0,0,0,0-0.01,0
		c-0.01,0-0.02,0.01-0.03,0.02c0,0-0.01,0-0.02,0.01c-0.46,0.26-0.99,0.45-1.6,0.57c-0.01,0-0.02,0-0.03,0.01
		c-0.08,0.02-0.16,0.03-0.24,0.04c0.15-0.46,0.33-0.93,0.54-1.39c0.21-0.46,0.45-0.9,0.7-1.3c0.25-0.41,0.52-0.75,0.8-1.04
		c0.28-0.29,0.55-0.5,0.83-0.64c0.41-0.19,0.72-0.22,0.95-0.1c0.22,0.12,0.34,0.31,0.37,0.59C18.03,18.64,17.97,18.98,17.81,19.39"
		/>
	<path class="st89" d="M32.97,5.71l-1.81,4.22l-0.02,0.03l-3.36,6.74l-0.13,0.26c-0.29-0.37-0.67-0.61-1.14-0.73
		c-0.47-0.12-0.99-0.06-1.57,0.16c-0.58,0.22-1.21,0.63-1.9,1.23c-0.69,0.6-1.4,1.43-2.13,2.47c-0.26,0.36-0.49,0.7-0.7,1.04
		c-0.28,0.37-0.58,0.73-0.89,1.1c-0.69,0.8-1.37,1.5-2.04,2.1c-0.67,0.6-1.29,1.07-1.86,1.39c-0.57,0.33-1.02,0.42-1.35,0.28
		c-0.33-0.11-0.53-0.39-0.61-0.82c-0.08-0.42-0.07-0.92,0.02-1.49c0-0.01,0-0.02,0-0.02c0.67-0.07,1.33-0.23,1.96-0.49
		c0.64-0.26,1.23-0.57,1.76-0.94c0.29-0.2,0.57-0.42,0.82-0.65c0.22-0.19,0.42-0.39,0.61-0.61c0.42-0.46,0.75-0.95,0.99-1.46
		c0.24-0.49,0.38-0.94,0.42-1.36c0.03-0.42-0.02-0.77-0.16-1.06c-0.14-0.29-0.35-0.52-0.62-0.69c-0.28-0.17-0.6-0.26-0.98-0.26
		c-0.95,0-1.84,0.3-2.69,0.9c-0.84,0.6-1.58,1.36-2.22,2.28c-0.64,0.92-1.15,1.9-1.55,2.96c-0.01,0.03-0.03,0.07-0.04,0.11
		c-0.54-0.04-1.11-0.14-1.68-0.35L9.8,5.71H32.97z"/>
	<polygon class="st89" points="34.07,5.71 33.89,5.71 33.57,5.71 34.01,5.71 34.33,5.71 34.15,5.71 34.15,6.22 34.07,6.22 	"/>
	<polygon class="st89" points="34.11,5.71 34.21,5.71 34.71,6.13 34.56,5.71 34.66,5.71 34.98,6.22 34.91,6.22 34.91,5.75 
		34.91,5.75 34.74,6.22 34.68,6.22 34.51,5.75 34.51,5.75 34.51,6.22 34.44,6.22 	"/>
	<g>
		<path class="st89" d="M10.73,41.27v-0.64c0-0.01-0.01-0.03-0.01-0.04l-0.59-0.92h0.2c0.16,0.25,0.43,0.68,0.5,0.79
			c0.15-0.23,0.35-0.55,0.51-0.79h0.18l-0.6,0.92c-0.01,0.01-0.01,0.02-0.01,0.04v0.64H10.73z"/>
		<path class="st89" d="M13.05,40.46c0,0.46-0.24,0.83-0.75,0.83c-0.48,0-0.73-0.34-0.73-0.83c0-0.43,0.25-0.81,0.75-0.81
			C12.8,39.65,13.05,39.99,13.05,40.46z M11.75,40.46c0,0.39,0.18,0.7,0.57,0.7c0.39,0,0.57-0.31,0.57-0.7
			c0-0.39-0.18-0.68-0.56-0.68C11.92,39.79,11.75,40.09,11.75,40.46z"/>
		<path class="st89" d="M13.57,39.68v1.02c0,0.28,0.12,0.47,0.46,0.47c0.33,0,0.45-0.18,0.45-0.47v-1.01h0.18v1.02
			c0,0.34-0.16,0.6-0.63,0.6c-0.43,0-0.63-0.2-0.63-0.58v-1.04H13.57z"/>
		<path class="st89" d="M15.73,39.68h0.58c0.42,0,0.79,0.24,0.79,0.76c0,0.52-0.3,0.84-0.83,0.84h-0.54V39.68z M15.9,41.14h0.36
			c0.45,0,0.66-0.26,0.66-0.7c0-0.42-0.28-0.63-0.65-0.63H15.9V41.14z"/>
		<path class="st89" d="M18.44,40.5h-0.82v0.64h0.9l-0.02,0.13h-1.05v-1.6h1.03v0.13h-0.86v0.56h0.82V40.5z"/>
		<path class="st89" d="M18.9,40.83c0.04,0.23,0.22,0.33,0.44,0.33c0.22,0,0.39-0.1,0.39-0.31c0-0.19-0.09-0.27-0.43-0.36
			c-0.36-0.1-0.51-0.2-0.51-0.43c0-0.24,0.2-0.4,0.53-0.4c0.37,0,0.53,0.2,0.55,0.42H19.7c-0.03-0.18-0.15-0.29-0.39-0.29
			c-0.23,0-0.34,0.1-0.34,0.26c0,0.16,0.1,0.23,0.4,0.31c0.44,0.12,0.54,0.27,0.54,0.48c0,0.27-0.21,0.45-0.58,0.45
			c-0.37,0-0.58-0.18-0.6-0.46H18.9z"/>
		<path class="st89" d="M21.24,40.5h-0.82v0.64h0.9l-0.02,0.13h-1.05v-1.6h1.03v0.13h-0.86v0.56h0.82V40.5z"/>
		<path class="st89" d="M21.82,40.52v0.75h-0.17v-1.6h0.6c0.31,0,0.53,0.14,0.53,0.4c0,0.24-0.16,0.34-0.3,0.37
			c0.19,0.05,0.28,0.18,0.28,0.41v0.02c0,0.15,0,0.29,0.03,0.39H22.6c-0.02-0.06-0.03-0.23-0.03-0.38v-0.03
			c0-0.24-0.1-0.34-0.42-0.34H21.82z M21.82,40.39h0.35c0.26,0,0.43-0.07,0.43-0.31c0-0.18-0.13-0.28-0.37-0.28h-0.41V40.39z"/>
		<path class="st89" d="M23.59,41.27l-0.6-1.6h0.18l0.3,0.81c0.08,0.23,0.18,0.49,0.23,0.64h0c0.04-0.13,0.15-0.4,0.24-0.64
			l0.31-0.81h0.18l-0.63,1.6H23.59z"/>
		<path class="st89" d="M25.69,40.5h-0.82v0.64h0.9l-0.03,0.13H24.7v-1.6h1.03v0.13h-0.86v0.56h0.82V40.5z"/>
		<path class="st89" d="M26.74,39.68h0.6c0.3,0,0.51,0.13,0.51,0.39c0,0.22-0.16,0.31-0.27,0.34c0.12,0.04,0.33,0.13,0.33,0.4
			c0,0.3-0.25,0.47-0.59,0.47h-0.58V39.68z M27.29,40.35c0.28,0,0.39-0.11,0.39-0.27c0-0.15-0.11-0.27-0.37-0.27h-0.41v0.54H27.29z
			 M26.91,41.15h0.39c0.25,0,0.44-0.11,0.44-0.34c0-0.21-0.15-0.33-0.46-0.33h-0.37V41.15z"/>
		<path class="st89" d="M29.26,40.5h-0.82v0.64h0.9l-0.03,0.13h-1.05v-1.6h1.03v0.13h-0.86v0.56h0.82V40.5z"/>
		<path class="st89" d="M30.07,39.81h-0.54v-0.14h1.26v0.14h-0.54v1.46h-0.17V39.81z"/>
		<path class="st89" d="M31.48,39.81h-0.54v-0.14h1.26v0.14h-0.54v1.46h-0.17V39.81z"/>
		<path class="st89" d="M33.43,40.5h-0.82v0.64h0.9l-0.03,0.13h-1.05v-1.6h1.03v0.13h-0.86v0.56h0.82V40.5z"/>
		<path class="st89" d="M34,40.52v0.75h-0.17v-1.6h0.6c0.31,0,0.53,0.14,0.53,0.4c0,0.24-0.16,0.34-0.3,0.37
			c0.19,0.05,0.28,0.18,0.28,0.41v0.02c0,0.15,0,0.29,0.03,0.39h-0.17c-0.02-0.06-0.03-0.23-0.03-0.38v-0.03
			c0-0.24-0.1-0.34-0.42-0.34H34z M34,40.39h0.35c0.26,0,0.43-0.07,0.43-0.31c0-0.18-0.13-0.28-0.37-0.28H34V40.39z"/>
	</g>
	<rect x="37.02" y="40.56" class="st89" width="3.7" height="0.35"/>
	<rect x="4.73" y="40.56" class="st89" width="3.7" height="0.35"/>
</g>
</svg>
