<?xml version="1.0" encoding="utf-8"?>
<!-- Generator: Adobe Illustrator 25.0.1, SVG Export Plug-In . SVG Version: 6.00 Build 0)  -->
<svg version="1.0" id="Layer_1" xmlns="http://www.w3.org/2000/svg" xmlns:xlink="http://www.w3.org/1999/xlink" x="0px" y="0px"
	 viewBox="0 0 46.27 31.79" style="enable-background:new 0 0 46.27 31.79;" xml:space="preserve">
<style type="text/css">
	.st0{fill:#000104;}
	.st1{fill:#FFFFFF;}
	.st2{fill:#EF493E;}
	.st3{opacity:0.6;fill-rule:evenodd;clip-rule:evenodd;fill:#FBBE43;}
	.st4{opacity:0.6;fill-rule:evenodd;clip-rule:evenodd;fill:#EF930E;}
	.st5{opacity:0.6;fill-rule:evenodd;clip-rule:evenodd;fill:#E67906;}
	.st6{fill:#9F8829;}
	.st7{fill:#3972A6;}
	.st8{fill:url(#SVGID_1_);stroke:#2B53A4;stroke-width:0.5;stroke-miterlimit:10;}
	.st9{fill:none;}
	.st10{fill:url(#SVGID_2_);}
	.st11{fill:url(#SVGID_3_);}
	.st12{fill:#B3B3B3;}
	.st13{fill:url(#SVGID_4_);}
	.st14{fill:url(#SVGID_5_);}
	.st15{fill:url(#SVGID_6_);}
	.st16{fill:#FFFFFF;stroke:#FFFFFF;stroke-width:0.25;stroke-miterlimit:10;}
	.st17{fill:#00001D;}
	.st18{fill:#4DA0C5;}
	.st19{fill:url(#SVGID_7_);}
	.st20{fill:#2E6A85;}
	.st21{fill:none;stroke:#144FA1;stroke-width:0.113;stroke-linejoin:round;stroke-miterlimit:10;}
	.st22{fill:#F27337;}
	.st23{fill:#8EB8D4;}
	.st24{fill:#F38056;}
	.st25{fill:#626365;}
	.st26{fill:#EF6D23;}
	.st27{fill:#284B82;}
	.st28{fill:#242956;}
	.st29{fill:#15142A;}
	.st30{fill:#84C343;}
	.st31{fill:#4CA1C6;}
	.st32{fill:#121617;}
	.st33{fill:#CF8966;}
	.st34{fill:#F37639;}
	.st35{opacity:0.3;fill:url(#SVGID_8_);}
	.st36{fill:#373277;}
	.st37{fill:#E61E25;}
	.st38{fill:#2555A5;}
	.st39{fill:#2E225E;}
	.st40{fill:#F8A425;}
	.st41{fill:#2058A7;}
	.st42{fill:none;stroke:#205AA8;stroke-width:0.156;stroke-miterlimit:10;}
	.st43{fill:#49A3C7;}
	.st44{fill-rule:evenodd;clip-rule:evenodd;}
	.st45{fill-rule:evenodd;clip-rule:evenodd;fill:url(#SVGID_9_);}
	.st46{fill-rule:evenodd;clip-rule:evenodd;fill:url(#SVGID_10_);}
	.st47{fill-rule:evenodd;clip-rule:evenodd;fill:url(#SVGID_11_);}
	.st48{fill:#1D2251;}
	.st49{fill:#2260AC;}
	.st50{fill:url(#SVGID_12_);}
	.st51{fill:#FFFFFC;}
	.st52{fill:#4C9FC5;}
	.st53{fill:#28306D;}
	.st54{fill:#4C9EC5;}
	.st55{fill:#28306E;}
	.st56{fill:#29306F;}
	.st57{fill:#F7F7FB;}
	.st58{fill:url(#SVGID_13_);}
	.st59{fill:url(#SVGID_14_);}
	.st60{fill:url(#SVGID_15_);}
	.st61{fill:url(#SVGID_16_);}
	.st62{fill:#10123C;}
	.st63{fill:#F5842C;}
	.st64{fill:#1F305E;}
	.st65{fill:#87BBD1;}
	.st66{fill:#203160;}
	.st67{fill:#235779;}
	.st68{fill:#359FA1;}
	.st69{fill:#A4D1A4;}
	.st70{fill:#B9DBBC;}
	.st71{fill:#C6DDCA;}
	.st72{fill:#662E14;}
	.st73{fill:#1D79A4;}
	.st74{fill:#C14B28;}
	.st75{fill:url(#SVGID_17_);}
	.st76{fill:url(#SVGID_18_);}
	.st77{fill:url(#SVGID_19_);}
	.st78{fill:url(#SVGID_20_);}
	.st79{fill:url(#SVGID_21_);}
	.st80{fill:url(#SVGID_22_);}
	.st81{fill:url(#SVGID_23_);}
	.st82{fill:url(#SVGID_24_);}
	.st83{fill:url(#SVGID_25_);}
	.st84{fill:url(#SVGID_26_);}
	.st85{fill:url(#SVGID_27_);}
	.st86{fill:url(#SVGID_28_);}
	.st87{fill:url(#SVGID_29_);}
	.st88{fill:url(#SVGID_30_);}
	.st89{fill:#1F164B;}
	.st90{clip-path:url(#SVGID_32_);fill:#253D97;}
	.st91{fill:url(#SVGID_33_);}
	.st92{fill:url(#SVGID_34_);}
	.st93{fill:url(#SVGID_35_);}
	.st94{fill:url(#SVGID_36_);}
	.st95{fill:url(#SVGID_37_);}
	.st96{fill:url(#SVGID_38_);}
	.st97{fill:url(#SVGID_39_);}
	.st98{fill:url(#SVGID_40_);}
	.st99{fill:url(#SVGID_41_);}
	.st100{fill:#443F41;}
	.st101{fill:#28306F;}
	.st102{fill:#71C49D;}
	.st103{fill:#F0C6A7;}
	.st104{fill:#DB8D82;}
	.st105{fill:#EFB7AC;}
	.st106{opacity:0.21;}
	.st107{fill-rule:evenodd;clip-rule:evenodd;fill:#A9196E;}
	.st108{fill-rule:evenodd;clip-rule:evenodd;fill:#FBE42C;}
	.st109{fill:#FBE42C;}
	.st110{fill:#A9196E;}
	.st111{fill:#7FC143;}
	.st112{clip-path:url(#SVGID_45_);fill:#7FC143;}
	.st113{clip-path:url(#SVGID_51_);fill:#7FC143;}
	.st114{fill:#243F8F;}
	.st115{fill:#EF4E2F;}
	.st116{fill:#010007;}
	.st117{fill:#0C0D37;}
	.st118{fill:#FBAF2D;}
	.st119{fill:url(#SVGID_54_);}
	.st120{fill-rule:evenodd;clip-rule:evenodd;fill:#FFFFFF;}
	.st121{fill:#1D4690;}
	.st122{fill:#3AA949;}
	.st123{fill:#F37A24;}
	.st124{fill:none;stroke:#F37A24;stroke-width:3.7145;stroke-miterlimit:10;}
	.st125{fill:#3AA949;stroke:#FFFFFF;stroke-width:1.3104;stroke-miterlimit:10;}
	.st126{fill:#46A2BB;}
	.st127{fill:#7153A0;}
	.st128{fill:#27316C;}
	.st129{fill:#2C65AE;}
	.st130{fill:#452D7A;}
	.st131{fill:#442C7A;}
	.st132{fill:#1A2642;}
	.st133{fill-rule:evenodd;clip-rule:evenodd;fill:#567EB8;}
	.st134{fill-rule:evenodd;clip-rule:evenodd;fill:#6A7EB8;}
	.st135{fill-rule:evenodd;clip-rule:evenodd;fill:#6A7EB9;}
	.st136{fill-rule:evenodd;clip-rule:evenodd;fill:#EE3C2D;}
	.st137{fill-rule:evenodd;clip-rule:evenodd;fill:#EF493F;}
	.st138{fill-rule:evenodd;clip-rule:evenodd;fill:#ED2C24;}
	.st139{fill-rule:evenodd;clip-rule:evenodd;fill:#E9AE28;}
	.st140{fill-rule:evenodd;clip-rule:evenodd;fill:#D69B28;}
	.st141{fill-rule:evenodd;clip-rule:evenodd;fill:#FCB729;}
	.st142{fill-rule:evenodd;clip-rule:evenodd;fill:#409E47;}
	.st143{fill-rule:evenodd;clip-rule:evenodd;fill:#4BB450;}
	.st144{fill-rule:evenodd;clip-rule:evenodd;fill:#338440;}
	.st145{fill:#C09C36;}
	.st146{fill:#1E552A;}
	.st147{clip-path:url(#SVGID_56_);fill:url(#SVGID_57_);}
	.st148{fill:#023A1E;}
	.st149{fill:#FFFFFA;}
	.st150{fill:#0D4F28;}
	.st151{fill:#0E5128;}
	.st152{fill:#0D4E27;}
	.st153{fill:#0E5229;}
	.st154{fill:#0E4823;}
	.st155{fill:#0E4C27;}
	.st156{fill:#F3F6E0;}
	.st157{fill:#0E4F28;}
	.st158{fill:#114823;}
	.st159{fill:#105229;}
	.st160{fill:#0A4A2B;}
	.st161{fill:#134F27;}
	.st162{fill:#165229;}
	.st163{fill:#0D5029;}
	.st164{fill:#0B4E2B;}
	.st165{fill:#105028;}
	.st166{fill:#0A492A;}
	.st167{fill:#E9F3E2;}
	.st168{fill:#144D26;}
	.st169{fill:#185C2F;}
	.st170{fill:#0F5028;}
	.st171{fill:#F3F8EA;}
	.st172{fill:#114D26;}
	.st173{fill:#70A685;}
	.st174{fill:#0D4F2A;}
	.st175{fill:#094A24;}
	.st176{fill:#0F4F27;}
	.st177{fill:#0A4C26;}
	.st178{fill:#A2D29A;}
	.st179{fill:#4D7E44;}
	.st180{fill:#E8F2E1;}
	.st181{fill:#EDF5E5;}
	.st182{fill:#E6F2E7;}
	.st183{fill:#E5F1DC;}
	.st184{fill:#E9F3E3;}
	.st185{fill:#E9F3E5;}
	.st186{fill:#E5F1DB;}
	.st187{fill:#D8ECD7;}
	.st188{fill:#D9EBD4;}
	.st189{fill:#E2F0DE;}
	.st190{fill:#366B4B;}
	.st191{fill:#5D6162;}
	.st192{fill:#212E5F;}
	.st193{fill:#DD1F26;}
	.st194{clip-path:url(#SVGID_59_);}
	.st195{fill:#23396F;}
	.st196{fill:#7FC24E;}
	.st197{clip-path:url(#SVGID_59_);fill:#23396F;}
	.st198{clip-path:url(#SVGID_59_);fill:#7FC24E;}
	.st199{fill:#91CEA4;}
	.st200{fill:#90CEA4;}
	.st201{fill:#C02026;}
	.st202{fill:#362E7E;}
</style>
<g>
	<defs>
		<rect id="SVGID_58_" x="0" y="0" width="46.26" height="31.79"/>
	</defs>
	<clipPath id="SVGID_1_">
		<use xlink:href="#SVGID_58_"  style="overflow:visible;"/>
	</clipPath>
	<g style="clip-path:url(#SVGID_1_);">
		<path class="st195" d="M9.87,21.57c0,0.22-0.03,0.44-0.03,0.66c0,0.19,0.03,0.36,0.08,0.56l0.07,0.24H6.9
			c0.32-0.34,0.6-0.87,0.77-1.65c0.37-1.6,0.75-3.13,1.1-4.54H4.16l-1.12,4.71c-0.12,0.53-0.1,1.02,0.08,1.48H0
			c0.35-0.34,0.62-0.87,0.8-1.65c0.55-2.4,1.42-6.09,2.62-11.06c0.12-0.49,0.1-0.97-0.1-1.41H6.4C6.21,9.2,6.08,9.39,6.03,9.49
			c-0.15,0.32-0.3,0.75-0.42,1.26c-0.27,1.17-0.62,2.57-1,4.22h4.56l1.15-4.68c0-0.1,0.02-0.22,0.02-0.34
			c0-0.29-0.05-0.66-0.15-1.04h3.09c-0.4,0.61-0.6,1.02-0.8,1.84L9.87,21.57z"/>
		<path class="st195" d="M20.83,17.28l-5.96,3.01c0.22,0.63,0.9,1.19,1.67,1.19c1.2,0,2.44-1.26,2.94-3.03
			c0.62,0.44,0.92,0.9,0.92,1.38c0,1.33-1.79,3.4-4.14,3.4c-2.42,0-3.74-1.7-3.74-3.91c0-2.84,2.07-5.65,5.06-5.65
			C19.69,13.66,20.93,15.21,20.83,17.28z M14.83,18.44l3.91-1.97c0-0.63-0.5-1.21-1.15-1.21C16.17,15.26,15.13,16.77,14.83,18.44z"
			/>
		<path class="st195" d="M23.85,21.81c-0.1,0.39-0.07,0.8,0.08,1.21h-2.74c0.27-0.36,0.47-0.78,0.57-1.24l2.22-9.24
			c0.12-0.56,0.1-1.02-0.05-1.43l2.62-0.8L23.85,21.81z"/>
		<path class="st195" d="M28.34,21.76c-0.12,0.51-0.08,0.92,0.1,1.26H25.6c0.3-0.24,0.47-0.56,0.55-0.9c0.5-1.99,1-3.96,1.42-5.85
			c0.15-0.7,0.15-1.26-0.03-1.67l2.69-0.85L28.34,21.76z M30.73,11.87c0,0.7-0.52,1.38-1.22,1.38c-0.8,0-1.17-0.39-1.17-1.17
			s0.6-1.43,1.32-1.43C30.36,10.65,30.73,11.06,30.73,11.87z"/>
		<path class="st195" d="M40.17,14.17c-0.47,0.32-0.95,0.8-1.45,1.36l-2.57,3.08c0.55,1.07,1.57,4.08,3.76,4.37
			c-0.97,0.78-1.2,0.97-1.92,0.97c-0.97,0-1.79-0.68-2.44-2.01c-0.12-0.29-0.4-0.85-0.8-1.65l-1.22,1.48
			c-0.47,0.58-0.77,1.02-0.87,1.26h-2.89c0.35-0.29,0.87-0.8,1.54-1.5l2.57-3.06l-1.45-2.94c-0.3-0.58-0.67-1.04-1.12-1.36h2.62
			c0.2,0.39,0.65,1.26,1.32,2.64l0.87-1.04c0.65-0.78,1.02-1.31,1.12-1.6H40.17z"/>
	</g>
	<g style="clip-path:url(#SVGID_1_);">
		<path class="st196" d="M3.2,24.38c0,0.85-0.61,1.28-1.83,1.28l-0.25,1.11c-0.01,0.05,0,0.15,0.02,0.31H0.37
			c0.09-0.12,0.14-0.24,0.17-0.34c0.16-0.66,0.3-1.3,0.45-1.93c0.03-0.11,0.03-0.22,0-0.35l0.72-0.22l-0.24,0.95
			c0.6,0.04,1.13-0.19,1.13-0.73c0-0.38-0.28-0.57-0.64-0.59c-0.37-0.02-0.78,0.09-1.03,0.39c-0.21,0.25-0.24,0.37-0.26,0.77
			c-0.26-0.27-0.32-0.38-0.32-0.53c0-0.21,0.09-0.42,0.27-0.62c0.29-0.32,0.71-0.47,1.26-0.47C2.72,23.4,3.2,23.86,3.2,24.38z"/>
		<path class="st196" d="M3.94,25c0.24-0.17,0.47-0.26,0.67-0.26c0.38,0,0.56,0.2,0.56,0.48c0,0.05,0,0.1-0.02,0.16
			c-0.06,0.25-0.17,0.71-0.33,1.38c-0.03,0.13-0.03,0.23,0.01,0.32H4.15c0.06-0.07,0.11-0.16,0.14-0.28
			c0.14-0.52,0.24-0.96,0.32-1.32c0.01-0.05,0.02-0.1,0.02-0.14c0-0.12-0.07-0.18-0.19-0.18c-0.34,0-0.6,0.28-0.67,0.61l-0.24,0.98
			c-0.02,0.08-0.02,0.19,0.01,0.32H2.84c0.08-0.12,0.13-0.21,0.16-0.32l0.55-2.33c0.02-0.09,0.02-0.21-0.01-0.36l0.67-0.2L3.94,25z"
			/>
		<path class="st196" d="M7.55,25.16c0,0.04-0.01,0.07-0.02,0.12c-0.03,0.15-0.14,0.61-0.34,1.4c-0.03,0.15-0.03,0.27,0.01,0.39
			H6.65l0.01-0.21c-0.17,0.18-0.38,0.26-0.63,0.26c-0.44,0-0.67-0.23-0.67-0.58c0-0.38,0.31-0.66,0.61-0.78
			c0.09-0.04,0.26-0.09,0.5-0.14c0.36-0.08,0.51-0.13,0.53-0.33c0-0.11-0.07-0.16-0.22-0.16c-0.22,0-0.55,0.14-0.78,0.44
			c-0.08-0.13-0.12-0.24-0.12-0.31c0-0.3,0.5-0.53,0.99-0.53C7.32,24.72,7.55,24.87,7.55,25.16z M6.28,26.09
			c-0.23,0.1-0.35,0.23-0.35,0.39c0,0.1,0.11,0.21,0.23,0.21c0.39-0.01,0.62-0.33,0.68-0.78L6.28,26.09z"/>
		<path class="st196" d="M9.28,25.11c-0.21,0-0.39,0.06-0.54,0.18c-0.16,0.12-0.19,0.21-0.29,0.61c-0.03,0.15-0.1,0.4-0.19,0.78
			c-0.03,0.13-0.02,0.26,0.01,0.38H7.58c0.08-0.1,0.12-0.24,0.17-0.41c0.08-0.29,0.17-0.71,0.31-1.28c0.02-0.1,0.04-0.19,0.04-0.26
			c0-0.07-0.02-0.12-0.04-0.19l0.61-0.19L8.6,25.05c0.16-0.22,0.3-0.33,0.45-0.33C9.23,24.72,9.26,24.82,9.28,25.11z"/>
		<path class="st196" d="M11.99,24.74c0.3,0,0.49,0.16,0.49,0.42c0,0.04-0.01,0.1-0.01,0.14c-0.08,0.34-0.2,0.83-0.34,1.45
			c-0.02,0.07-0.02,0.19,0.01,0.33h-0.68c0.07-0.07,0.14-0.26,0.21-0.56c0.01-0.01,0.09-0.4,0.26-1.13
			c0.01-0.03,0.01-0.05,0.01-0.08c0-0.09-0.04-0.13-0.14-0.13c-0.24,0-0.53,0.3-0.58,0.52c-0.05,0.19-0.14,0.55-0.27,1.08
			c-0.02,0.08-0.02,0.19,0.02,0.32h-0.7c0.08-0.1,0.12-0.19,0.14-0.24l0.35-1.45c0-0.02,0.01-0.05,0.01-0.07
			c0-0.1-0.05-0.15-0.15-0.15c-0.29,0-0.54,0.32-0.6,0.54c-0.08,0.35-0.17,0.72-0.27,1.12c-0.02,0.08-0.02,0.17,0.02,0.25h-0.7
			C9.13,27,9.2,26.86,9.25,26.65c0.16-0.62,0.25-1.02,0.29-1.2c0-0.15,0.02-0.25,0.02-0.31c0-0.06-0.02-0.13-0.05-0.21l0.61-0.19
			c-0.02,0.08-0.04,0.18-0.06,0.33l0.24-0.18c0.16-0.1,0.31-0.15,0.47-0.15c0.24,0,0.39,0.11,0.47,0.32
			c0.22-0.21,0.46-0.32,0.72-0.32H11.99z"/>
		<path class="st196" d="M14.81,25.16c0,0.04-0.01,0.07-0.02,0.12c-0.03,0.15-0.14,0.61-0.34,1.4c-0.03,0.15-0.03,0.27,0.01,0.39
			h-0.55l0.01-0.21c-0.17,0.18-0.38,0.26-0.63,0.26c-0.44,0-0.67-0.23-0.67-0.58c0-0.38,0.31-0.66,0.61-0.78
			c0.09-0.04,0.26-0.09,0.5-0.14c0.36-0.08,0.51-0.13,0.53-0.33c0-0.11-0.07-0.16-0.22-0.16c-0.22,0-0.55,0.14-0.78,0.44
			c-0.08-0.13-0.12-0.24-0.12-0.31c0-0.3,0.5-0.53,0.99-0.53C14.58,24.72,14.81,24.87,14.81,25.16z M13.54,26.09
			c-0.23,0.1-0.35,0.23-0.35,0.39c0,0.1,0.11,0.21,0.23,0.21c0.39-0.01,0.62-0.33,0.69-0.78L13.54,26.09z"/>
		<path class="st196" d="M17.17,25.37l-0.46,0.16c0.01-0.02,0.01-0.05,0.01-0.08c0-0.21-0.12-0.32-0.38-0.32
			c-0.36,0-0.7,0.5-0.7,0.98c0,0.39,0.15,0.59,0.45,0.59c0.29,0,0.55-0.25,0.64-0.67c0.16,0.16,0.25,0.29,0.25,0.4
			c0,0.04-0.01,0.08-0.03,0.12c-0.16,0.38-0.46,0.56-0.92,0.56c-0.6,0-0.94-0.46-0.94-1c0-0.73,0.54-1.38,1.25-1.38
			C16.83,24.72,17.15,25,17.17,25.37z"/>
		<path class="st196" d="M19.45,25.63l-1.49,0.75c0.06,0.16,0.22,0.3,0.42,0.3c0.3,0,0.61-0.32,0.74-0.76
			c0.16,0.11,0.23,0.22,0.23,0.35c0,0.33-0.45,0.85-1.03,0.85c-0.6,0-0.93-0.43-0.93-0.98c0-0.71,0.52-1.42,1.26-1.42
			C19.16,24.72,19.47,25.11,19.45,25.63z M17.95,25.92l0.98-0.49c0-0.16-0.12-0.3-0.29-0.3C18.29,25.12,18.02,25.5,17.95,25.92z"/>
		<path class="st196" d="M21.47,26.68c-0.02,0.11-0.02,0.24,0,0.39H20.9l0.06-0.25c-0.25,0.21-0.35,0.3-0.69,0.3
			c-0.27,0-0.57-0.15-0.57-0.46c0-0.04,0.02-0.12,0.04-0.22c0.04-0.15,0.13-0.54,0.28-1.2c0.01-0.08,0.01-0.16-0.01-0.25l0.64-0.2
			l-0.39,1.66c-0.01,0.05-0.02,0.08-0.02,0.12c0,0.1,0.07,0.16,0.21,0.16c0.12,0,0.34-0.1,0.47-0.25c0.17-0.18,0.31-0.89,0.38-1.26
			c0.03-0.09,0.03-0.18,0-0.24l0.64-0.2L21.47,26.68z"/>
		<path class="st196" d="M23.21,24.85c0.14,0,0.26-0.04,0.37-0.1c-0.08,0.23-0.11,0.51-0.45,0.51h-0.16
			c-0.01,0.09-0.11,0.47-0.28,1.14c-0.01,0.04-0.01,0.06-0.01,0.1c0,0.24,0.21,0.26,0.51,0.19c-0.14,0.27-0.15,0.33-0.27,0.39
			c-0.06,0.03-0.14,0.04-0.23,0.04c-0.34,0-0.55-0.19-0.55-0.5c0-0.05,0.01-0.1,0.02-0.16l0.29-1.19H22.2l0.11-0.41h0.22l0.12-0.56
			l0.57-0.16l-0.17,0.72H23.21z"/>
		<path class="st196" d="M24.06,26.75c-0.03,0.13-0.02,0.23,0.02,0.32h-0.71c0.08-0.06,0.12-0.14,0.14-0.22
			c0.12-0.5,0.25-0.99,0.35-1.46c0.04-0.18,0.04-0.32-0.01-0.42l0.67-0.21L24.06,26.75z M24.66,24.27c0,0.18-0.13,0.35-0.31,0.35
			c-0.2,0-0.29-0.1-0.29-0.29s0.15-0.36,0.33-0.36C24.57,23.97,24.66,24.07,24.66,24.27z"/>
		<path class="st196" d="M26.8,25.37l-0.46,0.16c0.01-0.02,0.01-0.05,0.01-0.08c0-0.21-0.12-0.32-0.38-0.32
			c-0.36,0-0.7,0.5-0.7,0.98c0,0.39,0.15,0.59,0.45,0.59c0.29,0,0.55-0.25,0.64-0.67c0.16,0.16,0.25,0.29,0.25,0.4
			c0,0.04-0.01,0.08-0.03,0.12c-0.16,0.38-0.46,0.56-0.92,0.56c-0.6,0-0.94-0.46-0.94-1c0-0.73,0.54-1.38,1.25-1.38
			C26.47,24.72,26.78,25,26.8,25.37z"/>
		<path class="st196" d="M29.08,25.16c0,0.04-0.01,0.07-0.02,0.12c-0.03,0.15-0.14,0.61-0.34,1.4c-0.03,0.15-0.03,0.27,0.01,0.39
			h-0.55l0.01-0.21c-0.17,0.18-0.38,0.26-0.63,0.26c-0.44,0-0.67-0.23-0.67-0.58c0-0.38,0.31-0.66,0.61-0.78
			c0.09-0.04,0.26-0.09,0.5-0.14c0.36-0.08,0.51-0.13,0.53-0.33c0-0.11-0.07-0.16-0.22-0.16c-0.22,0-0.55,0.14-0.78,0.44
			c-0.08-0.13-0.12-0.24-0.12-0.31c0-0.3,0.5-0.53,0.99-0.53C28.85,24.72,29.08,24.87,29.08,25.16z M27.81,26.09
			c-0.23,0.1-0.35,0.23-0.35,0.39c0,0.1,0.11,0.21,0.23,0.21c0.39-0.01,0.62-0.33,0.69-0.78L27.81,26.09z"/>
		<path class="st196" d="M29.83,26.76c-0.02,0.1-0.02,0.2,0.02,0.3h-0.68c0.07-0.09,0.12-0.19,0.14-0.31l0.55-2.31
			c0.03-0.14,0.02-0.25-0.01-0.36l0.65-0.2L29.83,26.76z"/>
		<path class="st196" d="M31.22,26.74c0,0.27-0.12,0.39-0.37,0.39c-0.17,0-0.26-0.09-0.26-0.27c0-0.21,0.17-0.39,0.34-0.39
			C31.13,26.47,31.22,26.56,31.22,26.74z"/>
		<path class="st196" d="M35.21,25.37l-0.46,0.16c0.01-0.02,0.01-0.05,0.01-0.08c0-0.21-0.12-0.32-0.38-0.32
			c-0.36,0-0.7,0.5-0.7,0.98c0,0.39,0.15,0.59,0.45,0.59c0.29,0,0.55-0.25,0.64-0.67c0.16,0.16,0.25,0.29,0.25,0.4
			c0,0.04-0.01,0.08-0.03,0.12c-0.16,0.38-0.46,0.56-0.92,0.56c-0.6,0-0.94-0.46-0.94-1c0-0.73,0.54-1.38,1.25-1.38
			C34.88,24.72,35.19,25,35.21,25.37z"/>
		<path class="st196" d="M37.67,25.66c0,0.77-0.52,1.44-1.3,1.44c-0.5,0-0.95-0.25-0.95-1c0-0.72,0.52-1.38,1.3-1.38
			C37.33,24.72,37.67,25.12,37.67,25.66z M35.97,26.21c0,0.29,0.16,0.49,0.44,0.49c0.48,0,0.72-0.61,0.72-1.06
			c0-0.33-0.14-0.5-0.42-0.5C36.29,25.14,35.97,25.62,35.97,26.21z"/>
	</g>
	<path style="clip-path:url(#SVGID_1_);fill:#23396F;" d="M35.52,15.55c-0.16-0.26-0.27-0.52-0.35-0.8
		c-0.19-0.68-0.11-1.33,0.23-1.95c0.2-0.37,0.46-0.72,0.7-1.08c0.03-0.04,0.06-0.07,0.1-0.13c-0.06,0-0.1-0.01-0.15-0.01
		c-0.34,0-0.67,0-1.01,0c-0.23,0-0.27-0.02-0.36-0.26c0.05,0,0.09,0,0.13,0c0.5,0,1,0,1.5,0c0.08,0,0.14-0.02,0.19-0.09
		c0.19-0.24,0.39-0.47,0.59-0.7c0.03-0.03,0.05-0.07,0.09-0.12h-0.17c-0.84,0-1.68,0-2.52,0c-0.23,0-0.24-0.01-0.22-0.26h0.15
		c0.94,0,1.88,0,2.82,0c0.11,0,0.19-0.03,0.24-0.13c0.13-0.22,0.28-0.43,0.41-0.65c0.02-0.03,0.04-0.07,0.06-0.13h-3.5
		c0-0.19,0.07-0.26,0.25-0.26c1.08,0,2.15,0,3.23,0c0.11,0,0.17-0.03,0.19-0.14c0.04-0.22,0.09-0.44,0.13-0.65
		c0.01-0.03,0-0.07,0-0.11h-3.08c0.08-0.2,0.17-0.26,0.36-0.26h2.56h0.18c-0.07-0.23-0.12-0.44-0.19-0.65
		c-0.09-0.26-0.1-0.26-0.38-0.26c-0.47,0-0.94,0-1.41,0h-0.15c0.07-0.19,0.17-0.27,0.36-0.27c0.39,0,0.77,0,1.16,0h0.16
		c-0.25-0.41-0.54-0.74-0.85-1.08c0.04,0.03,0.08,0.05,0.12,0.08C37.62,6,38.1,6.37,38.5,6.84c0.46,0.53,0.74,1.13,0.7,1.85
		c-0.03,0.56-0.25,1.07-0.54,1.55c-0.39,0.65-0.89,1.23-1.36,1.82c-0.42,0.52-0.83,1.04-1.22,1.59c-0.29,0.41-0.5,0.86-0.55,1.36
		C35.51,15.18,35.52,15.36,35.52,15.55"/>
	<path style="clip-path:url(#SVGID_1_);fill:#7FC24E;" d="M36.66,2.67c0.23,0.38,0.38,0.8,0.42,1.24c0.04,0.59-0.12,1.12-0.41,1.63
		C36.35,6.11,35.92,6.6,35.5,7.1c-0.03,0.03-0.06,0.07-0.1,0.13c0.08,0,0.13,0.01,0.18,0.01c0.66,0,1.32,0,1.98,0
		c0.19,0,0.21,0.03,0.23,0.24h-0.15c-0.76,0-1.53,0-2.29,0c-0.11,0-0.2,0.03-0.26,0.12c-0.17,0.23-0.35,0.46-0.52,0.69
		c-0.03,0.03-0.05,0.07-0.08,0.13h3.37c0.01,0.21-0.01,0.24-0.21,0.24c-0.96,0-1.91,0-2.87,0c-0.12,0-0.25,0-0.37,0
		c-0.03,0-0.08,0.01-0.09,0.04c-0.16,0.27-0.28,0.55-0.35,0.88h3.37c-0.05,0.19-0.12,0.25-0.29,0.25c-0.99,0-1.98,0-2.97,0
		c-0.16,0-0.17,0-0.17,0.15c0.01,0.22,0.04,0.43,0.06,0.65c0.01,0.09,0.06,0.12,0.15,0.12c0.72,0,1.44,0,2.16,0h0.15
		c-0.1,0.15-0.18,0.26-0.38,0.25C35.43,10.99,34.84,11,34.24,11h-0.17c0.25,0.61,0.65,1.08,1.07,1.55c-0.23-0.17-0.46-0.33-0.69-0.5
		c-0.39-0.3-0.73-0.63-1.01-1.03c-0.5-0.71-0.6-1.48-0.31-2.29c0.23-0.66,0.63-1.23,1.06-1.78c0.47-0.58,0.95-1.16,1.42-1.74
		c0.32-0.4,0.61-0.82,0.82-1.28C36.61,3.52,36.71,3.11,36.66,2.67"/>
	<path style="clip-path:url(#SVGID_1_);fill:#7FC24E;" d="M34.87,0.79c0.69,0.33,1.29,0.72,1.42,1.52c0.05,0.3-0.03,0.78-0.18,1.07
		c-0.2-0.67-0.45-1.3-0.86-1.86c0.11,0.28,0.24,0.57,0.34,0.85c0.1,0.29,0.18,0.59,0.15,0.92c-0.24-0.08-0.42-0.21-0.56-0.39
		c-0.2-0.27-0.28-0.58-0.3-0.9c-0.02-0.38-0.02-0.76-0.03-1.14C34.86,0.84,34.86,0.83,34.87,0.79"/>
	<path style="clip-path:url(#SVGID_1_);fill:#7FC24E;" d="M38.56,0c-0.14,0.52-0.25,1.02-0.41,1.5c-0.13,0.39-0.42,0.66-0.84,0.77
		c-0.04,0.01-0.08,0.02-0.15,0.03c0.13-0.65,0.51-1.16,0.86-1.67c-0.26,0.23-0.49,0.5-0.68,0.79C37.15,1.7,36.97,2,36.78,2.3
		c-0.05-0.25-0.06-0.49-0.03-0.74c0.07-0.54,0.36-0.93,0.83-1.2C37.87,0.19,38.19,0.08,38.56,0"/>
</g>
</svg>
