<?xml version="1.0" encoding="utf-8"?>
<!-- Generator: Adobe Illustrator 25.0.1, SVG Export Plug-In . SVG Version: 6.00 Build 0)  -->
<svg version="1.0" id="Layer_1" xmlns="http://www.w3.org/2000/svg" xmlns:xlink="http://www.w3.org/1999/xlink" x="0px" y="0px"
	 viewBox="0 0 47.26 36.77" style="enable-background:new 0 0 47.26 36.77;" xml:space="preserve">
<style type="text/css">
	.st0{fill:#000104;}
	.st1{fill:#FFFFFF;}
	.st2{fill:#EF493E;}
	.st3{opacity:0.6;fill-rule:evenodd;clip-rule:evenodd;fill:#FBBE43;}
	.st4{opacity:0.6;fill-rule:evenodd;clip-rule:evenodd;fill:#EF930E;}
	.st5{opacity:0.6;fill-rule:evenodd;clip-rule:evenodd;fill:#E67906;}
	.st6{fill:#9F8829;}
	.st7{fill:#3972A6;}
	.st8{fill:url(#SVGID_1_);stroke:#2B53A4;stroke-width:0.5;stroke-miterlimit:10;}
	.st9{fill:none;}
	.st10{fill:url(#SVGID_2_);}
	.st11{fill:url(#SVGID_3_);}
	.st12{fill:#B3B3B3;}
	.st13{fill:url(#SVGID_4_);}
	.st14{fill:url(#SVGID_5_);}
	.st15{fill:url(#SVGID_6_);}
	.st16{fill:#FFFFFF;stroke:#FFFFFF;stroke-width:0.25;stroke-miterlimit:10;}
	.st17{fill:#00001D;}
	.st18{fill:#4DA0C5;}
	.st19{fill:url(#SVGID_7_);}
	.st20{fill:#2E6A85;}
	.st21{fill:none;stroke:#144FA1;stroke-width:0.113;stroke-linejoin:round;stroke-miterlimit:10;}
	.st22{fill:#F27337;}
	.st23{fill:#8EB8D4;}
	.st24{fill:#F38056;}
	.st25{fill:#626365;}
	.st26{fill:#EF6D23;}
	.st27{fill:#284B82;}
	.st28{fill:#242956;}
	.st29{fill:#15142A;}
	.st30{fill:#84C343;}
	.st31{fill:#4CA1C6;}
	.st32{fill:#121617;}
	.st33{fill:#CF8966;}
	.st34{fill:#F37639;}
	.st35{opacity:0.3;fill:url(#SVGID_8_);}
	.st36{fill:#373277;}
	.st37{fill:#E61E25;}
	.st38{fill:#2555A5;}
	.st39{fill:#2E225E;}
	.st40{fill:#F8A425;}
	.st41{fill:#2058A7;}
	.st42{fill:none;stroke:#205AA8;stroke-width:0.156;stroke-miterlimit:10;}
	.st43{fill:#49A3C7;}
	.st44{fill-rule:evenodd;clip-rule:evenodd;}
	.st45{fill-rule:evenodd;clip-rule:evenodd;fill:url(#SVGID_9_);}
	.st46{fill-rule:evenodd;clip-rule:evenodd;fill:url(#SVGID_10_);}
	.st47{fill-rule:evenodd;clip-rule:evenodd;fill:url(#SVGID_11_);}
	.st48{fill:#1D2251;}
	.st49{fill:#2260AC;}
	.st50{fill:url(#SVGID_12_);}
	.st51{fill:#FFFFFC;}
	.st52{fill:#4C9FC5;}
	.st53{fill:#28306D;}
	.st54{fill:#4C9EC5;}
	.st55{fill:#28306E;}
	.st56{fill:#29306F;}
	.st57{fill:#F7F7FB;}
	.st58{fill:url(#SVGID_13_);}
	.st59{fill:url(#SVGID_14_);}
	.st60{fill:url(#SVGID_15_);}
	.st61{fill:url(#SVGID_16_);}
	.st62{fill:#10123C;}
	.st63{fill:#F5842C;}
	.st64{fill:#1F305E;}
	.st65{fill:#87BBD1;}
	.st66{fill:#203160;}
	.st67{fill:#235779;}
	.st68{fill:#359FA1;}
	.st69{fill:#A4D1A4;}
	.st70{fill:#B9DBBC;}
	.st71{fill:#C6DDCA;}
	.st72{fill:#662E14;}
	.st73{fill:#1D79A4;}
	.st74{fill:#C14B28;}
	.st75{fill:url(#SVGID_17_);}
	.st76{fill:url(#SVGID_18_);}
	.st77{fill:url(#SVGID_19_);}
	.st78{fill:url(#SVGID_20_);}
	.st79{fill:url(#SVGID_21_);}
	.st80{fill:url(#SVGID_22_);}
	.st81{fill:url(#SVGID_23_);}
	.st82{fill:url(#SVGID_24_);}
	.st83{fill:url(#SVGID_25_);}
	.st84{fill:url(#SVGID_26_);}
	.st85{fill:url(#SVGID_27_);}
	.st86{fill:url(#SVGID_28_);}
	.st87{fill:url(#SVGID_29_);}
	.st88{fill:url(#SVGID_30_);}
	.st89{fill:#1F164B;}
	.st90{clip-path:url(#SVGID_32_);fill:#253D97;}
	.st91{fill:url(#SVGID_33_);}
	.st92{fill:url(#SVGID_34_);}
	.st93{fill:url(#SVGID_35_);}
	.st94{fill:url(#SVGID_36_);}
	.st95{fill:url(#SVGID_37_);}
	.st96{fill:url(#SVGID_38_);}
	.st97{fill:url(#SVGID_39_);}
	.st98{fill:url(#SVGID_40_);}
	.st99{fill:url(#SVGID_41_);}
	.st100{fill:#443F41;}
	.st101{fill:#28306F;}
	.st102{fill:#71C49D;}
	.st103{fill:#F0C6A7;}
	.st104{fill:#DB8D82;}
	.st105{fill:#EFB7AC;}
	.st106{opacity:0.21;}
	.st107{fill-rule:evenodd;clip-rule:evenodd;fill:#A9196E;}
	.st108{fill-rule:evenodd;clip-rule:evenodd;fill:#FBE42C;}
	.st109{fill:#FBE42C;}
	.st110{fill:#A9196E;}
	.st111{fill:#7FC143;}
	.st112{clip-path:url(#SVGID_45_);fill:#7FC143;}
	.st113{clip-path:url(#SVGID_51_);fill:#7FC143;}
	.st114{fill:#243F8F;}
	.st115{fill:#EF4E2F;}
	.st116{fill:#010007;}
	.st117{fill:#0C0D37;}
	.st118{fill:#FBAF2D;}
	.st119{fill:url(#SVGID_54_);}
	.st120{fill-rule:evenodd;clip-rule:evenodd;fill:#FFFFFF;}
	.st121{fill:#1D4690;}
	.st122{fill:#3AA949;}
	.st123{fill:#F37A24;}
	.st124{fill:none;stroke:#F37A24;stroke-width:3.7145;stroke-miterlimit:10;}
	.st125{fill:#3AA949;stroke:#FFFFFF;stroke-width:1.3104;stroke-miterlimit:10;}
	.st126{fill:#46A2BB;}
	.st127{fill:#7153A0;}
	.st128{fill:#27316C;}
	.st129{fill:#2C65AE;}
	.st130{fill:#452D7A;}
	.st131{fill:#442C7A;}
	.st132{fill:#1A2642;}
	.st133{fill-rule:evenodd;clip-rule:evenodd;fill:#567EB8;}
	.st134{fill-rule:evenodd;clip-rule:evenodd;fill:#6A7EB8;}
	.st135{fill-rule:evenodd;clip-rule:evenodd;fill:#6A7EB9;}
	.st136{fill-rule:evenodd;clip-rule:evenodd;fill:#EE3C2D;}
	.st137{fill-rule:evenodd;clip-rule:evenodd;fill:#EF493F;}
	.st138{fill-rule:evenodd;clip-rule:evenodd;fill:#ED2C24;}
	.st139{fill-rule:evenodd;clip-rule:evenodd;fill:#E9AE28;}
	.st140{fill-rule:evenodd;clip-rule:evenodd;fill:#D69B28;}
	.st141{fill-rule:evenodd;clip-rule:evenodd;fill:#FCB729;}
	.st142{fill-rule:evenodd;clip-rule:evenodd;fill:#409E47;}
	.st143{fill-rule:evenodd;clip-rule:evenodd;fill:#4BB450;}
	.st144{fill-rule:evenodd;clip-rule:evenodd;fill:#338440;}
	.st145{fill:#C09C36;}
	.st146{fill:#1E552A;}
	.st147{clip-path:url(#SVGID_56_);fill:url(#SVGID_57_);}
	.st148{fill:#023A1E;}
	.st149{fill:#FFFFFA;}
	.st150{fill:#0D4F28;}
	.st151{fill:#0E5128;}
	.st152{fill:#0D4E27;}
	.st153{fill:#0E5229;}
	.st154{fill:#0E4823;}
	.st155{fill:#0E4C27;}
	.st156{fill:#F3F6E0;}
	.st157{fill:#0E4F28;}
	.st158{fill:#114823;}
	.st159{fill:#105229;}
	.st160{fill:#0A4A2B;}
	.st161{fill:#134F27;}
	.st162{fill:#165229;}
	.st163{fill:#0D5029;}
	.st164{fill:#0B4E2B;}
	.st165{fill:#105028;}
	.st166{fill:#0A492A;}
	.st167{fill:#E9F3E2;}
	.st168{fill:#144D26;}
	.st169{fill:#185C2F;}
	.st170{fill:#0F5028;}
	.st171{fill:#F3F8EA;}
	.st172{fill:#114D26;}
	.st173{fill:#70A685;}
	.st174{fill:#0D4F2A;}
	.st175{fill:#094A24;}
	.st176{fill:#0F4F27;}
	.st177{fill:#0A4C26;}
	.st178{fill:#A2D29A;}
	.st179{fill:#4D7E44;}
	.st180{fill:#E8F2E1;}
	.st181{fill:#EDF5E5;}
	.st182{fill:#E6F2E7;}
	.st183{fill:#E5F1DC;}
	.st184{fill:#E9F3E3;}
	.st185{fill:#E9F3E5;}
	.st186{fill:#E5F1DB;}
	.st187{fill:#D8ECD7;}
	.st188{fill:#D9EBD4;}
	.st189{fill:#E2F0DE;}
	.st190{fill:#366B4B;}
	.st191{fill:#5D6162;}
	.st192{fill:#212E5F;}
	.st193{fill:#DD1F26;}
	.st194{clip-path:url(#SVGID_59_);}
	.st195{fill:#23396F;}
	.st196{fill:#7FC24E;}
	.st197{clip-path:url(#SVGID_59_);fill:#23396F;}
	.st198{clip-path:url(#SVGID_59_);fill:#7FC24E;}
	.st199{fill:#91CEA4;}
	.st200{fill:#90CEA4;}
	.st201{fill:#C02026;}
	.st202{fill:#362E7E;}
</style>
<g>
	<rect y="29.09" class="st7" width="47.26" height="7.68"/>
	
		<linearGradient id="SVGID_1_" gradientUnits="userSpaceOnUse" x1="-221.8557" y1="3724.2844" x2="-201.3221" y2="3724.2844" gradientTransform="matrix(0.7071 0.7071 -0.7071 0.7071 2805.8562 -2469.4617)">
		<stop  offset="0" style="stop-color:#FFFFFF"/>
		<stop  offset="0.0363" style="stop-color:#B9E2DF"/>
		<stop  offset="0.0454" style="stop-color:#B6E0DE"/>
		<stop  offset="0.1506" style="stop-color:#96D1D2"/>
		<stop  offset="0.2524" style="stop-color:#7FC6CA"/>
		<stop  offset="0.3485" style="stop-color:#72BFC5"/>
		<stop  offset="0.433" style="stop-color:#6DBDC3"/>
		<stop  offset="0.4628" style="stop-color:#66AEBA"/>
		<stop  offset="0.5207" style="stop-color:#5B96AD"/>
		<stop  offset="0.5873" style="stop-color:#5384A3"/>
		<stop  offset="0.6666" style="stop-color:#4D789B"/>
		<stop  offset="0.7711" style="stop-color:#4A7097"/>
		<stop  offset="1" style="stop-color:#496E96"/>
	</linearGradient>
	<path class="st8" d="M36.64,13.74L23.42,0.52c-0.36-0.36-0.94-0.36-1.3,0L8.9,13.74c-0.36,0.36-0.36,0.94,0,1.3l13.22,13.22
		c0.36,0.36,0.94,0.36,1.3,0l13.22-13.22C37,14.68,37,14.1,36.64,13.74z"/>
	<g>
		<path class="st1" d="M13.27,11.4l1.57-2.45c0,0,8.6-1.78,8.6,4.65s-10.15,4.72-10.15,4.72v-5.9l2.46,0l0.03,3.44
			c0,0,5.21,0.66,5.21-2.4S13.27,11.4,13.27,11.4z"/>
	</g>
	<g>
		<path class="st9" d="M29.67,12.59c0-0.96-2.03-1.35-4.05-1.31c-1,0.02-2,0.08-2.74,0.08v2.57C25.13,13.92,29.67,14.33,29.67,12.59
			z"/>
		<path class="st1" d="M21.83,16.28l-0.09,0.97l0,1.13h2.14v-2.4L24.04,16c0.04,0.01,3.9,0.52,6.27-0.68
			C27.2,15.04,24.29,15.53,21.83,16.28z"/>
		<path class="st1" d="M30.79,15.04c0.12-0.08,0.23-0.16,0.34-0.25c0.67-0.58,1-1.35,1-2.3c0-0.87-0.32-1.59-0.95-2.13
			c-2.16-1.85-7.31-1.22-8-1.13l-0.86,1.81l-0.44,4.59C25.4,14.73,28.55,14.77,30.79,15.04z M22.87,13.92v-2.57
			c0.75,0,1.74-0.05,2.74-0.08c2.02-0.04,4.05,0.35,4.05,1.31C29.67,14.33,25.13,13.92,22.87,13.92z"/>
		
			<radialGradient id="SVGID_2_" cx="-2716.2185" cy="2275.7419" r="5.2312" gradientTransform="matrix(1 0 0 1 2743.1548 -2262.0332)" gradientUnits="userSpaceOnUse">
			<stop  offset="0" style="stop-color:#FFFFFF"/>
			<stop  offset="0.0218" style="stop-color:#F0F3F6"/>
			<stop  offset="0.0849" style="stop-color:#C9D4E0"/>
			<stop  offset="0.1546" style="stop-color:#A6B8CC"/>
			<stop  offset="0.2304" style="stop-color:#89A1BB"/>
			<stop  offset="0.3142" style="stop-color:#718EAD"/>
			<stop  offset="0.4095" style="stop-color:#5F80A3"/>
			<stop  offset="0.5229" style="stop-color:#53769B"/>
			<stop  offset="0.6726" style="stop-color:#4B7097"/>
			<stop  offset="1" style="stop-color:#496E96"/>
		</radialGradient>
		<path class="st10" d="M31.01,15.06c-0.14,0.11-0.3,0.19-0.46,0.28c0.09,0.01,0.17,0.02,0.26,0.03c0.14-0.09,0.27-0.18,0.39-0.28
			C31.14,15.08,31.08,15.07,31.01,15.06z"/>
		
			<radialGradient id="SVGID_3_" cx="-2719.1707" cy="2279.4512" r="7.4599" gradientTransform="matrix(1 0 0 1 2743.1548 -2262.0332)" gradientUnits="userSpaceOnUse">
			<stop  offset="0" style="stop-color:#FFFFFF"/>
			<stop  offset="0.0218" style="stop-color:#F0F3F6"/>
			<stop  offset="0.0849" style="stop-color:#C9D4E0"/>
			<stop  offset="0.1546" style="stop-color:#A6B8CC"/>
			<stop  offset="0.2304" style="stop-color:#89A1BB"/>
			<stop  offset="0.3142" style="stop-color:#718EAD"/>
			<stop  offset="0.4095" style="stop-color:#5F80A3"/>
			<stop  offset="0.5229" style="stop-color:#53769B"/>
			<stop  offset="0.6726" style="stop-color:#4B7097"/>
			<stop  offset="1" style="stop-color:#496E96"/>
		</radialGradient>
		<path class="st11" d="M31.01,15.06c-0.14,0.11-0.3,0.19-0.46,0.28c0.09,0.01,0.17,0.02,0.26,0.03c0.14-0.09,0.27-0.18,0.39-0.28
			C31.14,15.08,31.08,15.07,31.01,15.06z"/>
		<path class="st12" d="M30.31,15.32c0.08,0.01,0.16,0.02,0.25,0.03c0.16-0.09,0.31-0.18,0.46-0.28c-0.07-0.01-0.15-0.02-0.22-0.03
			C30.64,15.14,30.48,15.23,30.31,15.32z"/>
		
			<radialGradient id="SVGID_4_" cx="-2716.2183" cy="2275.7451" r="5.2297" gradientTransform="matrix(1 0 0 1 2743.1548 -2262.0332)" gradientUnits="userSpaceOnUse">
			<stop  offset="0" style="stop-color:#FFFFFF"/>
			<stop  offset="0.0218" style="stop-color:#F0F3F6"/>
			<stop  offset="0.0849" style="stop-color:#C9D4E0"/>
			<stop  offset="0.1546" style="stop-color:#A6B8CC"/>
			<stop  offset="0.2304" style="stop-color:#89A1BB"/>
			<stop  offset="0.3142" style="stop-color:#718EAD"/>
			<stop  offset="0.4095" style="stop-color:#5F80A3"/>
			<stop  offset="0.5229" style="stop-color:#53769B"/>
			<stop  offset="0.6726" style="stop-color:#4B7097"/>
			<stop  offset="1" style="stop-color:#496E96"/>
		</radialGradient>
		<path class="st13" d="M30.31,15.32c0.08,0.01,0.16,0.02,0.25,0.03c0.16-0.09,0.31-0.18,0.46-0.28c-0.07-0.01-0.15-0.02-0.22-0.03
			C30.64,15.14,30.48,15.23,30.31,15.32z"/>
		<path class="st12" d="M21.89,15.62c-0.05,0.01-0.1,0.03-0.15,0.04l-0.06,0.66c0.05-0.02,0.1-0.03,0.15-0.04L21.89,15.62z"/>
		<g>
			
				<radialGradient id="SVGID_5_" cx="-2675.3362" cy="2279.4314" r="106.2625" gradientTransform="matrix(1 0 0 1 2743.1548 -2262.0332)" gradientUnits="userSpaceOnUse">
				<stop  offset="0" style="stop-color:#FFFFFF"/>
				<stop  offset="0.0218" style="stop-color:#F0F3F6"/>
				<stop  offset="0.0849" style="stop-color:#C9D4E0"/>
				<stop  offset="0.1546" style="stop-color:#A6B8CC"/>
				<stop  offset="0.2304" style="stop-color:#89A1BB"/>
				<stop  offset="0.3142" style="stop-color:#718EAD"/>
				<stop  offset="0.4095" style="stop-color:#5F80A3"/>
				<stop  offset="0.5229" style="stop-color:#53769B"/>
				<stop  offset="0.6726" style="stop-color:#4B7097"/>
				<stop  offset="1" style="stop-color:#496E96"/>
			</radialGradient>
			<path class="st14" d="M31.21,15.09c-0.13,0.1-0.26,0.2-0.39,0.28c1.03,0.12,2.08,0.32,3.14,0.62l0.27-0.27
				C34.22,15.72,33.09,15.34,31.21,15.09z"/>
			
				<radialGradient id="SVGID_6_" cx="-2541.823" cy="2289.9307" r="538.7964" gradientTransform="matrix(1 0 0 1 2743.1548 -2262.0332)" gradientUnits="userSpaceOnUse">
				<stop  offset="0" style="stop-color:#FFFFFF"/>
				<stop  offset="0.0218" style="stop-color:#F0F3F6"/>
				<stop  offset="0.0849" style="stop-color:#C9D4E0"/>
				<stop  offset="0.1546" style="stop-color:#A6B8CC"/>
				<stop  offset="0.2304" style="stop-color:#89A1BB"/>
				<stop  offset="0.3142" style="stop-color:#718EAD"/>
				<stop  offset="0.4095" style="stop-color:#5F80A3"/>
				<stop  offset="0.5229" style="stop-color:#53769B"/>
				<stop  offset="0.6726" style="stop-color:#4B7097"/>
				<stop  offset="1" style="stop-color:#496E96"/>
			</radialGradient>
			<path class="st15" d="M30.79,15.04c-2.24-0.26-5.39-0.31-8.9,0.59c-0.05,0.01-0.1,0.03-0.15,0.04c-0.05,0.01-0.1,0.03-0.15,0.04
				c-2.51,0.68-5.19,1.84-7.85,3.76l0.45,0.51c0,0,2.92-2.2,7.33-3.6c0.05-0.02,0.1-0.03,0.15-0.05c0.05-0.02,0.1-0.03,0.15-0.04
				c2.47-0.75,5.37-1.24,8.48-0.96c0.08,0.01,0.16,0.02,0.25,0.03c0.16-0.09,0.31-0.18,0.46-0.28
				C30.94,15.05,30.87,15.04,30.79,15.04z"/>
		</g>
	</g>
	<g>
		<path class="st16" d="M3.13,34.73v-0.24h0.38v-3.09H3.13v-0.24h1.61c0.62,0,1.1,0.15,1.44,0.45c0.34,0.3,0.51,0.72,0.51,1.27
			c0,0.57-0.17,1.02-0.5,1.35c-0.33,0.33-0.78,0.5-1.35,0.5H3.13z M4.05,34.46h0.38c0.34,0,0.61-0.03,0.79-0.09
			c0.18-0.06,0.34-0.16,0.48-0.32c0.26-0.29,0.39-0.67,0.39-1.16c0-1-0.56-1.51-1.67-1.51H4.05V34.46z"/>
		<path class="st16" d="M9.89,34.73H7.25v-0.24h0.38v-3.1H7.25v-0.24h2.53v0.59H9.49v-0.36H8.18v1.37H9.1v-0.3h0.26v0.83H9.1V33
			H8.18v1.46H9.6v-0.39h0.29V34.73z"/>
		<path class="st16" d="M11.23,33.15v1.34h0.38v0.24h-1.31v-0.24h0.38v-3.1h-0.38v-0.24h1.36c0.43,0,0.76,0.07,0.97,0.22
			c0.22,0.15,0.32,0.37,0.32,0.67c0,0.24-0.07,0.45-0.2,0.61c-0.13,0.17-0.33,0.29-0.6,0.38l1.02,1.44h0.29v0.24h-0.79l-1.05-1.57
			H11.23z M11.23,32.91h0.16c0.33,0,0.58-0.07,0.74-0.21c0.16-0.14,0.25-0.35,0.25-0.63c0-0.26-0.07-0.44-0.22-0.53
			c-0.15-0.1-0.43-0.14-0.83-0.14h-0.1V32.91z"/>
		<path class="st16" d="M14.27,34.49v-3.1h-0.38v-0.24h1.02l1.08,2.62l1.11-2.62h0.91v0.24h-0.38v3.1h0.38v0.24h-1.28v-0.24h0.38
			l-0.01-2.65L16,34.46h-0.25l-1.12-2.73v2.76h0.41v0.24h-1.15v-0.24H14.27z"/>
		<path class="st16" d="M19.22,33.65l-0.35,0.83h0.38v0.24h-0.91v-0.24h0.22l1.43-3.39h0.31l1.43,3.39h0.22v0.24H20.8v-0.24h0.35
			l-0.35-0.83H19.22z M19.32,33.42h1.38l-0.69-1.63L19.32,33.42z"/>
		<path class="st16" d="M24.92,33.24v1.25h0.38v0.24h-1.31v-0.24h0.38v-3.1h-0.38v-0.24h1.44c0.42,0,0.73,0.08,0.93,0.24
			c0.21,0.16,0.31,0.39,0.31,0.71c0,0.38-0.14,0.66-0.41,0.86c-0.27,0.19-0.68,0.29-1.23,0.29H24.92z M24.92,33h0.2
			c0.33,0,0.57-0.08,0.74-0.23c0.16-0.16,0.24-0.39,0.24-0.69c0-0.25-0.07-0.43-0.21-0.53c-0.14-0.1-0.38-0.15-0.72-0.15h-0.25V33z"
			/>
		<path class="st16" d="M29.76,34.73h-2.69v-0.24h0.38v-3.1h-0.38v-0.24h1.28v0.24H28v3.07h1.44v-0.44h0.32V34.73z"/>
		<path class="st16" d="M30.81,33.65l-0.35,0.83h0.38v0.24h-0.91v-0.24h0.22l1.43-3.39h0.31l1.43,3.39h0.22v0.24h-1.16v-0.24h0.35
			l-0.35-0.83H30.81z M30.91,33.42h1.38l-0.69-1.63L30.91,33.42z"/>
		<path class="st16" d="M36.63,34.77l-2-2.88v2.6h0.38v0.24H33.9v-0.24h0.38v-3.1H33.9v-0.24h0.8l2.03,2.89v-2.65h-0.38v-0.24h1.12
			v0.24h-0.38v3.38H36.63z"/>
		<path class="st16" d="M40.59,34.73h-2.64v-0.24h0.38v-3.1h-0.38v-0.24h2.53v0.59h-0.29v-0.36h-1.31v1.37h0.93v-0.3h0.26v0.83H39.8
			V33h-0.93v1.46h1.42v-0.39h0.29V34.73z"/>
		<path class="st16" d="M42.3,31.42h-1.1v0.41h-0.29v-0.68h3.33v0.68h-0.29v-0.41h-1.1v3.07h0.38v0.24h-1.31v-0.24h0.38V31.42z"/>
	</g>
</g>
</svg>
