<?xml version="1.0" encoding="utf-8"?>
<!-- Generator: Adobe Illustrator 25.0.1, SVG Export Plug-In . SVG Version: 6.00 Build 0)  -->
<svg version="1.0" id="Layer_1" xmlns="http://www.w3.org/2000/svg" xmlns:xlink="http://www.w3.org/1999/xlink" x="0px" y="0px"
	 viewBox="0 0 39.55 32.12" style="enable-background:new 0 0 39.55 32.12;" xml:space="preserve">
<style type="text/css">
	.st0{fill:#000104;}
	.st1{fill:#FFFFFF;}
	.st2{fill:#EF493E;}
	.st3{opacity:0.6;fill-rule:evenodd;clip-rule:evenodd;fill:#FBBE43;}
	.st4{opacity:0.6;fill-rule:evenodd;clip-rule:evenodd;fill:#EF930E;}
	.st5{opacity:0.6;fill-rule:evenodd;clip-rule:evenodd;fill:#E67906;}
	.st6{fill:#9F8829;}
	.st7{fill:#3972A6;}
	.st8{fill:url(#SVGID_1_);stroke:#2B53A4;stroke-width:0.5;stroke-miterlimit:10;}
	.st9{fill:none;}
	.st10{fill:url(#SVGID_2_);}
	.st11{fill:url(#SVGID_3_);}
	.st12{fill:#B3B3B3;}
	.st13{fill:url(#SVGID_4_);}
	.st14{fill:url(#SVGID_5_);}
	.st15{fill:url(#SVGID_6_);}
	.st16{fill:#FFFFFF;stroke:#FFFFFF;stroke-width:0.25;stroke-miterlimit:10;}
	.st17{fill:#00001D;}
	.st18{fill:#4DA0C5;}
	.st19{fill:url(#SVGID_7_);}
	.st20{fill:#2E6A85;}
	.st21{fill:none;stroke:#144FA1;stroke-width:0.113;stroke-linejoin:round;stroke-miterlimit:10;}
	.st22{fill:#F27337;}
	.st23{fill:#8EB8D4;}
	.st24{fill:#F38056;}
	.st25{fill:#626365;}
	.st26{fill:#EF6D23;}
	.st27{fill:#284B82;}
	.st28{fill:#242956;}
	.st29{fill:#15142A;}
	.st30{fill:#84C343;}
	.st31{fill:#4CA1C6;}
	.st32{fill:#121617;}
	.st33{fill:#CF8966;}
	.st34{fill:#F37639;}
	.st35{opacity:0.3;fill:url(#SVGID_8_);}
	.st36{fill:#373277;}
	.st37{fill:#E61E25;}
	.st38{fill:#2555A5;}
	.st39{fill:#2E225E;}
	.st40{fill:#F8A425;}
	.st41{fill:#2058A7;}
	.st42{fill:none;stroke:#205AA8;stroke-width:0.156;stroke-miterlimit:10;}
	.st43{fill:#49A3C7;}
	.st44{fill-rule:evenodd;clip-rule:evenodd;}
	.st45{fill-rule:evenodd;clip-rule:evenodd;fill:url(#SVGID_9_);}
	.st46{fill-rule:evenodd;clip-rule:evenodd;fill:url(#SVGID_10_);}
	.st47{fill-rule:evenodd;clip-rule:evenodd;fill:url(#SVGID_11_);}
	.st48{fill:#1D2251;}
	.st49{fill:#2260AC;}
	.st50{fill:url(#SVGID_12_);}
	.st51{fill:#FFFFFC;}
	.st52{fill:#4C9FC5;}
	.st53{fill:#28306D;}
	.st54{fill:#4C9EC5;}
	.st55{fill:#28306E;}
	.st56{fill:#29306F;}
	.st57{fill:#F7F7FB;}
	.st58{fill:url(#SVGID_13_);}
	.st59{fill:url(#SVGID_14_);}
	.st60{fill:url(#SVGID_15_);}
	.st61{fill:url(#SVGID_16_);}
	.st62{fill:#10123C;}
	.st63{fill:#F5842C;}
	.st64{fill:#1F305E;}
	.st65{fill:#87BBD1;}
	.st66{fill:#203160;}
	.st67{fill:#235779;}
	.st68{fill:#359FA1;}
	.st69{fill:#A4D1A4;}
	.st70{fill:#B9DBBC;}
	.st71{fill:#C6DDCA;}
	.st72{fill:#662E14;}
	.st73{fill:#1D79A4;}
	.st74{fill:#C14B28;}
	.st75{fill:url(#SVGID_17_);}
	.st76{fill:url(#SVGID_18_);}
	.st77{fill:url(#SVGID_19_);}
	.st78{fill:url(#SVGID_20_);}
	.st79{fill:url(#SVGID_21_);}
	.st80{fill:url(#SVGID_22_);}
	.st81{fill:url(#SVGID_23_);}
	.st82{fill:url(#SVGID_24_);}
	.st83{fill:url(#SVGID_25_);}
	.st84{fill:url(#SVGID_26_);}
	.st85{fill:url(#SVGID_27_);}
	.st86{fill:url(#SVGID_28_);}
	.st87{fill:url(#SVGID_29_);}
	.st88{fill:url(#SVGID_30_);}
	.st89{fill:#1F164B;}
	.st90{clip-path:url(#SVGID_32_);fill:#253D97;}
	.st91{fill:url(#SVGID_33_);}
	.st92{fill:url(#SVGID_34_);}
	.st93{fill:url(#SVGID_35_);}
	.st94{fill:url(#SVGID_36_);}
	.st95{fill:url(#SVGID_37_);}
	.st96{fill:url(#SVGID_38_);}
	.st97{fill:url(#SVGID_39_);}
	.st98{fill:url(#SVGID_40_);}
	.st99{fill:url(#SVGID_41_);}
	.st100{fill:#443F41;}
	.st101{fill:#28306F;}
	.st102{fill:#71C49D;}
	.st103{fill:#F0C6A7;}
	.st104{fill:#DB8D82;}
	.st105{fill:#EFB7AC;}
	.st106{opacity:0.21;}
	.st107{fill-rule:evenodd;clip-rule:evenodd;fill:#A9196E;}
	.st108{fill-rule:evenodd;clip-rule:evenodd;fill:#FBE42C;}
	.st109{fill:#FBE42C;}
	.st110{fill:#A9196E;}
	.st111{fill:#7FC143;}
	.st112{clip-path:url(#SVGID_45_);fill:#7FC143;}
	.st113{clip-path:url(#SVGID_51_);fill:#7FC143;}
	.st114{fill:#243F8F;}
	.st115{fill:#EF4E2F;}
	.st116{fill:#010007;}
	.st117{fill:#0C0D37;}
	.st118{fill:#FBAF2D;}
	.st119{fill:url(#SVGID_54_);}
	.st120{fill-rule:evenodd;clip-rule:evenodd;fill:#FFFFFF;}
	.st121{fill:#1D4690;}
	.st122{fill:#3AA949;}
	.st123{fill:#F37A24;}
	.st124{fill:none;stroke:#F37A24;stroke-width:3.7145;stroke-miterlimit:10;}
	.st125{fill:#3AA949;stroke:#FFFFFF;stroke-width:1.3104;stroke-miterlimit:10;}
	.st126{fill:#46A2BB;}
	.st127{fill:#7153A0;}
	.st128{fill:#27316C;}
	.st129{fill:#2C65AE;}
	.st130{fill:#452D7A;}
	.st131{fill:#442C7A;}
	.st132{fill:#1A2642;}
	.st133{fill-rule:evenodd;clip-rule:evenodd;fill:#567EB8;}
	.st134{fill-rule:evenodd;clip-rule:evenodd;fill:#6A7EB8;}
	.st135{fill-rule:evenodd;clip-rule:evenodd;fill:#6A7EB9;}
	.st136{fill-rule:evenodd;clip-rule:evenodd;fill:#EE3C2D;}
	.st137{fill-rule:evenodd;clip-rule:evenodd;fill:#EF493F;}
	.st138{fill-rule:evenodd;clip-rule:evenodd;fill:#ED2C24;}
	.st139{fill-rule:evenodd;clip-rule:evenodd;fill:#E9AE28;}
	.st140{fill-rule:evenodd;clip-rule:evenodd;fill:#D69B28;}
	.st141{fill-rule:evenodd;clip-rule:evenodd;fill:#FCB729;}
	.st142{fill-rule:evenodd;clip-rule:evenodd;fill:#409E47;}
	.st143{fill-rule:evenodd;clip-rule:evenodd;fill:#4BB450;}
	.st144{fill-rule:evenodd;clip-rule:evenodd;fill:#338440;}
	.st145{fill:#C09C36;}
	.st146{fill:#1E552A;}
	.st147{clip-path:url(#SVGID_56_);fill:url(#SVGID_57_);}
	.st148{fill:#023A1E;}
	.st149{fill:#FFFFFA;}
	.st150{fill:#0D4F28;}
	.st151{fill:#0E5128;}
	.st152{fill:#0D4E27;}
	.st153{fill:#0E5229;}
	.st154{fill:#0E4823;}
	.st155{fill:#0E4C27;}
	.st156{fill:#F3F6E0;}
	.st157{fill:#0E4F28;}
	.st158{fill:#114823;}
	.st159{fill:#105229;}
	.st160{fill:#0A4A2B;}
	.st161{fill:#134F27;}
	.st162{fill:#165229;}
	.st163{fill:#0D5029;}
	.st164{fill:#0B4E2B;}
	.st165{fill:#105028;}
	.st166{fill:#0A492A;}
	.st167{fill:#E9F3E2;}
	.st168{fill:#144D26;}
	.st169{fill:#185C2F;}
	.st170{fill:#0F5028;}
	.st171{fill:#F3F8EA;}
	.st172{fill:#114D26;}
	.st173{fill:#70A685;}
	.st174{fill:#0D4F2A;}
	.st175{fill:#094A24;}
	.st176{fill:#0F4F27;}
	.st177{fill:#0A4C26;}
	.st178{fill:#A2D29A;}
	.st179{fill:#4D7E44;}
	.st180{fill:#E8F2E1;}
	.st181{fill:#EDF5E5;}
	.st182{fill:#E6F2E7;}
	.st183{fill:#E5F1DC;}
	.st184{fill:#E9F3E3;}
	.st185{fill:#E9F3E5;}
	.st186{fill:#E5F1DB;}
	.st187{fill:#D8ECD7;}
	.st188{fill:#D9EBD4;}
	.st189{fill:#E2F0DE;}
	.st190{fill:#366B4B;}
	.st191{fill:#5D6162;}
	.st192{fill:#212E5F;}
	.st193{fill:#DD1F26;}
	.st194{clip-path:url(#SVGID_59_);}
	.st195{fill:#23396F;}
	.st196{fill:#7FC24E;}
	.st197{clip-path:url(#SVGID_59_);fill:#23396F;}
	.st198{clip-path:url(#SVGID_59_);fill:#7FC24E;}
	.st199{fill:#91CEA4;}
	.st200{fill:#90CEA4;}
	.st201{fill:#C02026;}
	.st202{fill:#362E7E;}
</style>
<g>
	<polygon class="st27" points="14.94,0 0,22.34 4.54,22.34 17.21,3.27 	"/>
	<polygon class="st28" points="22.68,0 7.87,22.34 12.21,22.34 25.01,3.07 	"/>
	<path class="st29" d="M13.41,24.88L26.41,5.6l8.94,13.27l-3.94,0.6l-4.94-7.14l-6.53,10C19.95,22.34,17.81,22.34,13.41,24.88z"/>
	<path class="st27" d="M13.41,26.88c0,0,2.67-5.87,26.15-7.14c0,0-15.14,0.87-21.01,7.14L13.41,26.88z"/>
	<g>
		<path class="st29" d="M1.82,31.31C2,30.63,2.25,29.83,2.56,28.9l0.95,0l0,3.16H2.85l0-2.57c-0.16,0.68-0.41,1.53-0.77,2.57H1.54
			c-0.38-1.14-0.63-1.99-0.76-2.54l0,2.54H0.13l0-3.16h0.91C1.35,29.76,1.61,30.56,1.82,31.31z"/>
		<path class="st29" d="M4.23,28.9l2.07,0l0,0.52l-1.41,0l0,0.74l1.18,0l0,0.52l-1.18,0l0,0.84l1.48,0l0,0.52l-2.13,0L4.23,28.9z"/>
		<path class="st29" d="M6.84,28.91C7,28.87,7.29,28.84,7.7,28.84c0.57,0,1,0.17,1.3,0.5c0.26,0.28,0.38,0.65,0.38,1.11
			c0,0.57-0.16,1-0.49,1.28C8.6,32,8.19,32.12,7.66,32.12c-0.33,0-0.61-0.02-0.82-0.06L6.84,28.91z M7.49,31.59
			c0.07,0.02,0.15,0.03,0.25,0.03c0.64,0,0.96-0.38,0.96-1.14c0-0.38-0.11-0.66-0.32-0.86c-0.17-0.16-0.39-0.24-0.66-0.24
			c-0.08,0-0.15,0.01-0.23,0.03L7.49,31.59z"/>
		<path class="st29" d="M10.63,28.9l0,3.16H9.99l0-3.16H10.63z"/>
		<path class="st29" d="M14.06,28.9l-1.04,1.55c0.37,0.59,0.71,1.12,1.02,1.61H13.3l-0.74-1.27c-0.26,0.45-0.51,0.87-0.74,1.27
			h-0.76l1.08-1.62L11.2,28.9h0.76l0.67,1.1c0.14-0.22,0.36-0.59,0.67-1.1H14.06z"/>
	</g>
	<g>
		<path class="st27" d="M15.37,32.05l0-1.85c0.17-0.03,0.33-0.04,0.47-0.04c0.45,0,0.67,0.19,0.67,0.57c0,0.21-0.07,0.36-0.2,0.47
			c-0.11,0.09-0.25,0.13-0.43,0.13c-0.08,0-0.16-0.01-0.24-0.02v0.75H15.37z M15.64,30.4l0,0.69c0.08,0.01,0.16,0.02,0.24,0.02
			c0.23,0,0.35-0.13,0.35-0.38c0-0.23-0.12-0.35-0.37-0.35C15.77,30.38,15.7,30.39,15.64,30.4z"/>
		<path class="st27" d="M17.2,32.05h-0.27l0-1.85h0.27l0,0.78h0.89l0-0.78h0.27l0,1.85l-0.27,0l0-0.85l-0.89,0V32.05z"/>
		<path class="st27" d="M19.34,30.2h0.26l0.67,1.85h-0.28l-0.14-0.42h-0.76l-0.14,0.42h-0.28L19.34,30.2z M19.47,30.53l-0.3,0.88
			h0.6L19.47,30.53z"/>
		<path class="st27" d="M20.57,32.05l0-1.85c0.17-0.03,0.33-0.04,0.47-0.04c0.45,0,0.67,0.19,0.67,0.57c0,0.25-0.1,0.42-0.3,0.52
			l0.37,0.8h-0.27l-0.33-0.73c-0.03,0-0.06,0-0.11,0c-0.07,0-0.14-0.01-0.22-0.02l0,0.75H20.57z M20.84,30.4v0.69
			c0.08,0.01,0.15,0.02,0.22,0.02c0.25,0,0.37-0.13,0.37-0.38c0-0.23-0.12-0.35-0.37-0.35C20.97,30.38,20.9,30.39,20.84,30.4z"/>
		<path class="st27" d="M22.39,30.53l0,1.52h-0.27l0-1.85h0.34c0.15,0.31,0.31,0.74,0.47,1.28c0.04,0.12,0.07,0.21,0.08,0.28
			c0.02-0.06,0.04-0.12,0.06-0.19c0.18-0.59,0.35-1.04,0.5-1.37h0.35l0,1.85h-0.27l0-1.53c-0.08,0.27-0.25,0.78-0.53,1.53h-0.22
			c-0.09-0.2-0.19-0.47-0.3-0.79C22.51,30.93,22.43,30.69,22.39,30.53z"/>
		<path class="st27" d="M24.91,30.2h0.26l0.67,1.85h-0.28l-0.14-0.42l-0.76,0l-0.14,0.42h-0.28L24.91,30.2z M25.04,30.53l-0.3,0.88
			h0.6L25.04,30.53z"/>
		<path class="st27" d="M27.34,31.87c-0.16,0.14-0.34,0.21-0.54,0.21c-0.28,0-0.5-0.11-0.65-0.32c-0.12-0.17-0.18-0.38-0.18-0.62
			c0-0.27,0.08-0.51,0.23-0.7c0.15-0.19,0.34-0.28,0.56-0.28c0.2,0,0.39,0.07,0.56,0.2l-0.11,0.16c-0.13-0.09-0.26-0.13-0.4-0.13
			c-0.18,0-0.32,0.07-0.42,0.22c-0.09,0.13-0.14,0.31-0.14,0.53c0,0.22,0.06,0.39,0.17,0.52c0.11,0.12,0.24,0.18,0.41,0.18
			c0.13,0,0.26-0.05,0.39-0.14L27.34,31.87z"/>
		<path class="st27" d="M27.72,30.2l1.13,0v0.22l-0.86,0v0.55l0.72,0v0.22h-0.72l0,0.62l0.89,0v0.22l-1.17,0L27.72,30.2z"/>
		<path class="st27" d="M30.64,31.28c0,0.54-0.23,0.81-0.68,0.81s-0.68-0.27-0.68-0.81l0-1.08l0.27,0l0,1.14
			c0,0.34,0.13,0.51,0.4,0.51c0.27,0,0.4-0.17,0.4-0.51V30.2h0.27L30.64,31.28z"/>
		<path class="st27" d="M31.53,30.42h-0.56V30.2l1.43,0v0.22h-0.6l0,1.63h-0.27L31.53,30.42z"/>
		<path class="st27" d="M33.01,30.2l0,1.85h-0.27V30.2H33.01z"/>
		<path class="st27" d="M34.79,31.87c-0.16,0.14-0.34,0.21-0.54,0.21c-0.28,0-0.5-0.11-0.65-0.32c-0.12-0.17-0.18-0.38-0.18-0.62
			c0-0.27,0.08-0.51,0.23-0.7c0.15-0.19,0.34-0.28,0.56-0.28c0.2,0,0.39,0.07,0.56,0.2l-0.11,0.16c-0.13-0.09-0.26-0.13-0.4-0.13
			c-0.18,0-0.32,0.07-0.42,0.22c-0.09,0.13-0.14,0.31-0.14,0.53c0,0.22,0.06,0.39,0.17,0.52c0.11,0.12,0.24,0.18,0.41,0.18
			c0.13,0,0.26-0.05,0.39-0.14L34.79,31.87z"/>
		<path class="st27" d="M35.65,30.2l0.26,0l0.67,1.85H36.3l-0.14-0.42H35.4l-0.14,0.42h-0.28L35.65,30.2z M35.78,30.53l-0.3,0.88
			h0.6L35.78,30.53z"/>
		<path class="st27" d="M36.88,32.05V30.2h0.27v1.63l0.72,0v0.22L36.88,32.05z"/>
		<path class="st27" d="M39.18,30.49c-0.13-0.07-0.27-0.1-0.4-0.1c-0.1,0-0.17,0.02-0.23,0.07c-0.06,0.04-0.09,0.1-0.09,0.17
			c0,0.12,0.08,0.22,0.24,0.27c0.24,0.09,0.41,0.18,0.52,0.28c0.1,0.1,0.15,0.22,0.15,0.36c0,0.17-0.07,0.31-0.2,0.41
			c-0.11,0.08-0.24,0.12-0.41,0.12c-0.19,0-0.39-0.07-0.6-0.2l0.12-0.17c0.13,0.08,0.28,0.12,0.46,0.12c0.24,0,0.36-0.1,0.36-0.3
			c0-0.16-0.1-0.27-0.3-0.34c-0.21-0.07-0.36-0.15-0.46-0.24c-0.1-0.09-0.14-0.19-0.14-0.32c0-0.15,0.06-0.27,0.17-0.36
			c0.11-0.08,0.24-0.12,0.41-0.12c0.19,0,0.37,0.05,0.53,0.16L39.18,30.49z"/>
	</g>
</g>
</svg>
