<?xml version="1.0" encoding="utf-8"?>
<!-- Generator: Adobe Illustrator 25.0.1, SVG Export Plug-In . SVG Version: 6.00 Build 0)  -->
<svg version="1.0" id="Layer_1" xmlns="http://www.w3.org/2000/svg" xmlns:xlink="http://www.w3.org/1999/xlink" x="0px" y="0px"
	 viewBox="0 0 70.49 62.62" style="enable-background:new 0 0 70.49 62.62;" xml:space="preserve">
<style type="text/css">
	.st0{fill:#000104;}
	.st1{fill:#FFFFFF;}
	.st2{fill:#EF493E;}
	.st3{opacity:0.6;fill-rule:evenodd;clip-rule:evenodd;fill:#FBBE43;}
	.st4{opacity:0.6;fill-rule:evenodd;clip-rule:evenodd;fill:#EF930E;}
	.st5{opacity:0.6;fill-rule:evenodd;clip-rule:evenodd;fill:#E67906;}
	.st6{fill:#9F8829;}
	.st7{fill:#3972A6;}
	.st8{fill:url(#SVGID_1_);stroke:#2B53A4;stroke-width:0.5;stroke-miterlimit:10;}
	.st9{fill:none;}
	.st10{fill:url(#SVGID_2_);}
	.st11{fill:url(#SVGID_3_);}
	.st12{fill:#B3B3B3;}
	.st13{fill:url(#SVGID_4_);}
	.st14{fill:url(#SVGID_5_);}
	.st15{fill:url(#SVGID_6_);}
	.st16{fill:#FFFFFF;stroke:#FFFFFF;stroke-width:0.25;stroke-miterlimit:10;}
	.st17{fill:#00001D;}
	.st18{fill:#4DA0C5;}
	.st19{fill:url(#SVGID_7_);}
	.st20{fill:#2E6A85;}
	.st21{fill:none;stroke:#144FA1;stroke-width:0.113;stroke-linejoin:round;stroke-miterlimit:10;}
	.st22{fill:#F27337;}
	.st23{fill:#8EB8D4;}
	.st24{fill:#F38056;}
	.st25{fill:#626365;}
	.st26{fill:#EF6D23;}
	.st27{fill:#284B82;}
	.st28{fill:#242956;}
	.st29{fill:#15142A;}
	.st30{fill:#84C343;}
	.st31{fill:#4CA1C6;}
	.st32{fill:#121617;}
	.st33{fill:#CF8966;}
	.st34{fill:#F37639;}
	.st35{opacity:0.3;fill:url(#SVGID_8_);}
	.st36{fill:#373277;}
	.st37{fill:#E61E25;}
	.st38{fill:#2555A5;}
	.st39{fill:#2E225E;}
	.st40{fill:#F8A425;}
	.st41{fill:#2058A7;}
	.st42{fill:none;stroke:#205AA8;stroke-width:0.156;stroke-miterlimit:10;}
	.st43{fill:#49A3C7;}
	.st44{fill-rule:evenodd;clip-rule:evenodd;}
	.st45{fill-rule:evenodd;clip-rule:evenodd;fill:url(#SVGID_9_);}
	.st46{fill-rule:evenodd;clip-rule:evenodd;fill:url(#SVGID_10_);}
	.st47{fill-rule:evenodd;clip-rule:evenodd;fill:url(#SVGID_11_);}
	.st48{fill:#1D2251;}
	.st49{fill:#2260AC;}
	.st50{fill:url(#SVGID_12_);}
	.st51{fill:#FFFFFC;}
	.st52{fill:#4C9FC5;}
	.st53{fill:#28306D;}
	.st54{fill:#4C9EC5;}
	.st55{fill:#28306E;}
	.st56{fill:#29306F;}
	.st57{fill:#F7F7FB;}
	.st58{fill:url(#SVGID_13_);}
	.st59{fill:url(#SVGID_14_);}
	.st60{fill:url(#SVGID_15_);}
	.st61{fill:url(#SVGID_16_);}
	.st62{fill:#10123C;}
	.st63{fill:#F5842C;}
	.st64{fill:#1F305E;}
	.st65{fill:#87BBD1;}
	.st66{fill:#203160;}
	.st67{fill:#235779;}
	.st68{fill:#359FA1;}
	.st69{fill:#A4D1A4;}
	.st70{fill:#B9DBBC;}
	.st71{fill:#C6DDCA;}
	.st72{fill:#662E14;}
	.st73{fill:#1D79A4;}
	.st74{fill:#C14B28;}
	.st75{fill:url(#SVGID_17_);}
	.st76{fill:url(#SVGID_18_);}
	.st77{fill:url(#SVGID_19_);}
	.st78{fill:url(#SVGID_20_);}
	.st79{fill:url(#SVGID_21_);}
	.st80{fill:url(#SVGID_22_);}
	.st81{fill:url(#SVGID_23_);}
	.st82{fill:url(#SVGID_24_);}
	.st83{fill:url(#SVGID_25_);}
	.st84{fill:url(#SVGID_26_);}
	.st85{fill:url(#SVGID_27_);}
	.st86{fill:url(#SVGID_28_);}
	.st87{fill:url(#SVGID_29_);}
	.st88{fill:url(#SVGID_30_);}
	.st89{fill:#1F164B;}
	.st90{clip-path:url(#SVGID_32_);fill:#253D97;}
	.st91{fill:url(#SVGID_33_);}
	.st92{fill:url(#SVGID_34_);}
	.st93{fill:url(#SVGID_35_);}
	.st94{fill:url(#SVGID_36_);}
	.st95{fill:url(#SVGID_37_);}
	.st96{fill:url(#SVGID_38_);}
	.st97{fill:url(#SVGID_39_);}
	.st98{fill:url(#SVGID_40_);}
	.st99{fill:url(#SVGID_41_);}
	.st100{fill:#443F41;}
	.st101{fill:#28306F;}
	.st102{fill:#71C49D;}
	.st103{fill:#F0C6A7;}
	.st104{fill:#DB8D82;}
	.st105{fill:#EFB7AC;}
	.st106{opacity:0.21;}
	.st107{fill-rule:evenodd;clip-rule:evenodd;fill:#A9196E;}
	.st108{fill-rule:evenodd;clip-rule:evenodd;fill:#FBE42C;}
	.st109{fill:#FBE42C;}
	.st110{fill:#A9196E;}
	.st111{fill:#7FC143;}
	.st112{clip-path:url(#SVGID_45_);fill:#7FC143;}
	.st113{clip-path:url(#SVGID_51_);fill:#7FC143;}
	.st114{fill:#243F8F;}
	.st115{fill:#EF4E2F;}
	.st116{fill:#010007;}
	.st117{fill:#0C0D37;}
	.st118{fill:#FBAF2D;}
	.st119{fill:url(#SVGID_54_);}
	.st120{fill-rule:evenodd;clip-rule:evenodd;fill:#FFFFFF;}
	.st121{fill:#1D4690;}
	.st122{fill:#3AA949;}
	.st123{fill:#F37A24;}
	.st124{fill:none;stroke:#F37A24;stroke-width:3.7145;stroke-miterlimit:10;}
	.st125{fill:#3AA949;stroke:#FFFFFF;stroke-width:1.3104;stroke-miterlimit:10;}
	.st126{fill:#46A2BB;}
	.st127{fill:#7153A0;}
	.st128{fill:#27316C;}
	.st129{fill:#2C65AE;}
	.st130{fill:#452D7A;}
	.st131{fill:#442C7A;}
	.st132{fill:#1A2642;}
	.st133{fill-rule:evenodd;clip-rule:evenodd;fill:#567EB8;}
	.st134{fill-rule:evenodd;clip-rule:evenodd;fill:#6A7EB8;}
	.st135{fill-rule:evenodd;clip-rule:evenodd;fill:#6A7EB9;}
	.st136{fill-rule:evenodd;clip-rule:evenodd;fill:#EE3C2D;}
	.st137{fill-rule:evenodd;clip-rule:evenodd;fill:#EF493F;}
	.st138{fill-rule:evenodd;clip-rule:evenodd;fill:#ED2C24;}
	.st139{fill-rule:evenodd;clip-rule:evenodd;fill:#E9AE28;}
	.st140{fill-rule:evenodd;clip-rule:evenodd;fill:#D69B28;}
	.st141{fill-rule:evenodd;clip-rule:evenodd;fill:#FCB729;}
	.st142{fill-rule:evenodd;clip-rule:evenodd;fill:#409E47;}
	.st143{fill-rule:evenodd;clip-rule:evenodd;fill:#4BB450;}
	.st144{fill-rule:evenodd;clip-rule:evenodd;fill:#338440;}
	.st145{fill:#C09C36;}
	.st146{fill:#1E552A;}
	.st147{clip-path:url(#SVGID_56_);fill:url(#SVGID_57_);}
	.st148{fill:#023A1E;}
	.st149{fill:#FFFFFA;}
	.st150{fill:#0D4F28;}
	.st151{fill:#0E5128;}
	.st152{fill:#0D4E27;}
	.st153{fill:#0E5229;}
	.st154{fill:#0E4823;}
	.st155{fill:#0E4C27;}
	.st156{fill:#F3F6E0;}
	.st157{fill:#0E4F28;}
	.st158{fill:#114823;}
	.st159{fill:#105229;}
	.st160{fill:#0A4A2B;}
	.st161{fill:#134F27;}
	.st162{fill:#165229;}
	.st163{fill:#0D5029;}
	.st164{fill:#0B4E2B;}
	.st165{fill:#105028;}
	.st166{fill:#0A492A;}
	.st167{fill:#E9F3E2;}
	.st168{fill:#144D26;}
	.st169{fill:#185C2F;}
	.st170{fill:#0F5028;}
	.st171{fill:#F3F8EA;}
	.st172{fill:#114D26;}
	.st173{fill:#70A685;}
	.st174{fill:#0D4F2A;}
	.st175{fill:#094A24;}
	.st176{fill:#0F4F27;}
	.st177{fill:#0A4C26;}
	.st178{fill:#A2D29A;}
	.st179{fill:#4D7E44;}
	.st180{fill:#E8F2E1;}
	.st181{fill:#EDF5E5;}
	.st182{fill:#E6F2E7;}
	.st183{fill:#E5F1DC;}
	.st184{fill:#E9F3E3;}
	.st185{fill:#E9F3E5;}
	.st186{fill:#E5F1DB;}
	.st187{fill:#D8ECD7;}
	.st188{fill:#D9EBD4;}
	.st189{fill:#E2F0DE;}
	.st190{fill:#366B4B;}
	.st191{fill:#5D6162;}
	.st192{fill:#212E5F;}
	.st193{fill:#DD1F26;}
	.st194{clip-path:url(#SVGID_59_);}
	.st195{fill:#23396F;}
	.st196{fill:#7FC24E;}
	.st197{clip-path:url(#SVGID_59_);fill:#23396F;}
	.st198{clip-path:url(#SVGID_59_);fill:#7FC24E;}
	.st199{fill:#91CEA4;}
	.st200{fill:#90CEA4;}
	.st201{fill:#C02026;}
	.st202{fill:#362E7E;}
</style>
<g>
	<defs>
		<rect id="SVGID_31_" x="5.57" y="3.93" width="63.38" height="53.28"/>
	</defs>
	<clipPath id="SVGID_1_">
		<use xlink:href="#SVGID_31_"  style="overflow:visible;"/>
	</clipPath>
	<path style="clip-path:url(#SVGID_1_);fill:#253D97;" d="M61.13,54.62c0,0.3-0.07,0.55-0.23,0.73c-0.15,0.18-0.33,0.27-0.54,0.27
		c-0.21,0-0.39-0.11-0.54-0.32c-0.15-0.22-0.23-0.48-0.23-0.78h0.28l0.24,0.21l0.05,0.08l0.2,0.12l0.2-0.07l0.08-0.24
		c0-0.17-0.18-0.37-0.53-0.6c-0.35-0.23-0.53-0.57-0.53-1.01c0-0.31,0.08-0.56,0.23-0.76c0.15-0.2,0.33-0.3,0.54-0.3
		c0.21,0,0.39,0.11,0.54,0.33c0.15,0.21,0.23,0.48,0.23,0.78h-0.25c-0.12,0-0.21-0.08-0.28-0.23l-0.05-0.07l-0.22-0.12l-0.19,0.09
		l-0.09,0.26v0.01c0,0.2,0.18,0.4,0.53,0.6C60.95,53.82,61.13,54.15,61.13,54.62 M58.7,52.96l-0.08-0.3l-0.2-0.12l-0.2,0.12
		l-0.09,0.3v0.38h0.58V52.96z M58.12,54.04v0.46l0.08,0.29l0.21,0.13l0.2-0.12l0.04-0.06c0.08-0.15,0.17-0.23,0.29-0.23h0.24
		c0,0.31-0.07,0.57-0.23,0.78c-0.15,0.22-0.33,0.32-0.54,0.32c-0.21,0-0.39-0.1-0.54-0.31c-0.15-0.24-0.23-0.51-0.23-0.81v-1.51
		c0-0.3,0.08-0.57,0.23-0.81c0.15-0.21,0.33-0.32,0.54-0.32c0.21,0,0.39,0.11,0.54,0.32c0.15,0.22,0.23,0.48,0.23,0.79v1.07H58.12z
		 M57.23,51.96v3.18l-0.1,0.34l-0.23,0.14h-0.15v-3.17l0.1-0.34l0.24-0.14H57.23z M57.24,51.21l-0.07,0.25l-0.18,0.11l-0.18-0.11
		l-0.07-0.25l0.07-0.26l0.18-0.11l0.18,0.11L57.24,51.21 M55.94,53.07v2.07l-0.1,0.34l-0.24,0.14h-0.15v-3.65h0.15l0.22,0.17
		c0.12-0.11,0.26-0.17,0.4-0.17h0.1v0.69h-0.09l-0.2,0.11L55.94,53.07 M54.29,51.96v-0.91h0.15l0.24,0.14l0.1,0.34v0.43h0.29v0.69
		h-0.29v1.85l0.07,0.27l0.08,0.1c0.1,0.1,0.14,0.23,0.14,0.39v0.36c-0.21,0-0.39-0.11-0.55-0.32c-0.15-0.22-0.22-0.48-0.22-0.78
		v-1.85h-0.28v-0.69H54.29z M53.6,54.62c0,0.3-0.08,0.55-0.23,0.73c-0.15,0.18-0.33,0.27-0.54,0.27c-0.21,0-0.39-0.11-0.54-0.32
		c-0.15-0.22-0.23-0.48-0.23-0.78h0.28l0.24,0.21l0.05,0.08l0.2,0.12l0.2-0.07l0.08-0.24c0-0.17-0.18-0.37-0.53-0.6
		c-0.35-0.23-0.53-0.57-0.53-1.01c0-0.31,0.08-0.56,0.23-0.76c0.15-0.2,0.33-0.3,0.54-0.3c0.21,0,0.39,0.11,0.54,0.33
		c0.15,0.21,0.23,0.48,0.23,0.78h-0.25c-0.11,0-0.21-0.08-0.28-0.23l-0.04-0.07l-0.21-0.12l-0.19,0.09l-0.09,0.26v0.01
		c0,0.2,0.18,0.4,0.53,0.6C53.42,53.82,53.6,54.15,53.6,54.62 M51.29,55.45c-0.12,0.11-0.25,0.16-0.4,0.16
		c-0.21,0-0.39-0.1-0.54-0.31c-0.15-0.24-0.23-0.51-0.23-0.81v-2.53h0.15l0.24,0.14l0.1,0.34v2.06l0.09,0.29l0.2,0.12l0.21-0.13
		l0.08-0.29v-2.06l0.1-0.34l0.24-0.14h0.15v3.65H51.5L51.29,55.45 M49.14,52.77l-0.2-0.12l-0.2,0.12l-0.09,0.29v1.44l0.09,0.29
		l0.2,0.12l0.2-0.12l0.08-0.29v-1.45L49.14,52.77 M49.71,55.61h-0.15l-0.22-0.16c-0.12,0.11-0.25,0.16-0.4,0.16
		c-0.21,0-0.4-0.11-0.55-0.32c-0.15-0.22-0.22-0.48-0.22-0.78l0-1.44c0-0.3,0.08-0.57,0.22-0.78c0.15-0.22,0.33-0.33,0.55-0.33
		l0.28,0.08v-0.51l0.1-0.34l0.23-0.14h0.15V55.61z M46.59,52.12c0.12-0.11,0.26-0.17,0.41-0.17c0.21,0,0.39,0.11,0.54,0.33
		c0.15,0.21,0.23,0.48,0.23,0.78v2.55h-0.15l-0.24-0.14l-0.1-0.34v-2.07l-0.08-0.29l-0.2-0.12l-0.2,0.12l-0.09,0.29v2.07l-0.1,0.34
		l-0.24,0.14h-0.15l0-3.65h0.15L46.59,52.12 M45.82,51.05v4.09l-0.1,0.34l-0.23,0.14h-0.15v-4.09l0.1-0.34l0.23-0.14H45.82z
		 M43.91,51.05v4.09l-0.1,0.34l-0.23,0.14h-0.15v-4.09l0.1-0.34l0.24-0.14H43.91z M42.54,54.45v-0.5l-0.39,0.11
		c-0.13,0.09-0.19,0.22-0.19,0.39c0,0.15,0.03,0.27,0.09,0.35l0.2,0.12l0.2-0.12C42.51,54.72,42.54,54.6,42.54,54.45 M42.54,53.24
		v-0.28l-0.08-0.29l-0.21-0.13l-0.2,0.11l0,0c-0.14,0.2-0.3,0.3-0.49,0.3h-0.08c0-0.31,0.07-0.57,0.22-0.78
		c0.15-0.22,0.33-0.33,0.55-0.33c0.21,0,0.39,0.11,0.54,0.33c0.15,0.21,0.23,0.47,0.23,0.78v2.6h-0.09l-0.24-0.14
		c-0.13,0.13-0.27,0.2-0.44,0.2c-0.21,0-0.39-0.11-0.55-0.32c-0.15-0.22-0.22-0.5-0.22-0.84c0-0.55,0.2-0.91,0.58-1.08L42.54,53.24z
		 M40.02,54.51l0.09,0.29l0.2,0.12l0.21-0.13l0.08-0.29l0.03-0.09l0.07-0.04h0.39v0.14c0,0.31-0.07,0.57-0.23,0.78
		c-0.15,0.22-0.33,0.32-0.54,0.32c-0.21,0-0.39-0.1-0.54-0.31c-0.16-0.24-0.23-0.51-0.23-0.81v-1.4c0-0.3,0.08-0.57,0.23-0.81
		c0.15-0.21,0.33-0.32,0.54-0.32c0.21,0,0.4,0.11,0.54,0.33c0.15,0.21,0.23,0.48,0.23,0.78v0.13h-0.39l-0.07-0.04l-0.03-0.09
		l-0.08-0.29l-0.2-0.12l-0.2,0.12l-0.09,0.29V54.51z M39.12,51.96v3.18l-0.1,0.34l-0.24,0.14h-0.15v-3.17l0.1-0.34l0.24-0.14H39.12z
		 M39.13,51.21l-0.07,0.25l-0.18,0.11l-0.18-0.11l-0.07-0.25l0.07-0.26l0.18-0.11l0.18,0.11L39.13,51.21 M37.45,51.96v-0.91h0.15
		l0.23,0.14l0.1,0.34v0.43h0.29v0.69h-0.29v1.85L38,54.77l0.08,0.1c0.1,0.1,0.15,0.23,0.15,0.39v0.36c-0.21,0-0.4-0.11-0.55-0.32
		c-0.15-0.22-0.23-0.48-0.23-0.78v-1.85h-0.28l0-0.69H37.45z M36.4,55.45c-0.12,0.11-0.25,0.16-0.4,0.16c-0.21,0-0.39-0.1-0.54-0.31
		c-0.15-0.24-0.23-0.51-0.23-0.81v-2.53h0.15l0.24,0.14l0.1,0.34v2.06l0.09,0.29l0.2,0.12l0.21-0.13l0.08-0.29v-2.06l0.1-0.34
		l0.24-0.14h0.15v3.65h-0.15L36.4,55.45 M34.34,52.96l-0.08-0.3l-0.2-0.12l-0.2,0.12l-0.09,0.3v0.38h0.58V52.96z M33.76,54.04v0.46
		l0.08,0.29l0.21,0.13l0.2-0.12l0.04-0.06c0.07-0.15,0.17-0.23,0.29-0.23h0.24c0,0.31-0.07,0.57-0.23,0.78
		c-0.15,0.22-0.33,0.32-0.54,0.32c-0.21,0-0.39-0.1-0.54-0.31c-0.15-0.24-0.23-0.51-0.23-0.81v-1.51c0-0.3,0.08-0.57,0.23-0.81
		c0.15-0.21,0.33-0.32,0.54-0.32c0.21,0,0.4,0.11,0.54,0.32c0.15,0.22,0.23,0.48,0.23,0.79v1.07L33.76,54.04z M31.82,54.51
		l0.09,0.29l0.2,0.12l0.21-0.13l0.08-0.29l0.03-0.09l0.07-0.04h0.39v0.14c0,0.31-0.07,0.57-0.23,0.78
		c-0.15,0.22-0.33,0.32-0.54,0.32c-0.21,0-0.39-0.1-0.54-0.31c-0.15-0.24-0.23-0.51-0.23-0.81v-1.4c0-0.3,0.08-0.57,0.23-0.81
		c0.15-0.21,0.33-0.32,0.54-0.32c0.21,0,0.39,0.11,0.54,0.33c0.15,0.21,0.23,0.48,0.23,0.78v0.13h-0.39l-0.07-0.04l-0.03-0.09
		l-0.08-0.29l-0.2-0.12l-0.2,0.12l-0.09,0.29V54.51z M30.45,54.45v-0.5l-0.38,0.11c-0.13,0.09-0.19,0.22-0.19,0.39
		c0,0.15,0.03,0.27,0.09,0.35l0.2,0.12l0.2-0.12C30.42,54.72,30.45,54.6,30.45,54.45 M30.45,53.24v-0.28l-0.08-0.29l-0.21-0.13
		l-0.2,0.11l0,0c-0.14,0.2-0.3,0.3-0.49,0.3h-0.08c0-0.31,0.08-0.57,0.22-0.78c0.15-0.22,0.33-0.33,0.55-0.33
		c0.21,0,0.39,0.11,0.54,0.33c0.15,0.21,0.23,0.47,0.23,0.78l0,2.6h-0.09l-0.24-0.14c-0.13,0.13-0.28,0.2-0.44,0.2
		c-0.21,0-0.39-0.11-0.55-0.32c-0.15-0.22-0.22-0.5-0.22-0.84c0-0.55,0.2-0.91,0.58-1.08L30.45,53.24z M26.39,51.96h0.15l0.21,0.17
		c0.12-0.11,0.26-0.17,0.41-0.17c0.21,0,0.38,0.1,0.53,0.31c0.15-0.21,0.33-0.31,0.53-0.31c0.21,0,0.4,0.11,0.55,0.33
		c0.15,0.21,0.22,0.48,0.22,0.78v2.55h-0.15l-0.24-0.14l-0.1-0.34l0-2.07l-0.09-0.29l-0.2-0.12l-0.2,0.12l-0.08,0.29v2.07l-0.1,0.34
		l-0.24,0.14h-0.15l0-2.55l-0.08-0.29l-0.2-0.12l-0.2,0.12l-0.09,0.29l0,2.07l-0.1,0.34l-0.24,0.14h-0.15V51.96z M25.6,53.07v2.07
		l-0.1,0.34l-0.24,0.14h-0.14v-3.65h0.15l0.21,0.17l0.41-0.17h0.1v0.69h-0.09l-0.2,0.11L25.6,53.07 M24.23,54.45v-0.5l-0.39,0.11
		c-0.13,0.09-0.19,0.22-0.19,0.39c0,0.15,0.03,0.27,0.09,0.35l0.2,0.12l0.2-0.12C24.2,54.72,24.23,54.6,24.23,54.45 M24.23,53.24
		v-0.28l-0.08-0.29l-0.21-0.13l-0.2,0.11l0,0c-0.14,0.2-0.3,0.3-0.49,0.3h-0.08c0-0.31,0.08-0.57,0.22-0.78
		c0.15-0.22,0.33-0.33,0.54-0.33c0.21,0,0.39,0.11,0.54,0.33c0.15,0.21,0.23,0.47,0.23,0.78v2.6h-0.09l-0.24-0.14
		c-0.13,0.13-0.28,0.2-0.44,0.2c-0.21,0-0.39-0.11-0.54-0.32c-0.15-0.22-0.22-0.5-0.22-0.84c0-0.55,0.2-0.91,0.58-1.08L24.23,53.24z
		 M21.7,52.04l0.29-0.08c0.21,0,0.39,0.1,0.54,0.3c0.15,0.2,0.23,0.47,0.23,0.81v2.55h-0.15l-0.24-0.14l-0.1-0.34v-2.07l-0.08-0.29
		l-0.2-0.12l-0.2,0.12l-0.09,0.29v2.07l-0.1,0.34l-0.24,0.14h-0.15v-4.57h0.15l0.24,0.14l0.1,0.34V52.04z M20.05,53.82l0.2-0.12
		l0.08-0.29v-1.24l-0.08-0.29l-0.21-0.12h-0.29l0,2.08H20.05z M20.05,51.05c0.21,0,0.4,0.11,0.54,0.32
		c0.15,0.22,0.23,0.48,0.23,0.78v1.24c0,0.31-0.08,0.57-0.23,0.78c-0.15,0.22-0.33,0.32-0.54,0.32h-0.29v0.63l-0.1,0.34l-0.24,0.14
		h-0.15l0-4.57H20.05z M17.47,53.07v2.07l-0.1,0.34l-0.23,0.14h-0.15l0-3.65h0.15l0.22,0.17c0.12-0.11,0.25-0.17,0.4-0.17h0.09v0.69
		h-0.09l-0.2,0.11L17.47,53.07 M15.52,54.51l0.09,0.29l0.2,0.12l0.2-0.12l0.08-0.29v-1.45l-0.08-0.29l-0.2-0.12l-0.2,0.12
		l-0.09,0.29L15.52,54.51z M15.04,53.06c0-0.3,0.07-0.57,0.22-0.78c0.15-0.22,0.33-0.32,0.55-0.32c0.21,0,0.39,0.11,0.54,0.32
		c0.15,0.21,0.23,0.48,0.23,0.78l0,1.45c0,0.31-0.07,0.57-0.23,0.78c-0.15,0.22-0.33,0.32-0.54,0.32c-0.21,0-0.39-0.11-0.54-0.32
		c-0.15-0.22-0.23-0.48-0.23-0.78L15.04,53.06z M13.38,51.05h1.25v0.21l-0.1,0.34l-0.24,0.14h-0.44v1.38h0.58v0.21l-0.1,0.34
		l-0.24,0.14h-0.25v1.32l-0.1,0.34l-0.24,0.14h-0.15L13.38,51.05z"/>
	<path style="clip-path:url(#SVGID_1_);fill:#253D97;" d="M7.21,5.54c0,0,43.8,13.68,21.9,31.27C29.11,36.81,74.65,20.2,7.21,5.54"
		/>
	<path style="clip-path:url(#SVGID_1_);fill:#253D97;" d="M24.12,7.45c0,0,38.45,12.01,19.22,27.45
		C43.34,34.9,83.31,20.32,24.12,7.45"/>
	<path style="clip-path:url(#SVGID_1_);fill:#253D97;" d="M38.81,9.11c0,0,33.79,10.56,16.9,24.13
		C55.7,33.24,90.83,20.42,38.81,9.11"/>
	<path style="clip-path:url(#SVGID_1_);fill:#253D97;" d="M17.86,45.82l-0.34,2.1l-4.82,0v-0.27c0.28,0,0.47-0.06,0.57-0.19
		c0.07-0.09,0.11-0.29,0.11-0.59l0-5.69c0-0.38-0.09-0.6-0.28-0.64l-0.4-0.06v-0.27h4.49l0.4,1.84h-0.21
		c-0.27-0.59-0.51-0.98-0.7-1.18c-0.26-0.26-0.61-0.39-1.05-0.39h-1.31l0,3.32h0.69c0.33,0,0.58-0.07,0.74-0.2
		c0.26-0.21,0.42-0.61,0.47-1.2h0.15l0,3.24h-0.15c-0.06-0.58-0.18-0.98-0.37-1.19c-0.19-0.21-0.47-0.31-0.84-0.31h-0.69v2.81
		c0,0.27,0.04,0.45,0.13,0.55c0.08,0.1,0.25,0.15,0.49,0.15l0.94,0c0.39,0,0.74-0.17,1.04-0.52c0.27-0.31,0.51-0.74,0.74-1.31H17.86
		z"/>
	<path style="clip-path:url(#SVGID_1_);fill:#253D97;" d="M25.94,44.6c-0.33,0.12-0.5,0.19-0.51,0.2c-0.11,0.11-0.17,0.39-0.17,0.85
		v1.59c-0.29,0.25-0.59,0.46-0.88,0.61c-0.46,0.25-0.91,0.37-1.34,0.37c-1.03,0-1.84-0.42-2.41-1.26c-0.48-0.72-0.72-1.56-0.72-2.53
		c0-1.43,0.34-2.53,1.03-3.29c0.6-0.67,1.36-1,2.3-1c0.3,0,0.59,0.08,0.88,0.23c0.29,0.15,0.56,0.37,0.81,0.64l0.34-0.61h0.13
		l0.07,2.36H25.2c-0.11-0.64-0.34-1.18-0.68-1.59c-0.37-0.45-0.8-0.67-1.3-0.67c-0.74,0-1.34,0.4-1.78,1.2
		c-0.4,0.72-0.59,1.59-0.59,2.62c0,0.98,0.18,1.79,0.53,2.43c0.4,0.73,0.95,1.1,1.65,1.1c0.41,0,0.74-0.13,0.98-0.39
		c0.24-0.26,0.36-0.63,0.36-1.1l0-0.79c0-0.4-0.04-0.65-0.11-0.74c-0.07-0.1-0.3-0.17-0.69-0.21v-0.27l2.36,0V44.6z"/>
	<path style="clip-path:url(#SVGID_1_);fill:#253D97;" d="M32.72,40.48l-0.34,0.18c-0.09,0.12-0.22,0.38-0.39,0.78l-1.38,2.81
		l0,2.45c0,0.38,0.04,0.63,0.12,0.76c0.08,0.13,0.27,0.19,0.57,0.19v0.27h-2.24v-0.27c0.3-0.03,0.47-0.08,0.53-0.15
		c0.05-0.07,0.08-0.25,0.08-0.54v-2.53l-1.36-3.06c-0.14-0.32-0.27-0.54-0.37-0.66c-0.13-0.14-0.28-0.21-0.44-0.21v-0.27h2.24v0.27
		c-0.24,0-0.41,0.03-0.51,0.08l-0.15,0.22l0.03,0.16l0.09,0.24l1.29,2.81l1.3-2.72l0.07-0.33c0-0.31-0.21-0.46-0.62-0.46v-0.27h1.49
		V40.48z"/>
	<path style="clip-path:url(#SVGID_1_);fill:#253D97;" d="M41.6,45.82c0,0.77-0.22,1.34-0.65,1.72c-0.36,0.32-0.82,0.47-1.38,0.47
		c-0.36,0-0.66-0.05-0.91-0.16c-0.25-0.11-0.47-0.26-0.67-0.46l-0.34,0.43h-0.13v-2.36h0.27c0,0.67,0.18,1.22,0.55,1.66
		c0.34,0.41,0.72,0.61,1.16,0.61c0.34,0,0.61-0.08,0.81-0.26c0.31-0.28,0.47-0.74,0.47-1.4c0-0.53-0.25-0.92-0.76-1.17
		c-0.51-0.25-1.01-0.49-1.49-0.73c-0.53-0.41-0.8-1.06-0.8-1.96c0-0.66,0.2-1.2,0.61-1.62c0.37-0.38,0.82-0.58,1.35-0.58
		c0.26,0,0.5,0.06,0.71,0.19c0.16,0.09,0.38,0.27,0.66,0.52l0.19-0.35h0.14v2.36h-0.14c-0.1-0.79-0.28-1.4-0.55-1.82
		c-0.27-0.42-0.63-0.62-1.07-0.62c-0.32,0-0.6,0.17-0.84,0.52c-0.24,0.35-0.35,0.73-0.35,1.14c0,0.62,0.27,1.07,0.81,1.34
		c0.51,0.23,1.02,0.46,1.53,0.68C41.33,44.36,41.6,44.97,41.6,45.82"/>
	<path style="clip-path:url(#SVGID_1_);fill:#253D97;" d="M49.8,42.14l-0.13,0.08L49.05,41c-0.08-0.17-0.18-0.28-0.29-0.34
		c-0.11-0.06-0.27-0.09-0.46-0.09h-1.28l0,6.29c0,0.37,0.06,0.6,0.18,0.69c0.09,0.06,0.32,0.09,0.69,0.09v0.27h-2.58v-0.27
		c0.35,0,0.58-0.06,0.68-0.18c0.1-0.12,0.14-0.35,0.14-0.68l0-6.21h-1.3c-0.28,0-0.48,0.04-0.59,0.13c-0.11,0.09-0.25,0.3-0.42,0.65
		l-0.41,0.87l-0.13-0.08l0.28-2.11c0.22,0.06,0.39,0.11,0.52,0.13c0.13,0.03,0.3,0.04,0.5,0.04h3.86c0.24,0,0.43-0.01,0.58-0.04
		c0.14-0.02,0.29-0.1,0.44-0.22L49.8,42.14z"/>
	<path style="clip-path:url(#SVGID_1_);fill:#253D97;" d="M56.71,45.82l-0.34,2.1h-4.82v-0.27c0.28,0,0.47-0.06,0.57-0.19
		c0.07-0.09,0.11-0.29,0.11-0.59l0-5.69c0-0.38-0.09-0.6-0.28-0.64l-0.4-0.06v-0.27l4.49,0l0.4,1.84h-0.21
		c-0.27-0.59-0.51-0.98-0.7-1.18c-0.26-0.26-0.61-0.39-1.05-0.39h-1.31v3.32h0.69c0.33,0,0.58-0.07,0.74-0.2
		c0.26-0.21,0.42-0.61,0.47-1.2h0.14v3.24h-0.14c-0.06-0.58-0.18-0.98-0.37-1.19c-0.19-0.21-0.47-0.31-0.84-0.31h-0.69v2.81
		c0,0.27,0.04,0.45,0.13,0.55c0.08,0.1,0.25,0.15,0.49,0.15h0.94c0.39,0,0.74-0.17,1.04-0.52c0.27-0.31,0.51-0.74,0.74-1.31H56.71z"
		/>
	<path style="clip-path:url(#SVGID_1_);fill:#253D97;" d="M62.28,42.4c0-0.7-0.16-1.21-0.47-1.55c-0.24-0.25-0.54-0.38-0.9-0.38
		c-0.35,0-0.58,0.06-0.67,0.17c-0.09,0.11-0.14,0.38-0.14,0.78v2.89h0.81c0.47,0,0.81-0.16,1.04-0.49
		C62.17,43.5,62.28,43.02,62.28,42.4 M63.22,42.4c0,0.79-0.23,1.37-0.69,1.74c-0.36,0.3-0.83,0.45-1.4,0.45l-1.03,0v2.1
		c0,0.42,0.05,0.69,0.16,0.79c0.11,0.11,0.33,0.16,0.65,0.16v0.27h-2.24v-0.27c0.24,0,0.39-0.04,0.45-0.13
		c0.06-0.08,0.09-0.25,0.09-0.5v-5.67c0-0.35-0.02-0.57-0.07-0.65c-0.05-0.08-0.16-0.12-0.33-0.12h-0.28v-0.36h2.52
		c0.72,0,1.27,0.24,1.67,0.73C63.06,41.35,63.22,41.84,63.22,42.4"/>
</g>
</svg>
