<?xml version="1.0" encoding="utf-8"?>
<!-- Generator: Adobe Illustrator 25.0.1, SVG Export Plug-In . SVG Version: 6.00 Build 0)  -->
<svg version="1.0" id="Layer_1" xmlns="http://www.w3.org/2000/svg" xmlns:xlink="http://www.w3.org/1999/xlink" x="0px" y="0px"
	 viewBox="0 0 53.47 42.32" style="enable-background:new 0 0 53.47 42.32;" xml:space="preserve">
<style type="text/css">
	.st0{fill:#000104;}
	.st1{fill:#FFFFFF;}
	.st2{fill:#EF493E;}
	.st3{opacity:0.6;fill-rule:evenodd;clip-rule:evenodd;fill:#FBBE43;}
	.st4{opacity:0.6;fill-rule:evenodd;clip-rule:evenodd;fill:#EF930E;}
	.st5{opacity:0.6;fill-rule:evenodd;clip-rule:evenodd;fill:#E67906;}
	.st6{fill:#9F8829;}
	.st7{fill:#3972A6;}
	.st8{fill:url(#SVGID_1_);stroke:#2B53A4;stroke-width:0.5;stroke-miterlimit:10;}
	.st9{fill:none;}
	.st10{fill:url(#SVGID_2_);}
	.st11{fill:url(#SVGID_3_);}
	.st12{fill:#B3B3B3;}
	.st13{fill:url(#SVGID_4_);}
	.st14{fill:url(#SVGID_5_);}
	.st15{fill:url(#SVGID_6_);}
	.st16{fill:#FFFFFF;stroke:#FFFFFF;stroke-width:0.25;stroke-miterlimit:10;}
	.st17{fill:#00001D;}
	.st18{fill:#4DA0C5;}
	.st19{fill:url(#SVGID_7_);}
	.st20{fill:#2E6A85;}
	.st21{fill:none;stroke:#144FA1;stroke-width:0.113;stroke-linejoin:round;stroke-miterlimit:10;}
	.st22{fill:#F27337;}
	.st23{fill:#8EB8D4;}
	.st24{fill:#F38056;}
	.st25{fill:#626365;}
	.st26{fill:#EF6D23;}
	.st27{fill:#284B82;}
	.st28{fill:#242956;}
	.st29{fill:#15142A;}
	.st30{fill:#84C343;}
	.st31{fill:#4CA1C6;}
	.st32{fill:#121617;}
	.st33{fill:#CF8966;}
	.st34{fill:#F37639;}
	.st35{opacity:0.3;fill:url(#SVGID_8_);}
	.st36{fill:#373277;}
	.st37{fill:#E61E25;}
	.st38{fill:#2555A5;}
	.st39{fill:#2E225E;}
	.st40{fill:#F8A425;}
	.st41{fill:#2058A7;}
	.st42{fill:none;stroke:#205AA8;stroke-width:0.156;stroke-miterlimit:10;}
	.st43{fill:#49A3C7;}
	.st44{fill-rule:evenodd;clip-rule:evenodd;}
	.st45{fill-rule:evenodd;clip-rule:evenodd;fill:url(#SVGID_9_);}
	.st46{fill-rule:evenodd;clip-rule:evenodd;fill:url(#SVGID_10_);}
	.st47{fill-rule:evenodd;clip-rule:evenodd;fill:url(#SVGID_11_);}
	.st48{fill:#1D2251;}
	.st49{fill:#2260AC;}
	.st50{fill:url(#SVGID_12_);}
	.st51{fill:#FFFFFC;}
	.st52{fill:#4C9FC5;}
	.st53{fill:#28306D;}
	.st54{fill:#4C9EC5;}
	.st55{fill:#28306E;}
	.st56{fill:#29306F;}
	.st57{fill:#F7F7FB;}
	.st58{fill:url(#SVGID_13_);}
	.st59{fill:url(#SVGID_14_);}
	.st60{fill:url(#SVGID_15_);}
	.st61{fill:url(#SVGID_16_);}
	.st62{fill:#10123C;}
	.st63{fill:#F5842C;}
	.st64{fill:#1F305E;}
	.st65{fill:#87BBD1;}
	.st66{fill:#203160;}
	.st67{fill:#235779;}
	.st68{fill:#359FA1;}
	.st69{fill:#A4D1A4;}
	.st70{fill:#B9DBBC;}
	.st71{fill:#C6DDCA;}
	.st72{fill:#662E14;}
	.st73{fill:#1D79A4;}
	.st74{fill:#C14B28;}
	.st75{fill:url(#SVGID_17_);}
	.st76{fill:url(#SVGID_18_);}
	.st77{fill:url(#SVGID_19_);}
	.st78{fill:url(#SVGID_20_);}
	.st79{fill:url(#SVGID_21_);}
	.st80{fill:url(#SVGID_22_);}
	.st81{fill:url(#SVGID_23_);}
	.st82{fill:url(#SVGID_24_);}
	.st83{fill:url(#SVGID_25_);}
	.st84{fill:url(#SVGID_26_);}
	.st85{fill:url(#SVGID_27_);}
	.st86{fill:url(#SVGID_28_);}
	.st87{fill:url(#SVGID_29_);}
	.st88{fill:url(#SVGID_30_);}
	.st89{fill:#1F164B;}
	.st90{clip-path:url(#SVGID_32_);fill:#253D97;}
	.st91{fill:url(#SVGID_33_);}
	.st92{fill:url(#SVGID_34_);}
	.st93{fill:url(#SVGID_35_);}
	.st94{fill:url(#SVGID_36_);}
	.st95{fill:url(#SVGID_37_);}
	.st96{fill:url(#SVGID_38_);}
	.st97{fill:url(#SVGID_39_);}
	.st98{fill:url(#SVGID_40_);}
	.st99{fill:url(#SVGID_41_);}
	.st100{fill:#443F41;}
	.st101{fill:#28306F;}
	.st102{fill:#71C49D;}
	.st103{fill:#F0C6A7;}
	.st104{fill:#DB8D82;}
	.st105{fill:#EFB7AC;}
	.st106{opacity:0.21;}
	.st107{fill-rule:evenodd;clip-rule:evenodd;fill:#A9196E;}
	.st108{fill-rule:evenodd;clip-rule:evenodd;fill:#FBE42C;}
	.st109{fill:#FBE42C;}
	.st110{fill:#A9196E;}
	.st111{fill:#7FC143;}
	.st112{clip-path:url(#SVGID_45_);fill:#7FC143;}
	.st113{clip-path:url(#SVGID_51_);fill:#7FC143;}
	.st114{fill:#243F8F;}
	.st115{fill:#EF4E2F;}
	.st116{fill:#010007;}
	.st117{fill:#0C0D37;}
	.st118{fill:#FBAF2D;}
	.st119{fill:url(#SVGID_54_);}
	.st120{fill-rule:evenodd;clip-rule:evenodd;fill:#FFFFFF;}
	.st121{fill:#1D4690;}
	.st122{fill:#3AA949;}
	.st123{fill:#F37A24;}
	.st124{fill:none;stroke:#F37A24;stroke-width:3.7145;stroke-miterlimit:10;}
	.st125{fill:#3AA949;stroke:#FFFFFF;stroke-width:1.3104;stroke-miterlimit:10;}
	.st126{fill:#46A2BB;}
	.st127{fill:#7153A0;}
	.st128{fill:#27316C;}
	.st129{fill:#2C65AE;}
	.st130{fill:#452D7A;}
	.st131{fill:#442C7A;}
	.st132{fill:#1A2642;}
	.st133{fill-rule:evenodd;clip-rule:evenodd;fill:#567EB8;}
	.st134{fill-rule:evenodd;clip-rule:evenodd;fill:#6A7EB8;}
	.st135{fill-rule:evenodd;clip-rule:evenodd;fill:#6A7EB9;}
	.st136{fill-rule:evenodd;clip-rule:evenodd;fill:#EE3C2D;}
	.st137{fill-rule:evenodd;clip-rule:evenodd;fill:#EF493F;}
	.st138{fill-rule:evenodd;clip-rule:evenodd;fill:#ED2C24;}
	.st139{fill-rule:evenodd;clip-rule:evenodd;fill:#E9AE28;}
	.st140{fill-rule:evenodd;clip-rule:evenodd;fill:#D69B28;}
	.st141{fill-rule:evenodd;clip-rule:evenodd;fill:#FCB729;}
	.st142{fill-rule:evenodd;clip-rule:evenodd;fill:#409E47;}
	.st143{fill-rule:evenodd;clip-rule:evenodd;fill:#4BB450;}
	.st144{fill-rule:evenodd;clip-rule:evenodd;fill:#338440;}
	.st145{fill:#C09C36;}
	.st146{fill:#1E552A;}
	.st147{clip-path:url(#SVGID_56_);fill:url(#SVGID_57_);}
	.st148{fill:#023A1E;}
	.st149{fill:#FFFFFA;}
	.st150{fill:#0D4F28;}
	.st151{fill:#0E5128;}
	.st152{fill:#0D4E27;}
	.st153{fill:#0E5229;}
	.st154{fill:#0E4823;}
	.st155{fill:#0E4C27;}
	.st156{fill:#F3F6E0;}
	.st157{fill:#0E4F28;}
	.st158{fill:#114823;}
	.st159{fill:#105229;}
	.st160{fill:#0A4A2B;}
	.st161{fill:#134F27;}
	.st162{fill:#165229;}
	.st163{fill:#0D5029;}
	.st164{fill:#0B4E2B;}
	.st165{fill:#105028;}
	.st166{fill:#0A492A;}
	.st167{fill:#E9F3E2;}
	.st168{fill:#144D26;}
	.st169{fill:#185C2F;}
	.st170{fill:#0F5028;}
	.st171{fill:#F3F8EA;}
	.st172{fill:#114D26;}
	.st173{fill:#70A685;}
	.st174{fill:#0D4F2A;}
	.st175{fill:#094A24;}
	.st176{fill:#0F4F27;}
	.st177{fill:#0A4C26;}
	.st178{fill:#A2D29A;}
	.st179{fill:#4D7E44;}
	.st180{fill:#E8F2E1;}
	.st181{fill:#EDF5E5;}
	.st182{fill:#E6F2E7;}
	.st183{fill:#E5F1DC;}
	.st184{fill:#E9F3E3;}
	.st185{fill:#E9F3E5;}
	.st186{fill:#E5F1DB;}
	.st187{fill:#D8ECD7;}
	.st188{fill:#D9EBD4;}
	.st189{fill:#E2F0DE;}
	.st190{fill:#366B4B;}
	.st191{fill:#5D6162;}
	.st192{fill:#212E5F;}
	.st193{fill:#DD1F26;}
	.st194{clip-path:url(#SVGID_59_);}
	.st195{fill:#23396F;}
	.st196{fill:#7FC24E;}
	.st197{clip-path:url(#SVGID_59_);fill:#23396F;}
	.st198{clip-path:url(#SVGID_59_);fill:#7FC24E;}
	.st199{fill:#91CEA4;}
	.st200{fill:#90CEA4;}
	.st201{fill:#C02026;}
	.st202{fill:#362E7E;}
</style>
<g>
	<polygon class="st145" points="12.39,18.66 25.89,14.52 25.89,17.15 	"/>
	<polygon class="st145" points="12.39,19.86 23.72,18.66 23.72,20.84 	"/>
	<polygon class="st145" points="24.11,10.98 24.11,13.47 10.43,18.66 	"/>
	<polygon class="st145" points="26.74,5.12 26.74,7.3 11.75,16.59 	"/>
	<polygon class="st145" points="22.72,4.06 22.72,6.09 9.66,17.15 	"/>
	<polygon class="st145" points="22.72,0 22.72,1.73 10.12,14.82 	"/>
	<polygon class="st145" points="16.42,2.63 17.27,2.63 7.96,16.59 	"/>
	<polygon class="st145" points="14.91,0 16.19,0.3 7.96,14.82 	"/>
	<polygon class="st145" points="10.74,4.06 11.75,4.06 6.8,16.02 	"/>
	<polygon class="st145" points="8.96,2.63 9.66,2.63 6.41,15.12 	"/>
	<polygon class="st145" points="6.41,7.41 6.8,7.41 5.64,16.02 	"/>
	<polygon class="st145" points="4.87,6.17 5.64,6.17 4.56,16.02 	"/>
	<polygon class="st145" points="3.48,10.85 4.1,10.61 3.48,17.15 	"/>
	<polygon class="st145" points="1.78,9.61 2.7,9.18 2.7,17.15 	"/>
	<polygon class="st145" points="1.31,13.88 1.78,14.14 1.55,19.18 	"/>
	<polygon class="st145" points="0,13.16 0.54,13.16 0.54,19.18 	"/>
	<g>
		<g>
			<path class="st146" d="M29.13,19.24v-2.63h-0.01l-1.11,2.83h-0.17l-1.04-2.83h-0.01v2.63h0.38v0.17h-1v-0.17h0.43v-2.69h-0.43
				v-0.17h0.99l0.89,2.4h0.01l0.95-2.4h0.97v0.17h-0.43v2.69h0.43v0.17h-1.23v-0.17H29.13z"/>
			<path class="st146" d="M31.9,18.84c-0.05,0.2-0.13,0.35-0.26,0.46c-0.13,0.11-0.3,0.16-0.51,0.16c-0.14,0-0.27-0.02-0.38-0.07
				c-0.11-0.05-0.21-0.12-0.29-0.2c-0.08-0.08-0.14-0.18-0.18-0.3c-0.04-0.11-0.06-0.23-0.06-0.36c0-0.13,0.02-0.25,0.06-0.37
				s0.1-0.22,0.18-0.3c0.08-0.09,0.17-0.15,0.28-0.21c0.11-0.05,0.23-0.08,0.37-0.08c0.13,0,0.24,0.02,0.34,0.06
				c0.1,0.04,0.18,0.1,0.25,0.18c0.07,0.08,0.12,0.17,0.16,0.28c0.04,0.11,0.06,0.22,0.06,0.35h-1.29c0,0.02,0,0.04,0,0.05
				c0,0.01,0,0.01,0,0.01c0,0.16,0.01,0.3,0.04,0.4c0.03,0.1,0.06,0.18,0.11,0.24c0.04,0.06,0.1,0.1,0.16,0.12
				c0.06,0.02,0.13,0.03,0.21,0.03c0.07,0,0.14-0.01,0.2-0.03c0.06-0.02,0.12-0.05,0.17-0.09c0.05-0.04,0.09-0.09,0.13-0.15
				c0.04-0.06,0.07-0.14,0.09-0.23c0.03,0,0.06,0.01,0.09,0.01C31.85,18.82,31.88,18.83,31.9,18.84z M31.5,18.29
				c0-0.12-0.02-0.21-0.04-0.28c-0.02-0.07-0.05-0.13-0.08-0.17c-0.03-0.04-0.07-0.07-0.12-0.08c-0.05-0.01-0.1-0.02-0.15-0.02
				c-0.06,0-0.11,0.01-0.16,0.03c-0.05,0.02-0.1,0.05-0.14,0.09c-0.04,0.04-0.07,0.1-0.1,0.17c-0.03,0.07-0.04,0.16-0.05,0.27H31.5z
				"/>
			<path class="st146" d="M34.06,19.24h0.32v0.17h-0.7v-0.25h-0.01c-0.04,0.06-0.08,0.11-0.12,0.15c-0.04,0.04-0.09,0.07-0.14,0.1
				c-0.05,0.02-0.1,0.04-0.15,0.05c-0.05,0.01-0.11,0.01-0.16,0.01c-0.14,0-0.26-0.02-0.36-0.07c-0.11-0.05-0.19-0.12-0.27-0.2
				c-0.07-0.08-0.13-0.18-0.17-0.29c-0.04-0.11-0.06-0.23-0.06-0.36c0-0.13,0.02-0.26,0.06-0.38c0.04-0.12,0.1-0.22,0.18-0.3
				c0.08-0.09,0.17-0.15,0.27-0.2c0.11-0.05,0.22-0.08,0.35-0.08c0.13,0,0.24,0.03,0.33,0.08c0.09,0.05,0.17,0.12,0.23,0.21h0.01
				v-1.32h-0.34v-0.17h0.73V19.24z M32.67,18.52c0,0.16,0.01,0.29,0.03,0.39c0.02,0.1,0.05,0.18,0.1,0.24
				c0.04,0.06,0.09,0.1,0.15,0.12c0.06,0.02,0.12,0.03,0.19,0.03c0.11,0,0.2-0.02,0.27-0.07c0.07-0.05,0.12-0.11,0.16-0.18
				c0.04-0.08,0.07-0.16,0.08-0.25s0.02-0.19,0.02-0.29c0-0.14-0.01-0.26-0.04-0.36c-0.03-0.1-0.06-0.18-0.11-0.24
				c-0.05-0.06-0.1-0.1-0.17-0.13s-0.14-0.04-0.21-0.04c-0.07,0-0.13,0.01-0.19,0.03c-0.06,0.02-0.11,0.06-0.15,0.12
				c-0.04,0.06-0.08,0.14-0.1,0.24C32.68,18.23,32.67,18.36,32.67,18.52z"/>
			<path class="st146" d="M35.23,19.24h0.32v0.17h-1.02v-0.17h0.32V17.8h-0.32v-0.17h0.7V19.24z M35.04,17.05
				c-0.04,0-0.07-0.01-0.1-0.02c-0.03-0.01-0.06-0.03-0.08-0.05c-0.02-0.02-0.04-0.05-0.05-0.08c-0.01-0.03-0.02-0.06-0.02-0.1
				c0-0.04,0.01-0.07,0.02-0.1c0.01-0.03,0.03-0.06,0.05-0.08s0.05-0.04,0.08-0.05c0.03-0.01,0.06-0.02,0.1-0.02
				c0.04,0,0.07,0.01,0.1,0.02c0.03,0.01,0.06,0.03,0.08,0.05c0.02,0.02,0.04,0.05,0.05,0.08c0.01,0.03,0.02,0.06,0.02,0.1
				c0,0.04-0.01,0.07-0.02,0.1c-0.01,0.03-0.03,0.06-0.05,0.08c-0.02,0.02-0.05,0.04-0.08,0.05C35.11,17.04,35.07,17.05,35.04,17.05
				z"/>
			<path class="st146" d="M37.44,18.83c-0.05,0.21-0.13,0.37-0.26,0.47c-0.13,0.11-0.3,0.16-0.5,0.16c-0.14,0-0.27-0.02-0.38-0.07
				c-0.11-0.05-0.21-0.12-0.29-0.2c-0.08-0.08-0.14-0.18-0.18-0.3c-0.04-0.11-0.06-0.23-0.06-0.36c0-0.13,0.02-0.26,0.07-0.37
				c0.05-0.12,0.11-0.22,0.19-0.3c0.08-0.09,0.18-0.15,0.3-0.21c0.12-0.05,0.25-0.08,0.39-0.08c0.1,0,0.19,0.01,0.28,0.04
				c0.08,0.03,0.16,0.06,0.22,0.1c0.06,0.04,0.11,0.09,0.14,0.15c0.03,0.06,0.05,0.12,0.05,0.18c0,0.04-0.01,0.08-0.02,0.11
				c-0.02,0.03-0.04,0.05-0.06,0.07c-0.02,0.02-0.05,0.03-0.08,0.04c-0.03,0.01-0.06,0.01-0.08,0.01c-0.07,0-0.13-0.02-0.17-0.06
				c-0.04-0.04-0.06-0.09-0.06-0.15c0-0.04,0.01-0.08,0.03-0.12c0.02-0.04,0.05-0.08,0.09-0.12c-0.05-0.04-0.1-0.06-0.17-0.08
				c-0.06-0.01-0.12-0.02-0.17-0.02c-0.07,0-0.13,0.01-0.19,0.03c-0.06,0.02-0.12,0.05-0.16,0.11c-0.05,0.06-0.09,0.14-0.11,0.24
				c-0.03,0.1-0.04,0.24-0.04,0.42c0,0.16,0.01,0.29,0.04,0.39c0.03,0.1,0.06,0.18,0.11,0.23c0.05,0.06,0.1,0.09,0.16,0.11
				c0.06,0.02,0.13,0.03,0.2,0.03c0.07,0,0.13-0.01,0.19-0.03c0.06-0.02,0.11-0.05,0.16-0.09c0.05-0.04,0.09-0.09,0.13-0.16
				c0.04-0.06,0.07-0.14,0.09-0.24c0.03,0,0.06,0.01,0.08,0.01C37.39,18.81,37.42,18.82,37.44,18.83z"/>
			<path class="st146" d="M39.5,19.41c-0.06,0.01-0.12,0.02-0.17,0.02c-0.05,0-0.09,0-0.12,0c-0.08,0-0.14-0.01-0.19-0.02
				c-0.05-0.01-0.09-0.03-0.12-0.05c-0.03-0.02-0.05-0.05-0.06-0.08c-0.01-0.03-0.02-0.07-0.02-0.11h-0.01
				c-0.04,0.05-0.08,0.1-0.13,0.14c-0.05,0.04-0.09,0.07-0.14,0.09c-0.05,0.02-0.1,0.04-0.15,0.05c-0.05,0.01-0.1,0.01-0.16,0.01
				c-0.09,0-0.16-0.01-0.23-0.03s-0.13-0.06-0.17-0.1c-0.05-0.04-0.08-0.09-0.11-0.15c-0.02-0.06-0.04-0.12-0.04-0.19
				c0-0.19,0.1-0.34,0.29-0.44s0.47-0.15,0.84-0.16c0-0.06,0-0.12,0-0.17c0-0.05,0-0.1,0-0.15c0-0.13-0.03-0.21-0.08-0.27
				c-0.05-0.05-0.14-0.08-0.25-0.08c-0.08,0-0.15,0.01-0.21,0.03s-0.11,0.04-0.15,0.07c0.03,0.03,0.06,0.07,0.08,0.1
				c0.02,0.04,0.02,0.07,0.02,0.11c0,0.06-0.02,0.11-0.06,0.15c-0.04,0.04-0.09,0.06-0.16,0.06c-0.03,0-0.06,0-0.08-0.01
				c-0.03-0.01-0.05-0.02-0.07-0.04c-0.02-0.02-0.04-0.04-0.05-0.07c-0.01-0.03-0.02-0.06-0.02-0.09c0-0.06,0.02-0.11,0.05-0.17
				s0.08-0.1,0.14-0.14c0.06-0.04,0.14-0.07,0.24-0.1c0.09-0.02,0.2-0.04,0.33-0.04c0.1,0,0.19,0.01,0.27,0.03
				c0.08,0.02,0.15,0.05,0.2,0.1c0.05,0.04,0.1,0.1,0.12,0.18c0.03,0.08,0.04,0.17,0.04,0.28c0,0.03,0,0.07,0,0.14
				c0,0.06,0,0.13,0,0.21c0,0.08,0,0.15,0,0.23c0,0.08,0,0.15,0,0.21c0,0.06,0,0.11,0,0.15c0,0.04,0.01,0.07,0.02,0.1
				c0.01,0.02,0.03,0.04,0.05,0.05c0.02,0.01,0.05,0.02,0.1,0.02c0.04,0,0.08,0,0.14-0.01V19.41z M38.82,18.55
				c-0.16,0-0.28,0.02-0.38,0.03c-0.09,0.02-0.17,0.04-0.22,0.08c-0.05,0.03-0.09,0.07-0.11,0.12c-0.02,0.05-0.03,0.1-0.03,0.17
				c0,0.11,0.02,0.19,0.07,0.24c0.05,0.05,0.11,0.08,0.19,0.08c0.04,0,0.09-0.01,0.15-0.03s0.11-0.05,0.15-0.09s0.09-0.09,0.12-0.16
				c0.03-0.07,0.05-0.15,0.05-0.25V18.55z"/>
			<path class="st146" d="M40.33,19.24h0.32v0.17h-1.02v-0.17h0.32v-2.69h-0.32v-0.17h0.7V19.24z"/>
			<path class="st146" d="M44.36,19.28c-0.07,0.03-0.14,0.06-0.22,0.09c-0.08,0.03-0.16,0.05-0.24,0.06s-0.16,0.03-0.24,0.03
				c-0.08,0.01-0.15,0.01-0.22,0.01c-0.22,0-0.42-0.04-0.6-0.11c-0.18-0.07-0.32-0.18-0.45-0.31c-0.12-0.13-0.21-0.3-0.28-0.49
				s-0.1-0.41-0.1-0.65c0-0.24,0.04-0.47,0.11-0.66c0.07-0.2,0.17-0.37,0.3-0.51c0.13-0.14,0.29-0.25,0.47-0.32
				c0.18-0.08,0.39-0.11,0.61-0.11c0.13,0,0.27,0.01,0.41,0.04s0.29,0.06,0.42,0.1l0.03,0.76h-0.15c-0.01-0.15-0.04-0.27-0.09-0.37
				s-0.1-0.17-0.16-0.22c-0.07-0.05-0.14-0.09-0.22-0.11c-0.08-0.02-0.17-0.03-0.26-0.03c-0.1,0-0.19,0.01-0.27,0.03
				s-0.17,0.05-0.24,0.09c-0.07,0.04-0.14,0.1-0.2,0.17c-0.06,0.07-0.11,0.16-0.15,0.26c-0.04,0.11-0.07,0.23-0.1,0.38
				c-0.02,0.15-0.03,0.32-0.03,0.51c0,0.19,0.01,0.36,0.03,0.5c0.02,0.14,0.05,0.27,0.09,0.37c0.04,0.1,0.09,0.19,0.14,0.26
				c0.06,0.07,0.12,0.12,0.19,0.16c0.07,0.04,0.15,0.07,0.23,0.08c0.08,0.02,0.17,0.02,0.26,0.02c0.09,0,0.18,0,0.27-0.01
				c0.09-0.01,0.17-0.03,0.25-0.06v-0.92h-0.47v-0.17h1.27v0.17h-0.38V19.28z"/>
			<path class="st146" d="M46.01,19.41h-1.05v-0.17h0.32V17.8h-0.32v-0.17h0.7v0.32h0.01c0.03-0.05,0.06-0.1,0.09-0.15
				c0.04-0.04,0.08-0.08,0.13-0.12c0.05-0.03,0.09-0.06,0.15-0.08c0.05-0.02,0.1-0.03,0.16-0.03c0.08,0,0.16,0.02,0.21,0.07
				c0.06,0.05,0.08,0.12,0.08,0.2c0,0.08-0.02,0.14-0.06,0.18c-0.04,0.04-0.1,0.06-0.17,0.06c-0.07,0-0.13-0.02-0.16-0.06
				c-0.04-0.04-0.06-0.09-0.06-0.15c0-0.03,0.01-0.07,0.02-0.1c-0.06,0.02-0.11,0.05-0.15,0.09s-0.09,0.09-0.12,0.16
				c-0.04,0.06-0.06,0.14-0.08,0.22c-0.02,0.08-0.03,0.18-0.03,0.28v0.7h0.34V19.41z"/>
			<path class="st146" d="M46.61,18.54c0-0.13,0.02-0.25,0.06-0.37c0.04-0.12,0.1-0.22,0.18-0.31s0.18-0.16,0.3-0.21
				c0.12-0.05,0.25-0.08,0.4-0.08c0.15,0,0.28,0.03,0.39,0.07c0.11,0.05,0.21,0.12,0.29,0.2c0.08,0.08,0.13,0.18,0.17,0.3
				c0.04,0.11,0.06,0.23,0.06,0.36c0,0.13-0.02,0.25-0.06,0.37c-0.04,0.12-0.1,0.22-0.18,0.31c-0.08,0.09-0.18,0.16-0.3,0.21
				c-0.12,0.05-0.25,0.08-0.4,0.08c-0.15,0-0.28-0.02-0.39-0.07c-0.11-0.05-0.21-0.12-0.29-0.2c-0.08-0.08-0.14-0.18-0.17-0.3
				C46.63,18.78,46.61,18.66,46.61,18.54z M47.03,18.53c0,0.15,0.01,0.28,0.03,0.38c0.02,0.1,0.05,0.18,0.09,0.24
				c0.04,0.06,0.09,0.1,0.16,0.13c0.06,0.02,0.14,0.04,0.22,0.04c0.08,0,0.16-0.01,0.22-0.04c0.06-0.03,0.12-0.07,0.16-0.13
				c0.04-0.06,0.08-0.14,0.1-0.24c0.02-0.1,0.03-0.23,0.03-0.38c0-0.15-0.01-0.28-0.03-0.38c-0.02-0.1-0.05-0.18-0.09-0.24
				c-0.04-0.06-0.09-0.1-0.16-0.13c-0.06-0.02-0.14-0.04-0.22-0.04c-0.08,0-0.16,0.01-0.22,0.04c-0.06,0.03-0.12,0.07-0.16,0.13
				c-0.04,0.06-0.08,0.14-0.1,0.24C47.04,18.25,47.03,18.38,47.03,18.53z"/>
			<path class="st146" d="M50.16,17.8h-0.31v-0.17h0.69v1.6h0.32v0.17h-0.7v-0.27h-0.01c-0.06,0.11-0.14,0.19-0.23,0.24
				c-0.09,0.05-0.21,0.08-0.36,0.08c-0.2,0-0.35-0.05-0.45-0.14c-0.1-0.1-0.15-0.24-0.15-0.42v-1.1h-0.31v-0.17h0.69v1.33
				c0,0.11,0.03,0.19,0.08,0.24c0.05,0.05,0.13,0.07,0.23,0.07c0.07,0,0.14-0.01,0.2-0.04c0.06-0.03,0.12-0.07,0.16-0.13
				c0.05-0.06,0.08-0.13,0.11-0.23c0.03-0.09,0.04-0.21,0.04-0.35V17.8z"/>
			<path class="st146" d="M51.71,17.9L51.71,17.9c0.07-0.11,0.15-0.19,0.25-0.24c0.1-0.05,0.21-0.08,0.33-0.08
				c0.12,0,0.23,0.02,0.34,0.07c0.1,0.04,0.19,0.11,0.27,0.19c0.07,0.08,0.13,0.18,0.18,0.29c0.04,0.12,0.06,0.24,0.06,0.38
				c0,0.15-0.02,0.28-0.07,0.4c-0.05,0.12-0.11,0.22-0.19,0.3c-0.08,0.08-0.17,0.14-0.27,0.19c-0.1,0.04-0.21,0.07-0.33,0.07
				c-0.12,0-0.22-0.02-0.32-0.07c-0.1-0.05-0.18-0.13-0.24-0.24h-0.01v1.22h0.34v0.17H51v-0.17h0.32V17.8H51v-0.17h0.7V17.9z
				 M52.71,18.52c0-0.16-0.01-0.29-0.03-0.39c-0.02-0.1-0.05-0.18-0.1-0.24c-0.04-0.06-0.09-0.1-0.15-0.12
				c-0.06-0.02-0.12-0.03-0.19-0.03c-0.1,0-0.18,0.02-0.25,0.06s-0.12,0.1-0.17,0.17c-0.04,0.07-0.07,0.15-0.09,0.25
				c-0.02,0.1-0.03,0.2-0.03,0.31c0,0.11,0.01,0.21,0.03,0.3c0.02,0.08,0.04,0.15,0.07,0.21c0.03,0.06,0.06,0.1,0.1,0.14
				c0.04,0.03,0.08,0.06,0.12,0.08c0.04,0.02,0.08,0.03,0.12,0.04c0.04,0.01,0.07,0.01,0.11,0.01c0.07,0,0.13-0.01,0.18-0.03
				c0.06-0.02,0.11-0.06,0.15-0.12c0.04-0.06,0.07-0.14,0.1-0.24C52.7,18.81,52.71,18.68,52.71,18.52z"/>
		</g>
	</g>
	<g>
		<g>
			<path class="st146" d="M0.51,24.84h1.83v6.56l6.74-6.56h2.59l-5.75,5.42l5.91,8.03H9.38l-4.84-6.75l-2.21,2.06v4.69H0.51V24.84z"
				/>
			<path class="st146" d="M18.06,32.35c0.39-0.05,0.65-0.21,0.78-0.48c0.07-0.15,0.11-0.36,0.11-0.63c0-0.56-0.21-0.97-0.62-1.22
				c-0.41-0.25-1-0.38-1.76-0.38c-0.88,0-1.51,0.23-1.88,0.7c-0.21,0.26-0.34,0.64-0.4,1.15H12.7c0.03-1.21,0.43-2.05,1.21-2.52
				c0.77-0.47,1.67-0.71,2.7-0.71c1.19,0,2.15,0.22,2.89,0.66c0.73,0.44,1.1,1.12,1.1,2.05v5.65c0,0.17,0.04,0.31,0.11,0.41
				c0.07,0.1,0.22,0.16,0.46,0.16c0.08,0,0.16,0,0.25-0.01c0.09-0.01,0.19-0.02,0.3-0.04v1.22c-0.26,0.07-0.46,0.12-0.6,0.14
				c-0.14,0.02-0.33,0.03-0.56,0.03c-0.58,0-1.01-0.2-1.27-0.6c-0.14-0.21-0.24-0.52-0.29-0.91c-0.35,0.44-0.84,0.82-1.49,1.15
				c-0.65,0.32-1.36,0.49-2.14,0.49c-0.93,0-1.7-0.28-2.29-0.83c-0.59-0.55-0.89-1.24-0.89-2.07c0-0.91,0.29-1.61,0.87-2.12
				c0.58-0.5,1.35-0.81,2.3-0.93L18.06,32.35z M14.49,36.81c0.36,0.27,0.78,0.41,1.27,0.41c0.6,0,1.17-0.13,1.73-0.4
				c0.94-0.45,1.41-1.18,1.41-2.19V33.3c-0.21,0.13-0.47,0.24-0.8,0.32c-0.33,0.09-0.65,0.15-0.96,0.18l-1.03,0.13
				c-0.61,0.08-1.08,0.21-1.38,0.38c-0.52,0.29-0.78,0.75-0.78,1.37C13.95,36.16,14.13,36.54,14.49,36.81z"/>
			<path class="st146" d="M29.18,28.49h1.87c-0.24,0.63-0.77,2.06-1.59,4.3c-0.61,1.69-1.13,3.06-1.54,4.12
				c-0.98,2.5-1.67,4.03-2.07,4.58c-0.4,0.55-1.09,0.82-2.07,0.82c-0.24,0-0.42-0.01-0.55-0.03c-0.13-0.02-0.29-0.05-0.48-0.1v-1.5
				c0.29,0.08,0.51,0.13,0.64,0.15c0.13,0.02,0.25,0.03,0.35,0.03c0.31,0,0.54-0.05,0.69-0.15c0.15-0.1,0.27-0.22,0.37-0.37
				c0.03-0.05,0.14-0.3,0.34-0.75c0.19-0.45,0.34-0.79,0.42-1.01l-3.73-10.09h1.92l2.7,7.99L29.18,28.49z"/>
			<path class="st146" d="M37.44,32.35c0.39-0.05,0.65-0.21,0.78-0.48c0.07-0.15,0.11-0.36,0.11-0.63c0-0.56-0.21-0.97-0.62-1.22
				s-1-0.38-1.76-0.38c-0.88,0-1.51,0.23-1.88,0.7c-0.21,0.26-0.34,0.64-0.4,1.15h-1.58c0.03-1.21,0.43-2.05,1.21-2.52
				c0.77-0.47,1.67-0.71,2.7-0.71c1.19,0,2.15,0.22,2.89,0.66c0.73,0.44,1.1,1.12,1.1,2.05v5.65c0,0.17,0.04,0.31,0.11,0.41
				c0.07,0.1,0.22,0.16,0.46,0.16c0.08,0,0.16,0,0.25-0.01c0.09-0.01,0.19-0.02,0.3-0.04v1.22c-0.26,0.07-0.46,0.12-0.6,0.14
				c-0.14,0.02-0.33,0.03-0.56,0.03c-0.58,0-1.01-0.2-1.27-0.6c-0.14-0.21-0.24-0.52-0.29-0.91c-0.35,0.44-0.84,0.82-1.49,1.15
				c-0.65,0.32-1.36,0.49-2.14,0.49c-0.93,0-1.7-0.28-2.29-0.83c-0.59-0.55-0.89-1.24-0.89-2.07c0-0.91,0.29-1.61,0.87-2.12
				c0.58-0.5,1.35-0.81,2.3-0.93L37.44,32.35z M33.88,36.81c0.36,0.27,0.78,0.41,1.27,0.41c0.6,0,1.17-0.13,1.73-0.4
				c0.94-0.45,1.41-1.18,1.41-2.19V33.3c-0.21,0.13-0.47,0.24-0.8,0.32c-0.33,0.09-0.65,0.15-0.96,0.18l-1.03,0.13
				c-0.62,0.08-1.08,0.21-1.38,0.38c-0.52,0.29-0.78,0.75-0.78,1.37C33.34,36.16,33.52,36.54,33.88,36.81z"/>
			<path class="st146" d="M42.5,24.84h2.21l6.98,10.9v-10.9h1.78V38.3h-2.1l-7.08-10.89V38.3H42.5V24.84z"/>
		</g>
	</g>
</g>
</svg>
