<?xml version="1.0" encoding="utf-8"?>
<!-- Generator: Adobe Illustrator 25.0.1, SVG Export Plug-In . SVG Version: 6.00 Build 0)  -->
<svg version="1.0" id="Layer_1" xmlns="http://www.w3.org/2000/svg" xmlns:xlink="http://www.w3.org/1999/xlink" x="0px" y="0px"
	 viewBox="0 0 73.77 47.56" style="enable-background:new 0 0 73.77 47.56;" xml:space="preserve">
<style type="text/css">
	.st0{fill:#000104;}
	.st1{fill:#FFFFFF;}
	.st2{fill:#EF493E;}
	.st3{opacity:0.6;fill-rule:evenodd;clip-rule:evenodd;fill:#FBBE43;}
	.st4{opacity:0.6;fill-rule:evenodd;clip-rule:evenodd;fill:#EF930E;}
	.st5{opacity:0.6;fill-rule:evenodd;clip-rule:evenodd;fill:#E67906;}
	.st6{fill:#9F8829;}
	.st7{fill:#3972A6;}
	.st8{fill:url(#SVGID_1_);stroke:#2B53A4;stroke-width:0.5;stroke-miterlimit:10;}
	.st9{fill:none;}
	.st10{fill:url(#SVGID_2_);}
	.st11{fill:url(#SVGID_3_);}
	.st12{fill:#B3B3B3;}
	.st13{fill:url(#SVGID_4_);}
	.st14{fill:url(#SVGID_5_);}
	.st15{fill:url(#SVGID_6_);}
	.st16{fill:#FFFFFF;stroke:#FFFFFF;stroke-width:0.25;stroke-miterlimit:10;}
	.st17{fill:#00001D;}
	.st18{fill:#4DA0C5;}
	.st19{fill:url(#SVGID_7_);}
	.st20{fill:#2E6A85;}
	.st21{fill:none;stroke:#144FA1;stroke-width:0.113;stroke-linejoin:round;stroke-miterlimit:10;}
	.st22{fill:#F27337;}
	.st23{fill:#8EB8D4;}
	.st24{fill:#F38056;}
	.st25{fill:#626365;}
	.st26{fill:#EF6D23;}
	.st27{fill:#284B82;}
	.st28{fill:#242956;}
	.st29{fill:#15142A;}
	.st30{fill:#84C343;}
	.st31{fill:#4CA1C6;}
	.st32{fill:#121617;}
	.st33{fill:#CF8966;}
	.st34{fill:#F37639;}
	.st35{opacity:0.3;fill:url(#SVGID_8_);}
	.st36{fill:#373277;}
	.st37{fill:#E61E25;}
	.st38{fill:#2555A5;}
	.st39{fill:#2E225E;}
	.st40{fill:#F8A425;}
	.st41{fill:#2058A7;}
	.st42{fill:none;stroke:#205AA8;stroke-width:0.156;stroke-miterlimit:10;}
	.st43{fill:#49A3C7;}
	.st44{fill-rule:evenodd;clip-rule:evenodd;}
	.st45{fill-rule:evenodd;clip-rule:evenodd;fill:url(#SVGID_9_);}
	.st46{fill-rule:evenodd;clip-rule:evenodd;fill:url(#SVGID_10_);}
	.st47{fill-rule:evenodd;clip-rule:evenodd;fill:url(#SVGID_11_);}
	.st48{fill:#1D2251;}
	.st49{fill:#2260AC;}
	.st50{fill:url(#SVGID_12_);}
	.st51{fill:#FFFFFC;}
	.st52{fill:#4C9FC5;}
	.st53{fill:#28306D;}
	.st54{fill:#4C9EC5;}
	.st55{fill:#28306E;}
	.st56{fill:#29306F;}
	.st57{fill:#F7F7FB;}
	.st58{fill:url(#SVGID_13_);}
	.st59{fill:url(#SVGID_14_);}
	.st60{fill:url(#SVGID_15_);}
	.st61{fill:url(#SVGID_16_);}
	.st62{fill:#10123C;}
	.st63{fill:#F5842C;}
	.st64{fill:#1F305E;}
	.st65{fill:#87BBD1;}
	.st66{fill:#203160;}
	.st67{fill:#235779;}
	.st68{fill:#359FA1;}
	.st69{fill:#A4D1A4;}
	.st70{fill:#B9DBBC;}
	.st71{fill:#C6DDCA;}
	.st72{fill:#662E14;}
	.st73{fill:#1D79A4;}
	.st74{fill:#C14B28;}
	.st75{fill:url(#SVGID_17_);}
	.st76{fill:url(#SVGID_18_);}
	.st77{fill:url(#SVGID_19_);}
	.st78{fill:url(#SVGID_20_);}
	.st79{fill:url(#SVGID_21_);}
	.st80{fill:url(#SVGID_22_);}
	.st81{fill:url(#SVGID_23_);}
	.st82{fill:url(#SVGID_24_);}
	.st83{fill:url(#SVGID_25_);}
	.st84{fill:url(#SVGID_26_);}
	.st85{fill:url(#SVGID_27_);}
	.st86{fill:url(#SVGID_28_);}
	.st87{fill:url(#SVGID_29_);}
	.st88{fill:url(#SVGID_30_);}
	.st89{fill:#1F164B;}
	.st90{clip-path:url(#SVGID_32_);fill:#253D97;}
	.st91{fill:url(#SVGID_33_);}
	.st92{fill:url(#SVGID_34_);}
	.st93{fill:url(#SVGID_35_);}
	.st94{fill:url(#SVGID_36_);}
	.st95{fill:url(#SVGID_37_);}
	.st96{fill:url(#SVGID_38_);}
	.st97{fill:url(#SVGID_39_);}
	.st98{fill:url(#SVGID_40_);}
	.st99{fill:url(#SVGID_41_);}
	.st100{fill:#443F41;}
	.st101{fill:#28306F;}
	.st102{fill:#71C49D;}
	.st103{fill:#F0C6A7;}
	.st104{fill:#DB8D82;}
	.st105{fill:#EFB7AC;}
	.st106{opacity:0.21;}
	.st107{fill-rule:evenodd;clip-rule:evenodd;fill:#A9196E;}
	.st108{fill-rule:evenodd;clip-rule:evenodd;fill:#FBE42C;}
	.st109{fill:#FBE42C;}
	.st110{fill:#A9196E;}
	.st111{fill:#7FC143;}
	.st112{clip-path:url(#SVGID_45_);fill:#7FC143;}
	.st113{clip-path:url(#SVGID_51_);fill:#7FC143;}
	.st114{fill:#243F8F;}
	.st115{fill:#EF4E2F;}
	.st116{fill:#010007;}
	.st117{fill:#0C0D37;}
	.st118{fill:#FBAF2D;}
	.st119{fill:url(#SVGID_54_);}
	.st120{fill-rule:evenodd;clip-rule:evenodd;fill:#FFFFFF;}
	.st121{fill:#1D4690;}
	.st122{fill:#3AA949;}
	.st123{fill:#F37A24;}
	.st124{fill:none;stroke:#F37A24;stroke-width:3.7145;stroke-miterlimit:10;}
	.st125{fill:#3AA949;stroke:#FFFFFF;stroke-width:1.3104;stroke-miterlimit:10;}
	.st126{fill:#46A2BB;}
	.st127{fill:#7153A0;}
	.st128{fill:#27316C;}
	.st129{fill:#2C65AE;}
	.st130{fill:#452D7A;}
	.st131{fill:#442C7A;}
	.st132{fill:#1A2642;}
	.st133{fill-rule:evenodd;clip-rule:evenodd;fill:#567EB8;}
	.st134{fill-rule:evenodd;clip-rule:evenodd;fill:#6A7EB8;}
	.st135{fill-rule:evenodd;clip-rule:evenodd;fill:#6A7EB9;}
	.st136{fill-rule:evenodd;clip-rule:evenodd;fill:#EE3C2D;}
	.st137{fill-rule:evenodd;clip-rule:evenodd;fill:#EF493F;}
	.st138{fill-rule:evenodd;clip-rule:evenodd;fill:#ED2C24;}
	.st139{fill-rule:evenodd;clip-rule:evenodd;fill:#E9AE28;}
	.st140{fill-rule:evenodd;clip-rule:evenodd;fill:#D69B28;}
	.st141{fill-rule:evenodd;clip-rule:evenodd;fill:#FCB729;}
	.st142{fill-rule:evenodd;clip-rule:evenodd;fill:#409E47;}
	.st143{fill-rule:evenodd;clip-rule:evenodd;fill:#4BB450;}
	.st144{fill-rule:evenodd;clip-rule:evenodd;fill:#338440;}
	.st145{fill:#C09C36;}
	.st146{fill:#1E552A;}
	.st147{clip-path:url(#SVGID_56_);fill:url(#SVGID_57_);}
	.st148{fill:#023A1E;}
	.st149{fill:#FFFFFA;}
	.st150{fill:#0D4F28;}
	.st151{fill:#0E5128;}
	.st152{fill:#0D4E27;}
	.st153{fill:#0E5229;}
	.st154{fill:#0E4823;}
	.st155{fill:#0E4C27;}
	.st156{fill:#F3F6E0;}
	.st157{fill:#0E4F28;}
	.st158{fill:#114823;}
	.st159{fill:#105229;}
	.st160{fill:#0A4A2B;}
	.st161{fill:#134F27;}
	.st162{fill:#165229;}
	.st163{fill:#0D5029;}
	.st164{fill:#0B4E2B;}
	.st165{fill:#105028;}
	.st166{fill:#0A492A;}
	.st167{fill:#E9F3E2;}
	.st168{fill:#144D26;}
	.st169{fill:#185C2F;}
	.st170{fill:#0F5028;}
	.st171{fill:#F3F8EA;}
	.st172{fill:#114D26;}
	.st173{fill:#70A685;}
	.st174{fill:#0D4F2A;}
	.st175{fill:#094A24;}
	.st176{fill:#0F4F27;}
	.st177{fill:#0A4C26;}
	.st178{fill:#A2D29A;}
	.st179{fill:#4D7E44;}
	.st180{fill:#E8F2E1;}
	.st181{fill:#EDF5E5;}
	.st182{fill:#E6F2E7;}
	.st183{fill:#E5F1DC;}
	.st184{fill:#E9F3E3;}
	.st185{fill:#E9F3E5;}
	.st186{fill:#E5F1DB;}
	.st187{fill:#D8ECD7;}
	.st188{fill:#D9EBD4;}
	.st189{fill:#E2F0DE;}
	.st190{fill:#366B4B;}
	.st191{fill:#5D6162;}
	.st192{fill:#212E5F;}
	.st193{fill:#DD1F26;}
	.st194{clip-path:url(#SVGID_59_);}
	.st195{fill:#23396F;}
	.st196{fill:#7FC24E;}
	.st197{clip-path:url(#SVGID_59_);fill:#23396F;}
	.st198{clip-path:url(#SVGID_59_);fill:#7FC24E;}
	.st199{fill:#91CEA4;}
	.st200{fill:#90CEA4;}
	.st201{fill:#C02026;}
	.st202{fill:#362E7E;}
</style>
<g>
	<path class="st64" d="M37.24,16.89c0,0,0.95-2.91,4.13-3.23c1.37-0.1,2.9,0.78,3.73,1.88"/>
	<path class="st64" d="M37.67,16.74c0.98-2.33,4.78-3.85,7.02-1.12c-1.87,0.3-4.14,0.61-4.14,0.61s-0.53-0.5-0.99-0.77
		c-0.79,0.47-1.23,1.15-1.23,1.15L37.67,16.74z"/>
	<path class="st65" d="M37.52,10.5c0,2.22,1.75,4.02,3.91,4.02c2.16,0,3.91-1.8,3.91-4.02c0-2.22-1.75-4.02-3.91-4.02
		C39.27,6.48,37.52,8.28,37.52,10.5z"/>
	<path class="st64" d="M49.18,15.16c0,0-0.42,0.68-2.63,1.11c-2.46,0.48-4.01,0.65-6.84,1.07c-1.94,0.31-3.4,0.76-4.07,1.08
		c-0.18,0.64-0.89,2.96-1.04,3.48c0.44-0.28,1.41-0.98,8.31-1.68c1.31-0.11,4.3-0.57,5.29-1.59C48.77,17.02,49.18,15.16,49.18,15.16
		z"/>
	<path class="st64" d="M40.34,21.46l3.3-0.37c0,0-0.07,4.31-1.41,5.09c-1.61,0.72-3.28,1.38-3.28,1.38s0.29-0.28,0.44-0.69
		C39.68,26.04,39.95,24.57,40.34,21.46z"/>
	<path class="st64" d="M35.48,22.53c0.87-0.55,4.21-0.99,4.21-0.99s-0.36,3.72-0.63,4.44C38.69,25.71,36.39,23.48,35.48,22.53z"/>
	<path class="st64" d="M43.42,25.56c0,0-0.35,0.96-1.21,1.28c-0.96,0.39-1.66,0.73-1.66,0.73s1.38,1.21,1.38,2.22
		c0.69-0.77,1.51-2.45,1.87-3.07C43.74,26.02,43.42,25.56,43.42,25.56z"/>
	<path class="st66" d="M43.85,7.61c0,0-1.35,1.49-1.56,2.32c-0.24,0.77,0.63,1.31,1.73,0.81c-1.19,0.95-3.38,0.84-4.16,0.5
		c0.25-0.01,0.53,0.02,0.82-0.55c0.33-0.76,0.44-1.21,0.64-1.52c0.08-0.14,0.05-0.23-0.04-0.31c-0.33-0.29-0.9-0.77-1.22-1.02
		c-0.19-0.15-0.31-0.27-0.54-0.08c-0.77,0.59-2.87,3.26-0.22,5.85c-2.16-1.53-2.2-5.11,0.51-6.55C41.73,6.18,43.31,7.09,43.85,7.61z
		"/>
	<g>
		<polygon class="st66" points="17.65,31.38 19.02,36.11 15.41,35.14 		"/>
		<g>
			<path class="st66" d="M13.78,29.63c-0.96,0.66-3.57,5.55-5.73,9.95c-1.29,2.24-1.64,2.68-2.29,3.14c0.51,0.15,2.15,0.24,3.38,0.3
				c2.29-0.98,5.82-11.22,8.01-13.07C15.98,29.84,14.87,29.61,13.78,29.63z"/>
			<path class="st66" d="M15.09,35.88c0,0,3.93,1.55,5.42,0.95c-1.06,1.35-2.07,2.56-2.67,3.06c-0.42,0.29-0.82,0.26-0.82,0.26
				s-1.87,0.05-3.59-0.87C14.25,37.61,15.09,35.88,15.09,35.88z"/>
			<path class="st66" d="M20.08,38.65c0,0,0.53,1.79,1.47,2.35c-2.11,0.58-3.59,0.76-3.59,0.76s-0.48-0.26-0.82-0.88
				C18.62,40.82,20.08,38.65,20.08,38.65z"/>
			<g>
				<path class="st66" d="M29.45,33.85c0,0.02,0,0.03,0,0.04c0,0.01,0,0.02,0,0.02c0,0.01,0,0.01,0,0.02c0,0.77-0.36,1.45-1.08,2.02
					c-0.72,0.57-1.51,0.89-2.36,0.94c-0.05,0.01-0.09,0.01-0.14,0.01c-0.04,0-0.09,0-0.14,0c-0.13,0-0.25-0.01-0.37-0.02
					c-0.12-0.01-0.24-0.03-0.37-0.06l-0.52-0.12v2.9c0,0.16,0.01,0.29,0.02,0.41c0.02,0.12,0.07,0.23,0.17,0.34
					c0.06,0.07,0.16,0.13,0.3,0.18c0.15,0.05,0.3,0.09,0.46,0.14c0.03,0.01,0.06,0.02,0.09,0.02c0.03,0.01,0.06,0.01,0.09,0.02
					c0.08,0.02,0.15,0.04,0.22,0.06c0.07,0.02,0.13,0.04,0.19,0.06l0.32,0.11h-4.9l0.33-0.1c0.08-0.01,0.17-0.03,0.27-0.05
					c0.1-0.03,0.21-0.06,0.31-0.08c0.1-0.04,0.19-0.07,0.29-0.1c0.1-0.03,0.18-0.07,0.26-0.1c0.05-0.02,0.09-0.04,0.13-0.07
					c0.04-0.03,0.07-0.05,0.09-0.07c0.03-0.05,0.06-0.09,0.08-0.13c0.02-0.04,0.04-0.08,0.05-0.13c0.01-0.05,0.02-0.09,0.02-0.14
					c0-0.05,0.01-0.09,0.01-0.12c0-0.03,0-0.05,0-0.08c0-0.02,0-0.04,0-0.06c-0.01-0.03-0.01-0.05-0.01-0.08c0-0.02,0-0.04,0-0.06
					v-7.5c0-0.12-0.01-0.23-0.02-0.33c-0.02-0.1-0.06-0.2-0.14-0.29c-0.07-0.07-0.18-0.15-0.33-0.21c-0.15-0.07-0.31-0.14-0.47-0.2
					c-0.1-0.04-0.19-0.07-0.28-0.1c-0.09-0.03-0.18-0.06-0.25-0.09l-0.32-0.12h2.63c0.14,0.01,0.28,0.01,0.42,0.01
					c0.13-0.01,0.26-0.01,0.39-0.01c0.03,0,0.05,0,0.07,0c0.02,0,0.04,0,0.06,0c0.11-0.01,0.21-0.01,0.32-0.01c0.11,0,0.22,0,0.34,0
					c0.1,0,0.2,0,0.3,0c0.11,0,0.21,0.01,0.32,0.01c0.11,0,0.22,0.01,0.33,0.03c0.12,0.02,0.23,0.04,0.35,0.07
					c0.6,0.14,1.15,0.46,1.66,0.95c0.51,0.5,0.78,1.2,0.81,2.1V33.85z M25.81,31.47c-0.03,0-0.06,0-0.1,0c-0.05,0-0.09,0-0.14,0
					c-0.04,0-0.09,0-0.14,0c-0.16,0.01-0.32,0.02-0.47,0.04c-0.15,0.02-0.25,0.05-0.31,0.08c-0.09,0.05-0.14,0.13-0.15,0.22
					c-0.02,0.09-0.02,0.19-0.02,0.29c0,0.01,0,0.02,0,0.02c0,0.01,0,0.01,0,0.02V36l0.43,0.05c0.12,0.03,0.23,0.05,0.34,0.06
					s0.22,0.01,0.33,0.01c0.74,0,1.37-0.2,1.89-0.61c0.52-0.41,0.78-0.97,0.78-1.7c0-0.03,0-0.05,0-0.08c0-0.02,0-0.04,0-0.06
					c-0.03-0.62-0.21-1.09-0.55-1.42c-0.34-0.33-0.7-0.55-1.08-0.67c-0.13-0.04-0.25-0.06-0.37-0.08c-0.12-0.02-0.24-0.03-0.35-0.04
					C25.87,31.47,25.84,31.47,25.81,31.47z"/>
				<path class="st66" d="M33.65,30.5c0.35,0.01,0.68,0.03,1,0.08c0.32,0.04,0.59,0.09,0.8,0.15c0.02,0,0.04,0,0.07,0.01
					c0.02,0.01,0.05,0.01,0.06,0.02l0.29,0.07l0.03,2.67l-0.61-1.41c-0.14-0.32-0.34-0.54-0.62-0.64c-0.28-0.11-0.64-0.17-1.08-0.19
					c-0.01,0-0.02,0-0.03,0c-0.01,0-0.02,0-0.03,0c-0.01,0-0.02,0-0.03,0c-0.01,0-0.02,0-0.03,0c-0.59,0-1.08,0.19-1.48,0.57
					c-0.4,0.38-0.6,0.84-0.6,1.38c0,0.35,0.12,0.65,0.35,0.91c0.24,0.25,0.49,0.47,0.77,0.64c0.15,0.09,0.3,0.17,0.44,0.24
					c0.14,0.07,0.26,0.13,0.37,0.17c0.08,0.04,0.15,0.07,0.22,0.11c0.07,0.04,0.15,0.07,0.22,0.11c0.7,0.34,1.33,0.71,1.87,1.12
					c0.54,0.41,0.83,0.99,0.84,1.76c0.02,0.92-0.29,1.63-0.94,2.12c-0.65,0.49-1.47,0.74-2.47,0.75c-0.05,0-0.1,0-0.15,0
					c-0.05,0-0.1-0.01-0.15-0.01c-0.16-0.01-0.33-0.03-0.49-0.05c-0.16-0.02-0.31-0.05-0.45-0.08c-0.11-0.03-0.22-0.05-0.32-0.07
					c-0.1-0.02-0.17-0.03-0.23-0.04l-0.62-0.17l-0.07-2.63l0.49,1.22c0.13,0.35,0.35,0.6,0.64,0.75c0.29,0.15,0.6,0.25,0.93,0.29
					c0.06,0.01,0.11,0.02,0.17,0.02c0.05,0,0.1,0.01,0.15,0.02c0.03,0,0.06,0,0.08,0.01c0.02,0,0.05,0.01,0.07,0.01s0.04,0,0.06,0
					c0.02,0,0.05,0,0.08,0c0.57,0,1.07-0.17,1.51-0.5c0.44-0.33,0.65-0.76,0.64-1.27c0-0.01,0-0.02,0-0.03c0-0.01,0-0.02,0-0.03
					c0-0.02,0-0.03,0-0.04c-0.03-0.49-0.2-0.87-0.51-1.13c-0.31-0.26-0.69-0.5-1.12-0.71c-0.12-0.06-0.25-0.13-0.38-0.19
					c-0.13-0.06-0.26-0.13-0.4-0.21c-0.17-0.09-0.34-0.18-0.5-0.26c-0.16-0.08-0.32-0.17-0.47-0.25c-0.48-0.27-0.88-0.57-1.19-0.9
					c-0.31-0.33-0.48-0.82-0.52-1.47c0-0.01,0-0.02,0-0.03c0-0.01,0-0.03,0-0.03c0-0.01,0-0.02,0-0.03c0-0.01,0-0.03,0-0.03
					c0-0.86,0.34-1.53,1.02-2.01c0.68-0.49,1.44-0.73,2.28-0.74V30.5z"/>
				<path class="st66" d="M40.54,39.89c-0.15,0.55-0.58,0.97-1.28,1.26c-0.16,0.07-0.35,0.14-0.56,0.19
					c-0.21,0.05-0.43,0.08-0.67,0.08c-0.01,0-0.03,0-0.05,0c-0.02,0-0.05,0-0.07,0l-0.52-0.01l0.38-0.17
					c0.04-0.01,0.07-0.02,0.11-0.03c0.03-0.01,0.06-0.03,0.09-0.05c0.1-0.04,0.18-0.08,0.27-0.12c0.08-0.04,0.16-0.09,0.24-0.13
					c0.06-0.04,0.11-0.07,0.17-0.11c0.05-0.04,0.11-0.08,0.17-0.13c0.18-0.15,0.33-0.32,0.43-0.53c0.1-0.2,0.18-0.41,0.22-0.64
					c0.03-0.12,0.05-0.24,0.06-0.36c0.01-0.12,0.02-0.24,0.02-0.35v-6.7c0-0.01,0-0.03,0-0.05c0-0.02,0-0.05,0.01-0.08
					c0-0.02,0-0.04,0-0.07c0-0.03,0-0.06,0-0.08c0-0.04,0-0.07-0.01-0.1c0-0.03-0.01-0.07-0.02-0.1c-0.01-0.06-0.02-0.11-0.04-0.16
					c-0.02-0.05-0.05-0.1-0.09-0.15c-0.02-0.02-0.05-0.04-0.09-0.07c-0.04-0.03-0.08-0.05-0.13-0.07c-0.08-0.04-0.16-0.07-0.26-0.1
					c-0.1-0.03-0.19-0.07-0.29-0.1c-0.11-0.03-0.21-0.06-0.31-0.08c-0.1-0.03-0.19-0.05-0.27-0.07l-0.33-0.11h4.89l-0.3,0.12
					c-0.06,0.04-0.13,0.07-0.2,0.08c-0.08,0.02-0.16,0.04-0.25,0.06c-0.02,0.01-0.04,0.02-0.06,0.02c-0.02,0.01-0.04,0.01-0.06,0.02
					c-0.16,0.04-0.32,0.08-0.47,0.13c-0.15,0.05-0.25,0.11-0.31,0.17c-0.01,0.02-0.02,0.03-0.04,0.05
					c-0.01,0.01-0.03,0.03-0.04,0.05c-0.06,0.1-0.09,0.21-0.1,0.31c-0.01,0.11-0.02,0.22-0.02,0.35v5.65
					C40.76,38.61,40.69,39.34,40.54,39.89z"/>
				<path class="st66" d="M48.94,30.51c0.02,0.01,0.04,0.01,0.07,0.01c0.02,0,0.05,0,0.08,0c0.02,0,0.04,0,0.06,0
					c0.02,0,0.05,0,0.07,0c1.51,0,2.82,0.47,3.93,1.42c1.11,0.95,1.68,2.23,1.72,3.83c0.02,1.61-0.56,2.91-1.75,3.88
					c-1.19,0.97-2.58,1.45-4.19,1.43c-1.51-0.01-2.8-0.53-3.85-1.56c-1.06-1.03-1.58-2.28-1.58-3.76c0-1.44,0.53-2.66,1.6-3.67
					c1.07-1.01,2.35-1.54,3.84-1.59V30.51z M48.93,31.29c-1.31,0.05-2.35,0.51-3.12,1.39c-0.77,0.88-1.14,1.91-1.13,3.08
					c0.02,1.13,0.43,2.15,1.24,3.08c0.81,0.93,1.84,1.43,3.09,1.51c0.03,0,0.06,0,0.08,0c0.02,0,0.05,0,0.07,0
					c0.02,0.01,0.04,0.01,0.06,0.01c0.02,0,0.05,0,0.08,0c1.18,0,2.2-0.4,3.07-1.21c0.87-0.81,1.3-1.85,1.3-3.12
					c0-1.24-0.44-2.35-1.32-3.31c-0.88-0.96-1.97-1.43-3.26-1.42c-0.01,0-0.02,0-0.04,0c-0.02,0-0.03,0-0.04,0
					c-0.02,0-0.03,0-0.04,0c-0.01,0-0.02,0-0.04,0V31.29z"/>
				<path class="st66" d="M64.98,39.44c-0.21-0.22-0.36-0.38-0.45-0.48c-0.06-0.06-0.13-0.12-0.2-0.19
					c-0.08-0.07-0.21-0.2-0.39-0.39c-0.2-0.2-0.41-0.41-0.61-0.61c-0.2-0.2-0.41-0.41-0.62-0.62c-0.04-0.05-0.08-0.09-0.13-0.13
					c-0.05-0.04-0.09-0.09-0.13-0.13c-0.94-0.94-1.84-1.82-2.69-2.64c-0.85-0.82-1.46-1.4-1.82-1.74v5.98c0,0.04,0,0.08,0,0.13
					c0,0.05,0,0.1,0,0.16c-0.01,0.05-0.02,0.12-0.02,0.19c0,0.07,0,0.14,0,0.21c0,0.05,0,0.11,0,0.17c0,0.06,0,0.11,0,0.17
					c0.01,0.15,0.03,0.29,0.05,0.44c0.02,0.15,0.06,0.27,0.11,0.36c0.05,0.09,0.14,0.17,0.28,0.23c0.14,0.07,0.29,0.13,0.44,0.18
					c0.05,0.02,0.09,0.03,0.13,0.05c0.04,0.01,0.08,0.03,0.12,0.03l0.4,0.12h-3.77l0.25-0.11c0.05-0.01,0.09-0.02,0.14-0.04
					c0.04-0.02,0.09-0.04,0.14-0.06c0.16-0.06,0.32-0.13,0.47-0.21c0.15-0.07,0.25-0.16,0.31-0.26c0.05-0.08,0.08-0.23,0.09-0.44
					c0.02-0.21,0.03-0.43,0.04-0.67c0-0.11,0-0.22,0-0.33c0-0.11,0-0.21,0-0.3v-7.82h0.84c0.11,0.13,0.23,0.28,0.38,0.46
					c0.14,0.18,0.34,0.39,0.58,0.63c0.41,0.4,0.85,0.83,1.34,1.31c0.49,0.48,0.98,0.97,1.48,1.47c1.02,1.02,1.98,1.98,2.87,2.86
					c0.89,0.89,1.44,1.42,1.64,1.59v-5.89c0-0.06,0-0.14,0-0.21c0-0.08,0-0.16,0-0.24c0-0.08,0-0.16,0-0.24s0-0.15,0-0.23
					c0-0.18-0.01-0.35-0.02-0.51c-0.01-0.15-0.03-0.26-0.07-0.33c-0.05-0.09-0.14-0.17-0.28-0.23c-0.14-0.07-0.29-0.13-0.44-0.18
					c-0.02-0.01-0.03-0.02-0.04-0.02c-0.01,0-0.02-0.01-0.03-0.01c-0.05-0.02-0.1-0.04-0.14-0.05c-0.05-0.02-0.1-0.04-0.15-0.06
					l-0.25-0.12h3.77l-0.41,0.17c-0.03,0.02-0.06,0.03-0.08,0.04c-0.02,0.01-0.05,0.02-0.08,0.03c-0.15,0.07-0.29,0.13-0.41,0.19
					c-0.12,0.06-0.23,0.14-0.33,0.23c-0.05,0.05-0.08,0.15-0.11,0.33c-0.02,0.17-0.04,0.35-0.05,0.55
					c-0.01,0.11-0.01,0.22-0.01,0.33c0,0.11,0,0.2,0,0.28c0,0.09,0,0.19,0,0.29v7.84h-0.69C65.67,40.17,65.19,39.66,64.98,39.44z"/>
			</g>
		</g>
	</g>
</g>
</svg>
