<?xml version="1.0" encoding="utf-8"?>
<!-- Generator: Adobe Illustrator 25.0.1, SVG Export Plug-In . SVG Version: 6.00 Build 0)  -->
<svg version="1.0" id="Layer_1" xmlns="http://www.w3.org/2000/svg" xmlns:xlink="http://www.w3.org/1999/xlink" x="0px" y="0px"
	 viewBox="0 0 34.07 31.63" style="enable-background:new 0 0 34.07 31.63;" xml:space="preserve">
<style type="text/css">
	.st0{fill:#000104;}
	.st1{fill:#FFFFFF;}
	.st2{fill:#EF493E;}
	.st3{opacity:0.6;fill-rule:evenodd;clip-rule:evenodd;fill:#FBBE43;}
	.st4{opacity:0.6;fill-rule:evenodd;clip-rule:evenodd;fill:#EF930E;}
	.st5{opacity:0.6;fill-rule:evenodd;clip-rule:evenodd;fill:#E67906;}
	.st6{fill:#9F8829;}
	.st7{fill:#3972A6;}
	.st8{fill:url(#SVGID_1_);stroke:#2B53A4;stroke-width:0.5;stroke-miterlimit:10;}
	.st9{fill:none;}
	.st10{fill:url(#SVGID_2_);}
	.st11{fill:url(#SVGID_3_);}
	.st12{fill:#B3B3B3;}
	.st13{fill:url(#SVGID_4_);}
	.st14{fill:url(#SVGID_5_);}
	.st15{fill:url(#SVGID_6_);}
	.st16{fill:#FFFFFF;stroke:#FFFFFF;stroke-width:0.25;stroke-miterlimit:10;}
	.st17{fill:#00001D;}
	.st18{fill:#4DA0C5;}
	.st19{fill:url(#SVGID_7_);}
	.st20{fill:#2E6A85;}
	.st21{fill:none;stroke:#144FA1;stroke-width:0.113;stroke-linejoin:round;stroke-miterlimit:10;}
	.st22{fill:#F27337;}
	.st23{fill:#8EB8D4;}
	.st24{fill:#F38056;}
	.st25{fill:#626365;}
	.st26{fill:#EF6D23;}
	.st27{fill:#284B82;}
	.st28{fill:#242956;}
	.st29{fill:#15142A;}
	.st30{fill:#84C343;}
	.st31{fill:#4CA1C6;}
	.st32{fill:#121617;}
	.st33{fill:#CF8966;}
	.st34{fill:#F37639;}
	.st35{opacity:0.3;fill:url(#SVGID_8_);}
	.st36{fill:#373277;}
	.st37{fill:#E61E25;}
	.st38{fill:#2555A5;}
	.st39{fill:#2E225E;}
	.st40{fill:#F8A425;}
	.st41{fill:#2058A7;}
	.st42{fill:none;stroke:#205AA8;stroke-width:0.156;stroke-miterlimit:10;}
	.st43{fill:#49A3C7;}
	.st44{fill-rule:evenodd;clip-rule:evenodd;}
	.st45{fill-rule:evenodd;clip-rule:evenodd;fill:url(#SVGID_9_);}
	.st46{fill-rule:evenodd;clip-rule:evenodd;fill:url(#SVGID_10_);}
	.st47{fill-rule:evenodd;clip-rule:evenodd;fill:url(#SVGID_11_);}
	.st48{fill:#1D2251;}
	.st49{fill:#2260AC;}
	.st50{fill:url(#SVGID_12_);}
	.st51{fill:#FFFFFC;}
	.st52{fill:#4C9FC5;}
	.st53{fill:#28306D;}
	.st54{fill:#4C9EC5;}
	.st55{fill:#28306E;}
	.st56{fill:#29306F;}
	.st57{fill:#F7F7FB;}
	.st58{fill:url(#SVGID_13_);}
	.st59{fill:url(#SVGID_14_);}
	.st60{fill:url(#SVGID_15_);}
	.st61{fill:url(#SVGID_16_);}
	.st62{fill:#10123C;}
	.st63{fill:#F5842C;}
	.st64{fill:#1F305E;}
	.st65{fill:#87BBD1;}
	.st66{fill:#203160;}
	.st67{fill:#235779;}
	.st68{fill:#359FA1;}
	.st69{fill:#A4D1A4;}
	.st70{fill:#B9DBBC;}
	.st71{fill:#C6DDCA;}
	.st72{fill:#662E14;}
	.st73{fill:#1D79A4;}
	.st74{fill:#C14B28;}
	.st75{fill:url(#SVGID_17_);}
	.st76{fill:url(#SVGID_18_);}
	.st77{fill:url(#SVGID_19_);}
	.st78{fill:url(#SVGID_20_);}
	.st79{fill:url(#SVGID_21_);}
	.st80{fill:url(#SVGID_22_);}
	.st81{fill:url(#SVGID_23_);}
	.st82{fill:url(#SVGID_24_);}
	.st83{fill:url(#SVGID_25_);}
	.st84{fill:url(#SVGID_26_);}
	.st85{fill:url(#SVGID_27_);}
	.st86{fill:url(#SVGID_28_);}
	.st87{fill:url(#SVGID_29_);}
	.st88{fill:url(#SVGID_30_);}
	.st89{fill:#1F164B;}
	.st90{clip-path:url(#SVGID_32_);fill:#253D97;}
	.st91{fill:url(#SVGID_33_);}
	.st92{fill:url(#SVGID_34_);}
	.st93{fill:url(#SVGID_35_);}
	.st94{fill:url(#SVGID_36_);}
	.st95{fill:url(#SVGID_37_);}
	.st96{fill:url(#SVGID_38_);}
	.st97{fill:url(#SVGID_39_);}
	.st98{fill:url(#SVGID_40_);}
	.st99{fill:url(#SVGID_41_);}
	.st100{fill:#443F41;}
	.st101{fill:#28306F;}
	.st102{fill:#71C49D;}
	.st103{fill:#F0C6A7;}
	.st104{fill:#DB8D82;}
	.st105{fill:#EFB7AC;}
	.st106{opacity:0.21;}
	.st107{fill-rule:evenodd;clip-rule:evenodd;fill:#A9196E;}
	.st108{fill-rule:evenodd;clip-rule:evenodd;fill:#FBE42C;}
	.st109{fill:#FBE42C;}
	.st110{fill:#A9196E;}
	.st111{fill:#7FC143;}
	.st112{clip-path:url(#SVGID_45_);fill:#7FC143;}
	.st113{clip-path:url(#SVGID_51_);fill:#7FC143;}
	.st114{fill:#243F8F;}
	.st115{fill:#EF4E2F;}
	.st116{fill:#010007;}
	.st117{fill:#0C0D37;}
	.st118{fill:#FBAF2D;}
	.st119{fill:url(#SVGID_54_);}
	.st120{fill-rule:evenodd;clip-rule:evenodd;fill:#FFFFFF;}
	.st121{fill:#1D4690;}
	.st122{fill:#3AA949;}
	.st123{fill:#F37A24;}
	.st124{fill:none;stroke:#F37A24;stroke-width:3.7145;stroke-miterlimit:10;}
	.st125{fill:#3AA949;stroke:#FFFFFF;stroke-width:1.3104;stroke-miterlimit:10;}
	.st126{fill:#46A2BB;}
	.st127{fill:#7153A0;}
	.st128{fill:#27316C;}
	.st129{fill:#2C65AE;}
	.st130{fill:#452D7A;}
	.st131{fill:#442C7A;}
	.st132{fill:#1A2642;}
	.st133{fill-rule:evenodd;clip-rule:evenodd;fill:#567EB8;}
	.st134{fill-rule:evenodd;clip-rule:evenodd;fill:#6A7EB8;}
	.st135{fill-rule:evenodd;clip-rule:evenodd;fill:#6A7EB9;}
	.st136{fill-rule:evenodd;clip-rule:evenodd;fill:#EE3C2D;}
	.st137{fill-rule:evenodd;clip-rule:evenodd;fill:#EF493F;}
	.st138{fill-rule:evenodd;clip-rule:evenodd;fill:#ED2C24;}
	.st139{fill-rule:evenodd;clip-rule:evenodd;fill:#E9AE28;}
	.st140{fill-rule:evenodd;clip-rule:evenodd;fill:#D69B28;}
	.st141{fill-rule:evenodd;clip-rule:evenodd;fill:#FCB729;}
	.st142{fill-rule:evenodd;clip-rule:evenodd;fill:#409E47;}
	.st143{fill-rule:evenodd;clip-rule:evenodd;fill:#4BB450;}
	.st144{fill-rule:evenodd;clip-rule:evenodd;fill:#338440;}
	.st145{fill:#C09C36;}
	.st146{fill:#1E552A;}
	.st147{clip-path:url(#SVGID_56_);fill:url(#SVGID_57_);}
	.st148{fill:#023A1E;}
	.st149{fill:#FFFFFA;}
	.st150{fill:#0D4F28;}
	.st151{fill:#0E5128;}
	.st152{fill:#0D4E27;}
	.st153{fill:#0E5229;}
	.st154{fill:#0E4823;}
	.st155{fill:#0E4C27;}
	.st156{fill:#F3F6E0;}
	.st157{fill:#0E4F28;}
	.st158{fill:#114823;}
	.st159{fill:#105229;}
	.st160{fill:#0A4A2B;}
	.st161{fill:#134F27;}
	.st162{fill:#165229;}
	.st163{fill:#0D5029;}
	.st164{fill:#0B4E2B;}
	.st165{fill:#105028;}
	.st166{fill:#0A492A;}
	.st167{fill:#E9F3E2;}
	.st168{fill:#144D26;}
	.st169{fill:#185C2F;}
	.st170{fill:#0F5028;}
	.st171{fill:#F3F8EA;}
	.st172{fill:#114D26;}
	.st173{fill:#70A685;}
	.st174{fill:#0D4F2A;}
	.st175{fill:#094A24;}
	.st176{fill:#0F4F27;}
	.st177{fill:#0A4C26;}
	.st178{fill:#A2D29A;}
	.st179{fill:#4D7E44;}
	.st180{fill:#E8F2E1;}
	.st181{fill:#EDF5E5;}
	.st182{fill:#E6F2E7;}
	.st183{fill:#E5F1DC;}
	.st184{fill:#E9F3E3;}
	.st185{fill:#E9F3E5;}
	.st186{fill:#E5F1DB;}
	.st187{fill:#D8ECD7;}
	.st188{fill:#D9EBD4;}
	.st189{fill:#E2F0DE;}
	.st190{fill:#366B4B;}
	.st191{fill:#5D6162;}
	.st192{fill:#212E5F;}
	.st193{fill:#DD1F26;}
	.st194{clip-path:url(#SVGID_59_);}
	.st195{fill:#23396F;}
	.st196{fill:#7FC24E;}
	.st197{clip-path:url(#SVGID_59_);fill:#23396F;}
	.st198{clip-path:url(#SVGID_59_);fill:#7FC24E;}
	.st199{fill:#91CEA4;}
	.st200{fill:#90CEA4;}
	.st201{fill:#C02026;}
	.st202{fill:#362E7E;}
</style>
<g>
	<path class="st6" d="M8.83,0.01c0.08-0.03,0.13,0.01,0.18,0.03c0.31,0.13,0.61,0.27,0.92,0.4c0.84,0.36,1.69,0.73,2.54,1.08
		c0.39,0.16,0.75,0.37,1.14,0.53c0.37,0.15,0.71,0.35,1.07,0.53c0.79,0.4,1.53,0.87,2.24,1.41c0.12,0.09,0.27,0.12,0.38,0.23
		c0.42,0.45,0.89,0.83,1.3,1.28c0.19,0.21,0.36,0.43,0.52,0.64c0.17,0.23,0.33,0.49,0.49,0.73c0.12,0.18,0.23,0.37,0.32,0.55
		c0.1,0.2,0.18,0.43,0.27,0.65c0.22,0.58,0.4,1.17,0.52,1.77c0.07,0.37,0.12,0.75,0.16,1.13c0.06,0.59,0.07,1.17,0.05,1.76
		c-0.02,0.53-0.06,1.06-0.14,1.59c-0.03,0.19-0.09,0.39-0.04,0.59c0.02,0.09-0.05,0.16-0.07,0.24c-0.05,0.27-0.11,0.53-0.16,0.8
		c-0.04,0.28-0.12,0.54-0.18,0.82c-0.04,0.2-0.11,0.39-0.11,0.6c0,0.14-0.12,0.25-0.14,0.39c-0.01,0.05-0.03,0.1-0.06,0.19
		c0.08-0.3,0.11-0.57,0.15-0.84c0.03-0.19,0.12-0.38,0.05-0.58c-0.02-0.06,0.05-0.1,0.05-0.16c-0.01-0.23,0-0.47,0.05-0.69
		c0.17-0.78,0.12-1.56,0.13-2.34c0.01-0.44-0.06-0.87-0.11-1.31c-0.04-0.36-0.1-0.71-0.16-1.06c-0.03-0.22-0.09-0.44-0.15-0.65
		c-0.12-0.4-0.23-0.8-0.38-1.19c-0.16-0.41-0.34-0.82-0.55-1.21c-0.29-0.53-0.63-1.03-1-1.5c-0.35-0.44-0.75-0.85-1.17-1.23
		c-0.29-0.26-0.58-0.53-0.9-0.75c-0.28-0.18-0.53-0.41-0.83-0.57c-0.4-0.21-0.75-0.5-1.17-0.68c-0.35-0.15-0.66-0.39-1.02-0.51
		c-0.33-0.11-0.62-0.32-0.96-0.42c-0.23-0.06-0.44-0.2-0.67-0.31c-0.19-0.09-0.39-0.13-0.58-0.23c-0.01-0.01-0.04-0.01-0.06,0
		c-0.03,0.03-0.01,0.05,0.01,0.08c0.19,0.37,0.36,0.76,0.52,1.15c0.09,0.23,0.18,0.45,0.27,0.68c0.14,0.37,0.25,0.74,0.38,1.12
		c0.11,0.31,0.19,0.62,0.3,0.93c0.1,0.27,0.13,0.56,0.21,0.84c0.1,0.33,0.16,0.66,0.25,0.99c0.07,0.27,0.12,0.56,0.17,0.83
		C12.9,8.71,13,9.06,13.05,9.42c0.05,0.37,0.12,0.73,0.19,1.09c0.04,0.24,0.04,0.5,0.16,0.73c0.05,0.1-0.02,0.2,0.01,0.3
		c0.1,0.35,0.1,0.71,0.19,1.06c0.09,0.37,0.14,0.75,0.24,1.12c0.07,0.27,0.13,0.55,0.21,0.82c0.07,0.24,0.13,0.48,0.28,0.69
		c0.03,0.04,0.05,0.08,0.05,0.14c0,0.02,0.01,0.05,0.02,0.07c0.13,0.15,0.16,0.37,0.32,0.49c0.07,0.05,0.06,0.15,0.13,0.21
		c0.14,0.12,0.25,0.25,0.41,0.36c-0.19-0.03-0.35-0.13-0.51-0.23c-0.48-0.32-0.79-0.79-1.01-1.29c-0.26-0.6-0.46-1.23-0.61-1.87
		c-0.12-0.48-0.24-0.96-0.35-1.44c-0.1-0.41-0.18-0.82-0.27-1.23c-0.05-0.22-0.09-0.45-0.16-0.67c-0.14-0.51-0.23-1.02-0.37-1.53
		c-0.11-0.4-0.21-0.8-0.33-1.2c-0.13-0.43-0.26-0.87-0.41-1.3c-0.15-0.44-0.3-0.87-0.45-1.31c-0.24-0.67-0.5-1.34-0.79-1.99
		c-0.32-0.7-0.62-1.41-0.99-2.09C8.95,0.24,8.91,0.12,8.83,0.01z"/>
	<path class="st6" d="M30.57,3.29C30.36,3.6,30.17,3.92,30,4.25c-0.27,0.52-0.49,1.06-0.67,1.62c-0.2,0.63-0.31,1.27-0.4,1.92
		c-0.04,0.3-0.04,0.6-0.07,0.9c-0.05,0.46-0.03,0.92-0.08,1.38c-0.02,0.15-0.02,0.32,0,0.48c0.02,0.22-0.01,0.45-0.03,0.67
		c-0.02,0.27-0.05,0.55-0.09,0.83c-0.07,0.41-0.13,0.82-0.25,1.22c-0.19,0.65-0.47,1.25-0.86,1.81c-0.27,0.39-0.58,0.74-0.92,1.07
		c-0.18,0.18-0.36,0.37-0.56,0.51c-0.24,0.17-0.48,0.35-0.73,0.51c-0.34,0.22-0.69,0.41-1.02,0.63c-0.23,0.16-0.49,0.22-0.72,0.37
		c-0.52,0.33-1.11,0.48-1.66,0.75c-0.16,0.08-0.34,0.11-0.51,0.17c0.1-0.09,0.22-0.17,0.33-0.21c0.44-0.17,0.84-0.39,1.24-0.64
		c0.38-0.24,0.78-0.47,1.12-0.76c0.4-0.35,0.84-0.66,1.16-1.09c0.23-0.31,0.53-0.57,0.7-0.91c0.16-0.32,0.42-0.59,0.52-0.94
		c0.07-0.26,0.16-0.51,0.27-0.75c0.2-0.44,0.28-0.9,0.37-1.37c0.04-0.19,0.14-0.39,0.05-0.59c0.1-0.11-0.01-0.25,0.07-0.38
		c0.06-0.08,0.02-0.23,0.02-0.33c0-0.19,0.01-0.38,0.04-0.55c0.04-0.22,0.01-0.44,0.05-0.66c0.03-0.16,0.05-0.32,0.05-0.47
		c0-0.22,0-0.45,0.03-0.65c0.03-0.21,0.07-0.43,0.1-0.64c0.03-0.23,0.09-0.45,0.12-0.68c0.02-0.18,0.06-0.36,0.16-0.52
		c0.07-0.11,0.11-0.23,0.12-0.37c0.01-0.14,0.14-0.22,0.2-0.34c0.04-0.07,0.08-0.14,0.1-0.22c-0.13-0.04-0.2,0.06-0.28,0.12
		c-0.4,0.32-0.84,0.59-1.24,0.92c-0.26,0.22-0.53,0.41-0.77,0.66c-0.1,0.11-0.26,0.17-0.39,0.28C25,8.46,24.45,8.99,23.93,9.55
		c-0.46,0.51-0.9,1.04-1.27,1.63c-0.19,0.31-0.37,0.62-0.5,0.97c-0.08,0.2-0.19,0.4-0.23,0.61c-0.05,0.31-0.16,0.62-0.17,0.94
		c-0.01,0.35,0.03,0.7,0.08,1.05c-0.17-0.42-0.18-0.86-0.17-1.31c0.02-0.55,0.16-1.07,0.33-1.6c0.22-0.66,0.6-1.23,0.95-1.81
		c0.24-0.41,0.57-0.76,0.86-1.13c0.23-0.29,0.49-0.55,0.74-0.82c0.16-0.16,0.3-0.34,0.47-0.49c0.4-0.36,0.79-0.74,1.2-1.09
		c0.24-0.21,0.5-0.42,0.74-0.64c0.16-0.15,0.35-0.27,0.53-0.4c0.42-0.31,0.83-0.64,1.26-0.94c0.45-0.32,0.9-0.64,1.36-0.95
		c0.14-0.1,0.28-0.19,0.43-0.29C30.55,3.27,30.56,3.28,30.57,3.29z"/>
	<path class="st6" d="M31.68,20.82c-0.34,0.35-0.66,0.71-1.02,1.04c-0.19,0.17-0.4,0.31-0.54,0.54c-0.03,0.05-0.12,0.07-0.18,0.1
		c-0.11,0.06-0.15,0.19-0.25,0.25c-0.56,0.37-1.09,0.78-1.67,1.11c-0.27,0.15-0.55,0.31-0.83,0.45c-0.64,0.32-1.3,0.56-1.99,0.77
		c-0.4,0.12-0.8,0.21-1.21,0.29c-0.34,0.06-0.68,0.12-1.02,0.15c-0.26,0.02-0.52,0.05-0.78,0.09c-0.21,0.03-0.43-0.01-0.64-0.01
		c-0.38,0-0.77,0.02-1.15,0.01c-0.39-0.01-0.79-0.03-1.18-0.08c-0.19-0.02-0.4-0.02-0.59-0.04c-0.25-0.02-0.49-0.03-0.74-0.08
		c-0.14-0.03-0.29-0.02-0.43-0.03c-0.4-0.05-0.81-0.05-1.21-0.12c-0.16-0.03-0.33-0.01-0.49-0.02c-0.7-0.07-1.4-0.13-2.09-0.08
		c-0.35,0.02-0.69,0.04-1.04,0.09c-0.33,0.04-0.67,0.09-1,0.16c-1.03,0.23-1.98,0.65-2.84,1.28c-0.25,0.18-0.48,0.38-0.71,0.58
		c-0.02,0.02-0.04,0.04-0.1,0.03c0.27-0.28,0.52-0.56,0.79-0.81c0.46-0.43,0.95-0.82,1.48-1.15c0.49-0.31,1-0.56,1.53-0.77
		c0.49-0.2,1.01-0.33,1.52-0.45c0.5-0.12,1-0.16,1.51-0.19c0.93-0.06,1.85-0.06,2.78,0.01c0.4,0.03,0.79,0.04,1.19,0.07
		c0.66,0.05,1.32,0.1,1.98,0.14c0.63,0.04,1.26,0.07,1.89,0.06c0.52,0,1.05-0.02,1.57-0.07c0.64-0.06,1.27-0.16,1.89-0.31
		c0.46-0.11,0.91-0.24,1.34-0.41c0.74-0.28,1.44-0.62,2.11-1.03c0.44-0.28,0.87-0.58,1.28-0.9c0.23-0.19,0.47-0.37,0.68-0.58
		C31.56,20.84,31.6,20.8,31.68,20.82z"/>
	<path class="st6" d="M28.02,18.39c-0.05,0.12-0.16,0.19-0.24,0.28c-0.37,0.4-0.77,0.78-1.17,1.15c-0.34,0.31-0.71,0.6-1.08,0.88
		c-0.47,0.36-0.98,0.66-1.49,0.96c-0.75,0.44-1.57,0.75-2.39,1.01c-0.34,0.11-0.69,0.2-1.05,0.26c-0.2,0.03-0.41,0.08-0.61,0.12
		c-0.46,0.08-0.93,0.12-1.4,0.14c-0.57,0.02-1.15,0.04-1.72,0.02c-0.68-0.03-1.36-0.07-2.04-0.13c-0.3-0.03-0.59-0.05-0.89-0.07
		C13.69,23,13.45,23,13.21,22.93c-0.14-0.04-0.3,0-0.46-0.03c-0.33-0.04-0.67-0.03-1-0.08c-0.64-0.09-1.29-0.09-1.93-0.05
		c-0.46,0.03-0.92,0.05-1.37,0.14c-0.38,0.08-0.76,0.14-1.13,0.25c-0.56,0.18-1.1,0.4-1.6,0.7c-0.47,0.28-0.91,0.59-1.3,0.97
		c-0.02,0.02-0.05,0.04-0.09,0.02c0.54-0.62,1.13-1.15,1.79-1.63c0.52-0.38,1.08-0.69,1.67-0.95c0.33-0.15,0.69-0.26,1.03-0.37
		c0.4-0.13,0.82-0.18,1.23-0.28c0.18-0.05,0.37-0.04,0.55-0.06c0.66-0.07,1.32-0.1,1.98-0.09c0.81,0.01,1.62,0.08,2.43,0.12
		c0.08,0,0.16,0.06,0.22-0.02c0.01-0.01,0.04-0.01,0.06,0c0.24,0.14,0.5,0.06,0.74,0.1c0.19,0.03,0.39,0.04,0.58,0.05
		c0.3,0.02,0.59,0.06,0.9,0.02c0.07-0.01,0.15,0.05,0.23,0.05c0.7,0.01,1.39,0.03,2.09-0.01c0.37-0.02,0.75-0.04,1.12-0.13
		c0.19-0.04,0.4-0.02,0.6-0.06c0.46-0.09,0.92-0.17,1.36-0.35c0.15-0.06,0.33-0.04,0.49-0.11c0.26-0.11,0.54-0.18,0.8-0.32
		c0.27-0.15,0.56-0.23,0.84-0.37c0.62-0.32,1.2-0.68,1.75-1.1c0.38-0.29,0.76-0.59,1.11-0.92C27.93,18.4,27.97,18.38,28.02,18.39
		L28.02,18.39z"/>
	<path class="st6" d="M14.94,20.69c-0.93,0.12-1.86,0.17-2.79,0.08c-0.38-0.04-0.77-0.08-1.14-0.15c-0.43-0.08-0.84-0.22-1.24-0.39
		c-0.48-0.2-0.94-0.44-1.36-0.75c-0.62-0.45-1.17-0.97-1.68-1.55c-0.4-0.46-0.78-0.94-1.16-1.41c-0.47-0.58-0.93-1.17-1.43-1.71
		c-0.41-0.45-0.84-0.88-1.3-1.28c-0.62-0.54-1.3-1.02-2.01-1.43C0.56,11.94,0.29,11.81,0,11.66c0.43-0.01,0.82,0.03,1.21,0.05
		c0.31,0.01,0.62,0.06,0.94,0.06c0.13,0,0.27,0.03,0.41,0.05c0.4,0.05,0.81,0.09,1.21,0.15c0.3,0.04,0.6,0.08,0.91,0.14
		c0.43,0.07,0.87,0.15,1.3,0.23c0.31,0.06,0.62,0.13,0.92,0.21c0.18,0.05,0.37,0.07,0.55,0.1c0.17,0.03,0.28,0.15,0.45,0.17
		c0.21,0.03,0.4,0.13,0.62,0.16c0.15,0.02,0.28,0.14,0.43,0.19c0.29,0.1,0.57,0.23,0.86,0.34c0.29,0.12,0.57,0.29,0.84,0.46
		c0.5,0.3,0.97,0.65,1.38,1.07c0.27,0.27,0.48,0.59,0.7,0.9c0.15,0.22,0.22,0.46,0.28,0.72c-0.07-0.1-0.14-0.2-0.19-0.31
		c-0.13-0.24-0.31-0.44-0.47-0.66c-0.2-0.27-0.45-0.47-0.7-0.67c-0.33-0.26-0.69-0.48-1.07-0.66c-0.3-0.14-0.61-0.28-0.92-0.4
		c-0.44-0.17-0.89-0.32-1.35-0.43C8,13.46,7.71,13.38,7.41,13.32c-0.33-0.07-0.65-0.13-0.98-0.16c-0.18-0.01-0.36-0.09-0.54-0.11
		c-0.3-0.04-0.6-0.07-0.9-0.12c-0.38-0.06-0.77-0.05-1.15-0.11c-0.16-0.03-0.33-0.08-0.51-0.02c0.06,0.11,0.18,0.14,0.28,0.2
		c0.25,0.15,0.47,0.34,0.68,0.53c0.55,0.5,0.96,1.11,1.37,1.71c0.3,0.44,0.58,0.89,0.87,1.33c0.24,0.37,0.48,0.76,0.78,1.08
		c0.29,0.31,0.52,0.67,0.84,0.96c0.74,0.67,1.53,1.24,2.48,1.56c0.13,0.05,0.29,0.07,0.42,0.11c0.09,0.02,0.18,0.09,0.28,0.12
		c0.43,0.13,0.87,0.22,1.32,0.24c0.22,0.01,0.43,0.07,0.65,0.06c0.23-0.01,0.46,0.02,0.69,0.02c0.24,0,0.47-0.02,0.71-0.03
		C14.79,20.69,14.87,20.69,14.94,20.69z"/>
	<path class="st6" d="M14.54,5.2c0.41,0.39,0.78,0.79,1.12,1.22c0.52,0.64,0.97,1.33,1.39,2.04c0.08,0.14,0.15,0.3,0.24,0.43
		c0.22,0.32,0.37,0.68,0.52,1.03c0.19,0.43,0.37,0.87,0.53,1.32c0.12,0.32,0.2,0.65,0.33,0.96c0.09,0.22,0.15,0.45,0.21,0.68
		c0.08,0.3,0.14,0.62,0.21,0.92c0.07,0.31,0.11,0.63,0.19,0.95c0.04,0.16,0.01,0.33,0.06,0.49c0.09,0.34,0.05,0.7,0.09,1.06
		c0.03,0.25,0.02,0.51-0.02,0.77c-0.03,0.17-0.03,0.35-0.04,0.52c-0.01,0.14-0.06,0.28-0.09,0.42c0-0.12-0.07-0.22-0.06-0.34
		c0.02-0.27-0.03-0.53-0.09-0.79c-0.02-0.1-0.05-0.21-0.04-0.33c0.02-0.17-0.03-0.34-0.06-0.51c-0.05-0.32-0.11-0.64-0.17-0.97
		c-0.06-0.28-0.12-0.57-0.19-0.85c-0.15-0.58-0.3-1.17-0.48-1.74c-0.1-0.31-0.19-0.62-0.3-0.92c-0.14-0.36-0.27-0.73-0.42-1.09
		c-0.09-0.21-0.14-0.44-0.29-0.62c-0.05-0.06-0.03-0.15-0.07-0.23c-0.18-0.4-0.38-0.79-0.58-1.19c-0.33-0.67-0.71-1.31-1.11-1.94
		c-0.26-0.41-0.55-0.8-0.84-1.19C14.54,5.28,14.54,5.25,14.54,5.2z"/>
	<path class="st6" d="M13.81,31.56c-0.1,0.13-0.17,0.01-0.25-0.03c0.01-0.3,0.15-0.55,0.26-0.82c0.1-0.24,0.22-0.48,0.32-0.72
		c0.01-0.03,0.06-0.07-0.02-0.1c-0.25-0.1-0.35-0.29-0.35-0.56c-0.09,0.06-0.13,0.15-0.19,0.23c-0.12,0.15-0.32,0.24-0.45,0.2
		c-0.14-0.05-0.28-0.3-0.26-0.44c0.06-0.42,0.22-0.8,0.5-1.12c0.2-0.23,0.41-0.48,0.76-0.47c0.23,0,0.29,0.13,0.3,0.35
		c0.01,0.38-0.27,0.65-0.32,1c-0.02,0.13-0.08,0.26-0.01,0.39c0.03,0.05,0.05,0.09,0.11,0.12c0.09,0.05,0.12,0.04,0.17-0.06
		c0.17-0.36,0.35-0.71,0.54-1.06c0.15-0.27,0.31-0.54,0.47-0.81c0.02-0.03,0.05-0.06,0.07-0.09c0.04-0.06,0.1-0.07,0.16-0.05
		c0.07,0.03,0.06,0.1,0.05,0.16c-0.02,0.12-0.12,0.19-0.14,0.31c0.08,0.04,0.12-0.05,0.19-0.06c0.14-0.02,0.28-0.06,0.38,0.04
		c0.1,0.1,0.09,0.23,0.06,0.37c-0.11,0.45-0.34,0.81-0.67,1.13c-0.17,0.17-0.36,0.26-0.6,0.27c-0.05,0-0.11-0.01-0.14-0.03
		c-0.12-0.1-0.14-0.01-0.18,0.07c-0.11,0.25-0.21,0.51-0.33,0.76C14.06,30.87,13.95,31.22,13.81,31.56z M15.85,28.32
		c0-0.12-0.06-0.16-0.17-0.14c-0.1,0.02-0.18,0.07-0.25,0.14c-0.32,0.27-0.48,0.65-0.67,1.01c-0.04,0.07,0.02,0.09,0.07,0.1
		c0.16,0.05,0.29-0.02,0.4-0.12c0.25-0.22,0.44-0.48,0.56-0.8C15.81,28.45,15.83,28.38,15.85,28.32z M13.2,29.21
		c0,0.09,0.01,0.15,0.08,0.19c0.07,0.04,0.13,0,0.18-0.04c0.13-0.11,0.21-0.26,0.3-0.4c0.15-0.24,0.23-0.53,0.42-0.75
		c0.04-0.05,0-0.07-0.03-0.1c-0.08-0.09-0.23-0.08-0.37,0.04c-0.2,0.17-0.33,0.38-0.44,0.61C13.27,28.9,13.21,29.06,13.2,29.21z"/>
	<path class="st6" d="M24.92,26.59c-0.07,0.04-0.12,0.08-0.18,0.11c-0.07,0.03-0.14,0.05-0.19-0.02c-0.04-0.06-0.07-0.12,0-0.21
		c0.14-0.21,0.36-0.29,0.56-0.41c0.08-0.05,0.07-0.12,0.11-0.18c0.03-0.05,0.03-0.12,0.11-0.12c0.07,0,0.16-0.02,0.19,0.08
		c0.02,0.07,0.08,0.05,0.13,0.04c0.3-0.11,0.61-0.13,0.9-0.02c0.12,0.05,0.22,0.17,0.28,0.3c0.15,0.36,0.05,0.67-0.11,1
		c-0.17,0.33-0.44,0.57-0.73,0.76c-0.35,0.22-0.75,0.38-1.19,0.35c-0.2-0.01-0.33,0.04-0.38,0.25c-0.05,0.21-0.19,0.37-0.26,0.57
		c-0.08,0.24-0.18,0.48-0.27,0.73c-0.02,0.06-0.04,0.12-0.08,0.16c-0.04,0.04-0.08,0.13-0.15,0.08c-0.06-0.05-0.14-0.08-0.13-0.2
		c0.02-0.2,0.08-0.4,0.15-0.56c0.15-0.34,0.31-0.67,0.48-1c0.04-0.07,0.05-0.12,0-0.2c-0.11-0.15-0.03-0.29,0.15-0.29
		c0.07,0,0.11-0.02,0.14-0.08c0.17-0.35,0.36-0.69,0.51-1.04C24.93,26.65,24.92,26.63,24.92,26.59z M24.99,27.93
		c0.29-0.02,0.57-0.15,0.83-0.32c0.37-0.24,0.67-0.53,0.81-0.96c0.09-0.29-0.02-0.46-0.31-0.51c-0.31-0.05-0.59,0.04-0.86,0.16
		c-0.04,0.02-0.06,0.06-0.08,0.1c-0.17,0.44-0.38,0.86-0.59,1.29c-0.11,0.22-0.1,0.24,0.15,0.25
		C24.95,27.93,24.95,27.93,24.99,27.93z"/>
	<path class="st6" d="M10.74,29.22c0,0.49,0.36,0.71,0.78,0.46c0.45-0.26,0.75-0.68,1.04-1.1c0.02-0.03,0.04-0.06,0.06-0.09
		c0.03-0.05,0.07-0.06,0.12-0.04c0.06,0.02,0.04,0.07,0.02,0.11c-0.07,0.2-0.2,0.37-0.32,0.54c-0.21,0.32-0.47,0.58-0.8,0.79
		c-0.18,0.12-0.38,0.18-0.59,0.22c-0.19,0.04-0.47-0.15-0.6-0.35c-0.2-0.34-0.14-0.69-0.03-1.04c0.21-0.67,0.58-1.26,1.01-1.81
		c0.33-0.43,0.7-0.84,1.2-1.1c0.12-0.06,0.25-0.09,0.39-0.09c0.28,0,0.46,0.23,0.41,0.53c-0.09,0.53-0.35,0.96-0.77,1.3
		c-0.08,0.07-0.17,0.11-0.26,0.01c-0.1-0.11-0.04-0.2,0.05-0.27c0.19-0.17,0.39-0.32,0.53-0.53c0.11-0.17,0.21-0.33,0.23-0.54
		c0.01-0.2-0.09-0.27-0.27-0.21c-0.17,0.06-0.3,0.16-0.43,0.27c-0.77,0.68-1.38,1.47-1.68,2.46C10.78,28.89,10.75,29.05,10.74,29.22
		z"/>
	<path class="st6" d="M29.61,29.73c-0.09,0.08-0.13,0.22-0.29,0.14c-0.18-0.09-0.3-0.22-0.3-0.38c0-0.06,0-0.12,0-0.23
		c-0.12,0.15-0.21,0.27-0.31,0.39c-0.12,0.13-0.34,0.15-0.48,0.04c-0.17-0.14-0.16-0.32-0.12-0.51c0.08-0.4,0.26-0.75,0.53-1.06
		c0.13-0.15,0.27-0.28,0.45-0.35c0.15-0.06,0.29-0.09,0.44,0.01c0.06,0.04,0.11,0.09,0.1,0.14c-0.04,0.2,0.01,0.4-0.09,0.6
		c-0.13,0.25-0.27,0.52-0.26,0.82c0,0.1,0.03,0.18,0.12,0.23c0.17,0.11,0.28,0.06,0.27-0.14c0-0.1,0.08-0.11,0.1-0.19
		c0.12-0.38,0.32-0.72,0.54-1.06c0.07-0.1,0.15-0.17,0.24-0.25c0.06-0.06,0.14-0.05,0.2,0.01c0.06,0.05,0.02,0.11-0.02,0.16
		c-0.1,0.16-0.25,0.28-0.31,0.47c0.1-0.08,0.21-0.16,0.3-0.25c0.18-0.18,0.39-0.32,0.59-0.47c0.07-0.05,0.15-0.08,0.21,0
		c0.07,0.09,0.02,0.15-0.04,0.2c-0.12,0.1-0.25,0.18-0.33,0.33c-0.02,0.04-0.06,0.07-0.02,0.12c0.05,0.05,0.1,0.04,0.15,0.01
		c0.12-0.06,0.26-0.11,0.36-0.2c0.05-0.04,0.11-0.05,0.16,0c0.05,0.05,0.02,0.1-0.01,0.13c-0.19,0.2-0.4,0.38-0.69,0.41
		c-0.22,0.02-0.3-0.05-0.34-0.25c-0.18,0.03-0.23,0.2-0.34,0.32c-0.14,0.16-0.27,0.31-0.37,0.49c-0.06,0.12-0.12,0.25-0.2,0.36
		c-0.03,0.05-0.07,0.12-0.16,0.11C29.64,29.88,29.63,29.81,29.61,29.73z M29.24,28.05c-0.06,0-0.12,0.02-0.17,0.05
		c-0.35,0.29-0.58,0.65-0.64,1.1c-0.01,0.07-0.01,0.15,0.06,0.19c0.08,0.04,0.14-0.01,0.19-0.05c0.15-0.12,0.23-0.29,0.32-0.45
		c0.12-0.21,0.2-0.44,0.34-0.64c0.03-0.04,0.08-0.07,0.04-0.13C29.36,28.08,29.31,28.05,29.24,28.05z"/>
	<path class="st6" d="M27.36,28.36c-0.26,0.13-0.44,0.33-0.6,0.56c-0.17,0.24-0.3,0.5-0.41,0.78c-0.03,0.07-0.07,0.14-0.17,0.11
		c-0.1-0.03-0.11-0.1-0.11-0.19c0-0.07,0.04-0.12,0.07-0.18c0.33-0.88,0.74-1.73,1.2-2.55c0.15-0.27,0.3-0.54,0.46-0.79
		c0.06-0.1,0.14-0.14,0.22-0.06c0.07,0.06,0.13,0.16,0.05,0.26c-0.27,0.35-0.47,0.74-0.69,1.12c-0.15,0.26-0.28,0.53-0.41,0.8
		c-0.02,0.03-0.04,0.09-0.02,0.11c0.05,0.04,0.08,0,0.11-0.04c0.13-0.17,0.31-0.27,0.49-0.37c0.07-0.04,0.14-0.06,0.21-0.06
		c0.12,0.01,0.19,0.11,0.14,0.22c-0.07,0.14-0.14,0.28-0.25,0.4c-0.17,0.21-0.3,0.44-0.37,0.71c-0.01,0.05-0.01,0.08,0.02,0.11
		c0.04,0.03,0.08,0.02,0.12-0.01c0.16-0.09,0.24-0.25,0.35-0.37c0.07-0.07,0.12-0.17,0.18-0.25c0.04-0.05,0.1-0.07,0.15-0.04
		c0.06,0.03,0.04,0.09,0.02,0.13c-0.18,0.36-0.38,0.71-0.76,0.9c-0.11,0.06-0.23,0.12-0.33,0.02c-0.09-0.09-0.12-0.2-0.09-0.35
		C27.02,28.95,27.21,28.67,27.36,28.36z"/>
	<path class="st6" d="M32.54,28.73c-0.23,0.21-0.44,0.43-0.53,0.75c-0.03,0.11-0.14,0.19-0.15,0.32c0,0.07-0.1,0.08-0.17,0.1
		c-0.06,0.02-0.09-0.05-0.13-0.08c0.05-0.08,0-0.18,0.03-0.26c0.15-0.38,0.3-0.75,0.49-1.11c0.1-0.18,0.22-0.33,0.35-0.48
		c0.05-0.06,0.13-0.15,0.21-0.07c0.06,0.06,0.01,0.15-0.04,0.22c-0.1,0.14-0.19,0.28-0.26,0.44c0.08,0.01,0.11-0.05,0.14-0.08
		c0.17-0.18,0.36-0.32,0.57-0.44c0.03-0.02,0.09-0.09,0.14-0.01c0.04,0.06,0.09,0.11,0.04,0.19c-0.07,0.09-0.13,0.18-0.19,0.27
		c-0.01,0.01-0.03,0.03,0,0.06c0.15-0.13,0.3-0.26,0.46-0.38c0.12-0.09,0.23-0.19,0.39-0.2c0.08-0.01,0.14,0.02,0.16,0.1
		c0.02,0.07,0.02,0.13-0.06,0.18c-0.13,0.08-0.19,0.22-0.28,0.33c-0.11,0.15-0.27,0.28-0.33,0.47c-0.05,0.17-0.09,0.32,0.03,0.48
		c0.09,0.12,0.08,0.29,0,0.34c-0.08,0.04-0.24-0.05-0.3-0.19c-0.11-0.24-0.11-0.49,0.01-0.73c0.04-0.07,0.1-0.14,0.09-0.25
		c-0.18,0.12-0.3,0.29-0.41,0.45c-0.1,0.14-0.22,0.28-0.26,0.47c-0.02,0.11-0.13,0.14-0.23,0.11c-0.1-0.02-0.05-0.11-0.05-0.16
		c0.01-0.2,0.12-0.36,0.19-0.54c0.03-0.09,0.1-0.16,0.12-0.26c0.02-0.01,0.05-0.03,0.02-0.05C32.57,28.69,32.55,28.71,32.54,28.73z
		 M33.26,28.68c0.01,0,0.02-0.01,0.02-0.01c-0.01-0.01-0.01-0.02-0.02-0.03c-0.01,0.01-0.02,0.01-0.02,0.02
		C33.25,28.66,33.26,28.67,33.26,28.68z"/>
	<path class="st6" d="M22.56,25.78c0.16,0,0.27,0.12,0.24,0.29c-0.08,0.4-0.31,0.72-0.52,1.05c-0.15,0.23-0.33,0.45-0.5,0.67
		c-0.13,0.16-0.28,0.32-0.44,0.45c-0.17,0.13-0.33,0.28-0.46,0.43c-0.09,0.11-0.17,0.29-0.19,0.46c0,0.04,0.02,0.09-0.03,0.12
		c-0.04,0.03-0.02,0.07,0,0.1c0.03,0.05,0.07,0.03,0.11,0.01c0.12-0.07,0.21-0.17,0.29-0.28c0.07-0.1,0.14-0.21,0.22-0.32
		c0.04-0.05,0.09-0.11,0.16-0.06c0.07,0.05,0.03,0.11,0,0.16c-0.13,0.32-0.37,0.56-0.61,0.79c-0.09,0.09-0.25,0.15-0.38,0.07
		c-0.13-0.08-0.14-0.21-0.12-0.36c0.02-0.21,0.11-0.4,0.17-0.6c0.11-0.38,0.32-0.71,0.49-1.07c0.23-0.5,0.54-0.95,0.88-1.38
		c0.14-0.18,0.29-0.34,0.47-0.47C22.4,25.79,22.48,25.78,22.56,25.78z M21.08,28.13c0.06,0.01,0.09-0.03,0.11-0.06
		c0.51-0.48,0.91-1.03,1.22-1.65c0.04-0.09,0.13-0.22,0.03-0.28c-0.09-0.06-0.18,0.06-0.24,0.13c-0.33,0.35-0.57,0.77-0.79,1.19
		C21.29,27.68,21.17,27.9,21.08,28.13z"/>
	<path class="st6" d="M25.92,9.02c-0.12,0.28-0.29,0.53-0.43,0.81c-0.17,0.33-0.34,0.66-0.51,0.99c-0.28,0.57-0.58,1.13-0.83,1.72
		c-0.18,0.43-0.35,0.86-0.49,1.31c-0.11,0.36-0.21,0.73-0.28,1.1c-0.06,0.34-0.07,0.68-0.07,1.02c-0.08-0.14-0.12-0.3-0.12-0.45
		c0-0.25-0.06-0.49-0.02-0.75c0.04-0.33,0.09-0.66,0.16-0.99c0.1-0.48,0.29-0.93,0.49-1.38c0.14-0.31,0.29-0.62,0.46-0.92
		c0.32-0.59,0.69-1.16,1.05-1.72c0.12-0.19,0.26-0.36,0.36-0.56C25.75,9.13,25.84,9.08,25.92,9.02L25.92,9.02z"/>
	<path class="st6" d="M7.25,14.9c0.21,0.06,0.44,0.09,0.62,0.19c0.38,0.22,0.79,0.36,1.18,0.56c0.43,0.22,0.85,0.43,1.26,0.68
		c0.2,0.12,0.39,0.27,0.59,0.38c0.2,0.1,0.37,0.24,0.55,0.38c0.38,0.3,0.67,0.69,0.97,1.07c0.22,0.28,0.32,0.6,0.43,0.93
		c0.01,0.04,0.01,0.07,0,0.12c-0.23-0.39-0.48-0.75-0.79-1.06c-0.22-0.23-0.45-0.46-0.71-0.65c-0.41-0.32-0.84-0.62-1.28-0.91
		c-0.4-0.26-0.81-0.52-1.23-0.76c-0.44-0.26-0.88-0.51-1.33-0.76C7.43,15,7.34,14.95,7.25,14.9z"/>
	<path class="st6" d="M17.77,27.87c-0.13-0.02-0.29,0-0.29-0.15c0-0.15,0.15-0.16,0.27-0.16c0.23,0,0.31-0.18,0.42-0.32
		c0.13-0.17,0.26-0.34,0.39-0.52c0.06-0.08,0.13-0.12,0.21-0.07c0.09,0.05,0.06,0.14,0.01,0.22c-0.07,0.11-0.15,0.23-0.22,0.34
		c-0.02,0.03-0.05,0.05-0.03,0.1c0.15-0.02,0.31-0.04,0.46-0.07c0.08-0.01,0.15,0,0.16,0.09c0.01,0.09-0.03,0.16-0.13,0.17
		c-0.22,0.02-0.43,0.13-0.65,0.16c-0.11,0.02-0.18,0.08-0.23,0.17c-0.19,0.31-0.31,0.65-0.46,0.98c-0.06,0.13-0.04,0.28-0.08,0.41
		c-0.02,0.06,0,0.14,0.07,0.17c0.09,0.04,0.17,0,0.23-0.07c0.15-0.16,0.29-0.33,0.41-0.51c0.05-0.08,0.08-0.22,0.21-0.14
		c0.14,0.09,0.01,0.19-0.04,0.27c-0.14,0.21-0.26,0.44-0.47,0.6c-0.09,0.07-0.18,0.14-0.3,0.17c-0.24,0.08-0.43-0.06-0.44-0.31
		c-0.01-0.39,0.11-0.76,0.27-1.11C17.63,28.17,17.7,28.03,17.77,27.87z"/>
	<path class="st6" d="M19.53,29.29c-0.05,0.08-0.11,0.15-0.16,0.23c-0.08,0.12-0.2,0.2-0.33,0.25c-0.16,0.06-0.37-0.13-0.38-0.32
		c-0.01-0.22,0.04-0.43,0.11-0.64c0.13-0.37,0.36-0.66,0.66-0.92c0.16-0.13,0.32-0.17,0.5-0.17c0.18,0,0.28,0.14,0.24,0.32
		c-0.01,0.06-0.04,0.11,0,0.17c0.04,0.07,0,0.14-0.03,0.2c-0.13,0.2-0.19,0.42-0.26,0.64c-0.03,0.09-0.04,0.19-0.05,0.29
		c0,0.1,0.03,0.19,0.13,0.23c0.1,0.05,0.2,0.1,0.12,0.24c-0.04,0.08-0.22,0.09-0.31,0.02C19.59,29.7,19.51,29.52,19.53,29.29z
		 M18.96,29.22c0,0.07,0.01,0.14,0.07,0.17c0.08,0.04,0.14,0,0.19-0.04c0.19-0.16,0.29-0.38,0.4-0.6c0.09-0.16,0.16-0.34,0.26-0.49
		c0.03-0.04,0.1-0.06,0.05-0.12c-0.04-0.05-0.08-0.09-0.15-0.09c-0.07,0-0.13,0.02-0.18,0.06C19.24,28.39,19.05,28.78,18.96,29.22z"
		/>
	<path class="st6" d="M17.04,27.87c0.12,0,0.16,0.07,0.09,0.19c-0.14,0.25-0.3,0.5-0.44,0.76c-0.16,0.29-0.25,0.62-0.37,0.93
		c-0.04,0.09-0.09,0.11-0.16,0.08c-0.06-0.03-0.13-0.08-0.1-0.18c0.16-0.58,0.4-1.12,0.77-1.6C16.89,27.97,16.92,27.86,17.04,27.87z
		"/>
	<path class="st6" d="M33.5,21.63c-0.08,0.04-0.1,0.12-0.12,0.18c-0.04,0.11-0.07,0.23-0.13,0.33c-0.02,0.04-0.01,0.12-0.08,0.11
		c-0.04-0.01-0.05-0.06-0.06-0.11c-0.04-0.13-0.07-0.28-0.18-0.39c-0.08,0.1-0.05,0.21-0.06,0.32c0,0.02,0.02,0.04,0,0.07
		c-0.02,0.03,0,0.11-0.07,0.1c-0.05-0.01-0.03-0.07-0.03-0.1c-0.03-0.2,0.06-0.39,0.04-0.6c-0.01-0.04,0.03-0.1,0.09-0.1
		c0.06,0,0.07,0.04,0.08,0.09c0.04,0.13,0.09,0.26,0.14,0.4c0.01,0.03-0.01,0.09,0.05,0.09c0.06,0,0.08-0.05,0.09-0.1
		c0.05-0.13,0.1-0.27,0.14-0.4c0.02-0.06,0.06-0.1,0.1-0.09c0.05,0.01,0.06,0.07,0.06,0.12c0.01,0.21,0.02,0.42,0.03,0.63
		c0,0.04,0,0.08-0.05,0.07c-0.04-0.01-0.04-0.04-0.04-0.07C33.56,22,33.49,21.82,33.5,21.63z"/>
	<path class="st6" d="M17.79,26.84c0,0.13-0.18,0.37-0.31,0.42c-0.14,0.05-0.24-0.02-0.22-0.18c0.02-0.14,0.2-0.35,0.34-0.39
		C17.71,26.67,17.8,26.74,17.79,26.84z"/>
	<path class="st6" d="M32.09,21.45c0.18,0,0.36,0,0.55,0c-0.01,0.07-0.07,0.06-0.11,0.05c-0.1-0.01-0.12,0.03-0.12,0.12
		c0.01,0.17,0,0.34,0,0.51c0,0.05,0.02,0.1-0.03,0.14c-0.05-0.04-0.04-0.09-0.04-0.14c0-0.11,0-0.21,0-0.32
		C32.34,21.56,32.34,21.56,32.09,21.45z"/>
	<path class="st6" d="M13.08,16.81c-0.01,0.01-0.02,0.03-0.02,0.03c-0.02,0-0.04-0.01-0.03-0.03c0-0.01,0.02-0.02,0.03-0.02
		C13.06,16.78,13.07,16.8,13.08,16.81z"/>
</g>
</svg>
