<?xml version="1.0" encoding="utf-8"?>
<!-- Generator: Adobe Illustrator 25.0.1, SVG Export Plug-In . SVG Version: 6.00 Build 0)  -->
<svg version="1.0" id="Layer_1" xmlns="http://www.w3.org/2000/svg" xmlns:xlink="http://www.w3.org/1999/xlink" x="0px" y="0px"
	 viewBox="0 0 49.91 31.62" style="enable-background:new 0 0 49.91 31.62;" xml:space="preserve">
<style type="text/css">
	.st0{fill:#000104;}
	.st1{fill:#FFFFFF;}
	.st2{fill:#EF493E;}
	.st3{opacity:0.6;fill-rule:evenodd;clip-rule:evenodd;fill:#FBBE43;}
	.st4{opacity:0.6;fill-rule:evenodd;clip-rule:evenodd;fill:#EF930E;}
	.st5{opacity:0.6;fill-rule:evenodd;clip-rule:evenodd;fill:#E67906;}
	.st6{fill:#9F8829;}
	.st7{fill:#3972A6;}
	.st8{fill:url(#SVGID_1_);stroke:#2B53A4;stroke-width:0.5;stroke-miterlimit:10;}
	.st9{fill:none;}
	.st10{fill:url(#SVGID_2_);}
	.st11{fill:url(#SVGID_3_);}
	.st12{fill:#B3B3B3;}
	.st13{fill:url(#SVGID_4_);}
	.st14{fill:url(#SVGID_5_);}
	.st15{fill:url(#SVGID_6_);}
	.st16{fill:#FFFFFF;stroke:#FFFFFF;stroke-width:0.25;stroke-miterlimit:10;}
	.st17{fill:#00001D;}
	.st18{fill:#4DA0C5;}
	.st19{fill:url(#SVGID_7_);}
	.st20{fill:#2E6A85;}
	.st21{fill:none;stroke:#144FA1;stroke-width:0.113;stroke-linejoin:round;stroke-miterlimit:10;}
	.st22{fill:#F27337;}
	.st23{fill:#8EB8D4;}
	.st24{fill:#F38056;}
	.st25{fill:#626365;}
	.st26{fill:#EF6D23;}
	.st27{fill:#284B82;}
	.st28{fill:#242956;}
	.st29{fill:#15142A;}
	.st30{fill:#84C343;}
	.st31{fill:#4CA1C6;}
	.st32{fill:#121617;}
	.st33{fill:#CF8966;}
	.st34{fill:#F37639;}
	.st35{opacity:0.3;fill:url(#SVGID_8_);}
	.st36{fill:#373277;}
	.st37{fill:#E61E25;}
	.st38{fill:#2555A5;}
	.st39{fill:#2E225E;}
	.st40{fill:#F8A425;}
	.st41{fill:#2058A7;}
	.st42{fill:none;stroke:#205AA8;stroke-width:0.156;stroke-miterlimit:10;}
	.st43{fill:#49A3C7;}
	.st44{fill-rule:evenodd;clip-rule:evenodd;}
	.st45{fill-rule:evenodd;clip-rule:evenodd;fill:url(#SVGID_9_);}
	.st46{fill-rule:evenodd;clip-rule:evenodd;fill:url(#SVGID_10_);}
	.st47{fill-rule:evenodd;clip-rule:evenodd;fill:url(#SVGID_11_);}
	.st48{fill:#1D2251;}
	.st49{fill:#2260AC;}
	.st50{fill:url(#SVGID_12_);}
	.st51{fill:#FFFFFC;}
	.st52{fill:#4C9FC5;}
	.st53{fill:#28306D;}
	.st54{fill:#4C9EC5;}
	.st55{fill:#28306E;}
	.st56{fill:#29306F;}
	.st57{fill:#F7F7FB;}
	.st58{fill:url(#SVGID_13_);}
	.st59{fill:url(#SVGID_14_);}
	.st60{fill:url(#SVGID_15_);}
	.st61{fill:url(#SVGID_16_);}
	.st62{fill:#10123C;}
	.st63{fill:#F5842C;}
	.st64{fill:#1F305E;}
	.st65{fill:#87BBD1;}
	.st66{fill:#203160;}
	.st67{fill:#235779;}
	.st68{fill:#359FA1;}
	.st69{fill:#A4D1A4;}
	.st70{fill:#B9DBBC;}
	.st71{fill:#C6DDCA;}
	.st72{fill:#662E14;}
	.st73{fill:#1D79A4;}
	.st74{fill:#C14B28;}
	.st75{fill:url(#SVGID_17_);}
	.st76{fill:url(#SVGID_18_);}
	.st77{fill:url(#SVGID_19_);}
	.st78{fill:url(#SVGID_20_);}
	.st79{fill:url(#SVGID_21_);}
	.st80{fill:url(#SVGID_22_);}
	.st81{fill:url(#SVGID_23_);}
	.st82{fill:url(#SVGID_24_);}
	.st83{fill:url(#SVGID_25_);}
	.st84{fill:url(#SVGID_26_);}
	.st85{fill:url(#SVGID_27_);}
	.st86{fill:url(#SVGID_28_);}
	.st87{fill:url(#SVGID_29_);}
	.st88{fill:url(#SVGID_30_);}
	.st89{fill:#1F164B;}
	.st90{clip-path:url(#SVGID_32_);fill:#253D97;}
	.st91{fill:url(#SVGID_33_);}
	.st92{fill:url(#SVGID_34_);}
	.st93{fill:url(#SVGID_35_);}
	.st94{fill:url(#SVGID_36_);}
	.st95{fill:url(#SVGID_37_);}
	.st96{fill:url(#SVGID_38_);}
	.st97{fill:url(#SVGID_39_);}
	.st98{fill:url(#SVGID_40_);}
	.st99{fill:url(#SVGID_41_);}
	.st100{fill:#443F41;}
	.st101{fill:#28306F;}
	.st102{fill:#71C49D;}
	.st103{fill:#F0C6A7;}
	.st104{fill:#DB8D82;}
	.st105{fill:#EFB7AC;}
	.st106{opacity:0.21;}
	.st107{fill-rule:evenodd;clip-rule:evenodd;fill:#A9196E;}
	.st108{fill-rule:evenodd;clip-rule:evenodd;fill:#FBE42C;}
	.st109{fill:#FBE42C;}
	.st110{fill:#A9196E;}
	.st111{fill:#7FC143;}
	.st112{clip-path:url(#SVGID_45_);fill:#7FC143;}
	.st113{clip-path:url(#SVGID_51_);fill:#7FC143;}
	.st114{fill:#243F8F;}
	.st115{fill:#EF4E2F;}
	.st116{fill:#010007;}
	.st117{fill:#0C0D37;}
	.st118{fill:#FBAF2D;}
	.st119{fill:url(#SVGID_54_);}
	.st120{fill-rule:evenodd;clip-rule:evenodd;fill:#FFFFFF;}
	.st121{fill:#1D4690;}
	.st122{fill:#3AA949;}
	.st123{fill:#F37A24;}
	.st124{fill:none;stroke:#F37A24;stroke-width:3.7145;stroke-miterlimit:10;}
	.st125{fill:#3AA949;stroke:#FFFFFF;stroke-width:1.3104;stroke-miterlimit:10;}
	.st126{fill:#46A2BB;}
	.st127{fill:#7153A0;}
	.st128{fill:#27316C;}
	.st129{fill:#2C65AE;}
	.st130{fill:#452D7A;}
	.st131{fill:#442C7A;}
	.st132{fill:#1A2642;}
	.st133{fill-rule:evenodd;clip-rule:evenodd;fill:#567EB8;}
	.st134{fill-rule:evenodd;clip-rule:evenodd;fill:#6A7EB8;}
	.st135{fill-rule:evenodd;clip-rule:evenodd;fill:#6A7EB9;}
	.st136{fill-rule:evenodd;clip-rule:evenodd;fill:#EE3C2D;}
	.st137{fill-rule:evenodd;clip-rule:evenodd;fill:#EF493F;}
	.st138{fill-rule:evenodd;clip-rule:evenodd;fill:#ED2C24;}
	.st139{fill-rule:evenodd;clip-rule:evenodd;fill:#E9AE28;}
	.st140{fill-rule:evenodd;clip-rule:evenodd;fill:#D69B28;}
	.st141{fill-rule:evenodd;clip-rule:evenodd;fill:#FCB729;}
	.st142{fill-rule:evenodd;clip-rule:evenodd;fill:#409E47;}
	.st143{fill-rule:evenodd;clip-rule:evenodd;fill:#4BB450;}
	.st144{fill-rule:evenodd;clip-rule:evenodd;fill:#338440;}
	.st145{fill:#C09C36;}
	.st146{fill:#1E552A;}
	.st147{clip-path:url(#SVGID_56_);fill:url(#SVGID_57_);}
	.st148{fill:#023A1E;}
	.st149{fill:#FFFFFA;}
	.st150{fill:#0D4F28;}
	.st151{fill:#0E5128;}
	.st152{fill:#0D4E27;}
	.st153{fill:#0E5229;}
	.st154{fill:#0E4823;}
	.st155{fill:#0E4C27;}
	.st156{fill:#F3F6E0;}
	.st157{fill:#0E4F28;}
	.st158{fill:#114823;}
	.st159{fill:#105229;}
	.st160{fill:#0A4A2B;}
	.st161{fill:#134F27;}
	.st162{fill:#165229;}
	.st163{fill:#0D5029;}
	.st164{fill:#0B4E2B;}
	.st165{fill:#105028;}
	.st166{fill:#0A492A;}
	.st167{fill:#E9F3E2;}
	.st168{fill:#144D26;}
	.st169{fill:#185C2F;}
	.st170{fill:#0F5028;}
	.st171{fill:#F3F8EA;}
	.st172{fill:#114D26;}
	.st173{fill:#70A685;}
	.st174{fill:#0D4F2A;}
	.st175{fill:#094A24;}
	.st176{fill:#0F4F27;}
	.st177{fill:#0A4C26;}
	.st178{fill:#A2D29A;}
	.st179{fill:#4D7E44;}
	.st180{fill:#E8F2E1;}
	.st181{fill:#EDF5E5;}
	.st182{fill:#E6F2E7;}
	.st183{fill:#E5F1DC;}
	.st184{fill:#E9F3E3;}
	.st185{fill:#E9F3E5;}
	.st186{fill:#E5F1DB;}
	.st187{fill:#D8ECD7;}
	.st188{fill:#D9EBD4;}
	.st189{fill:#E2F0DE;}
	.st190{fill:#366B4B;}
	.st191{fill:#5D6162;}
	.st192{fill:#212E5F;}
	.st193{fill:#DD1F26;}
	.st194{clip-path:url(#SVGID_59_);}
	.st195{fill:#23396F;}
	.st196{fill:#7FC24E;}
	.st197{clip-path:url(#SVGID_59_);fill:#23396F;}
	.st198{clip-path:url(#SVGID_59_);fill:#7FC24E;}
	.st199{fill:#91CEA4;}
	.st200{fill:#90CEA4;}
	.st201{fill:#C02026;}
	.st202{fill:#362E7E;}
</style>
<g>
	<polygon class="st20" points="1.92,31.57 1.92,30.86 2.62,30.86 2.62,30.58 1.92,30.58 1.92,30.19 2.73,30.19 2.73,29.9 1.59,29.9 
		1.59,31.57 	"/>
	<path class="st20" d="M3.35,30.69c0.06-0.06,0.13-0.1,0.21-0.1c0.08,0,0.15,0.03,0.21,0.1c0.06,0.06,0.08,0.16,0.08,0.27
		c0,0.12-0.03,0.22-0.08,0.28c-0.06,0.06-0.13,0.1-0.21,0.1c-0.08,0-0.15-0.03-0.21-0.1c-0.06-0.06-0.09-0.15-0.09-0.28
		C3.26,30.85,3.29,30.76,3.35,30.69 M3.01,31.31c0.05,0.1,0.13,0.17,0.23,0.22c0.1,0.05,0.21,0.08,0.32,0.08
		c0.18,0,0.33-0.06,0.45-0.18c0.12-0.12,0.18-0.27,0.18-0.46c0-0.18-0.06-0.33-0.18-0.45c-0.12-0.12-0.27-0.18-0.45-0.18
		c-0.12,0-0.23,0.03-0.32,0.08c-0.1,0.05-0.17,0.13-0.22,0.23c-0.05,0.1-0.08,0.2-0.08,0.31C2.93,31.09,2.96,31.21,3.01,31.31"/>
	<path class="st20" d="M4.74,31.2c0-0.21,0.01-0.34,0.03-0.4c0.02-0.07,0.04-0.11,0.08-0.14c0.03-0.02,0.07-0.04,0.11-0.04
		c0.05,0,0.1,0.02,0.15,0.05l0.1-0.28c-0.07-0.04-0.14-0.06-0.21-0.06c-0.05,0-0.1,0.01-0.14,0.04c-0.04,0.03-0.09,0.08-0.14,0.16
		v-0.17h-0.3v1.21h0.32V31.2z"/>
	<path class="st20" d="M6.31,30.36H5.99v1.21h0.32V30.36z M6.31,29.9H5.99v0.3h0.32V29.9z"/>
	<path class="st20" d="M7.74,30.82c0-0.09-0.01-0.17-0.02-0.22c-0.01-0.05-0.03-0.1-0.06-0.13c-0.03-0.04-0.07-0.07-0.13-0.1
		c-0.06-0.03-0.12-0.04-0.19-0.04c-0.16,0-0.29,0.07-0.4,0.21v-0.18h-0.3v1.21h0.32v-0.55c0-0.14,0.01-0.23,0.02-0.28
		C7,30.7,7.03,30.66,7.07,30.63c0.05-0.03,0.1-0.05,0.15-0.05c0.04,0,0.08,0.01,0.11,0.03c0.03,0.02,0.05,0.05,0.06,0.09
		c0.01,0.04,0.02,0.12,0.02,0.25v0.62h0.32V30.82z"/>
	<path class="st20" d="M9.17,30.82c0-0.09-0.01-0.17-0.02-0.22c-0.01-0.05-0.03-0.1-0.06-0.13c-0.03-0.04-0.07-0.07-0.13-0.1
		c-0.06-0.03-0.12-0.04-0.19-0.04c-0.16,0-0.29,0.07-0.4,0.21v-0.18h-0.3v1.21h0.32v-0.55c0-0.14,0.01-0.23,0.02-0.28
		c0.02-0.05,0.05-0.09,0.09-0.12c0.04-0.03,0.09-0.05,0.15-0.05c0.04,0,0.08,0.01,0.11,0.03c0.03,0.02,0.05,0.05,0.07,0.09
		c0.01,0.04,0.02,0.12,0.02,0.25v0.62h0.32V30.82z"/>
	<path class="st20" d="M9.83,30.69c0.06-0.06,0.13-0.1,0.21-0.1c0.08,0,0.15,0.03,0.21,0.1c0.06,0.06,0.09,0.16,0.09,0.27
		c0,0.12-0.03,0.22-0.09,0.28c-0.06,0.06-0.13,0.1-0.21,0.1c-0.08,0-0.15-0.03-0.21-0.1c-0.06-0.06-0.09-0.15-0.09-0.28
		C9.75,30.85,9.77,30.76,9.83,30.69 M9.5,31.31c0.05,0.1,0.13,0.17,0.23,0.22c0.1,0.05,0.21,0.08,0.32,0.08
		c0.18,0,0.33-0.06,0.45-0.18c0.12-0.12,0.18-0.27,0.18-0.46c0-0.18-0.06-0.33-0.18-0.45c-0.12-0.12-0.27-0.18-0.45-0.18
		c-0.12,0-0.23,0.03-0.32,0.08c-0.1,0.05-0.17,0.13-0.22,0.23c-0.05,0.1-0.08,0.2-0.08,0.31C9.42,31.09,9.44,31.21,9.5,31.31"/>
	<path class="st20" d="M11.54,31.57l0.48-1.21h-0.33l-0.23,0.62c-0.01,0.03-0.02,0.07-0.03,0.1c-0.01,0.02-0.02,0.05-0.03,0.1
		l-0.07-0.21l-0.23-0.62h-0.34l0.49,1.21H11.54z"/>
	<path class="st20" d="M12.88,31.06c0,0.08,0,0.13-0.01,0.15c-0.01,0.04-0.04,0.08-0.08,0.11c-0.05,0.04-0.11,0.06-0.16,0.06
		c-0.05,0-0.09-0.02-0.13-0.05c-0.03-0.03-0.05-0.07-0.05-0.12c0-0.04,0.02-0.08,0.06-0.11c0.03-0.02,0.09-0.04,0.17-0.06
		c0.09-0.02,0.16-0.04,0.2-0.05V31.06z M12.53,30.61c0.03-0.02,0.08-0.03,0.13-0.03c0.08,0,0.14,0.01,0.17,0.04
		c0.03,0.03,0.05,0.07,0.05,0.13v0.03c-0.06,0.02-0.16,0.05-0.31,0.08c-0.11,0.02-0.19,0.05-0.25,0.07
		c-0.06,0.03-0.1,0.07-0.14,0.12c-0.03,0.05-0.05,0.11-0.05,0.18c0,0.1,0.04,0.19,0.11,0.26c0.07,0.07,0.17,0.1,0.29,0.1
		c0.07,0,0.14-0.01,0.2-0.04c0.06-0.03,0.12-0.07,0.18-0.12c0,0.01,0.01,0.02,0.01,0.04c0.01,0.04,0.02,0.07,0.03,0.09h0.32
		c-0.03-0.06-0.05-0.11-0.06-0.16c-0.01-0.05-0.02-0.13-0.02-0.24l0-0.37c0-0.14-0.01-0.24-0.04-0.29
		c-0.03-0.05-0.08-0.09-0.15-0.13c-0.07-0.03-0.18-0.05-0.32-0.05c-0.16,0-0.27,0.03-0.35,0.08c-0.08,0.06-0.14,0.14-0.17,0.26
		l0.29,0.05C12.47,30.68,12.5,30.64,12.53,30.61"/>
	<path class="st20" d="M13.85,30.36v-0.43l-0.32,0.19v0.24h-0.15v0.26h0.15v0.53c0,0.11,0,0.19,0.01,0.23
		c0.01,0.05,0.02,0.09,0.04,0.12c0.02,0.03,0.06,0.06,0.1,0.08c0.05,0.02,0.1,0.03,0.16,0.03c0.1,0,0.18-0.02,0.25-0.05l-0.03-0.25
		c-0.06,0.02-0.1,0.03-0.13,0.03c-0.02,0-0.04-0.01-0.05-0.02c-0.01-0.01-0.02-0.02-0.03-0.04c-0.01-0.02-0.01-0.07-0.01-0.17v-0.49
		h0.22v-0.26H13.85z"/>
	<path class="st20" d="M14.61,30.36h-0.32v1.21h0.32V30.36z M14.61,29.9h-0.32v0.3h0.32V29.9z"/>
	<path class="st20" d="M15.56,31.57l0.48-1.21h-0.33l-0.23,0.62c-0.01,0.03-0.02,0.07-0.03,0.1c-0.01,0.02-0.02,0.05-0.03,0.1
		l-0.07-0.21l-0.23-0.62h-0.34l0.49,1.21H15.56z"/>
	<path class="st20" d="M16.48,30.87c0-0.09,0.02-0.16,0.07-0.21c0.05-0.05,0.1-0.08,0.17-0.08c0.06,0,0.12,0.02,0.17,0.07
		c0.05,0.05,0.07,0.12,0.07,0.21H16.48z M16.86,31.32c-0.03,0.03-0.08,0.04-0.13,0.04c-0.07,0-0.14-0.03-0.19-0.08
		c-0.05-0.05-0.08-0.13-0.08-0.22h0.8c0-0.25-0.05-0.43-0.15-0.55c-0.1-0.12-0.24-0.18-0.43-0.18c-0.16,0-0.29,0.06-0.4,0.17
		c-0.1,0.12-0.16,0.27-0.16,0.47c0,0.17,0.04,0.31,0.12,0.42c0.1,0.14,0.26,0.21,0.47,0.21c0.13,0,0.24-0.03,0.33-0.09
		c0.09-0.06,0.15-0.15,0.19-0.27l-0.32-0.05C16.92,31.25,16.9,31.29,16.86,31.32"/>
	<polygon class="st20" points="18.53,31.57 18.53,30.84 19.19,30.84 19.19,31.57 19.52,31.57 19.52,29.9 19.19,29.9 19.19,30.56 
		18.53,30.56 18.53,29.9 18.19,29.9 18.19,31.57 	"/>
	<path class="st20" d="M20.11,30.87c0-0.09,0.02-0.16,0.07-0.21c0.05-0.05,0.1-0.08,0.17-0.08c0.06,0,0.12,0.02,0.16,0.07
		c0.05,0.05,0.07,0.12,0.07,0.21H20.11z M20.49,31.32c-0.03,0.03-0.08,0.04-0.13,0.04c-0.07,0-0.14-0.03-0.18-0.08
		c-0.05-0.05-0.08-0.13-0.08-0.22h0.8c0-0.25-0.05-0.43-0.15-0.55c-0.1-0.12-0.24-0.18-0.43-0.18c-0.16,0-0.29,0.06-0.4,0.17
		c-0.1,0.12-0.16,0.27-0.16,0.47c0,0.17,0.04,0.31,0.12,0.42c0.1,0.14,0.26,0.21,0.47,0.21c0.13,0,0.24-0.03,0.33-0.09
		c0.09-0.06,0.16-0.15,0.2-0.27l-0.32-0.05C20.56,31.25,20.53,31.29,20.49,31.32"/>
	<path class="st20" d="M21.84,31.06c0,0.08,0,0.13-0.01,0.15c-0.01,0.04-0.04,0.08-0.08,0.11c-0.05,0.04-0.11,0.06-0.16,0.06
		c-0.05,0-0.09-0.02-0.13-0.05c-0.03-0.03-0.05-0.07-0.05-0.12c0-0.04,0.02-0.08,0.06-0.11c0.03-0.02,0.09-0.04,0.17-0.06
		c0.09-0.02,0.16-0.04,0.2-0.05V31.06z M21.49,30.61c0.03-0.02,0.08-0.03,0.13-0.03c0.08,0,0.14,0.01,0.17,0.04
		c0.03,0.03,0.05,0.07,0.05,0.13v0.03c-0.06,0.02-0.16,0.05-0.31,0.08c-0.11,0.02-0.19,0.05-0.25,0.07
		c-0.06,0.03-0.1,0.07-0.14,0.12c-0.03,0.05-0.05,0.11-0.05,0.18c0,0.1,0.04,0.19,0.11,0.26c0.07,0.07,0.17,0.1,0.29,0.1
		c0.07,0,0.14-0.01,0.2-0.04c0.06-0.03,0.12-0.07,0.18-0.12c0,0.01,0.01,0.02,0.01,0.04c0.01,0.04,0.02,0.07,0.03,0.09h0.32
		c-0.03-0.06-0.05-0.11-0.06-0.16c-0.01-0.05-0.02-0.13-0.02-0.24l0-0.37c0-0.14-0.01-0.24-0.04-0.29
		c-0.03-0.05-0.08-0.09-0.15-0.13c-0.07-0.03-0.17-0.05-0.32-0.05c-0.16,0-0.27,0.03-0.35,0.08c-0.08,0.06-0.14,0.14-0.17,0.26
		l0.29,0.05C21.43,30.68,21.45,30.64,21.49,30.61"/>
	<rect x="22.47" y="29.9" class="st20" width="0.32" height="1.67"/>
	<path class="st20" d="M23.45,30.36v-0.43l-0.32,0.19v0.24h-0.15v0.26h0.15v0.53c0,0.11,0,0.19,0.01,0.23
		c0.01,0.05,0.02,0.09,0.04,0.12c0.02,0.03,0.06,0.06,0.1,0.08c0.05,0.02,0.1,0.03,0.16,0.03c0.09,0,0.18-0.02,0.25-0.05l-0.03-0.25
		c-0.06,0.02-0.1,0.03-0.13,0.03c-0.02,0-0.04-0.01-0.05-0.02c-0.01-0.01-0.02-0.02-0.03-0.04c0-0.02-0.01-0.07-0.01-0.17v-0.49
		h0.22v-0.26H23.45z"/>
	<path class="st20" d="M23.89,29.9v1.67h0.32v-0.61c0-0.1,0.01-0.18,0.03-0.23c0.02-0.05,0.05-0.09,0.09-0.12
		c0.04-0.02,0.09-0.04,0.14-0.04c0.05,0,0.09,0.01,0.12,0.03c0.03,0.02,0.05,0.05,0.06,0.08c0.01,0.03,0.02,0.12,0.02,0.24v0.64H25
		v-0.71c0-0.11-0.01-0.19-0.02-0.24c-0.01-0.05-0.03-0.1-0.06-0.14c-0.03-0.04-0.07-0.08-0.13-0.1c-0.06-0.03-0.13-0.04-0.2-0.04
		c-0.15,0-0.27,0.06-0.37,0.18V29.9H23.89z"/>
	<path class="st20" d="M26.78,31.21c-0.05,0.04-0.11,0.08-0.15,0.1c-0.05,0.02-0.09,0.03-0.15,0.03c-0.08,0-0.14-0.02-0.18-0.07
		c-0.04-0.04-0.07-0.1-0.07-0.17c0-0.05,0.02-0.11,0.06-0.16c0.04-0.05,0.09-0.1,0.17-0.14L26.78,31.21z M26.5,30.37
		c-0.05-0.06-0.08-0.1-0.08-0.14c0-0.03,0.02-0.06,0.04-0.09c0.03-0.02,0.07-0.04,0.12-0.04c0.05,0,0.09,0.02,0.12,0.04
		c0.03,0.03,0.05,0.06,0.05,0.11c0,0.05-0.03,0.1-0.09,0.15l-0.09,0.07L26.5,30.37z M27.32,31.29c-0.06-0.04-0.1-0.08-0.14-0.11
		c0.02-0.03,0.05-0.07,0.07-0.12c0.02-0.04,0.05-0.12,0.07-0.22l-0.29-0.07c-0.02,0.08-0.04,0.14-0.07,0.19l-0.23-0.31
		c0.12-0.08,0.2-0.15,0.24-0.21c0.04-0.06,0.06-0.12,0.06-0.19c0-0.11-0.04-0.2-0.12-0.27c-0.08-0.07-0.2-0.11-0.34-0.11
		c-0.15,0-0.27,0.04-0.35,0.11c-0.08,0.07-0.12,0.16-0.12,0.26c0,0.06,0.01,0.11,0.04,0.17c0.03,0.06,0.07,0.13,0.13,0.19
		c-0.13,0.06-0.22,0.14-0.29,0.22c-0.06,0.08-0.09,0.18-0.09,0.29c0,0.12,0.04,0.22,0.12,0.31c0.1,0.12,0.26,0.18,0.47,0.18
		c0.1,0,0.19-0.02,0.27-0.04c0.08-0.03,0.15-0.08,0.22-0.14c0.09,0.08,0.18,0.15,0.28,0.19l0.19-0.25
		C27.42,31.36,27.38,31.33,27.32,31.29"/>
	<polygon class="st20" points="28.91,31.57 29.24,30.33 29.57,31.57 29.93,31.57 30.34,29.9 30,29.9 29.74,31.07 29.45,29.9 
		29.05,29.9 28.74,31.05 28.49,29.9 28.14,29.9 28.54,31.57 	"/>
	<path class="st20" d="M30.7,30.87c0-0.09,0.02-0.16,0.07-0.21c0.05-0.05,0.1-0.08,0.17-0.08c0.06,0,0.12,0.02,0.17,0.07
		c0.05,0.05,0.07,0.12,0.07,0.21H30.7z M31.09,31.32c-0.03,0.03-0.08,0.04-0.13,0.04c-0.07,0-0.14-0.03-0.18-0.08
		c-0.05-0.05-0.08-0.13-0.08-0.22h0.8c0-0.25-0.05-0.43-0.15-0.55c-0.1-0.12-0.24-0.18-0.43-0.18c-0.16,0-0.29,0.06-0.4,0.17
		c-0.1,0.12-0.16,0.27-0.16,0.47c0,0.17,0.04,0.31,0.12,0.42c0.1,0.14,0.26,0.21,0.47,0.21c0.13,0,0.24-0.03,0.33-0.09
		c0.09-0.06,0.15-0.15,0.2-0.27l-0.32-0.05C31.15,31.25,31.12,31.29,31.09,31.32"/>
	<rect x="31.76" y="29.9" class="st20" width="0.32" height="1.67"/>
	<rect x="32.41" y="29.9" class="st20" width="0.32" height="1.67"/>
	<path class="st20" d="M34.16,30.82c0-0.09-0.01-0.17-0.02-0.22c-0.01-0.05-0.03-0.1-0.06-0.13c-0.03-0.04-0.07-0.07-0.13-0.1
		c-0.06-0.03-0.12-0.04-0.19-0.04c-0.16,0-0.29,0.07-0.4,0.21v-0.18h-0.3v1.21h0.32v-0.55c0-0.14,0.01-0.23,0.02-0.28
		c0.02-0.05,0.05-0.09,0.09-0.12c0.05-0.03,0.1-0.05,0.15-0.05c0.04,0,0.08,0.01,0.11,0.03c0.03,0.02,0.05,0.05,0.07,0.09
		c0.01,0.04,0.02,0.12,0.02,0.25v0.62h0.32V30.82z"/>
	<path class="st20" d="M34.73,30.87c0-0.09,0.02-0.16,0.07-0.21c0.05-0.05,0.1-0.08,0.17-0.08c0.06,0,0.12,0.02,0.17,0.07
		c0.05,0.05,0.07,0.12,0.07,0.21H34.73z M35.11,31.32c-0.03,0.03-0.08,0.04-0.13,0.04c-0.07,0-0.14-0.03-0.18-0.08
		c-0.05-0.05-0.08-0.13-0.08-0.22h0.8c0-0.25-0.05-0.43-0.15-0.55c-0.1-0.12-0.24-0.18-0.43-0.18c-0.16,0-0.29,0.06-0.4,0.17
		c-0.1,0.12-0.16,0.27-0.16,0.47c0,0.17,0.04,0.31,0.12,0.42c0.1,0.14,0.26,0.21,0.47,0.21c0.13,0,0.24-0.03,0.33-0.09
		c0.09-0.06,0.15-0.15,0.19-0.27l-0.32-0.05C35.17,31.25,35.14,31.29,35.11,31.32"/>
	<path class="st20" d="M35.86,31.5c0.1,0.07,0.23,0.1,0.39,0.1c0.18,0,0.32-0.04,0.41-0.12c0.09-0.08,0.14-0.17,0.14-0.29
		c0-0.1-0.03-0.18-0.1-0.24c-0.07-0.06-0.19-0.1-0.36-0.14c-0.17-0.04-0.27-0.07-0.3-0.09c-0.02-0.01-0.03-0.04-0.03-0.06
		c0-0.03,0.01-0.05,0.04-0.06c0.04-0.02,0.1-0.03,0.18-0.03c0.07,0,0.12,0.01,0.16,0.04c0.03,0.03,0.06,0.06,0.07,0.11l0.3-0.06
		c-0.03-0.11-0.09-0.19-0.17-0.24c-0.08-0.06-0.21-0.08-0.37-0.08c-0.17,0-0.3,0.03-0.38,0.11c-0.08,0.07-0.12,0.16-0.12,0.27
		c0,0.11,0.05,0.21,0.14,0.27c0.07,0.05,0.23,0.1,0.49,0.16c0.06,0.01,0.09,0.02,0.11,0.04c0.02,0.01,0.02,0.03,0.02,0.06
		c0,0.04-0.01,0.06-0.04,0.09c-0.04,0.03-0.1,0.05-0.19,0.05c-0.07,0-0.13-0.02-0.17-0.05c-0.04-0.03-0.07-0.08-0.08-0.14
		l-0.32,0.05C35.7,31.34,35.76,31.43,35.86,31.5"/>
	<path class="st20" d="M37.16,31.5c0.1,0.07,0.23,0.1,0.39,0.1c0.18,0,0.32-0.04,0.41-0.12c0.09-0.08,0.14-0.17,0.14-0.29
		c0-0.1-0.03-0.18-0.1-0.24c-0.07-0.06-0.19-0.1-0.36-0.14c-0.17-0.04-0.27-0.07-0.3-0.09c-0.02-0.01-0.03-0.04-0.03-0.06
		c0-0.03,0.01-0.05,0.04-0.06c0.04-0.02,0.1-0.03,0.18-0.03c0.07,0,0.12,0.01,0.16,0.04c0.03,0.03,0.06,0.06,0.07,0.11l0.3-0.06
		c-0.03-0.11-0.09-0.19-0.17-0.24c-0.08-0.06-0.21-0.08-0.37-0.08c-0.17,0-0.3,0.03-0.39,0.11c-0.08,0.07-0.12,0.16-0.12,0.27
		c0,0.11,0.05,0.21,0.14,0.27c0.07,0.05,0.23,0.1,0.49,0.16c0.05,0.01,0.09,0.02,0.11,0.04c0.02,0.01,0.02,0.03,0.02,0.06
		c0,0.04-0.01,0.06-0.04,0.09c-0.04,0.03-0.1,0.05-0.19,0.05c-0.07,0-0.13-0.02-0.17-0.05c-0.04-0.03-0.07-0.08-0.08-0.14
		l-0.32,0.05C37,31.34,37.06,31.43,37.16,31.5"/>
	<path class="st20" d="M39.53,30.19c0.12,0,0.2,0,0.24,0.01c0.05,0.01,0.1,0.03,0.14,0.07c0.04,0.04,0.05,0.09,0.05,0.15
		c0,0.05-0.01,0.09-0.04,0.13c-0.03,0.04-0.06,0.07-0.11,0.08c-0.05,0.02-0.14,0.03-0.27,0.03h-0.19v-0.48H39.53z M39.37,31.57
		v-0.63h0.22c0.15,0,0.27-0.01,0.35-0.02c0.06-0.01,0.12-0.04,0.17-0.08c0.06-0.04,0.11-0.09,0.14-0.16
		c0.04-0.07,0.06-0.16,0.06-0.26c0-0.13-0.03-0.24-0.1-0.32c-0.06-0.08-0.15-0.14-0.24-0.16c-0.06-0.02-0.2-0.02-0.4-0.02h-0.54
		v1.67H39.37z"/>
	<path class="st20" d="M40.89,31.2c0-0.21,0.01-0.34,0.03-0.4c0.02-0.07,0.04-0.11,0.08-0.14c0.03-0.02,0.07-0.04,0.11-0.04
		c0.05,0,0.1,0.02,0.15,0.05l0.1-0.28c-0.07-0.04-0.14-0.06-0.21-0.06c-0.05,0-0.1,0.01-0.14,0.04c-0.04,0.03-0.09,0.08-0.14,0.16
		v-0.17h-0.3v1.21h0.32V31.2z"/>
	<path class="st20" d="M41.84,30.69c0.06-0.06,0.13-0.1,0.21-0.1c0.08,0,0.15,0.03,0.21,0.1c0.06,0.06,0.09,0.16,0.09,0.27
		c0,0.12-0.03,0.22-0.09,0.28c-0.06,0.06-0.13,0.1-0.21,0.1c-0.08,0-0.15-0.03-0.21-0.1c-0.06-0.06-0.09-0.15-0.09-0.28
		C41.75,30.85,41.78,30.76,41.84,30.69 M41.5,31.31c0.05,0.1,0.13,0.17,0.23,0.22c0.1,0.05,0.21,0.08,0.31,0.08
		c0.18,0,0.33-0.06,0.45-0.18c0.12-0.12,0.18-0.27,0.18-0.46c0-0.18-0.06-0.33-0.18-0.45c-0.12-0.12-0.27-0.18-0.45-0.18
		c-0.12,0-0.23,0.03-0.32,0.08c-0.1,0.05-0.17,0.13-0.22,0.23c-0.05,0.1-0.08,0.2-0.08,0.31C41.42,31.09,41.45,31.21,41.5,31.31"/>
	<path class="st20" d="M43.25,30.67c0.05-0.06,0.12-0.09,0.19-0.09c0.08,0,0.14,0.03,0.19,0.09c0.05,0.06,0.08,0.16,0.08,0.3
		c0,0.13-0.03,0.22-0.08,0.28c-0.05,0.06-0.11,0.09-0.19,0.09c-0.09,0-0.16-0.04-0.22-0.13c-0.04-0.06-0.05-0.15-0.05-0.28
		C43.18,30.82,43.2,30.73,43.25,30.67 M44.03,29.9h-0.32v0.6c-0.1-0.11-0.22-0.17-0.35-0.17c-0.15,0-0.27,0.05-0.37,0.16
		c-0.1,0.11-0.15,0.26-0.15,0.47c0,0.2,0.05,0.36,0.15,0.47c0.1,0.11,0.22,0.17,0.36,0.17c0.07,0,0.14-0.02,0.2-0.05
		c0.07-0.03,0.13-0.09,0.18-0.15v0.18h0.3V29.9z"/>
	<path class="st20" d="M45.44,31.57v-1.21h-0.32v0.51c0,0.17-0.01,0.28-0.03,0.32c-0.01,0.05-0.04,0.08-0.09,0.11
		c-0.04,0.03-0.09,0.05-0.15,0.05c-0.05,0-0.09-0.01-0.12-0.03c-0.03-0.02-0.05-0.05-0.07-0.09c-0.01-0.04-0.02-0.14-0.02-0.31
		v-0.55h-0.32v0.77c0,0.11,0.01,0.2,0.04,0.27c0.03,0.07,0.08,0.11,0.14,0.15c0.06,0.03,0.14,0.05,0.22,0.05
		c0.08,0,0.15-0.02,0.23-0.06c0.07-0.04,0.13-0.09,0.17-0.15v0.18H45.44z"/>
	<path class="st20" d="M46.64,30.43c-0.09-0.06-0.2-0.1-0.35-0.1c-0.18,0-0.32,0.06-0.43,0.17c-0.1,0.11-0.16,0.27-0.16,0.47
		c0,0.2,0.05,0.35,0.16,0.46c0.11,0.11,0.25,0.17,0.42,0.17c0.16,0,0.28-0.04,0.37-0.11c0.09-0.07,0.15-0.18,0.19-0.33l-0.31-0.05
		c-0.02,0.09-0.04,0.15-0.08,0.18c-0.04,0.03-0.09,0.05-0.15,0.05c-0.08,0-0.14-0.03-0.19-0.09c-0.05-0.06-0.07-0.16-0.07-0.3
		c0-0.13,0.02-0.22,0.07-0.28c0.05-0.05,0.11-0.08,0.19-0.08c0.06,0,0.11,0.02,0.15,0.05c0.04,0.03,0.06,0.08,0.07,0.14l0.32-0.06
		C46.79,30.59,46.73,30.49,46.64,30.43"/>
	<path class="st20" d="M47.41,30.36v-0.43l-0.32,0.19v0.24h-0.15v0.26h0.15v0.53c0,0.11,0,0.19,0.01,0.23
		c0.01,0.05,0.02,0.09,0.04,0.12c0.02,0.03,0.06,0.06,0.1,0.08c0.05,0.02,0.1,0.03,0.16,0.03c0.1,0,0.18-0.02,0.25-0.05l-0.03-0.25
		c-0.06,0.02-0.1,0.03-0.13,0.03c-0.02,0-0.04-0.01-0.05-0.02c-0.01-0.01-0.02-0.02-0.03-0.04c0-0.02-0.01-0.07-0.01-0.17v-0.49
		h0.22v-0.26H47.41z"/>
	<path class="st20" d="M31.66,25.95c-0.16-0.1-0.36-0.11-0.55-0.04c-0.06,0.02-0.14,0.11-0.15,0.17c-0.01,0.05,0.09,0.11,0.14,0.16
		c0.03,0.02,0.06,0.03,0.09,0.05c-0.22,0.35-0.64,0.53-0.99,0.44c-0.49-0.14-0.63-0.76-0.26-1.16c0.34-0.37,0.76-0.36,1.2-0.26
		c0.22,0.05,0.44,0.14,0.65,0.23c0.14,0.06,0.26,0.05,0.39-0.02c0.09-0.05,0.2-0.07,0.31-0.08c0.12-0.01,0.26,0,0.3,0.15
		c0.04,0.15-0.09,0.21-0.19,0.26c-0.06,0.03-0.12,0.06-0.18,0.06c-0.24-0.01-0.34,0.15-0.41,0.33c-0.04,0.12-0.07,0.24-0.11,0.36
		c0.18,0,0.34,0.02,0.49-0.01c0.07-0.01,0.14-0.11,0.17-0.18c0.21-0.41,0.45-0.8,0.81-1.1c0.25-0.21,0.53-0.37,0.87-0.35
		c0.1,0.01,0.22,0.04,0.3,0.1c0.07,0.05,0.13,0.18,0.11,0.25c-0.03,0.09-0.13,0.16-0.22,0.21c-0.06,0.03-0.15,0.01-0.22,0
		c-0.34-0.09-0.61,0.02-0.8,0.28c-0.32,0.44-0.52,0.92-0.55,1.47c0,0.05,0,0.11,0.01,0.16c0.04,0.13,0.1,0.22,0.26,0.14
		c0.04-0.02,0.08-0.03,0.12-0.04c0.13,0.45-0.33,1-0.77,0.93c-0.19-0.03-0.32-0.17-0.32-0.42c0-0.25,0.04-0.49,0.06-0.74
		c0.01-0.12,0.08-0.26-0.1-0.33c-0.14-0.05-0.31,0.01-0.39,0.17c-0.08,0.15-0.13,0.32-0.19,0.48c-0.13,0.41-0.3,0.79-0.66,1.06
		c-0.45,0.34-0.95,0.44-1.48,0.23c-0.59-0.24-0.64-0.85-0.43-1.3c0.19-0.43,0.6-0.6,1.04-0.68c0.23-0.04,0.31,0.09,0.22,0.3
		c-0.05,0.12-0.06,0.25,0.04,0.33c0.09,0.06,0.22,0.1,0.32,0.08c0.35-0.08,0.49-0.38,0.62-0.68C31.37,26.65,31.51,26.32,31.66,25.95
		"/>
	<path class="st20" d="M31.66,25.95c-0.16-0.1-0.36-0.11-0.55-0.04c-0.06,0.02-0.14,0.11-0.15,0.17c-0.01,0.05,0.09,0.11,0.14,0.16
		c0.03,0.02,0.06,0.03,0.09,0.05c-0.22,0.35-0.64,0.53-0.99,0.44c-0.49-0.14-0.63-0.76-0.26-1.16c0.34-0.37,0.76-0.36,1.2-0.26
		c0.22,0.05,0.44,0.14,0.65,0.23c0.14,0.06,0.26,0.05,0.39-0.02c0.09-0.05,0.2-0.07,0.31-0.08c0.12-0.01,0.26,0,0.3,0.15
		c0.04,0.15-0.09,0.21-0.19,0.26c-0.06,0.03-0.12,0.06-0.18,0.06c-0.24-0.01-0.34,0.15-0.41,0.33c-0.04,0.12-0.07,0.24-0.11,0.36
		c0.18,0,0.34,0.02,0.49-0.01c0.07-0.01,0.14-0.11,0.17-0.18c0.21-0.41,0.45-0.8,0.81-1.1c0.25-0.21,0.53-0.37,0.87-0.35
		c0.1,0.01,0.22,0.04,0.3,0.1c0.07,0.05,0.13,0.18,0.11,0.25c-0.03,0.09-0.13,0.16-0.22,0.21c-0.06,0.03-0.15,0.01-0.22,0
		c-0.34-0.09-0.61,0.02-0.8,0.28c-0.32,0.44-0.52,0.92-0.55,1.47c0,0.05,0,0.11,0.01,0.16c0.04,0.13,0.1,0.22,0.26,0.14
		c0.04-0.02,0.08-0.03,0.12-0.04c0.13,0.45-0.33,1-0.77,0.93c-0.19-0.03-0.32-0.17-0.32-0.42c0-0.25,0.04-0.49,0.06-0.74
		c0.01-0.12,0.08-0.26-0.1-0.33c-0.14-0.05-0.31,0.01-0.39,0.17c-0.08,0.15-0.13,0.32-0.19,0.48c-0.13,0.41-0.3,0.79-0.66,1.06
		c-0.45,0.34-0.95,0.44-1.48,0.23c-0.59-0.24-0.64-0.85-0.43-1.3c0.19-0.43,0.6-0.6,1.04-0.68c0.23-0.04,0.31,0.09,0.22,0.3
		c-0.05,0.12-0.06,0.25,0.04,0.33c0.09,0.06,0.22,0.1,0.32,0.08c0.35-0.08,0.49-0.38,0.62-0.68C31.37,26.65,31.51,26.32,31.66,25.95
		"/>
	<path class="st20" d="M1.46,27c-0.04,0.09-0.05,0.12-0.07,0.15c-0.09,0.13-0.12,0.28-0.01,0.38c0.08,0.07,0.24,0.1,0.35,0.08
		c0.12-0.03,0.26-0.11,0.33-0.21c0.12-0.16,0.2-0.35,0.28-0.53c0.13-0.31,0.24-0.63,0.36-0.94c-0.18-0.12-0.45-0.13-0.59-0.02
		c-0.05,0.04-0.11,0.12-0.1,0.18c0,0.05,0.09,0.09,0.15,0.13c0.03,0.02,0.06,0.02,0.09,0.04c-0.14,0.35-0.56,0.55-0.96,0.46
		c-0.29-0.06-0.54-0.38-0.52-0.69c0.03-0.29,0.2-0.51,0.45-0.65c0.34-0.2,0.7-0.18,1.06-0.07c0.1,0.03,0.2,0.05,0.29,0.09
		c0.21,0.1,0.39,0.09,0.59-0.03c0.08-0.05,0.22-0.05,0.31-0.03c0.19,0.06,0.21,0.26,0.05,0.38c-0.02,0.02-0.05,0.03-0.07,0.04
		c-0.37,0.06-0.43,0.35-0.5,0.64c-0.11,0.46-0.19,0.93-0.32,1.39c-0.22,0.77-0.96,1.25-1.76,1.14c-0.4-0.05-0.78-0.32-0.87-0.73
		c-0.09-0.43,0.08-0.84,0.5-1.06c0.2-0.11,0.43-0.15,0.65-0.2C1.25,26.93,1.34,26.98,1.46,27"/>
	<path class="st20" d="M1.46,27c-0.04,0.09-0.05,0.12-0.07,0.15c-0.09,0.13-0.12,0.28-0.01,0.38c0.08,0.07,0.24,0.1,0.35,0.08
		c0.12-0.03,0.26-0.11,0.33-0.21c0.12-0.16,0.2-0.35,0.28-0.53c0.13-0.31,0.24-0.63,0.36-0.94c-0.18-0.12-0.45-0.13-0.59-0.02
		c-0.05,0.04-0.11,0.12-0.1,0.18c0,0.05,0.09,0.09,0.15,0.13c0.03,0.02,0.06,0.02,0.09,0.04c-0.14,0.35-0.56,0.55-0.96,0.46
		c-0.29-0.06-0.54-0.38-0.52-0.69c0.03-0.29,0.2-0.51,0.45-0.65c0.34-0.2,0.7-0.18,1.06-0.07c0.1,0.03,0.2,0.05,0.29,0.09
		c0.21,0.1,0.39,0.09,0.59-0.03c0.08-0.05,0.22-0.05,0.31-0.03c0.19,0.06,0.21,0.26,0.05,0.38c-0.02,0.02-0.05,0.03-0.07,0.04
		c-0.37,0.06-0.43,0.35-0.5,0.64c-0.11,0.46-0.19,0.93-0.32,1.39c-0.22,0.77-0.96,1.25-1.76,1.14c-0.4-0.05-0.78-0.32-0.87-0.73
		c-0.09-0.43,0.08-0.84,0.5-1.06c0.2-0.11,0.43-0.15,0.65-0.2C1.25,26.93,1.34,26.98,1.46,27"/>
	<path class="st20" d="M42.15,26.82c0.09-0.05,0.16-0.09,0.23-0.12c0.07-0.04,0.14-0.08,0.22-0.1c0.44-0.08,0.62,0.11,0.54,0.55
		c-0.03,0.17-0.06,0.34-0.1,0.52c-0.05,0.28,0.01,0.33,0.28,0.28c0.03,0,0.05,0.01,0.09,0.01c-0.02,0.17-0.15,0.25-0.26,0.32
		c-0.21,0.12-0.43,0.22-0.67,0.1c-0.16-0.08-0.23-0.2-0.2-0.38c0.03-0.17,0.06-0.34,0.09-0.51c0.03-0.12,0.01-0.23-0.12-0.27
		c-0.13-0.04-0.24,0.03-0.28,0.15c-0.05,0.15-0.08,0.32-0.12,0.48c-0.03,0.11-0.06,0.23-0.09,0.34c-0.04,0.13-0.14,0.19-0.27,0.19
		c-0.14,0.01-0.29,0.02-0.46,0.03c0.04-0.14,0.08-0.25,0.1-0.37c0.14-0.65,0.28-1.29,0.4-1.94c0.03-0.15,0.02-0.3,0.03-0.5
		c0.12-0.05,0.27-0.13,0.44-0.16c0.26-0.05,0.37,0.1,0.31,0.35c-0.07,0.28-0.13,0.57-0.19,0.86C42.12,26.7,42.13,26.74,42.15,26.82"
		/>
	<path class="st20" d="M42.15,26.82c0.09-0.05,0.16-0.09,0.23-0.12c0.07-0.04,0.14-0.08,0.22-0.1c0.44-0.08,0.62,0.11,0.54,0.55
		c-0.03,0.17-0.06,0.34-0.1,0.52c-0.05,0.28,0.01,0.33,0.28,0.28c0.03,0,0.05,0.01,0.09,0.01c-0.02,0.17-0.15,0.25-0.26,0.32
		c-0.21,0.12-0.43,0.22-0.67,0.1c-0.16-0.08-0.23-0.2-0.2-0.38c0.03-0.17,0.06-0.34,0.09-0.51c0.03-0.12,0.01-0.23-0.12-0.27
		c-0.13-0.04-0.24,0.03-0.28,0.15c-0.05,0.15-0.08,0.32-0.12,0.48c-0.03,0.11-0.06,0.23-0.09,0.34c-0.04,0.13-0.14,0.19-0.27,0.19
		c-0.14,0.01-0.29,0.02-0.46,0.03c0.04-0.14,0.08-0.25,0.1-0.37c0.14-0.65,0.28-1.29,0.4-1.94c0.03-0.15,0.02-0.3,0.03-0.5
		c0.12-0.05,0.27-0.13,0.44-0.16c0.26-0.05,0.37,0.1,0.31,0.35c-0.07,0.28-0.13,0.57-0.19,0.86C42.12,26.7,42.13,26.74,42.15,26.82"
		/>
	<path class="st20" d="M46.97,25.76c0.19,0,0.36-0.03,0.5,0.01c0.21,0.05,0.24,0.28,0.09,0.43c-0.18,0.18-0.4,0.2-0.63,0.08
		c-0.06-0.03-0.14-0.05-0.2-0.04c-0.32,0.02-0.37-0.02-0.41-0.32c0-0.03-0.02-0.05-0.03-0.07c-0.26,0.05-0.4,0.35-0.38,0.79
		c0.14,0.02,0.28,0.03,0.42,0.05c0.05,0.16,0.03,0.31-0.11,0.37c-0.12,0.05-0.27,0.03-0.44,0.04c-0.04,0.16-0.09,0.33-0.13,0.49
		c-0.07,0.3-0.14,0.61-0.21,0.91c-0.06,0.22-0.15,0.28-0.37,0.29c-0.12,0.01-0.25,0.02-0.38,0.03c0.12-0.56,0.24-1.12,0.36-1.67
		c-0.28-0.23-0.26-0.3,0.02-0.51c0.09-0.06,0.12-0.19,0.18-0.29c0.06-0.12,0.11-0.25,0.2-0.35c0.19-0.22,0.39-0.44,0.7-0.49
		C46.48,25.45,46.8,25.44,46.97,25.76"/>
	<path class="st20" d="M46.97,25.76c0.19,0,0.36-0.03,0.5,0.01c0.21,0.05,0.24,0.28,0.09,0.43c-0.18,0.18-0.4,0.2-0.63,0.08
		c-0.06-0.03-0.14-0.05-0.2-0.04c-0.32,0.02-0.37-0.02-0.41-0.32c0-0.03-0.02-0.05-0.03-0.07c-0.26,0.05-0.4,0.35-0.38,0.79
		c0.14,0.02,0.28,0.03,0.42,0.05c0.05,0.16,0.03,0.31-0.11,0.37c-0.12,0.05-0.27,0.03-0.44,0.04c-0.04,0.16-0.09,0.33-0.13,0.49
		c-0.07,0.3-0.14,0.61-0.21,0.91c-0.06,0.22-0.15,0.28-0.37,0.29c-0.12,0.01-0.25,0.02-0.38,0.03c0.12-0.56,0.24-1.12,0.36-1.67
		c-0.28-0.23-0.26-0.3,0.02-0.51c0.09-0.06,0.12-0.19,0.18-0.29c0.06-0.12,0.11-0.25,0.2-0.35c0.19-0.22,0.39-0.44,0.7-0.49
		C46.48,25.45,46.8,25.44,46.97,25.76"/>
	<path class="st20" d="M11.34,28.42c0.07-0.55,0.31-1.06,0.28-1.63c0.38-0.26,0.59-0.27,0.84,0.01c0.06-0.03,0.12-0.06,0.18-0.09
		c0.12-0.04,0.24-0.09,0.37-0.11c0.31-0.04,0.54,0.16,0.45,0.5c-0.05,0.19-0.09,0.39-0.12,0.59c-0.04,0.25,0.01,0.29,0.27,0.25
		c0.03,0,0.07,0,0.1,0c0,0.04,0.01,0.07,0,0.09c-0.14,0.26-0.58,0.44-0.86,0.36c-0.24-0.07-0.31-0.18-0.28-0.42
		c0.02-0.16,0.06-0.32,0.1-0.49c0.02-0.11,0.03-0.23-0.1-0.28c-0.13-0.05-0.21,0.04-0.26,0.14c-0.05,0.1-0.09,0.2-0.11,0.31
		c-0.04,0.12-0.05,0.25-0.09,0.38c-0.09,0.32-0.12,0.34-0.46,0.36C11.55,28.4,11.46,28.41,11.34,28.42"/>
	<path class="st20" d="M11.34,28.42c0.07-0.55,0.31-1.06,0.28-1.63c0.38-0.26,0.59-0.27,0.84,0.01c0.06-0.03,0.12-0.06,0.18-0.09
		c0.12-0.04,0.24-0.09,0.37-0.11c0.31-0.04,0.54,0.16,0.45,0.5c-0.05,0.19-0.09,0.39-0.12,0.59c-0.04,0.25,0.01,0.29,0.27,0.25
		c0.03,0,0.07,0,0.1,0c0,0.04,0.01,0.07,0,0.09c-0.14,0.26-0.58,0.44-0.86,0.36c-0.24-0.07-0.31-0.18-0.28-0.42
		c0.02-0.16,0.06-0.32,0.1-0.49c0.02-0.11,0.03-0.23-0.1-0.28c-0.13-0.05-0.21,0.04-0.26,0.14c-0.05,0.1-0.09,0.2-0.11,0.31
		c-0.04,0.12-0.05,0.25-0.09,0.38c-0.09,0.32-0.12,0.34-0.46,0.36C11.55,28.4,11.46,28.41,11.34,28.42"/>
	<path class="st20" d="M21.66,26.78c0.37-0.25,0.53-0.26,0.81,0.03c0.07-0.04,0.14-0.1,0.23-0.11c0.17-0.04,0.36-0.08,0.53-0.08
		c0.18,0.01,0.29,0.19,0.25,0.38c-0.03,0.17-0.07,0.34-0.11,0.51c-0.02,0.07-0.04,0.14-0.05,0.21c-0.03,0.2,0.02,0.25,0.22,0.24
		c0.05,0,0.1-0.01,0.17-0.01c0,0.16-0.08,0.23-0.18,0.3c-0.21,0.14-0.44,0.22-0.7,0.15c-0.22-0.07-0.29-0.19-0.26-0.42
		c0.03-0.16,0.07-0.32,0.1-0.48c0.02-0.1,0.06-0.23-0.08-0.28c-0.12-0.05-0.26,0.04-0.31,0.2c-0.06,0.2-0.11,0.41-0.16,0.61
		c-0.07,0.29-0.16,0.36-0.45,0.38c-0.1,0-0.2,0.02-0.33,0.03c0.07-0.31,0.15-0.63,0.21-0.95C21.6,27.26,21.62,27.03,21.66,26.78"/>
	<path class="st20" d="M21.66,26.78c0.37-0.25,0.53-0.26,0.81,0.03c0.07-0.04,0.14-0.1,0.23-0.11c0.17-0.04,0.36-0.08,0.53-0.08
		c0.18,0.01,0.29,0.19,0.25,0.38c-0.03,0.17-0.07,0.34-0.11,0.51c-0.02,0.07-0.04,0.14-0.05,0.21c-0.03,0.2,0.02,0.25,0.22,0.24
		c0.05,0,0.1-0.01,0.17-0.01c0,0.16-0.08,0.23-0.18,0.3c-0.21,0.14-0.44,0.22-0.7,0.15c-0.22-0.07-0.29-0.19-0.26-0.42
		c0.03-0.16,0.07-0.32,0.1-0.48c0.02-0.1,0.06-0.23-0.08-0.28c-0.12-0.05-0.26,0.04-0.31,0.2c-0.06,0.2-0.11,0.41-0.16,0.61
		c-0.07,0.29-0.16,0.36-0.45,0.38c-0.1,0-0.2,0.02-0.33,0.03c0.07-0.31,0.15-0.63,0.21-0.95C21.6,27.26,21.62,27.03,21.66,26.78"/>
	<path class="st20" d="M3.2,28.38c0.03-0.55,0.31-1.04,0.22-1.56c0.41-0.3,0.56-0.3,0.87-0.02c0.06-0.03,0.13-0.07,0.21-0.09
		c0.14-0.04,0.28-0.1,0.42-0.1c0.31-0.01,0.44,0.15,0.38,0.45c-0.04,0.21-0.1,0.41-0.14,0.62c-0.05,0.26,0.01,0.31,0.27,0.28
		c0.03,0,0.05-0.01,0.08-0.01c0.01,0,0.01,0.01,0.05,0.04c-0.05,0.07-0.1,0.16-0.16,0.22c-0.08,0.07-0.18,0.12-0.29,0.16
		c-0.55,0.18-0.78-0.03-0.67-0.59c0.02-0.1,0.03-0.2,0.05-0.3c0.02-0.12,0.02-0.25-0.12-0.26c-0.09-0.01-0.21,0.08-0.25,0.16
		c-0.07,0.15-0.1,0.33-0.14,0.5c-0.01,0.05-0.01,0.11-0.02,0.16c-0.08,0.26-0.2,0.34-0.48,0.34C3.4,28.38,3.32,28.38,3.2,28.38"/>
	<path class="st20" d="M3.2,28.38c0.03-0.55,0.31-1.04,0.22-1.56c0.41-0.3,0.56-0.3,0.87-0.02c0.06-0.03,0.13-0.07,0.21-0.09
		c0.14-0.04,0.28-0.1,0.42-0.1c0.31-0.01,0.44,0.15,0.38,0.45c-0.04,0.21-0.1,0.41-0.14,0.62c-0.05,0.26,0.01,0.31,0.27,0.28
		c0.03,0,0.05-0.01,0.08-0.01c0.01,0,0.01,0.01,0.05,0.04c-0.05,0.07-0.1,0.16-0.16,0.22c-0.08,0.07-0.18,0.12-0.29,0.16
		c-0.55,0.18-0.78-0.03-0.67-0.59c0.02-0.1,0.03-0.2,0.05-0.3c0.02-0.12,0.02-0.25-0.12-0.26c-0.09-0.01-0.21,0.08-0.25,0.16
		c-0.07,0.15-0.1,0.33-0.14,0.5c-0.01,0.05-0.01,0.11-0.02,0.16c-0.08,0.26-0.2,0.34-0.48,0.34C3.4,28.38,3.32,28.38,3.2,28.38"/>
	<path class="st20" d="M47.38,28.25v-0.23c0.12-0.04,0.23-0.08,0.35-0.12c0.01-0.03,0.02-0.07,0.04-0.11
		c0.05-0.16,0.15-0.23,0.31-0.16c0.16,0.07,0.3,0.05,0.39-0.08c0.06-0.08,0.09-0.21,0.07-0.3c-0.02-0.07-0.13-0.12-0.22-0.16
		c-0.06-0.03-0.14-0.02-0.23-0.03c0.05-0.24,0.19-0.34,0.38-0.4c0.23-0.08,0.4-0.02,0.51,0.22c0.1-0.08,0.19-0.15,0.28-0.2
		c0.19-0.12,0.43-0.09,0.54,0.07c0.04,0.06,0.08,0.16,0.05,0.22c-0.02,0.06-0.12,0.1-0.19,0.12c-0.09,0.03-0.19,0.01-0.27,0.05
		c-0.15,0.06-0.21,0.2-0.17,0.36c0.04,0.16,0.16,0.22,0.31,0.21c0.1-0.01,0.19-0.03,0.31-0.05c0.02,0.06,0.05,0.11,0.04,0.16
		c-0.06,0.35-0.51,0.68-0.86,0.59c-0.08-0.02-0.15-0.11-0.21-0.17c-0.04-0.04-0.05-0.11-0.08-0.19c-0.17,0.16-0.28,0.36-0.54,0.38
		c-0.28,0.02-0.39-0.15-0.47-0.37C47.61,28.11,47.5,28.18,47.38,28.25L47.38,28.25z"/>
	<path class="st20" d="M47.38,28.25v-0.23c0.12-0.04,0.23-0.08,0.35-0.12c0.01-0.03,0.02-0.07,0.04-0.11
		c0.05-0.16,0.15-0.23,0.31-0.16c0.16,0.07,0.3,0.05,0.39-0.08c0.06-0.08,0.09-0.21,0.07-0.3c-0.02-0.07-0.13-0.12-0.22-0.16
		c-0.06-0.03-0.14-0.02-0.23-0.03c0.05-0.24,0.19-0.34,0.38-0.4c0.23-0.08,0.4-0.02,0.51,0.22c0.1-0.08,0.19-0.15,0.28-0.2
		c0.19-0.12,0.43-0.09,0.54,0.07c0.04,0.06,0.08,0.16,0.05,0.22c-0.02,0.06-0.12,0.1-0.19,0.12c-0.09,0.03-0.19,0.01-0.27,0.05
		c-0.15,0.06-0.21,0.2-0.17,0.36c0.04,0.16,0.16,0.22,0.31,0.21c0.1-0.01,0.19-0.03,0.31-0.05c0.02,0.06,0.05,0.11,0.04,0.16
		c-0.06,0.35-0.51,0.68-0.86,0.59c-0.08-0.02-0.15-0.11-0.21-0.17c-0.04-0.04-0.05-0.11-0.08-0.19c-0.17,0.16-0.28,0.36-0.54,0.38
		c-0.28,0.02-0.39-0.15-0.47-0.37C47.61,28.11,47.5,28.18,47.38,28.25L47.38,28.25z"/>
	<path class="st20" d="M27.58,27.96c-0.11,0.24-0.31,0.33-0.52,0.39c-0.1,0.03-0.22,0.03-0.33,0.02c-0.25-0.02-0.39-0.22-0.34-0.46
		c0.14-0.58,0.28-1.15,0.41-1.73c0.03-0.16,0.03-0.32,0.05-0.54c0.11-0.04,0.25-0.12,0.41-0.16c0.25-0.06,0.38,0.05,0.32,0.3
		c-0.12,0.59-0.26,1.18-0.39,1.77c-0.01,0.05-0.02,0.09-0.03,0.13c-0.04,0.23,0.02,0.3,0.26,0.28
		C27.46,27.95,27.51,27.96,27.58,27.96"/>
	<path class="st20" d="M27.58,27.96c-0.11,0.24-0.31,0.33-0.52,0.39c-0.1,0.03-0.22,0.03-0.33,0.02c-0.25-0.02-0.39-0.22-0.34-0.46
		c0.14-0.58,0.28-1.15,0.41-1.73c0.03-0.16,0.03-0.32,0.05-0.54c0.11-0.04,0.25-0.12,0.41-0.16c0.25-0.06,0.38,0.05,0.32,0.3
		c-0.12,0.59-0.26,1.18-0.39,1.77c-0.01,0.05-0.02,0.09-0.03,0.13c-0.04,0.23,0.02,0.3,0.26,0.28
		C27.46,27.95,27.51,27.96,27.58,27.96"/>
	<path class="st20" d="M39.37,27.96c-0.05,0.23-0.24,0.3-0.41,0.37c-0.14,0.05-0.31,0.05-0.46,0.04c-0.18-0.01-0.27-0.17-0.24-0.39
		c0.06-0.38,0.14-0.76,0.22-1.13c0.04-0.22,0.1-0.43,0.14-0.65c0.03-0.17,0.04-0.34,0.06-0.58c0.1-0.04,0.26-0.12,0.42-0.15
		c0.24-0.04,0.35,0.07,0.3,0.32c-0.09,0.47-0.2,0.93-0.3,1.4c-0.03,0.16-0.07,0.32-0.1,0.48c-0.04,0.25,0,0.3,0.27,0.28
		C39.31,27.94,39.34,27.95,39.37,27.96"/>
	<path class="st20" d="M39.37,27.96c-0.05,0.23-0.24,0.3-0.41,0.37c-0.14,0.05-0.31,0.05-0.46,0.04c-0.18-0.01-0.27-0.17-0.24-0.39
		c0.06-0.38,0.14-0.76,0.22-1.13c0.04-0.22,0.1-0.43,0.14-0.65c0.03-0.17,0.04-0.34,0.06-0.58c0.1-0.04,0.26-0.12,0.42-0.15
		c0.24-0.04,0.35,0.07,0.3,0.32c-0.09,0.47-0.2,0.93-0.3,1.4c-0.03,0.16-0.07,0.32-0.1,0.48c-0.04,0.25,0,0.3,0.27,0.28
		C39.31,27.94,39.34,27.95,39.37,27.96"/>
	<path class="st20" d="M6.88,26.02c-0.03,0.22-0.05,0.37-0.07,0.55c0.12,0.02,0.22,0.04,0.36,0.06C7.13,26.76,7.11,26.89,7.08,27
		c-0.42,0.06-0.42,0.06-0.49,0.44c-0.02,0.09-0.04,0.18-0.04,0.27c-0.01,0.23,0.1,0.31,0.32,0.27c0.07-0.02,0.14-0.03,0.2-0.05
		l0.04,0.05c-0.05,0.06-0.1,0.13-0.16,0.18c-0.19,0.15-0.4,0.21-0.64,0.22c-0.35,0.03-0.67-0.26-0.51-0.66
		c0.06-0.15,0.11-0.3,0.15-0.45c0.02-0.1,0.08-0.21-0.06-0.29c-0.04-0.02-0.05-0.16-0.01-0.19C6.13,26.47,6.41,26.17,6.88,26.02"/>
	<path class="st20" d="M6.88,26.02c-0.03,0.22-0.05,0.37-0.07,0.55c0.12,0.02,0.22,0.04,0.36,0.06C7.13,26.76,7.11,26.89,7.08,27
		c-0.42,0.06-0.42,0.06-0.49,0.44c-0.02,0.09-0.04,0.18-0.04,0.27c-0.01,0.23,0.1,0.31,0.32,0.27c0.07-0.02,0.14-0.03,0.2-0.05
		l0.04,0.05c-0.05,0.06-0.1,0.13-0.16,0.18c-0.19,0.15-0.4,0.21-0.64,0.22c-0.35,0.03-0.67-0.26-0.51-0.66
		c0.06-0.15,0.11-0.3,0.15-0.45c0.02-0.1,0.08-0.21-0.06-0.29c-0.04-0.02-0.05-0.16-0.01-0.19C6.13,26.47,6.41,26.17,6.88,26.02"/>
	<path class="st20" d="M40.73,26.05c-0.03,0.19-0.06,0.33-0.09,0.5c0.05,0.02,0.09,0.05,0.13,0.05c0.12,0,0.25,0.03,0.22,0.17
		c-0.02,0.1-0.14,0.25-0.2,0.25c-0.27-0.01-0.32,0.16-0.35,0.36c-0.02,0.12-0.06,0.23-0.06,0.35c-0.01,0.22,0.07,0.3,0.3,0.27
		c0.08-0.01,0.16-0.03,0.28-0.05c-0.04,0.08-0.05,0.14-0.08,0.18c-0.22,0.2-0.49,0.28-0.79,0.27c-0.34-0.01-0.54-0.3-0.45-0.63
		c0.04-0.13,0.08-0.26,0.13-0.39c0.05-0.14,0.11-0.27-0.05-0.39c-0.03-0.02-0.03-0.13,0-0.17c0.23-0.31,0.51-0.55,0.84-0.74
		C40.58,26.04,40.64,26.05,40.73,26.05"/>
	<path class="st20" d="M40.73,26.05c-0.03,0.19-0.06,0.33-0.09,0.5c0.05,0.02,0.09,0.05,0.13,0.05c0.12,0,0.25,0.03,0.22,0.17
		c-0.02,0.1-0.14,0.25-0.2,0.25c-0.27-0.01-0.32,0.16-0.35,0.36c-0.02,0.12-0.06,0.23-0.06,0.35c-0.01,0.22,0.07,0.3,0.3,0.27
		c0.08-0.01,0.16-0.03,0.28-0.05c-0.04,0.08-0.05,0.14-0.08,0.18c-0.22,0.2-0.49,0.28-0.79,0.27c-0.34-0.01-0.54-0.3-0.45-0.63
		c0.04-0.13,0.08-0.26,0.13-0.39c0.05-0.14,0.11-0.27-0.05-0.39c-0.03-0.02-0.03-0.13,0-0.17c0.23-0.31,0.51-0.55,0.84-0.74
		C40.58,26.04,40.64,26.05,40.73,26.05"/>
	<path class="st20" d="M9.36,28.43c0.11-0.55,0.2-1.09,0.31-1.66c0.38-0.27,0.63-0.25,0.75,0.16c0.09-0.06,0.16-0.11,0.25-0.16
		c0.08-0.04,0.16-0.09,0.24-0.12c0.21-0.06,0.37-0.02,0.44,0.11c0.08,0.13,0.03,0.38-0.1,0.51c-0.27,0.27-0.43,0.25-0.65-0.09
		c-0.47,0.24-0.37,0.8-0.63,1.18C9.78,28.37,9.58,28.4,9.36,28.43"/>
	<path class="st20" d="M9.36,28.43c0.11-0.55,0.2-1.09,0.31-1.66c0.38-0.27,0.63-0.25,0.75,0.16c0.09-0.06,0.16-0.11,0.25-0.16
		c0.08-0.04,0.16-0.09,0.24-0.12c0.21-0.06,0.37-0.02,0.44,0.11c0.08,0.13,0.03,0.38-0.1,0.51c-0.27,0.27-0.43,0.25-0.65-0.09
		c-0.47,0.24-0.37,0.8-0.63,1.18C9.78,28.37,9.58,28.4,9.36,28.43"/>
	<path class="st20" d="M17.76,27.93c-0.27,0.36-0.71,0.52-1.07,0.41c-0.19-0.06-0.32-0.28-0.26-0.51c0.05-0.24,0.13-0.48,0.21-0.77
		c-0.02-0.01-0.09-0.03-0.11-0.06c-0.03-0.06-0.05-0.17-0.02-0.21c0.25-0.31,0.54-0.57,0.91-0.73c0.01,0,0.03,0.01,0.09,0.02
		c-0.03,0.15-0.05,0.3-0.08,0.47c0.11,0.03,0.21,0.05,0.3,0.07c0.08,0.3,0.03,0.39-0.25,0.4c-0.13,0.01-0.2,0.05-0.22,0.18
		c-0.03,0.16-0.06,0.31-0.09,0.46c-0.04,0.26,0.06,0.36,0.32,0.32C17.57,27.97,17.64,27.96,17.76,27.93"/>
	<path class="st20" d="M17.76,27.93c-0.27,0.36-0.71,0.52-1.07,0.41c-0.19-0.06-0.32-0.28-0.26-0.51c0.05-0.24,0.13-0.48,0.21-0.77
		c-0.02-0.01-0.09-0.03-0.11-0.06c-0.03-0.06-0.05-0.17-0.02-0.21c0.25-0.31,0.54-0.57,0.91-0.73c0.01,0,0.03,0.01,0.09,0.02
		c-0.03,0.15-0.05,0.3-0.08,0.47c0.11,0.03,0.21,0.05,0.3,0.07c0.08,0.3,0.03,0.39-0.25,0.4c-0.13,0.01-0.2,0.05-0.22,0.18
		c-0.03,0.16-0.06,0.31-0.09,0.46c-0.04,0.26,0.06,0.36,0.32,0.32C17.57,27.97,17.64,27.96,17.76,27.93"/>
	<path class="st20" d="M18.09,26.77c0.16-0.06,0.3-0.14,0.46-0.16c0.25-0.04,0.34,0.07,0.3,0.32c-0.04,0.26-0.08,0.52-0.14,0.78
		c-0.02,0.11-0.02,0.21,0.08,0.26c0.07,0.03,0.17,0.02,0.28,0.03c-0.01,0.02-0.02,0.08-0.05,0.11c-0.19,0.16-0.4,0.25-0.65,0.28
		c-0.26,0.03-0.51-0.22-0.43-0.46c0.06-0.19,0.11-0.39,0.13-0.59C18.1,27.17,18.09,26.99,18.09,26.77"/>
	<path class="st20" d="M18.09,26.77c0.16-0.06,0.3-0.14,0.46-0.16c0.25-0.04,0.34,0.07,0.3,0.32c-0.04,0.26-0.08,0.52-0.14,0.78
		c-0.02,0.11-0.02,0.21,0.08,0.26c0.07,0.03,0.17,0.02,0.28,0.03c-0.01,0.02-0.02,0.08-0.05,0.11c-0.19,0.16-0.4,0.25-0.65,0.28
		c-0.26,0.03-0.51-0.22-0.43-0.46c0.06-0.19,0.11-0.39,0.13-0.59C18.1,27.17,18.09,26.99,18.09,26.77"/>
	<path class="st20" d="M47.38,28.24c-0.18,0.18-0.4,0.15-0.62,0.1c-0.16-0.04-0.23-0.2-0.2-0.41c0.04-0.24,0.1-0.48,0.15-0.73
		c0.02-0.13,0.02-0.25,0.02-0.38c-0.02-0.02-0.04-0.04-0.06-0.05c0.19-0.06,0.37-0.14,0.56-0.17c0.19-0.02,0.27,0.09,0.23,0.28
		c-0.03,0.14-0.08,0.28-0.12,0.42c-0.02,0.06-0.03,0.12-0.03,0.18c0,0.24,0,0.49,0,0.75C47.32,28.23,47.35,28.24,47.38,28.24
		L47.38,28.24z"/>
	<path class="st20" d="M47.38,28.24c-0.18,0.18-0.4,0.15-0.62,0.1c-0.16-0.04-0.23-0.2-0.2-0.41c0.04-0.24,0.1-0.48,0.15-0.73
		c0.02-0.13,0.02-0.25,0.02-0.38c-0.02-0.02-0.04-0.04-0.06-0.05c0.19-0.06,0.37-0.14,0.56-0.17c0.19-0.02,0.27,0.09,0.23,0.28
		c-0.03,0.14-0.08,0.28-0.12,0.42c-0.02,0.06-0.03,0.12-0.03,0.18c0,0.24,0,0.49,0,0.75C47.32,28.23,47.35,28.24,47.38,28.24
		L47.38,28.24z"/>
	<path class="st20" d="M18.69,25.71c0.15,0,0.34,0.11,0.37,0.23c0.04,0.17-0.1,0.24-0.2,0.32c-0.01,0.01-0.03,0.02-0.05,0.03
		c-0.16,0.06-0.31,0.11-0.46,0c-0.11-0.08-0.12-0.19-0.07-0.32C18.33,25.83,18.52,25.72,18.69,25.71"/>
	<path class="st20" d="M18.69,25.71c0.15,0,0.34,0.11,0.37,0.23c0.04,0.17-0.1,0.24-0.2,0.32c-0.01,0.01-0.03,0.02-0.05,0.03
		c-0.16,0.06-0.31,0.11-0.46,0c-0.11-0.08-0.12-0.19-0.07-0.32C18.33,25.83,18.52,25.72,18.69,25.71"/>
	<path class="st20" d="M37.97,27.91c-0.02,0-0.04,0.01-0.05,0.01c-0.24,0.01-0.28-0.03-0.26-0.26c0.01-0.05,0.02-0.11,0.03-0.16
		c0.05-0.22,0.11-0.44,0.14-0.67c0.03-0.17-0.05-0.24-0.22-0.21c-0.07,0.01-0.14,0.04-0.2,0.08c-0.12,0.07-0.21,0.06-0.33-0.01
		c-0.21-0.12-0.43-0.12-0.65,0c-0.47,0.26-0.67,0.68-0.68,1.2c0,0.2,0.1,0.38,0.29,0.47c0.19,0.09,0.39,0.05,0.55-0.11
		c0.09-0.09,0.19-0.18,0.3-0.27c0.13,0.37,0.25,0.45,0.52,0.41c0.33-0.05,0.59-0.25,0.61-0.46C38.01,27.91,37.99,27.91,37.97,27.91
		 M36.79,27.58c-0.12-0.01-0.17-0.09-0.17-0.2c-0.01-0.16,0.14-0.35,0.3-0.35c0.12,0.01,0.18,0.09,0.18,0.22
		C37.09,27.4,36.92,27.59,36.79,27.58"/>
	<path class="st20" d="M37.97,27.91c-0.02,0-0.04,0.01-0.05,0.01c-0.24,0.01-0.28-0.03-0.26-0.26c0.01-0.05,0.02-0.11,0.03-0.16
		c0.05-0.22,0.11-0.44,0.14-0.67c0.03-0.17-0.05-0.24-0.22-0.21c-0.07,0.01-0.14,0.04-0.2,0.08c-0.12,0.07-0.21,0.06-0.33-0.01
		c-0.21-0.12-0.43-0.12-0.65,0c-0.47,0.26-0.67,0.68-0.68,1.2c0,0.2,0.1,0.38,0.29,0.47c0.19,0.09,0.39,0.05,0.55-0.11
		c0.09-0.09,0.19-0.18,0.3-0.27c0.13,0.37,0.25,0.45,0.52,0.41c0.33-0.05,0.59-0.25,0.61-0.46C38.01,27.91,37.99,27.91,37.97,27.91
		 M36.79,27.58c-0.12-0.01-0.17-0.09-0.17-0.2c-0.01-0.16,0.14-0.35,0.3-0.35c0.12,0.01,0.18,0.09,0.18,0.22
		C37.09,27.4,36.92,27.59,36.79,27.58"/>
	<path class="st20" d="M16.13,27.91c-0.31,0.02-0.35-0.03-0.28-0.34c0.07-0.29,0.11-0.59,0.17-0.88c-0.13-0.15-0.27-0.12-0.38-0.03
		c-0.14,0.1-0.26,0.09-0.41,0.01c-0.2-0.11-0.4-0.1-0.61-0.01c-0.32,0.14-0.5,0.39-0.62,0.7c-0.09,0.26-0.13,0.51,0,0.77
		c0.09,0.19,0.22,0.28,0.42,0.23c0.13-0.03,0.25-0.1,0.36-0.17c0.1-0.07,0.18-0.17,0.25-0.24c0.08,0.14,0.13,0.29,0.23,0.37
		c0.27,0.19,0.82-0.06,0.93-0.41C16.18,27.92,16.16,27.91,16.13,27.91 M14.95,27.58c-0.13,0-0.17-0.08-0.17-0.2
		c-0.01-0.18,0.13-0.35,0.3-0.34c0.12,0.01,0.16,0.1,0.16,0.22C15.23,27.43,15.09,27.58,14.95,27.58"/>
	<path class="st20" d="M16.13,27.91c-0.31,0.02-0.35-0.03-0.28-0.34c0.07-0.29,0.11-0.59,0.17-0.88c-0.13-0.15-0.27-0.12-0.38-0.03
		c-0.14,0.1-0.26,0.09-0.41,0.01c-0.2-0.11-0.4-0.1-0.61-0.01c-0.32,0.14-0.5,0.39-0.62,0.7c-0.09,0.26-0.13,0.51,0,0.77
		c0.09,0.19,0.22,0.28,0.42,0.23c0.13-0.03,0.25-0.1,0.36-0.17c0.1-0.07,0.18-0.17,0.25-0.24c0.08,0.14,0.13,0.29,0.23,0.37
		c0.27,0.19,0.82-0.06,0.93-0.41C16.18,27.92,16.16,27.91,16.13,27.91 M14.95,27.58c-0.13,0-0.17-0.08-0.17-0.2
		c-0.01-0.18,0.13-0.35,0.3-0.34c0.12,0.01,0.16,0.1,0.16,0.22C15.23,27.43,15.09,27.58,14.95,27.58"/>
	<path class="st20" d="M25.85,27.5c0.05-0.21,0.1-0.43,0.15-0.64c0.05-0.2-0.06-0.31-0.25-0.25c-0.05,0.01-0.1,0.05-0.14,0.08
		c-0.12,0.08-0.23,0.09-0.35,0c-0.16-0.12-0.36-0.11-0.53-0.06c-0.52,0.14-0.91,0.91-0.75,1.43c0.12,0.36,0.43,0.46,0.73,0.22
		c0.11-0.09,0.21-0.19,0.34-0.31c0.04,0.08,0.08,0.15,0.1,0.21c0.04,0.15,0.15,0.2,0.28,0.22c0.3,0.03,0.64-0.16,0.79-0.47
		C25.8,27.94,25.77,27.9,25.85,27.5 M24.98,27.58c-0.14,0.01-0.2-0.07-0.21-0.2c-0.01-0.15,0.16-0.35,0.29-0.35
		c0.12,0,0.18,0.07,0.19,0.16C25.26,27.4,25.12,27.58,24.98,27.58"/>
	<path class="st20" d="M25.85,27.5c0.05-0.21,0.1-0.43,0.15-0.64c0.05-0.2-0.06-0.31-0.25-0.25c-0.05,0.01-0.1,0.05-0.14,0.08
		c-0.12,0.08-0.23,0.09-0.35,0c-0.16-0.12-0.36-0.11-0.53-0.06c-0.52,0.14-0.91,0.91-0.75,1.43c0.12,0.36,0.43,0.46,0.73,0.22
		c0.11-0.09,0.21-0.19,0.34-0.31c0.04,0.08,0.08,0.15,0.1,0.21c0.04,0.15,0.15,0.2,0.28,0.22c0.3,0.03,0.64-0.16,0.79-0.47
		C25.8,27.94,25.77,27.9,25.85,27.5 M24.98,27.58c-0.14,0.01-0.2-0.07-0.21-0.2c-0.01-0.15,0.16-0.35,0.29-0.35
		c0.12,0,0.18,0.07,0.19,0.16C25.26,27.4,25.12,27.58,24.98,27.58"/>
	<path class="st20" d="M20.66,26.63c-0.37-0.1-0.73-0.04-1.03,0.22c-0.31,0.27-0.41,0.61-0.34,1.02c0.05,0.23,0.2,0.38,0.4,0.46
		c0.7,0.26,1.44-0.32,1.42-0.97C21.12,26.98,20.97,26.71,20.66,26.63 M20.21,27.59c-0.15-0.01-0.17-0.12-0.18-0.23
		c-0.01-0.16,0.14-0.32,0.28-0.32c0.11,0,0.2,0.09,0.19,0.21C20.5,27.43,20.36,27.59,20.21,27.59"/>
	<path class="st20" d="M20.66,26.63c-0.37-0.1-0.73-0.04-1.03,0.22c-0.31,0.27-0.41,0.61-0.34,1.02c0.05,0.23,0.2,0.38,0.4,0.46
		c0.7,0.26,1.44-0.32,1.42-0.97C21.12,26.98,20.97,26.71,20.66,26.63 M20.21,27.59c-0.15-0.01-0.17-0.12-0.18-0.23
		c-0.01-0.16,0.14-0.32,0.28-0.32c0.11,0,0.2,0.09,0.19,0.21C20.5,27.43,20.36,27.59,20.21,27.59"/>
	<path class="st20" d="M35.2,27.86c-0.11,0.05-0.21,0.11-0.32,0.15c-0.21,0.06-0.33-0.01-0.42-0.25c0.07-0.02,0.14-0.04,0.2-0.06
		c0.19-0.06,0.38-0.12,0.56-0.2c0.18-0.08,0.31-0.33,0.28-0.49c-0.04-0.21-0.21-0.36-0.44-0.4c-0.59-0.09-1.17,0.27-1.36,0.84
		c-0.15,0.43,0.08,0.87,0.52,0.99c0.46,0.13,0.98-0.13,1.26-0.49c0.03-0.04,0.02-0.11,0.04-0.22C35.38,27.78,35.29,27.82,35.2,27.86
		 M34.74,27c0.04-0.02,0.14,0,0.18,0.04c0.02,0.02,0,0.14-0.03,0.16c-0.1,0.07-0.21,0.14-0.41,0.03
		C34.59,27.14,34.65,27.05,34.74,27"/>
	<path class="st20" d="M35.2,27.86c-0.11,0.05-0.21,0.11-0.32,0.15c-0.21,0.06-0.33-0.01-0.42-0.25c0.07-0.02,0.14-0.04,0.2-0.06
		c0.19-0.06,0.38-0.12,0.56-0.2c0.18-0.08,0.31-0.33,0.28-0.49c-0.04-0.21-0.21-0.36-0.44-0.4c-0.59-0.09-1.17,0.27-1.36,0.84
		c-0.15,0.43,0.08,0.87,0.52,0.99c0.46,0.13,0.98-0.13,1.26-0.49c0.03-0.04,0.02-0.11,0.04-0.22C35.38,27.78,35.29,27.82,35.2,27.86
		 M34.74,27c0.04-0.02,0.14,0,0.18,0.04c0.02,0.02,0,0.14-0.03,0.16c-0.1,0.07-0.21,0.14-0.41,0.03
		C34.59,27.14,34.65,27.05,34.74,27"/>
	<path class="st20" d="M8.75,27.87C8.58,27.93,8.41,27.98,8.23,28C8.17,28,8.1,27.89,8.04,27.84c0.06-0.05,0.13-0.12,0.2-0.14
		c0.16-0.06,0.34-0.08,0.5-0.15c0.24-0.1,0.35-0.35,0.31-0.62c-0.02-0.16-0.18-0.28-0.43-0.32c-0.65-0.12-1.33,0.41-1.36,1.08
		c-0.01,0.26,0.11,0.61,0.47,0.72c0.48,0.15,1.15-0.09,1.38-0.54c0.01-0.02,0.01-0.05,0.01-0.09C8.97,27.73,8.87,27.83,8.75,27.87
		 M8.29,27.01C8.31,27,8.33,27,8.36,27c0.04,0.01,0.1,0.03,0.15,0.03c-0.01,0.03-0.02,0.06-0.02,0.09c-0.01,0.05-0.02,0.1-0.05,0.12
		c-0.08,0.05-0.2,0.05-0.29,0.07c-0.01-0.02-0.03-0.04-0.04-0.07C8.16,27.17,8.21,27.07,8.29,27.01"/>
	<path class="st21" d="M8.75,27.87C8.58,27.93,8.41,27.98,8.23,28C8.17,28,8.1,27.89,8.04,27.84c0.06-0.05,0.13-0.12,0.2-0.14
		c0.16-0.06,0.34-0.08,0.5-0.15c0.24-0.1,0.35-0.35,0.31-0.62c-0.02-0.16-0.18-0.28-0.43-0.32c-0.65-0.12-1.33,0.41-1.36,1.08
		c-0.01,0.26,0.11,0.61,0.47,0.72c0.48,0.15,1.15-0.09,1.38-0.54c0.01-0.02,0.01-0.05,0.01-0.09C8.97,27.73,8.87,27.83,8.75,27.87z
		 M8.29,27.01C8.31,27,8.33,27,8.36,27c0.04,0.01,0.1,0.03,0.15,0.03c-0.01,0.03-0.02,0.06-0.02,0.09c-0.01,0.05-0.02,0.1-0.05,0.12
		c-0.08,0.05-0.2,0.05-0.29,0.07c-0.01-0.02-0.03-0.04-0.04-0.07C8.16,27.17,8.21,27.07,8.29,27.01z"/>
	<path class="st20" d="M29.32,5.58H17.74c-0.33,0-0.59-0.26-0.59-0.59V1.31c0-0.72,0.59-1.31,1.31-1.31H28.6
		c0.72,0,1.31,0.59,1.31,1.31v3.68C29.91,5.31,29.64,5.58,29.32,5.58"/>
	<path class="st20" d="M33.88,9.58c-0.79-0.52-3.42-2.51-3.42-2.51H23.7h-6.76c0,0-2.63,1.99-3.42,2.51c0,0-2.5,1.38-0.75,4.67
		c0,0,1.38,2.77,2.89,5.26c0,0,1.12,2.76,4.48,3.01h3.55h3.55c3.35-0.26,4.47-3.01,4.47-3.01c1.51-2.5,2.9-5.26,2.9-5.26
		C36.38,10.96,33.88,9.58,33.88,9.58"/>
	<path class="st1" d="M18.38,17.72c0,0-0.6-7.72,10.05-6.59c0,0,1.95,0.06,0.14,1.47c0,0-0.9,0.87-1.61,2.84
		c0,0-0.95,6.03-8.14,3.42c0,0,2.93-3.74,6.35-5.35C25.17,13.5,22.68,13.5,18.38,17.72"/>
</g>
</svg>
