<?xml version="1.0" encoding="utf-8"?>
<!-- Generator: Adobe Illustrator 25.0.1, SVG Export Plug-In . SVG Version: 6.00 Build 0)  -->
<svg version="1.0" id="Layer_1" xmlns="http://www.w3.org/2000/svg" xmlns:xlink="http://www.w3.org/1999/xlink" x="0px" y="0px"
	 viewBox="0 0 46.84 36.83" style="enable-background:new 0 0 46.84 36.83;" xml:space="preserve">
<style type="text/css">
	.st0{fill:#000104;}
	.st1{fill:#FFFFFF;}
	.st2{fill:#EF493E;}
	.st3{opacity:0.6;fill-rule:evenodd;clip-rule:evenodd;fill:#FBBE43;}
	.st4{opacity:0.6;fill-rule:evenodd;clip-rule:evenodd;fill:#EF930E;}
	.st5{opacity:0.6;fill-rule:evenodd;clip-rule:evenodd;fill:#E67906;}
	.st6{fill:#9F8829;}
	.st7{fill:#3972A6;}
	.st8{fill:url(#SVGID_1_);stroke:#2B53A4;stroke-width:0.5;stroke-miterlimit:10;}
	.st9{fill:none;}
	.st10{fill:url(#SVGID_2_);}
	.st11{fill:url(#SVGID_3_);}
	.st12{fill:#B3B3B3;}
	.st13{fill:url(#SVGID_4_);}
	.st14{fill:url(#SVGID_5_);}
	.st15{fill:url(#SVGID_6_);}
	.st16{fill:#FFFFFF;stroke:#FFFFFF;stroke-width:0.25;stroke-miterlimit:10;}
	.st17{fill:#00001D;}
	.st18{fill:#4DA0C5;}
	.st19{fill:url(#SVGID_7_);}
	.st20{fill:#2E6A85;}
	.st21{fill:none;stroke:#144FA1;stroke-width:0.113;stroke-linejoin:round;stroke-miterlimit:10;}
	.st22{fill:#F27337;}
	.st23{fill:#8EB8D4;}
	.st24{fill:#F38056;}
	.st25{fill:#626365;}
	.st26{fill:#EF6D23;}
	.st27{fill:#284B82;}
	.st28{fill:#242956;}
	.st29{fill:#15142A;}
	.st30{fill:#84C343;}
	.st31{fill:#4CA1C6;}
	.st32{fill:#121617;}
	.st33{fill:#CF8966;}
	.st34{fill:#F37639;}
	.st35{opacity:0.3;fill:url(#SVGID_8_);}
	.st36{fill:#373277;}
	.st37{fill:#E61E25;}
	.st38{fill:#2555A5;}
	.st39{fill:#2E225E;}
	.st40{fill:#F8A425;}
	.st41{fill:#2058A7;}
	.st42{fill:none;stroke:#205AA8;stroke-width:0.156;stroke-miterlimit:10;}
	.st43{fill:#49A3C7;}
	.st44{fill-rule:evenodd;clip-rule:evenodd;}
	.st45{fill-rule:evenodd;clip-rule:evenodd;fill:url(#SVGID_9_);}
	.st46{fill-rule:evenodd;clip-rule:evenodd;fill:url(#SVGID_10_);}
	.st47{fill-rule:evenodd;clip-rule:evenodd;fill:url(#SVGID_11_);}
	.st48{fill:#1D2251;}
	.st49{fill:#2260AC;}
	.st50{fill:url(#SVGID_12_);}
	.st51{fill:#FFFFFC;}
	.st52{fill:#4C9FC5;}
	.st53{fill:#28306D;}
	.st54{fill:#4C9EC5;}
	.st55{fill:#28306E;}
	.st56{fill:#29306F;}
	.st57{fill:#F7F7FB;}
	.st58{fill:url(#SVGID_13_);}
	.st59{fill:url(#SVGID_14_);}
	.st60{fill:url(#SVGID_15_);}
	.st61{fill:url(#SVGID_16_);}
	.st62{fill:#10123C;}
	.st63{fill:#F5842C;}
	.st64{fill:#1F305E;}
	.st65{fill:#87BBD1;}
	.st66{fill:#203160;}
	.st67{fill:#235779;}
	.st68{fill:#359FA1;}
	.st69{fill:#A4D1A4;}
	.st70{fill:#B9DBBC;}
	.st71{fill:#C6DDCA;}
	.st72{fill:#662E14;}
	.st73{fill:#1D79A4;}
	.st74{fill:#C14B28;}
	.st75{fill:url(#SVGID_17_);}
	.st76{fill:url(#SVGID_18_);}
	.st77{fill:url(#SVGID_19_);}
	.st78{fill:url(#SVGID_20_);}
	.st79{fill:url(#SVGID_21_);}
	.st80{fill:url(#SVGID_22_);}
	.st81{fill:url(#SVGID_23_);}
	.st82{fill:url(#SVGID_24_);}
	.st83{fill:url(#SVGID_25_);}
	.st84{fill:url(#SVGID_26_);}
	.st85{fill:url(#SVGID_27_);}
	.st86{fill:url(#SVGID_28_);}
	.st87{fill:url(#SVGID_29_);}
	.st88{fill:url(#SVGID_30_);}
	.st89{fill:#1F164B;}
	.st90{clip-path:url(#SVGID_32_);fill:#253D97;}
	.st91{fill:url(#SVGID_33_);}
	.st92{fill:url(#SVGID_34_);}
	.st93{fill:url(#SVGID_35_);}
	.st94{fill:url(#SVGID_36_);}
	.st95{fill:url(#SVGID_37_);}
	.st96{fill:url(#SVGID_38_);}
	.st97{fill:url(#SVGID_39_);}
	.st98{fill:url(#SVGID_40_);}
	.st99{fill:url(#SVGID_41_);}
	.st100{fill:#443F41;}
	.st101{fill:#28306F;}
	.st102{fill:#71C49D;}
	.st103{fill:#F0C6A7;}
	.st104{fill:#DB8D82;}
	.st105{fill:#EFB7AC;}
	.st106{opacity:0.21;}
	.st107{fill-rule:evenodd;clip-rule:evenodd;fill:#A9196E;}
	.st108{fill-rule:evenodd;clip-rule:evenodd;fill:#FBE42C;}
	.st109{fill:#FBE42C;}
	.st110{fill:#A9196E;}
	.st111{fill:#7FC143;}
	.st112{clip-path:url(#SVGID_45_);fill:#7FC143;}
	.st113{clip-path:url(#SVGID_51_);fill:#7FC143;}
	.st114{fill:#243F8F;}
	.st115{fill:#EF4E2F;}
	.st116{fill:#010007;}
	.st117{fill:#0C0D37;}
	.st118{fill:#FBAF2D;}
	.st119{fill:url(#SVGID_54_);}
	.st120{fill-rule:evenodd;clip-rule:evenodd;fill:#FFFFFF;}
	.st121{fill:#1D4690;}
	.st122{fill:#3AA949;}
	.st123{fill:#F37A24;}
	.st124{fill:none;stroke:#F37A24;stroke-width:3.7145;stroke-miterlimit:10;}
	.st125{fill:#3AA949;stroke:#FFFFFF;stroke-width:1.3104;stroke-miterlimit:10;}
	.st126{fill:#46A2BB;}
	.st127{fill:#7153A0;}
	.st128{fill:#27316C;}
	.st129{fill:#2C65AE;}
	.st130{fill:#452D7A;}
	.st131{fill:#442C7A;}
	.st132{fill:#1A2642;}
	.st133{fill-rule:evenodd;clip-rule:evenodd;fill:#567EB8;}
	.st134{fill-rule:evenodd;clip-rule:evenodd;fill:#6A7EB8;}
	.st135{fill-rule:evenodd;clip-rule:evenodd;fill:#6A7EB9;}
	.st136{fill-rule:evenodd;clip-rule:evenodd;fill:#EE3C2D;}
	.st137{fill-rule:evenodd;clip-rule:evenodd;fill:#EF493F;}
	.st138{fill-rule:evenodd;clip-rule:evenodd;fill:#ED2C24;}
	.st139{fill-rule:evenodd;clip-rule:evenodd;fill:#E9AE28;}
	.st140{fill-rule:evenodd;clip-rule:evenodd;fill:#D69B28;}
	.st141{fill-rule:evenodd;clip-rule:evenodd;fill:#FCB729;}
	.st142{fill-rule:evenodd;clip-rule:evenodd;fill:#409E47;}
	.st143{fill-rule:evenodd;clip-rule:evenodd;fill:#4BB450;}
	.st144{fill-rule:evenodd;clip-rule:evenodd;fill:#338440;}
	.st145{fill:#C09C36;}
	.st146{fill:#1E552A;}
	.st147{clip-path:url(#SVGID_56_);fill:url(#SVGID_57_);}
	.st148{fill:#023A1E;}
	.st149{fill:#FFFFFA;}
	.st150{fill:#0D4F28;}
	.st151{fill:#0E5128;}
	.st152{fill:#0D4E27;}
	.st153{fill:#0E5229;}
	.st154{fill:#0E4823;}
	.st155{fill:#0E4C27;}
	.st156{fill:#F3F6E0;}
	.st157{fill:#0E4F28;}
	.st158{fill:#114823;}
	.st159{fill:#105229;}
	.st160{fill:#0A4A2B;}
	.st161{fill:#134F27;}
	.st162{fill:#165229;}
	.st163{fill:#0D5029;}
	.st164{fill:#0B4E2B;}
	.st165{fill:#105028;}
	.st166{fill:#0A492A;}
	.st167{fill:#E9F3E2;}
	.st168{fill:#144D26;}
	.st169{fill:#185C2F;}
	.st170{fill:#0F5028;}
	.st171{fill:#F3F8EA;}
	.st172{fill:#114D26;}
	.st173{fill:#70A685;}
	.st174{fill:#0D4F2A;}
	.st175{fill:#094A24;}
	.st176{fill:#0F4F27;}
	.st177{fill:#0A4C26;}
	.st178{fill:#A2D29A;}
	.st179{fill:#4D7E44;}
	.st180{fill:#E8F2E1;}
	.st181{fill:#EDF5E5;}
	.st182{fill:#E6F2E7;}
	.st183{fill:#E5F1DC;}
	.st184{fill:#E9F3E3;}
	.st185{fill:#E9F3E5;}
	.st186{fill:#E5F1DB;}
	.st187{fill:#D8ECD7;}
	.st188{fill:#D9EBD4;}
	.st189{fill:#E2F0DE;}
	.st190{fill:#366B4B;}
	.st191{fill:#5D6162;}
	.st192{fill:#212E5F;}
	.st193{fill:#DD1F26;}
	.st194{clip-path:url(#SVGID_59_);}
	.st195{fill:#23396F;}
	.st196{fill:#7FC24E;}
	.st197{clip-path:url(#SVGID_59_);fill:#23396F;}
	.st198{clip-path:url(#SVGID_59_);fill:#7FC24E;}
	.st199{fill:#91CEA4;}
	.st200{fill:#90CEA4;}
	.st201{fill:#C02026;}
	.st202{fill:#362E7E;}
</style>
<linearGradient id="SVGID_1_" gradientUnits="userSpaceOnUse" x1="3779.5984" y1="73.0542" x2="3826.4338" y2="73.0542" gradientTransform="matrix(-1 0 0 -1 3826.4338 91.4699)">
	<stop  offset="0.2785" style="stop-color:#A56825"/>
	<stop  offset="1" style="stop-color:#A56825"/>
</linearGradient>
<path style="fill:url(#SVGID_1_);" d="M0,31.29h0.65v4.83h4.27v0.58H0V31.29z M7.99,31.29h0.8l2.77,5.41h-0.74l-0.7-1.41H6.64
	L5.93,36.7H5.2L7.99,31.29z M9.84,34.71L8.39,31.8l-1.45,2.91H9.84z M14.67,31.29l2.39,4.69l2.39-4.69h0.72l-2.8,5.41h-0.64
	l-2.8-5.41H14.67z M20.86,31.29h0.65v5.41h-0.65V31.29z M22.92,31.29h4.82v0.58h-4.16v1.73h3.48v0.58h-3.48v1.94h4.25v0.58h-4.91
	V31.29z M28.71,31.29h3.12c0.86,0,2.13,0.19,2.13,1.51c0,1.13-1.05,1.46-1.7,1.49l1.78,2.41h-0.81l-1.74-2.39h-2.13v2.39h-0.65
	V31.29z M29.36,33.72h2.32c0.94,0,1.65-0.13,1.65-0.93c0-0.79-0.71-0.92-1.65-0.92h-2.32V33.72z M40.79,34.07v2.67h-0.58v-0.79
	c-0.36,0.42-0.95,0.88-2.17,0.88c-2.1,0-3.09-1.26-3.09-2.83c0-1.86,1.26-2.85,3.08-2.85c1.29,0,2.28,0.58,2.68,1.49l-0.55,0.29
	c-0.42-0.97-1.42-1.23-2.15-1.23c-1.52,0-2.39,0.84-2.39,2.38c0,1.24,0.84,2.16,2.45,2.16c0.98,0,2.04-0.48,2.13-1.6H38v-0.58H40.79
	z M41.93,31.29h4.82v0.58h-4.16v1.73h3.48v0.58h-3.48v1.94h4.25v0.58h-4.91V31.29z M18.4,12.89c0.02,0.02,0.04,0.05,0.06,0.08
	c0.02,0.03,0.04,0.06,0.05,0.09c0.03,0.06,0.06,0.12,0.09,0.18c0,0.01,0,0.02-0.01,0.02c0,0-0.01,0-0.01,0l0,0
	c-0.07-0.02-0.14-0.04-0.21-0.07c-0.03-0.01-0.07-0.03-0.1-0.04c-0.02-0.01-0.03-0.02-0.05-0.03c-0.02-0.01-0.03-0.03-0.05-0.04
	c-0.03-0.03-0.04-0.07-0.05-0.12c0-0.04,0.02-0.09,0.06-0.12c0.04-0.02,0.08-0.02,0.12-0.01C18.34,12.84,18.37,12.86,18.4,12.89z
	 M18.39,12.89c-0.05-0.05-0.14-0.06-0.18-0.01c-0.04,0.04-0.03,0.11,0.01,0.16c0.01,0.01,0.02,0.02,0.03,0.03
	c0.01,0.01,0.03,0.02,0.04,0.03c0.03,0.02,0.06,0.03,0.1,0.05c0.07,0.03,0.13,0.06,0.2,0.08l-0.02,0.02l-0.08-0.19
	C18.47,13,18.44,12.94,18.39,12.89z M18.58,13.24C18.58,13.24,18.58,13.24,18.58,13.24c0.06,0.09,0.14,0.15,0.23,0.2
	c0.04,0.02,0.09,0.05,0.14,0.06c0.05,0.01,0.1,0.02,0.15,0.01c0,0,0,0,0,0c0,0,0,0,0,0c-0.05-0.03-0.09-0.04-0.14-0.06
	c-0.04-0.02-0.09-0.03-0.14-0.05c-0.04-0.02-0.09-0.04-0.13-0.07C18.66,13.31,18.62,13.28,18.58,13.24
	C18.59,13.24,18.58,13.24,18.58,13.24z M25.32,1.36c-0.29-0.17-0.6-0.29-0.92-0.38c-0.32-0.09-0.65-0.13-0.98-0.13
	c-0.33,0-0.66,0.05-0.98,0.14c-0.32,0.09-0.62,0.22-0.91,0.39l-0.02,0l0.02,0c-0.57,0.34-1.04,0.82-1.36,1.39
	c-0.33,0.57-0.5,1.22-0.49,1.88c0,0.65,0.18,1.3,0.51,1.87c0.33,0.56,0.81,1.04,1.37,1.36l0.02,0.01l-0.02-0.01
	c0.56,0.32,1.21,0.49,1.86,0.48c0.65,0,1.29-0.18,1.85-0.51l-0.02,0.02l0.02-0.02c0.28-0.16,0.54-0.36,0.77-0.59
	c0.23-0.23,0.43-0.49,0.59-0.76c0.33-0.56,0.51-1.2,0.52-1.85c0.02-0.65-0.14-1.31-0.46-1.89c-0.16-0.29-0.36-0.56-0.59-0.79
	C25.87,1.74,25.6,1.53,25.32,1.36z M25.33,1.34c0.59,0.33,1.07,0.81,1.42,1.39c0.35,0.57,0.54,1.24,0.56,1.92
	c0.02,0.68-0.16,1.36-0.5,1.96c-0.34,0.59-0.84,1.1-1.43,1.44l0.02-0.02l-0.02,0.02c-0.3,0.17-0.62,0.3-0.95,0.39
	c-0.33,0.09-0.67,0.13-1.01,0.13c-0.68,0-1.36-0.19-1.95-0.54l-0.02-0.01l0.02,0.01c-0.59-0.34-1.08-0.84-1.42-1.43
	c-0.34-0.59-0.51-1.27-0.51-1.94c0-0.68,0.19-1.35,0.53-1.93c0.34-0.58,0.84-1.07,1.42-1.4l0.02,0l-0.02,0
	c0.59-0.33,1.25-0.5,1.92-0.49c0.33,0,0.67,0.05,0.99,0.13C24.73,1.05,25.05,1.18,25.33,1.34z M25.13,1.7
	c-0.26-0.15-0.54-0.26-0.83-0.33c-0.29-0.07-0.58-0.11-0.88-0.1c-0.59,0.01-1.17,0.19-1.67,0.49l-0.04,0.01l0.04-0.01
	c-0.5,0.3-0.91,0.73-1.2,1.24c-0.29,0.5-0.44,1.08-0.44,1.66c0,0.58,0.15,1.16,0.43,1.66c0.29,0.5,0.71,0.93,1.21,1.23l0.02,0.01
	l-0.02-0.01c0.5,0.29,1.08,0.45,1.67,0.46c0.58,0,1.17-0.15,1.68-0.44l-0.01,0.01l0.01-0.01c0.51-0.29,0.94-0.72,1.24-1.22
	c0.3-0.51,0.46-1.09,0.47-1.68c0-0.3-0.03-0.59-0.1-0.88c-0.07-0.29-0.19-0.57-0.33-0.82C26.08,2.43,25.64,1.99,25.13,1.7z
	 M25.14,1.68c0.52,0.3,0.96,0.74,1.26,1.26c0.3,0.52,0.47,1.11,0.48,1.72c0.01,0.6-0.15,1.21-0.45,1.74
	c-0.3,0.53-0.74,0.97-1.27,1.28l0.01-0.01l-0.01,0.01c-0.53,0.31-1.13,0.48-1.74,0.48c-0.61,0-1.22-0.16-1.75-0.46l-0.02-0.01
	l0.02,0.01c-0.53-0.3-0.99-0.75-1.3-1.28c-0.16-0.27-0.28-0.55-0.36-0.85c-0.08-0.3-0.12-0.61-0.12-0.91c0-0.62,0.17-1.23,0.48-1.77
	c0.31-0.53,0.77-0.98,1.31-1.27l0.04-0.01l-0.04,0.01c0.54-0.29,1.15-0.44,1.75-0.43c0.3,0.01,0.6,0.05,0.89,0.13
	C24.6,1.41,24.88,1.53,25.14,1.68z M23.7,13.43c-0.13-0.07-0.3-0.08-0.43-0.02c-0.13,0.06-0.23,0.16-0.29,0.27
	c-0.06,0.12-0.08,0.25-0.05,0.38c0.03,0.13,0.11,0.25,0.22,0.32c0.11,0.07,0.26,0.1,0.4,0.06c0.14-0.03,0.26-0.12,0.33-0.24
	c0.08-0.12,0.11-0.27,0.08-0.42C23.93,13.64,23.83,13.5,23.7,13.43z M23.71,13.42c0.13,0.08,0.24,0.21,0.29,0.36
	c0.05,0.15,0.04,0.33-0.04,0.48c-0.08,0.15-0.22,0.26-0.38,0.31c-0.16,0.05-0.35,0.03-0.5-0.05c-0.15-0.08-0.28-0.23-0.33-0.4
	c-0.05-0.17-0.03-0.37,0.07-0.52c0.09-0.15,0.26-0.26,0.43-0.28C23.41,13.29,23.57,13.33,23.71,13.42z M28.06,3.62
	c-0.03,0.01-0.05,0.02-0.08,0.03c-0.03,0.01-0.05,0.01-0.08,0.02c-0.05,0.01-0.11,0.02-0.16,0.02c-0.01,0-0.02-0.01-0.02-0.02
	c0,0,0-0.01,0-0.01l0,0c0.03-0.06,0.05-0.11,0.09-0.17c0.02-0.03,0.03-0.05,0.05-0.08c0.01-0.01,0.02-0.03,0.04-0.04
	c0.02-0.01,0.03-0.02,0.05-0.02c0.07-0.02,0.16,0.02,0.18,0.1C28.15,3.52,28.12,3.59,28.06,3.62z M28.06,3.61
	c0.05-0.03,0.06-0.11,0.03-0.15c-0.03-0.04-0.08-0.06-0.12-0.05c-0.01,0-0.02,0.01-0.03,0.01c-0.01,0-0.02,0.02-0.03,0.03
	c-0.02,0.02-0.04,0.05-0.05,0.07c-0.03,0.05-0.07,0.1-0.1,0.16l-0.02-0.03l0.16,0c0.03,0,0.05,0,0.08-0.01
	C28.01,3.63,28.04,3.63,28.06,3.61z M27.74,3.66C27.74,3.66,27.74,3.66,27.74,3.66c-0.13,0.08-0.25,0.18-0.34,0.3
	c-0.05,0.06-0.09,0.13-0.12,0.2c-0.03,0.07-0.04,0.15-0.03,0.23c0,0,0,0,0,0c0,0,0,0,0,0c0.03-0.07,0.05-0.14,0.09-0.21
	c0.03-0.06,0.06-0.13,0.1-0.19c0.04-0.06,0.09-0.12,0.14-0.18C27.63,3.77,27.68,3.71,27.74,3.66C27.74,3.67,27.74,3.67,27.74,3.66z
	 M24.12,0.11c0.01,0.03,0.01,0.05,0.01,0.08c0,0.03,0,0.05,0,0.08c0,0.05-0.01,0.11-0.01,0.16c0,0.01-0.01,0.02-0.02,0.01
	c0,0-0.01,0-0.01,0l0,0c-0.05-0.04-0.1-0.08-0.14-0.12c-0.02-0.02-0.05-0.04-0.07-0.07c-0.01-0.01-0.02-0.02-0.03-0.04
	c-0.01-0.02-0.01-0.04-0.01-0.06C23.83,0.08,23.89,0,23.97,0C24.04-0.01,24.1,0.05,24.12,0.11z M24.12,0.11
	c-0.02-0.06-0.09-0.08-0.14-0.06c-0.05,0.02-0.08,0.06-0.08,0.11c0,0.01,0,0.02,0.01,0.03c0,0.01,0.01,0.02,0.02,0.03
	c0.02,0.02,0.04,0.05,0.06,0.07c0.04,0.04,0.09,0.09,0.13,0.13l-0.03,0.01l0.03-0.16c0-0.03,0.01-0.05,0.01-0.08
	C24.13,0.16,24.13,0.13,24.12,0.11z M24.1,0.43C24.1,0.43,24.1,0.43,24.1,0.43c0.05,0.15,0.13,0.28,0.23,0.4
	c0.05,0.06,0.1,0.11,0.17,0.16c0.07,0.04,0.14,0.07,0.22,0.08c0,0,0,0,0,0c0,0,0,0,0,0c-0.06-0.04-0.13-0.08-0.18-0.13
	c-0.06-0.04-0.12-0.09-0.17-0.14c-0.05-0.05-0.1-0.11-0.14-0.17C24.18,0.56,24.14,0.5,24.1,0.43C24.11,0.43,24.1,0.43,24.1,0.43z
	 M19.7,1.46c0.02,0.02,0.04,0.04,0.05,0.06c0.02,0.02,0.03,0.05,0.05,0.07c0.03,0.05,0.06,0.09,0.08,0.14c0,0.01,0,0.02-0.01,0.02
	c0,0-0.01,0-0.01,0l0,0c-0.06,0-0.12-0.01-0.19-0.02c-0.03,0-0.06-0.01-0.09-0.02c-0.02,0-0.03-0.01-0.05-0.02
	c-0.02-0.01-0.03-0.02-0.04-0.04c-0.05-0.06-0.04-0.16,0.02-0.21C19.57,1.42,19.65,1.43,19.7,1.46z M19.69,1.47
	c-0.05-0.04-0.12-0.01-0.15,0.03c-0.03,0.04-0.03,0.1,0,0.13c0.01,0.01,0.02,0.02,0.02,0.03c0.01,0.01,0.02,0.01,0.03,0.02
	c0.03,0.01,0.06,0.02,0.09,0.02c0.06,0.01,0.12,0.02,0.18,0.03l-0.02,0.02L19.78,1.6c-0.01-0.02-0.02-0.05-0.04-0.07
	C19.73,1.51,19.71,1.49,19.69,1.47z M19.86,1.74C19.86,1.75,19.86,1.75,19.86,1.74c0.12,0.09,0.26,0.16,0.41,0.2
	c0.07,0.02,0.15,0.04,0.23,0.03c0.08,0,0.15-0.02,0.22-0.06c0,0,0,0,0,0c0,0,0,0,0,0c-0.08,0-0.15,0.01-0.22,0
	c-0.07-0.01-0.15,0-0.22-0.02c-0.07-0.01-0.14-0.03-0.21-0.06C20,1.81,19.93,1.78,19.86,1.74C19.86,1.74,19.86,1.74,19.86,1.74z
	 M26.47,1.27c0.01,0.03,0.02,0.05,0.04,0.07c0.02,0.02,0.03,0.04,0.05,0.06l0.11,0.12l-0.03,0.01c0.02-0.06,0.03-0.12,0.04-0.18
	c0.01-0.03,0.01-0.06,0.01-0.09c0-0.01,0-0.03,0-0.04c0-0.01-0.01-0.02-0.01-0.03c-0.03-0.04-0.08-0.06-0.13-0.05
	C26.51,1.15,26.46,1.2,26.47,1.27z M26.46,1.27c-0.02-0.06,0.01-0.14,0.07-0.17c0.07-0.04,0.16-0.01,0.2,0.06
	c0.01,0.02,0.02,0.03,0.02,0.05c0,0.02,0,0.04,0,0.05c0,0.03-0.01,0.06-0.02,0.09c-0.02,0.06-0.03,0.12-0.06,0.18l0,0
	c0,0.01-0.01,0.01-0.02,0.01c0,0-0.01,0-0.01,0c-0.04-0.04-0.07-0.08-0.1-0.13c-0.02-0.02-0.03-0.05-0.04-0.07
	C26.49,1.32,26.47,1.29,26.46,1.27z M26.66,1.52C26.66,1.52,26.66,1.53,26.66,1.52c0.01,0.08,0.01,0.15,0.01,0.23
	c0,0.07-0.01,0.15-0.03,0.22c-0.01,0.07-0.04,0.14-0.07,0.21c-0.02,0.07-0.06,0.13-0.08,0.21c0,0,0,0,0,0c0,0,0,0,0,0
	c0.06-0.05,0.11-0.11,0.14-0.19c0.03-0.07,0.05-0.15,0.06-0.22C26.71,1.83,26.7,1.67,26.66,1.52C26.66,1.52,26.66,1.52,26.66,1.52z
	 M21.16,0.61c0.03,0,0.05,0,0.08-0.01c0.03-0.01,0.05-0.02,0.08-0.03l0.15-0.06l-0.01,0.03c-0.05-0.04-0.1-0.07-0.15-0.11
	c-0.03-0.02-0.05-0.03-0.08-0.04c-0.01-0.01-0.03-0.01-0.04-0.01c-0.01,0-0.02,0-0.03,0c-0.05,0.01-0.08,0.05-0.09,0.1
	C21.06,0.53,21.09,0.6,21.16,0.61z M21.15,0.61c-0.06-0.01-0.13-0.06-0.13-0.13c-0.01-0.07,0.05-0.15,0.13-0.16
	c0.02,0,0.04,0,0.06,0c0.02,0.01,0.03,0.01,0.05,0.02c0.03,0.02,0.05,0.04,0.08,0.05c0.05,0.04,0.1,0.08,0.14,0.12l0,0
	c0.01,0.01,0.01,0.02,0,0.02c0,0,0,0-0.01,0c-0.05,0.02-0.1,0.03-0.16,0.04c-0.03,0.01-0.05,0.01-0.08,0.02
	C21.21,0.61,21.18,0.62,21.15,0.61z M21.47,0.53C21.47,0.53,21.47,0.53,21.47,0.53c0.07,0.02,0.15,0.05,0.21,0.08
	c0.07,0.03,0.13,0.07,0.19,0.11c0.06,0.04,0.11,0.09,0.17,0.14c0.06,0.05,0.1,0.1,0.16,0.16c0,0,0,0,0,0c0,0,0,0,0,0
	c-0.03-0.07-0.07-0.14-0.12-0.2c-0.05-0.06-0.12-0.1-0.19-0.14C21.77,0.6,21.62,0.55,21.47,0.53C21.47,0.53,21.47,0.53,21.47,0.53z
	 M18.87,3.88c0.02-0.02,0.03-0.04,0.04-0.07c0.01-0.03,0.02-0.05,0.03-0.08l0.04-0.16L19,3.6c-0.06,0.02-0.12,0.03-0.17,0.06
	c-0.03,0.01-0.06,0.02-0.08,0.04c-0.01,0.01-0.03,0.01-0.03,0.02c-0.01,0.01-0.02,0.02-0.02,0.03c-0.02,0.04-0.01,0.1,0.02,0.13
	C18.75,3.91,18.82,3.92,18.87,3.88z M18.87,3.89c-0.04,0.04-0.12,0.06-0.19,0.03c-0.07-0.04-0.09-0.13-0.05-0.2
	c0.01-0.02,0.02-0.03,0.04-0.04c0.02-0.01,0.03-0.02,0.05-0.03c0.03-0.01,0.06-0.02,0.09-0.03c0.06-0.02,0.12-0.03,0.18-0.04l0,0
	c0.01,0,0.02,0,0.02,0.01c0,0,0,0.01,0,0.01c-0.02,0.05-0.04,0.1-0.06,0.15c-0.01,0.02-0.02,0.05-0.04,0.07
	C18.9,3.84,18.89,3.86,18.87,3.89z M19,3.59C19,3.59,19,3.59,19,3.59c0.06-0.05,0.13-0.09,0.19-0.12c0.07-0.04,0.13-0.07,0.2-0.09
	c0.07-0.02,0.14-0.03,0.21-0.05c0.07-0.02,0.14-0.02,0.22-0.03c0,0,0,0,0,0c0,0,0,0,0,0c-0.07-0.02-0.15-0.03-0.23-0.02
	c-0.08,0.01-0.15,0.03-0.22,0.07C19.23,3.39,19.1,3.47,19,3.59C18.99,3.58,18.99,3.58,19,3.59z M8.92,7.58
	c0.12,0,0.21-0.09,0.22-0.21c0-0.12-0.09-0.21-0.21-0.22c-0.12,0-0.21,0.09-0.22,0.21C8.71,7.48,8.8,7.58,8.92,7.58z M9.25,11.03
	c0.12,0,0.21-0.09,0.22-0.21c0-0.12-0.09-0.21-0.21-0.22s-0.21,0.09-0.22,0.21C9.04,10.93,9.13,11.03,9.25,11.03z M7.91,10.74
	c0.12,0,0.21-0.09,0.22-0.21c0-0.12-0.09-0.21-0.21-0.22c-0.12,0-0.21,0.09-0.22,0.21C7.7,10.64,7.79,10.74,7.91,10.74z M7.18,9.86
	c0.12,0,0.21-0.09,0.22-0.21c0-0.12-0.09-0.21-0.21-0.22c-0.12,0-0.21,0.09-0.22,0.21C6.97,9.76,7.07,9.86,7.18,9.86z M16.94,8.26
	c0.12,0,0.21-0.09,0.22-0.21c0-0.12-0.09-0.21-0.21-0.22c-0.12,0-0.21,0.09-0.22,0.21C16.73,8.17,16.82,8.26,16.94,8.26z
	 M18.06,8.71c0.12,0,0.21-0.09,0.22-0.21c0-0.12-0.09-0.21-0.21-0.22c-0.12,0-0.21,0.09-0.22,0.21C17.84,8.61,17.94,8.7,18.06,8.71z
	 M18.65,9.54c0.12,0,0.21-0.09,0.22-0.21c0-0.12-0.09-0.21-0.21-0.22c-0.12,0-0.21,0.09-0.22,0.21C18.43,9.44,18.53,9.54,18.65,9.54
	z M11.03,11.77c0.12,0,0.21-0.09,0.22-0.21c0-0.12-0.09-0.21-0.21-0.22c-0.12,0-0.21,0.09-0.22,0.21
	C10.82,11.67,10.91,11.77,11.03,11.77z M10.19,13.11c0.12,0,0.21-0.09,0.22-0.21c0-0.12-0.09-0.21-0.21-0.22
	c-0.12,0-0.21,0.09-0.22,0.21C9.98,13.01,10.07,13.11,10.19,13.11z M10.8,14.26c0.12,0,0.21-0.09,0.22-0.21
	c0-0.12-0.09-0.21-0.21-0.22c-0.12,0-0.21,0.09-0.22,0.21C10.59,14.16,10.68,14.26,10.8,14.26z M7.71,7.56
	c0.12,0,0.21-0.09,0.22-0.21c0-0.12-0.09-0.21-0.21-0.22c-0.12,0-0.21,0.09-0.22,0.21C7.5,7.46,7.6,7.55,7.71,7.56z M6.73,6.74
	c0.12,0,0.21-0.09,0.22-0.21c0-0.12-0.09-0.21-0.21-0.22c-0.12,0-0.21,0.09-0.22,0.21C6.52,6.64,6.62,6.74,6.73,6.74z M15.02,9.75
	c0.01,0,0.02-0.01,0.02-0.02c0-0.4-0.06-0.8-0.13-1.19c-0.07-0.39-0.16-0.78-0.27-1.17c-0.22-0.77-0.51-1.52-0.9-2.23
	c-0.39-0.7-0.89-1.36-1.53-1.87c-0.32-0.25-0.67-0.47-1.05-0.63c-0.38-0.16-0.78-0.26-1.19-0.3c-0.2-0.02-0.41-0.03-0.62-0.03
	C9.14,2.32,8.93,2.34,8.72,2.38c-0.41,0.08-0.8,0.26-1.14,0.51C7.41,3.01,7.25,3.15,7.11,3.3C6.96,3.45,6.83,3.63,6.73,3.82
	c-0.1,0.19-0.18,0.4-0.21,0.61C6.48,4.64,6.48,4.86,6.5,5.07c0.03,0.21,0.09,0.42,0.17,0.61c0.04,0.1,0.09,0.19,0.14,0.29
	c0.05,0.09,0.11,0.18,0.18,0.26C7.12,6.4,7.27,6.55,7.44,6.68C7.61,6.81,7.8,6.91,8.01,6.97c0.11,0.03,0.21,0.05,0.32,0.05
	c0.11,0,0.22-0.01,0.32-0.04C8.86,6.92,9.06,6.8,9.18,6.62c0.06-0.09,0.11-0.19,0.13-0.3C9.33,6.21,9.33,6.1,9.29,6
	C9.26,5.9,9.2,5.81,9.13,5.73C9.05,5.66,8.97,5.6,8.88,5.55c-0.01,0-0.02,0-0.02,0.01c0,0.01,0,0.02,0,0.02
	c0.16,0.11,0.3,0.26,0.34,0.45c0.02,0.09,0.02,0.18,0,0.27C9.17,6.38,9.13,6.46,9.07,6.53C8.96,6.67,8.79,6.76,8.61,6.8
	C8.43,6.83,8.24,6.81,8.07,6.76C7.72,6.64,7.43,6.38,7.21,6.07c-0.06-0.08-0.1-0.16-0.15-0.24C7.02,5.75,6.98,5.66,6.95,5.58
	C6.88,5.4,6.83,5.22,6.81,5.03c-0.04-0.37,0.03-0.74,0.2-1.06c0.09-0.16,0.19-0.32,0.32-0.45c0.13-0.14,0.27-0.27,0.42-0.38
	c0.3-0.23,0.65-0.4,1.02-0.48c0.37-0.08,0.76-0.1,1.15-0.07c0.39,0.04,0.77,0.12,1.13,0.26c0.36,0.14,0.7,0.34,1.01,0.58
	c0.62,0.48,1.12,1.11,1.52,1.79c0.4,0.68,0.71,1.42,0.95,2.18c0.12,0.38,0.22,0.77,0.3,1.16c0.08,0.39,0.15,0.78,0.16,1.18
	C15,9.74,15.01,9.75,15.02,9.75z M16.09,9.77C16.09,9.77,16.1,9.77,16.09,9.77c-0.02-0.2,0.01-0.4,0.11-0.57
	c0.09-0.17,0.24-0.31,0.41-0.39c0.17-0.09,0.36-0.13,0.55-0.11c0.19,0.02,0.37,0.1,0.5,0.23c0.14,0.13,0.24,0.3,0.28,0.48
	c0.04,0.18,0.03,0.38-0.01,0.56c-0.1,0.37-0.32,0.7-0.6,0.95c-0.14,0.13-0.3,0.23-0.47,0.3c-0.18,0.07-0.36,0.11-0.55,0.13
	c-0.19,0.02-0.38,0.01-0.57-0.01c-0.19-0.02-0.37-0.07-0.55-0.14c-0.18-0.06-0.35-0.15-0.51-0.25c-0.16-0.11-0.31-0.23-0.43-0.37
	c-0.13-0.14-0.23-0.3-0.32-0.47c-0.08-0.17-0.14-0.36-0.17-0.55c0,0,0-0.01-0.01-0.01c0,0-0.01,0-0.01,0.01
	c0.01,0.2,0.06,0.39,0.13,0.57c0.07,0.18,0.18,0.36,0.3,0.51l0.1,0.11l0.11,0.1c0.03,0.04,0.08,0.06,0.11,0.1L14.55,11l0.06,0.04
	c0.16,0.12,0.34,0.21,0.52,0.28c0.37,0.15,0.78,0.2,1.17,0.15c0.2-0.03,0.39-0.07,0.58-0.15c0.19-0.08,0.35-0.2,0.5-0.33
	c0.29-0.27,0.52-0.62,0.61-1c0.05-0.19,0.05-0.4,0-0.6c-0.05-0.2-0.16-0.37-0.31-0.51c-0.15-0.13-0.34-0.22-0.54-0.23
	c-0.2-0.02-0.4,0.03-0.57,0.12c-0.17,0.09-0.32,0.24-0.41,0.42C16.08,9.37,16.06,9.57,16.09,9.77C16.08,9.77,16.09,9.77,16.09,9.77z
	 M11.83,6.49c0,0.01,0,0.02,0.01,0.02c0.1,0.03,0.22,0.04,0.32-0.01c0.1-0.05,0.18-0.14,0.22-0.24c0.05-0.1,0.08-0.21,0.09-0.32
	c0.01-0.11,0.01-0.22-0.02-0.33c-0.01-0.03-0.02-0.05-0.03-0.08l-0.03-0.07c-0.02-0.05-0.05-0.1-0.08-0.14
	c-0.06-0.09-0.14-0.17-0.24-0.23c-0.1-0.06-0.2-0.1-0.32-0.11c-0.11-0.01-0.22-0.01-0.33,0.02C11.2,5.04,11,5.14,10.83,5.27
	c-0.18,0.13-0.33,0.3-0.43,0.5c-0.11,0.2-0.17,0.41-0.19,0.63c-0.03,0.22-0.01,0.44,0.03,0.66c0.08,0.43,0.26,0.84,0.47,1.21
	c0.22,0.38,0.46,0.73,0.73,1.07c0.54,0.68,1.2,1.25,1.94,1.71c0.37,0.23,0.76,0.42,1.16,0.59c0.1,0.04,0.2,0.08,0.3,0.12l0.15,0.06
	l0.08,0.03l0.08,0.02c0.21,0.06,0.41,0.13,0.62,0.18c0.1,0.03,0.21,0.05,0.31,0.08l0.32,0.07c0.21,0.05,0.42,0.08,0.63,0.12
	c0.11,0.02,0.21,0.03,0.32,0.05l0.32,0.05c0.21,0.03,0.43,0.05,0.64,0.08c0.85,0.09,1.71,0.14,2.56,0.17
	c0.85,0.02,1.71,0.01,2.56-0.04c0.01,0,0.01-0.01,0.01-0.02c0-0.01-0.01-0.02-0.02-0.02c-1.7-0.07-3.4-0.19-5.09-0.41
	c-0.42-0.05-0.84-0.11-1.26-0.18c-0.21-0.04-0.42-0.07-0.62-0.11l-0.31-0.06c-0.1-0.02-0.21-0.05-0.31-0.07
	c-0.21-0.04-0.41-0.1-0.61-0.16l-0.08-0.02l-0.07-0.03l-0.15-0.05c-0.1-0.03-0.2-0.07-0.3-0.11c-0.39-0.16-0.77-0.34-1.13-0.55
	c-0.72-0.43-1.38-0.97-1.91-1.62c-0.27-0.32-0.51-0.67-0.73-1.03c-0.21-0.36-0.39-0.75-0.47-1.15c-0.08-0.4-0.06-0.84,0.12-1.2
	c0.09-0.18,0.23-0.34,0.39-0.47c0.16-0.13,0.35-0.23,0.55-0.28c0.2-0.05,0.41-0.03,0.59,0.07c0.17,0.1,0.3,0.28,0.36,0.48
	c0.03,0.1,0.03,0.2,0.03,0.31c-0.01,0.1-0.03,0.21-0.07,0.3c-0.04,0.09-0.11,0.18-0.2,0.22c-0.09,0.05-0.2,0.05-0.3,0.02
	C11.84,6.48,11.83,6.48,11.83,6.49z M21.82,12.14C21.82,12.14,21.82,12.13,21.82,12.14c-0.11-0.05-0.21-0.11-0.31-0.18
	c-0.09-0.07-0.18-0.15-0.24-0.25c-0.13-0.19-0.17-0.43-0.26-0.65c-0.04-0.11-0.1-0.22-0.17-0.32c-0.07-0.1-0.15-0.19-0.24-0.27
	c-0.09-0.08-0.19-0.15-0.29-0.21c-0.05-0.03-0.11-0.06-0.16-0.08c-0.06-0.02-0.11-0.05-0.17-0.06c-0.23-0.07-0.5-0.07-0.73,0.03
	c-0.23,0.1-0.42,0.27-0.54,0.49c-0.06,0.11-0.09,0.24-0.09,0.37c0,0.03,0.01,0.07,0.01,0.1c0.01,0.03,0.02,0.06,0.03,0.09
	c0.02,0.06,0.06,0.11,0.11,0.16c0.09,0.09,0.2,0.16,0.31,0.19c0.12,0.03,0.25,0.03,0.36-0.02c0,0,0,0,0-0.01c0,0,0-0.01-0.01,0
	c-0.11,0.03-0.23,0.02-0.34-0.02c-0.11-0.04-0.2-0.11-0.27-0.2c-0.07-0.09-0.11-0.19-0.11-0.29c0-0.11,0.03-0.21,0.09-0.31
	c0.05-0.1,0.13-0.18,0.21-0.26c0.08-0.07,0.18-0.14,0.28-0.18c0.2-0.09,0.43-0.1,0.65-0.05c0.06,0.01,0.11,0.03,0.16,0.05
	c0.05,0.02,0.11,0.04,0.15,0.07c0.1,0.05,0.19,0.12,0.28,0.2c0.09,0.07,0.17,0.16,0.24,0.25c0.07,0.09,0.12,0.19,0.17,0.3
	c0.09,0.21,0.14,0.45,0.29,0.65c0.07,0.1,0.16,0.18,0.26,0.25C21.59,12.05,21.7,12.1,21.82,12.14
	C21.81,12.14,21.82,12.14,21.82,12.14z M23.44,12.59c0-0.01-0.01-0.01-0.02-0.01c-1.4,0.28-2.81,0.56-4.21,0.82
	c-0.7,0.14-1.41,0.27-2.11,0.39c-0.7,0.12-1.41,0.24-2.12,0.34c-0.18,0.02-0.35,0.05-0.53,0.07c-0.18,0.02-0.35,0.04-0.53,0.06
	c-0.35,0.03-0.71,0.06-1.06,0.05c-0.35-0.01-0.7-0.04-1.01-0.15c-0.3-0.11-0.58-0.32-0.77-0.58c-0.2-0.26-0.32-0.58-0.26-0.89
	c0.04-0.31,0.29-0.56,0.58-0.72c0.15-0.08,0.31-0.13,0.47-0.14c0.16-0.01,0.33,0.01,0.48,0.09c0.14,0.07,0.26,0.21,0.37,0.35
	c0.1,0.14,0.18,0.3,0.26,0.46c0,0.01,0.01,0.01,0.02,0.01c0.01,0,0.01-0.01,0.01-0.02c-0.06-0.17-0.12-0.34-0.21-0.5
	c-0.05-0.08-0.1-0.16-0.16-0.23c-0.06-0.07-0.13-0.14-0.21-0.19c-0.16-0.11-0.36-0.15-0.56-0.15c-0.19,0-0.38,0.05-0.56,0.13
	c-0.18,0.08-0.34,0.19-0.48,0.33c-0.07,0.07-0.13,0.15-0.18,0.24l-0.03,0.07l-0.03,0.07l-0.04,0.15c-0.04,0.2-0.03,0.41,0.03,0.6
	c0.05,0.19,0.14,0.37,0.26,0.53c0.23,0.31,0.54,0.56,0.92,0.7c0.19,0.06,0.37,0.1,0.56,0.12c0.19,0.02,0.37,0.03,0.55,0.03
	c0.37,0,0.73-0.04,1.09-0.08c0.18-0.02,0.36-0.05,0.54-0.07c0.18-0.03,0.36-0.05,0.53-0.08c0.71-0.12,1.41-0.25,2.12-0.39
	c0.7-0.14,1.4-0.29,2.1-0.44c1.4-0.31,2.79-0.63,4.19-0.94C23.44,12.61,23.44,12.6,23.44,12.59z M13.88,12.23c0,0,0-0.01,0-0.01
	c-0.41-0.22-0.77-0.53-1.1-0.85c-0.33-0.33-0.64-0.68-0.93-1.05c-0.29-0.36-0.58-0.74-0.88-1.1c-0.15-0.18-0.3-0.36-0.48-0.53
	c-0.09-0.08-0.18-0.16-0.28-0.23c-0.05-0.04-0.1-0.07-0.15-0.1c-0.05-0.03-0.1-0.06-0.16-0.09C9.8,8.22,9.69,8.17,9.57,8.14
	C9.45,8.1,9.33,8.07,9.21,8.06c-0.24-0.02-0.5,0.01-0.73,0.09C8.25,8.24,8.03,8.38,7.87,8.57C7.71,8.77,7.59,9.01,7.58,9.27
	c0,0.13,0.02,0.26,0.06,0.38c0.05,0.12,0.12,0.23,0.21,0.32c0.18,0.18,0.4,0.3,0.64,0.36c0.12,0.03,0.24,0.05,0.36,0.04
	c0.12,0,0.24-0.02,0.36-0.06c0.23-0.07,0.44-0.18,0.64-0.29c0,0,0.01-0.01,0-0.01c0,0-0.01-0.01-0.01-0.01
	c-0.22,0.09-0.43,0.18-0.66,0.23c-0.22,0.05-0.45,0.04-0.66-0.03c-0.21-0.07-0.41-0.19-0.55-0.35C7.9,9.77,7.84,9.68,7.81,9.58
	c-0.03-0.1-0.05-0.2-0.04-0.31C7.78,9.07,7.88,8.86,8.02,8.7c0.07-0.08,0.15-0.16,0.24-0.22c0.09-0.06,0.19-0.11,0.29-0.15
	c0.21-0.08,0.43-0.11,0.65-0.1c0.11,0.01,0.22,0.03,0.33,0.06c0.11,0.03,0.21,0.07,0.31,0.12c0.41,0.2,0.73,0.54,1.03,0.89
	c0.3,0.35,0.59,0.72,0.9,1.08c0.3,0.36,0.62,0.71,0.96,1.03c0.34,0.32,0.72,0.61,1.13,0.83C13.87,12.24,13.87,12.24,13.88,12.23z
	 M15.7,7.88c-0.03,0.01-0.05,0.02-0.08,0.03c-0.03,0.01-0.05,0.01-0.08,0.02c-0.05,0.01-0.11,0.02-0.16,0.02
	c-0.01,0-0.02-0.01-0.02-0.02c0,0,0-0.01,0-0.01l0,0c0.03-0.06,0.05-0.11,0.09-0.17c0.02-0.03,0.03-0.05,0.05-0.08
	c0.01-0.01,0.02-0.03,0.04-0.04c0.02-0.01,0.03-0.02,0.05-0.02c0.07-0.02,0.16,0.02,0.18,0.1C15.79,7.77,15.75,7.85,15.7,7.88z
	 M15.69,7.87c0.05-0.03,0.06-0.11,0.03-0.15c-0.03-0.04-0.08-0.06-0.12-0.05c-0.01,0-0.02,0.01-0.03,0.01
	c-0.01,0-0.02,0.02-0.03,0.03c-0.02,0.02-0.04,0.05-0.05,0.07c-0.03,0.05-0.07,0.1-0.1,0.16l-0.02-0.03l0.16,0
	c0.03,0,0.05,0,0.08-0.01C15.64,7.89,15.67,7.88,15.69,7.87z M15.38,7.92C15.38,7.92,15.37,7.92,15.38,7.92
	C15.24,8,15.13,8.1,15.04,8.23c-0.05,0.06-0.09,0.13-0.12,0.2c-0.03,0.07-0.04,0.15-0.03,0.23c0,0,0,0,0,0c0,0,0,0,0,0
	c0.03-0.07,0.05-0.14,0.09-0.21c0.03-0.06,0.06-0.13,0.1-0.19c0.04-0.06,0.09-0.12,0.14-0.18C15.26,8.02,15.32,7.97,15.38,7.92
	C15.38,7.92,15.38,7.92,15.38,7.92z M8.49,1.75c0.02,0.02,0.03,0.05,0.04,0.07C8.54,1.84,8.55,1.87,8.56,1.9
	C8.57,1.95,8.59,2,8.6,2.05c0,0.01,0,0.02-0.01,0.02c0,0-0.01,0-0.01,0l0,0C8.52,2.06,8.46,2.04,8.4,2.01
	C8.37,2,8.34,1.99,8.31,1.98C8.3,1.97,8.29,1.96,8.27,1.95C8.26,1.93,8.24,1.92,8.24,1.9C8.2,1.83,8.24,1.73,8.3,1.7
	C8.37,1.67,8.45,1.7,8.49,1.75z M8.48,1.75C8.44,1.7,8.37,1.71,8.33,1.74C8.29,1.78,8.28,1.83,8.3,1.87c0,0.01,0.01,0.02,0.02,0.03
	c0.01,0.01,0.02,0.02,0.03,0.02c0.02,0.02,0.05,0.03,0.08,0.04C8.48,2,8.53,2.02,8.59,2.04L8.57,2.06L8.54,1.9
	C8.53,1.87,8.53,1.85,8.52,1.82C8.51,1.8,8.5,1.77,8.48,1.75z M8.58,2.06C8.58,2.06,8.58,2.06,8.58,2.06
	c0.1,0.12,0.22,0.22,0.35,0.29C9,2.38,9.07,2.42,9.15,2.43c0.08,0.02,0.16,0.01,0.23,0c0,0,0,0,0,0c0,0,0,0,0,0
	C9.31,2.4,9.24,2.39,9.17,2.37C9.1,2.35,9.02,2.33,8.96,2.3C8.89,2.27,8.83,2.23,8.76,2.19C8.7,2.15,8.64,2.11,8.58,2.06
	C8.59,2.05,8.58,2.05,8.58,2.06z M13.61,6.44c0.03,0.02,0.05,0.04,0.07,0.07c0.02,0.02,0.05,0.05,0.07,0.07
	c0.04,0.05,0.09,0.1,0.13,0.16c0.01,0.01,0,0.02,0,0.02c0,0-0.01,0-0.01,0l0,0c-0.07-0.01-0.15-0.02-0.22-0.03
	c-0.04-0.01-0.07-0.01-0.11-0.02c-0.02,0-0.04-0.01-0.06-0.02c-0.02-0.01-0.04-0.02-0.05-0.03c-0.03-0.03-0.06-0.06-0.07-0.11
	c-0.01-0.04,0-0.09,0.03-0.13c0.03-0.03,0.08-0.04,0.12-0.04C13.55,6.4,13.58,6.42,13.61,6.44z M13.61,6.44
	c-0.06-0.04-0.15-0.03-0.18,0.02c-0.03,0.05-0.01,0.11,0.04,0.15c0.01,0.01,0.02,0.02,0.04,0.03c0.01,0.01,0.03,0.01,0.05,0.02
	c0.03,0.01,0.07,0.02,0.1,0.03c0.07,0.02,0.14,0.03,0.21,0.04l-0.02,0.03l-0.11-0.17C13.7,6.54,13.67,6.48,13.61,6.44z M13.86,6.75
	C13.86,6.75,13.86,6.75,13.86,6.75c0.07,0.08,0.17,0.12,0.26,0.15c0.05,0.01,0.1,0.03,0.15,0.03c0.05,0,0.1,0,0.15-0.02c0,0,0,0,0,0
	c0,0,0,0,0,0c-0.05-0.02-0.1-0.02-0.15-0.03c-0.05-0.01-0.1-0.01-0.14-0.02C14.09,6.84,14.05,6.83,14,6.81
	C13.95,6.8,13.91,6.77,13.86,6.75C13.87,6.75,13.87,6.75,13.86,6.75z M14.73,13.41c0.02,0.03,0.02,0.06,0.03,0.1
	c0.01,0.03,0.02,0.07,0.02,0.1c0.01,0.07,0.03,0.13,0.03,0.2c0,0.01-0.01,0.02-0.02,0.02c0,0-0.01,0-0.01,0l0,0
	c-0.06-0.04-0.12-0.08-0.18-0.13c-0.03-0.02-0.06-0.05-0.09-0.07c-0.01-0.01-0.03-0.03-0.04-0.04c-0.01-0.02-0.02-0.04-0.03-0.06
	c-0.02-0.04-0.02-0.08-0.01-0.13c0.01-0.04,0.05-0.08,0.09-0.09c0.04-0.01,0.09,0,0.12,0.02C14.69,13.34,14.71,13.37,14.73,13.41z
	 M14.73,13.41c-0.03-0.06-0.12-0.1-0.17-0.07c-0.05,0.03-0.06,0.1-0.04,0.15c0,0.01,0.01,0.03,0.02,0.04
	c0.01,0.01,0.02,0.03,0.03,0.04c0.02,0.03,0.05,0.05,0.08,0.07c0.05,0.05,0.11,0.09,0.17,0.14l-0.03,0.02l-0.02-0.2
	C14.76,13.54,14.76,13.47,14.73,13.41z M14.8,13.8C14.8,13.8,14.8,13.8,14.8,13.8c0.03,0.1,0.09,0.19,0.16,0.26
	c0.04,0.04,0.07,0.08,0.12,0.1c0.04,0.03,0.09,0.05,0.14,0.05c0,0,0,0,0,0c0,0,0,0,0,0c-0.04-0.04-0.07-0.07-0.11-0.1
	c-0.04-0.03-0.08-0.06-0.12-0.09c-0.04-0.03-0.07-0.07-0.1-0.1C14.85,13.89,14.83,13.85,14.8,13.8C14.8,13.8,14.8,13.8,14.8,13.8z
	 M19.68,9.38c0.01,0.03,0.02,0.06,0.03,0.1c0.01,0.03,0.01,0.07,0.02,0.1c0.01,0.07,0.02,0.13,0.02,0.2c0,0.01-0.01,0.02-0.02,0.02
	c0,0-0.01,0-0.01,0l0,0c-0.06-0.04-0.12-0.09-0.17-0.14c-0.03-0.02-0.06-0.05-0.08-0.08c-0.01-0.01-0.03-0.03-0.04-0.04
	c-0.01-0.02-0.02-0.04-0.03-0.06c-0.01-0.04-0.01-0.08,0-0.13c0.01-0.04,0.05-0.08,0.1-0.09c0.04-0.01,0.09,0.01,0.12,0.03
	C19.64,9.32,19.66,9.35,19.68,9.38z M19.67,9.38c-0.03-0.06-0.11-0.1-0.17-0.08c-0.05,0.02-0.07,0.09-0.05,0.15
	c0,0.01,0.01,0.03,0.02,0.04c0.01,0.01,0.02,0.03,0.03,0.04c0.02,0.03,0.05,0.05,0.07,0.08c0.05,0.05,0.11,0.1,0.16,0.15l-0.03,0.01
	l-0.01-0.2C19.7,9.51,19.7,9.44,19.67,9.38z M19.73,9.77C19.73,9.78,19.73,9.78,19.73,9.77c0.02,0.1,0.08,0.19,0.14,0.27
	c0.03,0.04,0.07,0.08,0.11,0.11c0.04,0.03,0.09,0.05,0.14,0.06c0,0,0,0,0,0c0,0,0,0,0,0c-0.03-0.04-0.07-0.07-0.11-0.11
	c-0.04-0.03-0.08-0.06-0.11-0.09c-0.04-0.03-0.07-0.07-0.1-0.11C19.78,9.86,19.75,9.82,19.73,9.77C19.73,9.78,19.73,9.77,19.73,9.77
	z M13.42,10.05c0,0.03-0.01,0.07-0.01,0.1c-0.01,0.03-0.01,0.07-0.02,0.1c-0.01,0.07-0.03,0.13-0.05,0.19
	c0,0.01-0.01,0.01-0.02,0.01c0,0-0.01,0-0.01-0.01l0,0c-0.04-0.06-0.07-0.13-0.11-0.19c-0.02-0.03-0.03-0.07-0.05-0.1
	c-0.01-0.02-0.01-0.04-0.02-0.06c-0.01-0.02-0.01-0.04-0.01-0.06c0-0.04,0.02-0.08,0.05-0.12c0.03-0.03,0.08-0.06,0.12-0.05
	c0.04,0.01,0.08,0.04,0.1,0.07C13.41,9.98,13.42,10.01,13.42,10.05z M13.42,10.05c-0.01-0.07-0.07-0.14-0.13-0.13
	c-0.06,0-0.09,0.06-0.1,0.12c0,0.02,0,0.03,0,0.05c0,0.02,0.01,0.03,0.01,0.05c0.01,0.03,0.02,0.07,0.04,0.1
	c0.03,0.07,0.06,0.13,0.09,0.2l-0.03,0l0.07-0.19C13.4,10.18,13.42,10.12,13.42,10.05z M13.32,10.44
	C13.32,10.44,13.32,10.44,13.32,10.44c-0.02,0.1,0,0.21,0.03,0.3c0.02,0.05,0.03,0.1,0.06,0.14c0.03,0.04,0.06,0.08,0.11,0.11
	c0,0,0,0,0,0c0,0,0,0,0,0c-0.02-0.05-0.04-0.09-0.06-0.14c-0.02-0.04-0.05-0.08-0.07-0.13c-0.02-0.04-0.04-0.09-0.05-0.14
	C13.34,10.54,13.33,10.49,13.32,10.44C13.32,10.44,13.32,10.44,13.32,10.44z M14.83,12.18c0.03-0.01,0.07,0,0.1,0
	c0.03,0,0.07,0,0.1,0.01c0.07,0,0.13,0.01,0.2,0.03c0.01,0,0.02,0.01,0.01,0.02c0,0,0,0.01-0.01,0.01l0,0
	c-0.06,0.05-0.11,0.09-0.17,0.13c-0.03,0.02-0.06,0.04-0.09,0.06c-0.02,0.01-0.03,0.02-0.05,0.03c-0.02,0.01-0.04,0.01-0.06,0.01
	c-0.04,0-0.09-0.01-0.12-0.03c-0.04-0.02-0.07-0.07-0.06-0.11c0-0.05,0.03-0.08,0.06-0.11C14.75,12.21,14.79,12.19,14.83,12.18z
	 M14.83,12.19c-0.07,0.02-0.13,0.09-0.11,0.14c0.01,0.06,0.07,0.09,0.14,0.08c0.02,0,0.03,0,0.04-0.01
	c0.02-0.01,0.03-0.01,0.05-0.02c0.03-0.02,0.06-0.03,0.09-0.05c0.06-0.04,0.12-0.08,0.18-0.12l0.01,0.03l-0.2-0.04
	C14.96,12.19,14.89,12.18,14.83,12.19z M15.22,12.23C15.22,12.23,15.22,12.23,15.22,12.23c0.1,0,0.2-0.03,0.3-0.07
	c0.05-0.02,0.09-0.05,0.13-0.08c0.04-0.03,0.07-0.08,0.09-0.12c0,0,0,0,0,0c0,0,0,0,0,0c-0.05,0.02-0.09,0.05-0.13,0.08
	c-0.04,0.03-0.08,0.06-0.12,0.09c-0.04,0.03-0.08,0.05-0.13,0.07C15.32,12.2,15.27,12.22,15.22,12.23
	C15.22,12.23,15.22,12.23,15.22,12.23z M7.27,8.08C7.3,8.09,7.33,8.11,7.35,8.13C7.38,8.16,7.41,8.18,7.43,8.2
	c0.05,0.04,0.1,0.09,0.15,0.14c0.01,0.01,0.01,0.02,0,0.03c0,0-0.01,0-0.01,0l0,0c-0.07,0-0.15,0-0.22,0c-0.04,0-0.07,0-0.11-0.01
	c-0.02,0-0.04,0-0.06-0.01C7.15,8.35,7.14,8.34,7.12,8.33c-0.04-0.02-0.07-0.06-0.08-0.1C7.02,8.19,7.02,8.14,7.05,8.1
	c0.03-0.04,0.07-0.05,0.11-0.05C7.2,8.05,7.24,8.06,7.27,8.08z M7.27,8.08C7.2,8.05,7.12,8.08,7.09,8.13
	C7.07,8.18,7.1,8.24,7.15,8.28C7.16,8.29,7.18,8.29,7.19,8.3c0.02,0,0.03,0.01,0.05,0.01c0.03,0.01,0.07,0.01,0.11,0.01
	c0.07,0.01,0.14,0.01,0.22,0.01L7.55,8.36L7.42,8.21C7.37,8.16,7.33,8.11,7.27,8.08z M7.56,8.35C7.56,8.35,7.56,8.35,7.56,8.35
	c0.08,0.06,0.18,0.1,0.28,0.12C7.89,8.47,7.94,8.49,8,8.48c0.05-0.01,0.1-0.02,0.15-0.04c0,0,0,0,0,0c0,0,0,0,0,0
	c-0.05-0.01-0.1-0.01-0.15-0.01c-0.05,0-0.1,0-0.14,0c-0.05,0-0.1-0.01-0.14-0.02C7.66,8.39,7.61,8.37,7.56,8.35
	C7.56,8.35,7.56,8.35,7.56,8.35z M13.28,3.65c0.01,0.07,0.05,0.12,0.09,0.18l0.11,0.17l-0.03,0.01c0.02-0.07,0.03-0.14,0.04-0.21
	c0.01-0.04,0.01-0.07,0.01-0.11c0-0.02,0-0.03,0-0.05c0-0.01,0-0.03-0.01-0.04c-0.02-0.06-0.07-0.1-0.13-0.09
	C13.31,3.5,13.26,3.58,13.28,3.65z M13.27,3.65c-0.01-0.04-0.01-0.07,0.01-0.11c0.01-0.04,0.04-0.07,0.08-0.09
	c0.04-0.02,0.09-0.01,0.13,0.02c0.04,0.03,0.06,0.06,0.07,0.1c0.01,0.02,0.01,0.04,0.01,0.06c0,0.02,0,0.04-0.01,0.06
	c-0.01,0.04-0.01,0.07-0.02,0.11C13.52,3.86,13.5,3.93,13.48,4l0,0c0,0.01-0.01,0.01-0.02,0.01c0,0-0.01,0-0.01-0.01
	c-0.04-0.06-0.07-0.12-0.1-0.18c-0.01-0.03-0.03-0.06-0.04-0.09C13.29,3.71,13.28,3.68,13.27,3.65z M13.46,4
	C13.46,4,13.46,4,13.46,4c0,0.07,0.01,0.13,0.01,0.2c0,0.06,0,0.13-0.01,0.19c-0.01,0.06-0.03,0.12-0.03,0.19
	c-0.01,0.06-0.02,0.12-0.03,0.19c0,0,0,0,0,0c0,0,0,0,0,0c0.04-0.05,0.07-0.11,0.09-0.18c0.02-0.06,0.02-0.13,0.02-0.2
	C13.51,4.26,13.5,4.12,13.46,4C13.46,4,13.46,4,13.46,4z M9.74,9.31c0.06-0.02,0.12-0.06,0.17-0.1l0.16-0.13l0.01,0.03
	C10.01,9.11,9.94,9.1,9.86,9.09c-0.04,0-0.07-0.01-0.11-0.01c-0.02,0-0.03,0-0.05,0c-0.01,0-0.03,0.01-0.04,0.01
	c-0.06,0.02-0.1,0.08-0.08,0.13C9.59,9.29,9.67,9.33,9.74,9.31z M9.75,9.32c-0.04,0.01-0.07,0.01-0.11,0
	C9.6,9.31,9.56,9.29,9.54,9.25C9.51,9.21,9.52,9.16,9.54,9.12c0.02-0.04,0.06-0.07,0.1-0.08C9.66,9.03,9.68,9.03,9.7,9.03
	c0.02,0,0.04,0,0.06,0c0.04,0,0.07,0.01,0.11,0.01c0.07,0.01,0.14,0.03,0.22,0.04l0,0c0.01,0,0.02,0.01,0.01,0.02
	c0,0,0,0.01-0.01,0.01c-0.05,0.04-0.11,0.08-0.17,0.11C9.9,9.24,9.87,9.26,9.84,9.28C9.81,9.29,9.78,9.31,9.75,9.32z M10.08,9.1
	C10.08,9.1,10.08,9.1,10.08,9.1c0.06-0.02,0.12-0.03,0.17-0.03c0.06-0.01,0.11-0.01,0.17-0.01c0.06,0,0.11,0.01,0.17,0.02
	c0.06,0,0.11,0.01,0.17,0.01c0,0,0,0,0,0c0,0,0,0,0,0c-0.05-0.03-0.11-0.06-0.16-0.07c-0.06-0.01-0.12-0.01-0.18,0
	C10.3,9.02,10.19,9.05,10.08,9.1C10.08,9.1,10.08,9.1,10.08,9.1z M10.75,4.36c0,0.07,0.03,0.13,0.06,0.19l0.09,0.18l-0.03,0
	c0.03-0.07,0.05-0.13,0.08-0.2c0.01-0.03,0.02-0.07,0.03-0.1c0-0.02,0.01-0.03,0.01-0.05c0-0.01,0-0.03,0-0.05
	c-0.01-0.06-0.05-0.11-0.11-0.11C10.81,4.22,10.75,4.29,10.75,4.36z M10.75,4.36c0-0.04,0.01-0.07,0.02-0.11
	c0.02-0.03,0.05-0.07,0.09-0.08c0.04-0.01,0.09,0,0.13,0.04c0.03,0.03,0.05,0.07,0.06,0.11c0,0.02,0,0.04,0,0.06
	c0,0.02-0.01,0.04-0.01,0.06c-0.01,0.04-0.02,0.07-0.04,0.1c-0.03,0.07-0.06,0.13-0.09,0.2l0,0c0,0.01-0.01,0.01-0.02,0.01
	c0,0-0.01-0.01-0.01-0.01c-0.03-0.06-0.05-0.12-0.07-0.19c-0.01-0.03-0.02-0.06-0.03-0.1C10.76,4.43,10.75,4.4,10.75,4.36z
	 M10.88,4.74C10.88,4.74,10.88,4.74,10.88,4.74c0,0.06,0,0.12-0.01,0.17c-0.01,0.06-0.02,0.11-0.03,0.17
	c-0.01,0.05-0.04,0.11-0.05,0.16c-0.02,0.05-0.04,0.11-0.05,0.16c0,0,0,0,0,0c0,0,0,0,0,0c0.04-0.04,0.08-0.09,0.11-0.14
	c0.03-0.05,0.04-0.11,0.05-0.17C10.91,4.97,10.91,4.85,10.88,4.74C10.89,4.74,10.89,4.74,10.88,4.74z M11.03,6.95
	C11.01,6.98,10.99,7,10.97,7.03c-0.02,0.03-0.05,0.05-0.07,0.07c-0.05,0.05-0.1,0.09-0.15,0.14c-0.01,0.01-0.02,0.01-0.03,0
	c0,0,0-0.01,0-0.01l0,0c0-0.07,0-0.15,0.01-0.22c0-0.04,0.01-0.07,0.01-0.11c0-0.02,0.01-0.04,0.01-0.06
	c0.01-0.02,0.02-0.04,0.03-0.06c0.02-0.03,0.06-0.06,0.1-0.08c0.04-0.01,0.09-0.01,0.13,0.02c0.03,0.03,0.05,0.07,0.05,0.11
	C11.06,6.88,11.05,6.92,11.03,6.95z M11.03,6.95c0.03-0.06,0.01-0.15-0.04-0.18c-0.05-0.03-0.11,0-0.15,0.05
	c-0.01,0.01-0.02,0.03-0.02,0.04c-0.01,0.02-0.01,0.03-0.01,0.05c-0.01,0.03-0.01,0.07-0.02,0.11c-0.01,0.07-0.02,0.14-0.02,0.22
	l-0.03-0.01l0.16-0.12C10.94,7.05,10.99,7,11.03,6.95z M10.74,7.22C10.74,7.22,10.74,7.22,10.74,7.22c-0.08,0.09-0.13,0.2-0.17,0.31
	c-0.02,0.06-0.04,0.11-0.04,0.17c0,0.06,0.01,0.12,0.03,0.18c0,0,0,0,0,0c0,0,0,0,0,0c0.01-0.06,0.02-0.11,0.03-0.17
	c0.01-0.05,0.01-0.11,0.02-0.17c0.01-0.06,0.03-0.11,0.05-0.16C10.69,7.33,10.71,7.28,10.74,7.22C10.74,7.23,10.74,7.22,10.74,7.22z
	 M11.5,15.07c0.05-0.04,0.08-0.11,0.11-0.16l0.09-0.18l0.02,0.03c-0.07,0.02-0.14,0.04-0.21,0.06c-0.03,0.01-0.07,0.02-0.1,0.04
	c-0.02,0.01-0.03,0.02-0.04,0.02c-0.01,0.01-0.02,0.02-0.03,0.03c-0.04,0.05-0.06,0.11-0.02,0.16
	C11.35,15.12,11.44,15.12,11.5,15.07z M11.5,15.08c-0.03,0.02-0.06,0.04-0.1,0.05c-0.04,0.01-0.08,0-0.12-0.02
	c-0.04-0.03-0.05-0.08-0.05-0.12c0.01-0.04,0.03-0.08,0.05-0.11c0.01-0.02,0.03-0.03,0.05-0.04c0.02-0.01,0.04-0.02,0.05-0.02
	c0.04-0.01,0.07-0.02,0.11-0.03c0.07-0.02,0.14-0.04,0.21-0.05l0,0c0.01,0,0.02,0,0.02,0.01c0,0,0,0.01,0,0.01
	c-0.03,0.06-0.07,0.12-0.11,0.17c-0.02,0.03-0.04,0.06-0.06,0.08C11.55,15.03,11.53,15.05,11.5,15.08z M11.71,14.74
	C11.72,14.74,11.72,14.74,11.71,14.74c0.05-0.04,0.09-0.07,0.14-0.1c0.05-0.03,0.1-0.06,0.15-0.08c0.05-0.02,0.11-0.04,0.16-0.05
	c0.05-0.02,0.11-0.04,0.16-0.06c0,0,0,0,0,0c0,0,0,0,0,0c-0.06-0.01-0.12-0.01-0.18,0.01c-0.06,0.01-0.11,0.04-0.16,0.07
	C11.88,14.57,11.79,14.64,11.71,14.74C11.71,14.74,11.71,14.74,11.71,14.74z M16.5,14.76c0.04-0.06,0.05-0.12,0.06-0.19l0.04-0.2
	l0.03,0.02c-0.06,0.04-0.12,0.08-0.18,0.12c-0.03,0.02-0.06,0.04-0.08,0.07c-0.01,0.01-0.03,0.02-0.04,0.04
	c-0.01,0.01-0.02,0.02-0.02,0.04c-0.03,0.06-0.02,0.12,0.02,0.16C16.38,14.84,16.46,14.82,16.5,14.76z M16.51,14.76
	c-0.02,0.03-0.05,0.06-0.08,0.08c-0.03,0.02-0.08,0.03-0.12,0.01c-0.04-0.02-0.07-0.06-0.08-0.1c-0.01-0.04,0-0.09,0.02-0.13
	c0.01-0.02,0.02-0.04,0.04-0.05c0.01-0.01,0.03-0.03,0.04-0.04c0.03-0.02,0.06-0.04,0.09-0.06c0.06-0.04,0.13-0.08,0.19-0.11l0,0
	c0.01,0,0.02,0,0.02,0.01c0,0,0,0.01,0,0.01c-0.01,0.07-0.03,0.13-0.05,0.2c-0.01,0.03-0.02,0.06-0.03,0.1
	C16.54,14.7,16.53,14.73,16.51,14.76z M16.62,14.38C16.62,14.38,16.62,14.38,16.62,14.38c0.03-0.05,0.07-0.1,0.11-0.14
	c0.04-0.04,0.08-0.08,0.12-0.12c0.04-0.04,0.09-0.06,0.14-0.1c0.04-0.03,0.09-0.06,0.14-0.1c0,0,0,0,0,0c0,0,0,0,0,0
	c-0.06,0.01-0.12,0.03-0.17,0.06c-0.05,0.03-0.1,0.07-0.14,0.11C16.73,14.17,16.66,14.27,16.62,14.38
	C16.61,14.38,16.62,14.38,16.62,14.38z M20.21,11.44c0.07,0,0.13-0.04,0.19-0.06l0.18-0.09l0,0.03c-0.07-0.03-0.14-0.05-0.2-0.07
	c-0.03-0.01-0.07-0.02-0.1-0.03c-0.02,0-0.03-0.01-0.05-0.01c-0.01,0-0.03,0-0.05,0c-0.06,0.01-0.11,0.06-0.11,0.11
	C20.06,11.39,20.14,11.44,20.21,11.44z M20.21,11.45c-0.04,0-0.07,0-0.11-0.02c-0.04-0.02-0.07-0.05-0.08-0.09
	c-0.01-0.04,0-0.09,0.03-0.13c0.03-0.03,0.07-0.05,0.11-0.06c0.02,0,0.04,0,0.06,0c0.02,0,0.04,0.01,0.06,0.01
	c0.04,0.01,0.07,0.02,0.11,0.04c0.07,0.03,0.14,0.05,0.2,0.09l0,0c0.01,0,0.01,0.01,0.01,0.02c0,0-0.01,0.01-0.01,0.01
	c-0.06,0.03-0.12,0.05-0.19,0.07c-0.03,0.01-0.06,0.02-0.1,0.03C20.28,11.43,20.24,11.45,20.21,11.45z M21.08,11.35
	c-0.28-0.06-0.5-0.05-0.5-0.05 M10.05,3.41c0.05-0.05,0.08-0.11,0.1-0.17l0.08-0.18l0.02,0.02c-0.07,0.02-0.14,0.05-0.2,0.08
	c-0.03,0.01-0.07,0.03-0.1,0.05C9.93,3.21,9.92,3.22,9.91,3.23C9.9,3.24,9.88,3.25,9.87,3.26C9.84,3.31,9.82,3.38,9.86,3.42
	C9.9,3.47,9.99,3.46,10.05,3.41z M10.05,3.42c-0.03,0.03-0.06,0.04-0.1,0.06C9.92,3.48,9.87,3.48,9.83,3.46
	C9.79,3.43,9.77,3.38,9.78,3.34c0-0.04,0.02-0.09,0.05-0.12c0.01-0.02,0.03-0.03,0.05-0.04c0.02-0.01,0.03-0.02,0.05-0.03
	c0.03-0.02,0.07-0.03,0.1-0.04c0.07-0.02,0.14-0.05,0.21-0.06l0,0c0.01,0,0.02,0,0.02,0.01c0,0,0,0.01,0,0.01
	c-0.03,0.06-0.06,0.12-0.1,0.18c-0.02,0.03-0.04,0.06-0.05,0.09C10.09,3.36,10.07,3.39,10.05,3.42z M10.24,3.07
	C10.24,3.07,10.25,3.07,10.24,3.07c0.05-0.04,0.11-0.08,0.16-0.11c0.05-0.03,0.11-0.06,0.17-0.09c0.06-0.03,0.12-0.05,0.17-0.07
	c0.06-0.03,0.12-0.05,0.18-0.07c0,0,0,0,0,0c0,0,0,0,0,0c-0.07-0.01-0.13,0-0.2,0.02c-0.06,0.02-0.12,0.05-0.18,0.09
	C10.44,2.89,10.33,2.97,10.24,3.07C10.24,3.06,10.24,3.07,10.24,3.07z M7.81,5.15C7.74,5.17,7.68,5.21,7.63,5.25L7.47,5.36
	L7.46,5.33C7.53,5.35,7.6,5.36,7.67,5.37c0.04,0.01,0.07,0.01,0.11,0.01c0.02,0,0.03,0,0.05,0c0.01,0,0.03-0.01,0.04-0.01
	c0.06-0.02,0.1-0.07,0.09-0.13C7.96,5.18,7.88,5.14,7.81,5.15z M7.8,5.15c0.04-0.01,0.07-0.01,0.11,0c0.04,0.01,0.08,0.03,0.09,0.08
	C8.03,5.26,8.02,5.32,8,5.35C7.97,5.39,7.94,5.42,7.9,5.43C7.88,5.44,7.86,5.44,7.83,5.44c-0.02,0-0.04,0-0.06,0
	c-0.04,0-0.07-0.01-0.11-0.02C7.59,5.4,7.52,5.38,7.45,5.36l0,0c-0.01,0-0.02-0.01-0.01-0.02c0,0,0-0.01,0.01-0.01
	C7.5,5.3,7.56,5.26,7.62,5.23C7.65,5.21,7.68,5.2,7.71,5.18C7.74,5.17,7.77,5.15,7.8,5.15z M7.46,5.35
	C7.46,5.35,7.46,5.34,7.46,5.35C7.39,5.35,7.33,5.36,7.26,5.36c-0.06,0-0.13,0-0.19-0.01C7.01,5.35,6.95,5.33,6.89,5.32
	C6.83,5.31,6.77,5.3,6.7,5.29c0,0,0,0,0,0c0,0,0,0,0,0c0.05,0.04,0.12,0.07,0.18,0.08C6.94,5.4,7.01,5.4,7.07,5.4
	C7.2,5.4,7.33,5.38,7.46,5.35C7.46,5.35,7.46,5.35,7.46,5.35z M6.31,4.13c0.05-0.05,0.08-0.11,0.1-0.17L6.5,3.78L6.52,3.8
	c-0.07,0.02-0.14,0.05-0.2,0.08c-0.03,0.01-0.07,0.03-0.1,0.05C6.2,3.93,6.19,3.94,6.17,3.95C6.16,3.96,6.15,3.97,6.14,3.98
	C6.1,4.03,6.09,4.1,6.13,4.14C6.17,4.18,6.26,4.18,6.31,4.13z M6.32,4.13c-0.03,0.03-0.06,0.04-0.1,0.06C6.18,4.2,6.14,4.2,6.1,4.17
	C6.06,4.15,6.04,4.1,6.04,4.06c0-0.04,0.02-0.09,0.05-0.12C6.11,3.92,6.12,3.91,6.14,3.9c0.02-0.01,0.03-0.02,0.05-0.03
	c0.03-0.02,0.07-0.03,0.1-0.04c0.07-0.02,0.14-0.05,0.21-0.06l0,0c0.01,0,0.02,0,0.02,0.01c0,0,0,0.01,0,0.01
	C6.5,3.85,6.47,3.91,6.43,3.97C6.41,4,6.4,4.03,6.38,4.05C6.36,4.08,6.34,4.11,6.32,4.13z M6.51,3.79C6.51,3.79,6.51,3.79,6.51,3.79
	c0.05-0.04,0.11-0.08,0.16-0.11c0.05-0.03,0.11-0.06,0.17-0.09C6.9,3.56,6.96,3.54,7.01,3.51c0.06-0.03,0.12-0.05,0.18-0.07
	c0,0,0,0,0,0c0,0,0,0,0,0c-0.07-0.01-0.13,0-0.2,0.02C6.93,3.47,6.87,3.51,6.82,3.54C6.7,3.61,6.6,3.69,6.51,3.79
	C6.51,3.78,6.51,3.78,6.51,3.79z M23.41,12.6c0,0-0.01-0.01-0.01-0.01l0-0.01l-0.01-0.02l-0.02-0.03l-0.03-0.06l-0.07-0.12
	c-0.05-0.08-0.09-0.16-0.14-0.24c-0.1-0.16-0.2-0.31-0.3-0.46c-0.21-0.3-0.45-0.58-0.71-0.83c-0.26-0.25-0.55-0.48-0.88-0.63
	c-0.16-0.08-0.33-0.14-0.51-0.17C20.56,9.99,20.38,9.98,20.2,10c-0.04,0-0.07-0.02-0.08-0.06c0-0.01,0-0.02,0-0.03
	c0.02-0.07,0.06-0.12,0.1-0.17c0.04-0.05,0.08-0.09,0.13-0.13c0.1-0.08,0.21-0.14,0.32-0.18c0.12-0.04,0.24-0.06,0.36-0.07
	c0.06,0,0.12,0,0.18,0c0.06,0.01,0.12,0.01,0.18,0.02c0.47,0.05,0.93,0.27,1.26,0.61c0.17,0.17,0.3,0.37,0.41,0.58
	c0.11,0.21,0.2,0.42,0.26,0.65c0.03,0.11,0.06,0.23,0.07,0.34c0.02,0.11,0.03,0.23,0.04,0.34c0.01,0.12,0.01,0.23,0.01,0.35
	c0,0.06-0.01,0.12-0.01,0.17c0,0.03-0.01,0.06-0.01,0.09c0,0.01-0.01,0.03-0.01,0.04C23.42,12.57,23.41,12.59,23.41,12.6z
	 M23.4,12.58c0-0.02,0-0.03,0-0.04l0-0.04c0-0.03,0-0.06,0-0.08c0-0.06,0-0.11,0-0.17c-0.01-0.11-0.02-0.22-0.04-0.34
	c-0.02-0.11-0.04-0.22-0.07-0.33c-0.02-0.11-0.05-0.22-0.09-0.32c-0.07-0.21-0.17-0.41-0.28-0.61c-0.11-0.19-0.24-0.37-0.4-0.53
	c-0.31-0.31-0.72-0.51-1.15-0.58c-0.05-0.01-0.11-0.01-0.16-0.02c-0.05,0-0.11-0.01-0.16-0.01c-0.11,0-0.21,0.02-0.31,0.05
	c-0.1,0.03-0.2,0.08-0.28,0.15c-0.08,0.06-0.16,0.14-0.19,0.23l-0.07-0.09c0.19-0.01,0.38,0,0.57,0.04
	c0.19,0.04,0.36,0.11,0.53,0.19c0.17,0.08,0.33,0.19,0.47,0.3c0.15,0.11,0.29,0.24,0.42,0.37c0.26,0.27,0.49,0.56,0.69,0.86
	c0.1,0.15,0.2,0.31,0.29,0.47c0.05,0.08,0.09,0.16,0.13,0.24l0.06,0.12l0.03,0.06l0.01,0.03l0.01,0.02L23.4,12.58
	C23.41,12.58,23.4,12.58,23.4,12.58z M20.15,8.87c0,0-0.01,0-0.01-0.01l0-0.01l-0.01-0.01l-0.02-0.02l-0.03-0.04L20.01,8.7
	c-0.04-0.05-0.09-0.11-0.14-0.16c-0.09-0.11-0.19-0.21-0.29-0.31c-0.2-0.2-0.41-0.38-0.64-0.54c-0.23-0.16-0.48-0.29-0.74-0.37
	c-0.13-0.04-0.27-0.06-0.4-0.06c-0.14,0-0.27,0.01-0.4,0.05c-0.04,0.01-0.07-0.01-0.08-0.05c0-0.01,0-0.02,0-0.03l0,0
	c0.01-0.06,0.03-0.1,0.05-0.15C17.4,7.04,17.43,7,17.46,6.96c0.06-0.07,0.14-0.13,0.23-0.18c0.08-0.05,0.18-0.08,0.27-0.1
	c0.05-0.01,0.09-0.01,0.14-0.02c0.05,0,0.09-0.01,0.14-0.01c0.37-0.02,0.75,0.09,1.05,0.31c0.15,0.11,0.28,0.25,0.39,0.39
	c0.11,0.14,0.2,0.3,0.28,0.46c0.04,0.08,0.07,0.17,0.1,0.25c0.03,0.08,0.05,0.17,0.07,0.26c0.02,0.09,0.04,0.18,0.05,0.26
	c0,0.04,0.01,0.09,0.01,0.13c0,0.02,0,0.04,0,0.07l0,0.02c0,0.01,0,0.01,0,0.02C20.16,8.85,20.15,8.86,20.15,8.87z M20.15,8.86
	c0-0.01-0.01-0.02-0.01-0.03c0,0,0-0.01,0-0.01l0-0.02c0-0.02-0.01-0.04-0.01-0.06c-0.01-0.04-0.02-0.09-0.03-0.13
	c-0.02-0.08-0.05-0.17-0.08-0.25c-0.03-0.08-0.06-0.16-0.1-0.24c-0.03-0.08-0.07-0.16-0.11-0.23c-0.08-0.15-0.18-0.29-0.29-0.42
	c-0.11-0.13-0.23-0.25-0.36-0.34c-0.27-0.19-0.6-0.3-0.93-0.29c-0.04,0-0.08,0-0.13,0c-0.04,0.01-0.08,0.01-0.12,0.02
	c-0.08,0.01-0.16,0.04-0.23,0.07C17.69,6.96,17.62,7,17.57,7.06c-0.05,0.06-0.1,0.13-0.11,0.19l-0.09-0.08
	c0.14-0.03,0.29-0.05,0.44-0.04c0.15,0.01,0.29,0.04,0.43,0.08c0.14,0.04,0.27,0.1,0.4,0.17c0.13,0.07,0.25,0.15,0.36,0.23
	c0.23,0.17,0.44,0.37,0.63,0.58c0.1,0.1,0.19,0.21,0.28,0.32c0.04,0.06,0.09,0.11,0.13,0.17l0.06,0.09l0.03,0.04l0.01,0.02
	L20.15,8.86L20.15,8.86C20.15,8.85,20.15,8.85,20.15,8.86z M18.78,5.13c0.06,0.08,0.09,0.17,0.13,0.25l0.11,0.25
	c0.08,0.17,0.14,0.35,0.2,0.52c0.01,0.03-0.01,0.06-0.03,0.07c-0.01,0-0.03,0-0.04,0l0,0c-0.17-0.08-0.34-0.16-0.51-0.25
	c-0.09-0.04-0.17-0.09-0.25-0.14c-0.04-0.02-0.08-0.05-0.13-0.08c-0.02-0.01-0.04-0.03-0.06-0.05c-0.02-0.02-0.05-0.04-0.06-0.07
	c-0.07-0.09-0.11-0.22-0.09-0.34c0.02-0.12,0.09-0.22,0.18-0.28c0.1-0.06,0.21-0.08,0.31-0.06C18.63,5,18.72,5.06,18.78,5.13z
	 M18.77,5.15c-0.06-0.07-0.15-0.11-0.24-0.1c-0.09,0-0.17,0.04-0.22,0.1c-0.1,0.11-0.11,0.28-0.03,0.4
	c0.01,0.02,0.02,0.02,0.03,0.04c0.02,0.01,0.03,0.03,0.05,0.04c0.03,0.03,0.07,0.05,0.11,0.08c0.08,0.05,0.16,0.1,0.24,0.15
	c0.16,0.1,0.33,0.19,0.49,0.28l-0.08,0.07l-0.15-0.53c-0.02-0.09-0.05-0.18-0.08-0.27C18.86,5.31,18.82,5.22,18.77,5.15z
	 M21.6,14.15c0.12,0,0.21-0.09,0.22-0.21c0-0.12-0.09-0.21-0.21-0.22c-0.12,0-0.21,0.09-0.22,0.21
	C21.39,14.05,21.48,14.15,21.6,14.15z M25.21,14.15c0.12,0,0.21-0.09,0.22-0.21c0-0.12-0.09-0.21-0.21-0.22
	c-0.12,0-0.21,0.09-0.22,0.21C25,14.05,25.09,14.15,25.21,14.15z M21.74,8.52c-0.08,0.08-0.08,0.22,0.01,0.3
	c0.08,0.08,0.22,0.08,0.3-0.01c0.08-0.08,0.08-0.22-0.01-0.3C21.95,8.44,21.82,8.44,21.74,8.52z M23.19,9.13
	c-0.08,0.08-0.08,0.22,0.01,0.3c0.08,0.08,0.22,0.08,0.3-0.01c0.08-0.08,0.08-0.22-0.01-0.3C23.41,9.04,23.27,9.05,23.19,9.13z
	 M24.65,8.52c-0.08,0.08-0.08,0.22,0.01,0.3c0.08,0.08,0.22,0.08,0.3-0.01c0.08-0.08,0.08-0.22-0.01-0.3
	C24.86,8.44,24.73,8.44,24.65,8.52z M7.25,16.69l1.07,0.01l2.15,0.03l4.3,0.03c2.86,0.02,5.73,0.03,8.59,0.03l4.3-0.01
	c1.43-0.01,2.86-0.01,4.3-0.02l4.3-0.03l2.15-0.03l1.07-0.01l1.07-0.02l-1.07-0.02l-1.07-0.01l-2.15-0.03l-4.3-0.03
	c-1.43-0.01-2.86-0.01-4.3-0.02l-4.3-0.01c-2.86,0-5.73,0.01-8.59,0.03l-4.3,0.03l-2.15,0.03l-1.07,0.01l-1.07,0.02L7.25,16.69z
	 M38.13,7.35c0-0.12-0.1-0.21-0.22-0.21c-0.12,0-0.21,0.1-0.21,0.22c0,0.12,0.1,0.21,0.22,0.21C38.04,7.57,38.13,7.47,38.13,7.35z
	 M37.8,10.81c0-0.12-0.1-0.21-0.22-0.21c-0.12,0-0.21,0.1-0.21,0.22c0,0.12,0.1,0.21,0.22,0.21C37.71,11.02,37.8,10.92,37.8,10.81z
	 M39.14,10.52c0-0.12-0.1-0.21-0.22-0.21c-0.12,0-0.21,0.1-0.21,0.22c0,0.12,0.1,0.21,0.22,0.21
	C39.05,10.73,39.14,10.63,39.14,10.52z M39.86,9.64c0-0.12-0.1-0.21-0.22-0.21s-0.21,0.1-0.21,0.22c0,0.12,0.1,0.21,0.22,0.21
	C39.77,9.85,39.87,9.75,39.86,9.64z M30.11,8.04c0-0.12-0.1-0.21-0.22-0.21c-0.12,0-0.21,0.1-0.21,0.22c0,0.12,0.1,0.21,0.22,0.21
	S30.11,8.16,30.11,8.04z M28.99,8.48c0-0.12-0.1-0.21-0.22-0.21c-0.12,0-0.21,0.1-0.21,0.22c0,0.12,0.1,0.21,0.22,0.21
	S28.99,8.6,28.99,8.48z M28.4,9.32c0-0.12-0.1-0.21-0.22-0.21s-0.21,0.1-0.21,0.22c0,0.12,0.1,0.21,0.22,0.21
	C28.31,9.54,28.4,9.44,28.4,9.32z M36.02,11.54c0-0.12-0.1-0.21-0.22-0.21c-0.12,0-0.21,0.1-0.21,0.22c0,0.12,0.1,0.21,0.22,0.21
	C35.93,11.76,36.02,11.66,36.02,11.54z M36.86,12.88c0-0.12-0.1-0.21-0.22-0.21c-0.12,0-0.21,0.1-0.21,0.22
	c0,0.12,0.1,0.21,0.22,0.21C36.77,13.1,36.86,13,36.86,12.88z M36.25,14.04c0-0.12-0.1-0.21-0.22-0.21c-0.12,0-0.21,0.1-0.21,0.22
	c0,0.12,0.1,0.21,0.22,0.21C36.16,14.25,36.25,14.15,36.25,14.04z M39.33,7.33c0-0.12-0.1-0.21-0.22-0.21
	c-0.12,0-0.21,0.1-0.21,0.22c0,0.12,0.1,0.21,0.22,0.21C39.24,7.54,39.33,7.45,39.33,7.33z M40.31,6.51c0-0.12-0.1-0.21-0.22-0.21
	c-0.12,0-0.21,0.1-0.21,0.22c0,0.12,0.1,0.21,0.22,0.21C40.22,6.73,40.31,6.63,40.31,6.51z M31.82,9.74c0.01,0,0.02-0.01,0.02-0.02
	c0.01-0.4,0.08-0.79,0.16-1.18c0.08-0.39,0.18-0.78,0.3-1.16c0.24-0.76,0.54-1.5,0.94-2.18c0.4-0.68,0.89-1.31,1.52-1.79
	c0.31-0.24,0.65-0.44,1.01-0.58c0.36-0.14,0.74-0.23,1.13-0.26c0.39-0.03,0.78-0.02,1.15,0.07c0.37,0.09,0.72,0.25,1.02,0.48
	c0.15,0.11,0.29,0.24,0.42,0.38c0.13,0.14,0.24,0.29,0.32,0.45c0.17,0.32,0.25,0.7,0.21,1.06C40,5.21,39.96,5.39,39.89,5.57
	c-0.04,0.09-0.07,0.17-0.12,0.26c-0.05,0.08-0.09,0.16-0.15,0.24c-0.22,0.31-0.51,0.57-0.86,0.69c-0.17,0.06-0.36,0.08-0.54,0.04
	c-0.18-0.04-0.35-0.13-0.46-0.27c-0.06-0.07-0.1-0.15-0.13-0.24c-0.02-0.09-0.03-0.18,0-0.27c0.04-0.18,0.18-0.34,0.34-0.45
	c0.01,0,0.01-0.01,0.01-0.02c0-0.01-0.01-0.01-0.02-0.01c-0.09,0.05-0.17,0.11-0.25,0.18c-0.07,0.07-0.13,0.17-0.16,0.27
	c-0.03,0.1-0.04,0.21-0.02,0.32c0.02,0.11,0.06,0.21,0.13,0.3c0.13,0.18,0.32,0.3,0.53,0.36C38.29,7,38.4,7.01,38.51,7.01
	c0.11,0,0.22-0.02,0.32-0.05c0.21-0.06,0.4-0.16,0.57-0.29c0.17-0.13,0.32-0.28,0.45-0.45c0.07-0.08,0.12-0.17,0.18-0.26
	c0.05-0.09,0.1-0.19,0.14-0.29c0.08-0.2,0.14-0.4,0.17-0.61c0.03-0.21,0.02-0.43-0.01-0.64C40.28,4.2,40.2,4,40.1,3.81
	c-0.1-0.19-0.23-0.36-0.38-0.52c-0.14-0.15-0.3-0.29-0.47-0.41c-0.34-0.25-0.73-0.42-1.14-0.5c-0.2-0.04-0.41-0.06-0.62-0.07
	c-0.21-0.01-0.41,0-0.62,0.03c-0.41,0.05-0.81,0.15-1.19,0.3C35.31,2.79,34.95,3,34.64,3.26C34,3.77,33.5,4.43,33.11,5.13
	c-0.39,0.71-0.68,1.46-0.9,2.23c-0.11,0.39-0.2,0.78-0.27,1.17c-0.07,0.39-0.13,0.79-0.13,1.19C31.81,9.73,31.81,9.74,31.82,9.74z
	 M30.75,9.77C30.75,9.77,30.75,9.76,30.75,9.77c0.03-0.2,0.01-0.4-0.09-0.58c-0.09-0.18-0.24-0.32-0.41-0.41
	c-0.17-0.09-0.38-0.14-0.57-0.12c-0.2,0.02-0.39,0.1-0.54,0.23c-0.15,0.14-0.26,0.31-0.31,0.51c-0.05,0.2-0.04,0.4,0,0.6
	c0.1,0.39,0.32,0.73,0.61,1c0.15,0.13,0.31,0.25,0.5,0.33c0.18,0.08,0.38,0.13,0.58,0.15c0.4,0.05,0.8-0.01,1.17-0.15
	c0.19-0.07,0.36-0.17,0.52-0.28l0.06-0.04l0.06-0.05c0.04-0.03,0.08-0.06,0.11-0.1l0.11-0.1l0.1-0.11c0.13-0.15,0.23-0.33,0.3-0.51
	c0.07-0.18,0.12-0.38,0.13-0.57c0,0,0-0.01-0.01-0.01c0,0-0.01,0-0.01,0.01c-0.03,0.19-0.08,0.38-0.17,0.55
	c-0.08,0.17-0.19,0.34-0.32,0.47c-0.13,0.14-0.27,0.26-0.43,0.37c-0.16,0.11-0.33,0.19-0.51,0.25c-0.18,0.07-0.36,0.11-0.55,0.14
	c-0.19,0.02-0.38,0.03-0.57,0.01c-0.19-0.02-0.37-0.06-0.55-0.13c-0.17-0.07-0.33-0.18-0.47-0.3c-0.28-0.25-0.51-0.58-0.6-0.95
	c-0.05-0.18-0.06-0.38-0.01-0.56c0.04-0.18,0.14-0.35,0.28-0.48c0.14-0.13,0.32-0.21,0.5-0.23c0.19-0.02,0.38,0.02,0.55,0.11
	c0.17,0.09,0.31,0.22,0.41,0.39C30.73,9.37,30.76,9.57,30.75,9.77C30.74,9.76,30.74,9.77,30.75,9.77z M35.01,6.48
	c0-0.01-0.01-0.01-0.02-0.01c-0.1,0.03-0.21,0.03-0.3-0.02c-0.09-0.05-0.16-0.13-0.2-0.22c-0.04-0.09-0.07-0.2-0.07-0.3
	c-0.01-0.1,0-0.21,0.03-0.31c0.06-0.19,0.19-0.38,0.36-0.48c0.17-0.1,0.39-0.12,0.59-0.07c0.2,0.05,0.39,0.15,0.55,0.27
	c0.16,0.13,0.3,0.29,0.39,0.47c0.18,0.37,0.21,0.8,0.12,1.2c-0.08,0.41-0.26,0.79-0.47,1.15c-0.22,0.36-0.46,0.71-0.73,1.03
	c-0.54,0.65-1.19,1.19-1.91,1.62c-0.36,0.21-0.74,0.4-1.13,0.55c-0.1,0.04-0.2,0.07-0.29,0.11l-0.15,0.05l-0.07,0.03l-0.08,0.02
	c-0.2,0.06-0.4,0.11-0.61,0.16c-0.1,0.02-0.2,0.05-0.31,0.07l-0.31,0.06c-0.21,0.04-0.42,0.07-0.62,0.11
	c-0.42,0.07-0.84,0.13-1.26,0.18c-1.69,0.22-3.38,0.34-5.09,0.41c-0.01,0-0.01,0.01-0.02,0.01c0,0.01,0.01,0.02,0.01,0.02
	c0.85,0.05,1.71,0.06,2.56,0.04c0.86-0.02,1.71-0.08,2.56-0.17c0.21-0.03,0.43-0.05,0.64-0.08l0.32-0.05
	c0.11-0.02,0.21-0.03,0.32-0.05c0.21-0.04,0.42-0.07,0.63-0.12l0.32-0.07c0.11-0.02,0.21-0.05,0.31-0.08
	c0.21-0.05,0.42-0.12,0.62-0.18l0.08-0.02l0.08-0.03l0.15-0.06c0.1-0.04,0.21-0.07,0.3-0.12c0.4-0.17,0.79-0.37,1.16-0.59
	c0.74-0.45,1.4-1.03,1.94-1.71c0.27-0.34,0.51-0.7,0.73-1.07c0.21-0.38,0.39-0.78,0.47-1.21c0.04-0.22,0.05-0.44,0.02-0.66
	c-0.02-0.22-0.09-0.44-0.19-0.63c-0.11-0.2-0.26-0.36-0.43-0.5c-0.18-0.13-0.38-0.23-0.59-0.28c-0.11-0.02-0.22-0.03-0.33-0.02
	c-0.11,0.01-0.22,0.05-0.32,0.11c-0.1,0.06-0.18,0.14-0.24,0.23c-0.03,0.04-0.06,0.09-0.08,0.14l-0.03,0.07
	c-0.01,0.03-0.02,0.05-0.03,0.08c-0.03,0.11-0.03,0.22-0.02,0.33c0.01,0.11,0.04,0.22,0.09,0.32c0.05,0.1,0.12,0.19,0.22,0.24
	C34.78,6.54,34.9,6.53,35,6.5C35.01,6.5,35.01,6.49,35.01,6.48z M25.02,12.14C25.02,12.14,25.03,12.14,25.02,12.14
	c0.12-0.04,0.23-0.09,0.32-0.16c0.1-0.07,0.19-0.15,0.26-0.25c0.14-0.2,0.2-0.44,0.28-0.65c0.04-0.11,0.1-0.21,0.17-0.3
	c0.07-0.09,0.15-0.18,0.24-0.25c0.09-0.07,0.18-0.14,0.28-0.2c0.05-0.03,0.1-0.05,0.15-0.07c0.05-0.02,0.11-0.04,0.16-0.05
	c0.22-0.06,0.45-0.05,0.65,0.05c0.1,0.05,0.19,0.11,0.28,0.18c0.08,0.07,0.16,0.16,0.21,0.26c0.05,0.09,0.09,0.2,0.09,0.31
	c0,0.1-0.04,0.21-0.11,0.29c-0.07,0.09-0.16,0.16-0.27,0.2c-0.1,0.04-0.22,0.05-0.34,0.02c0,0-0.01,0-0.01,0c0,0,0,0.01,0,0.01
	c0.11,0.05,0.24,0.05,0.36,0.02c0.12-0.03,0.23-0.1,0.31-0.19c0.04-0.05,0.08-0.1,0.11-0.16c0.01-0.03,0.02-0.06,0.03-0.09
	c0.01-0.03,0.01-0.07,0.01-0.1c0.01-0.13-0.03-0.26-0.09-0.37c-0.12-0.22-0.32-0.39-0.54-0.49c-0.23-0.1-0.5-0.1-0.73-0.03
	c-0.06,0.01-0.12,0.04-0.17,0.06c-0.05,0.03-0.11,0.05-0.16,0.08c-0.11,0.06-0.2,0.13-0.29,0.21c-0.09,0.08-0.17,0.17-0.24,0.27
	c-0.07,0.1-0.13,0.21-0.17,0.32c-0.08,0.22-0.13,0.46-0.26,0.65c-0.07,0.09-0.15,0.18-0.24,0.25
	C25.24,12.03,25.13,12.09,25.02,12.14C25.02,12.13,25.02,12.13,25.02,12.14z M23.4,12.59c0,0.01,0,0.02,0.01,0.02
	c1.4,0.31,2.79,0.64,4.19,0.94c0.7,0.15,1.4,0.3,2.1,0.44c0.7,0.14,1.41,0.27,2.12,0.39c0.18,0.03,0.35,0.06,0.53,0.08
	c0.18,0.02,0.36,0.05,0.54,0.07c0.36,0.04,0.72,0.08,1.09,0.08c0.18,0,0.37-0.01,0.55-0.03c0.19-0.02,0.37-0.06,0.56-0.12
	c0.37-0.13,0.69-0.38,0.92-0.7c0.11-0.16,0.2-0.34,0.26-0.53c0.05-0.19,0.07-0.4,0.02-0.6l-0.04-0.15l-0.03-0.07l-0.03-0.07
	c-0.05-0.09-0.11-0.17-0.18-0.24c-0.14-0.14-0.3-0.25-0.48-0.33c-0.18-0.08-0.37-0.12-0.56-0.13c-0.19,0-0.39,0.04-0.56,0.15
	c-0.08,0.05-0.15,0.12-0.21,0.19c-0.06,0.07-0.11,0.15-0.16,0.23c-0.09,0.16-0.16,0.33-0.21,0.5c0,0.01,0,0.02,0.01,0.02
	c0.01,0,0.02,0,0.02-0.01c0.08-0.16,0.16-0.32,0.26-0.46c0.1-0.14,0.22-0.27,0.36-0.35c0.14-0.08,0.31-0.1,0.48-0.09
	c0.16,0.01,0.33,0.06,0.47,0.14c0.29,0.15,0.54,0.41,0.58,0.72c0.05,0.31-0.07,0.63-0.26,0.89c-0.2,0.26-0.47,0.47-0.77,0.58
	c-0.31,0.11-0.66,0.14-1.01,0.15c-0.35,0.01-0.7-0.02-1.06-0.05c-0.18-0.02-0.35-0.04-0.53-0.06c-0.18-0.02-0.35-0.05-0.53-0.07
	c-0.71-0.1-1.41-0.22-2.12-0.34c-0.7-0.12-1.41-0.25-2.11-0.39c-1.41-0.26-2.81-0.54-4.21-0.82C23.41,12.58,23.4,12.58,23.4,12.59z
	 M32.96,12.23c0,0,0.01,0.01,0.01,0c0.42-0.21,0.79-0.51,1.13-0.83c0.34-0.32,0.66-0.67,0.96-1.03c0.3-0.36,0.59-0.73,0.9-1.08
	c0.3-0.35,0.62-0.7,1.03-0.89c0.1-0.05,0.21-0.09,0.31-0.12c0.11-0.03,0.22-0.05,0.33-0.06c0.22-0.02,0.44,0.02,0.65,0.1
	c0.1,0.04,0.2,0.09,0.29,0.15c0.09,0.06,0.17,0.14,0.24,0.22c0.14,0.16,0.24,0.37,0.25,0.58c0.01,0.1-0.01,0.21-0.04,0.31
	c-0.04,0.1-0.09,0.19-0.16,0.27c-0.14,0.16-0.34,0.28-0.55,0.35c-0.21,0.07-0.44,0.08-0.66,0.03c-0.22-0.05-0.44-0.14-0.66-0.23
	c0,0-0.01,0-0.01,0c0,0,0,0.01,0,0.01c0.21,0.11,0.42,0.22,0.64,0.29c0.11,0.03,0.24,0.06,0.36,0.06c0.12,0,0.25-0.01,0.36-0.04
	c0.24-0.06,0.46-0.18,0.64-0.36c0.09-0.09,0.16-0.2,0.21-0.32c0.05-0.12,0.07-0.25,0.06-0.38c-0.01-0.26-0.13-0.5-0.29-0.69
	c-0.16-0.19-0.38-0.34-0.61-0.42c-0.23-0.08-0.48-0.12-0.73-0.09c-0.12,0.01-0.24,0.04-0.36,0.07c-0.12,0.04-0.23,0.08-0.34,0.14
	c-0.05,0.03-0.11,0.06-0.16,0.09c-0.05,0.03-0.1,0.06-0.15,0.1c-0.1,0.07-0.19,0.15-0.28,0.23c-0.17,0.17-0.33,0.35-0.48,0.53
	c-0.3,0.36-0.58,0.74-0.87,1.1c-0.29,0.36-0.6,0.72-0.93,1.05c-0.33,0.33-0.69,0.63-1.1,0.85C32.96,12.22,32.96,12.22,32.96,12.23z
	 M31.14,7.87c0.02,0.01,0.05,0.02,0.08,0.02c0.03,0,0.05,0.01,0.08,0.01l0.16,0l-0.02,0.03c-0.03-0.05-0.06-0.11-0.1-0.16
	c-0.02-0.02-0.04-0.05-0.05-0.07c-0.01-0.01-0.02-0.02-0.03-0.03c-0.01-0.01-0.02-0.01-0.03-0.01c-0.05-0.01-0.1,0.01-0.12,0.05
	C31.08,7.76,31.09,7.83,31.14,7.87z M31.14,7.87c-0.05-0.03-0.09-0.1-0.07-0.17c0.02-0.07,0.11-0.12,0.18-0.1
	c0.02,0.01,0.04,0.01,0.05,0.02c0.02,0.01,0.03,0.03,0.04,0.04c0.02,0.03,0.04,0.05,0.05,0.08c0.03,0.05,0.06,0.11,0.09,0.17l0,0
	c0,0.01,0,0.02-0.01,0.02c0,0-0.01,0-0.01,0c-0.05,0-0.11-0.01-0.16-0.02c-0.03-0.01-0.05-0.01-0.08-0.02
	C31.19,7.89,31.17,7.88,31.14,7.87z M31.46,7.92C31.46,7.92,31.46,7.92,31.46,7.92c0.06,0.05,0.11,0.1,0.16,0.16
	c0.05,0.05,0.1,0.11,0.14,0.18c0.04,0.06,0.07,0.13,0.1,0.19c0.03,0.07,0.06,0.13,0.09,0.21c0,0,0,0,0,0c0,0,0,0,0,0
	c0-0.08-0.01-0.16-0.03-0.23c-0.03-0.07-0.07-0.14-0.12-0.2C31.71,8.1,31.59,7.99,31.46,7.92C31.46,7.91,31.46,7.91,31.46,7.92z
	 M38.35,1.74c-0.02,0.02-0.03,0.05-0.04,0.07c-0.01,0.03-0.01,0.05-0.02,0.08l-0.03,0.16l-0.02-0.02c0.06-0.02,0.11-0.04,0.17-0.07
	c0.03-0.01,0.05-0.03,0.08-0.04c0.01-0.01,0.02-0.02,0.03-0.02c0.01-0.01,0.01-0.02,0.02-0.03c0.02-0.04,0-0.1-0.04-0.13
	C38.47,1.7,38.39,1.69,38.35,1.74z M38.35,1.74c0.04-0.05,0.12-0.08,0.18-0.04c0.07,0.03,0.1,0.12,0.07,0.19
	c-0.01,0.02-0.02,0.03-0.03,0.05c-0.02,0.02-0.03,0.02-0.04,0.03c-0.03,0.02-0.06,0.03-0.09,0.04c-0.06,0.02-0.12,0.04-0.18,0.06
	l0,0c-0.01,0-0.02,0-0.02-0.01c0,0,0-0.01,0-0.01c0.01-0.05,0.03-0.11,0.05-0.16c0.01-0.03,0.02-0.05,0.03-0.08
	C38.32,1.78,38.33,1.76,38.35,1.74z M38.25,2.05C38.25,2.04,38.25,2.04,38.25,2.05c-0.06,0.05-0.12,0.1-0.18,0.14
	c-0.06,0.04-0.13,0.08-0.19,0.11c-0.07,0.03-0.14,0.05-0.21,0.07c-0.07,0.02-0.14,0.03-0.22,0.05c0,0,0,0,0,0c0,0,0,0,0,0
	c0.07,0.02,0.15,0.02,0.23,0c0.08-0.01,0.15-0.05,0.22-0.08C38.03,2.26,38.15,2.17,38.25,2.05C38.25,2.05,38.25,2.05,38.25,2.05z
	 M33.23,6.44c-0.05,0.04-0.09,0.1-0.13,0.15l-0.11,0.17l-0.02-0.03c0.07-0.01,0.14-0.02,0.21-0.04c0.04-0.01,0.07-0.02,0.1-0.03
	c0.02-0.01,0.03-0.01,0.05-0.02c0.01-0.01,0.03-0.02,0.04-0.03c0.05-0.04,0.07-0.11,0.04-0.15C33.38,6.41,33.29,6.4,33.23,6.44z
	 M33.22,6.43c0.03-0.02,0.07-0.03,0.11-0.04c0.04,0,0.08,0,0.12,0.04c0.03,0.03,0.05,0.08,0.03,0.13c-0.01,0.04-0.04,0.08-0.07,0.11
	c-0.02,0.01-0.03,0.02-0.05,0.03c-0.02,0.01-0.04,0.01-0.06,0.02c-0.04,0.01-0.07,0.02-0.11,0.02c-0.07,0.01-0.15,0.02-0.22,0.03
	l0,0c-0.01,0-0.02-0.01-0.02-0.02c0,0,0-0.01,0-0.01c0.04-0.05,0.08-0.11,0.13-0.16c0.02-0.03,0.04-0.05,0.07-0.07
	C33.17,6.48,33.2,6.45,33.22,6.43z M32.97,6.74C32.97,6.74,32.97,6.74,32.97,6.74c-0.04,0.03-0.09,0.05-0.14,0.07
	c-0.05,0.02-0.09,0.03-0.14,0.04c-0.05,0.01-0.1,0.01-0.14,0.02c-0.05,0.01-0.1,0.02-0.15,0.03c0,0,0,0,0,0c0,0,0,0,0,0
	c0.05,0.02,0.1,0.02,0.15,0.02c0.05,0,0.1-0.02,0.15-0.03C32.81,6.86,32.9,6.82,32.97,6.74C32.97,6.74,32.97,6.74,32.97,6.74z
	 M32.12,13.4c-0.03,0.06-0.04,0.13-0.04,0.19l-0.02,0.2l-0.03-0.02c0.06-0.04,0.11-0.09,0.17-0.14c0.03-0.02,0.05-0.05,0.08-0.07
	c0.01-0.01,0.02-0.03,0.03-0.04c0.01-0.01,0.02-0.03,0.02-0.04c0.02-0.06,0.01-0.13-0.04-0.15C32.23,13.31,32.15,13.34,32.12,13.4z
	 M32.11,13.4c0.02-0.03,0.04-0.06,0.07-0.08c0.03-0.02,0.07-0.04,0.12-0.02c0.04,0.01,0.08,0.05,0.09,0.09
	c0.01,0.04,0.01,0.09-0.01,0.13c-0.01,0.02-0.02,0.04-0.03,0.06c-0.01,0.02-0.03,0.03-0.04,0.04c-0.03,0.03-0.06,0.05-0.09,0.07
	c-0.06,0.05-0.12,0.09-0.18,0.13l0,0c-0.01,0.01-0.02,0-0.02,0c0,0,0-0.01,0-0.01c0.01-0.07,0.02-0.13,0.03-0.2
	c0.01-0.03,0.01-0.07,0.02-0.1C32.09,13.46,32.1,13.43,32.11,13.4z M32.04,13.79C32.04,13.79,32.04,13.79,32.04,13.79
	c-0.03,0.05-0.06,0.09-0.09,0.12c-0.03,0.04-0.07,0.07-0.1,0.1c-0.04,0.03-0.08,0.06-0.12,0.09c-0.04,0.03-0.08,0.06-0.11,0.1
	c0,0,0,0,0,0c0,0,0,0,0,0c0.05-0.01,0.1-0.03,0.14-0.05c0.05-0.03,0.08-0.06,0.12-0.1C31.96,13.98,32.01,13.89,32.04,13.79
	C32.04,13.8,32.04,13.79,32.04,13.79z M27.16,9.38c-0.03,0.06-0.03,0.13-0.03,0.2l-0.01,0.2L27.1,9.76c0.05-0.05,0.11-0.1,0.16-0.15
	c0.03-0.03,0.05-0.05,0.07-0.08c0.01-0.01,0.02-0.03,0.03-0.04c0.01-0.01,0.01-0.03,0.02-0.04c0.02-0.06,0-0.13-0.05-0.15
	C27.28,9.28,27.2,9.32,27.16,9.38z M27.16,9.38c0.02-0.03,0.04-0.06,0.07-0.09c0.03-0.02,0.07-0.04,0.12-0.03
	c0.04,0.01,0.08,0.05,0.1,0.09c0.01,0.04,0.01,0.09,0,0.13c-0.01,0.02-0.02,0.04-0.03,0.06c-0.01,0.02-0.03,0.03-0.04,0.04
	c-0.03,0.03-0.05,0.05-0.08,0.08c-0.06,0.05-0.11,0.09-0.17,0.14l0,0c-0.01,0.01-0.02,0-0.02,0c0,0,0-0.01,0-0.01
	c0-0.07,0.01-0.13,0.02-0.2c0.01-0.03,0.01-0.07,0.02-0.1C27.14,9.44,27.15,9.41,27.16,9.38z M27.11,9.77
	C27.11,9.77,27.11,9.77,27.11,9.77c-0.02,0.05-0.05,0.09-0.08,0.13c-0.03,0.04-0.06,0.07-0.1,0.11c-0.04,0.03-0.08,0.06-0.11,0.09
	c-0.04,0.03-0.07,0.06-0.11,0.11c0,0,0,0,0,0c0,0,0,0,0,0c0.05-0.01,0.1-0.03,0.14-0.06c0.04-0.03,0.08-0.07,0.11-0.11
	C27.03,9.96,27.09,9.87,27.11,9.77C27.11,9.77,27.11,9.77,27.11,9.77z M33.42,10.04c0,0.07,0.02,0.13,0.04,0.19l0.07,0.19l-0.03,0
	c0.03-0.06,0.07-0.13,0.09-0.2c0.01-0.03,0.03-0.07,0.04-0.1c0.01-0.02,0.01-0.03,0.01-0.05c0-0.01,0-0.03,0-0.05
	c-0.01-0.06-0.04-0.12-0.1-0.12C33.49,9.91,33.43,9.97,33.42,10.04z M33.42,10.04c0-0.04,0.01-0.07,0.03-0.11
	c0.02-0.03,0.05-0.06,0.1-0.07c0.04-0.01,0.09,0.01,0.12,0.05c0.03,0.03,0.04,0.08,0.05,0.12c0,0.02,0,0.04-0.01,0.06
	c-0.01,0.02-0.01,0.04-0.02,0.06c-0.01,0.04-0.03,0.07-0.05,0.1c-0.03,0.07-0.07,0.13-0.11,0.19l0,0c-0.01,0.01-0.02,0.01-0.02,0.01
	c0,0-0.01-0.01-0.01-0.01c-0.02-0.06-0.04-0.13-0.05-0.19c-0.01-0.03-0.01-0.07-0.02-0.1C33.42,10.11,33.41,10.08,33.42,10.04z
	 M33.52,10.43C33.52,10.43,33.51,10.43,33.52,10.43c0,0.05-0.01,0.1-0.03,0.15c-0.01,0.05-0.03,0.09-0.05,0.14
	c-0.02,0.04-0.05,0.08-0.07,0.13c-0.02,0.04-0.04,0.09-0.06,0.14c0,0,0,0,0,0c0,0,0,0,0,0c0.04-0.03,0.08-0.07,0.11-0.11
	c0.03-0.04,0.05-0.09,0.06-0.14C33.52,10.64,33.53,10.53,33.52,10.43C33.52,10.43,33.52,10.43,33.52,10.43z M32.01,12.18
	c-0.07-0.01-0.13,0-0.2,0.01l-0.2,0.04l0.01-0.03c0.06,0.04,0.12,0.08,0.18,0.12c0.03,0.02,0.06,0.04,0.09,0.05
	c0.02,0.01,0.03,0.01,0.05,0.02c0.01,0,0.03,0.01,0.04,0.01c0.06,0,0.12-0.03,0.14-0.08C32.14,12.27,32.08,12.2,32.01,12.18z
	 M32.01,12.18c0.04,0.01,0.07,0.02,0.1,0.05c0.03,0.02,0.06,0.06,0.06,0.11c0,0.05-0.03,0.09-0.06,0.11
	c-0.04,0.02-0.08,0.03-0.12,0.03c-0.02,0-0.04-0.01-0.06-0.01c-0.02-0.01-0.04-0.02-0.05-0.03c-0.03-0.02-0.06-0.04-0.09-0.06
	c-0.06-0.04-0.12-0.09-0.17-0.13l0,0c-0.01-0.01-0.01-0.02,0-0.03c0,0,0.01-0.01,0.01-0.01c0.07-0.01,0.13-0.02,0.2-0.03
	c0.03,0,0.07,0,0.1-0.01C31.95,12.18,31.98,12.17,32.01,12.18z M31.62,12.22C31.62,12.22,31.62,12.22,31.62,12.22
	c-0.05-0.01-0.1-0.03-0.14-0.05c-0.04-0.02-0.09-0.04-0.13-0.07c-0.04-0.03-0.08-0.06-0.12-0.09c-0.04-0.03-0.08-0.05-0.13-0.08
	c0,0,0,0,0,0c0,0,0,0,0,0c0.02,0.05,0.06,0.09,0.09,0.12c0.04,0.04,0.08,0.06,0.13,0.08C31.41,12.19,31.51,12.23,31.62,12.22
	C31.62,12.23,31.62,12.23,31.62,12.22z M39.57,8.07c-0.06,0.03-0.11,0.08-0.15,0.13l-0.13,0.15l-0.01-0.03c0.07,0,0.14,0,0.22-0.01
	c0.04,0,0.07-0.01,0.11-0.01c0.02,0,0.03-0.01,0.05-0.01c0.01,0,0.03-0.01,0.04-0.02c0.05-0.03,0.08-0.09,0.06-0.15
	C39.72,8.06,39.63,8.04,39.57,8.07z M39.57,8.07c0.03-0.02,0.07-0.02,0.11-0.02c0.04,0,0.08,0.02,0.11,0.05
	c0.03,0.04,0.03,0.09,0.02,0.13c-0.02,0.04-0.05,0.08-0.08,0.1c-0.02,0.01-0.04,0.02-0.06,0.03c-0.02,0-0.04,0.01-0.06,0.01
	c-0.04,0-0.07,0.01-0.11,0.01c-0.07,0-0.15,0-0.22,0l0,0c-0.01,0-0.02-0.01-0.02-0.02c0,0,0-0.01,0-0.01
	c0.05-0.05,0.09-0.1,0.15-0.14c0.03-0.02,0.05-0.04,0.08-0.06C39.51,8.1,39.54,8.08,39.57,8.07z M39.28,8.34
	C39.28,8.34,39.27,8.34,39.28,8.34c-0.05,0.02-0.1,0.04-0.14,0.05c-0.05,0.01-0.1,0.02-0.14,0.02c-0.05,0-0.1,0-0.14,0
	c-0.05,0-0.1,0-0.15,0.01c0,0,0,0,0,0c0,0,0,0,0,0c0.05,0.02,0.1,0.04,0.15,0.04c0.05,0.01,0.1,0,0.15-0.01
	C39.1,8.44,39.19,8.4,39.28,8.34C39.28,8.34,39.28,8.34,39.28,8.34z M33.56,3.64c-0.01,0.03-0.02,0.06-0.04,0.09
	c-0.01,0.03-0.03,0.06-0.04,0.09c-0.03,0.06-0.06,0.12-0.1,0.18c-0.01,0.01-0.02,0.01-0.02,0.01c0,0-0.01-0.01-0.01-0.01l0,0
	c-0.02-0.07-0.04-0.14-0.06-0.21c-0.01-0.04-0.02-0.07-0.02-0.11c0-0.02,0-0.04-0.01-0.06c0-0.02,0-0.04,0.01-0.06
	c0.01-0.04,0.04-0.08,0.07-0.1c0.04-0.03,0.09-0.04,0.13-0.02c0.04,0.02,0.07,0.06,0.08,0.09C33.57,3.57,33.57,3.6,33.56,3.64z
	 M33.56,3.64c0.01-0.07-0.03-0.15-0.09-0.16c-0.06-0.01-0.11,0.04-0.13,0.09c-0.01,0.01-0.01,0.03-0.01,0.04c0,0.02,0,0.03,0,0.05
	c0,0.03,0.01,0.07,0.01,0.11c0.01,0.07,0.03,0.14,0.05,0.21l-0.03-0.01l0.11-0.17C33.51,3.76,33.55,3.7,33.56,3.64z M33.37,3.99
	C33.37,3.99,33.37,3.99,33.37,3.99c-0.03,0.13-0.05,0.26-0.04,0.39c0,0.07,0,0.13,0.02,0.2c0.02,0.06,0.05,0.12,0.09,0.18
	c0,0,0,0,0,0c0,0,0,0,0,0c-0.01-0.07-0.02-0.13-0.03-0.19c-0.01-0.06-0.03-0.12-0.03-0.19c-0.01-0.06-0.01-0.13-0.01-0.19
	C33.37,4.12,33.37,4.06,33.37,3.99C33.38,3.99,33.38,3.99,33.37,3.99z M37.09,9.31C37.06,9.3,37.03,9.28,37,9.27
	c-0.03-0.02-0.06-0.03-0.09-0.05c-0.06-0.03-0.11-0.07-0.17-0.11c-0.01-0.01-0.01-0.02,0-0.02c0,0,0.01-0.01,0.01-0.01l0,0
	c0.07-0.02,0.14-0.03,0.22-0.04c0.04-0.01,0.07-0.01,0.11-0.01c0.02,0,0.04,0,0.06,0c0.02,0,0.04,0.01,0.06,0.01
	c0.04,0.02,0.07,0.04,0.1,0.08c0.02,0.04,0.03,0.09,0.01,0.13c-0.02,0.04-0.06,0.06-0.1,0.07C37.17,9.32,37.13,9.32,37.09,9.31z
	 M37.09,9.3c0.07,0.02,0.15-0.02,0.17-0.08c0.01-0.06-0.03-0.11-0.08-0.13c-0.01-0.01-0.03-0.01-0.04-0.01c-0.02,0-0.03,0-0.05,0
	c-0.04,0-0.07,0-0.11,0.01c-0.07,0.01-0.14,0.02-0.22,0.03l0.01-0.03l0.16,0.12C36.98,9.24,37.03,9.29,37.09,9.3z M36.76,9.09
	C36.76,9.09,36.76,9.09,36.76,9.09C36.65,9.04,36.54,9.01,36.42,9c-0.06,0-0.12-0.01-0.18,0.01c-0.06,0.01-0.11,0.04-0.16,0.07
	c0,0,0,0,0,0c0,0,0,0,0,0c0.06,0,0.12-0.01,0.17-0.01c0.06,0,0.11-0.02,0.17-0.02c0.06,0,0.11,0,0.17,0.01
	C36.64,9.07,36.7,9.08,36.76,9.09C36.76,9.09,36.76,9.09,36.76,9.09z M36.09,4.35c0,0.03-0.01,0.07-0.02,0.1
	c-0.01,0.03-0.02,0.06-0.03,0.1c-0.02,0.06-0.04,0.13-0.07,0.19c0,0.01-0.01,0.01-0.02,0.01c0,0-0.01,0-0.01-0.01l0,0
	c-0.03-0.07-0.06-0.13-0.09-0.2c-0.01-0.03-0.03-0.07-0.04-0.1C35.8,4.42,35.8,4.4,35.79,4.38c0-0.02,0-0.04,0-0.06
	c0.01-0.04,0.03-0.08,0.06-0.11c0.03-0.03,0.08-0.05,0.13-0.04c0.04,0.01,0.07,0.05,0.09,0.08C36.08,4.28,36.09,4.32,36.09,4.35z
	 M36.08,4.35c0-0.07-0.05-0.14-0.11-0.14c-0.06,0-0.1,0.05-0.11,0.11c0,0.02,0,0.03,0,0.05c0,0.02,0,0.03,0.01,0.05
	c0.01,0.03,0.02,0.07,0.03,0.1c0.02,0.07,0.05,0.14,0.08,0.2l-0.03,0l0.09-0.18C36.05,4.48,36.08,4.42,36.08,4.35z M35.95,4.73
	C35.95,4.73,35.95,4.73,35.95,4.73c-0.03,0.12-0.03,0.24-0.01,0.35c0.01,0.06,0.02,0.12,0.05,0.17c0.02,0.05,0.06,0.1,0.11,0.14
	c0,0,0,0,0,0c0,0,0,0,0,0c-0.02-0.06-0.04-0.11-0.05-0.16c-0.02-0.05-0.04-0.1-0.05-0.16c-0.01-0.05-0.02-0.11-0.03-0.17
	C35.95,4.85,35.95,4.79,35.95,4.73C35.95,4.73,35.95,4.73,35.95,4.73z M35.81,6.94c0.03,0.06,0.09,0.1,0.14,0.14l0.16,0.12
	l-0.03,0.01C36.07,7.15,36.07,7.07,36.06,7c-0.01-0.04-0.01-0.07-0.02-0.11c0-0.02-0.01-0.03-0.01-0.05
	C36.02,6.84,36.01,6.82,36,6.81c-0.04-0.05-0.1-0.08-0.15-0.05C35.8,6.79,35.78,6.87,35.81,6.94z M35.81,6.94
	c-0.02-0.03-0.03-0.07-0.03-0.11c0-0.04,0.01-0.08,0.05-0.11c0.03-0.03,0.09-0.04,0.13-0.02c0.04,0.01,0.08,0.04,0.1,0.08
	c0.01,0.02,0.02,0.04,0.03,0.06c0.01,0.02,0.01,0.04,0.01,0.06C36.1,6.92,36.1,6.96,36.1,7c0.01,0.07,0.01,0.15,0.01,0.22l0,0
	c0,0.01-0.01,0.02-0.02,0.02c0,0-0.01,0-0.01,0c-0.05-0.04-0.1-0.09-0.15-0.14c-0.02-0.02-0.05-0.05-0.07-0.07
	C35.85,6.99,35.82,6.97,35.81,6.94z M36.09,7.22C36.09,7.22,36.09,7.22,36.09,7.22c0.03,0.05,0.05,0.11,0.07,0.16
	c0.02,0.05,0.04,0.11,0.05,0.16c0.01,0.06,0.01,0.11,0.02,0.17c0.01,0.06,0.01,0.11,0.03,0.17c0,0,0,0,0,0c0,0,0,0,0,0
	c0.02-0.06,0.03-0.12,0.03-0.18c0-0.06-0.02-0.12-0.04-0.17C36.23,7.41,36.17,7.31,36.09,7.22C36.1,7.21,36.1,7.21,36.09,7.22z
	 M35.34,15.07c-0.03-0.02-0.04-0.05-0.07-0.08c-0.02-0.03-0.04-0.05-0.06-0.08c-0.04-0.06-0.07-0.11-0.11-0.17
	c0-0.01,0-0.02,0.01-0.02c0,0,0.01,0,0.01,0l0,0c0.07,0.02,0.14,0.03,0.21,0.05c0.04,0.01,0.07,0.02,0.11,0.03
	c0.02,0.01,0.04,0.01,0.05,0.02c0.02,0.01,0.04,0.02,0.05,0.04c0.03,0.03,0.05,0.07,0.05,0.11c0.01,0.04-0.01,0.09-0.05,0.12
	c-0.04,0.03-0.08,0.03-0.12,0.02C35.4,15.11,35.37,15.09,35.34,15.07z M35.35,15.06c0.06,0.04,0.15,0.04,0.18,0
	c0.04-0.04,0.02-0.11-0.02-0.16c-0.01-0.01-0.02-0.02-0.03-0.03c-0.01-0.01-0.03-0.02-0.04-0.02c-0.03-0.01-0.07-0.03-0.1-0.04
	c-0.07-0.02-0.14-0.04-0.21-0.06l0.02-0.03l0.09,0.18C35.26,14.96,35.29,15.02,35.35,15.06z M35.13,14.73
	C35.13,14.73,35.13,14.73,35.13,14.73c-0.07-0.09-0.17-0.17-0.27-0.23c-0.05-0.03-0.1-0.06-0.16-0.07
	c-0.06-0.01-0.12-0.02-0.18-0.01c0,0,0,0,0,0c0,0,0,0,0,0c0.06,0.02,0.11,0.04,0.16,0.06c0.05,0.02,0.11,0.03,0.16,0.05
	c0.05,0.02,0.1,0.05,0.15,0.08C35.03,14.66,35.08,14.69,35.13,14.73C35.13,14.73,35.13,14.73,35.13,14.73z M30.33,14.76
	c-0.02-0.03-0.03-0.06-0.04-0.09c-0.01-0.03-0.02-0.06-0.03-0.1c-0.02-0.06-0.04-0.13-0.05-0.2c0-0.01,0-0.02,0.01-0.02
	c0,0,0.01,0,0.01,0l0,0c0.06,0.04,0.13,0.07,0.19,0.11c0.03,0.02,0.06,0.04,0.09,0.06c0.02,0.01,0.03,0.02,0.04,0.04
	c0.02,0.02,0.03,0.03,0.04,0.05c0.02,0.04,0.03,0.08,0.02,0.13c-0.01,0.04-0.04,0.09-0.08,0.1c-0.04,0.02-0.09,0.01-0.12-0.01
	C30.38,14.82,30.35,14.79,30.33,14.76z M30.34,14.75c0.04,0.06,0.13,0.08,0.18,0.05c0.05-0.03,0.05-0.1,0.02-0.16
	c-0.01-0.01-0.02-0.03-0.02-0.04c-0.01-0.01-0.02-0.02-0.04-0.04c-0.03-0.02-0.05-0.05-0.08-0.07c-0.06-0.04-0.12-0.08-0.18-0.12
	l0.03-0.02l0.04,0.2C30.29,14.63,30.3,14.7,30.34,14.75z M30.23,14.37C30.23,14.37,30.23,14.37,30.23,14.37
	c-0.04-0.11-0.11-0.21-0.2-0.29c-0.04-0.04-0.08-0.09-0.14-0.11c-0.05-0.03-0.11-0.05-0.17-0.06c0,0,0,0,0,0c0,0,0,0,0,0
	c0.05,0.04,0.09,0.07,0.14,0.1c0.04,0.03,0.09,0.06,0.14,0.1c0.04,0.04,0.08,0.08,0.12,0.12C30.16,14.28,30.19,14.32,30.23,14.37
	C30.22,14.37,30.22,14.37,30.23,14.37z M26.63,11.45c-0.03,0-0.07-0.01-0.1-0.02c-0.03-0.01-0.06-0.02-0.1-0.03
	c-0.06-0.02-0.13-0.05-0.19-0.07c-0.01,0-0.01-0.01-0.01-0.02c0,0,0.01-0.01,0.01-0.01l0,0c0.07-0.03,0.13-0.06,0.2-0.09
	c0.03-0.01,0.07-0.03,0.11-0.04c0.02-0.01,0.04-0.01,0.06-0.01c0.02,0,0.04,0,0.06,0c0.04,0.01,0.08,0.03,0.11,0.06
	c0.03,0.03,0.05,0.08,0.03,0.13c-0.01,0.04-0.05,0.07-0.08,0.09C26.71,11.44,26.67,11.45,26.63,11.45z M26.63,11.44
	c0.07,0,0.14-0.05,0.15-0.11c0-0.06-0.05-0.1-0.11-0.11c-0.02,0-0.03,0-0.05,0c-0.02,0-0.03,0-0.05,0.01
	c-0.03,0.01-0.07,0.02-0.1,0.03c-0.07,0.02-0.14,0.05-0.2,0.07l0-0.03l0.18,0.09C26.5,11.4,26.56,11.44,26.63,11.44z M26.26,11.3
	c0,0-0.21-0.01-0.5,0.05 M36.79,3.41c-0.02-0.02-0.04-0.05-0.06-0.08c-0.02-0.03-0.04-0.06-0.05-0.09c-0.04-0.06-0.07-0.12-0.1-0.18
	c0-0.01,0-0.02,0.01-0.02c0,0,0.01,0,0.01,0l0,0c0.07,0.02,0.14,0.04,0.21,0.06c0.03,0.01,0.07,0.02,0.1,0.04
	c0.02,0.01,0.03,0.02,0.05,0.03C36.98,3.18,37,3.2,37.01,3.21c0.03,0.03,0.05,0.07,0.05,0.12c0,0.04-0.02,0.09-0.06,0.12
	c-0.04,0.03-0.08,0.03-0.12,0.02C36.84,3.45,36.81,3.43,36.79,3.41z M36.79,3.4c0.05,0.05,0.14,0.05,0.18,0.01
	C37.01,3.37,37,3.3,36.96,3.25c-0.01-0.01-0.02-0.02-0.03-0.03C36.91,3.21,36.9,3.2,36.88,3.2c-0.03-0.02-0.06-0.03-0.1-0.05
	c-0.07-0.03-0.13-0.05-0.2-0.08l0.02-0.02l0.08,0.18C36.71,3.29,36.74,3.36,36.79,3.4z M36.59,3.06
	C36.59,3.06,36.59,3.06,36.59,3.06c-0.09-0.1-0.19-0.18-0.3-0.25c-0.06-0.03-0.11-0.07-0.18-0.09c-0.06-0.02-0.13-0.03-0.2-0.02
	c0,0,0,0,0,0c0,0,0,0,0,0c0.06,0.03,0.12,0.05,0.18,0.07c0.06,0.03,0.12,0.04,0.17,0.07c0.06,0.03,0.11,0.06,0.17,0.09
	C36.48,2.98,36.54,3.02,36.59,3.06C36.59,3.06,36.59,3.06,36.59,3.06z M39.03,5.14c0.03,0.01,0.06,0.02,0.09,0.04
	c0.03,0.01,0.06,0.03,0.09,0.05c0.06,0.03,0.12,0.07,0.17,0.1c0.01,0.01,0.01,0.02,0.01,0.02c0,0-0.01,0.01-0.01,0.01l0,0
	c-0.07,0.02-0.14,0.04-0.21,0.05c-0.04,0.01-0.07,0.01-0.11,0.02c-0.02,0-0.04,0-0.06,0c-0.02,0-0.04-0.01-0.06-0.01
	c-0.04-0.01-0.08-0.04-0.1-0.08c-0.03-0.04-0.03-0.09-0.01-0.13c0.02-0.04,0.06-0.07,0.09-0.08C38.96,5.13,39,5.13,39.03,5.14z
	 M39.03,5.14c-0.07-0.01-0.15,0.03-0.16,0.09c-0.01,0.06,0.03,0.11,0.09,0.13c0.01,0.01,0.03,0.01,0.04,0.01c0.02,0,0.03,0,0.05,0
	c0.03,0,0.07-0.01,0.11-0.01c0.07-0.01,0.14-0.02,0.21-0.04l-0.01,0.03l-0.16-0.12C39.15,5.2,39.09,5.16,39.03,5.14z M39.38,5.34
	C39.38,5.34,39.38,5.34,39.38,5.34c0.13,0.04,0.26,0.05,0.39,0.05c0.07,0,0.13,0,0.2-0.02c0.06-0.02,0.13-0.04,0.18-0.08
	c0,0,0,0,0,0c0,0,0,0,0,0c-0.07,0.01-0.13,0.02-0.19,0.03c-0.06,0.01-0.12,0.02-0.19,0.03c-0.06,0.01-0.13,0.01-0.19,0.01
	C39.51,5.35,39.44,5.34,39.38,5.34C39.38,5.33,39.38,5.33,39.38,5.34z M40.52,4.12c-0.02-0.02-0.04-0.05-0.06-0.08
	c-0.02-0.03-0.04-0.06-0.05-0.09c-0.04-0.06-0.07-0.12-0.1-0.18c0-0.01,0-0.02,0.01-0.02c0,0,0.01,0,0.01,0l0,0
	c0.07,0.02,0.14,0.04,0.21,0.06c0.03,0.01,0.07,0.02,0.1,0.04c0.02,0.01,0.03,0.02,0.05,0.03c0.02,0.01,0.03,0.03,0.05,0.04
	c0.03,0.03,0.05,0.07,0.05,0.12c0,0.04-0.02,0.09-0.06,0.12c-0.04,0.03-0.08,0.03-0.12,0.02C40.58,4.17,40.55,4.15,40.52,4.12z
	 M40.52,4.12c0.05,0.05,0.14,0.05,0.18,0.01c0.04-0.04,0.03-0.11-0.01-0.16c-0.01-0.01-0.02-0.02-0.03-0.03
	c-0.01-0.01-0.03-0.02-0.04-0.03c-0.03-0.02-0.06-0.03-0.1-0.05c-0.07-0.03-0.13-0.05-0.2-0.08l0.02-0.02l0.08,0.18
	C40.45,4.01,40.47,4.07,40.52,4.12z M40.33,3.77C40.33,3.77,40.33,3.77,40.33,3.77c-0.09-0.1-0.19-0.18-0.3-0.25
	c-0.06-0.03-0.11-0.07-0.18-0.09c-0.06-0.02-0.13-0.03-0.2-0.02c0,0,0,0,0,0c0,0,0,0,0,0c0.06,0.03,0.12,0.05,0.18,0.07
	c0.06,0.03,0.12,0.04,0.17,0.07c0.06,0.03,0.11,0.06,0.17,0.09C40.22,3.7,40.27,3.73,40.33,3.77C40.32,3.78,40.32,3.78,40.33,3.77z
	 M23.42,12.6c0,0,0.01,0,0.01,0c0.17-0.33,0.37-0.64,0.58-0.93c0.21-0.3,0.45-0.58,0.71-0.83c0.26-0.25,0.55-0.48,0.88-0.64
	c0.16-0.08,0.33-0.14,0.51-0.17c0.17-0.03,0.35-0.04,0.53-0.02l0,0c0.01,0,0.02,0,0.03,0c0.04-0.01,0.06-0.05,0.04-0.09
	c-0.04-0.12-0.12-0.21-0.21-0.28c-0.09-0.07-0.18-0.13-0.29-0.17c-0.1-0.04-0.21-0.07-0.33-0.08c-0.06-0.01-0.11-0.01-0.17-0.01
	c-0.05,0-0.11,0-0.16,0.01c-0.22,0.01-0.43,0.06-0.64,0.14c-0.21,0.08-0.4,0.19-0.57,0.33c-0.17,0.14-0.31,0.31-0.43,0.49
	c-0.12,0.18-0.21,0.37-0.29,0.57c-0.08,0.2-0.14,0.4-0.17,0.62c-0.03,0.21-0.06,0.42-0.05,0.63c0,0,0,0.01,0.01,0.01
	c0.01,0,0.01,0,0.01-0.01c0.03-0.21,0.07-0.41,0.12-0.61c0.05-0.2,0.12-0.39,0.21-0.58c0.18-0.37,0.41-0.72,0.72-0.96
	c0.16-0.12,0.33-0.22,0.52-0.3c0.19-0.07,0.38-0.12,0.58-0.14c0.05-0.01,0.1-0.01,0.15-0.01c0.05,0,0.1,0,0.15,0
	c0.1,0.01,0.19,0.03,0.28,0.06c0.09,0.03,0.18,0.08,0.25,0.14c0.07,0.06,0.14,0.13,0.17,0.21l0.07-0.09c-0.19-0.02-0.38,0-0.57,0.04
	c-0.19,0.04-0.36,0.11-0.53,0.2c-0.33,0.17-0.63,0.41-0.89,0.68c-0.26,0.27-0.49,0.56-0.69,0.86c-0.21,0.31-0.39,0.63-0.55,0.96
	C23.41,12.59,23.42,12.6,23.42,12.6z M26.69,8.85C26.69,8.85,26.69,8.85,26.69,8.85L26.69,8.85l0-0.02l0.01-0.02l0.03-0.04
	l0.06-0.09c0.04-0.06,0.09-0.11,0.13-0.17c0.09-0.11,0.18-0.22,0.28-0.32c0.19-0.21,0.4-0.4,0.63-0.58
	c0.11-0.09,0.24-0.16,0.36-0.23c0.13-0.07,0.26-0.13,0.4-0.17c0.14-0.04,0.28-0.08,0.43-0.08c0.15-0.01,0.3,0.01,0.44,0.04
	l-0.09,0.08c-0.01-0.06-0.06-0.13-0.11-0.19c-0.05-0.06-0.12-0.1-0.19-0.14c-0.07-0.04-0.15-0.06-0.23-0.07
	c-0.04-0.01-0.08-0.01-0.12-0.02c-0.04,0-0.08-0.01-0.13,0c-0.33,0-0.66,0.1-0.93,0.29c-0.14,0.1-0.25,0.21-0.36,0.34
	c-0.11,0.13-0.21,0.27-0.29,0.42c-0.04,0.07-0.08,0.15-0.11,0.23c-0.03,0.08-0.07,0.16-0.1,0.24c-0.03,0.08-0.06,0.16-0.08,0.25
	c-0.01,0.04-0.02,0.08-0.03,0.13c0,0.02-0.01,0.04-0.01,0.06l0,0.02c0,0,0,0.01,0,0.01C26.7,8.83,26.7,8.84,26.69,8.85z M26.69,8.87
	c0-0.01-0.01-0.02-0.01-0.04c0-0.01,0-0.01,0-0.02l0-0.02c0-0.02,0-0.04,0-0.07c0-0.04,0-0.09,0.01-0.13
	c0.01-0.09,0.03-0.18,0.05-0.26c0.02-0.09,0.05-0.17,0.07-0.26c0.03-0.08,0.06-0.17,0.1-0.25c0.08-0.16,0.17-0.32,0.28-0.46
	c0.11-0.14,0.24-0.28,0.39-0.39c0.3-0.23,0.68-0.33,1.05-0.31c0.05,0,0.09,0.01,0.14,0.01c0.05,0.01,0.09,0.01,0.14,0.02
	c0.09,0.02,0.19,0.05,0.27,0.1c0.08,0.05,0.16,0.11,0.23,0.18c0.03,0.04,0.06,0.08,0.09,0.12c0.02,0.04,0.05,0.09,0.05,0.15l0,0
	c0.01,0.04-0.02,0.07-0.06,0.08c-0.01,0-0.02,0-0.03,0c-0.13-0.03-0.26-0.05-0.4-0.05c-0.14,0-0.27,0.03-0.4,0.06
	c-0.26,0.07-0.51,0.21-0.74,0.37c-0.23,0.16-0.44,0.34-0.64,0.54c-0.1,0.1-0.19,0.2-0.29,0.31c-0.05,0.05-0.09,0.11-0.14,0.16
	l-0.07,0.08l-0.03,0.04l-0.02,0.02l-0.01,0.01l0,0.01C26.7,8.87,26.69,8.87,26.69,8.87z M28.07,5.14c-0.05,0.07-0.09,0.16-0.12,0.25
	c-0.03,0.09-0.06,0.18-0.08,0.27l-0.15,0.53l-0.08-0.07c0.17-0.09,0.33-0.18,0.49-0.28c0.08-0.05,0.16-0.1,0.24-0.15
	c0.04-0.03,0.07-0.05,0.11-0.08c0.02-0.01,0.03-0.03,0.05-0.04c0.01-0.01,0.02-0.02,0.03-0.04c0.08-0.11,0.07-0.28-0.03-0.4
	c-0.05-0.06-0.13-0.1-0.22-0.1C28.22,5.04,28.13,5.07,28.07,5.14z M28.05,5.13C28.11,5.06,28.2,5,28.3,4.98
	c0.1-0.02,0.22-0.01,0.31,0.06c0.1,0.06,0.17,0.17,0.18,0.28c0.02,0.12-0.01,0.24-0.09,0.34c-0.02,0.02-0.04,0.05-0.06,0.07
	c-0.02,0.02-0.04,0.03-0.06,0.05c-0.04,0.03-0.08,0.05-0.13,0.08c-0.08,0.05-0.17,0.09-0.25,0.14c-0.17,0.09-0.34,0.17-0.51,0.25
	l0,0c-0.03,0.01-0.06,0-0.07-0.03c-0.01-0.01-0.01-0.03,0-0.04c0.06-0.18,0.12-0.35,0.2-0.52l0.11-0.25
	C27.97,5.3,28,5.21,28.05,5.13z M25.45,13.93c0-0.12-0.1-0.21-0.22-0.21c-0.12,0-0.21,0.1-0.21,0.22c0,0.12,0.1,0.21,0.22,0.21
	C25.36,14.15,25.46,14.05,25.45,13.93z M11.09,18.14c0,0,0,0.03,0.01,0.09l-0.4,0.04v3.87h1.62l0.12-0.94l0.11,0.03l-0.09,1.03
	h-1.36l-1.18,0.01l0.01-0.08l0.31-0.04c0.04,0,0.06-0.03,0.07-0.08v-3.71c-0.01-0.05-0.03-0.07-0.07-0.08l-0.31-0.03l-0.01-0.09
	L11.09,18.14z M12.71,22.25l0.01-0.08l0.31-0.04c0.03,0,0.05-0.03,0.07-0.08l1.27-3.91h0.39l1.35,3.99l0.4,0.02
	c0,0,0,0.03-0.01,0.09l-1.17,0.01c0-0.04,0-0.06,0.01-0.08l0.3-0.04c0.03,0,0.05-0.03,0.05-0.07l-0.32-0.96h-1.83l-0.31,1.02
	l0.68,0.04c0,0,0,0.03-0.01,0.09L12.71,22.25z M14.4,18.25l-0.84,2.73h1.75L14.4,18.25z M22.12,18.14c0,0,0,0.03,0.01,0.09
	l-0.37,0.04l-1.29,3.98h-0.39l-1.34-3.95c-0.01-0.02-0.03-0.03-0.05-0.03l-0.31-0.03c0-0.02-0.01-0.05-0.01-0.09l1.17-0.01
	c0,0,0,0.03,0.01,0.09l-0.43,0.04l1.3,3.87l1.14-3.72l0.01-0.05c0-0.05-0.02-0.07-0.05-0.08l-0.53-0.05c0-0.02-0.01-0.05-0.01-0.09
	L22.12,18.14z M22.46,22.25l0.01-0.08l0.31-0.04c0.04,0,0.06-0.03,0.07-0.08h0.01v-3.71h-0.01c-0.01-0.05-0.03-0.08-0.07-0.08
	l-0.31-0.03l-0.01-0.09l1.18-0.01c0,0,0,0.03,0.01,0.09l-0.4,0.04v3.87l0.4,0.02c0,0,0,0.03-0.01,0.09L22.46,22.25z M24.1,18.23
	l0.01-0.09h2.51l-0.01,0.02l0.08,0.83l-0.12,0.05l-0.09-0.77h-1.6v1.89h1.4c0.02,0,0.04,0,0.05-0.01c0.02-0.01,0.02-0.03,0.02-0.06
	l0.02-0.4l0.09-0.01v1c0,0-0.03,0-0.09,0.01l-0.02-0.4h-1.48v1.86h1.75l0.11-0.94l0.11,0.03l-0.09,1.03h-1.49l-1.18,0.01l0.01-0.08
	l0.31-0.04c0.04,0,0.06-0.03,0.07-0.08v-3.71c-0.01-0.05-0.03-0.07-0.07-0.08L24.1,18.23z M27.22,18.23l0.01-0.09h1.43
	c0.4,0,0.71,0.09,0.93,0.26c0.22,0.18,0.33,0.44,0.33,0.79c0,0.23-0.09,0.46-0.26,0.71c-0.17,0.25-0.34,0.4-0.49,0.47l1.09,1.77
	l0.29,0.02c0,0,0,0.03-0.01,0.09l-0.64,0.01l-1.11-1.81h-0.78v1.69l0.41,0.02c0,0,0,0.03-0.01,0.09l-1.18,0.01l0.01-0.08l0.31-0.04
	c0.03,0,0.05-0.02,0.06-0.05v-3.75c-0.01-0.04-0.03-0.05-0.06-0.06L27.22,18.23z M28.62,18.23h-0.63v2.13h1
	c0.2-0.23,0.34-0.44,0.41-0.61c0.07-0.18,0.11-0.35,0.11-0.52c0-0.33-0.08-0.58-0.23-0.74C29.13,18.31,28.91,18.23,28.62,18.23z
	 M33.74,20.55c0,0,0,0.03,0.01,0.09l-0.23,0.03v1.45c-0.07,0.02-0.24,0.05-0.53,0.09c-0.29,0.04-0.52,0.06-0.7,0.06
	c-0.18,0-0.34-0.01-0.47-0.04c-0.13-0.03-0.27-0.08-0.42-0.16c-0.15-0.08-0.27-0.19-0.38-0.33c-0.1-0.13-0.19-0.32-0.26-0.55
	c-0.07-0.23-0.11-0.51-0.11-0.82c0-0.69,0.16-1.23,0.48-1.62c0.33-0.41,0.79-0.61,1.36-0.61c0.18,0,0.37,0.02,0.57,0.05
	c0.21,0.03,0.35,0.07,0.44,0.1l0.07,0.84l-0.11,0.04l-0.08-0.63c-0.32-0.22-0.61-0.32-0.89-0.32c-0.44,0-0.79,0.18-1.05,0.55
	c-0.26,0.37-0.39,0.9-0.39,1.6c0,0.84,0.19,1.39,0.58,1.64c0.12,0.07,0.23,0.12,0.33,0.14c0.1,0.02,0.24,0.03,0.42,0.03
	c0.18,0,0.44-0.03,0.79-0.08l0.02-1.35c0-0.05-0.02-0.07-0.07-0.08l-0.42-0.03c0-0.02-0.01-0.05-0.01-0.09L33.74,20.55z
	 M34.22,18.23l0.01-0.09h2.51l-0.01,0.02l0.08,0.83l-0.12,0.05l-0.09-0.77H35v1.89h1.4c0.02,0,0.04,0,0.05-0.01
	c0.02-0.01,0.02-0.03,0.02-0.06l0.02-0.4l0.09-0.01v1c0,0-0.03,0-0.09,0.01l-0.02-0.4H35v1.86h1.75l0.11-0.94l0.11,0.03l-0.09,1.03
	H35.4l-1.18,0.01l0.01-0.08l0.31-0.04c0.04,0,0.06-0.03,0.07-0.08v-3.71c-0.01-0.05-0.03-0.07-0.07-0.08L34.22,18.23z M18.99,26.53
	c0,0,0,0.01,0,0.01l0,0c0.05,0.02,0.1,0.05,0.13,0.1c0.03,0.04,0.04,0.1,0.03,0.16c-0.02,0.11-0.1,0.2-0.2,0.24
	c-0.02,0.01-0.05,0.01-0.08,0.02c-0.03,0-0.05,0-0.08,0c-0.03,0-0.05-0.01-0.08-0.01l-0.04-0.01c-0.01,0-0.02-0.01-0.04-0.02
	c-0.05-0.02-0.09-0.06-0.13-0.09c-0.04-0.04-0.07-0.09-0.08-0.14c-0.04-0.1-0.04-0.21-0.02-0.32c0.02-0.05,0.03-0.1,0.06-0.15
	c0.01-0.02,0.03-0.04,0.05-0.06c0.02-0.02,0.04-0.04,0.06-0.06c0.08-0.07,0.18-0.13,0.28-0.16c0.1-0.03,0.21-0.05,0.32-0.05
	c0.11-0.01,0.22,0.01,0.33,0.03c0.11,0.02,0.21,0.05,0.31,0.1c0.2,0.09,0.35,0.25,0.47,0.44c0.12,0.19,0.21,0.4,0.33,0.6
	c0.06,0.1,0.12,0.2,0.21,0.29c0.08,0.09,0.18,0.17,0.29,0.22c0.22,0.12,0.47,0.16,0.71,0.12c0.24-0.04,0.47-0.15,0.65-0.32
	c0.18-0.17,0.31-0.4,0.35-0.64c0.05-0.24,0.01-0.51-0.12-0.73c-0.07-0.11-0.15-0.2-0.26-0.27c-0.11-0.07-0.23-0.12-0.35-0.14
	l-0.09-0.01c-0.03,0-0.07,0-0.1,0c-0.06,0.01-0.12,0.02-0.18,0.04c-0.12,0.04-0.23,0.09-0.33,0.16c-0.05,0.04-0.09,0.08-0.13,0.14
	c-0.04,0.05-0.06,0.11-0.08,0.18c-0.02,0.06-0.01,0.13,0,0.19c0.02,0.06,0.04,0.12,0.08,0.17c0.08,0.1,0.21,0.15,0.33,0.16
	c0.12,0,0.24-0.04,0.34-0.09c0,0,0.01-0.01,0-0.01c0,0-0.01-0.01-0.01,0c-0.1,0.04-0.22,0.07-0.32,0.05
	c-0.11-0.01-0.21-0.07-0.26-0.15c-0.03-0.04-0.04-0.09-0.05-0.14c0-0.05,0-0.1,0.01-0.15c0.03-0.1,0.09-0.17,0.18-0.23
	c0.09-0.06,0.19-0.1,0.29-0.13c0.05-0.01,0.1-0.02,0.15-0.02c0.03,0,0.05,0,0.07,0l0.08,0.01c0.2,0.04,0.38,0.17,0.48,0.34
	c0.1,0.18,0.13,0.39,0.09,0.6c-0.04,0.21-0.14,0.4-0.29,0.54c-0.15,0.15-0.35,0.25-0.55,0.29c-0.21,0.04-0.43,0.01-0.62-0.09
	c-0.09-0.05-0.18-0.11-0.25-0.19c-0.07-0.08-0.14-0.17-0.19-0.26c-0.12-0.19-0.21-0.4-0.34-0.6c-0.06-0.1-0.14-0.19-0.23-0.27
	c-0.09-0.08-0.19-0.15-0.3-0.2c-0.11-0.05-0.22-0.08-0.34-0.1c-0.12-0.02-0.23-0.03-0.35-0.02c-0.12,0.01-0.24,0.03-0.35,0.07
	c-0.11,0.04-0.22,0.1-0.3,0.19c-0.02,0.02-0.04,0.04-0.06,0.07c-0.02,0.02-0.04,0.05-0.05,0.07c-0.03,0.05-0.05,0.11-0.07,0.17
	c-0.03,0.12-0.02,0.24,0.03,0.35c0.02,0.06,0.06,0.11,0.1,0.15c0.04,0.04,0.09,0.08,0.15,0.1c0.01,0.01,0.03,0.01,0.04,0.02
	l0.04,0.01c0.03,0.01,0.06,0.01,0.09,0.01c0.03,0,0.06,0,0.09,0c0.03-0.01,0.06-0.01,0.09-0.02c0.11-0.05,0.2-0.15,0.22-0.27
	c0.01-0.06,0-0.12-0.04-0.17c-0.04-0.05-0.09-0.08-0.14-0.1C19,26.53,18.99,26.53,18.99,26.53z M19.7,27.43
	c-0.01,0-0.02,0-0.02,0.01c0,0.01,0,0.02,0,0.02c0.09,0.06,0.13,0.18,0.09,0.28c-0.04,0.1-0.14,0.17-0.24,0.18
	c-0.11,0.01-0.21-0.04-0.27-0.12c-0.07-0.08-0.09-0.19-0.08-0.29c0.02-0.1,0.08-0.19,0.17-0.25c0.08-0.06,0.19-0.09,0.29-0.09
	c0.21,0.01,0.38,0.18,0.44,0.37c0.06,0.19,0.01,0.42-0.14,0.56c-0.15,0.14-0.36,0.21-0.58,0.23c-0.22,0.02-0.44,0-0.64-0.07
	c-0.2-0.07-0.39-0.19-0.55-0.34c-0.31-0.3-0.5-0.72-0.51-1.15c0-0.21,0.04-0.41,0.13-0.6c0.09-0.18,0.23-0.35,0.4-0.47
	c0.17-0.13,0.36-0.22,0.57-0.28c0.21-0.05,0.42-0.06,0.64-0.02c0.43,0.08,0.83,0.34,1.1,0.72c0,0.01,0.01,0.01,0.02,0
	c0.01,0,0.01-0.01,0.01-0.02c-0.2-0.42-0.6-0.78-1.08-0.91c-0.24-0.07-0.5-0.08-0.75-0.04c-0.25,0.05-0.49,0.15-0.69,0.3
	c-0.21,0.15-0.38,0.35-0.5,0.58c-0.12,0.23-0.17,0.5-0.15,0.75c0.01,0.26,0.08,0.5,0.2,0.73c0.11,0.22,0.26,0.43,0.45,0.59
	c0.19,0.17,0.41,0.3,0.64,0.37c0.24,0.07,0.49,0.09,0.74,0.06c0.24-0.03,0.49-0.12,0.68-0.31c0.19-0.19,0.25-0.49,0.16-0.73
	c-0.04-0.12-0.12-0.23-0.23-0.31c-0.05-0.04-0.11-0.07-0.17-0.1c-0.06-0.02-0.13-0.03-0.19-0.04c-0.26-0.01-0.52,0.19-0.55,0.45
	c-0.02,0.13,0.02,0.26,0.11,0.36c0.04,0.05,0.09,0.09,0.15,0.11c0.06,0.03,0.13,0.03,0.19,0.02c0.13-0.02,0.24-0.11,0.28-0.23
	C19.86,27.64,19.81,27.5,19.7,27.43L19.7,27.43z M17.65,28.27c0.06,0,0.11-0.05,0.11-0.11c0-0.06-0.05-0.11-0.11-0.11
	s-0.11,0.05-0.11,0.11C17.54,28.22,17.59,28.27,17.65,28.27z M17.06,26.76c0.06,0,0.11-0.05,0.11-0.11s-0.05-0.11-0.11-0.11
	s-0.11,0.05-0.11,0.11S17,26.76,17.06,26.76z M17.71,25.44c0.06,0,0.11-0.05,0.11-0.11c0-0.06-0.05-0.11-0.11-0.11
	s-0.11,0.05-0.11,0.11C17.59,25.39,17.64,25.44,17.71,25.44z M19.56,24.99c0.06,0,0.11-0.05,0.11-0.11s-0.05-0.11-0.11-0.11
	c-0.06,0-0.11,0.05-0.11,0.11S19.5,24.99,19.56,24.99z M17.17,27.6c0.08,0,0.15-0.07,0.15-0.15c0-0.08-0.07-0.15-0.15-0.15
	c-0.08,0-0.15,0.07-0.15,0.15C17.02,27.53,17.09,27.6,17.17,27.6z M17.17,26.06c0.08,0,0.15-0.07,0.15-0.15
	c0-0.08-0.07-0.15-0.15-0.15c-0.08,0-0.15,0.07-0.15,0.15C17.02,25.99,17.09,26.06,17.17,26.06z M18.51,25.03
	c0.08,0,0.15-0.07,0.15-0.15c0-0.08-0.07-0.15-0.15-0.15c-0.08,0-0.15,0.07-0.15,0.15C18.36,24.97,18.42,25.03,18.51,25.03z
	 M20.56,25.48c0.08,0,0.15-0.07,0.15-0.15c0-0.08-0.07-0.15-0.15-0.15c-0.08,0-0.15,0.07-0.15,0.15
	C20.4,25.41,20.47,25.48,20.56,25.48z M23.45,26.32c-0.01-0.05-0.02-0.1-0.04-0.14l0.02,0l0,0l0,0c0,0-0.01,0.01-0.01,0.01
	c0,0-0.01,0-0.01-0.01l0,0l0.02,0l-0.04,0.13l0,0c-0.07,0.21-0.15,0.41-0.24,0.61c-0.09,0.2-0.2,0.39-0.32,0.57
	c-0.13,0.18-0.27,0.35-0.46,0.48c-0.18,0.13-0.4,0.22-0.62,0.24l0.04-0.08c0.04,0.06,0.11,0.11,0.19,0.14
	c0.08,0.03,0.17,0.04,0.25,0.04c0.08-0.01,0.17-0.03,0.26-0.05c0.09-0.03,0.17-0.06,0.24-0.11c0.15-0.09,0.29-0.21,0.39-0.36
	c0.05-0.07,0.09-0.15,0.13-0.23c0.03-0.08,0.06-0.17,0.09-0.26c0.01-0.04,0.06-0.06,0.1-0.05c0.02,0.01,0.04,0.02,0.05,0.05l0,0
	c0.03,0.08,0.06,0.17,0.1,0.25c0.04,0.08,0.08,0.16,0.13,0.23c0.1,0.14,0.24,0.26,0.39,0.34c0.08,0.04,0.16,0.08,0.24,0.1
	c0.08,0.02,0.17,0.04,0.25,0.05c0.08,0,0.16-0.01,0.24-0.04c0.07-0.03,0.14-0.08,0.17-0.12l0.08,0.14
	c-0.23-0.02-0.46-0.11-0.64-0.25c-0.18-0.14-0.33-0.31-0.45-0.49c-0.12-0.18-0.22-0.38-0.31-0.58c-0.04-0.1-0.09-0.2-0.12-0.3
	C23.52,26.53,23.48,26.43,23.45,26.32z M23.47,26.32c0.07,0.2,0.15,0.4,0.25,0.59c0.1,0.19,0.22,0.37,0.35,0.53
	c0.13,0.16,0.29,0.31,0.46,0.42c0.17,0.11,0.36,0.18,0.56,0.19l0,0c0.05,0,0.09,0.05,0.09,0.1c0,0.01-0.01,0.03-0.01,0.04
	c-0.03,0.06-0.08,0.1-0.12,0.13c-0.05,0.03-0.09,0.06-0.14,0.08c-0.1,0.04-0.21,0.06-0.31,0.05c-0.11-0.01-0.2-0.03-0.3-0.06
	c-0.1-0.03-0.19-0.07-0.27-0.12c-0.17-0.1-0.32-0.24-0.44-0.4c-0.06-0.08-0.11-0.17-0.14-0.26c-0.04-0.09-0.06-0.18-0.1-0.28l0.15,0
	c-0.03,0.09-0.06,0.18-0.1,0.27c-0.04,0.09-0.09,0.17-0.15,0.25c-0.12,0.16-0.27,0.29-0.44,0.39c-0.09,0.05-0.18,0.08-0.27,0.11
	c-0.09,0.03-0.19,0.05-0.29,0.05c-0.1,0-0.2-0.01-0.3-0.05c-0.09-0.04-0.18-0.09-0.24-0.19c-0.01-0.02-0.01-0.05,0.02-0.07
	c0.01,0,0.01-0.01,0.02-0.01l0,0c0.21-0.01,0.41-0.09,0.58-0.21c0.18-0.12,0.33-0.27,0.46-0.44c0.13-0.17,0.25-0.35,0.34-0.55
	c0.1-0.19,0.18-0.39,0.25-0.6l0,0l0.04-0.13l0.02,0l0,0l-0.02,0l0,0c0,0,0.01-0.01,0.01-0.01c0,0,0,0,0.01,0.01l0,0
	C23.44,26.22,23.46,26.27,23.47,26.32z M27.84,26.55c0,0,0.01-0.01,0-0.01c0,0-0.01-0.01-0.01-0.01c-0.05,0.02-0.11,0.05-0.14,0.1
	c-0.04,0.05-0.05,0.11-0.04,0.17c0.02,0.12,0.11,0.22,0.22,0.27c0.03,0.01,0.06,0.02,0.09,0.02c0.03,0,0.06,0,0.09,0
	c0.03,0,0.06-0.01,0.09-0.01l0.04-0.01l0.04-0.02c0.11-0.05,0.2-0.14,0.25-0.25c0.05-0.11,0.05-0.24,0.02-0.36
	c-0.01-0.06-0.04-0.12-0.07-0.17c-0.03-0.05-0.07-0.1-0.12-0.14c-0.09-0.08-0.19-0.14-0.31-0.18c-0.11-0.04-0.23-0.06-0.35-0.07
	c-0.12-0.01-0.24,0-0.35,0.02c-0.12,0.02-0.23,0.06-0.34,0.11c-0.11,0.05-0.21,0.12-0.3,0.2c-0.09,0.08-0.16,0.18-0.23,0.27
	c-0.13,0.19-0.24,0.4-0.36,0.59c-0.06,0.1-0.12,0.19-0.19,0.27l-0.05,0.06l-0.06,0.06c-0.04,0.04-0.08,0.07-0.12,0.1
	c-0.17,0.11-0.39,0.14-0.6,0.08c-0.1-0.03-0.2-0.07-0.29-0.12c-0.09-0.05-0.18-0.12-0.25-0.2c-0.15-0.15-0.27-0.34-0.31-0.54
	c-0.05-0.2-0.02-0.42,0.08-0.6c0.1-0.18,0.27-0.31,0.48-0.35c0.05-0.01,0.1-0.02,0.15-0.01c0.05,0,0.1,0.01,0.15,0.02
	c0.1,0.03,0.2,0.07,0.29,0.12c0.09,0.06,0.16,0.13,0.18,0.23l0.01,0.04l0,0.04c0.01,0.03,0,0.05,0,0.08
	c-0.01,0.05-0.02,0.1-0.05,0.14c-0.05,0.09-0.15,0.14-0.26,0.15c-0.11,0.01-0.22-0.01-0.33-0.05c0,0-0.01,0-0.01,0
	c0,0,0,0.01,0,0.01c0.1,0.06,0.22,0.09,0.34,0.09c0.12,0,0.25-0.06,0.33-0.16c0.04-0.05,0.06-0.11,0.08-0.17
	c0-0.03,0.01-0.06,0.01-0.1l0-0.05l-0.01-0.05c-0.01-0.06-0.04-0.12-0.08-0.18c-0.04-0.05-0.08-0.1-0.13-0.13
	c-0.1-0.08-0.21-0.13-0.33-0.16c-0.06-0.02-0.12-0.03-0.18-0.03c-0.07-0.01-0.13,0-0.19,0.01c-0.12,0.02-0.25,0.07-0.35,0.14
	c-0.11,0.07-0.19,0.17-0.26,0.28c-0.13,0.22-0.16,0.49-0.11,0.73c0.02,0.12,0.08,0.24,0.14,0.35c0.06,0.11,0.14,0.2,0.23,0.29
	c0.09,0.08,0.19,0.16,0.29,0.22c0.11,0.06,0.22,0.11,0.34,0.13c0.12,0.03,0.25,0.04,0.37,0.02c0.12-0.02,0.24-0.07,0.35-0.14
	c0.05-0.04,0.1-0.08,0.14-0.12l0.06-0.07L26,27.45c0.07-0.09,0.14-0.19,0.19-0.29c0.12-0.2,0.22-0.41,0.34-0.59
	c0.06-0.09,0.13-0.18,0.21-0.26c0.08-0.07,0.17-0.14,0.27-0.19c0.1-0.05,0.2-0.08,0.31-0.1c0.11-0.02,0.22-0.03,0.33-0.03
	c0.11,0,0.22,0.02,0.33,0.05c0.1,0.03,0.2,0.09,0.28,0.16c0.04,0.03,0.08,0.08,0.11,0.12c0.03,0.04,0.05,0.09,0.07,0.15
	c0.03,0.1,0.02,0.22-0.01,0.32c-0.04,0.1-0.11,0.19-0.21,0.23l-0.04,0.02l-0.04,0.01c-0.03,0.01-0.05,0.01-0.08,0.02
	c-0.03,0.01-0.05,0-0.08,0c-0.03-0.01-0.05-0.01-0.08-0.02c-0.1-0.04-0.18-0.13-0.21-0.24c-0.01-0.05,0-0.11,0.03-0.16
	C27.74,26.6,27.79,26.57,27.84,26.55L27.84,26.55z M27.16,27.44c0-0.01-0.01-0.01-0.02-0.01l0,0c-0.11,0.06-0.16,0.2-0.12,0.33
	c0.04,0.12,0.15,0.21,0.28,0.23c0.06,0.01,0.13,0,0.19-0.02c0.06-0.02,0.11-0.06,0.15-0.11c0.09-0.1,0.13-0.23,0.11-0.36
	c-0.04-0.26-0.29-0.46-0.55-0.45c-0.07,0-0.13,0.01-0.19,0.04c-0.06,0.02-0.12,0.06-0.17,0.1c-0.1,0.08-0.18,0.19-0.23,0.31
	c-0.09,0.25-0.03,0.54,0.16,0.73c0.19,0.19,0.44,0.27,0.68,0.31c0.25,0.03,0.49,0.01,0.74-0.06c0.24-0.07,0.46-0.2,0.64-0.37
	c0.19-0.16,0.34-0.37,0.45-0.59c0.11-0.22,0.18-0.47,0.2-0.73c0.01-0.25-0.03-0.52-0.15-0.75c-0.12-0.23-0.29-0.43-0.5-0.58
	c-0.21-0.15-0.45-0.25-0.69-0.3c-0.25-0.04-0.51-0.03-0.75,0.04c-0.48,0.14-0.87,0.49-1.08,0.91c0,0.01,0,0.01,0,0.02
	c0.01,0.01,0.02,0,0.02,0c0.28-0.37,0.67-0.64,1.1-0.72c0.21-0.04,0.43-0.04,0.64,0.02c0.21,0.05,0.4,0.15,0.57,0.28
	c0.17,0.13,0.3,0.29,0.4,0.47c0.1,0.18,0.14,0.39,0.13,0.6c0,0.42-0.19,0.85-0.51,1.15c-0.16,0.15-0.34,0.27-0.55,0.34
	c-0.2,0.07-0.43,0.09-0.64,0.07c-0.21-0.02-0.43-0.09-0.58-0.23c-0.15-0.14-0.2-0.36-0.14-0.56c0.06-0.19,0.24-0.36,0.44-0.37
	c0.1-0.01,0.21,0.02,0.29,0.09c0.08,0.06,0.15,0.15,0.17,0.25c0.02,0.1-0.01,0.21-0.08,0.29c-0.07,0.08-0.17,0.13-0.27,0.12
	c-0.1-0.01-0.2-0.08-0.24-0.18c-0.04-0.1,0-0.22,0.09-0.28C27.16,27.46,27.16,27.45,27.16,27.44z M29.3,28.16
	c0-0.06-0.05-0.11-0.11-0.11c-0.06,0-0.11,0.05-0.11,0.11s0.05,0.11,0.11,0.11C29.25,28.27,29.3,28.22,29.3,28.16z M29.89,26.65
	c0-0.06-0.05-0.11-0.11-0.11s-0.11,0.05-0.11,0.11s0.05,0.11,0.11,0.11S29.89,26.71,29.89,26.65z M29.24,25.33
	c0-0.06-0.05-0.11-0.11-0.11c-0.06,0-0.11,0.05-0.11,0.11s0.05,0.11,0.11,0.11C29.19,25.44,29.24,25.39,29.24,25.33z M27.38,24.88
	c0-0.06-0.05-0.11-0.11-0.11s-0.11,0.05-0.11,0.11c0,0.06,0.05,0.11,0.11,0.11S27.38,24.94,27.38,24.88z M29.82,27.45
	c0-0.08-0.07-0.15-0.15-0.15c-0.08,0-0.15,0.07-0.15,0.15s0.07,0.15,0.15,0.15C29.75,27.6,29.82,27.53,29.82,27.45z M29.82,25.91
	c0-0.08-0.07-0.15-0.15-0.15c-0.08,0-0.15,0.07-0.15,0.15c0,0.08,0.07,0.15,0.15,0.15C29.75,26.06,29.82,26,29.82,25.91z
	 M28.48,24.88c0-0.08-0.07-0.15-0.15-0.15c-0.08,0-0.15,0.07-0.15,0.15c0,0.08,0.07,0.15,0.15,0.15
	C28.41,25.04,28.48,24.97,28.48,24.88z M26.43,25.33c0-0.08-0.07-0.15-0.15-0.15c-0.08,0-0.15,0.07-0.15,0.15
	c0,0.08,0.07,0.15,0.15,0.15C26.36,25.48,26.43,25.41,26.43,25.33z M23.69,29.32c0.01,0.11,0,0.22-0.03,0.33
	c-0.02,0.05-0.04,0.11-0.07,0.16c-0.03,0.05-0.06,0.1-0.1,0.14c-0.02,0.02-0.05,0.03-0.07,0.01l0,0l0,0
	c-0.09-0.09-0.15-0.18-0.21-0.29c-0.03-0.05-0.05-0.11-0.06-0.18c-0.02-0.06-0.02-0.13-0.01-0.2c0.01-0.07,0.05-0.15,0.11-0.2
	c0.06-0.05,0.15-0.07,0.22-0.05c0.07,0.01,0.13,0.06,0.17,0.11C23.67,29.2,23.69,29.26,23.69,29.32z M23.68,29.32
	c-0.01-0.05-0.04-0.1-0.09-0.13c-0.04-0.02-0.09-0.02-0.13-0.01c-0.04,0.01-0.07,0.03-0.09,0.06c-0.02,0.02-0.04,0.05-0.04,0.09
	c-0.01,0.04-0.01,0.09-0.01,0.14c0,0.05,0.01,0.1,0.03,0.15c0.03,0.1,0.09,0.19,0.15,0.27h-0.08c0.04-0.03,0.07-0.08,0.1-0.12
	c0.03-0.04,0.06-0.09,0.09-0.13c0.03-0.05,0.05-0.1,0.06-0.15C23.68,29.43,23.68,29.37,23.68,29.32z M23.46,27.94
	c0,0.04,0.01,0.08,0,0.12c0,0.04,0,0.09-0.01,0.13c-0.01,0.09-0.04,0.17-0.07,0.26c-0.04,0.08-0.08,0.16-0.14,0.23
	c-0.06,0.07-0.13,0.13-0.22,0.18l-0.04-0.11l0.22-0.06c0.08-0.02,0.16-0.04,0.24-0.04c0.08,0,0.17,0.01,0.25,0.02
	c0.08,0.01,0.15,0.03,0.23,0.05l-0.06,0.18c-0.06-0.02-0.09-0.05-0.13-0.08c-0.04-0.03-0.07-0.06-0.11-0.1
	c-0.06-0.07-0.11-0.16-0.15-0.24c-0.03-0.09-0.05-0.18-0.06-0.27c0-0.05,0-0.09,0-0.14c0-0.02,0.01-0.04,0.01-0.07
	c0-0.01,0-0.02,0.01-0.03l0-0.02l0-0.01l0,0l0,0l0,0l0,0l0,0C23.44,27.93,23.45,27.95,23.46,27.94z M23.45,27.93
	c0.01-0.01,0.02,0.02,0.02,0.01l0,0l0,0l0,0l0,0l0,0l0,0.01l0,0.02L23.48,28l0.01,0.06c0.01,0.04,0.02,0.08,0.04,0.12
	c0.03,0.08,0.06,0.15,0.1,0.22c0.04,0.07,0.09,0.13,0.14,0.18c0.03,0.03,0.06,0.05,0.09,0.08c0.02,0.01,0.03,0.02,0.05,0.03
	c0.01,0.01,0.03,0.02,0.04,0.03l0.01,0.01c0.05,0.02,0.06,0.08,0.04,0.13c-0.02,0.04-0.07,0.06-0.11,0.05
	c-0.07-0.02-0.15-0.04-0.22-0.07c-0.07-0.02-0.14-0.03-0.21-0.04c-0.07,0-0.14,0-0.21,0.02l-0.23,0.05l0,0
	c-0.03,0.01-0.06-0.01-0.07-0.04c-0.01-0.03,0.01-0.05,0.03-0.06c0.07-0.03,0.14-0.08,0.19-0.14c0.06-0.06,0.11-0.12,0.15-0.2
	c0.04-0.07,0.07-0.15,0.09-0.24c0.01-0.04,0.02-0.08,0.02-0.13L23.45,27.93z M22.58,28.97c0.06,0,0.11-0.05,0.11-0.11
	c0-0.06-0.05-0.11-0.11-0.11c-0.06,0-0.11,0.05-0.11,0.11C22.47,28.92,22.52,28.97,22.58,28.97z M24.47,28.92
	c0.06,0,0.11-0.05,0.11-0.11c0-0.06-0.05-0.11-0.11-0.11c-0.06,0-0.11,0.05-0.11,0.11C24.36,28.87,24.41,28.92,24.47,28.92z
	 M23.63,24.57c-0.12-0.06-0.26-0.07-0.38-0.02c-0.12,0.05-0.2,0.14-0.25,0.24c-0.05,0.1-0.07,0.22-0.04,0.33
	c0.02,0.11,0.09,0.21,0.19,0.28c0.1,0.06,0.23,0.08,0.34,0.06c0.12-0.03,0.23-0.1,0.29-0.21c0.07-0.1,0.1-0.24,0.07-0.37
	C23.83,24.75,23.75,24.63,23.63,24.57z M23.64,24.55c0.12,0.07,0.21,0.18,0.25,0.32c0.05,0.13,0.04,0.29-0.03,0.42
	c-0.07,0.13-0.19,0.23-0.33,0.27c-0.14,0.04-0.3,0.03-0.44-0.05c-0.13-0.07-0.24-0.2-0.29-0.35c-0.05-0.15-0.02-0.32,0.06-0.45
	c0.08-0.13,0.23-0.22,0.37-0.24C23.38,24.44,23.52,24.48,23.64,24.55z M21.8,25.19c0.1,0,0.19-0.08,0.19-0.18
	c0-0.1-0.08-0.19-0.18-0.19c-0.1,0-0.19,0.08-0.19,0.18C21.61,25.1,21.69,25.19,21.8,25.19z M24.95,25.19c0.1,0,0.19-0.08,0.19-0.18
	c0-0.1-0.08-0.19-0.18-0.19c-0.1,0-0.19,0.08-0.19,0.18C24.76,25.1,24.85,25.19,24.95,25.19z M25.16,25c0-0.1-0.09-0.18-0.19-0.18
	c-0.1,0-0.18,0.09-0.18,0.19c0,0.1,0.09,0.18,0.19,0.18C25.08,25.19,25.16,25.1,25.16,25z M34.35,26.64l-4.08-0.03v0.07l4.08-0.03
	C34.36,26.66,34.36,26.65,34.35,26.64C34.36,26.64,34.36,26.64,34.35,26.64z M12.48,26.64C12.48,26.64,12.47,26.64,12.48,26.64
	c-0.01,0.01-0.01,0.02,0,0.02c1.38,0.04,2.76,0.06,4.13,0.07v-0.16C15.24,26.58,13.86,26.6,12.48,26.64z M25.31,2.89
	c0,0,0,0.03,0.01,0.09l-0.37,0.04l-1.29,3.98h-0.39l-1.34-3.95c-0.01-0.02-0.03-0.03-0.05-0.03l-0.31-0.03
	c0-0.02-0.01-0.05-0.01-0.09l1.17-0.01c0,0,0,0.03,0.01,0.09l-0.43,0.04l1.3,3.87l1.14-3.72l0.01-0.05c0-0.05-0.02-0.07-0.05-0.08
	l-0.53-0.05c0-0.02-0.01-0.05-0.01-0.09L25.31,2.89z"/>
</svg>
