<?xml version="1.0" encoding="utf-8"?>
<!-- Generator: Adobe Illustrator 25.0.1, SVG Export Plug-In . SVG Version: 6.00 Build 0)  -->
<svg version="1.0" id="Layer_1" xmlns="http://www.w3.org/2000/svg" xmlns:xlink="http://www.w3.org/1999/xlink" x="0px" y="0px"
	 viewBox="0 0 77.13 13.79" style="enable-background:new 0 0 77.13 13.79;" xml:space="preserve">
<style type="text/css">
	.st0{fill:#000104;}
	.st1{fill:#FFFFFF;}
	.st2{fill:#EF493E;}
	.st3{opacity:0.6;fill-rule:evenodd;clip-rule:evenodd;fill:#FBBE43;}
	.st4{opacity:0.6;fill-rule:evenodd;clip-rule:evenodd;fill:#EF930E;}
	.st5{opacity:0.6;fill-rule:evenodd;clip-rule:evenodd;fill:#E67906;}
	.st6{fill:#9F8829;}
	.st7{fill:#3972A6;}
	.st8{fill:url(#SVGID_1_);stroke:#2B53A4;stroke-width:0.5;stroke-miterlimit:10;}
	.st9{fill:none;}
	.st10{fill:url(#SVGID_2_);}
	.st11{fill:url(#SVGID_3_);}
	.st12{fill:#B3B3B3;}
	.st13{fill:url(#SVGID_4_);}
	.st14{fill:url(#SVGID_5_);}
	.st15{fill:url(#SVGID_6_);}
	.st16{fill:#FFFFFF;stroke:#FFFFFF;stroke-width:0.25;stroke-miterlimit:10;}
	.st17{fill:#00001D;}
	.st18{fill:#4DA0C5;}
	.st19{fill:url(#SVGID_7_);}
	.st20{fill:#2E6A85;}
	.st21{fill:none;stroke:#144FA1;stroke-width:0.113;stroke-linejoin:round;stroke-miterlimit:10;}
	.st22{fill:#F27337;}
	.st23{fill:#8EB8D4;}
	.st24{fill:#F38056;}
	.st25{fill:#626365;}
	.st26{fill:#EF6D23;}
	.st27{fill:#284B82;}
	.st28{fill:#242956;}
	.st29{fill:#15142A;}
	.st30{fill:#84C343;}
	.st31{fill:#4CA1C6;}
	.st32{fill:#121617;}
	.st33{fill:#CF8966;}
	.st34{fill:#F37639;}
	.st35{opacity:0.3;fill:url(#SVGID_8_);}
	.st36{fill:#373277;}
	.st37{fill:#E61E25;}
	.st38{fill:#2555A5;}
	.st39{fill:#2E225E;}
	.st40{fill:#F8A425;}
	.st41{fill:#2058A7;}
	.st42{fill:none;stroke:#205AA8;stroke-width:0.156;stroke-miterlimit:10;}
	.st43{fill:#49A3C7;}
	.st44{fill-rule:evenodd;clip-rule:evenodd;}
	.st45{fill-rule:evenodd;clip-rule:evenodd;fill:url(#SVGID_9_);}
	.st46{fill-rule:evenodd;clip-rule:evenodd;fill:url(#SVGID_10_);}
	.st47{fill-rule:evenodd;clip-rule:evenodd;fill:url(#SVGID_11_);}
	.st48{fill:#1D2251;}
	.st49{fill:#2260AC;}
	.st50{fill:url(#SVGID_12_);}
	.st51{fill:#FFFFFC;}
	.st52{fill:#4C9FC5;}
	.st53{fill:#28306D;}
	.st54{fill:#4C9EC5;}
	.st55{fill:#28306E;}
	.st56{fill:#29306F;}
	.st57{fill:#F7F7FB;}
	.st58{fill:url(#SVGID_13_);}
	.st59{fill:url(#SVGID_14_);}
	.st60{fill:url(#SVGID_15_);}
	.st61{fill:url(#SVGID_16_);}
	.st62{fill:#10123C;}
	.st63{fill:#F5842C;}
	.st64{fill:#1F305E;}
	.st65{fill:#87BBD1;}
	.st66{fill:#203160;}
	.st67{fill:#235779;}
	.st68{fill:#359FA1;}
	.st69{fill:#A4D1A4;}
	.st70{fill:#B9DBBC;}
	.st71{fill:#C6DDCA;}
	.st72{fill:#662E14;}
	.st73{fill:#1D79A4;}
	.st74{fill:#C14B28;}
	.st75{fill:url(#SVGID_17_);}
	.st76{fill:url(#SVGID_18_);}
	.st77{fill:url(#SVGID_19_);}
	.st78{fill:url(#SVGID_20_);}
	.st79{fill:url(#SVGID_21_);}
	.st80{fill:url(#SVGID_22_);}
	.st81{fill:url(#SVGID_23_);}
	.st82{fill:url(#SVGID_24_);}
	.st83{fill:url(#SVGID_25_);}
	.st84{fill:url(#SVGID_26_);}
	.st85{fill:url(#SVGID_27_);}
	.st86{fill:url(#SVGID_28_);}
	.st87{fill:url(#SVGID_29_);}
	.st88{fill:url(#SVGID_30_);}
	.st89{fill:#1F164B;}
	.st90{clip-path:url(#SVGID_32_);fill:#253D97;}
	.st91{fill:url(#SVGID_33_);}
	.st92{fill:url(#SVGID_34_);}
	.st93{fill:url(#SVGID_35_);}
	.st94{fill:url(#SVGID_36_);}
	.st95{fill:url(#SVGID_37_);}
	.st96{fill:url(#SVGID_38_);}
	.st97{fill:url(#SVGID_39_);}
	.st98{fill:url(#SVGID_40_);}
	.st99{fill:url(#SVGID_41_);}
	.st100{fill:#443F41;}
	.st101{fill:#28306F;}
	.st102{fill:#71C49D;}
	.st103{fill:#F0C6A7;}
	.st104{fill:#DB8D82;}
	.st105{fill:#EFB7AC;}
	.st106{opacity:0.21;}
	.st107{fill-rule:evenodd;clip-rule:evenodd;fill:#A9196E;}
	.st108{fill-rule:evenodd;clip-rule:evenodd;fill:#FBE42C;}
	.st109{fill:#FBE42C;}
	.st110{fill:#A9196E;}
	.st111{fill:#7FC143;}
	.st112{clip-path:url(#SVGID_45_);fill:#7FC143;}
	.st113{clip-path:url(#SVGID_51_);fill:#7FC143;}
	.st114{fill:#243F8F;}
	.st115{fill:#EF4E2F;}
	.st116{fill:#010007;}
	.st117{fill:#0C0D37;}
	.st118{fill:#FBAF2D;}
	.st119{fill:url(#SVGID_54_);}
	.st120{fill-rule:evenodd;clip-rule:evenodd;fill:#FFFFFF;}
	.st121{fill:#1D4690;}
	.st122{fill:#3AA949;}
	.st123{fill:#F37A24;}
	.st124{fill:none;stroke:#F37A24;stroke-width:3.7145;stroke-miterlimit:10;}
	.st125{fill:#3AA949;stroke:#FFFFFF;stroke-width:1.3104;stroke-miterlimit:10;}
	.st126{fill:#46A2BB;}
	.st127{fill:#7153A0;}
	.st128{fill:#27316C;}
	.st129{fill:#2C65AE;}
	.st130{fill:#452D7A;}
	.st131{fill:#442C7A;}
	.st132{fill:#1A2642;}
	.st133{fill-rule:evenodd;clip-rule:evenodd;fill:#567EB8;}
	.st134{fill-rule:evenodd;clip-rule:evenodd;fill:#6A7EB8;}
	.st135{fill-rule:evenodd;clip-rule:evenodd;fill:#6A7EB9;}
	.st136{fill-rule:evenodd;clip-rule:evenodd;fill:#EE3C2D;}
	.st137{fill-rule:evenodd;clip-rule:evenodd;fill:#EF493F;}
	.st138{fill-rule:evenodd;clip-rule:evenodd;fill:#ED2C24;}
	.st139{fill-rule:evenodd;clip-rule:evenodd;fill:#E9AE28;}
	.st140{fill-rule:evenodd;clip-rule:evenodd;fill:#D69B28;}
	.st141{fill-rule:evenodd;clip-rule:evenodd;fill:#FCB729;}
	.st142{fill-rule:evenodd;clip-rule:evenodd;fill:#409E47;}
	.st143{fill-rule:evenodd;clip-rule:evenodd;fill:#4BB450;}
	.st144{fill-rule:evenodd;clip-rule:evenodd;fill:#338440;}
	.st145{fill:#C09C36;}
	.st146{fill:#1E552A;}
	.st147{clip-path:url(#SVGID_56_);fill:url(#SVGID_57_);}
	.st148{fill:#023A1E;}
	.st149{fill:#FFFFFA;}
	.st150{fill:#0D4F28;}
	.st151{fill:#0E5128;}
	.st152{fill:#0D4E27;}
	.st153{fill:#0E5229;}
	.st154{fill:#0E4823;}
	.st155{fill:#0E4C27;}
	.st156{fill:#F3F6E0;}
	.st157{fill:#0E4F28;}
	.st158{fill:#114823;}
	.st159{fill:#105229;}
	.st160{fill:#0A4A2B;}
	.st161{fill:#134F27;}
	.st162{fill:#165229;}
	.st163{fill:#0D5029;}
	.st164{fill:#0B4E2B;}
	.st165{fill:#105028;}
	.st166{fill:#0A492A;}
	.st167{fill:#E9F3E2;}
	.st168{fill:#144D26;}
	.st169{fill:#185C2F;}
	.st170{fill:#0F5028;}
	.st171{fill:#F3F8EA;}
	.st172{fill:#114D26;}
	.st173{fill:#70A685;}
	.st174{fill:#0D4F2A;}
	.st175{fill:#094A24;}
	.st176{fill:#0F4F27;}
	.st177{fill:#0A4C26;}
	.st178{fill:#A2D29A;}
	.st179{fill:#4D7E44;}
	.st180{fill:#E8F2E1;}
	.st181{fill:#EDF5E5;}
	.st182{fill:#E6F2E7;}
	.st183{fill:#E5F1DC;}
	.st184{fill:#E9F3E3;}
	.st185{fill:#E9F3E5;}
	.st186{fill:#E5F1DB;}
	.st187{fill:#D8ECD7;}
	.st188{fill:#D9EBD4;}
	.st189{fill:#E2F0DE;}
	.st190{fill:#366B4B;}
	.st191{fill:#5D6162;}
	.st192{fill:#212E5F;}
	.st193{fill:#DD1F26;}
	.st194{clip-path:url(#SVGID_59_);}
	.st195{fill:#23396F;}
	.st196{fill:#7FC24E;}
	.st197{clip-path:url(#SVGID_59_);fill:#23396F;}
	.st198{clip-path:url(#SVGID_59_);fill:#7FC24E;}
	.st199{fill:#91CEA4;}
	.st200{fill:#90CEA4;}
	.st201{fill:#C02026;}
	.st202{fill:#362E7E;}
</style>
<g>
	<path class="st190" d="M0.27,6.84c0.03-0.03,0.06-0.06,0.1-0.08c1.55-1.06,3.21-1.9,5.01-2.48c0.76-0.24,1.54-0.42,2.34-0.52
		c0.41-0.05,0.82-0.1,1.23-0.11c0.37-0.01,0.31,0.02,0.31-0.32c0-1,0-1.99,0-2.99c0-0.04,0-0.09,0-0.13C9.26-0.02,9.24,0,9.47,0
		c0.28,0,0.56,0,0.84,0c0.09,0,0.1,0.01,0.11,0.1c0,0.06,0,0.11,0,0.17c0,0.98,0,1.96,0,2.94c0,0.06,0,0.11,0,0.17
		c0,0.11,0.02,0.12,0.13,0.12c0.06,0,0.12,0,0.18,0c1.35,0.01,2.69-0.02,4.04-0.03c0.22,0,0.22,0.01,0.22-0.21c0-1.01,0-2.02,0-3.03
		c0-0.27-0.02-0.24,0.25-0.24c0.27,0,0.54,0,0.82,0c0.09,0,0.1,0.01,0.1,0.1c0,0.06,0,0.11,0,0.17c0,0.97,0,1.95,0,2.92
		c0,0.06,0,0.13,0,0.19c0,0.04,0.03,0.06,0.07,0.07c0.02,0,0.04,0,0.07,0c0.56-0.01,1.12-0.01,1.68-0.02c0.03,0,0.06,0,0.09-0.01
		c0.02-0.01,0.04-0.03,0.04-0.04c0.01-0.06,0.01-0.13,0.01-0.19c0-0.97,0-1.95,0-2.92C18.1-0.03,18.05,0,18.37,0
		c1.94,0,3.88,0,5.82,0c0.28,0,0.25-0.03,0.25,0.24c0,0.21,0,0.42,0,0.62c0,0.04,0.01,0.09-0.02,0.13
		c-0.08,0.03-0.17,0.02-0.26,0.02c-1.53,0-3.06,0-4.59,0c-0.09,0-0.21-0.04-0.28,0.02c-0.08,0.07-0.03,0.19-0.03,0.29
		c0,0.64,0,1.29,0,1.93c0,0.2,0,0.19,0.19,0.19c1.28,0,2.56,0,3.84,0.01c0.9,0.01,1.81,0.02,2.71,0.03c0.29,0,0.26,0.03,0.26-0.25
		c0-1,0-1.99,0-2.99c0-0.08-0.02-0.16,0.02-0.23C26.36-0.01,26.43,0,26.49,0c1.26,0,2.53,0,3.79,0c0.38,0,0.75,0.03,1.12,0.09
		c0.96,0.15,1.54,0.7,1.8,1.58c0.12,0.4,0.13,0.82,0.02,1.23c-0.14,0.55-0.45,0.97-0.93,1.28c-0.34,0.21-0.71,0.33-1.1,0.42
		C31.1,4.62,31,4.64,30.91,4.65c-0.01,0.05,0.03,0.06,0.06,0.08c0.39,0.18,0.7,0.47,0.98,0.79c0.19,0.21,0.36,0.44,0.51,0.67
		c0.5,0.75,0.99,1.51,1.48,2.26C34.3,8.99,34.68,9.5,35.09,10c0.64,0.8,1.44,1.38,2.38,1.8c0.91,0.41,1.85,0.68,2.84,0.84
		c1.24,0.2,2.49,0.21,3.74,0.14c0.39-0.02,0.78-0.05,1.16-0.09c0.07-0.01,0.14-0.02,0.23,0.01c-0.23,0.09-0.45,0.14-0.67,0.19
		c-0.64,0.15-1.28,0.24-1.94,0.28c-0.64,0.04-1.28,0.04-1.92-0.01C39.21,13,37.55,12.63,36,11.9c-0.73-0.34-1.4-0.76-2.01-1.27
		c-0.48-0.41-0.9-0.87-1.25-1.38c-0.31-0.45-0.57-0.92-0.84-1.39c-0.19-0.32-0.37-0.65-0.57-0.97C31.05,6.43,30.71,6,30.31,5.63
		c-0.36-0.33-0.76-0.61-1.22-0.81C29,4.78,28.9,4.76,28.8,4.76c-0.4,0-0.81,0-1.21,0c-0.03,0-0.06,0-0.09,0.01
		c-0.03,0-0.05,0.03-0.05,0.06c0,0.06,0,0.13,0,0.19c0,1.08,0,2.16,0,3.24c0,0.05,0,0.1,0,0.15c0,0.14,0,0.14-0.15,0.14
		c-0.3,0-0.6,0-0.9,0c-0.03,0-0.06-0.01-0.08-0.01c-0.04-0.08-0.02-0.16-0.02-0.24c0-1.1,0-2.2,0-3.31c0-0.32,0.04-0.29-0.29-0.3
		c-0.89-0.02-1.78-0.07-2.67-0.07c-1.26,0.01-2.53,0-3.79,0c-0.28,0-0.25-0.03-0.25,0.24c0,0.82,0,1.65,0,2.47
		c0,0.2-0.01,0.19,0.19,0.19c1.63,0,3.26,0,4.9,0c0.06,0,0.12,0,0.18,0c0.1,0,0.12,0.01,0.12,0.11c0,0.27,0,0.54,0,0.82
		c0,0.07-0.02,0.09-0.09,0.09c-0.06,0-0.12,0-0.18,0c-2.01,0-4.01,0-6.02,0c-0.3,0-0.27,0.03-0.27-0.26c0-1.18,0-2.36,0-3.54
		c0-0.26,0.02-0.23-0.24-0.23c-0.51-0.01-1.01-0.01-1.52-0.02c-0.04,0-0.09,0-0.13,0c-0.03,0-0.05,0.03-0.06,0.05
		c0,0.06,0,0.13,0,0.19c0,1.18,0,2.36,0,3.54c0,0.3,0.03,0.26-0.27,0.26c-0.24,0-0.47,0-0.71,0c-0.19,0-0.19,0.01-0.19-0.19
		c0-0.04,0-0.09,0-0.13c0-1.14,0-2.28,0-3.41c0-0.05,0-0.1,0-0.15c0-0.13-0.01-0.14-0.15-0.14c-0.03,0-0.06,0-0.09,0
		c-1.36,0-2.72,0-4.08,0c-0.26,0-0.24-0.02-0.24,0.23c0,1.19,0,2.38,0,3.56c0,0.26,0.02,0.23-0.23,0.23c-0.24,0-0.47,0-0.71,0
		c-0.24,0-0.22,0.02-0.22-0.22c0-0.06,0-0.11,0-0.17c0-1.17,0-2.35,0-3.52c0-0.25,0.02-0.23-0.23-0.25
		C8.46,4.36,7.89,4.39,7.33,4.46c-1.54,0.18-3,0.62-4.42,1.19C2.09,5.98,1.3,6.36,0.53,6.78c-0.06,0.03-0.13,0.06-0.2,0.1
		C0.31,6.88,0.28,6.87,0.27,6.84z M29,0.61C29,0.61,29,0.61,29,0.61c-0.46,0-0.91,0-1.37,0c-0.19,0-0.19-0.01-0.19,0.19
		c0,0.81,0,1.63,0,2.44c0,0.04,0,0.09,0,0.13c0,0.04,0.03,0.06,0.07,0.06c0.06,0,0.12,0,0.18,0c0.76,0,1.51,0,2.27,0
		c0.1,0,0.21,0,0.31-0.01c0.32-0.02,0.63-0.05,0.93-0.16c0.39-0.14,0.66-0.41,0.81-0.79c0.08-0.21,0.09-0.42,0.07-0.63
		c-0.02-0.27-0.13-0.51-0.32-0.72c-0.21-0.24-0.48-0.37-0.79-0.44c-0.24-0.06-0.49-0.08-0.74-0.08C29.82,0.61,29.41,0.61,29,0.61z"
		/>
	<path class="st190" d="M56.13,8.55c-0.32,0-0.63,0-0.93,0c-0.08,0-0.12-0.04-0.14-0.11c-0.12-0.34-0.23-0.68-0.35-1.02
		c-0.67-1.92-1.34-3.83-2.01-5.75c-0.01-0.03-0.02-0.06-0.03-0.08c-0.02-0.04-0.02-0.13-0.07-0.12c-0.08,0.01-0.04,0.09-0.04,0.14
		c0,0.82,0,1.63,0,2.45c0,1.41,0,2.82,0,4.23c0,0.08,0.01,0.16-0.02,0.24c-0.02,0-0.04,0.01-0.06,0.01c-0.31,0-0.62,0-0.93,0
		c-0.1,0-0.11-0.01-0.11-0.11c0-0.05,0-0.1,0-0.15c0-2.67,0-5.34,0-8.01c0-0.01,0-0.03,0-0.04c0-0.26-0.02-0.23,0.24-0.23
		c0.46,0,0.91,0,1.37,0c0.18,0,0.15,0.01,0.2,0.14c0.26,0.76,0.52,1.52,0.78,2.28c0.5,1.46,1,2.93,1.5,4.39
		c0.04,0.12,0.08,0.23,0.11,0.35c0.01,0.03,0.02,0.05,0.07,0.06c0.01-0.04,0.03-0.08,0.05-0.11c0.54-1.55,1.09-3.1,1.63-4.65
		c0.27-0.76,0.54-1.53,0.81-2.29C58.26-0.02,58.23,0,58.44,0c0.4,0,0.79,0,1.19,0c0.04,0,0.09,0,0.13,0c0.03,0,0.05,0.02,0.06,0.05
		c0,0.05,0,0.1,0,0.15c0,2.71,0,5.41,0,8.12c0,0.24,0.02,0.22-0.22,0.22c-0.24,0-0.49,0-0.73,0c-0.18,0-0.18,0-0.18-0.18
		c0-0.04,0-0.09,0-0.13c0-2.15,0-4.29,0-6.44c0-0.08,0-0.15-0.01-0.23c-0.02,0-0.03,0-0.04,0c-0.01,0-0.01,0.01-0.01,0.01
		c-0.01,0.01-0.01,0.03-0.02,0.04c-0.01,0.03-0.02,0.05-0.03,0.08c-0.81,2.26-1.62,4.52-2.42,6.79c0,0.01-0.01,0.01-0.01,0.02
		C56.15,8.52,56.15,8.53,56.13,8.55z"/>
	<path class="st190" d="M40.11,4c0.01,0.04,0.06,0.04,0.09,0.05c0.13,0.06,0.27,0.11,0.4,0.18c0.64,0.35,1,0.88,1.08,1.58
		c0.07,0.59-0.07,1.14-0.39,1.64c-0.22,0.34-0.52,0.6-0.9,0.77c-0.36,0.16-0.74,0.25-1.12,0.29c-0.31,0.04-0.62,0.05-0.92,0.05
		c-1,0-2,0-3,0c-0.04,0-0.07,0-0.11,0c-0.17,0-0.17,0-0.17-0.17c0-0.04,0-0.07,0-0.11c0-2.67,0-5.34,0-8.01
		c0-0.3-0.04-0.26,0.27-0.26c1.04,0,2.07,0,3.11,0c0.4,0,0.79,0.03,1.18,0.14C40.46,0.37,41,0.89,41.2,1.71
		c0.2,0.82-0.06,1.51-0.74,2.04c-0.09,0.07-0.18,0.12-0.28,0.18C40.16,3.95,40.12,3.95,40.11,4z M36.23,6.08c0,0.41,0,0.82,0,1.22
		c0,0.06,0,0.11,0,0.17c0,0.03,0.02,0.05,0.05,0.06c0.06,0,0.12,0.01,0.18,0.01c0.54,0,1.07,0,1.61,0c0.29,0,0.59,0,0.88-0.01
		c0.23,0,0.45-0.06,0.67-0.14c0.4-0.15,0.66-0.42,0.79-0.81c0.1-0.29,0.11-0.59,0.03-0.89c-0.12-0.44-0.39-0.75-0.82-0.91
		c-0.1-0.04-0.21-0.07-0.32-0.09c-0.32-0.06-0.64-0.08-0.96-0.08c-0.63,0-1.26,0-1.9,0c-0.05,0-0.1,0-0.15,0
		c-0.03,0-0.06,0.02-0.06,0.05c0,0.06-0.01,0.11-0.01,0.17C36.23,5.25,36.23,5.66,36.23,6.08z M37.56,3.59
		c0.4,0,0.79,0.01,1.19-0.02c0.25-0.02,0.5-0.06,0.72-0.17c0.33-0.15,0.53-0.4,0.61-0.74c0.05-0.23,0.05-0.47-0.01-0.7
		c-0.13-0.49-0.44-0.78-0.95-0.87c-0.16-0.03-0.32-0.04-0.48-0.05c-0.74-0.05-1.48-0.02-2.23-0.03c-0.19,0-0.19,0-0.19,0.19
		c0,0.74,0,1.47,0,2.21c0,0.04,0,0.07,0,0.11c0,0.04,0.03,0.06,0.07,0.07c0.06,0,0.12,0,0.18,0C36.84,3.59,37.2,3.59,37.56,3.59z"/>
	<path class="st190" d="M69.87,4.28c0-1.35,0-2.69,0-4.04c0-0.27-0.02-0.24,0.25-0.24c0.97,0,1.94,0,2.91,0
		c0.4,0,0.81,0.02,1.21,0.08c0.89,0.14,1.59,0.57,2.1,1.29c0.33,0.45,0.53,0.96,0.65,1.49c0.16,0.71,0.17,1.42,0.1,2.13
		c-0.06,0.57-0.21,1.11-0.45,1.63c-0.17,0.36-0.39,0.67-0.66,0.96c-0.39,0.4-0.87,0.65-1.41,0.8c-0.41,0.11-0.84,0.17-1.26,0.17
		c-1.1,0.01-2.19,0-3.29,0c-0.01,0-0.03,0-0.04,0c-0.08,0-0.09-0.02-0.1-0.08c0-0.06,0-0.13,0-0.19
		C69.87,6.94,69.87,5.61,69.87,4.28z M71.03,4.26c0,1.01,0,2.02,0,3.03c0,0.06,0,0.11,0,0.17c0,0.05,0.03,0.08,0.08,0.08
		c0.02,0,0.04,0,0.07,0c0.68,0,1.37,0,2.05,0c0.28,0,0.56-0.03,0.83-0.09c0.61-0.13,1.07-0.45,1.37-0.99
		c0.14-0.25,0.24-0.5,0.32-0.77c0.09-0.3,0.13-0.62,0.16-0.93c0.05-0.61,0.02-1.21-0.12-1.81c-0.12-0.51-0.37-0.96-0.76-1.33
		c-0.26-0.25-0.57-0.42-0.94-0.49c-0.19-0.04-0.39-0.07-0.59-0.08c-0.76-0.04-1.51-0.02-2.27-0.02c-0.22,0-0.2,0.01-0.2,0.2
		C71.03,2.23,71.03,3.24,71.03,4.26z"/>
	<path class="st190" d="M61.71,4.28c0-1.34,0-2.68,0-4.01c0-0.3-0.04-0.26,0.27-0.26c1.93,0,3.87,0,5.8,0c0.07,0,0.13,0,0.2,0
		c0.05,0,0.08,0.03,0.08,0.08c0,0.28,0,0.56,0,0.84c0,0.05-0.02,0.08-0.08,0.08c-0.07,0-0.13,0-0.2,0c-1.52,0-3.04,0-4.56,0
		c-0.04,0-0.09,0-0.13,0c-0.23,0-0.22,0-0.22,0.21c0,0.74,0,1.47,0,2.21c0,0.04,0,0.09,0,0.13c0,0.03,0.03,0.05,0.06,0.05
		c0.07,0,0.13,0,0.2,0c1.44,0,2.88,0,4.32,0c0.3,0,0.27-0.04,0.27,0.26c0,0.21,0,0.43,0,0.64c0,0.09-0.02,0.11-0.12,0.11
		c-0.06,0-0.12,0-0.18,0c-1.43,0-2.87,0-4.3,0c-0.29,0-0.26-0.03-0.26,0.25c0,0.8,0,1.6,0,2.4c0,0.06,0,0.11,0,0.17
		c0,0.04,0.03,0.06,0.07,0.07c0.07,0,0.13,0,0.2,0c1.62,0,3.23,0,4.85,0c0.29,0,0.26-0.03,0.26,0.25c0,0.22,0,0.44,0,0.67
		c0,0.09-0.01,0.1-0.1,0.1c-0.05,0-0.1,0-0.15,0c-2.01,0-4.03,0-6.04,0c-0.27,0-0.25,0.03-0.25-0.24
		C61.71,6.97,61.71,5.62,61.71,4.28z"/>
	<path class="st190" d="M42.36,8.53c-0.01-0.08,0.04-0.15,0.07-0.22c0.37-0.93,0.74-1.87,1.11-2.8c0.69-1.76,1.38-3.51,2.08-5.27
		c0.11-0.28,0.04-0.23,0.36-0.23c0.27,0,0.54,0.01,0.82,0c0.13,0,0.2,0.03,0.24,0.15c0.18,0.46,0.38,0.91,0.57,1.37
		c0.95,2.26,1.9,4.53,2.85,6.79c0.03,0.07,0.08,0.14,0.06,0.23c-0.11,0-0.22,0-0.33,0c-0.28,0-0.56,0-0.84,0
		c-0.09,0-0.13-0.03-0.16-0.11c-0.17-0.43-0.34-0.87-0.51-1.3c-0.14-0.35-0.28-0.71-0.42-1.06c-0.03-0.09-0.08-0.12-0.18-0.12
		c-0.5,0-1,0-1.5,0c-0.6,0-1.21,0-1.81,0c-0.05,0-0.1,0-0.15,0c-0.05,0-0.08,0.02-0.1,0.07c-0.02,0.07-0.05,0.13-0.08,0.2
		c-0.26,0.71-0.53,1.41-0.79,2.12c-0.02,0.05-0.04,0.09-0.05,0.14c-0.01,0.04-0.04,0.06-0.08,0.06c-0.37,0-0.75,0-1.12-0.01
		C42.37,8.54,42.37,8.53,42.36,8.53z M46.3,0.95c-0.03,0.09-0.04,0.14-0.06,0.2c-0.12,0.54-0.29,1.06-0.49,1.58
		c-0.26,0.67-0.52,1.35-0.78,2.03c-0.03,0.07-0.05,0.15-0.08,0.22c-0.01,0.03,0,0.06,0.04,0.06c0.03,0,0.06,0.01,0.09,0.01
		c0.9,0,1.79,0,2.69,0c0.03,0,0.07,0.01,0.1-0.04C47.32,3.66,46.75,2.34,46.3,0.95z"/>
	<path class="st190" d="M60.21,13.69c-0.47,0.02-0.39,0.07-0.39-0.34c0-0.87,0-1.73,0-2.6c0-0.27-0.03-0.23,0.25-0.23
		c0.03,0,0.06,0,0.09,0c0.04,0,0.07,0.02,0.07,0.06c0,0.06,0,0.11,0.01,0.17c0,0.03,0.05,0.04,0.07,0.03
		c0.03-0.02,0.06-0.04,0.09-0.06c0.3-0.23,0.65-0.3,1.02-0.26c0.37,0.04,0.69,0.18,0.93,0.47c0.01,0.02,0.03,0.02,0.08,0.05
		c0.02-0.03,0.04-0.06,0.06-0.09c0.34-0.37,0.78-0.49,1.28-0.44c0.01,0,0.03,0.01,0.04,0.01c0.5,0.06,0.8,0.33,0.92,0.8
		c0.05,0.19,0.09,0.38,0.09,0.57c0,0.58,0,1.16,0,1.74c0,0.01,0,0.03,0,0.04c0,0.05-0.02,0.08-0.08,0.08c-0.07,0-0.15,0-0.22,0
		c-0.09,0-0.1-0.01-0.1-0.1c0-0.29,0-0.57,0-0.86c0-0.28,0-0.56,0-0.84c0-0.19-0.03-0.37-0.09-0.55c-0.09-0.28-0.29-0.44-0.58-0.49
		c-0.13-0.02-0.26-0.03-0.39-0.01c-0.45,0.06-0.74,0.36-0.78,0.8c-0.01,0.16-0.02,0.31-0.02,0.47c0,0.44,0,0.89,0,1.33
		c0,0.06,0,0.11,0,0.17c0,0.04-0.02,0.07-0.07,0.07c-0.38,0-0.33,0.06-0.33-0.29c0-0.47,0-0.93,0-1.4c0-0.19,0-0.39-0.06-0.57
		c-0.1-0.34-0.32-0.54-0.68-0.58c-0.16-0.02-0.32-0.02-0.48,0.02c-0.35,0.08-0.6,0.35-0.66,0.7c-0.03,0.17-0.03,0.34-0.03,0.51
		c0,0.46,0,0.92,0,1.37C60.23,13.54,60.24,13.61,60.21,13.69z"/>
	<path class="st190" d="M65.75,12.26c0.01,0.3,0.12,0.55,0.33,0.77c0.47,0.5,1.44,0.52,1.91-0.14c0.02-0.03,0.04-0.06,0.06-0.09
		c0.04-0.08,0.1-0.12,0.19-0.11c0.03,0,0.06,0,0.09,0c0.28,0,0.28-0.01,0.14,0.25c-0.22,0.38-0.54,0.66-0.98,0.78
		c-1.2,0.32-2.04-0.55-2.15-1.3c-0.09-0.6,0.04-1.12,0.5-1.55c0.29-0.27,0.64-0.41,1.03-0.43c0.17-0.01,0.34-0.01,0.51,0.02
		c0.41,0.08,0.73,0.28,0.98,0.6c0.24,0.32,0.34,0.69,0.35,1.09c0,0.07-0.02,0.09-0.09,0.09c-0.06,0-0.12,0-0.18,0
		c-0.81,0-1.62,0-2.42,0C65.92,12.24,65.84,12.23,65.75,12.26z M66.98,11.89c0.34,0,0.68,0,1.01,0c0.25,0,0.25,0.01,0.16-0.24
		c-0.02-0.06-0.05-0.12-0.08-0.18c-0.16-0.33-0.43-0.54-0.8-0.62c-0.12-0.03-0.25-0.03-0.37-0.03c-0.55,0.01-1.02,0.39-1.13,0.92
		c0,0.02-0.01,0.04-0.01,0.06c-0.01,0.04,0.02,0.07,0.06,0.07c0.04,0.01,0.09,0,0.13,0C66.3,11.89,66.64,11.89,66.98,11.89z"/>
	<path class="st190" d="M56.95,12.08c0.01,0.52-0.2,0.96-0.59,1.31c-0.61,0.54-1.5,0.49-2.04,0.11c-1.03-0.71-0.98-2.25,0.14-2.89
		c0.47-0.27,0.97-0.28,1.46-0.07c0.54,0.23,0.88,0.63,1.01,1.2c0.01,0.04,0.02,0.08,0.02,0.13C56.96,11.94,56.95,12.01,56.95,12.08z
		 M54.04,12.13c-0.01,0.17,0.02,0.35,0.1,0.52c0.2,0.43,0.53,0.7,1.02,0.74c0.46,0.04,0.83-0.13,1.11-0.49
		c0.33-0.44,0.33-1.13,0.02-1.57c-0.43-0.61-1.41-0.7-1.93-0.11C54.14,11.48,54.03,11.77,54.04,12.13z"/>
	<path class="st190" d="M51.62,10.43c0.68,0.01,1.17,0.32,1.48,0.91c0.02,0.03,0.03,0.07,0.04,0.1c0.01,0.04-0.01,0.06-0.04,0.06
		c-0.11,0-0.22,0-0.33,0c-0.04,0-0.07-0.02-0.09-0.05c-0.02-0.04-0.05-0.07-0.07-0.11c-0.29-0.41-0.69-0.57-1.18-0.51
		c-0.47,0.06-0.79,0.34-0.96,0.76c-0.16,0.39-0.15,0.79,0.06,1.16c0.43,0.77,1.3,0.75,1.76,0.44c0.16-0.11,0.29-0.25,0.37-0.41
		c0.03-0.06,0.07-0.09,0.14-0.08c0.1,0,0.19,0,0.29,0c0.06,0,0.08,0.03,0.06,0.08c-0.23,0.53-0.62,0.88-1.21,0.98
		c-0.93,0.16-1.59-0.37-1.86-0.95c-0.36-0.8-0.07-1.84,0.89-2.25C51.16,10.47,51.39,10.43,51.62,10.43z"/>
	<path class="st190" d="M71.76,12.09c0.03-0.7,0.36-1.23,1.04-1.52c0.73-0.31,1.74-0.11,2.17,0.83c0.04,0.08,0.02,0.1-0.07,0.1
		c-0.02,0-0.04,0-0.07,0c-0.19,0.03-0.35-0.02-0.43-0.21c-0.42-0.58-1.4-0.66-1.91-0.04c-0.38,0.47-0.38,1.25-0.01,1.7
		c0.53,0.64,1.58,0.56,1.97-0.12c0.06-0.11,0.14-0.15,0.26-0.14c0.32,0.01,0.33-0.02,0.16,0.28c-0.32,0.59-0.92,0.87-1.62,0.81
		c-0.85-0.08-1.36-0.75-1.47-1.29c-0.01-0.04-0.02-0.08-0.02-0.13C71.77,12.27,71.77,12.19,71.76,12.09z"/>
	<path class="st190" d="M59.02,11.31c-0.01,0-0.03,0-0.04,0c-0.14,0-0.14,0-0.19-0.14c-0.08-0.24-0.27-0.36-0.52-0.34
		c-0.2,0.02-0.34,0.13-0.41,0.31c-0.07,0.18-0.01,0.39,0.13,0.51c0.07,0.06,0.16,0.11,0.25,0.14c0.1,0.03,0.19,0.06,0.29,0.1
		c0.08,0.03,0.15,0.05,0.23,0.08c0.39,0.17,0.6,0.45,0.56,0.95c-0.03,0.42-0.33,0.74-0.74,0.83c-0.15,0.04-0.31,0.05-0.46,0.03
		c-0.45-0.06-0.77-0.37-0.85-0.82c-0.05-0.28-0.06-0.26,0.22-0.26c0.04,0,0.07,0,0.11,0c0.04,0,0.07,0.02,0.08,0.06
		c0.01,0.06,0.02,0.11,0.03,0.17c0.09,0.35,0.44,0.55,0.78,0.43c0.19-0.06,0.31-0.19,0.35-0.38c0.04-0.2,0-0.39-0.17-0.53
		c-0.1-0.08-0.21-0.13-0.33-0.18c-0.12-0.04-0.23-0.08-0.35-0.14c-0.1-0.04-0.2-0.1-0.29-0.15c-0.19-0.11-0.28-0.28-0.31-0.49
		c-0.07-0.49,0.19-0.9,0.66-1.03c0.23-0.06,0.47-0.06,0.69,0.03c0.33,0.14,0.49,0.4,0.51,0.74c0,0.04-0.02,0.07-0.06,0.07
		C59.14,11.31,59.08,11.31,59.02,11.31C59.02,11.31,59.02,11.31,59.02,11.31z"/>
	<path class="st190" d="M69.43,10.51c0.04-0.06,0.03-0.13,0.03-0.19c0-0.22,0-0.44,0-0.67c0-0.16,0-0.16,0.17-0.16
		c0.08,0,0.16-0.02,0.25,0.02c0,0.25,0,0.5,0,0.75c0,0.06,0,0.13,0,0.19c0,0.04,0.03,0.06,0.07,0.06c0.09,0,0.18,0,0.26,0
		c0.09,0,0.18,0,0.26,0c0.03,0.5,0.08,0.4-0.33,0.41c-0.3,0.01-0.27-0.03-0.27,0.27c0,0.77,0,1.55,0,2.32c0,0.2,0,0.19-0.19,0.19
		c-0.04,0-0.09,0-0.13,0c-0.09,0-0.1-0.02-0.1-0.1c0-0.06,0-0.11,0-0.17c0-0.74,0-1.49,0-2.23c0-0.06,0-0.11,0-0.17
		c0-0.07-0.02-0.09-0.09-0.09c-0.13,0-0.26,0-0.4,0c-0.12,0-0.13-0.01-0.13-0.12c0-0.33-0.05-0.28,0.29-0.29
		C69.23,10.52,69.33,10.53,69.43,10.51z"/>
	<path class="st190" d="M70.87,13.69c-0.03-0.04-0.03-0.07-0.03-0.11c-0.02-0.49-0.01-2.87,0.02-3.05c0.11-0.03,0.23-0.02,0.35-0.01
		c0.03,0,0.05,0.03,0.05,0.06c0,0.04,0,0.09,0,0.13c0,0.93,0,1.86,0,2.79c0,0.04,0,0.09,0,0.13c0,0.04-0.02,0.07-0.07,0.07
		C71.08,13.7,70.97,13.71,70.87,13.69z"/>
	<path class="st190" d="M71.25,9.83c0,0.09,0,0.17,0,0.26c0,0.03-0.02,0.05-0.05,0.06c-0.01,0-0.01,0-0.02,0
		c-0.39,0-0.33,0.06-0.34-0.3c0-0.05,0-0.1,0-0.15c0-0.21-0.01-0.2,0.2-0.2c0.23,0,0.21-0.02,0.21,0.21
		C71.26,9.74,71.26,9.79,71.25,9.83C71.25,9.83,71.25,9.83,71.25,9.83z"/>
	<path class="st190" d="M0.27,6.84c0.01,0.03,0.04,0.03,0.07,0.03C0.24,6.95,0.13,7,0,7.08c0.03-0.1,0.08-0.12,0.12-0.15
		C0.17,6.9,0.22,6.87,0.27,6.84z"/>
</g>
</svg>
