<?xml version="1.0" encoding="utf-8"?>
<!-- Generator: Adobe Illustrator 25.0.1, SVG Export Plug-In . SVG Version: 6.00 Build 0)  -->
<svg version="1.0" id="Layer_1" xmlns="http://www.w3.org/2000/svg" xmlns:xlink="http://www.w3.org/1999/xlink" x="0px" y="0px"
	 viewBox="0 0 72.28 28.13" style="enable-background:new 0 0 72.28 28.13;" xml:space="preserve">
<style type="text/css">
	.st0{fill:#000104;}
	.st1{fill:#FFFFFF;}
	.st2{fill:#EF493E;}
	.st3{opacity:0.6;fill-rule:evenodd;clip-rule:evenodd;fill:#FBBE43;}
	.st4{opacity:0.6;fill-rule:evenodd;clip-rule:evenodd;fill:#EF930E;}
	.st5{opacity:0.6;fill-rule:evenodd;clip-rule:evenodd;fill:#E67906;}
	.st6{fill:#9F8829;}
	.st7{fill:#3972A6;}
	.st8{fill:url(#SVGID_1_);stroke:#2B53A4;stroke-width:0.5;stroke-miterlimit:10;}
	.st9{fill:none;}
	.st10{fill:url(#SVGID_2_);}
	.st11{fill:url(#SVGID_3_);}
	.st12{fill:#B3B3B3;}
	.st13{fill:url(#SVGID_4_);}
	.st14{fill:url(#SVGID_5_);}
	.st15{fill:url(#SVGID_6_);}
	.st16{fill:#FFFFFF;stroke:#FFFFFF;stroke-width:0.25;stroke-miterlimit:10;}
	.st17{fill:#00001D;}
	.st18{fill:#4DA0C5;}
	.st19{fill:url(#SVGID_7_);}
	.st20{fill:#2E6A85;}
	.st21{fill:none;stroke:#144FA1;stroke-width:0.113;stroke-linejoin:round;stroke-miterlimit:10;}
	.st22{fill:#F27337;}
	.st23{fill:#8EB8D4;}
	.st24{fill:#F38056;}
	.st25{fill:#626365;}
	.st26{fill:#EF6D23;}
	.st27{fill:#284B82;}
	.st28{fill:#242956;}
	.st29{fill:#15142A;}
	.st30{fill:#84C343;}
	.st31{fill:#4CA1C6;}
	.st32{fill:#121617;}
	.st33{fill:#CF8966;}
	.st34{fill:#F37639;}
	.st35{opacity:0.3;fill:url(#SVGID_8_);}
	.st36{fill:#373277;}
	.st37{fill:#E61E25;}
	.st38{fill:#2555A5;}
	.st39{fill:#2E225E;}
	.st40{fill:#F8A425;}
	.st41{fill:#2058A7;}
	.st42{fill:none;stroke:#205AA8;stroke-width:0.156;stroke-miterlimit:10;}
	.st43{fill:#49A3C7;}
	.st44{fill-rule:evenodd;clip-rule:evenodd;}
	.st45{fill-rule:evenodd;clip-rule:evenodd;fill:url(#SVGID_9_);}
	.st46{fill-rule:evenodd;clip-rule:evenodd;fill:url(#SVGID_10_);}
	.st47{fill-rule:evenodd;clip-rule:evenodd;fill:url(#SVGID_11_);}
	.st48{fill:#1D2251;}
	.st49{fill:#2260AC;}
	.st50{fill:url(#SVGID_12_);}
	.st51{fill:#FFFFFC;}
	.st52{fill:#4C9FC5;}
	.st53{fill:#28306D;}
	.st54{fill:#4C9EC5;}
	.st55{fill:#28306E;}
	.st56{fill:#29306F;}
	.st57{fill:#F7F7FB;}
	.st58{fill:url(#SVGID_13_);}
	.st59{fill:url(#SVGID_14_);}
	.st60{fill:url(#SVGID_15_);}
	.st61{fill:url(#SVGID_16_);}
	.st62{fill:#10123C;}
	.st63{fill:#F5842C;}
	.st64{fill:#1F305E;}
	.st65{fill:#87BBD1;}
	.st66{fill:#203160;}
	.st67{fill:#235779;}
	.st68{fill:#359FA1;}
	.st69{fill:#A4D1A4;}
	.st70{fill:#B9DBBC;}
	.st71{fill:#C6DDCA;}
	.st72{fill:#662E14;}
	.st73{fill:#1D79A4;}
	.st74{fill:#C14B28;}
	.st75{fill:url(#SVGID_17_);}
	.st76{fill:url(#SVGID_18_);}
	.st77{fill:url(#SVGID_19_);}
	.st78{fill:url(#SVGID_20_);}
	.st79{fill:url(#SVGID_21_);}
	.st80{fill:url(#SVGID_22_);}
	.st81{fill:url(#SVGID_23_);}
	.st82{fill:url(#SVGID_24_);}
	.st83{fill:url(#SVGID_25_);}
	.st84{fill:url(#SVGID_26_);}
	.st85{fill:url(#SVGID_27_);}
	.st86{fill:url(#SVGID_28_);}
	.st87{fill:url(#SVGID_29_);}
	.st88{fill:url(#SVGID_30_);}
	.st89{fill:#1F164B;}
	.st90{clip-path:url(#SVGID_32_);fill:#253D97;}
	.st91{fill:url(#SVGID_33_);}
	.st92{fill:url(#SVGID_34_);}
	.st93{fill:url(#SVGID_35_);}
	.st94{fill:url(#SVGID_36_);}
	.st95{fill:url(#SVGID_37_);}
	.st96{fill:url(#SVGID_38_);}
	.st97{fill:url(#SVGID_39_);}
	.st98{fill:url(#SVGID_40_);}
	.st99{fill:url(#SVGID_41_);}
	.st100{fill:#443F41;}
	.st101{fill:#28306F;}
	.st102{fill:#71C49D;}
	.st103{fill:#F0C6A7;}
	.st104{fill:#DB8D82;}
	.st105{fill:#EFB7AC;}
	.st106{opacity:0.21;}
	.st107{fill-rule:evenodd;clip-rule:evenodd;fill:#A9196E;}
	.st108{fill-rule:evenodd;clip-rule:evenodd;fill:#FBE42C;}
	.st109{fill:#FBE42C;}
	.st110{fill:#A9196E;}
	.st111{fill:#7FC143;}
	.st112{clip-path:url(#SVGID_45_);fill:#7FC143;}
	.st113{clip-path:url(#SVGID_51_);fill:#7FC143;}
	.st114{fill:#243F8F;}
	.st115{fill:#EF4E2F;}
	.st116{fill:#010007;}
	.st117{fill:#0C0D37;}
	.st118{fill:#FBAF2D;}
	.st119{fill:url(#SVGID_54_);}
	.st120{fill-rule:evenodd;clip-rule:evenodd;fill:#FFFFFF;}
	.st121{fill:#1D4690;}
	.st122{fill:#3AA949;}
	.st123{fill:#F37A24;}
	.st124{fill:none;stroke:#F37A24;stroke-width:3.7145;stroke-miterlimit:10;}
	.st125{fill:#3AA949;stroke:#FFFFFF;stroke-width:1.3104;stroke-miterlimit:10;}
	.st126{fill:#46A2BB;}
	.st127{fill:#7153A0;}
	.st128{fill:#27316C;}
	.st129{fill:#2C65AE;}
	.st130{fill:#452D7A;}
	.st131{fill:#442C7A;}
	.st132{fill:#1A2642;}
	.st133{fill-rule:evenodd;clip-rule:evenodd;fill:#567EB8;}
	.st134{fill-rule:evenodd;clip-rule:evenodd;fill:#6A7EB8;}
	.st135{fill-rule:evenodd;clip-rule:evenodd;fill:#6A7EB9;}
	.st136{fill-rule:evenodd;clip-rule:evenodd;fill:#EE3C2D;}
	.st137{fill-rule:evenodd;clip-rule:evenodd;fill:#EF493F;}
	.st138{fill-rule:evenodd;clip-rule:evenodd;fill:#ED2C24;}
	.st139{fill-rule:evenodd;clip-rule:evenodd;fill:#E9AE28;}
	.st140{fill-rule:evenodd;clip-rule:evenodd;fill:#D69B28;}
	.st141{fill-rule:evenodd;clip-rule:evenodd;fill:#FCB729;}
	.st142{fill-rule:evenodd;clip-rule:evenodd;fill:#409E47;}
	.st143{fill-rule:evenodd;clip-rule:evenodd;fill:#4BB450;}
	.st144{fill-rule:evenodd;clip-rule:evenodd;fill:#338440;}
	.st145{fill:#C09C36;}
	.st146{fill:#1E552A;}
	.st147{clip-path:url(#SVGID_56_);fill:url(#SVGID_57_);}
	.st148{fill:#023A1E;}
	.st149{fill:#FFFFFA;}
	.st150{fill:#0D4F28;}
	.st151{fill:#0E5128;}
	.st152{fill:#0D4E27;}
	.st153{fill:#0E5229;}
	.st154{fill:#0E4823;}
	.st155{fill:#0E4C27;}
	.st156{fill:#F3F6E0;}
	.st157{fill:#0E4F28;}
	.st158{fill:#114823;}
	.st159{fill:#105229;}
	.st160{fill:#0A4A2B;}
	.st161{fill:#134F27;}
	.st162{fill:#165229;}
	.st163{fill:#0D5029;}
	.st164{fill:#0B4E2B;}
	.st165{fill:#105028;}
	.st166{fill:#0A492A;}
	.st167{fill:#E9F3E2;}
	.st168{fill:#144D26;}
	.st169{fill:#185C2F;}
	.st170{fill:#0F5028;}
	.st171{fill:#F3F8EA;}
	.st172{fill:#114D26;}
	.st173{fill:#70A685;}
	.st174{fill:#0D4F2A;}
	.st175{fill:#094A24;}
	.st176{fill:#0F4F27;}
	.st177{fill:#0A4C26;}
	.st178{fill:#A2D29A;}
	.st179{fill:#4D7E44;}
	.st180{fill:#E8F2E1;}
	.st181{fill:#EDF5E5;}
	.st182{fill:#E6F2E7;}
	.st183{fill:#E5F1DC;}
	.st184{fill:#E9F3E3;}
	.st185{fill:#E9F3E5;}
	.st186{fill:#E5F1DB;}
	.st187{fill:#D8ECD7;}
	.st188{fill:#D9EBD4;}
	.st189{fill:#E2F0DE;}
	.st190{fill:#366B4B;}
	.st191{fill:#5D6162;}
	.st192{fill:#212E5F;}
	.st193{fill:#DD1F26;}
	.st194{clip-path:url(#SVGID_59_);}
	.st195{fill:#23396F;}
	.st196{fill:#7FC24E;}
	.st197{clip-path:url(#SVGID_59_);fill:#23396F;}
	.st198{clip-path:url(#SVGID_59_);fill:#7FC24E;}
	.st199{fill:#91CEA4;}
	.st200{fill:#90CEA4;}
	.st201{fill:#C02026;}
	.st202{fill:#362E7E;}
</style>
<g>
	<g>
		<defs>
			<path id="SVGID_55_" d="M2.31,13.97c0,7.16,15.15,12.97,33.83,12.97c18.69,0,33.83-5.81,33.83-12.97C69.97,6.81,54.83,1,36.14,1
				C17.46,1,2.31,6.81,2.31,13.97"/>
		</defs>
		<clipPath id="SVGID_1_">
			<use xlink:href="#SVGID_55_"  style="overflow:visible;"/>
		</clipPath>
		
			<linearGradient id="SVGID_2_" gradientUnits="userSpaceOnUse" x1="-8709.9775" y1="1724.3435" x2="-8709.502" y2="1724.3435" gradientTransform="matrix(0 54.5075 54.5075 0 -93953.4688 474759.9062)">
			<stop  offset="0" style="stop-color:#FFFFFF"/>
			<stop  offset="0.0577" style="stop-color:#F5FAF3"/>
			<stop  offset="0.1619" style="stop-color:#DBEDD3"/>
			<stop  offset="0.3006" style="stop-color:#B0D8A0"/>
			<stop  offset="0.4669" style="stop-color:#75BA5A"/>
			<stop  offset="0.5112" style="stop-color:#64B246"/>
			<stop  offset="0.5606" style="stop-color:#56A242"/>
			<stop  offset="0.683" style="stop-color:#398138"/>
			<stop  offset="0.8001" style="stop-color:#246931"/>
			<stop  offset="0.9086" style="stop-color:#175B2D"/>
			<stop  offset="1" style="stop-color:#13562C"/>
		</linearGradient>
		<rect x="2.31" y="1" style="clip-path:url(#SVGID_1_);fill:url(#SVGID_2_);" width="67.67" height="25.94"/>
	</g>
	<path class="st148" d="M34.8,0h3.05c5.56,0.14,11.13,0.68,16.55,1.92c3.66,0.84,7.27,1.97,10.6,3.67c1.65,0.87,3.25,1.86,4.59,3.14
		c1.4,1.28,2.49,2.97,2.69,4.86v0.86c-0.05,0.46-0.14,0.93-0.28,1.38c-0.45,1.4-1.38,2.6-2.45,3.6c-1.3,1.23-2.84,2.2-4.44,3.04
		c-3.52,1.81-7.35,2.98-11.21,3.84c-5.26,1.16-10.66,1.68-16.04,1.81h-3.05c-4.24-0.07-8.48-0.41-12.67-1.09
		c-4.17-0.69-8.31-1.7-12.23-3.29c-2.55-1.06-5.04-2.35-7.08-4.21c-1.46-1.31-2.64-3.04-2.84-5v-0.87c0.08-0.86,0.34-1.71,0.76-2.48
		c0.98-1.8,2.59-3.18,4.29-4.3c2.09-1.36,4.39-2.38,6.74-3.22c3.99-1.41,8.15-2.3,12.35-2.88C27.67,0.31,31.24,0.06,34.8,0
		 M24.36,1.18c-3.82,0.55-7.61,1.37-11.25,2.64c-3.01,1.08-5.99,2.43-8.43,4.5c-1.31,1.13-2.46,2.54-2.93,4.21
		C1.26,14.18,1.64,16,2.57,17.44c1.19,1.86,3.01,3.23,4.91,4.35c3.25,1.87,6.86,3.06,10.5,3.96c6.21,1.48,12.63,2.06,19.02,2
		c5.14-0.05,10.28-0.53,15.31-1.56c3.62-0.77,7.2-1.8,10.53-3.38c1.86-0.9,3.65-1.96,5.16-3.35c1.16-1.08,2.15-2.4,2.54-3.94
		C70.98,14,70.68,12.35,69.9,11C69,9.44,67.62,8.21,66.15,7.19c-1.28-0.85-2.63-1.62-4.07-2.2l0.12-0.11
		c-0.09-0.04-0.19-0.03-0.29-0.03c-0.01-0.09-0.04-0.17-0.1-0.23c-0.03,0.03-0.08,0.1-0.11,0.14c-0.07-0.12-0.21-0.13-0.34-0.14
		c-0.02,0.04-0.07,0.13-0.09,0.17c-0.09-0.05-0.19-0.1-0.29-0.14c0.06-0.03,0.12-0.05,0.18-0.08c-5.73-2.31-11.91-3.4-18.07-3.92
		C36.86,0.17,30.56,0.31,24.36,1.18"/>
	<path class="st148" d="M28.8,5.63c0.23,0.08,0.57,0.1,0.61,0.39c0.07,0.4-0.33,0.67-0.64,0.85c0.18-0.23,0.5-0.43,0.46-0.75
		c0.01-0.22-0.21-0.31-0.36-0.42L28.8,5.63z"/>
	<path class="st148" d="M29.4,5.66c0.2,0.08,0.47,0.15,0.51,0.39c0.07,0.21-0.09,0.39-0.2,0.55c-0.05,0.01-0.14,0.04-0.19,0.05
		c0.07-0.18,0.14-0.36,0.19-0.54C29.64,5.95,29.51,5.81,29.4,5.66"/>
	<path class="st148" d="M27.91,6.01c0.12-0.04,0.26-0.08,0.38-0.03c0,0.04,0,0.11,0,0.15C28.15,6.24,27.97,6.16,27.91,6.01"/>
	<path class="st148" d="M43.75,11.56c0.05-0.03,0.14-0.08,0.18-0.11c0.57,0.06,1.17,0.31,1.46,0.81c0.26,0.43,0.14,0.97-0.1,1.38
		c-0.69,0.92-1.77,1.51-2.92,1.65c-0.37,0.06-0.75,0.12-1.13,0.07c0.74-0.08,1.48-0.23,2.13-0.59c0.84-0.16,1.63-0.74,1.91-1.54
		c0.11-0.32,0.1-0.69-0.09-0.98c-0.24-0.23-0.5-0.55-0.88-0.44C44.14,11.69,43.95,11.61,43.75,11.56"/>
	<path class="st148" d="M10.64,13.79c0.48,0.01,1.01-0.05,1.37-0.4c0.07,0.03,0.2,0.08,0.27,0.11c-0.27,0.24-0.63,0.32-0.97,0.43
		c-0.26,0.08-0.52-0.04-0.77-0.09c-0.06-0.07-0.18-0.2-0.24-0.27C10.45,13.6,10.54,13.71,10.64,13.79"/>
	<path class="st149" d="M24.36,1.18c6.2-0.87,12.5-1.01,18.74-0.53c6.16,0.52,12.33,1.61,18.07,3.92c-0.06,0.03-0.12,0.05-0.18,0.08
		c0.1,0.04,0.19,0.09,0.29,0.14c0.44,0.36,0.55,1,0.36,1.51c-0.3,0.84-0.95,1.52-1.67,2.04c-0.08-0.02-0.23-0.07-0.31-0.09
		c0.05-0.09,0.09-0.18,0.15-0.27c0.07-0.1,0.15-0.19,0.22-0.29c0.4-0.24,0.59-0.67,0.8-1.05c0.2-0.37,0.27-0.81,0.15-1.21
		c-0.04-0.18-0.25-0.28-0.41-0.17c-0.66,0.37-1.16,0.95-1.68,1.48c-0.89,0.98-1.78,1.97-2.63,3c0.21-0.05,0.42-0.11,0.63-0.16
		C56.92,9.6,57,9.68,57.04,9.72c-0.33,0.09-0.66,0.16-1,0.23c-0.03,0.04-0.09,0.12-0.12,0.17c-1.02,1.51-1.99,3.05-2.88,4.64
		c0.37-0.31,0.78-0.56,1.16-0.86c0.08-0.07,0.16-0.13,0.23-0.2c0.86-0.48,1.6-1.15,2.43-1.68c0.18-0.07,0.38,0,0.58,0.01
		c0.22,0.08,0.45,0.14,0.61,0.31c-0.93,0.79-2.03,1.34-3.05,2c-0.54,0.34-1.11,0.67-1.46,1.21c0.65,0.54,1.36,1.06,2.21,1.24
		c0.56,0.11,1.14-0.04,1.6-0.37c0.43-0.31,0.82-0.66,1.21-1.02c0.16,0,0.31,0,0.47,0C59.02,15.4,59,15.46,59,15.48
		c-0.73,0.83-1.61,1.62-2.7,1.95c-1.16,0.33-2.34-0.17-3.28-0.81c-0.18-0.12-0.36-0.24-0.54-0.36c-0.17,0.44-0.25,0.93-0.64,1.25
		c-0.39,0.16-0.84,0.12-1.24,0c-0.16-0.07-0.1-0.27-0.1-0.39c0.06-0.22,0.12-0.44,0.18-0.66c-0.49,0.41-0.95,0.89-1.58,1.06
		c-0.54,0.19-1.18,0.15-1.61-0.25c-0.17-0.18-0.29-0.4-0.33-0.64c0-0.35,0.07-0.7,0.18-1.03c0.15-0.24,0.26-0.5,0.42-0.74
		c0.29-0.37,0.55-0.78,0.89-1.11c0.06-0.07,0.15-0.13,0.18-0.23c-0.27-0.16-0.57-0.28-0.84-0.44c-0.19-0.12-0.38-0.23-0.59-0.31
		c-0.37,0.57-0.72,1.15-1.14,1.69c-0.09-0.03-0.18-0.05-0.28-0.08c-0.04-0.06-0.12-0.17-0.15-0.23c0.28-0.44,0.5-0.91,0.76-1.37
		c0.09-0.16,0.18-0.32,0.25-0.49c-0.07-0.11-0.13-0.22-0.19-0.34c-0.07-0.34-0.15-0.69-0.09-1.04c0.46-0.03,0.92-0.01,1.38,0.06
		c0.31,0.03,0.68,0,0.93,0.24c0.07,0.13-0.17,0.17-0.22,0.23c-0.01,0.55,0.33,1,0.74,1.34c0.36,0.06,0.64,0.31,0.97,0.44
		c-0.59,1.2-1.69,2.17-1.98,3.51c0.27,0.16,0.59,0.28,0.91,0.19c0.41-0.23,0.74-0.56,1.12-0.84c0.25-0.21,0.55-0.41,0.66-0.73
		c0.3-0.74,0.66-1.46,1.05-2.16c0.17-0.29,0.35-0.58,0.53-0.87c0.29-0.45,0.58-0.9,0.89-1.33c0.32-0.46,0.67-0.9,0.97-1.37
		c0.11-0.17,0.23-0.33,0.36-0.48c0.28-0.24,0.4-0.6,0.67-0.85c0.18-0.17,0.36-0.35,0.51-0.54c0.04-0.05,0.11-0.15,0.15-0.2
		c0.41-0.38,0.8-0.77,1.19-1.16c0.3-0.29,0.64-0.55,0.97-0.82c0.41-0.28,0.85-0.51,1.25-0.81c-0.39-0.24-0.86-0.32-1.28-0.49
		c-0.85-0.3-1.72-0.53-2.6-0.74c-0.44-0.23-0.95-0.27-1.42-0.42c-0.36-0.11-0.73-0.16-1.09-0.25c-0.72-0.26-1.5-0.33-2.26-0.44
		c-0.55-0.12-1.09-0.23-1.64-0.31c-0.5-0.09-1.02-0.08-1.53-0.19c-0.52-0.12-1.09,0.04-1.56-0.24c-0.51-0.04-1.04,0.01-1.54-0.09
		c-0.39-0.05-0.76-0.26-1.16-0.18c-0.31,0.05-0.63,0.11-0.94,0.03c-0.49-0.13-0.99,0.07-1.48,0.05c-1.1-0.02-2.19-0.23-3.29-0.2
		c-0.52-0.04-1.02,0.13-1.54,0.11c-0.33,0-0.65-0.06-0.98-0.09c-0.33-0.03-0.64,0.11-0.96,0.08c-0.76-0.14-1.55-0.08-2.32-0.08
		c-0.64,0.14-1.3,0.03-1.94,0.14c-1.13,0.14-2.28-0.09-3.39,0.2c-0.87,0.2-1.78,0.16-2.65,0.34c-1.18,0.14-2.35,0.37-3.51,0.59
		c-0.4,0.09-0.85,0.05-1.21,0.28c-0.77,0.17-1.58,0.26-2.3,0.58c-1.3,0.26-2.55,0.69-3.8,1.1c-0.97,0.37-1.95,0.69-2.87,1.16
		C9.42,6.07,8.62,6.58,7.77,7C7.13,7.38,6.5,7.78,5.93,8.26c-0.61,0.45-1.2,0.93-1.69,1.49c-0.61,0.72-1.26,1.47-1.55,2.38
		c-0.38,0.87-0.49,1.84-0.33,2.77c0.07,0.52,0.26,1.02,0.49,1.49c0.33,0.68,0.77,1.3,1.28,1.87c0.76,0.8,1.59,1.53,2.52,2.13
		c0.46,0.3,0.92,0.6,1.41,0.87c1.13,0.65,2.32,1.21,3.53,1.69c3.56,1.43,7.32,2.36,11.11,3c5.11,0.85,10.31,1.17,15.48,1.05
		c5.1-0.12,10.2-0.67,15.17-1.79c2.37-0.54,4.7-1.22,6.96-2.1c1.06-0.41,2.1-0.87,3.1-1.4c0.76-0.38,1.49-0.83,2.2-1.29
		c1-0.67,1.93-1.45,2.72-2.36c0.25-0.28,0.48-0.58,0.68-0.9c0.36-0.51,0.6-1.09,0.79-1.68c0.33-1.1,0.24-2.3-0.2-3.36
		c-0.01-0.04-0.04-0.13-0.06-0.17c-0.2-0.48-0.48-0.91-0.79-1.33c-0.38-0.62-0.96-1.08-1.47-1.59c-0.24-0.28-0.56-0.48-0.84-0.72
		c-0.56-0.51-1.27-0.83-1.89-1.25c-0.73-0.41-1.47-0.82-2.25-1.13c0.05-0.26,0.01-0.52-0.06-0.77c-0.07-0.05-0.15-0.08-0.17-0.17
		c1.43,0.58,2.78,1.35,4.07,2.2C67.62,8.21,69,9.44,69.9,11c0.79,1.36,1.08,3.01,0.66,4.52c-0.39,1.54-1.39,2.85-2.54,3.94
		c-1.51,1.39-3.3,2.46-5.16,3.35c-3.33,1.58-6.92,2.62-10.53,3.38c-5.03,1.03-10.18,1.51-15.31,1.56c-6.39,0.06-12.81-0.52-19.02-2
		c-3.64-0.9-7.25-2.09-10.5-3.96c-1.9-1.12-3.73-2.49-4.91-4.35C1.64,16,1.26,14.18,1.74,12.52c0.46-1.67,1.62-3.08,2.93-4.21
		c2.44-2.06,5.42-3.42,8.43-4.5C16.75,2.55,20.54,1.73,24.36,1.18"/>
	<path class="st149" d="M14.15,4.93c0.64-0.46,1.44-0.79,2.24-0.63c0.51,0.05,1,0.34,1.16,0.83c0.18,0.61,0.13,1.27,0.03,1.89
		c-0.47,2.49-1.62,4.78-2.53,7.13c-0.15,0.33-0.14,0.7-0.26,1.04c0.4-0.46,0.79-0.94,1.18-1.41c0.57-0.56,1.07-1.18,1.62-1.76
		c0.34-0.38,0.66-0.79,1.01-1.17c0.37-0.39,0.69-0.83,1.04-1.24c0.41-0.45,0.78-0.93,1.03-1.48c-0.11-0.03-0.22-0.06-0.33-0.09
		c-0.28-0.21-0.6-0.36-0.9-0.54c-0.22-0.2-0.41-0.45-0.48-0.74c0.02-0.26-0.03-0.56,0.19-0.75c0.41-0.53,1.16-0.52,1.77-0.48
		c0.7,0.03,1.33,0.48,1.54,1.14c-0.06,0.33-0.28,0.62-0.44,0.91c0.56,0.04,1.12,0.13,1.68,0.11c0.47,0.04,0.94-0.08,1.4-0.16
		c0.92-0.1,1.79-0.44,2.57-0.92c0.22-0.14,0.46-0.27,0.61-0.49c0-0.04,0-0.11,0-0.15c-0.13-0.04-0.26-0.01-0.38,0.03
		c-0.09,0.02-0.19,0.04-0.28,0.06c-0.06,0-0.19,0-0.26,0c0.01-0.05,0.03-0.14,0.04-0.18c0.47-0.17,0.97-0.21,1.46-0.21
		c0.15,0.11,0.37,0.21,0.36,0.42c0.04,0.32-0.27,0.53-0.46,0.75c0.31-0.18,0.71-0.45,0.64-0.85c-0.04-0.29-0.38-0.31-0.61-0.39
		c-0.06-0.05-0.12-0.11-0.18-0.16c0.19,0.06,0.4,0.1,0.58,0.01c0.27,0.09,0.52,0.21,0.77,0.33c0.04,0.1,0.08,0.21,0.13,0.31
		c-0.07,0.16-0.16,0.33-0.28,0.46l-0.11,0.03c0.11-0.16,0.26-0.34,0.2-0.55c-0.04-0.24-0.31-0.32-0.51-0.39
		c0.11,0.15,0.23,0.29,0.31,0.45c-0.04,0.19-0.12,0.37-0.19,0.54c-0.63,0.43-1.25,0.9-1.97,1.19c-0.85,0.35-1.75,0.6-2.67,0.64
		c-0.94,0.06-1.89,0.1-2.82-0.04c-0.2-0.04-0.4-0.07-0.6-0.11c-0.97,1.57-2.36,2.81-3.61,4.15c-0.67,0.76-1.43,1.45-2.01,2.28
		c-0.22,0.28-0.49,0.53-0.68,0.84c-0.35,0.57-0.8,1.09-1.06,1.71c-0.1,0.02-0.2,0.05-0.3,0.08c-0.07,0.08-0.14,0.16-0.21,0.24
		c-0.05-0.16-0.08-0.32-0.1-0.48c0.33-1.21,0.58-2.44,0.98-3.63c0.16-0.5,0.28-1.02,0.46-1.52c0.18-0.56,0.32-1.14,0.48-1.71
		c0.07-0.28,0.14-0.56,0.2-0.85c0.24-0.87,0.29-1.77,0.37-2.67C16,6.53,16,6.28,15.87,6.06c0.02-0.01,0.07-0.04,0.1-0.05
		c0-0.08,0.01-0.23,0.01-0.31c-0.77,0.27-1.47,0.71-2.08,1.24c-1.37,1.18-2.47,2.67-3.11,4.34c-0.02-0.01-0.05-0.03-0.06-0.03
		c-0.01,0.39-0.22,0.74-0.26,1.13c-0.08,0.42-0.09,0.99,0.35,1.23c0.17,0.02,0.33-0.01,0.49-0.04c0.47-0.1,0.77-0.48,0.96-0.89
		c-0.01,0.26-0.12,0.5-0.26,0.72c-0.36,0.35-0.89,0.41-1.37,0.4c-0.1-0.09-0.2-0.2-0.34-0.22c0.06,0.07,0.18,0.2,0.24,0.27
		c-0.22,0.01-0.44-0.09-0.65,0.02l-0.03-0.04c-0.38-0.52-0.36-1.2-0.31-1.8c0.16-0.47,0.29-0.96,0.48-1.43
		c0.13-0.21,0.23-0.43,0.31-0.66c0.12-0.32,0.36-0.57,0.48-0.89c0.17-0.41,0.43-0.77,0.68-1.14c0.52-0.76,1.03-1.53,1.67-2.21
		C13.5,5.46,13.8,5.16,14.15,4.93 M19.93,6.58c0.27,0.38,0.74,0.55,1.15,0.74c0.14,0.1,0.28-0.03,0.4-0.09
		c0.12-0.16,0.3-0.31,0.31-0.53c-0.05-0.33-0.43-0.38-0.69-0.49C20.7,6.26,20.14,6.15,19.93,6.58"/>
	<path class="st150" d="M16.39,4.3c0.66-0.11,1.49,0.07,1.8,0.72c0.2,0.56,0.17,1.17,0.11,1.74c-0.04,0.25-0.09,0.51-0.14,0.76
		c-0.1,0.41-0.21,0.82-0.33,1.22c-0.26,0.75-0.49,1.52-0.8,2.25c-0.07,0.15-0.13,0.3-0.19,0.46c-0.28,0.61-0.5,1.24-0.76,1.85
		c-0.07,0.15-0.09,0.31-0.1,0.48c-0.39,0.47-0.78,0.94-1.18,1.41c0.12-0.34,0.11-0.71,0.26-1.04c0.91-2.35,2.06-4.64,2.53-7.13
		c0.1-0.62,0.15-1.28-0.03-1.89C17.39,4.64,16.9,4.34,16.39,4.3"/>
	<path class="st51" d="M33.63,4.8c0.39-0.23,0.87-0.29,1.31-0.16c0.44,0.15,0.7,0.59,0.85,0.99c0.04,0.61-0.3,1.18-0.67,1.65
		c-0.43,0.51-0.95,0.97-1.52,1.33c-1,0.68-2.19,1.05-3.38,1.29c-0.18,0.01-0.28,0.18-0.38,0.3c-0.87,1.15-1.74,2.3-2.49,3.53
		c-0.44,0.77-0.95,1.51-1.28,2.33c-0.11,0.23-0.1,0.48-0.11,0.72c0.19,0.11,0.42,0.15,0.63,0.08c0.05-0.01,0.14-0.04,0.18-0.05
		c0.13-0.05,0.26-0.1,0.39-0.15c0.54-0.21,0.91-0.67,1.37-1.01c0.11-0.09,0.24-0.18,0.32-0.31c0.21-0.47,0.45-0.93,0.7-1.39
		c0.28-0.46,0.56-0.93,0.94-1.32c0.43-0.49,1.1-1.08,1.8-0.72c0.07,0.08,0.31,0.13,0.23,0.28c-0.65,0.94-1.46,1.77-1.99,2.78
		c0.61-0.51,1.25-0.99,1.84-1.52c0.2-0.16,0.43-0.3,0.61-0.49c0.42-0.44,0.91-0.81,1.22-1.34c0.27-0.02,0.53-0.01,0.8,0.02
		c0.21,0.09,0.43,0.17,0.64,0.26c-0.75,0.91-1.37,1.92-1.88,2.97c0.54-0.5,1.1-0.98,1.63-1.48c0.74-0.51,1.39-1.15,2.19-1.58
		c0.35-0.24,0.76-0.41,1.2-0.4c0.03,0.03,0.1,0.1,0.13,0.14c0.05,0.11,0.13,0.23,0.09,0.36c-0.22,0.73-0.8,1.27-1.24,1.87
		c-0.55,0.82-1.08,1.66-1.37,2.6c-0.05,0.21-0.07,0.43-0.02,0.64c0.22,0.17,0.53,0.03,0.76-0.06c0.66-0.34,1.23-0.81,1.78-1.29
		c0.17-0.13,0.19-0.34,0.24-0.53c0.21-0.85,0.62-1.67,1.23-2.32c0.89-0.82,2.1-1.56,3.37-1.27c0.2,0.05,0.4,0.14,0.57,0.25
		c0.36,0.28,0.63,0.71,0.54,1.18c-0.12,0.81-0.83,1.36-1.48,1.78c-0.65,0.36-1.4,0.51-2.13,0.59l-0.08,0.01
		c-0.3,0.06-0.71,0-0.89,0.3c-0.15,0.35-0.1,0.75,0,1.11c0.07,0.23,0.17,0.48,0.42,0.56c0.79,0.16,1.6-0.13,2.31-0.45
		c0.12,0.04,0.24,0.09,0.37,0.13c-0.01,0.06-0.02,0.18-0.02,0.24c-0.67,0.31-1.38,0.53-2.11,0.65c-0.44,0.03-0.92,0.11-1.33-0.1
		c-0.45-0.27-0.73-0.76-0.8-1.26c-0.02-0.14-0.04-0.28-0.07-0.43c-0.66,0.59-1.24,1.3-2.07,1.66c-0.69,0.13-1.56,0.09-2.03-0.5
		c-0.3-0.41-0.2-0.95-0.08-1.4c0.34-0.77,0.79-1.48,1.29-2.16c-1.03,1.01-2.03,2.05-3.04,3.08c-0.22,0.22-0.27,0.54-0.27,0.84
		c-0.05,0.02-0.14,0.06-0.18,0.08c-0.36,0.07-0.72,0.07-1.08,0.02c-0.1-0.07-0.2-0.15-0.3-0.22c0.02-0.39,0.06-0.79,0.1-1.18
		c0.07-0.34,0.21-0.66,0.21-1.01c-0.48,0.62-1.14,1.07-1.69,1.62c-0.05,0.16-0.04,0.34-0.13,0.49c-0.52,0.11-1.07,0.12-1.57-0.08
		c0.01-0.05,0.02-0.16,0.02-0.22c0.05-0.23,0.12-0.45,0.2-0.67c-0.56,0.43-1.15,0.85-1.84,1.05c-0.43,0.15-0.93,0.23-1.35-0.01
		c-0.23-0.12-0.37-0.35-0.45-0.59c-0.03-0.17-0.04-0.35-0.06-0.52c-0.98,0.81-2.21,1.29-3.46,1.5c-0.61,0.1-1.35,0.09-1.75-0.46
		c-0.52-0.68-0.49-1.59-0.33-2.38c0.04-0.16,0.1-0.32,0.15-0.48c0.12-0.33,0.28-0.64,0.46-0.94c0.18-0.3,0.41-0.57,0.65-0.83
		c0.84-0.85,2.05-1.49,3.3-1.27c0.43,0.12,0.83,0.39,1.03,0.78c0.27,0.58,0,1.25-0.42,1.68c-0.76,0.85-1.9,1.25-3.02,1.36
		c-0.02,0-0.07,0.01-0.09,0.01c-0.34,0.07-0.83-0.02-0.98,0.37c-0.16,0.5-0.04,1.07,0.26,1.49c0.33,0.25,0.78,0.15,1.16,0.11
		c0.93-0.17,1.79-0.6,2.54-1.15c0.08-0.07,0.17-0.15,0.25-0.22c0.05,0.04,0.09,0.08,0.14,0.12c0.04-0.04,0.11-0.11,0.15-0.15
		c-0.04-0.04-0.08-0.08-0.11-0.12c0.36-0.17,0.37-0.6,0.55-0.9c0.43-0.79,0.89-1.57,1.4-2.32c0.47-0.7,0.96-1.38,1.42-2.09
		c0.51-0.61,0.94-1.28,1.45-1.89c0.35-0.33,0.63-0.72,0.96-1.08c0.3-0.35,0.59-0.7,0.92-1.02c0.36-0.36,0.79-0.66,1.15-1.01
		C32.82,5.22,33.22,5,33.63,4.8 M33.2,6.35c-0.96,0.98-1.85,2.03-2.74,3.07c-0.08,0.09-0.14,0.19-0.2,0.3
		c0.37-0.1,0.76-0.17,1.09-0.37l0.04-0.06c0.17,0.02,0.33-0.03,0.48-0.1c0.68-0.28,1.26-0.73,1.82-1.2
		c0.49-0.39,0.87-0.91,1.15-1.46c0.1-0.33,0.26-0.7,0.09-1.04c0.1-0.14-0.08-0.23-0.16-0.32C34.11,5.35,33.67,5.92,33.2,6.35
		 M20.64,14.91c0.3-0.05,0.68-0.02,0.9-0.24c0.26-0.01,0.43-0.21,0.64-0.33c0.33-0.2,0.59-0.49,0.84-0.77
		c0.1-0.11,0.19-0.24,0.21-0.39c0.07-0.26,0.09-0.59-0.21-0.72C22.15,13.19,21.06,13.81,20.64,14.91 M40.62,14.91
		c0.26-0.01,0.52-0.07,0.78-0.13c0.45-0.19,0.83-0.48,1.2-0.79c0.38-0.34,0.8-0.8,0.68-1.35c-0.09-0.06-0.17-0.13-0.25-0.2
		C42.14,13.18,41.08,13.83,40.62,14.91"/>
	<path class="st151" d="M34.94,4.64c0.47-0.21,1.07,0.01,1.34,0.43c0.17,0.43,0.12,0.9-0.05,1.32c-0.28,0.7-0.8,1.3-1.39,1.78
		c-0.28,0.22-0.58,0.42-0.88,0.61c-0.04,0.02-0.11,0.06-0.14,0.09c-0.08-0.08-0.15-0.17-0.23-0.25c0.57-0.37,1.08-0.82,1.52-1.33
		c0.37-0.47,0.71-1.03,0.67-1.65C35.64,5.23,35.38,4.79,34.94,4.64"/>
	<path class="st152" d="M61.37,4.62c0.12,0.01,0.27,0.02,0.34,0.14c0.03-0.03,0.08-0.1,0.11-0.14c0.06,0.07,0.09,0.15,0.1,0.23
		c0.1,0,0.2-0.01,0.29,0.03l-0.12,0.11c0.02,0.09,0.11,0.12,0.17,0.17c0.07,0.25,0.11,0.51,0.06,0.77C62.02,7.17,61,8.1,59.94,8.78
		c-0.36,0.17-0.71,0.38-1.08,0.54c-0.63,0.25-1.27,0.46-1.94,0.58c-0.35,0.06-0.45,0.44-0.65,0.68c-0.05-0.05-0.15-0.14-0.2-0.18
		c0.04-0.08,0.08-0.16,0.13-0.23c-0.07-0.01-0.21-0.04-0.28-0.06c0.03-0.04,0.09-0.12,0.12-0.17c0.33-0.07,0.67-0.14,1-0.23
		c1.05-0.27,2.06-0.73,2.92-1.38c0.72-0.53,1.37-1.2,1.67-2.04c0.19-0.51,0.09-1.15-0.36-1.51C61.29,4.75,61.34,4.66,61.37,4.62"/>
	<path class="st153" d="M33.2,6.35c0.48-0.43,0.91-1,1.56-1.17c0.08,0.09,0.26,0.17,0.16,0.31c-0.88,0.67-1.58,1.53-2.31,2.34
		c-0.41,0.48-0.86,0.94-1.22,1.46l-0.04,0.06c-0.33,0.2-0.72,0.27-1.09,0.37c0.05-0.11,0.12-0.21,0.2-0.3
		C31.35,8.38,32.24,7.34,33.2,6.35"/>
	<path class="st150" d="M60.56,5.25c0.16-0.11,0.37-0.01,0.41,0.17c-0.58,0.41-1.06,0.94-1.54,1.45c-0.28,0.32-0.58,0.64-0.86,0.96
		c-0.47,0.52-0.94,1.04-1.37,1.6c-0.11,0.05-0.21,0.1-0.31,0.14c-0.21,0.05-0.42,0.1-0.63,0.16c0.84-1.02,1.73-2.01,2.63-3
		C59.4,6.19,59.9,5.61,60.56,5.25"/>
	<path class="st154" d="M29.2,5.47c0.4-0.11,0.77,0.21,1.09,0.4c0.2,0.44-0.11,0.89-0.51,1.08c-1.14,0.86-2.52,1.36-3.94,1.54
		c-0.32,0.02-0.63,0.03-0.95,0c0.92-0.05,1.82-0.3,2.67-0.64c0.72-0.29,1.34-0.75,1.97-1.19c0.05-0.01,0.14-0.04,0.19-0.05
		l0.11-0.03c0.12-0.13,0.21-0.3,0.28-0.46c-0.04-0.1-0.09-0.21-0.13-0.31C29.72,5.68,29.47,5.57,29.2,5.47"/>
	<path class="st151" d="M20.92,5.54c0.71-0.12,1.55,0.08,1.98,0.67c0.08,0.18,0.13,0.37,0.16,0.56c-0.06,0.3-0.19,0.57-0.35,0.82
		c0.33,0.04,0.66,0.07,1,0.1c-0.56,0.02-1.12-0.06-1.68-0.11c0.16-0.3,0.38-0.58,0.44-0.91C22.25,6.02,21.62,5.56,20.92,5.54"/>
	<path class="st150" d="M13.89,6.94c0.61-0.53,1.31-0.97,2.08-1.24c0,0.08-0.01,0.23-0.01,0.31c-0.02,0.01-0.07,0.04-0.1,0.05
		c-0.73,0.34-1.33,0.89-1.9,1.44c-0.37,0.35-0.7,0.74-1,1.14c-0.32,0.39-0.6,0.8-0.83,1.24c-0.17,0.3-0.34,0.6-0.48,0.92
		c-0.07,0.16-0.14,0.31-0.2,0.47c-0.27,0.72-0.52,1.55-0.14,2.29c-0.16,0.03-0.33,0.06-0.49,0.04c-0.44-0.24-0.43-0.81-0.35-1.23
		c0.04-0.39,0.25-0.74,0.26-1.13c0.02,0.01,0.05,0.03,0.06,0.03C11.42,9.61,12.52,8.12,13.89,6.94"/>
	<path class="st150" d="M20.23,15.73c0.15-0.39,0.65-0.3,0.98-0.37c-0.03,0.07-0.06,0.14-0.1,0.21c-0.35,0.53-0.12,1.21,0.18,1.71
		c0.12,0.02,0.24,0.03,0.36,0.05c-0.38,0.04-0.83,0.14-1.16-0.11C20.19,16.8,20.07,16.23,20.23,15.73"/>
	<path class="st155" d="M19.93,6.58c0.21-0.43,0.77-0.32,1.17-0.37c-0.2,0.08-0.39,0.19-0.51,0.37c0.25,0.28,0.58,0.45,0.89,0.65
		c-0.12,0.06-0.26,0.2-0.4,0.09C20.67,7.13,20.21,6.96,19.93,6.58"/>
	<path class="st156" d="M59.61,8.09c0.06-0.04,0.12-0.08,0.19-0.12c-0.05,0.09-0.1,0.18-0.15,0.27c0.08,0.02,0.23,0.07,0.31,0.1
		c-0.86,0.65-1.87,1.11-2.92,1.38C57,9.68,56.93,9.6,56.89,9.57c0.11-0.04,0.21-0.09,0.32-0.14C58.11,9.19,58.89,8.66,59.61,8.09"/>
	<path class="st157" d="M21.46,8.34c0.2,0.03,0.4,0.07,0.6,0.11c-0.38,0.61-0.85,1.17-1.31,1.73c-0.55,0.54-1.06,1.13-1.62,1.66
		c-0.15,0.14-0.28,0.28-0.4,0.44c-0.45,0.43-0.84,0.92-1.28,1.36c-0.43,0.39-0.74,0.89-1.09,1.35c-0.37,0.3-0.57,0.73-0.83,1.12
		c-0.29,0.33-0.46,0.73-0.71,1.08c-0.11,0.17-0.22,0.35-0.33,0.52c-0.01-0.1-0.03-0.2-0.04-0.3c-0.02,0.07-0.06,0.2-0.08,0.27
		c-0.15,0.09-0.24-0.13-0.34-0.2c0.02-0.04,0.06-0.13,0.08-0.17c0.27-0.62,0.71-1.14,1.06-1.71c0.19-0.31,0.46-0.55,0.68-0.84
		c0.58-0.83,1.34-1.52,2.01-2.28C19.11,11.15,20.5,9.91,21.46,8.34"/>
	<path class="st158" d="M30.22,9.91c1.19-0.24,2.38-0.61,3.38-1.29c0.08,0.08,0.15,0.17,0.23,0.25c-0.36,0.22-0.73,0.4-1.12,0.56
		c-0.55,0.2-1.1,0.36-1.67,0.48c-0.15,0.02-0.26,0.1-0.35,0.22C30.56,10,30.39,9.94,30.22,9.91"/>
	<path class="st159" d="M29.83,10.21c0.1-0.12,0.2-0.29,0.38-0.3c0.17,0.03,0.34,0.09,0.46,0.22c-0.37,0.51-0.77,1-1.11,1.53
		c-0.09,0.1-0.18,0.21-0.26,0.31c-0.32,0.44-0.61,0.9-0.91,1.34c-0.32,0.47-0.58,0.98-0.89,1.47c-0.19,0.28-0.34,0.58-0.48,0.89
		c-0.21,0.35-0.27,0.75-0.25,1.15c-0.05,0.01-0.14,0.04-0.18,0.05c-0.15-0.03-0.54,0.05-0.47-0.2c0.03-0.02,0.1-0.06,0.14-0.09
		c-0.07,0.01-0.21,0.04-0.28,0.06c0.04-0.11,0.07-0.23,0.11-0.34c-0.01-0.06-0.02-0.17-0.03-0.23c0.33-0.83,0.84-1.56,1.28-2.33
		C28.09,12.51,28.97,11.36,29.83,10.21"/>
	<path class="st160" d="M53.04,14.75c0.89-1.59,1.85-3.13,2.88-4.64c0.07,0.01,0.21,0.04,0.28,0.06c-0.05,0.08-0.09,0.15-0.13,0.23
		c-0.09,0.25-0.22,0.49-0.43,0.66c-0.03,0.29-0.35,0.37-0.45,0.62c-0.09,0.21-0.26,0.37-0.45,0.5c0.06,0.13,0.15,0.28,0.03,0.41
		c-0.24,0.3-0.39,0.7-0.76,0.88c-0.02,0.04-0.05,0.11-0.06,0.15c0.08,0.09,0.17,0.18,0.25,0.27C53.82,14.18,53.41,14.44,53.04,14.75
		"/>
	<path class="st161" d="M55.64,11.06c0.22-0.17,0.34-0.41,0.43-0.66c0.05,0.05,0.15,0.14,0.2,0.18c-0.15,0.23-0.3,0.47-0.45,0.7
		c-0.43,0.65-0.82,1.32-1.23,1.98c-0.09,0.13-0.14,0.27-0.16,0.42c-0.08,0.07-0.15,0.14-0.23,0.2c-0.08-0.09-0.17-0.18-0.25-0.27
		c0.02-0.04,0.05-0.11,0.06-0.15c0.36-0.18,0.52-0.58,0.76-0.88c0.13-0.12,0.03-0.28-0.03-0.41c0.19-0.13,0.36-0.28,0.45-0.5
		C55.29,11.43,55.61,11.35,55.64,11.06"/>
	<path class="st153" d="M47.93,10.96c0.51-0.03,1.04,0.02,1.53,0.15c0.05,0.24-0.08,0.5,0.01,0.74c0.08,0.32,0.3,0.57,0.53,0.8
		c0.12,0.16,0.31,0.21,0.49,0.25c0.2,0.12,0.39,0.25,0.59,0.37c-0.16,0.44-0.47,0.81-0.73,1.2c-0.44,0.58-0.84,1.19-1.1,1.86
		c-0.09,0.2-0.04,0.42,0.01,0.62c-0.32,0.09-0.64-0.02-0.91-0.19c0.29-1.34,1.39-2.31,1.98-3.51c-0.33-0.14-0.61-0.38-0.97-0.44
		c-0.41-0.35-0.75-0.79-0.74-1.34c0.05-0.07,0.28-0.1,0.22-0.23c-0.24-0.24-0.61-0.21-0.93-0.24L47.93,10.96z"/>
	<path class="st162" d="M38.9,11.55c0.22-0.13,0.49-0.19,0.74-0.09c0.2,0.19,0.15,0.5,0.03,0.72c-0.16,0.29-0.33,0.57-0.54,0.82
		c0-0.46,0.47-0.77,0.41-1.23C39.46,11.5,39.1,11.61,38.9,11.55"/>
	<path class="st150" d="M23.72,11.54c0.77-0.21,1.63,0.24,1.91,0.96c0.03,0.43-0.05,0.88-0.32,1.23c-0.49,0.66-1.22,1.14-2.01,1.41
		c-0.66,0.09-1.32,0.33-1.99,0.22c1.12-0.11,2.26-0.51,3.02-1.36c0.43-0.43,0.7-1.1,0.42-1.68C24.54,11.92,24.14,11.65,23.72,11.54"
		/>
	<path class="st150" d="M35,11.64c0.48-0.11,0.99,0.03,1.4,0.28c-0.36,0.47-0.74,0.95-1.02,1.48c-0.53,0.51-1.09,0.99-1.63,1.48
		c0.51-1.06,1.13-2.06,1.88-2.97C35.43,11.81,35.21,11.72,35,11.64"/>
	<path class="st163" d="M38.9,11.55c0.21,0.06,0.56-0.05,0.64,0.21c0.06,0.46-0.41,0.78-0.41,1.23c-0.4,0.46-0.75,0.96-1.08,1.48
		c-0.34,0.52-0.61,1.07-0.82,1.65c-0.12,0.26-0.11,0.56-0.11,0.84c-0.23,0.09-0.54,0.23-0.76,0.06c-0.06-0.21-0.04-0.43,0.02-0.64
		c0.29-0.94,0.82-1.78,1.37-2.6c0.44-0.6,1.02-1.14,1.24-1.87C39.03,11.78,38.95,11.66,38.9,11.55"/>
	<path class="st150" d="M32.29,11.91c0.21-0.21,0.54-0.12,0.78,0c0.11,0.07,0.3,0.14,0.23,0.3c-0.29,0.42-0.64,0.81-0.93,1.23
		c-0.59,0.53-1.23,1.01-1.84,1.52c0.53-1.01,1.34-1.84,1.99-2.78C32.6,12.04,32.36,11.99,32.29,11.91"/>
	<path class="st164" d="M44.32,11.8c0.38-0.11,0.64,0.21,0.88,0.44c0.18,0.29,0.19,0.66,0.09,0.98c-0.28,0.8-1.07,1.38-1.91,1.54
		c0.66-0.43,1.36-0.97,1.48-1.78C44.94,12.52,44.68,12.09,44.32,11.8"/>
	<path class="st157" d="M57.44,12.01c0.35-0.1,0.69,0.02,1.03,0.1c0.07,0.05,0.14,0.1,0.21,0.15c-0.18,0.24-0.41,0.43-0.62,0.63
		c-0.3,0.13-0.57,0.3-0.84,0.48c-0.83,0.51-1.68,0.99-2.46,1.57c-0.2,0.16-0.41,0.33-0.5,0.57c0.04,0.12,0.16,0.18,0.26,0.26
		c0.54,0.37,1.08,0.77,1.74,0.93c-0.17,0.03-0.34,0.05-0.5,0.05c-0.85-0.18-1.56-0.7-2.21-1.23c0.35-0.54,0.92-0.87,1.46-1.21
		c1.02-0.66,2.12-1.21,3.05-2C57.89,12.15,57.66,12.09,57.44,12.01"/>
	<path class="st165" d="M20.64,14.91c0.42-1.1,1.51-1.72,2.37-2.46c0.3,0.13,0.28,0.46,0.21,0.72c-0.01-0.06-0.03-0.17-0.03-0.23
		c-0.63,0.49-1.31,0.99-1.65,1.73C21.32,14.89,20.94,14.86,20.64,14.91"/>
	<path class="st166" d="M40.62,14.91c0.46-1.09,1.52-1.73,2.4-2.46c0.08,0.07,0.17,0.13,0.25,0.2c-0.34,0.15-0.67,0.36-0.9,0.66
		c-0.33,0.43-0.82,0.71-1.17,1.13c-0.12,0.14,0.07,0.22,0.15,0.31l0.04,0.04C41.14,14.84,40.88,14.9,40.62,14.91"/>
	<path class="st167" d="M12.67,12.9c0.07-0.13,0.15-0.3,0.35-0.26c-0.06,0.35-0.22,0.66-0.32,0.99c-0.43,0.26-0.84,0.58-1.36,0.64
		c-0.51,0.04-1.07-0.04-1.44-0.41c0.21-0.11,0.43-0.01,0.65-0.02c0.25,0.05,0.51,0.17,0.77,0.09c0.34-0.11,0.7-0.19,0.97-0.43
		C12.44,13.32,12.55,13.11,12.67,12.9"/>
	<path class="st168" d="M13.46,12.7c0.06-0.01,0.18-0.03,0.24-0.03c-0.03,0.13-0.06,0.25-0.09,0.38c-0.32,0.88-1.35,1.37-2.28,1.23
		c0.52-0.06,0.93-0.37,1.36-0.64C13.1,13.47,13.25,13.05,13.46,12.7"/>
	<path class="st169" d="M42.37,13.31c0.23-0.3,0.56-0.51,0.9-0.66c-0.14,0.35-0.51,0.53-0.78,0.78c-0.47,0.36-0.81,0.84-1.13,1.31
		c-0.08-0.09-0.27-0.17-0.15-0.31C41.55,14.02,42.05,13.74,42.37,13.31"/>
	<path class="st151" d="M47.4,12.8c0.21,0.08,0.4,0.19,0.59,0.31c-0.37,0.45-0.68,0.93-1,1.4c-0.39,0.51-0.71,1.07-1.21,1.49
		c-0.68,0.72-1.56,1.22-2.49,1.59c-0.68,0.14-1.35,0.43-2.05,0.32c0.73-0.12,1.44-0.33,2.11-0.65c0.86-0.39,1.6-1,2.19-1.72
		c0.24-0.35,0.48-0.7,0.73-1.04C46.68,13.95,47.03,13.37,47.4,12.8"/>
	<path class="st170" d="M33.09,16.79c1.01-1.02,2.01-2.07,3.04-3.08c-0.5,0.68-0.94,1.4-1.29,2.16c-0.33,0.13-0.51,0.43-0.75,0.66
		c-0.14,0.14-0.3,0.27-0.4,0.45c-0.09,0.2-0.09,0.43-0.12,0.65c-0.26,0.1-0.54,0.16-0.81,0.15c-0.03-0.02-0.09-0.06-0.12-0.08
		c0.05-0.02,0.14-0.06,0.18-0.08C32.82,17.33,32.87,17.01,33.09,16.79"/>
	<path class="st171" d="M44.98,15.47c0.3-0.42,0.57-0.86,0.85-1.29c0.04,0.06,0.11,0.17,0.15,0.23c0.09,0.03,0.18,0.05,0.28,0.08
		c-0.25,0.34-0.5,0.69-0.73,1.04c-0.59,0.72-1.32,1.34-2.19,1.72c0-0.06,0.02-0.18,0.02-0.24c-0.12-0.04-0.25-0.09-0.37-0.13
		C43.74,16.55,44.42,16.07,44.98,15.47"/>
	<path class="st159" d="M31.56,15.33c0,0.35-0.14,0.67-0.21,1.01c-0.24,0.17-0.48,0.33-0.66,0.56c-0.09,0.15-0.1,0.33-0.18,0.49
		c-0.22,0.16-0.52,0.09-0.78,0.05c0.09-0.15,0.08-0.33,0.13-0.49C30.42,16.4,31.08,15.95,31.56,15.33"/>
	<path class="st172" d="M59,15.48c0.23-0.12,0.49-0.13,0.74-0.14c-0.31,0.48-0.73,0.87-1.17,1.25c-0.34,0.19-0.64,0.43-0.98,0.62
		c-0.41,0.15-0.85,0.37-1.3,0.23C57.39,17.1,58.26,16.31,59,15.48"/>
	<path class="st165" d="M40.26,15.66c0.18-0.3,0.59-0.24,0.89-0.3c-0.52,0.55-0.3,1.4,0.1,1.96c-0.19,0.02-0.38,0.04-0.57,0.01
		c-0.25-0.09-0.35-0.34-0.42-0.56C40.16,16.41,40.11,16.02,40.26,15.66"/>
	<path class="st173" d="M25.96,16.79c0.01-0.24,0-0.49,0.11-0.72c0.01,0.06,0.02,0.17,0.03,0.23c-0.04,0.11-0.08,0.22-0.11,0.34
		c0.07-0.02,0.21-0.04,0.28-0.06c-0.03,0.02-0.1,0.06-0.14,0.09c-0.08,0.25,0.32,0.17,0.47,0.2C26.37,16.94,26.15,16.9,25.96,16.79"
		/>
	<path class="st152" d="M36.96,17.77c0.83-0.36,1.41-1.07,2.07-1.66c0.02,0.14,0.04,0.28,0.07,0.42c-0.07,0.48-0.55,0.72-0.91,0.97
		C37.84,17.75,37.39,17.95,36.96,17.77"/>
	<path class="st174" d="M52.47,16.27c0.18,0.12,0.36,0.24,0.54,0.36c-0.09,0.33-0.23,0.66-0.51,0.88c-0.2,0.14-0.45,0.08-0.66,0.01
		C52.22,17.2,52.31,16.71,52.47,16.27"/>
	<path class="st175" d="M21.23,17.9c1.26-0.21,2.49-0.69,3.46-1.5c0.01,0.18,0.03,0.35,0.06,0.52c-0.63,0.34-1.29,0.63-1.98,0.82
		C22.27,17.84,21.75,17.99,21.23,17.9"/>
	<path class="st176" d="M26.55,17.51c0.69-0.2,1.28-0.62,1.84-1.05c-0.08,0.22-0.15,0.44-0.2,0.67c-0.51,0.3-1.08,0.47-1.67,0.52
		C26.53,17.62,26.55,17.55,26.55,17.51"/>
	<path class="st177" d="M49.09,17.53c0.64-0.18,1.1-0.66,1.58-1.06c-0.06,0.22-0.12,0.44-0.18,0.66c-0.25,0.47-0.88,0.37-1.3,0.57
		C49.17,17.66,49.12,17.58,49.09,17.53"/>
	<path class="st178" d="M13.49,17.06l0.01,0.09c0.02,0.16,0.05,0.32,0.1,0.48c0.07-0.08,0.14-0.16,0.21-0.24
		c0.1-0.03,0.2-0.05,0.3-0.08c-0.02,0.04-0.06,0.13-0.08,0.17c-0.07,0.15-0.16,0.3-0.24,0.45c-0.1-0.09-0.2-0.16-0.34-0.15
		C13.42,17.55,13.44,17.3,13.49,17.06"/>
	<path class="st179" d="M31.55,17.73c0.36,0.04,0.72,0.05,1.08-0.02c0.03,0.02,0.09,0.06,0.12,0.08c-0.01,0.06-0.04,0.17-0.06,0.23
		C32.3,18.03,31.87,18,31.55,17.73"/>
	<path class="st180" d="M21.88,20.17c0.39-0.49,1.3-0.4,1.5,0.21c0.03,0.08,0.05,0.17,0.07,0.26c-0.06,0.01-0.19,0.03-0.25,0.04
		c-0.02-0.05-0.05-0.16-0.07-0.21c-0.09-0.37-0.58-0.59-0.9-0.34c-0.4,0.32-0.38,0.9-0.33,1.35c0.03,0.39,0.37,0.81,0.81,0.71
		c0.31-0.05,0.46-0.36,0.53-0.62c0.06,0,0.17,0.01,0.23,0.02c-0.04,0.19-0.11,0.38-0.21,0.55c-0.26,0.27-0.65,0.32-1.01,0.23
		c-0.3-0.13-0.48-0.41-0.59-0.7C21.62,21.16,21.57,20.61,21.88,20.17"/>
	<path class="st181" d="M24.5,22.42c0.26-0.87,0.53-1.73,0.8-2.59c0.15,0.02,0.3,0.04,0.46,0.07c0.24,0.83,0.5,1.66,0.74,2.49
		c-0.07,0-0.22-0.01-0.29-0.01c-0.09-0.27-0.15-0.54-0.22-0.81c-0.31-0.02-0.63-0.03-0.95,0c-0.08,0.27-0.15,0.53-0.21,0.8
		C24.74,22.38,24.58,22.4,24.5,22.42 M25.49,20.04c-0.12,0.44-0.28,0.87-0.37,1.32c0.26,0.01,0.52,0,0.78-0.01
		C25.75,20.92,25.69,20.45,25.49,20.04"/>
	<path class="st182" d="M27.79,19.88c0.4-0.02,0.82-0.05,1.22,0.03c0.25,0.04,0.41,0.24,0.51,0.45c0.04,0.37-0.11,0.74-0.49,0.87
		c0.18,0.39,0.37,0.77,0.55,1.15c-0.07,0-0.22-0.01-0.29-0.01c-0.16-0.29-0.29-0.58-0.43-0.88c-0.04-0.08-0.08-0.16-0.13-0.24
		c-0.22,0.01-0.45,0.01-0.67,0.02c-0.01,0.37-0.02,0.75-0.01,1.12c-0.06,0-0.19-0.01-0.25-0.01c0.01-0.78,0-1.55,0-2.33
		C27.79,20.01,27.79,19.92,27.79,19.88 M28.06,20.05c0,0.34-0.01,0.68-0.01,1.01c0.37,0.02,0.76,0.05,1.1-0.13
		c0.12-0.23,0.17-0.53-0.01-0.75C28.82,19.97,28.41,20.02,28.06,20.05"/>
	<path class="st183" d="M31.07,19.86c0.5-0.01,0.99,0,1.49,0c-0.01,0.05-0.02,0.14-0.03,0.18c-0.4,0-0.79-0.02-1.18,0
		c0,0.31,0,0.61-0.01,0.92c0.29,0.02,0.59,0.02,0.89,0.04c-0.01,0.04-0.03,0.1-0.04,0.14c-0.28,0.05-0.56,0.04-0.84,0.04
		c0,0.34,0,0.67-0.01,1.01c0.43,0.02,0.86-0.02,1.29,0.04c0.01,0.04,0.04,0.11,0.06,0.15c-0.53,0.03-1.07,0-1.6,0.03
		c0-0.04,0-0.11,0-0.14C31.09,21.46,31.09,20.66,31.07,19.86"/>
	<path class="st184" d="M35.72,19.85c0.07,0.01,0.22,0.02,0.29,0.03c0.11,0.37,0.24,0.73,0.37,1.09c0.09,0.3,0.19,0.6,0.3,0.89
		c0.17-0.33,0.26-0.7,0.39-1.05c0.11-0.31,0.21-0.62,0.31-0.94c0.1,0,0.21-0.01,0.31-0.01c-0.14,0.39-0.28,0.79-0.41,1.19
		c-0.15,0.45-0.32,0.9-0.46,1.36c-0.07-0.01-0.2-0.04-0.26-0.05c-0.15-0.42-0.29-0.85-0.44-1.28c-0.12-0.36-0.24-0.71-0.35-1.07
		C35.76,19.98,35.73,19.9,35.72,19.85"/>
	<path class="st185" d="M39.29,19.87c0.15,0,0.31,0,0.46,0c0.03,0.12,0.07,0.25,0.11,0.37c0.22,0.71,0.44,1.41,0.64,2.12
		c-0.05,0.01-0.15,0.03-0.2,0.04l-0.09-0.04c-0.08-0.27-0.14-0.54-0.22-0.81c-0.31-0.01-0.63-0.01-0.94,0
		c-0.08,0.27-0.15,0.55-0.22,0.83c-0.07,0-0.21,0-0.28-0.01c0.1-0.48,0.26-0.94,0.41-1.41c0.04-0.13,0.08-0.26,0.12-0.39
		C39.15,20.34,39.23,20.11,39.29,19.87 M39.49,20.03c-0.08,0.45-0.29,0.87-0.35,1.33c0.26,0.01,0.52,0,0.78-0.02
		C39.75,20.91,39.7,20.45,39.49,20.03"/>
	<path class="st186" d="M41.92,19.87c0.06,0,0.2-0.01,0.26-0.01c0,0.13,0,0.25,0,0.38c0,0.48-0.01,0.96,0,1.44c0,0.18,0,0.35,0,0.53
		c0.39,0,0.77,0,1.16-0.01c0,0.05-0.01,0.16-0.01,0.21c-0.47-0.01-0.93,0-1.4-0.01C41.93,21.55,41.92,20.71,41.92,19.87"/>
	<path class="st187" d="M44.5,19.88c0.07-0.01,0.2-0.03,0.27-0.04c0.03,0.67-0.04,1.34,0.03,2c0.18,0.43,0.82,0.46,1.14,0.17
		c0.15-0.26,0.12-0.56,0.12-0.85c-0.01-0.44,0-0.88-0.02-1.32c0.07,0,0.21,0.01,0.29,0.01c-0.02,0.62,0.03,1.25-0.03,1.87
		c-0.02,0.33-0.3,0.56-0.61,0.66c-0.26,0.01-0.54,0.04-0.78-0.08c-0.3-0.12-0.42-0.46-0.42-0.75c-0.01-0.51,0-1.03,0-1.54
		C44.5,19.98,44.5,19.92,44.5,19.88"/>
	<path class="st188" d="M47.99,19.84c0.49,0.02,0.97,0,1.46,0.01c0.01,0.05,0.03,0.14,0.05,0.19c-0.41,0-0.82,0-1.24,0.01
		c0,0.3,0,0.61-0.01,0.91c0.3,0.07,0.75-0.12,0.95,0.17c-0.31,0.03-0.63,0.04-0.94,0.05c0.01,0.34,0,0.67,0,1.01
		c0.06,0,0.17,0,0.23,0.01c0.35,0.01,0.71-0.02,1.06,0.01c0.01,0.04,0.04,0.13,0.05,0.17c-0.54,0.02-1.07,0-1.6,0.01
		C48.01,21.54,48,20.69,47.99,19.84"/>
	<path class="st189" d="M50.83,20.85c-0.2-0.36-0.05-0.89,0.4-0.96c0.43-0.14,0.89,0.1,1.04,0.51c-0.01,0.02-0.02,0.05-0.02,0.07
		c-0.05,0.01-0.15,0.02-0.2,0.03c-0.1-0.15-0.18-0.35-0.37-0.41c-0.19-0.09-0.39,0-0.57,0.03c-0.07,0.18-0.18,0.38-0.04,0.56
		c0.34,0.3,0.88,0.29,1.18,0.65c0.18,0.26,0.12,0.62-0.05,0.87c-0.26,0.19-0.58,0.23-0.89,0.21l-0.02-0.01
		c-0.25-0.11-0.48-0.28-0.57-0.54c-0.1-0.13,0.11-0.16,0.19-0.21c0.11,0.34,0.41,0.63,0.8,0.57c0.43-0.05,0.55-0.67,0.17-0.86
		C51.52,21.19,51.12,21.11,50.83,20.85"/>
</g>
</svg>
