<?xml version="1.0" encoding="utf-8"?>
<!-- Generator: Adobe Illustrator 25.0.1, SVG Export Plug-In . SVG Version: 6.00 Build 0)  -->
<svg version="1.0" id="Layer_1" xmlns="http://www.w3.org/2000/svg" xmlns:xlink="http://www.w3.org/1999/xlink" x="0px" y="0px"
	 viewBox="0 0 35.26 25.55" style="enable-background:new 0 0 35.26 25.55;" xml:space="preserve">
<style type="text/css">
	.st0{fill:#000104;}
	.st1{fill:#FFFFFF;}
	.st2{fill:#EF493E;}
	.st3{opacity:0.6;fill-rule:evenodd;clip-rule:evenodd;fill:#FBBE43;}
	.st4{opacity:0.6;fill-rule:evenodd;clip-rule:evenodd;fill:#EF930E;}
	.st5{opacity:0.6;fill-rule:evenodd;clip-rule:evenodd;fill:#E67906;}
	.st6{fill:#9F8829;}
	.st7{fill:#3972A6;}
	.st8{fill:url(#SVGID_1_);stroke:#2B53A4;stroke-width:0.5;stroke-miterlimit:10;}
	.st9{fill:none;}
	.st10{fill:url(#SVGID_2_);}
	.st11{fill:url(#SVGID_3_);}
	.st12{fill:#B3B3B3;}
	.st13{fill:url(#SVGID_4_);}
	.st14{fill:url(#SVGID_5_);}
	.st15{fill:url(#SVGID_6_);}
	.st16{fill:#FFFFFF;stroke:#FFFFFF;stroke-width:0.25;stroke-miterlimit:10;}
	.st17{fill:#00001D;}
	.st18{fill:#4DA0C5;}
	.st19{fill:url(#SVGID_7_);}
	.st20{fill:#2E6A85;}
	.st21{fill:none;stroke:#144FA1;stroke-width:0.113;stroke-linejoin:round;stroke-miterlimit:10;}
	.st22{fill:#F27337;}
	.st23{fill:#8EB8D4;}
	.st24{fill:#F38056;}
	.st25{fill:#626365;}
	.st26{fill:#EF6D23;}
	.st27{fill:#284B82;}
	.st28{fill:#242956;}
	.st29{fill:#15142A;}
	.st30{fill:#84C343;}
	.st31{fill:#4CA1C6;}
	.st32{fill:#121617;}
	.st33{fill:#CF8966;}
	.st34{fill:#F37639;}
	.st35{opacity:0.3;fill:url(#SVGID_8_);}
	.st36{fill:#373277;}
	.st37{fill:#E61E25;}
	.st38{fill:#2555A5;}
	.st39{fill:#2E225E;}
	.st40{fill:#F8A425;}
	.st41{fill:#2058A7;}
	.st42{fill:none;stroke:#205AA8;stroke-width:0.156;stroke-miterlimit:10;}
	.st43{fill:#49A3C7;}
	.st44{fill-rule:evenodd;clip-rule:evenodd;}
	.st45{fill-rule:evenodd;clip-rule:evenodd;fill:url(#SVGID_9_);}
	.st46{fill-rule:evenodd;clip-rule:evenodd;fill:url(#SVGID_10_);}
	.st47{fill-rule:evenodd;clip-rule:evenodd;fill:url(#SVGID_11_);}
	.st48{fill:#1D2251;}
	.st49{fill:#2260AC;}
	.st50{fill:url(#SVGID_12_);}
	.st51{fill:#FFFFFC;}
	.st52{fill:#4C9FC5;}
	.st53{fill:#28306D;}
	.st54{fill:#4C9EC5;}
	.st55{fill:#28306E;}
	.st56{fill:#29306F;}
	.st57{fill:#F7F7FB;}
	.st58{fill:url(#SVGID_13_);}
	.st59{fill:url(#SVGID_14_);}
	.st60{fill:url(#SVGID_15_);}
	.st61{fill:url(#SVGID_16_);}
	.st62{fill:#10123C;}
	.st63{fill:#F5842C;}
	.st64{fill:#1F305E;}
	.st65{fill:#87BBD1;}
	.st66{fill:#203160;}
	.st67{fill:#235779;}
	.st68{fill:#359FA1;}
	.st69{fill:#A4D1A4;}
	.st70{fill:#B9DBBC;}
	.st71{fill:#C6DDCA;}
	.st72{fill:#662E14;}
	.st73{fill:#1D79A4;}
	.st74{fill:#C14B28;}
	.st75{fill:url(#SVGID_17_);}
	.st76{fill:url(#SVGID_18_);}
	.st77{fill:url(#SVGID_19_);}
	.st78{fill:url(#SVGID_20_);}
	.st79{fill:url(#SVGID_21_);}
	.st80{fill:url(#SVGID_22_);}
	.st81{fill:url(#SVGID_23_);}
	.st82{fill:url(#SVGID_24_);}
	.st83{fill:url(#SVGID_25_);}
	.st84{fill:url(#SVGID_26_);}
	.st85{fill:url(#SVGID_27_);}
	.st86{fill:url(#SVGID_28_);}
	.st87{fill:url(#SVGID_29_);}
	.st88{fill:url(#SVGID_30_);}
	.st89{fill:#1F164B;}
	.st90{clip-path:url(#SVGID_32_);fill:#253D97;}
	.st91{fill:url(#SVGID_33_);}
	.st92{fill:url(#SVGID_34_);}
	.st93{fill:url(#SVGID_35_);}
	.st94{fill:url(#SVGID_36_);}
	.st95{fill:url(#SVGID_37_);}
	.st96{fill:url(#SVGID_38_);}
	.st97{fill:url(#SVGID_39_);}
	.st98{fill:url(#SVGID_40_);}
	.st99{fill:url(#SVGID_41_);}
	.st100{fill:#443F41;}
	.st101{fill:#28306F;}
	.st102{fill:#71C49D;}
	.st103{fill:#F0C6A7;}
	.st104{fill:#DB8D82;}
	.st105{fill:#EFB7AC;}
	.st106{opacity:0.21;}
	.st107{fill-rule:evenodd;clip-rule:evenodd;fill:#A9196E;}
	.st108{fill-rule:evenodd;clip-rule:evenodd;fill:#FBE42C;}
	.st109{fill:#FBE42C;}
	.st110{fill:#A9196E;}
	.st111{fill:#7FC143;}
	.st112{clip-path:url(#SVGID_45_);fill:#7FC143;}
	.st113{clip-path:url(#SVGID_51_);fill:#7FC143;}
	.st114{fill:#243F8F;}
	.st115{fill:#EF4E2F;}
	.st116{fill:#010007;}
	.st117{fill:#0C0D37;}
	.st118{fill:#FBAF2D;}
	.st119{fill:url(#SVGID_54_);}
	.st120{fill-rule:evenodd;clip-rule:evenodd;fill:#FFFFFF;}
	.st121{fill:#1D4690;}
	.st122{fill:#3AA949;}
	.st123{fill:#F37A24;}
	.st124{fill:none;stroke:#F37A24;stroke-width:3.7145;stroke-miterlimit:10;}
	.st125{fill:#3AA949;stroke:#FFFFFF;stroke-width:1.3104;stroke-miterlimit:10;}
	.st126{fill:#46A2BB;}
	.st127{fill:#7153A0;}
	.st128{fill:#27316C;}
	.st129{fill:#2C65AE;}
	.st130{fill:#452D7A;}
	.st131{fill:#442C7A;}
	.st132{fill:#1A2642;}
	.st133{fill-rule:evenodd;clip-rule:evenodd;fill:#567EB8;}
	.st134{fill-rule:evenodd;clip-rule:evenodd;fill:#6A7EB8;}
	.st135{fill-rule:evenodd;clip-rule:evenodd;fill:#6A7EB9;}
	.st136{fill-rule:evenodd;clip-rule:evenodd;fill:#EE3C2D;}
	.st137{fill-rule:evenodd;clip-rule:evenodd;fill:#EF493F;}
	.st138{fill-rule:evenodd;clip-rule:evenodd;fill:#ED2C24;}
	.st139{fill-rule:evenodd;clip-rule:evenodd;fill:#E9AE28;}
	.st140{fill-rule:evenodd;clip-rule:evenodd;fill:#D69B28;}
	.st141{fill-rule:evenodd;clip-rule:evenodd;fill:#FCB729;}
	.st142{fill-rule:evenodd;clip-rule:evenodd;fill:#409E47;}
	.st143{fill-rule:evenodd;clip-rule:evenodd;fill:#4BB450;}
	.st144{fill-rule:evenodd;clip-rule:evenodd;fill:#338440;}
	.st145{fill:#C09C36;}
	.st146{fill:#1E552A;}
	.st147{clip-path:url(#SVGID_56_);fill:url(#SVGID_57_);}
	.st148{fill:#023A1E;}
	.st149{fill:#FFFFFA;}
	.st150{fill:#0D4F28;}
	.st151{fill:#0E5128;}
	.st152{fill:#0D4E27;}
	.st153{fill:#0E5229;}
	.st154{fill:#0E4823;}
	.st155{fill:#0E4C27;}
	.st156{fill:#F3F6E0;}
	.st157{fill:#0E4F28;}
	.st158{fill:#114823;}
	.st159{fill:#105229;}
	.st160{fill:#0A4A2B;}
	.st161{fill:#134F27;}
	.st162{fill:#165229;}
	.st163{fill:#0D5029;}
	.st164{fill:#0B4E2B;}
	.st165{fill:#105028;}
	.st166{fill:#0A492A;}
	.st167{fill:#E9F3E2;}
	.st168{fill:#144D26;}
	.st169{fill:#185C2F;}
	.st170{fill:#0F5028;}
	.st171{fill:#F3F8EA;}
	.st172{fill:#114D26;}
	.st173{fill:#70A685;}
	.st174{fill:#0D4F2A;}
	.st175{fill:#094A24;}
	.st176{fill:#0F4F27;}
	.st177{fill:#0A4C26;}
	.st178{fill:#A2D29A;}
	.st179{fill:#4D7E44;}
	.st180{fill:#E8F2E1;}
	.st181{fill:#EDF5E5;}
	.st182{fill:#E6F2E7;}
	.st183{fill:#E5F1DC;}
	.st184{fill:#E9F3E3;}
	.st185{fill:#E9F3E5;}
	.st186{fill:#E5F1DB;}
	.st187{fill:#D8ECD7;}
	.st188{fill:#D9EBD4;}
	.st189{fill:#E2F0DE;}
	.st190{fill:#366B4B;}
	.st191{fill:#5D6162;}
	.st192{fill:#212E5F;}
	.st193{fill:#DD1F26;}
	.st194{clip-path:url(#SVGID_59_);}
	.st195{fill:#23396F;}
	.st196{fill:#7FC24E;}
	.st197{clip-path:url(#SVGID_59_);fill:#23396F;}
	.st198{clip-path:url(#SVGID_59_);fill:#7FC24E;}
	.st199{fill:#91CEA4;}
	.st200{fill:#90CEA4;}
	.st201{fill:#C02026;}
	.st202{fill:#362E7E;}
</style>
<g>
	<path class="st201" d="M19.43,6.15v4.54L8.45,0h4.66C16.6,0,19.43,2.75,19.43,6.15"/>
	<path class="st201" d="M26.81,19.58V6.29c0,0-0.3-4.49-6.46-6.29c0,0,2.69,3.9,2.3,6.12v6.45c0,1.18,0.31,2.35,0.92,3.38
		C24.36,17.3,25.58,19.05,26.81,19.58"/>
	<path class="st201" d="M12.14,13.43V8.89l10.98,10.69h-4.66C14.97,19.58,12.14,16.83,12.14,13.43"/>
	<path class="st201" d="M4.76,0v13.29c0,0,0.3,4.49,6.46,6.29c0,0-2.69-3.9-2.3-6.12V7.01c0-1.18-0.31-2.35-0.92-3.38
		C7.21,2.28,5.99,0.53,4.76,0"/>
	<g>
		<path class="st201" d="M0.52,25.03v0.43H0v-0.06h0.12c0.11,0,0.2-0.04,0.27-0.11c0.08-0.07,0.11-0.16,0.11-0.26H0.52z M0.51,21.1
			l0.28,0.34l0.01,4.03H0.5v-3.61c0-0.21-0.02-0.46-0.06-0.76H0.51z M0.51,21.1l3.65,3.79l0.06,0.67l-3.65-3.78L0.51,21.1z
			 M0.79,25.03c0,0.1,0.04,0.19,0.11,0.26c0.08,0.07,0.17,0.11,0.27,0.11h0.12v0.06H0.77v-0.43H0.79z M3.42,21.19h0.52v0.43H3.93
			c0-0.11-0.04-0.19-0.12-0.27c-0.07-0.07-0.17-0.11-0.27-0.11H3.42V21.19z M4.21,21.19v3.58c0,0.13,0,0.26,0.01,0.38
			c0.01,0.12,0.02,0.26,0.04,0.41H4.21l-0.28-0.32v-4.04H4.21z M4.72,21.19v0.06H4.6c-0.1,0-0.2,0.04-0.27,0.11
			c-0.08,0.07-0.12,0.16-0.12,0.27H4.19v-0.43H4.72z"/>
		<path class="st201" d="M5.8,25.02c-0.05,0.12-0.04,0.22,0.02,0.28c0.06,0.07,0.13,0.1,0.2,0.1h0.05v0.06h-1.2v-0.06h0.05
			c0.09,0,0.18-0.03,0.27-0.09c0.09-0.06,0.17-0.16,0.24-0.3H5.8z M7.01,21.71l0.04,0.42l-1.44,3.31h-0.4l1.49-3.11
			c0.05-0.1,0.08-0.18,0.12-0.25c0.03-0.07,0.06-0.14,0.08-0.21c0.02-0.07,0.04-0.12,0.04-0.16H7.01z M7.75,24.23H6.09v-0.18h1.66
			V24.23z M7.01,21.71l1.73,3.72h-0.5l-1.34-3.17L7.01,21.71z M8.07,25.02h0.48c0.06,0.14,0.14,0.24,0.23,0.3
			c0.09,0.06,0.18,0.09,0.26,0.09H9.1v0.06H7.81v-0.06h0.05c0.07,0,0.14-0.03,0.2-0.1C8.11,25.24,8.12,25.14,8.07,25.02"/>
		<path class="st201" d="M10.54,21.71c0.12,0,0.22,0,0.31,0.01c0.09,0.01,0.16,0.02,0.23,0.03c0.07,0.01,0.12,0.02,0.17,0.04
			c0.05,0.01,0.09,0.03,0.13,0.04l0.01,0.61H11.3c0-0.17-0.06-0.3-0.18-0.39c-0.12-0.1-0.3-0.14-0.55-0.14
			c-0.21,0-0.39,0.06-0.54,0.17c-0.15,0.11-0.22,0.25-0.22,0.41c0,0.05,0.01,0.11,0.02,0.16c0.01,0.05,0.04,0.11,0.08,0.16
			c0.04,0.05,0.08,0.11,0.15,0.16l1.27,0.95c0.1,0.08,0.17,0.18,0.21,0.3c0.05,0.12,0.07,0.24,0.08,0.36c0,0.18-0.04,0.34-0.14,0.5
			c-0.1,0.15-0.24,0.27-0.41,0.36c-0.17,0.09-0.36,0.13-0.56,0.13c-0.12,0-0.25-0.01-0.39-0.03c-0.14-0.02-0.27-0.05-0.39-0.09
			c-0.12-0.04-0.22-0.1-0.3-0.16c-0.01-0.06-0.02-0.13-0.02-0.22c0-0.09,0.01-0.18,0.02-0.28c0.01-0.1,0.03-0.19,0.06-0.26h0.07
			c-0.02,0.18,0.01,0.34,0.08,0.47c0.07,0.13,0.18,0.23,0.31,0.3c0.14,0.07,0.3,0.1,0.48,0.1c0.26-0.01,0.46-0.07,0.61-0.19
			c0.15-0.12,0.22-0.28,0.22-0.48c0-0.1-0.02-0.19-0.05-0.27c-0.04-0.08-0.09-0.15-0.17-0.22L9.8,23.27
			c-0.12-0.1-0.2-0.21-0.24-0.32c-0.04-0.12-0.06-0.23-0.06-0.34c0-0.17,0.05-0.32,0.14-0.45c0.09-0.13,0.22-0.24,0.37-0.32
			C10.17,21.75,10.34,21.71,10.54,21.71 M11.37,21.77l0.01,0.11h-0.45v-0.11H11.37z"/>
		<path class="st201" d="M14.42,21.63H14.4c0-0.11-0.04-0.2-0.12-0.27c-0.08-0.08-0.17-0.11-0.28-0.11h-0.07l-0.01-0.06h0.5V21.63z
			 M14.42,25.02v0.45h-0.5v-0.06H14c0.11,0,0.2-0.04,0.28-0.11c0.08-0.08,0.12-0.17,0.12-0.27H14.42z M14.81,25.47H14.4v-4.28h0.41
			V25.47z M15.55,21.19c0.27,0,0.5,0.05,0.69,0.14c0.19,0.09,0.34,0.23,0.45,0.41c0.1,0.18,0.16,0.39,0.16,0.63
			c0,0.19-0.04,0.36-0.11,0.5c-0.08,0.15-0.18,0.27-0.3,0.38c-0.13,0.1-0.27,0.18-0.43,0.23c-0.16,0.05-0.32,0.07-0.49,0.06
			c-0.17-0.01-0.33-0.06-0.49-0.14v-0.06c0.14,0.02,0.27,0.03,0.38,0.02c0.11-0.01,0.23-0.03,0.35-0.07
			c0.12-0.04,0.24-0.11,0.35-0.2c0.11-0.1,0.19-0.23,0.24-0.41c0.01-0.05,0.02-0.1,0.03-0.17c0.01-0.07,0.01-0.13,0.01-0.2
			c0-0.28-0.08-0.51-0.23-0.68c-0.15-0.17-0.35-0.26-0.62-0.26h-0.74c-0.02-0.06-0.04-0.12-0.06-0.18H15.55z M14.79,25.02h0.02
			c0,0.11,0.04,0.2,0.12,0.27c0.08,0.08,0.17,0.11,0.28,0.11h0.08v0.06h-0.5V25.02z"/>
		<path class="st201" d="M17.9,22.19h-0.02c0-0.09-0.04-0.17-0.11-0.24c-0.07-0.06-0.15-0.09-0.25-0.09h-0.08V21.8h0.46V22.19z
			 M17.9,25.08v0.39h-0.46v-0.06h0.08c0.1,0,0.19-0.03,0.25-0.1c0.07-0.07,0.11-0.14,0.11-0.23H17.9z M18.28,25.47h-0.4V21.8h0.4
			V25.47z M20.66,23.75h-2.45v-0.18h2.45V23.75z M18.27,22.19V21.8h0.46v0.06h-0.07c-0.1,0-0.19,0.03-0.26,0.09
			c-0.07,0.06-0.11,0.14-0.11,0.24H18.27z M18.27,25.08h0.02c0,0.09,0.04,0.17,0.11,0.23c0.07,0.06,0.16,0.1,0.26,0.1h0.07v0.06
			h-0.46V25.08z M20.62,22.19H20.6c0-0.09-0.04-0.17-0.11-0.24c-0.07-0.06-0.15-0.09-0.25-0.09h-0.08V21.8h0.46V22.19z M20.62,25.08
			v0.39h-0.46v-0.06h0.08c0.1,0,0.19-0.03,0.25-0.1c0.07-0.07,0.11-0.14,0.11-0.23H20.62z M21,25.47h-0.4V21.8H21V25.47z
			 M20.99,22.19V21.8h0.46v0.06h-0.08c-0.1,0-0.19,0.03-0.25,0.09c-0.07,0.06-0.11,0.14-0.11,0.24H20.99z M20.99,25.08H21
			c0,0.09,0.04,0.17,0.11,0.23c0.07,0.06,0.15,0.1,0.25,0.1h0.08v0.06h-0.46V25.08z"/>
		<path class="st201" d="M22.68,25.02c-0.05,0.12-0.04,0.22,0.02,0.28c0.06,0.07,0.13,0.1,0.2,0.1h0.05v0.06h-1.2v-0.06h0.05
			c0.09,0,0.18-0.03,0.27-0.09c0.09-0.06,0.17-0.16,0.24-0.3H22.68z M23.89,21.71l0.04,0.42l-1.44,3.31h-0.4l1.49-3.11
			c0.05-0.1,0.08-0.18,0.12-0.25c0.03-0.07,0.06-0.14,0.08-0.21c0.03-0.07,0.04-0.12,0.04-0.16H23.89z M24.63,24.23h-1.66v-0.18
			h1.66V24.23z M23.89,21.71l1.73,3.72h-0.5l-1.34-3.17L23.89,21.71z M24.95,25.02h0.48c0.06,0.14,0.14,0.24,0.23,0.3
			c0.09,0.06,0.18,0.09,0.26,0.09h0.05v0.06h-1.29v-0.06h0.05c0.07,0,0.14-0.03,0.19-0.1C24.99,25.24,25,25.14,24.95,25.02"/>
		<path class="st201" d="M26.75,22.19h-0.01c0-0.09-0.04-0.17-0.11-0.23c-0.07-0.06-0.15-0.09-0.25-0.09h-0.09V21.8h0.53
			L26.75,22.19z M26.75,25.08l0.08,0.39h-0.53v-0.06h0.09c0.1,0,0.18-0.03,0.25-0.1c0.07-0.06,0.1-0.14,0.11-0.23H26.75z
			 M27.13,25.47h-0.4V21.8h0.4V25.47z M27.11,25.08h0.02c0,0.09,0.04,0.17,0.11,0.23c0.07,0.07,0.15,0.1,0.25,0.1h0.08l0.01,0.06
			h-0.54L27.11,25.08z M27.87,21.8c0.2,0,0.37,0.02,0.53,0.07c0.16,0.05,0.29,0.11,0.4,0.2c0.11,0.09,0.2,0.19,0.25,0.31
			c0.06,0.12,0.09,0.26,0.09,0.42c0,0.17-0.04,0.33-0.13,0.48c-0.08,0.15-0.2,0.27-0.35,0.36c-0.15,0.09-0.32,0.15-0.51,0.17
			c0.07,0.03,0.15,0.09,0.25,0.19c0.09,0.1,0.18,0.19,0.24,0.29c0.11,0.14,0.21,0.27,0.29,0.37c0.09,0.1,0.17,0.2,0.25,0.3
			c0.09,0.09,0.17,0.18,0.24,0.24s0.15,0.12,0.24,0.16c0.09,0.04,0.19,0.06,0.3,0.06v0.06h-0.2c-0.23,0-0.42-0.03-0.57-0.09
			c-0.15-0.06-0.27-0.13-0.36-0.21c-0.09-0.08-0.17-0.16-0.24-0.24c-0.02-0.02-0.06-0.07-0.12-0.16c-0.06-0.08-0.13-0.17-0.2-0.27
			c-0.07-0.1-0.14-0.19-0.19-0.27c-0.06-0.08-0.09-0.13-0.11-0.14c-0.08-0.11-0.18-0.2-0.29-0.28c-0.11-0.08-0.22-0.13-0.35-0.13
			v-0.06c0.13,0,0.25,0,0.36,0c0.12,0,0.23-0.01,0.35-0.03c0.12-0.01,0.23-0.06,0.33-0.13c0.1-0.07,0.18-0.2,0.24-0.37
			c0.02-0.05,0.03-0.1,0.04-0.16c0.01-0.06,0.01-0.12,0.01-0.19c0-0.11-0.03-0.22-0.07-0.31c-0.04-0.09-0.1-0.17-0.17-0.23
			c-0.07-0.07-0.16-0.12-0.26-0.15c-0.1-0.04-0.21-0.06-0.34-0.06c-0.2-0.01-0.37-0.01-0.51-0.01c-0.15,0-0.22,0-0.22,0
			c0,0-0.01-0.02-0.02-0.05c-0.01-0.03-0.03-0.08-0.05-0.14H27.87z"/>
		<path class="st201" d="M30.49,25.06v0.41h-0.65v-0.06h0.09c0.11,0,0.2-0.03,0.29-0.09c0.08-0.06,0.13-0.15,0.14-0.26H30.49z
			 M30.85,21.71h0.06l0.13,0.36l-0.39,3.39H30.3L30.85,21.71z M30.68,25.15c0,0.06,0.01,0.12,0.04,0.17
			c0.03,0.05,0.1,0.08,0.19,0.09H31v0.05h-0.36v-0.32H30.68z M30.91,21.71l1.71,3.2l-0.14,0.64l-1.68-3.17L30.91,21.71z
			 M34.17,21.71l0.06,0.4l-1.47,2.82c-0.06,0.14-0.11,0.26-0.14,0.35c-0.03,0.1-0.06,0.19-0.08,0.27h-0.06l-0.09-0.39L34.17,21.71z
			 M34.23,21.71l0.57,3.75h-0.48l-0.41-3.07l0.26-0.68H34.23z M34.27,25.15h0.04v0.32h-0.36v-0.05h0.09c0.1,0,0.16-0.03,0.19-0.09
			C34.27,25.26,34.28,25.21,34.27,25.15 M34.6,25.06h0.13c0.02,0.11,0.07,0.2,0.15,0.26c0.08,0.06,0.18,0.09,0.28,0.09h0.09v0.06
			H34.6V25.06z"/>
	</g>
</g>
</svg>
