<?xml version="1.0" encoding="utf-8"?>
<!-- Generator: Adobe Illustrator 25.0.1, SVG Export Plug-In . SVG Version: 6.00 Build 0)  -->
<svg version="1.0" id="Layer_1" xmlns="http://www.w3.org/2000/svg" xmlns:xlink="http://www.w3.org/1999/xlink" x="0px" y="0px"
	 viewBox="0 0 53.48 60.56" style="enable-background:new 0 0 53.48 60.56;" xml:space="preserve">
<style type="text/css">
	.st0{fill:#000104;}
	.st1{fill:#FFFFFF;}
	.st2{fill:#EF493E;}
	.st3{opacity:0.6;fill-rule:evenodd;clip-rule:evenodd;fill:#FBBE43;}
	.st4{opacity:0.6;fill-rule:evenodd;clip-rule:evenodd;fill:#EF930E;}
	.st5{opacity:0.6;fill-rule:evenodd;clip-rule:evenodd;fill:#E67906;}
	.st6{fill:#9F8829;}
	.st7{fill:#3972A6;}
	.st8{fill:url(#SVGID_1_);stroke:#2B53A4;stroke-width:0.5;stroke-miterlimit:10;}
	.st9{fill:none;}
	.st10{fill:url(#SVGID_2_);}
	.st11{fill:url(#SVGID_3_);}
	.st12{fill:#B3B3B3;}
	.st13{fill:url(#SVGID_4_);}
	.st14{fill:url(#SVGID_5_);}
	.st15{fill:url(#SVGID_6_);}
	.st16{fill:#FFFFFF;stroke:#FFFFFF;stroke-width:0.25;stroke-miterlimit:10;}
	.st17{fill:#00001D;}
	.st18{fill:#4DA0C5;}
	.st19{fill:url(#SVGID_7_);}
	.st20{fill:#2E6A85;}
	.st21{fill:none;stroke:#144FA1;stroke-width:0.113;stroke-linejoin:round;stroke-miterlimit:10;}
	.st22{fill:#F27337;}
	.st23{fill:#8EB8D4;}
	.st24{fill:#F38056;}
	.st25{fill:#626365;}
	.st26{fill:#EF6D23;}
	.st27{fill:#284B82;}
	.st28{fill:#242956;}
	.st29{fill:#15142A;}
	.st30{fill:#84C343;}
	.st31{fill:#4CA1C6;}
	.st32{fill:#121617;}
	.st33{fill:#CF8966;}
	.st34{fill:#F37639;}
	.st35{opacity:0.3;fill:url(#SVGID_8_);}
	.st36{fill:#373277;}
	.st37{fill:#E61E25;}
	.st38{fill:#2555A5;}
	.st39{fill:#2E225E;}
	.st40{fill:#F8A425;}
	.st41{fill:#2058A7;}
	.st42{fill:none;stroke:#205AA8;stroke-width:0.156;stroke-miterlimit:10;}
	.st43{fill:#49A3C7;}
	.st44{fill-rule:evenodd;clip-rule:evenodd;}
	.st45{fill-rule:evenodd;clip-rule:evenodd;fill:url(#SVGID_9_);}
	.st46{fill-rule:evenodd;clip-rule:evenodd;fill:url(#SVGID_10_);}
	.st47{fill-rule:evenodd;clip-rule:evenodd;fill:url(#SVGID_11_);}
	.st48{fill:#1D2251;}
	.st49{fill:#2260AC;}
	.st50{fill:url(#SVGID_12_);}
	.st51{fill:#FFFFFC;}
	.st52{fill:#4C9FC5;}
	.st53{fill:#28306D;}
	.st54{fill:#4C9EC5;}
	.st55{fill:#28306E;}
	.st56{fill:#29306F;}
	.st57{fill:#F7F7FB;}
	.st58{fill:url(#SVGID_13_);}
	.st59{fill:url(#SVGID_14_);}
	.st60{fill:url(#SVGID_15_);}
	.st61{fill:url(#SVGID_16_);}
	.st62{fill:#10123C;}
	.st63{fill:#F5842C;}
	.st64{fill:#1F305E;}
	.st65{fill:#87BBD1;}
	.st66{fill:#203160;}
	.st67{fill:#235779;}
	.st68{fill:#359FA1;}
	.st69{fill:#A4D1A4;}
	.st70{fill:#B9DBBC;}
	.st71{fill:#C6DDCA;}
	.st72{fill:#662E14;}
	.st73{fill:#1D79A4;}
	.st74{fill:#C14B28;}
	.st75{fill:url(#SVGID_17_);}
	.st76{fill:url(#SVGID_18_);}
	.st77{fill:url(#SVGID_19_);}
	.st78{fill:url(#SVGID_20_);}
	.st79{fill:url(#SVGID_21_);}
	.st80{fill:url(#SVGID_22_);}
	.st81{fill:url(#SVGID_23_);}
	.st82{fill:url(#SVGID_24_);}
	.st83{fill:url(#SVGID_25_);}
	.st84{fill:url(#SVGID_26_);}
	.st85{fill:url(#SVGID_27_);}
	.st86{fill:url(#SVGID_28_);}
	.st87{fill:url(#SVGID_29_);}
	.st88{fill:url(#SVGID_30_);}
	.st89{fill:#1F164B;}
	.st90{clip-path:url(#SVGID_32_);fill:#253D97;}
	.st91{fill:url(#SVGID_33_);}
	.st92{fill:url(#SVGID_34_);}
	.st93{fill:url(#SVGID_35_);}
	.st94{fill:url(#SVGID_36_);}
	.st95{fill:url(#SVGID_37_);}
	.st96{fill:url(#SVGID_38_);}
	.st97{fill:url(#SVGID_39_);}
	.st98{fill:url(#SVGID_40_);}
	.st99{fill:url(#SVGID_41_);}
	.st100{fill:#443F41;}
	.st101{fill:#28306F;}
	.st102{fill:#71C49D;}
	.st103{fill:#F0C6A7;}
	.st104{fill:#DB8D82;}
	.st105{fill:#EFB7AC;}
	.st106{opacity:0.21;}
	.st107{fill-rule:evenodd;clip-rule:evenodd;fill:#A9196E;}
	.st108{fill-rule:evenodd;clip-rule:evenodd;fill:#FBE42C;}
	.st109{fill:#FBE42C;}
	.st110{fill:#A9196E;}
	.st111{fill:#7FC143;}
	.st112{clip-path:url(#SVGID_45_);fill:#7FC143;}
	.st113{clip-path:url(#SVGID_51_);fill:#7FC143;}
	.st114{fill:#243F8F;}
	.st115{fill:#EF4E2F;}
	.st116{fill:#010007;}
	.st117{fill:#0C0D37;}
	.st118{fill:#FBAF2D;}
	.st119{fill:url(#SVGID_54_);}
	.st120{fill-rule:evenodd;clip-rule:evenodd;fill:#FFFFFF;}
	.st121{fill:#1D4690;}
	.st122{fill:#3AA949;}
	.st123{fill:#F37A24;}
	.st124{fill:none;stroke:#F37A24;stroke-width:3.7145;stroke-miterlimit:10;}
	.st125{fill:#3AA949;stroke:#FFFFFF;stroke-width:1.3104;stroke-miterlimit:10;}
	.st126{fill:#46A2BB;}
	.st127{fill:#7153A0;}
	.st128{fill:#27316C;}
	.st129{fill:#2C65AE;}
	.st130{fill:#452D7A;}
	.st131{fill:#442C7A;}
	.st132{fill:#1A2642;}
	.st133{fill-rule:evenodd;clip-rule:evenodd;fill:#567EB8;}
	.st134{fill-rule:evenodd;clip-rule:evenodd;fill:#6A7EB8;}
	.st135{fill-rule:evenodd;clip-rule:evenodd;fill:#6A7EB9;}
	.st136{fill-rule:evenodd;clip-rule:evenodd;fill:#EE3C2D;}
	.st137{fill-rule:evenodd;clip-rule:evenodd;fill:#EF493F;}
	.st138{fill-rule:evenodd;clip-rule:evenodd;fill:#ED2C24;}
	.st139{fill-rule:evenodd;clip-rule:evenodd;fill:#E9AE28;}
	.st140{fill-rule:evenodd;clip-rule:evenodd;fill:#D69B28;}
	.st141{fill-rule:evenodd;clip-rule:evenodd;fill:#FCB729;}
	.st142{fill-rule:evenodd;clip-rule:evenodd;fill:#409E47;}
	.st143{fill-rule:evenodd;clip-rule:evenodd;fill:#4BB450;}
	.st144{fill-rule:evenodd;clip-rule:evenodd;fill:#338440;}
	.st145{fill:#C09C36;}
	.st146{fill:#1E552A;}
	.st147{clip-path:url(#SVGID_56_);fill:url(#SVGID_57_);}
	.st148{fill:#023A1E;}
	.st149{fill:#FFFFFA;}
	.st150{fill:#0D4F28;}
	.st151{fill:#0E5128;}
	.st152{fill:#0D4E27;}
	.st153{fill:#0E5229;}
	.st154{fill:#0E4823;}
	.st155{fill:#0E4C27;}
	.st156{fill:#F3F6E0;}
	.st157{fill:#0E4F28;}
	.st158{fill:#114823;}
	.st159{fill:#105229;}
	.st160{fill:#0A4A2B;}
	.st161{fill:#134F27;}
	.st162{fill:#165229;}
	.st163{fill:#0D5029;}
	.st164{fill:#0B4E2B;}
	.st165{fill:#105028;}
	.st166{fill:#0A492A;}
	.st167{fill:#E9F3E2;}
	.st168{fill:#144D26;}
	.st169{fill:#185C2F;}
	.st170{fill:#0F5028;}
	.st171{fill:#F3F8EA;}
	.st172{fill:#114D26;}
	.st173{fill:#70A685;}
	.st174{fill:#0D4F2A;}
	.st175{fill:#094A24;}
	.st176{fill:#0F4F27;}
	.st177{fill:#0A4C26;}
	.st178{fill:#A2D29A;}
	.st179{fill:#4D7E44;}
	.st180{fill:#E8F2E1;}
	.st181{fill:#EDF5E5;}
	.st182{fill:#E6F2E7;}
	.st183{fill:#E5F1DC;}
	.st184{fill:#E9F3E3;}
	.st185{fill:#E9F3E5;}
	.st186{fill:#E5F1DB;}
	.st187{fill:#D8ECD7;}
	.st188{fill:#D9EBD4;}
	.st189{fill:#E2F0DE;}
	.st190{fill:#366B4B;}
	.st191{fill:#5D6162;}
	.st192{fill:#212E5F;}
	.st193{fill:#DD1F26;}
	.st194{clip-path:url(#SVGID_59_);}
	.st195{fill:#23396F;}
	.st196{fill:#7FC24E;}
	.st197{clip-path:url(#SVGID_59_);fill:#23396F;}
	.st198{clip-path:url(#SVGID_59_);fill:#7FC24E;}
	.st199{fill:#91CEA4;}
	.st200{fill:#90CEA4;}
	.st201{fill:#C02026;}
	.st202{fill:#362E7E;}
</style>
<g>
	<polygon class="st67" points="7,26.03 8.38,26.03 8.38,26.38 7.51,26.38 7.51,26.64 8.31,26.64 8.31,26.97 7.51,26.97 7.51,27.29 
		8.4,27.29 8.4,27.65 7,27.65 	"/>
	<path class="st67" d="M8.59,27.12l0.49-0.03c0.01,0.08,0.03,0.14,0.06,0.18c0.05,0.07,0.13,0.1,0.23,0.1
		c0.07,0,0.13-0.02,0.17-0.05c0.04-0.03,0.06-0.07,0.06-0.12c0-0.04-0.02-0.08-0.06-0.11c-0.04-0.03-0.13-0.06-0.26-0.09
		c-0.23-0.05-0.39-0.12-0.48-0.2c-0.1-0.08-0.15-0.19-0.15-0.31c0-0.08,0.02-0.16,0.07-0.24c0.05-0.07,0.12-0.13,0.22-0.17
		C9.05,26.03,9.19,26,9.36,26c0.21,0,0.38,0.04,0.49,0.12c0.11,0.08,0.18,0.2,0.2,0.37l-0.49,0.03c-0.01-0.07-0.04-0.13-0.08-0.16
		c-0.04-0.03-0.1-0.05-0.17-0.05c-0.06,0-0.11,0.01-0.14,0.04c-0.03,0.02-0.05,0.05-0.05,0.09c0,0.03,0.01,0.05,0.04,0.07
		c0.02,0.02,0.08,0.04,0.17,0.06c0.23,0.05,0.39,0.1,0.48,0.14c0.1,0.05,0.17,0.11,0.21,0.18c0.04,0.07,0.07,0.15,0.07,0.24
		c0,0.1-0.03,0.2-0.09,0.29c-0.06,0.09-0.14,0.15-0.25,0.2c-0.11,0.05-0.24,0.07-0.4,0.07c-0.28,0-0.48-0.05-0.59-0.16
		C8.67,27.42,8.6,27.28,8.59,27.12"/>
	<polygon class="st67" points="6.88,28.75 8.45,28.75 8.45,29.15 7.92,29.15 7.92,30.38 7.41,30.38 7.41,29.15 6.88,29.15 	"/>
	<path class="st67" d="M8.68,28.75h0.97c0.16,0,0.28,0.04,0.37,0.12c0.09,0.08,0.13,0.17,0.13,0.29c0,0.1-0.03,0.18-0.09,0.25
		c-0.04,0.05-0.1,0.08-0.18,0.11c0.12,0.03,0.21,0.08,0.26,0.14c0.06,0.07,0.08,0.15,0.08,0.26c0,0.08-0.02,0.16-0.06,0.23
		c-0.04,0.07-0.1,0.12-0.17,0.16c-0.04,0.02-0.11,0.04-0.2,0.05c-0.12,0.01-0.19,0.02-0.23,0.02H8.68V28.75z M9.2,29.39h0.22
		c0.08,0,0.14-0.01,0.17-0.04c0.03-0.03,0.05-0.07,0.05-0.12c0-0.05-0.02-0.08-0.05-0.11c-0.03-0.03-0.09-0.04-0.16-0.04H9.2V29.39z
		 M9.2,30.03h0.26c0.09,0,0.15-0.02,0.19-0.05c0.04-0.03,0.05-0.07,0.05-0.12c0-0.05-0.02-0.09-0.05-0.12
		c-0.04-0.03-0.1-0.04-0.19-0.04H9.2V30.03z"/>
	<path class="st67" d="M46.05,27.65h-1.39c0.02-0.13,0.06-0.26,0.15-0.38c0.08-0.12,0.23-0.26,0.45-0.42
		c0.14-0.1,0.22-0.17,0.26-0.22c0.04-0.05,0.06-0.1,0.06-0.15c0-0.05-0.02-0.09-0.06-0.13c-0.04-0.03-0.08-0.05-0.14-0.05
		c-0.06,0-0.11,0.02-0.15,0.05c-0.04,0.04-0.06,0.1-0.08,0.19l-0.46-0.04c0.02-0.13,0.05-0.23,0.1-0.3
		c0.05-0.07,0.12-0.13,0.21-0.16c0.09-0.04,0.21-0.06,0.37-0.06c0.16,0,0.29,0.02,0.38,0.05c0.09,0.04,0.16,0.09,0.21,0.17
		c0.05,0.07,0.08,0.16,0.08,0.25c0,0.1-0.03,0.19-0.09,0.28c-0.06,0.09-0.17,0.19-0.32,0.3c-0.09,0.06-0.16,0.11-0.19,0.13
		c-0.03,0.02-0.07,0.06-0.11,0.1h0.72V27.65z"/>
	<path class="st67" d="M46.24,26.84c0-0.31,0.06-0.52,0.17-0.65C46.53,26.07,46.7,26,46.94,26c0.11,0,0.2,0.01,0.28,0.04
		c0.07,0.03,0.13,0.06,0.18,0.11c0.05,0.04,0.08,0.09,0.11,0.14c0.03,0.05,0.05,0.1,0.06,0.17c0.03,0.12,0.05,0.25,0.05,0.38
		c0,0.29-0.05,0.51-0.15,0.65c-0.1,0.14-0.28,0.2-0.53,0.2c-0.14,0-0.25-0.02-0.34-0.07c-0.09-0.04-0.16-0.11-0.21-0.19
		c-0.04-0.06-0.07-0.14-0.09-0.25C46.25,27.08,46.24,26.96,46.24,26.84 M46.7,26.84c0,0.21,0.02,0.35,0.06,0.42
		c0.04,0.08,0.09,0.11,0.16,0.11c0.05,0,0.09-0.02,0.12-0.05c0.03-0.03,0.06-0.08,0.08-0.15c0.02-0.07,0.02-0.18,0.02-0.32
		c0-0.22-0.02-0.36-0.06-0.43c-0.04-0.07-0.09-0.11-0.17-0.11c-0.08,0-0.13,0.04-0.17,0.11C46.72,26.49,46.7,26.63,46.7,26.84"/>
	<path class="st67" d="M47.66,29.88c0,0.31-0.29,0.51-0.73,0.51c-0.43,0-0.73-0.2-0.73-0.51c0-0.17,0.09-0.29,0.24-0.38
		c-0.11-0.08-0.18-0.19-0.18-0.33c0-0.29,0.27-0.47,0.67-0.47c0.39,0,0.67,0.19,0.67,0.47c0,0.14-0.07,0.25-0.18,0.33
		C47.57,29.58,47.66,29.71,47.66,29.88 M47.19,29.86c0-0.13-0.1-0.2-0.25-0.2c-0.15,0-0.25,0.08-0.25,0.2s0.1,0.2,0.25,0.2
		C47.09,30.07,47.19,29.99,47.19,29.86 M46.74,29.19c0,0.11,0.08,0.17,0.2,0.17c0.12,0,0.2-0.06,0.2-0.17c0-0.11-0.08-0.17-0.2-0.17
		C46.82,29.02,46.74,29.08,46.74,29.19"/>
	<path class="st67" d="M45.66,28.72v1.65h-0.47v-1.08c-0.08,0.06-0.15,0.1-0.22,0.14c-0.07,0.03-0.16,0.07-0.27,0.1v-0.37
		c0.16-0.05,0.28-0.11,0.37-0.18c0.09-0.07,0.16-0.16,0.2-0.26H45.66z"/>
	<path class="st68" d="M11.38,18.65l0.12-0.14c0.19-0.22,0.18-0.43-0.04-0.81l-2.93-5.06l0.25-0.3l6.32,1.92l0.3-0.35L15.51,14
		l-1.67,1.97l-0.11-0.09l0.42-0.5l-2.01-0.61l-1.32,1.55l0.73,1.26c0.18,0.31,0.48,0.29,0.76-0.04l0.18-0.21l0.11,0.09l-1.12,1.31
		L11.38,18.65z M12,14.72l-2.54-0.77l1.29,2.24L12,14.72z"/>
	<path class="st68" d="M14.12,7.78l-0.51,0.24L13.55,7.9l2.52-1.2l0.06,0.12l-0.65,0.31l3.64,3.14l-0.48-4.04
		c-0.04-0.35-0.31-0.46-0.7-0.27l-0.26,0.12l-0.06-0.12l1.57-0.75l0.06,0.12l-0.17,0.08c-0.26,0.13-0.36,0.33-0.31,0.75l0.68,5.72
		l-0.36,0.17L14.12,7.78z"/>
	<path class="st68" d="M24,10.22l0.79-0.01l-0.1-5.81l-0.8,0.01l0-0.14l4.97-0.08c0,0-0.19,0.73-0.25,1.73l-0.14,0l-0.01-0.81
		c-0.01-0.49-0.19-0.77-0.68-0.76l-1.66,0.03l0.05,2.87l1.42-0.02l-0.01-0.81l0.14,0l0.03,1.84l-0.14,0L27.6,7.36l-1.42,0.02
		l0.05,2.8l1.7-0.03c0.6-0.01,0.76-0.68,0.88-1.7l0.15,0c0,0-0.13,0.84-0.11,1.83L24,10.36L24,10.22z"/>
	<path class="st68" d="M31.53,10.58l0.25,0.12c0.37,0.18,0.6,0.06,0.76-0.25l2.15-4.21l-0.03-0.16c-0.06-0.3-0.14-0.54-0.42-0.67
		l-0.15-0.07l0.06-0.12l1.92,0.93l0.99,5.14l1.59-3.12c0.16-0.31,0.12-0.56-0.26-0.74L38.16,7.3l0.06-0.12l1.65,0.8L39.82,8.1
		l-0.26-0.13c-0.37-0.18-0.59-0.06-0.75,0.25l-2.48,4.85l-0.36-0.17l-1.22-6.44l-2.07,4.05c-0.16,0.31-0.13,0.56,0.25,0.74
		l0.26,0.13l-0.06,0.12l-1.65-0.8L31.53,10.58z"/>
	<path class="st68" d="M38.87,15.17c0,0,0.56-0.34,1.02-0.68l0.68-0.51l0.09,0.11l-0.32,0.24c-0.69,0.52-0.85,1.52-0.07,2.51
		c0.5,0.63,1.14,0.93,1.69,0.52c1.3-0.98-1.45-3.38,0.42-4.77c0.88-0.66,1.95-0.58,2.77,0.46c0.43,0.54,0.52,0.99,0.51,1.3
		c0.17,0.18,0.35,0.24,0.59,0.21l0.07,0.09c0,0-0.84,0.4-1.17,0.64l-0.48,0.36l-0.09-0.11l0.24-0.18c0.7-0.52,0.93-1.3,0.19-2.24
		c-0.55-0.69-1.16-0.86-1.65-0.5c-1.27,0.96,1.52,3.33-0.43,4.79c-0.84,0.63-1.92,0.62-2.8-0.49c-0.47-0.6-0.59-1.13-0.59-1.51
		c-0.16-0.16-0.38-0.21-0.63-0.13L38.87,15.17z"/>
	<path class="st67" d="M11.25,39.59l0.2,0.88c-0.24,0.07-0.47,0.09-0.68,0.06c-0.21-0.03-0.39-0.1-0.56-0.22
		c-0.17-0.12-0.32-0.3-0.47-0.55c-0.17-0.3-0.27-0.57-0.29-0.81c-0.02-0.24,0.04-0.49,0.19-0.75c0.15-0.26,0.39-0.49,0.75-0.68
		c0.47-0.26,0.9-0.33,1.29-0.23c0.39,0.1,0.72,0.38,0.98,0.83c0.2,0.35,0.29,0.66,0.26,0.94c-0.03,0.28-0.17,0.55-0.41,0.81
		l-0.61-0.66c0.07-0.07,0.12-0.14,0.14-0.19c0.04-0.08,0.06-0.17,0.05-0.26c0-0.09-0.03-0.18-0.08-0.26
		c-0.11-0.19-0.28-0.3-0.5-0.31c-0.16-0.01-0.37,0.05-0.63,0.19c-0.31,0.17-0.5,0.34-0.57,0.5c-0.06,0.16-0.05,0.32,0.05,0.49
		c0.09,0.16,0.21,0.26,0.36,0.29C10.88,39.66,11.05,39.65,11.25,39.59"/>
	<path class="st67" d="M13.19,41.79c0.37-0.37,0.77-0.56,1.19-0.56c0.42,0,0.82,0.17,1.2,0.53c0.39,0.37,0.58,0.76,0.59,1.16
		c0.01,0.4-0.17,0.79-0.54,1.15c-0.27,0.27-0.53,0.44-0.79,0.52c-0.26,0.08-0.53,0.09-0.8,0.02c-0.27-0.07-0.53-0.23-0.79-0.48
		c-0.26-0.25-0.44-0.5-0.53-0.74c-0.09-0.25-0.1-0.51-0.03-0.79C12.75,42.33,12.92,42.06,13.19,41.79 M13.9,42.48
		c-0.23,0.23-0.35,0.44-0.37,0.62c-0.01,0.18,0.06,0.35,0.21,0.49c0.15,0.15,0.32,0.21,0.51,0.2c0.18-0.02,0.4-0.15,0.66-0.41
		c0.22-0.21,0.33-0.41,0.34-0.59c0.01-0.18-0.06-0.35-0.21-0.49c-0.14-0.14-0.31-0.2-0.5-0.18C14.35,42.13,14.14,42.25,13.9,42.48"
		/>
	<path class="st67" d="M17.01,45.74l0.87,0.4c-0.06,0.14-0.08,0.26-0.06,0.36c0.03,0.16,0.13,0.29,0.3,0.38
		c0.13,0.07,0.24,0.09,0.34,0.07c0.1-0.02,0.17-0.07,0.22-0.15c0.04-0.07,0.04-0.15,0.01-0.25c-0.03-0.09-0.15-0.23-0.36-0.4
		c-0.34-0.29-0.55-0.55-0.64-0.78c-0.09-0.23-0.07-0.45,0.05-0.67c0.08-0.14,0.2-0.26,0.35-0.34c0.16-0.08,0.34-0.11,0.55-0.1
		c0.21,0.02,0.47,0.11,0.77,0.26c0.37,0.19,0.61,0.41,0.73,0.64c0.12,0.23,0.11,0.51-0.01,0.81l-0.86-0.39
		c0.05-0.14,0.05-0.25,0.01-0.35c-0.04-0.09-0.12-0.17-0.25-0.24c-0.1-0.05-0.19-0.07-0.27-0.06c-0.08,0.01-0.13,0.05-0.17,0.11
		c-0.02,0.04-0.03,0.1,0,0.15c0.02,0.06,0.1,0.15,0.24,0.26c0.34,0.29,0.57,0.52,0.69,0.69c0.12,0.17,0.18,0.34,0.19,0.5
		c0.01,0.16-0.03,0.32-0.12,0.47c-0.1,0.18-0.24,0.32-0.43,0.41c-0.19,0.1-0.39,0.14-0.62,0.12c-0.23-0.02-0.48-0.1-0.76-0.25
		c-0.49-0.26-0.77-0.53-0.86-0.81C16.85,46.32,16.88,46.03,17.01,45.74"/>
	<polygon class="st67" points="22.24,45.87 23.54,46.14 23.63,48.13 24.53,46.34 25.83,46.61 25.16,49.71 24.35,49.55 24.86,47.18 
		23.73,49.42 23,49.27 22.89,46.78 22.38,49.15 21.57,48.98 	"/>
	<polygon class="st67" points="27.7,46.65 30.39,46.44 30.44,47.11 28.76,47.24 28.8,47.75 30.36,47.62 30.42,48.27 28.85,48.39 
		28.9,49.02 30.64,48.88 30.7,49.6 27.96,49.81 	"/>
	<polygon class="st67" points="31.97,46.12 34.85,45.12 35.13,45.86 34.16,46.19 34.99,48.44 34.04,48.78 33.21,46.52 32.24,46.86 	
		"/>
	<polygon class="st67" points="36.42,44.25 37.27,43.72 39.02,46.4 38.17,46.93 	"/>
	<path class="st67" d="M41.8,42.37l0.81-0.43c0.14,0.21,0.22,0.42,0.25,0.62c0.03,0.2,0.01,0.4-0.06,0.59
		c-0.07,0.19-0.21,0.38-0.41,0.59c-0.25,0.25-0.49,0.41-0.72,0.5c-0.23,0.09-0.5,0.1-0.8,0.03c-0.3-0.06-0.59-0.23-0.88-0.51
		c-0.39-0.37-0.58-0.75-0.59-1.15c-0.01-0.4,0.17-0.78,0.54-1.14c0.29-0.29,0.57-0.45,0.86-0.5c0.28-0.05,0.59,0,0.91,0.16
		l-0.48,0.75c-0.09-0.05-0.17-0.07-0.22-0.08c-0.09-0.01-0.19-0.01-0.27,0.02c-0.09,0.03-0.17,0.08-0.24,0.15
		c-0.16,0.16-0.22,0.34-0.17,0.55c0.03,0.16,0.15,0.33,0.36,0.53c0.26,0.25,0.47,0.38,0.65,0.39c0.17,0.02,0.33-0.05,0.47-0.18
		c0.14-0.13,0.2-0.27,0.19-0.41C41.97,42.7,41.91,42.54,41.8,42.37"/>
	<path class="st67" d="M43.87,40.24l0.41-0.84c0.15,0.06,0.27,0.08,0.37,0.06c0.17-0.03,0.3-0.12,0.39-0.29
		c0.07-0.12,0.09-0.23,0.07-0.33c-0.02-0.1-0.07-0.17-0.15-0.21c-0.07-0.04-0.16-0.04-0.25-0.01c-0.09,0.03-0.23,0.15-0.42,0.35
		c-0.3,0.33-0.57,0.53-0.81,0.62c-0.24,0.08-0.47,0.07-0.69-0.06c-0.15-0.08-0.26-0.2-0.34-0.35c-0.08-0.15-0.11-0.33-0.09-0.54
		c0.02-0.21,0.11-0.45,0.28-0.74c0.2-0.35,0.42-0.59,0.67-0.7c0.24-0.11,0.52-0.11,0.84,0.02l-0.41,0.83
		C43.6,38,43.48,38,43.38,38.04c-0.1,0.04-0.18,0.12-0.25,0.24c-0.06,0.1-0.08,0.19-0.06,0.26c0.01,0.07,0.05,0.13,0.12,0.16
		c0.05,0.02,0.1,0.03,0.16,0c0.06-0.02,0.15-0.1,0.27-0.23c0.3-0.33,0.53-0.55,0.71-0.67c0.18-0.12,0.35-0.18,0.52-0.18
		c0.17-0.01,0.33,0.03,0.49,0.12c0.18,0.1,0.32,0.24,0.42,0.42c0.1,0.18,0.14,0.38,0.12,0.6c-0.02,0.22-0.11,0.46-0.26,0.73
		c-0.27,0.47-0.55,0.75-0.84,0.83C44.47,40.4,44.17,40.37,43.87,40.24"/>
	<path class="st67" d="M47.41,21.98c0,0.68-0.56,1.23-1.26,1.23c-0.7,0-1.26-0.55-1.26-1.23c0-0.68,0.56-1.23,1.26-1.23
		C46.84,20.76,47.41,21.31,47.41,21.98"/>
	<path class="st67" d="M9.84,22.29c0,0.68-0.56,1.23-1.26,1.23c-0.7,0-1.26-0.55-1.26-1.23c0-0.68,0.57-1.23,1.26-1.23
		C9.27,21.06,9.84,21.61,9.84,22.29"/>
	<path class="st67" d="M47.41,33.96c0,0.68-0.56,1.23-1.26,1.23c-0.7,0-1.26-0.55-1.26-1.23c0-0.68,0.56-1.23,1.26-1.23
		C46.84,32.73,47.41,33.28,47.41,33.96"/>
	<path class="st67" d="M9.84,34.27c0,0.68-0.56,1.23-1.26,1.23c-0.7,0-1.26-0.55-1.26-1.23c0-0.68,0.57-1.23,1.26-1.23
		C9.27,33.04,9.84,33.59,9.84,34.27"/>
	<path class="st69" d="M33,28.11c0,2.41-2.49,4.36-5.56,4.36s-5.56-1.95-5.56-4.36c0-2.41,2.49-4.36,5.56-4.36S33,25.71,33,28.11"/>
	<path class="st70" d="M31.1,27.85c0,1.58-1.64,2.87-3.66,2.87c-2.02,0-3.66-1.28-3.66-2.87c0-1.58,1.64-2.87,3.66-2.87
		C29.46,24.98,31.1,26.26,31.1,27.85"/>
	<path class="st71" d="M29.2,27.85c0,0.76-0.79,1.38-1.76,1.38c-0.97,0-1.76-0.62-1.76-1.38c0-0.76,0.79-1.38,1.76-1.38
		C28.42,26.47,29.2,27.09,29.2,27.85"/>
	<path class="st72" d="M32.55,35.11c-0.16-0.42-0.2-0.86-0.15-1.32c0.02,0.23,0.04,0.45,0.07,0.68c0.03,0.17,0.08,0.34,0.13,0.51
		C32.63,35.05,32.64,35.1,32.55,35.11C32.55,35.11,32.55,35.11,32.55,35.11"/>
	<polyline class="st72" points="33.47,35.22 33.47,35.23 33.46,35.23 33.47,35.22 	"/>
	<path class="st68" d="M17.79,32.24c0.39-0.24,0.83-0.36,1.29-0.38c-0.22,0.06-0.45,0.11-0.66,0.19c-0.17,0.06-0.33,0.14-0.49,0.22
		C17.86,32.31,17.81,32.34,17.79,32.24C17.79,32.24,17.79,32.24,17.79,32.24"/>
	<path class="st68" d="M18.06,32.51c0.39-0.24,0.83-0.36,1.29-0.38c-0.22,0.06-0.45,0.11-0.66,0.19c-0.17,0.06-0.33,0.14-0.49,0.22
		C18.13,32.58,18.08,32.6,18.06,32.51C18.06,32.5,18.06,32.51,18.06,32.51"/>
	<path class="st68" d="M17.67,31.84c0.47-0.24,0.98-0.36,1.52-0.38c-0.26,0.06-0.53,0.11-0.78,0.19c-0.2,0.06-0.39,0.14-0.57,0.22
		C17.76,31.91,17.7,31.93,17.67,31.84C17.67,31.83,17.67,31.84,17.67,31.84"/>
	<path class="st68" d="M17.54,31.43c0.55-0.24,1.15-0.36,1.8-0.38c-0.31,0.06-0.62,0.11-0.92,0.19c-0.23,0.06-0.46,0.14-0.68,0.22
		C17.63,31.5,17.57,31.52,17.54,31.43C17.54,31.42,17.54,31.43,17.54,31.43"/>
	<path class="st68" d="M17.37,31.02c0.65-0.24,1.36-0.36,2.12-0.38c-0.36,0.06-0.73,0.11-1.09,0.19c-0.28,0.06-0.54,0.14-0.8,0.22
		C17.49,31.09,17.41,31.11,17.37,31.02C17.37,31.01,17.37,31.02,17.37,31.02"/>
	<path class="st68" d="M17.18,30.61c0.76-0.24,1.6-0.36,2.5-0.38c-0.43,0.06-0.86,0.11-1.28,0.19c-0.33,0.06-0.64,0.14-0.94,0.22
		C17.32,30.68,17.23,30.7,17.18,30.61C17.18,30.61,17.18,30.61,17.18,30.61"/>
	<path class="st68" d="M16.96,30.21c0.9-0.24,1.89-0.36,2.95-0.38c-0.51,0.06-1.02,0.11-1.51,0.19c-0.38,0.06-0.75,0.14-1.11,0.22
		C17.12,30.28,17.01,30.3,16.96,30.21C16.96,30.2,16.96,30.21,16.96,30.21"/>
	<path class="st68" d="M16.88,29.83c0.82-0.29,1.75-0.5,2.76-0.63c-0.47,0.11-0.95,0.2-1.41,0.32c-0.36,0.09-0.69,0.2-1.03,0.3
		C17.05,29.87,16.95,29.9,16.88,29.83C16.88,29.83,16.88,29.83,16.88,29.83"/>
	<path class="st68" d="M17.67,31.84c0.47-0.24,0.98-0.36,1.52-0.38c-0.26,0.06-0.53,0.11-0.78,0.19c-0.2,0.06-0.39,0.14-0.57,0.22
		C17.76,31.91,17.7,31.93,17.67,31.84C17.67,31.83,17.67,31.84,17.67,31.84"/>
	<path class="st68" d="M18.88,33.2c0.31-0.09,0.62-0.09,0.94-0.01c-0.16,0-0.32-0.01-0.48,0c-0.12,0.01-0.25,0.03-0.37,0.06
		C18.91,33.26,18.88,33.26,18.88,33.2C18.88,33.19,18.88,33.2,18.88,33.2"/>
	<path class="st68" d="M19.01,33.42c0.31-0.09,0.62-0.09,0.94-0.01c-0.16,0-0.32-0.01-0.48,0c-0.12,0.01-0.25,0.03-0.37,0.06
		C19.04,33.48,19.01,33.49,19.01,33.42C19.01,33.42,19.01,33.42,19.01,33.42"/>
	<path class="st68" d="M18.62,32.99c0.27-0.11,0.56-0.14,0.87-0.11c-0.15,0.02-0.3,0.03-0.45,0.05c-0.11,0.02-0.22,0.05-0.33,0.09
		C18.66,33.04,18.63,33.05,18.62,32.99C18.62,32.99,18.62,32.99,18.62,32.99"/>
	<path class="st68" d="M18.31,32.79c0.55-0.23,1.16-0.34,1.8-0.34c-0.31,0.06-0.62,0.1-0.93,0.17c-0.23,0.05-0.46,0.13-0.68,0.21
		C18.4,32.86,18.34,32.88,18.31,32.79C18.31,32.78,18.31,32.79,18.31,32.79"/>
	<path class="st68" d="M16.67,29.57c0.4-0.24,0.84-0.35,1.32-0.35c-0.23,0.06-0.46,0.1-0.68,0.17c-0.17,0.05-0.33,0.13-0.49,0.21
		C16.75,29.65,16.7,29.67,16.67,29.57L16.67,29.57z"/>
	<path class="st68" d="M16.59,29.2c0.47-0.24,0.7-0.36,1.25-0.38c-0.26,0.06-0.25,0.11-0.51,0.19c-0.2,0.06-0.39,0.14-0.57,0.22
		C16.67,29.27,16.62,29.29,16.59,29.2C16.59,29.19,16.59,29.2,16.59,29.2"/>
	<path class="st68" d="M16.42,28.79c0.43-0.28,0.93-0.45,1.51-0.54c-0.26,0.09-0.53,0.17-0.78,0.27c-0.19,0.08-0.37,0.18-0.54,0.28
		C16.53,28.84,16.48,28.86,16.42,28.79C16.42,28.78,16.42,28.79,16.42,28.79"/>
	<path class="st68" d="M16.18,28.44c0.63-0.28,1.33-0.43,2.1-0.49c-0.36,0.08-0.73,0.15-1.07,0.25c-0.27,0.07-0.53,0.17-0.78,0.27
		C16.3,28.5,16.23,28.52,16.18,28.44L16.18,28.44z"/>
	<path class="st68" d="M16.1,27.97c0.76-0.24,1.6-0.36,2.5-0.38c-0.43,0.06-0.86,0.11-1.28,0.19c-0.33,0.06-0.64,0.14-0.94,0.22
		C16.23,28.04,16.14,28.06,16.1,27.97C16.1,27.96,16.1,27.97,16.1,27.97"/>
	<path class="st68" d="M15.87,27.56c0.8-0.23,1.68-0.34,2.62-0.38c-0.45,0.06-0.9,0.11-1.34,0.19c-0.34,0.06-0.67,0.13-0.99,0.21
		C16.01,27.62,15.92,27.64,15.87,27.56C15.87,27.56,15.87,27.56,15.87,27.56"/>
	<path class="st68" d="M15.88,27.16c0.8-0.17,1.67-0.24,2.61-0.23c-0.45,0.04-0.9,0.07-1.34,0.11c-0.34,0.04-0.66,0.09-0.98,0.15
		C16.02,27.21,15.93,27.23,15.88,27.16C15.88,27.15,15.88,27.16,15.88,27.16"/>
	<path class="st68" d="M16.04,26.63c0.68-0.12,1.4-0.11,2.16,0.01c-0.37,0-0.74-0.02-1.1-0.01c-0.28,0.01-0.56,0.04-0.83,0.08
		C16.14,26.72,16.06,26.73,16.04,26.63C16.04,26.63,16.04,26.63,16.04,26.63"/>
	<path class="st68" d="M16.25,26.19c0.8-0.09,1.64-0.05,2.53,0.11c-0.43-0.02-0.87-0.05-1.3-0.06c-0.33-0.01-0.65,0.02-0.97,0.04
		C16.37,26.29,16.28,26.29,16.25,26.19C16.25,26.19,16.25,26.19,16.25,26.19"/>
	<path class="st68" d="M16.7,25.74c0.83-0.06,1.71-0.01,2.64,0.14c-0.45-0.03-0.91-0.06-1.35-0.08c-0.35-0.01-0.68,0-1.01,0.02
		C16.83,25.83,16.73,25.83,16.7,25.74C16.71,25.74,16.7,25.74,16.7,25.74"/>
	<path class="st68" d="M17.11,25.29c0.81-0.02,1.69,0.07,2.61,0.25c-0.45-0.05-0.9-0.1-1.34-0.13c-0.34-0.03-0.67-0.03-0.99-0.04
		C17.24,25.37,17.15,25.36,17.11,25.29L17.11,25.29"/>
	<path class="st68" d="M35.07,19.73c-0.13,0.43-0.38,0.8-0.71,1.12c0.12-0.19,0.26-0.37,0.37-0.57c0.09-0.15,0.15-0.32,0.21-0.48
		C34.97,19.72,34.99,19.68,35.07,19.73C35.08,19.73,35.07,19.73,35.07,19.73"/>
	<path class="st68" d="M34.69,19.7c-0.13,0.43-0.38,0.8-0.71,1.12c0.12-0.19,0.26-0.37,0.37-0.57c0.09-0.15,0.15-0.32,0.21-0.48
		C34.59,19.7,34.61,19.65,34.69,19.7C34.7,19.71,34.69,19.7,34.69,19.7"/>
	<path class="st68" d="M35.44,19.96c-0.18,0.48-0.49,0.9-0.88,1.27c0.15-0.21,0.32-0.42,0.46-0.64c0.11-0.17,0.2-0.35,0.28-0.54
		C35.33,19.96,35.36,19.91,35.44,19.96C35.44,19.96,35.44,19.96,35.44,19.96"/>
	<path class="st68" d="M35.44,19.96c-0.18,0.48-0.49,0.9-0.88,1.27c0.15-0.21,0.32-0.42,0.46-0.64c0.11-0.17,0.2-0.35,0.28-0.54
		C35.33,19.96,35.36,19.91,35.44,19.96C35.44,19.96,35.44,19.96,35.44,19.96"/>
	<path class="st68" d="M33.81,19.39c-0.1,0.3-0.28,0.55-0.53,0.76c0.09-0.13,0.19-0.25,0.27-0.38c0.06-0.1,0.11-0.22,0.16-0.33
		C33.74,19.38,33.76,19.35,33.81,19.39C33.82,19.39,33.81,19.39,33.81,19.39"/>
	<path class="st68" d="M33.55,19.36c-0.1,0.3-0.29,0.55-0.53,0.76c0.09-0.13,0.19-0.25,0.27-0.38c0.06-0.1,0.11-0.22,0.16-0.33
		C33.48,19.35,33.49,19.32,33.55,19.36L33.55,19.36"/>
	<path class="st68" d="M34.13,19.29c-0.06,0.27-0.21,0.52-0.41,0.76c0.07-0.13,0.15-0.26,0.21-0.39c0.05-0.1,0.08-0.21,0.12-0.31
		C34.06,19.3,34.08,19.28,34.13,19.29C34.14,19.3,34.13,19.29,34.13,19.29"/>
	<path class="st68" d="M34.53,19.35c-0.21,0.55-0.55,1.05-1,1.5c0.17-0.26,0.36-0.51,0.51-0.77c0.12-0.2,0.22-0.41,0.32-0.62
		C34.41,19.37,34.44,19.31,34.53,19.35C34.53,19.35,34.53,19.35,34.53,19.35"/>
	<path class="st68" d="M30.08,18.02c-0.13,0.43-0.38,0.8-0.71,1.12c0.12-0.19,0.26-0.37,0.37-0.57c0.09-0.15,0.15-0.32,0.21-0.48
		C29.98,18.01,30,17.97,30.08,18.02L30.08,18.02"/>
	<path class="st68" d="M29.7,18c-0.13,0.43-0.38,0.8-0.71,1.12c0.12-0.19,0.26-0.37,0.37-0.57c0.09-0.15,0.15-0.32,0.21-0.48
		C29.6,17.99,29.62,17.94,29.7,18C29.71,18,29.7,18,29.7,18"/>
	<path class="st68" d="M30.45,18.25c-0.19,0.48-0.49,0.9-0.88,1.26c0.15-0.21,0.32-0.42,0.46-0.64c0.11-0.17,0.2-0.35,0.28-0.54
		C30.34,18.25,30.36,18.2,30.45,18.25C30.45,18.26,30.45,18.25,30.45,18.25"/>
	<path class="st68" d="M30.83,18.47c-0.25,0.53-0.62,1.01-1.09,1.44c0.19-0.24,0.39-0.48,0.56-0.73c0.14-0.19,0.25-0.4,0.36-0.6
		C30.71,18.48,30.74,18.42,30.83,18.47L30.83,18.47"/>
	<path class="st68" d="M33.27,19.26c-0.25,0.53-0.62,1.01-1.09,1.44c0.19-0.24,0.39-0.48,0.56-0.73c0.14-0.19,0.25-0.4,0.36-0.6
		C33.15,19.27,33.18,19.21,33.27,19.26C33.27,19.27,33.27,19.26,33.27,19.26"/>
	<path class="st68" d="M31.22,18.67c-0.32,0.6-0.77,1.14-1.33,1.65c0.23-0.28,0.47-0.56,0.69-0.84c0.17-0.22,0.31-0.45,0.45-0.68
		C31.09,18.69,31.13,18.63,31.22,18.67C31.23,18.68,31.22,18.67,31.22,18.67"/>
	<path class="st68" d="M31.64,18.85c-0.41,0.67-0.96,1.3-1.62,1.89c0.28-0.32,0.57-0.64,0.83-0.97c0.2-0.25,0.38-0.51,0.56-0.77
		C31.49,18.89,31.55,18.82,31.64,18.85C31.65,18.86,31.64,18.85,31.64,18.85"/>
	<path class="st68" d="M32.95,19.08c-0.37,0.69-0.88,1.35-1.51,1.98c0.26-0.34,0.53-0.67,0.78-1.01c0.19-0.26,0.35-0.53,0.51-0.8
		C32.8,19.12,32.85,19.04,32.95,19.08C32.95,19.08,32.95,19.08,32.95,19.08"/>
	<path class="st68" d="M32.46,19.12c-0.41,0.67-0.96,1.3-1.62,1.89c0.28-0.32,0.57-0.64,0.83-0.97c0.2-0.25,0.38-0.51,0.56-0.77
		C32.31,19.15,32.36,19.08,32.46,19.12C32.46,19.12,32.46,19.12,32.46,19.12"/>
	<path class="st68" d="M32.09,19.02c-0.51,0.76-1.17,1.49-1.96,2.18c0.34-0.37,0.69-0.74,1.01-1.12c0.25-0.29,0.47-0.59,0.68-0.88
		C31.92,19.07,31.99,18.98,32.09,19.02C32.09,19.02,32.09,19.02,32.09,19.02"/>
	<path class="st68" d="M30.45,18.25c-0.19,0.48-0.49,0.9-0.88,1.26c0.15-0.21,0.32-0.42,0.46-0.64c0.11-0.17,0.2-0.35,0.28-0.54
		C30.34,18.25,30.36,18.2,30.45,18.25C30.45,18.26,30.45,18.25,30.45,18.25"/>
	<path class="st68" d="M28.62,18c-0.17,0.27-0.41,0.47-0.7,0.61c0.12-0.1,0.24-0.2,0.36-0.31c0.09-0.09,0.16-0.18,0.24-0.28
		C28.55,17.98,28.58,17.96,28.62,18C28.62,18.01,28.62,18,28.62,18"/>
	<path class="st68" d="M28.37,17.92c-0.17,0.27-0.41,0.47-0.7,0.61c0.12-0.1,0.24-0.2,0.36-0.31c0.09-0.09,0.16-0.18,0.24-0.28
		C28.3,17.89,28.33,17.87,28.37,17.92C28.37,17.92,28.37,17.92,28.37,17.92"/>
	<path class="st68" d="M28.95,17.99c-0.13,0.25-0.33,0.46-0.58,0.64c0.1-0.11,0.21-0.21,0.3-0.33c0.07-0.09,0.13-0.18,0.19-0.28
		C28.88,17.98,28.9,17.96,28.95,17.99C28.96,17.99,28.95,17.99,28.95,17.99"/>
	<path class="st68" d="M29.33,17.95c-0.26,0.53-0.64,1-1.12,1.42c0.19-0.24,0.4-0.48,0.58-0.72c0.14-0.19,0.26-0.39,0.37-0.59
		C29.21,17.95,29.24,17.9,29.33,17.95C29.33,17.95,29.33,17.95,29.33,17.95"/>
	<path class="st68" d="M28.64,36.43c-0.17-0.36-0.22-0.74-0.18-1.13c0.03,0.19,0.05,0.39,0.09,0.58c0.03,0.15,0.08,0.29,0.14,0.43
		C28.71,36.38,28.72,36.42,28.64,36.43C28.63,36.43,28.64,36.43,28.64,36.43"/>
	<path class="st68" d="M28.91,36.5c-0.17-0.36-0.22-0.74-0.18-1.13c0.03,0.19,0.05,0.39,0.09,0.58c0.03,0.15,0.08,0.29,0.14,0.43
		C28.98,36.45,28.99,36.49,28.91,36.5C28.9,36.5,28.91,36.5,28.91,36.5"/>
	<path class="st68" d="M29.67,36.49c-0.1-0.25-0.13-0.52-0.09-0.79c0.01,0.13,0.02,0.27,0.04,0.4c0.02,0.1,0.05,0.21,0.08,0.31
		C29.72,36.45,29.73,36.48,29.67,36.49L29.67,36.49z"/>
	<path class="st68" d="M29.86,36.36c-0.11-0.25-0.13-0.52-0.09-0.79c0.01,0.13,0.02,0.27,0.04,0.4c0.02,0.1,0.05,0.21,0.08,0.31
		C29.91,36.32,29.92,36.35,29.86,36.36C29.86,36.36,29.86,36.36,29.86,36.36"/>
	<path class="st68" d="M29.51,36.72c-0.12-0.22-0.17-0.46-0.17-0.73c0.03,0.12,0.05,0.25,0.08,0.37c0.03,0.09,0.06,0.18,0.11,0.27
		C29.55,36.68,29.56,36.7,29.51,36.72"/>
	<path class="st68" d="M29.22,36.64c-0.18-0.48-0.24-0.99-0.22-1.54c0.03,0.26,0.06,0.53,0.11,0.79c0.04,0.2,0.09,0.4,0.15,0.59
		C29.29,36.56,29.3,36.62,29.22,36.64C29.22,36.64,29.22,36.64,29.22,36.64"/>
	<path class="st68" d="M32.93,35.07c-0.17-0.36-0.22-0.74-0.18-1.13c0.03,0.19,0.05,0.39,0.09,0.58c0.03,0.15,0.08,0.29,0.14,0.43
		C33,35.02,33.01,35.06,32.93,35.07L32.93,35.07z"/>
	<path class="st68" d="M33.19,35.14c-0.17-0.36-0.22-0.74-0.18-1.13c0.03,0.19,0.05,0.39,0.09,0.58c0.03,0.15,0.09,0.29,0.14,0.43
		C33.26,35.09,33.28,35.13,33.19,35.14C33.19,35.13,33.19,35.14,33.19,35.14"/>
	<path class="st68" d="M32.18,35.18c-0.15-0.49-0.18-1.01-0.12-1.55c0.02,0.27,0.03,0.53,0.06,0.8c0.02,0.2,0.07,0.4,0.12,0.59
		C32.25,35.11,32.26,35.16,32.18,35.18L32.18,35.18z"/>
	<path class="st68" d="M30.1,36.27c-0.15-0.49-0.18-1.01-0.12-1.55c0.02,0.27,0.03,0.53,0.06,0.8c0.02,0.2,0.07,0.4,0.12,0.59
		C30.18,36.19,30.19,36.25,30.1,36.27C30.1,36.27,30.1,36.27,30.1,36.27"/>
	<path class="st68" d="M31.77,35.28c-0.12-0.53-0.12-1.11-0.04-1.71c0,0.29,0,0.59,0.01,0.88c0.01,0.22,0.05,0.44,0.08,0.65
		C31.85,35.2,31.85,35.26,31.77,35.28L31.77,35.28z"/>
	<path class="st68" d="M31.4,35.39c-0.1-0.63-0.09-1.3,0.02-2.01c-0.01,0.34-0.02,0.69-0.01,1.03c0.01,0.26,0.03,0.52,0.06,0.77
		C31.48,35.29,31.48,35.36,31.4,35.39C31.39,35.39,31.4,35.39,31.4,35.39"/>
	<path class="st68" d="M30.42,35.95c-0.16-0.66-0.2-1.38-0.15-2.14c0.02,0.37,0.04,0.74,0.07,1.1c0.03,0.28,0.08,0.55,0.13,0.81
		C30.5,35.84,30.51,35.91,30.42,35.95C30.42,35.95,30.42,35.95,30.42,35.95"/>
	<path class="st68" d="M30.73,35.67c-0.1-0.63-0.09-1.3,0.02-2.01c-0.01,0.34-0.02,0.69-0.01,1.03c0.01,0.26,0.03,0.52,0.06,0.77
		C30.81,35.56,30.81,35.64,30.73,35.67C30.72,35.66,30.73,35.67,30.73,35.67"/>
	<path class="st68" d="M31.02,35.53c-0.08-0.74-0.05-1.53,0.08-2.37c-0.02,0.41-0.04,0.82-0.04,1.21c0,0.31,0.02,0.61,0.04,0.9
		C31.11,35.41,31.11,35.5,31.02,35.53C31.02,35.53,31.02,35.53,31.02,35.53"/>
	<path class="st68" d="M32.55,35.11c-0.16-0.42-0.2-0.86-0.15-1.32c0.02,0.23,0.04,0.45,0.07,0.68c0.03,0.17,0.08,0.34,0.13,0.51
		C32.63,35.05,32.64,35.1,32.55,35.11C32.55,35.11,32.55,35.11,32.55,35.11"/>
	<path class="st68" d="M33.9,34.8c-0.04-0.27,0-0.53,0.1-0.79c-0.02,0.13-0.04,0.27-0.06,0.4c-0.01,0.1,0,0.21,0.01,0.32
		C33.96,34.78,33.96,34.81,33.9,34.8L33.9,34.8z"/>
	<path class="st68" d="M34.12,34.72c-0.04-0.27,0-0.53,0.1-0.79c-0.02,0.13-0.05,0.27-0.06,0.4c-0.01,0.1,0,0.21,0.01,0.32
		C34.18,34.7,34.18,34.73,34.12,34.72C34.11,34.71,34.12,34.72,34.12,34.72"/>
	<path class="st68" d="M33.69,34.99c-0.06-0.24-0.05-0.49,0.01-0.75c0,0.13-0.01,0.26-0.01,0.38c0,0.1,0.02,0.19,0.04,0.29
		C33.74,34.96,33.74,34.99,33.69,34.99C33.69,34.99,33.69,34.99,33.69,34.99"/>
	<path class="st68" d="M33.53,35.18c-0.01,0.02-0.03,0.03-0.06,0.04c0-0.01-0.01-0.02-0.01-0.02c-0.13-0.48-0.15-1-0.08-1.53
		c0.01,0.26,0.02,0.53,0.04,0.8c0.02,0.2,0.06,0.4,0.1,0.6C33.53,35.12,33.54,35.16,33.53,35.18"/>
	<path class="st68" d="M18.85,21.57c0.26,0.38,0.39,0.8,0.42,1.25c-0.07-0.21-0.13-0.43-0.21-0.64c-0.06-0.16-0.15-0.32-0.24-0.47
		C18.78,21.64,18.75,21.6,18.85,21.57L18.85,21.57z"/>
	<path class="st68" d="M18.58,21.84c0.26,0.38,0.39,0.8,0.42,1.25c-0.07-0.21-0.13-0.43-0.21-0.64c-0.06-0.16-0.15-0.32-0.24-0.47
		C18.51,21.91,18.49,21.87,18.58,21.84C18.59,21.84,18.58,21.84,18.58,21.84"/>
	<path class="st68" d="M19.21,21.45c0.28,0.43,0.45,0.92,0.51,1.45c-0.08-0.25-0.16-0.5-0.26-0.74c-0.08-0.19-0.17-0.36-0.27-0.54
		C19.14,21.53,19.12,21.48,19.21,21.45C19.21,21.45,19.21,21.45,19.21,21.45"/>
	<path class="st68" d="M19.61,21.28c0.29,0.51,0.46,1.09,0.53,1.71c-0.09-0.29-0.17-0.59-0.27-0.88c-0.08-0.22-0.18-0.43-0.28-0.64
		C19.55,21.38,19.52,21.32,19.61,21.28C19.62,21.28,19.61,21.28,19.61,21.28"/>
	<path class="st68" d="M20.02,21.09c0.3,0.61,0.48,1.29,0.56,2.03c-0.09-0.35-0.17-0.7-0.28-1.04c-0.08-0.26-0.19-0.51-0.29-0.76
		C19.96,21.21,19.93,21.14,20.02,21.09C20.03,21.09,20.02,21.09,20.02,21.09"/>
	<path class="st68" d="M20.42,20.88c0.31,0.72,0.5,1.53,0.59,2.4c-0.1-0.41-0.18-0.83-0.3-1.23c-0.09-0.31-0.19-0.61-0.3-0.9
		C20.36,21.02,20.33,20.93,20.42,20.88L20.42,20.88z"/>
	<path class="st68" d="M20.62,20.55c0.56,0.73,1.03,1.58,1.43,2.54c-0.24-0.44-0.48-0.88-0.73-1.31c-0.2-0.33-0.41-0.63-0.62-0.93
		C20.61,20.73,20.56,20.64,20.62,20.55C20.63,20.55,20.62,20.55,20.62,20.55"/>
	<path class="st68" d="M20.95,20.09c0.58,0.64,1.11,1.41,1.6,2.27c-0.27-0.39-0.54-0.79-0.82-1.17c-0.21-0.29-0.44-0.56-0.66-0.82
		C20.98,20.25,20.91,20.17,20.95,20.09L20.95,20.09z"/>
	<path class="st68" d="M19.21,21.45c0.28,0.43,0.45,0.92,0.51,1.45c-0.08-0.25-0.16-0.5-0.26-0.74c-0.08-0.19-0.17-0.36-0.27-0.54
		C19.14,21.53,19.12,21.48,19.21,21.45C19.21,21.45,19.21,21.45,19.21,21.45"/>
	<path class="st68" d="M17.9,22.65c0.1,0.3,0.11,0.61,0.04,0.91c0-0.16,0-0.31-0.02-0.47c-0.01-0.12-0.04-0.24-0.07-0.36
		C17.83,22.69,17.83,22.65,17.9,22.65C17.9,22.65,17.9,22.65,17.9,22.65"/>
	<path class="st68" d="M17.67,22.78c0.1,0.3,0.11,0.61,0.04,0.91c0-0.16,0-0.31-0.02-0.47c-0.01-0.12-0.04-0.24-0.07-0.36
		C17.6,22.82,17.6,22.78,17.67,22.78C17.67,22.79,17.67,22.78,17.67,22.78"/>
	<path class="st68" d="M18.1,22.39c0.12,0.26,0.15,0.54,0.13,0.85c-0.02-0.15-0.03-0.29-0.06-0.44c-0.02-0.11-0.06-0.22-0.1-0.32
		C18.05,22.44,18.04,22.41,18.1,22.39C18.1,22.39,18.1,22.39,18.1,22.39"/>
	<path class="st68" d="M18.3,22.09c0.25,0.53,0.37,1.12,0.4,1.75c-0.06-0.3-0.12-0.6-0.2-0.9c-0.06-0.23-0.15-0.44-0.23-0.66
		C18.23,22.18,18.21,22.12,18.3,22.09C18.31,22.09,18.3,22.09,18.3,22.09"/>
	<path class="st68" d="M24.81,17.91c0.35,0.3,0.58,0.68,0.72,1.11c-0.12-0.19-0.23-0.39-0.37-0.57c-0.1-0.14-0.23-0.27-0.35-0.4
		C24.76,18,24.73,17.96,24.81,17.91C24.82,17.91,24.81,17.91,24.81,17.91"/>
	<path class="st68" d="M23.47,18.06c0.26,0.19,0.44,0.44,0.57,0.73c-0.1-0.13-0.19-0.26-0.29-0.37c-0.08-0.09-0.17-0.17-0.27-0.25
		C23.44,18.12,23.41,18.1,23.47,18.06C23.47,18.06,23.47,18.06,23.47,18.06"/>
	<path class="st68" d="M23.09,18.04c0.26,0.19,0.44,0.44,0.57,0.73c-0.1-0.13-0.19-0.25-0.29-0.37c-0.08-0.09-0.17-0.17-0.27-0.25
		C23.06,18.1,23.03,18.07,23.09,18.04C23.09,18.03,23.09,18.04,23.09,18.04"/>
	<path class="st68" d="M24.29,18c0.25,0.14,0.45,0.36,0.61,0.62c-0.1-0.11-0.2-0.22-0.31-0.32c-0.08-0.08-0.18-0.14-0.27-0.21
		C24.28,18.07,24.26,18.05,24.29,18C24.3,18,24.29,18,24.29,18"/>
	<path class="st68" d="M23.91,18.02c0.43,0.41,0.76,0.91,1.01,1.49c-0.17-0.26-0.33-0.52-0.51-0.77c-0.14-0.19-0.3-0.36-0.46-0.53
		C23.88,18.14,23.83,18.08,23.91,18.02C23.92,18.02,23.91,18.02,23.91,18.02"/>
	<path class="st68" d="M21.13,19.8c0.37,0.27,0.63,0.64,0.81,1.07c-0.14-0.19-0.26-0.38-0.41-0.55c-0.11-0.14-0.25-0.25-0.38-0.37
		C21.08,19.9,21.05,19.86,21.13,19.8C21.14,19.8,21.13,19.8,21.13,19.8"/>
	<path class="st68" d="M21.46,19.59c0.4,0.33,0.6,0.51,0.82,1c-0.15-0.21-0.2-0.19-0.37-0.39c-0.13-0.16-0.27-0.3-0.42-0.44
		C21.42,19.69,21.38,19.65,21.46,19.59C21.46,19.59,21.46,19.59,21.46,19.59"/>
	<path class="st68" d="M21.79,19.29c0.42,0.29,0.77,0.68,1.07,1.17c-0.18-0.2-0.36-0.42-0.54-0.6c-0.15-0.15-0.3-0.27-0.46-0.4
		C21.78,19.41,21.74,19.37,21.79,19.29C21.8,19.29,21.79,19.29,21.79,19.29"/>
	<path class="st68" d="M22.66,18.19c0.39,0.32,0.71,0.75,0.95,1.26c-0.16-0.22-0.32-0.45-0.48-0.65c-0.13-0.16-0.28-0.3-0.42-0.43
		C22.64,18.31,22.6,18.26,22.66,18.19C22.67,18.19,22.66,18.19,22.66,18.19"/>
	<path class="st68" d="M22.04,18.95c0.49,0.47,0.9,1.06,1.23,1.72c-0.21-0.3-0.41-0.6-0.63-0.89c-0.17-0.22-0.35-0.42-0.54-0.62
		C22.02,19.08,21.97,19.02,22.04,18.95C22.05,18.94,22.04,18.95,22.04,18.95"/>
	<path class="st68" d="M22.32,18.52c0.58,0.54,1.09,1.2,1.53,1.96c-0.26-0.34-0.51-0.69-0.78-1.01c-0.21-0.25-0.43-0.48-0.65-0.7
		C22.32,18.67,22.26,18.6,22.32,18.52C22.33,18.52,22.32,18.52,22.32,18.52"/>
	<path class="st68" d="M39.02,26.46c-0.44-0.16-0.8-0.42-1.1-0.76c0.19,0.13,0.36,0.27,0.56,0.39c0.15,0.09,0.32,0.17,0.48,0.24
		C39.03,26.36,39.08,26.39,39.02,26.46C39.01,26.47,39.02,26.46,39.02,26.46"/>
	<path class="st68" d="M39.07,26.09c-0.44-0.16-0.8-0.42-1.1-0.76c0.19,0.13,0.36,0.27,0.56,0.39c0.15,0.09,0.32,0.17,0.48,0.24
		C39.08,25.99,39.13,26.02,39.07,26.09C39.06,26.09,39.07,26.09,39.07,26.09"/>
	<path class="st68" d="M38.8,26.77c-0.49-0.18-0.92-0.48-1.29-0.87c0.22,0.15,0.43,0.31,0.66,0.45c0.18,0.11,0.36,0.19,0.55,0.28
		C38.8,26.66,38.85,26.69,38.8,26.77C38.8,26.77,38.8,26.77,38.8,26.77"/>
	<path class="st68" d="M38.57,27.13c-0.55-0.25-1.03-0.61-1.47-1.07c0.25,0.19,0.49,0.38,0.75,0.55c0.2,0.13,0.41,0.24,0.62,0.35
		C38.56,27.02,38.62,27.05,38.57,27.13C38.57,27.14,38.57,27.13,38.57,27.13"/>
	<path class="st68" d="M38.36,27.52c-0.61-0.32-1.17-0.76-1.68-1.31c0.29,0.23,0.57,0.46,0.86,0.68c0.23,0.16,0.46,0.3,0.7,0.44
		C38.34,27.39,38.41,27.43,38.36,27.52C38.36,27.52,38.36,27.52,38.36,27.52"/>
	<path class="st68" d="M38.17,27.93c-0.69-0.4-1.33-0.94-1.93-1.59c0.33,0.27,0.65,0.56,0.99,0.82c0.26,0.2,0.53,0.38,0.79,0.55
		C38.14,27.78,38.21,27.83,38.17,27.93C38.16,27.93,38.17,27.93,38.17,27.93"/>
	<path class="st68" d="M38.2,28.3c-0.89-0.27-1.79-0.68-2.7-1.22c0.46,0.21,0.92,0.44,1.38,0.63c0.36,0.15,0.71,0.27,1.06,0.39
		C38.11,28.16,38.21,28.2,38.2,28.3C38.2,28.31,38.2,28.3,38.2,28.3"/>
	<path class="st68" d="M38.22,28.87c-0.86-0.18-1.75-0.49-2.67-0.91c0.46,0.16,0.92,0.33,1.37,0.47c0.35,0.11,0.69,0.2,1.03,0.28
		C38.11,28.75,38.2,28.78,38.22,28.87C38.22,28.88,38.22,28.87,38.22,28.87"/>
	<path class="st68" d="M38.8,26.77c-0.49-0.18-0.92-0.48-1.29-0.87c0.22,0.15,0.43,0.31,0.66,0.45c0.18,0.11,0.36,0.19,0.55,0.28
		C38.8,26.66,38.85,26.69,38.8,26.77C38.8,26.77,38.8,26.77,38.8,26.77"/>
	<path class="st68" d="M38.89,25.01c-0.28-0.16-0.5-0.38-0.66-0.65c0.11,0.11,0.22,0.23,0.33,0.34c0.09,0.08,0.2,0.15,0.3,0.22
		C38.91,24.95,38.94,24.97,38.89,25.01L38.89,25.01z"/>
	<path class="st68" d="M38.97,24.77c-0.28-0.16-0.5-0.38-0.66-0.65c0.11,0.11,0.22,0.23,0.33,0.34c0.09,0.08,0.2,0.15,0.3,0.22
		C38.99,24.7,39.02,24.72,38.97,24.77C38.96,24.77,38.97,24.77,38.97,24.77"/>
	<path class="st68" d="M38.92,25.34c-0.26-0.11-0.49-0.3-0.68-0.54c0.12,0.09,0.23,0.2,0.35,0.28c0.09,0.07,0.19,0.12,0.29,0.17
		C38.92,25.27,38.95,25.29,38.92,25.34C38.91,25.34,38.92,25.34,38.92,25.34"/>
	<path class="st68" d="M39.14,25.73c-0.53-0.29-0.98-0.69-1.38-1.18c0.23,0.2,0.46,0.42,0.7,0.61c0.19,0.15,0.39,0.27,0.59,0.4
		C39.14,25.61,39.2,25.65,39.14,25.73C39.14,25.74,39.14,25.73,39.14,25.73"/>
	<path class="st68" d="M36.44,32.85c-0.46-0.05-0.88-0.21-1.26-0.48c0.21,0.08,0.42,0.18,0.64,0.25c0.17,0.05,0.35,0.09,0.52,0.12
		C36.43,32.75,36.48,32.76,36.44,32.85L36.44,32.85"/>
	<path class="st68" d="M37.43,31.95c-0.32-0.01-0.62-0.1-0.9-0.26c0.15,0.05,0.3,0.1,0.46,0.13c0.12,0.03,0.25,0.04,0.37,0.05
		C37.41,31.88,37.45,31.89,37.43,31.95C37.42,31.96,37.43,31.95,37.43,31.95"/>
	<path class="st68" d="M37.75,31.75c-0.32-0.01-0.62-0.1-0.9-0.26c0.15,0.05,0.3,0.1,0.46,0.13c0.12,0.03,0.25,0.04,0.37,0.05
		C37.74,31.69,37.77,31.69,37.75,31.75C37.75,31.76,37.75,31.75,37.75,31.75"/>
	<path class="st68" d="M36.8,32.48c-0.29,0.03-0.58-0.03-0.87-0.15c0.15,0.03,0.3,0.06,0.44,0.08c0.11,0.01,0.23,0.01,0.34,0.01
		C36.77,32.41,36.8,32.42,36.8,32.48C36.8,32.48,36.8,32.48,36.8,32.48"/>
	<path class="st68" d="M37.1,32.24c-0.6-0.08-1.17-0.3-1.73-0.62c0.29,0.11,0.59,0.23,0.88,0.32c0.23,0.07,0.46,0.12,0.69,0.16
		C37.05,32.13,37.12,32.14,37.1,32.24C37.09,32.24,37.1,32.24,37.1,32.24"/>
	<path class="st68" d="M38.25,29.2c-0.47-0.01-0.9-0.15-1.3-0.4c0.22,0.07,0.44,0.15,0.67,0.21c0.17,0.04,0.36,0.06,0.53,0.08
		C38.23,29.1,38.28,29.11,38.25,29.2C38.25,29.21,38.25,29.2,38.25,29.2"/>
	<path class="st68" d="M38.12,29.56c-0.53-0.04-0.79-0.06-1.27-0.33c0.25,0.08,0.28,0.04,0.53,0.11c0.2,0.05,0.4,0.08,0.61,0.11
		C38.09,29.46,38.15,29.47,38.12,29.56C38.12,29.57,38.12,29.56,38.12,29.56"/>
	<path class="st68" d="M38.03,29.99c-0.51,0.01-1.04-0.11-1.57-0.33c0.27,0.06,0.54,0.13,0.8,0.17c0.21,0.03,0.41,0.04,0.61,0.05
		C37.97,29.89,38.03,29.9,38.03,29.99C38.03,30,38.03,29.99,38.03,29.99"/>
	<path class="st68" d="M38,31.38c-0.51-0.03-1.02-0.2-1.54-0.47c0.26,0.08,0.52,0.18,0.79,0.24c0.2,0.05,0.41,0.08,0.61,0.11
		C37.95,31.28,38.01,31.29,38,31.38C38,31.39,38,31.38,38,31.38"/>
	<path class="st68" d="M38.04,30.42c-0.69-0.1-1.36-0.33-2.04-0.68c0.35,0.12,0.7,0.25,1.04,0.35c0.27,0.08,0.54,0.13,0.81,0.19
		C37.98,30.3,38.05,30.32,38.04,30.42L38.04,30.42"/>
	<path class="st68" d="M38.07,30.92c-0.8-0.1-1.61-0.34-2.43-0.7c0.41,0.12,0.83,0.26,1.24,0.36c0.32,0.08,0.64,0.14,0.95,0.19
		C37.98,30.8,38.07,30.82,38.07,30.92C38.07,30.93,38.07,30.92,38.07,30.92"/>
	<path class="st73" d="M27.75,36.18c-0.35,0.13-0.68,0.2-0.89,0.23c-0.57-1.07-0.48-2.25-0.23-3.39c0.15,0.01,0.3,0.02,0.45,0.02
		c0.15,0,0.3,0,0.46-0.01C27.28,34.09,27.13,35.25,27.75,36.18"/>
	<path class="st73" d="M35.68,33.3c-0.25,0.07-0.61,0.13-0.78-0.04c-0.06-0.06-0.12-0.1-0.18-0.13c-0.04-0.14-0.09-0.27-0.15-0.39
		c-0.46-0.87-1.27-1.43-2.12-1.9c0.19-0.22,0.37-0.45,0.52-0.7c1.19,0.68,2.32,1.55,2.66,2.91c0.01,0.05,0.02,0.09,0.03,0.14
		C35.67,33.23,35.67,33.26,35.68,33.3"/>
	<path class="st67" d="M35.28,34.06c-0.1,0.82-0.61,1.58-1.46,1.86c-0.67,0.22-1.45-0.03-2.09,0.25c-0.54,0.23-0.87,0.8-1.38,1.1
		c-0.67,0.39-1.44,0.32-2.07-0.02c-0.13-0.07-0.26-0.16-0.38-0.25c-0.24-0.19-0.44-0.41-0.59-0.66c0-0.01,0.01-0.02,0.01-0.02
		c-0.01,0-0.02,0-0.02,0.01c-0.02-0.03-0.04-0.06-0.05-0.1c-0.53-0.98-0.44-2.06-0.21-3.1c0.14,0.01,0.27,0.02,0.41,0.02
		c0.14,0,0.28,0,0.41-0.01c-0.25,1.01-0.39,2.13,0.28,2.99c0.3,0.38,0.77,0.64,1.27,0.62c0.04,0,0.08-0.01,0.11-0.01
		c0.45-0.06,0.74-0.38,1.06-0.68c0.38-0.36,0.79-0.65,1.33-0.73c0.51-0.08,1.06,0.02,1.57-0.11c0,0.01,0,0.02,0.01,0.02
		c0,0,0,0-0.01,0h0.01v0c0.04-0.01,0.05-0.02,0.06-0.04c0.02-0.01,0.05-0.02,0.08-0.02c0.96-0.33,1.05-1.54,0.65-2.31
		c-0.42-0.79-1.16-1.3-1.93-1.73c0.18-0.2,0.34-0.41,0.48-0.64c1.09,0.62,2.12,1.41,2.43,2.65c0.01,0.04,0.02,0.09,0.03,0.13
		C35.31,33.53,35.32,33.8,35.28,34.06"/>
	<path class="st73" d="M22.36,26.07c-1.45-1.06-3.23-2.19-5.07-1.56c-0.04,0.01-0.08,0.03-0.12,0.05c-0.13-0.34-0.2-0.61-0.24-0.82
		c0,0,0,0,0.01,0c0.18-0.06,0.37-0.12,0.56-0.16c2.03-0.4,3.83,0.69,5.39,1.82c-0.17,0.17-0.32,0.36-0.45,0.56
		C22.4,26,22.38,26.03,22.36,26.07"/>
	<path class="st73" d="M25.9,32.72c-0.38,0.6-0.96,1.33-1.58,1.87c-0.44,0.39-1.04,0.6-1.59,0.7c-0.17-0.16-0.39-0.41-0.59-0.77
		c0.69-0.04,1.29-0.3,1.8-0.79c0.34-0.32,0.89-0.96,1.14-1.34C25.35,32.51,25.62,32.62,25.9,32.72"/>
	<path class="st67" d="M40.1,25.76c0.01,0.47-0.13,0.92-0.31,1.35c-0.21,0.5-0.46,1.01-0.57,1.55c-0.07,0.34-0.01,0.7-0.01,1.05
		c0.03,1.02-0.19,1.99-0.9,2.78c-0.42,0.46-0.98,0.9-1.52,1.21c-0.47,0.27-0.97,0.41-1.51,0.37c0.04-0.26,0.03-0.53-0.03-0.8
		c0.63,0.12,1.21-0.27,1.68-0.63c0.48-0.37,0.94-0.77,1.21-1.32c0.34-0.72,0.24-1.49,0.23-2.25c-0.01-0.85,0.42-1.61,0.71-2.39
		c0.15-0.38,0.23-0.76,0.17-1.16c-0.08-0.51-0.33-1.01-0.59-1.46c-0.46-0.77-1.07-1.43-1.81-1.94c0.06-0.3,0.08-0.6,0.07-0.9
		c1.15,0.67,2.08,1.67,2.67,2.85C39.86,24.59,40.08,25.16,40.1,25.76"/>
	<path class="st72" d="M27.32,36.3c-0.01,0.01-0.01,0.02-0.01,0.02c0-0.01-0.01-0.01-0.01-0.02C27.31,36.3,27.31,36.3,27.32,36.3"/>
	<polyline class="st72" points="33.47,35.22 33.47,35.23 33.46,35.23 33.47,35.22 	"/>
	<path class="st72" d="M33.53,35.18c-0.01,0.02-0.03,0.03-0.06,0.04c0-0.01-0.01-0.02-0.01-0.02C33.49,35.2,33.51,35.19,33.53,35.18
		"/>
	<path class="st67" d="M27.9,36.99c-0.16,0.03-0.33,0.07-0.5,0.11c-0.98,0.21-2.04,0.38-2.99,0.09c-0.49-0.15-0.94-0.39-1.36-0.67
		c-0.55-0.37-1.12-0.82-1.37-1.44c-0.01-0.03-0.02-0.07-0.02-0.1c0.28,0.01,0.56-0.01,0.83-0.06c0.21,0.44,0.77,0.79,1.17,1.04
		c0.35,0.22,0.68,0.39,1.06,0.49c0.8,0.21,1.73,0.04,2.59-0.14c0,0.01,0.01,0.01,0.01,0.02C27.46,36.58,27.66,36.8,27.9,36.99"/>
	<path class="st72" d="M27.32,36.3c-0.01,0.01-0.01,0.02-0.01,0.02c0-0.01-0.01-0.01-0.01-0.02C27.31,36.3,27.31,36.3,27.32,36.3"/>
	<path class="st67" d="M25.27,32.75c-0.36,0.56-0.76,1.1-1.29,1.51c-0.46,0.36-0.96,0.57-1.49,0.66c-0.27,0.05-0.55,0.07-0.83,0.06
		c-0.19,0-0.38-0.02-0.57-0.05c-1.58-0.21-3.39-0.8-4.14-2.3c-0.41-0.82-0.48-1.73-1-2.5c-0.27-0.41-0.59-0.78-0.81-1.23
		c-0.19-0.39-0.3-0.81-0.34-1.24c-0.11-1.27,0.55-2.5,1.6-3.2c0.23-0.15,0.47-0.27,0.73-0.37c0.17-0.06,0.34-0.11,0.53-0.15
		c1.9-0.38,3.58,0.64,5.05,1.71c-0.16,0.16-0.3,0.34-0.42,0.53c-0.02,0.03-0.04,0.06-0.07,0.1c-1.36-0.99-3.02-2.05-4.74-1.46
		c-1.48,0.5-2.24,2.17-1.67,3.58c0.29,0.73,0.91,1.29,1.23,2.01c0.32,0.72,0.38,1.55,0.85,2.2c0.8,1.1,2.5,1.53,3.81,1.58
		c0.78,0.03,1.46-0.21,2.02-0.75c0.31-0.3,0.57-0.65,0.81-1.01C24.75,32.56,25.01,32.66,25.27,32.75"/>
	<path class="st67" d="M26.85,17.64c-0.07,0.07-0.14,0.15-0.21,0.22c-0.11,0.13-0.21,0.28-0.29,0.43c-1.01-0.39-2.12-0.71-3.2-0.49
		c-0.93,0.19-1.65,0.81-2.11,1.61c-0.2,0.35-0.36,0.7-0.68,0.98c-0.27,0.23-0.58,0.39-0.9,0.52c-0.32,0.13-0.66,0.23-0.97,0.39
		c-0.38,0.19-0.68,0.48-0.97,0.77c-0.55,0.55-0.99,1.37-0.4,2.04c-0.26,0.09-0.5,0.22-0.73,0.37c-0.59-0.82-0.4-1.85,0.24-2.63
		c0.33-0.4,0.73-0.79,1.17-1.08c0.33-0.22,0.72-0.35,1.09-0.49c0.37-0.13,0.74-0.29,1.02-0.57c0.34-0.34,0.49-0.85,0.79-1.23
		c0.68-0.86,1.59-1.4,2.7-1.52C24.58,16.84,25.77,17.19,26.85,17.64"/>
	<path class="st67" d="M29.07,41.19h-0.81c-0.08-1.1-0.37-2.33-0.86-4.09c0.17-0.03,0.34-0.07,0.5-0.11
		c0.12,0.1,0.25,0.18,0.38,0.25C28.73,38.92,28.99,40.12,29.07,41.19"/>
	<path class="st73" d="M26.87,23.83c0.01,0.02,0.02,0.04,0.02,0.06c-0.3,0.01-0.6,0.03-0.9,0.08c-0.42-1.04-0.63-2.16-0.61-3.27
		c0.02-0.86,0.14-1.78,0.56-2.55c0.24,0.08,0.53,0.2,0.81,0.32c-0.06,0.09-0.11,0.19-0.15,0.29C25.93,20.32,26.24,22.3,26.87,23.83"
		/>
	<path class="st73" d="M37.22,22.39c-0.07,0.29-0.18,0.58-0.32,0.85c-0.82,1.65-2.62,2.35-4.31,2.89c-0.2-0.23-0.41-0.43-0.64-0.61
		c0.04-0.07,0.12-0.12,0.21-0.15c1.68-0.53,3.59-1.2,4.16-3.01c0.05-0.16,0.09-0.33,0.11-0.5C36.73,22.04,37.03,22.25,37.22,22.39"
		/>
	<path class="st74" d="M32.59,26.13c-0.06,0.02-0.13,0.04-0.19,0.06c-0.15-0.2-0.32-0.39-0.51-0.56c0.01-0.04,0.03-0.08,0.06-0.11
		C32.18,25.7,32.4,25.91,32.59,26.13"/>
	<path class="st67" d="M36.93,21.22c0.01,0.3-0.01,0.6-0.07,0.9c-0.07,0.34-0.18,0.68-0.34,1c-0.76,1.53-2.44,2.19-4.02,2.69
		c-0.18-0.21-0.38-0.4-0.59-0.57c0.04-0.06,0.11-0.11,0.2-0.14c1.56-0.49,3.34-1.11,3.87-2.8c0.42-1.34-0.14-3.03-1.64-3.42
		c-0.78-0.21-1.59,0.13-2.37-0.14c-0.68-0.23-1.21-0.72-1.86-0.99c-1.2-0.51-2.67-0.01-3.18,1.18c-0.63,1.46-0.34,3.31,0.25,4.74
		c0.01,0.02,0.01,0.04,0.02,0.06c-0.28,0.01-0.56,0.03-0.84,0.07c-0.39-0.97-0.59-2.01-0.57-3.05c0.02-0.83,0.14-1.71,0.56-2.45
		c0.08-0.15,0.18-0.29,0.29-0.43c0.07-0.08,0.13-0.15,0.21-0.22c0.99-0.97,2.62-1.12,3.85-0.49c0.39,0.2,0.73,0.46,1.12,0.66
		c0.4,0.21,0.78,0.28,1.24,0.25c0.48-0.03,0.93-0.08,1.41,0.02c0.4,0.09,0.79,0.27,1.12,0.51C36.45,19.23,36.89,20.21,36.93,21.22"
		/>
	<path class="st67" d="M32.51,25.8c-0.06,0.02-0.12,0.04-0.18,0.06c-0.14-0.19-0.3-0.36-0.48-0.52c0.01-0.04,0.03-0.07,0.06-0.1
		C32.12,25.4,32.32,25.59,32.51,25.8"/>
	<path class="st73" d="M32.95,30.23c-0.05,0.09-0.09,0.17-0.15,0.25c-0.14,0.22-0.3,0.44-0.48,0.64c-0.24,0.28-0.52,0.53-0.81,0.75
		c-1.06,0.79-2.36,1.2-3.66,1.25c-0.14,0.01-0.28,0.01-0.41,0.01c-0.14,0-0.27-0.01-0.41-0.02c-0.6-0.04-1.2-0.17-1.76-0.36
		c-0.26-0.09-0.51-0.19-0.76-0.31c-0.38-0.18-0.74-0.4-1.07-0.66c-0.57-0.43-1.05-0.99-1.39-1.62c-0.33-0.63-0.5-1.35-0.46-2.05
		c0.04-0.66,0.27-1.29,0.61-1.83c0.02-0.03,0.04-0.07,0.07-0.1c0.13-0.19,0.27-0.36,0.42-0.53c0,0,0.01,0,0.01,0.01
		c-0.15,0.17-0.28,0.35-0.4,0.54c-0.02,0.03-0.04,0.07-0.06,0.1c-0.32,0.54-0.51,1.16-0.52,1.8c-0.01,0.68,0.18,1.36,0.52,1.94
		c0.34,0.59,0.82,1.1,1.37,1.49c0.34,0.24,0.7,0.44,1.08,0.61c0.25,0.11,0.51,0.21,0.77,0.28c0.54,0.16,1.1,0.25,1.66,0.29
		c0.11,0.01,0.21,0.01,0.32,0.01c0.17,0,0.35-0.01,0.52-0.02c0.5-0.04,1-0.13,1.49-0.27c0.65-0.2,1.27-0.5,1.83-0.89
		c0.25-0.18,0.49-0.39,0.7-0.61c0.19-0.2,0.36-0.4,0.51-0.63c0.06-0.08,0.11-0.17,0.16-0.25c0.34-0.59,0.53-1.27,0.52-1.95
		c-0.01-0.68-0.23-1.34-0.59-1.91c-0.08-0.12-0.16-0.24-0.25-0.35c0.06-0.02,0.12-0.04,0.18-0.06c0.09,0.1,0.17,0.2,0.24,0.31
		c0.41,0.57,0.67,1.28,0.71,2C33.49,28.84,33.3,29.59,32.95,30.23"/>
	<path class="st67" d="M32.58,26.21c-0.08-0.12-0.16-0.24-0.25-0.35c-0.14-0.19-0.3-0.36-0.47-0.52c-0.21-0.2-0.43-0.38-0.67-0.54
		c-0.2-0.13-0.4-0.25-0.61-0.36h0c-0.38-0.19-0.78-0.34-1.18-0.46c-0.63-0.18-1.29-0.27-1.95-0.27c-0.08,0-0.16,0-0.24,0.01
		c-0.28,0.01-0.56,0.03-0.84,0.07c-0.95,0.13-1.87,0.46-2.67,1.01c-0.27,0.19-0.53,0.4-0.77,0.63c-0.08,0.08-0.15,0.16-0.22,0.24
		c-0.15,0.17-0.28,0.35-0.4,0.54c-0.02,0.03-0.04,0.07-0.06,0.1c-0.32,0.54-0.51,1.17-0.52,1.8c-0.01,0.68,0.18,1.36,0.52,1.94
		c0.34,0.59,0.82,1.1,1.37,1.49c0.34,0.24,0.7,0.44,1.08,0.61c0.25,0.11,0.51,0.21,0.77,0.28c0.54,0.16,1.1,0.25,1.66,0.29
		c0.11,0.01,0.21,0.01,0.32,0.01c0.17,0,0.35-0.01,0.52-0.02c0.5-0.04,1-0.13,1.49-0.27c0.65-0.2,1.27-0.5,1.83-0.89
		c0.25-0.18,0.49-0.39,0.7-0.61c0.19-0.2,0.36-0.4,0.51-0.63c0.06-0.08,0.11-0.17,0.16-0.25c0.34-0.59,0.53-1.27,0.52-1.95
		C33.15,27.43,32.93,26.77,32.58,26.21 M32.07,29.73c-0.06,0.1-0.13,0.19-0.2,0.28c-0.14,0.18-0.29,0.35-0.46,0.5v0
		c-0.17,0.16-0.36,0.31-0.56,0.44c-0.49,0.33-1.04,0.57-1.62,0.73c-0.5,0.14-1.03,0.23-1.55,0.25c-0.03,0-0.06,0-0.1,0
		c-0.04,0-0.08,0-0.13,0c-0.59,0-1.19-0.07-1.76-0.23c-0.19-0.05-0.38-0.11-0.56-0.19c-0.38-0.15-0.75-0.33-1.08-0.56
		c-0.49-0.33-0.92-0.74-1.22-1.23c-0.31-0.49-0.49-1.05-0.5-1.62c-0.01-0.52,0.11-1.03,0.35-1.5c0.03-0.05,0.06-0.11,0.09-0.16
		c0.1-0.17,0.21-0.34,0.34-0.5c0.08-0.1,0.17-0.2,0.26-0.3c0.02-0.03,0.05-0.05,0.08-0.08c0.16-0.16,0.34-0.3,0.52-0.43
		c0.79-0.56,1.74-0.9,2.73-1.03h0c0.11-0.02,0.23-0.03,0.34-0.03h0c0.14-0.01,0.27-0.02,0.41-0.02c0.62,0.01,1.25,0.09,1.84,0.27
		c0.37,0.11,0.73,0.26,1.06,0.44c0,0.01,0.01,0.01,0.01,0.01c0.2,0.11,0.39,0.23,0.58,0.36c0.49,0.36,0.91,0.8,1.2,1.32
		c0.29,0.51,0.45,1.08,0.44,1.66C32.56,28.69,32.38,29.25,32.07,29.73"/>
	<path class="st67" d="M31.11,26.47c-0.26-0.41-0.61-0.74-1.01-1c-0.39-0.26-0.83-0.45-1.28-0.57c-0.45-0.13-0.91-0.19-1.38-0.19
		c-0.93-0.01-1.88,0.23-2.66,0.76c-0.39,0.26-0.74,0.6-1,1c-0.26,0.4-0.42,0.88-0.43,1.37c-0.01,0.49,0.12,0.98,0.37,1.41
		c0.24,0.43,0.59,0.79,0.98,1.08c0.8,0.57,1.77,0.85,2.75,0.86c0.49-0.01,0.97-0.07,1.44-0.21c0.47-0.14,0.91-0.36,1.31-0.65
		c0.39-0.29,0.73-0.66,0.97-1.09c0.24-0.43,0.38-0.92,0.37-1.41C31.52,27.36,31.36,26.88,31.11,26.47 M29.76,29.75
		c-0.33,0.22-0.71,0.38-1.1,0.49c-0.39,0.11-0.8,0.17-1.21,0.17c-0.82,0.01-1.65-0.2-2.32-0.65c-0.67-0.44-1.16-1.13-1.18-1.91
		c-0.03-0.78,0.42-1.54,1.1-2.02c0.68-0.49,1.54-0.74,2.4-0.76c0.43,0.01,0.86,0.07,1.27,0.19c0.41,0.12,0.8,0.32,1.13,0.57
		c0.67,0.49,1.12,1.25,1.1,2.03C30.92,28.62,30.43,29.33,29.76,29.75"/>
	<path class="st67" d="M29.14,27.19c-0.13-0.19-0.3-0.34-0.49-0.45c-0.37-0.22-0.79-0.32-1.21-0.33c-0.42-0.01-0.85,0.1-1.22,0.33
		c-0.37,0.22-0.68,0.63-0.71,1.12c-0.03,0.49,0.25,0.96,0.62,1.23c0.37,0.29,0.84,0.42,1.3,0.43c0.46,0.01,0.93-0.13,1.3-0.43
		c0.37-0.28,0.65-0.75,0.62-1.24C29.35,27.61,29.27,27.38,29.14,27.19 M28.77,27.85c-0.02,0.27-0.21,0.51-0.46,0.65
		c-0.26,0.15-0.56,0.22-0.87,0.22c-0.31,0.01-0.62-0.07-0.87-0.22c-0.25-0.15-0.44-0.38-0.46-0.65c-0.03-0.27,0.12-0.56,0.38-0.77
		c0.26-0.2,0.6-0.31,0.95-0.32c0.35-0.01,0.71,0.11,0.96,0.32C28.65,27.29,28.8,27.58,28.77,27.85"/>
</g>
</svg>
