<?xml version="1.0" encoding="utf-8"?>
<!-- Generator: Adobe Illustrator 25.0.1, SVG Export Plug-In . SVG Version: 6.00 Build 0)  -->
<svg version="1.0" id="Layer_1" xmlns="http://www.w3.org/2000/svg" xmlns:xlink="http://www.w3.org/1999/xlink" x="0px" y="0px"
	 viewBox="0 0 35.23 22.28" style="enable-background:new 0 0 35.23 22.28;" xml:space="preserve">
<style type="text/css">
	.st0{fill:#000104;}
	.st1{fill:#FFFFFF;}
	.st2{fill:#EF493E;}
	.st3{opacity:0.6;fill-rule:evenodd;clip-rule:evenodd;fill:#FBBE43;}
	.st4{opacity:0.6;fill-rule:evenodd;clip-rule:evenodd;fill:#EF930E;}
	.st5{opacity:0.6;fill-rule:evenodd;clip-rule:evenodd;fill:#E67906;}
	.st6{fill:#9F8829;}
	.st7{fill:#3972A6;}
	.st8{fill:url(#SVGID_1_);stroke:#2B53A4;stroke-width:0.5;stroke-miterlimit:10;}
	.st9{fill:none;}
	.st10{fill:url(#SVGID_2_);}
	.st11{fill:url(#SVGID_3_);}
	.st12{fill:#B3B3B3;}
	.st13{fill:url(#SVGID_4_);}
	.st14{fill:url(#SVGID_5_);}
	.st15{fill:url(#SVGID_6_);}
	.st16{fill:#FFFFFF;stroke:#FFFFFF;stroke-width:0.25;stroke-miterlimit:10;}
	.st17{fill:#00001D;}
	.st18{fill:#4DA0C5;}
	.st19{fill:url(#SVGID_7_);}
	.st20{fill:#2E6A85;}
	.st21{fill:none;stroke:#144FA1;stroke-width:0.113;stroke-linejoin:round;stroke-miterlimit:10;}
	.st22{fill:#F27337;}
	.st23{fill:#8EB8D4;}
	.st24{fill:#F38056;}
	.st25{fill:#626365;}
	.st26{fill:#EF6D23;}
	.st27{fill:#284B82;}
	.st28{fill:#242956;}
	.st29{fill:#15142A;}
	.st30{fill:#84C343;}
	.st31{fill:#4CA1C6;}
	.st32{fill:#121617;}
	.st33{fill:#CF8966;}
	.st34{fill:#F37639;}
	.st35{opacity:0.3;fill:url(#SVGID_8_);}
	.st36{fill:#373277;}
	.st37{fill:#E61E25;}
	.st38{fill:#2555A5;}
	.st39{fill:#2E225E;}
	.st40{fill:#F8A425;}
	.st41{fill:#2058A7;}
	.st42{fill:none;stroke:#205AA8;stroke-width:0.156;stroke-miterlimit:10;}
	.st43{fill:#49A3C7;}
	.st44{fill-rule:evenodd;clip-rule:evenodd;}
	.st45{fill-rule:evenodd;clip-rule:evenodd;fill:url(#SVGID_9_);}
	.st46{fill-rule:evenodd;clip-rule:evenodd;fill:url(#SVGID_10_);}
	.st47{fill-rule:evenodd;clip-rule:evenodd;fill:url(#SVGID_11_);}
	.st48{fill:#1D2251;}
	.st49{fill:#2260AC;}
	.st50{fill:url(#SVGID_12_);}
	.st51{fill:#FFFFFC;}
	.st52{fill:#4C9FC5;}
	.st53{fill:#28306D;}
	.st54{fill:#4C9EC5;}
	.st55{fill:#28306E;}
	.st56{fill:#29306F;}
	.st57{fill:#F7F7FB;}
	.st58{fill:url(#SVGID_13_);}
	.st59{fill:url(#SVGID_14_);}
	.st60{fill:url(#SVGID_15_);}
	.st61{fill:url(#SVGID_16_);}
	.st62{fill:#10123C;}
	.st63{fill:#F5842C;}
	.st64{fill:#1F305E;}
	.st65{fill:#87BBD1;}
	.st66{fill:#203160;}
	.st67{fill:#235779;}
	.st68{fill:#359FA1;}
	.st69{fill:#A4D1A4;}
	.st70{fill:#B9DBBC;}
	.st71{fill:#C6DDCA;}
	.st72{fill:#662E14;}
	.st73{fill:#1D79A4;}
	.st74{fill:#C14B28;}
	.st75{fill:url(#SVGID_17_);}
	.st76{fill:url(#SVGID_18_);}
	.st77{fill:url(#SVGID_19_);}
	.st78{fill:url(#SVGID_20_);}
	.st79{fill:url(#SVGID_21_);}
	.st80{fill:url(#SVGID_22_);}
	.st81{fill:url(#SVGID_23_);}
	.st82{fill:url(#SVGID_24_);}
	.st83{fill:url(#SVGID_25_);}
	.st84{fill:url(#SVGID_26_);}
	.st85{fill:url(#SVGID_27_);}
	.st86{fill:url(#SVGID_28_);}
	.st87{fill:url(#SVGID_29_);}
	.st88{fill:url(#SVGID_30_);}
	.st89{fill:#1F164B;}
	.st90{clip-path:url(#SVGID_32_);fill:#253D97;}
	.st91{fill:url(#SVGID_33_);}
	.st92{fill:url(#SVGID_34_);}
	.st93{fill:url(#SVGID_35_);}
	.st94{fill:url(#SVGID_36_);}
	.st95{fill:url(#SVGID_37_);}
	.st96{fill:url(#SVGID_38_);}
	.st97{fill:url(#SVGID_39_);}
	.st98{fill:url(#SVGID_40_);}
	.st99{fill:url(#SVGID_41_);}
	.st100{fill:#443F41;}
	.st101{fill:#28306F;}
	.st102{fill:#71C49D;}
	.st103{fill:#F0C6A7;}
	.st104{fill:#DB8D82;}
	.st105{fill:#EFB7AC;}
	.st106{opacity:0.21;}
	.st107{fill-rule:evenodd;clip-rule:evenodd;fill:#A9196E;}
	.st108{fill-rule:evenodd;clip-rule:evenodd;fill:#FBE42C;}
	.st109{fill:#FBE42C;}
	.st110{fill:#A9196E;}
	.st111{fill:#7FC143;}
	.st112{clip-path:url(#SVGID_45_);fill:#7FC143;}
	.st113{clip-path:url(#SVGID_51_);fill:#7FC143;}
	.st114{fill:#243F8F;}
	.st115{fill:#EF4E2F;}
	.st116{fill:#010007;}
	.st117{fill:#0C0D37;}
	.st118{fill:#FBAF2D;}
	.st119{fill:url(#SVGID_54_);}
	.st120{fill-rule:evenodd;clip-rule:evenodd;fill:#FFFFFF;}
	.st121{fill:#1D4690;}
	.st122{fill:#3AA949;}
	.st123{fill:#F37A24;}
	.st124{fill:none;stroke:#F37A24;stroke-width:3.7145;stroke-miterlimit:10;}
	.st125{fill:#3AA949;stroke:#FFFFFF;stroke-width:1.3104;stroke-miterlimit:10;}
	.st126{fill:#46A2BB;}
	.st127{fill:#7153A0;}
	.st128{fill:#27316C;}
	.st129{fill:#2C65AE;}
	.st130{fill:#452D7A;}
	.st131{fill:#442C7A;}
	.st132{fill:#1A2642;}
	.st133{fill-rule:evenodd;clip-rule:evenodd;fill:#567EB8;}
	.st134{fill-rule:evenodd;clip-rule:evenodd;fill:#6A7EB8;}
	.st135{fill-rule:evenodd;clip-rule:evenodd;fill:#6A7EB9;}
	.st136{fill-rule:evenodd;clip-rule:evenodd;fill:#EE3C2D;}
	.st137{fill-rule:evenodd;clip-rule:evenodd;fill:#EF493F;}
	.st138{fill-rule:evenodd;clip-rule:evenodd;fill:#ED2C24;}
	.st139{fill-rule:evenodd;clip-rule:evenodd;fill:#E9AE28;}
	.st140{fill-rule:evenodd;clip-rule:evenodd;fill:#D69B28;}
	.st141{fill-rule:evenodd;clip-rule:evenodd;fill:#FCB729;}
	.st142{fill-rule:evenodd;clip-rule:evenodd;fill:#409E47;}
	.st143{fill-rule:evenodd;clip-rule:evenodd;fill:#4BB450;}
	.st144{fill-rule:evenodd;clip-rule:evenodd;fill:#338440;}
	.st145{fill:#C09C36;}
	.st146{fill:#1E552A;}
	.st147{clip-path:url(#SVGID_56_);fill:url(#SVGID_57_);}
	.st148{fill:#023A1E;}
	.st149{fill:#FFFFFA;}
	.st150{fill:#0D4F28;}
	.st151{fill:#0E5128;}
	.st152{fill:#0D4E27;}
	.st153{fill:#0E5229;}
	.st154{fill:#0E4823;}
	.st155{fill:#0E4C27;}
	.st156{fill:#F3F6E0;}
	.st157{fill:#0E4F28;}
	.st158{fill:#114823;}
	.st159{fill:#105229;}
	.st160{fill:#0A4A2B;}
	.st161{fill:#134F27;}
	.st162{fill:#165229;}
	.st163{fill:#0D5029;}
	.st164{fill:#0B4E2B;}
	.st165{fill:#105028;}
	.st166{fill:#0A492A;}
	.st167{fill:#E9F3E2;}
	.st168{fill:#144D26;}
	.st169{fill:#185C2F;}
	.st170{fill:#0F5028;}
	.st171{fill:#F3F8EA;}
	.st172{fill:#114D26;}
	.st173{fill:#70A685;}
	.st174{fill:#0D4F2A;}
	.st175{fill:#094A24;}
	.st176{fill:#0F4F27;}
	.st177{fill:#0A4C26;}
	.st178{fill:#A2D29A;}
	.st179{fill:#4D7E44;}
	.st180{fill:#E8F2E1;}
	.st181{fill:#EDF5E5;}
	.st182{fill:#E6F2E7;}
	.st183{fill:#E5F1DC;}
	.st184{fill:#E9F3E3;}
	.st185{fill:#E9F3E5;}
	.st186{fill:#E5F1DB;}
	.st187{fill:#D8ECD7;}
	.st188{fill:#D9EBD4;}
	.st189{fill:#E2F0DE;}
	.st190{fill:#366B4B;}
	.st191{fill:#5D6162;}
	.st192{fill:#212E5F;}
	.st193{fill:#DD1F26;}
	.st194{clip-path:url(#SVGID_59_);}
	.st195{fill:#23396F;}
	.st196{fill:#7FC24E;}
	.st197{clip-path:url(#SVGID_59_);fill:#23396F;}
	.st198{clip-path:url(#SVGID_59_);fill:#7FC24E;}
	.st199{fill:#91CEA4;}
	.st200{fill:#90CEA4;}
	.st201{fill:#C02026;}
	.st202{fill:#362E7E;}
</style>
<g id="XMLID_00000065781505845510116320000004364589843262767253_">
	<g>
		<g id="XMLID_145_">
			<g id="XMLID_162_">
				<path d="M19.23,22.25v-0.24c2.72-0.86,4.45-2.01,4.39-3.65c-0.56-0.96-1.68-1.95-3.08-2.95c-1.26-0.95-1.41-2.15-0.56-3.58
					c1.03-1.2,2.18-2.14,3.46-2.8c0.71-0.13,1.33,0.2,1.81,0.83c0.4,0.37,0.55,0.79,0.15,1.16c-0.55,0.67-1.25,0.98-2.44,1.58
					c-1.14,0.98-1.37,2.04-0.67,2.8c1.43,0.78,2.83,1.64,3.25,2.22c0.6,0.57,0.81,1.27-0.2,2.37c-1.03,0.84-2.21,1.53-3.6,1.98
					C20.84,22.21,19.98,22.34,19.23,22.25"/>
			</g>
			<g id="XMLID_159_">
				<g>
					<path d="M8.1,19.28H6.32l-0.7-1.63H2.39l-0.67,1.63H0l3.14-7.17h1.72L8.1,19.28z M5.1,16.45l-1.11-2.66l-1.09,2.66H5.1z"/>
				</g>
			</g>
			<g id="XMLID_158_">
				<polygon points="8.16,19.28 8.16,12.11 9.71,12.11 9.71,15.92 11.52,14.09 13.42,14.09 11.42,15.99 13.57,19.28 11.9,19.28 
					10.43,16.95 9.71,17.62 9.71,19.28 				"/>
			</g>
			<g id="XMLID_155_">
				<g>
					<path d="M15.49,15.78l-1.4-0.23c0.16-0.5,0.43-0.87,0.81-1.12c0.39-0.24,0.96-0.36,1.72-0.36c0.69,0,1.2,0.07,1.54,0.22
						c0.34,0.15,0.57,0.33,0.71,0.55c0.14,0.22,0.21,0.63,0.21,1.23l-0.02,1.6c0,0.46,0.03,0.79,0.07,1.01
						c0.05,0.22,0.14,0.45,0.28,0.7h-1.53c-0.04-0.09-0.09-0.23-0.15-0.41c-0.03-0.08-0.04-0.14-0.05-0.16
						c-0.26,0.23-0.55,0.4-0.85,0.51c-0.3,0.11-0.62,0.17-0.96,0.17c-0.6,0-1.08-0.14-1.42-0.44c-0.35-0.29-0.52-0.66-0.52-1.1
						c0-0.29,0.08-0.56,0.24-0.79c0.16-0.23,0.38-0.41,0.66-0.53c0.28-0.12,0.69-0.23,1.23-0.32c0.72-0.12,1.22-0.23,1.5-0.34v-0.14
						c0-0.26-0.07-0.45-0.22-0.56c-0.15-0.11-0.42-0.17-0.83-0.17c-0.28,0-0.49,0.05-0.64,0.14C15.71,15.37,15.58,15.54,15.49,15.78
						 M17.56,16.89c-0.2,0.06-0.51,0.13-0.94,0.21c-0.43,0.08-0.71,0.16-0.84,0.24c-0.2,0.13-0.3,0.29-0.3,0.48
						c0,0.19,0.08,0.36,0.24,0.5c0.16,0.14,0.37,0.21,0.62,0.21c0.28,0,0.55-0.08,0.8-0.24c0.19-0.12,0.31-0.28,0.37-0.45
						c0.04-0.12,0.06-0.34,0.06-0.67V16.89z"/>
				</g>
			</g>
			<g id="XMLID_152_">
				<g>
					<path d="M27.02,13.38v-1.27h1.55v1.27H27.02z M27.02,19.28v-5.19h1.55v5.19H27.02z"/>
				</g>
			</g>
			<g id="XMLID_149_">
				<g>
					<path d="M31.3,15.67l-1.4-0.23c0.16-0.5,0.43-0.87,0.81-1.12c0.39-0.24,0.96-0.36,1.72-0.36c0.69,0,1.2,0.07,1.54,0.22
						c0.34,0.15,0.57,0.33,0.71,0.55c0.14,0.22,0.21,0.63,0.21,1.23l-0.02,1.6c0,0.46,0.03,0.79,0.07,1.01
						c0.05,0.22,0.14,0.45,0.28,0.7H33.7c-0.04-0.09-0.09-0.23-0.15-0.41c-0.03-0.08-0.04-0.14-0.05-0.16
						c-0.26,0.23-0.55,0.4-0.85,0.51c-0.3,0.11-0.62,0.17-0.96,0.17c-0.6,0-1.08-0.14-1.42-0.44c-0.35-0.29-0.52-0.66-0.52-1.1
						c0-0.29,0.08-0.56,0.24-0.79c0.16-0.23,0.38-0.41,0.66-0.53c0.28-0.12,0.69-0.23,1.23-0.32c0.72-0.12,1.22-0.23,1.5-0.34v-0.14
						c0-0.26-0.07-0.45-0.22-0.56c-0.15-0.11-0.42-0.17-0.83-0.17c-0.28,0-0.49,0.05-0.64,0.14C31.52,15.26,31.4,15.43,31.3,15.67
						 M33.37,16.79c-0.2,0.06-0.51,0.13-0.94,0.21s-0.71,0.16-0.84,0.24c-0.2,0.13-0.3,0.29-0.3,0.48c0,0.19,0.08,0.36,0.24,0.5
						s0.37,0.21,0.62,0.21c0.28,0,0.55-0.08,0.8-0.24c0.19-0.12,0.31-0.28,0.37-0.45c0.04-0.12,0.06-0.34,0.06-0.67V16.79z"/>
				</g>
			</g>
			<g id="XMLID_148_">
				<path d="M23.1,8.88c0,0-4.63-0.8-4.29-4.82C18.82,4.05,22.88,5.05,23.1,8.88"/>
			</g>
			<g id="XMLID_147_">
				<path d="M24.42,9c0,0,4.63-0.8,4.29-4.82C28.71,4.17,24.66,5.17,24.42,9"/>
			</g>
			<g id="XMLID_146_">
				<path d="M23.84,0.04V0c0,0.01-0.01,0.01-0.01,0.02c0-0.01-0.01-0.01-0.01-0.02v0.04C20.31,4.9,23.8,8.5,23.8,8.5
					c0.01-0.02,0.02-0.04,0.03-0.06c0.01,0.02,0.02,0.04,0.03,0.06C23.86,8.5,27.35,4.9,23.84,0.04"/>
			</g>
		</g>
	</g>
</g>
</svg>
