<?xml version="1.0" encoding="utf-8"?>
<!-- Generator: Adobe Illustrator 25.0.1, SVG Export Plug-In . SVG Version: 6.00 Build 0)  -->
<svg version="1.0" id="Layer_1" xmlns="http://www.w3.org/2000/svg" xmlns:xlink="http://www.w3.org/1999/xlink" x="0px" y="0px"
	 viewBox="0 0 62.56 16.23" style="enable-background:new 0 0 62.56 16.23;" xml:space="preserve">
<style type="text/css">
	.st0{fill:#000104;}
	.st1{fill:#FFFFFF;}
	.st2{fill:#EF493E;}
	.st3{opacity:0.6;fill-rule:evenodd;clip-rule:evenodd;fill:#FBBE43;}
	.st4{opacity:0.6;fill-rule:evenodd;clip-rule:evenodd;fill:#EF930E;}
	.st5{opacity:0.6;fill-rule:evenodd;clip-rule:evenodd;fill:#E67906;}
	.st6{fill:#9F8829;}
	.st7{fill:#3972A6;}
	.st8{fill:url(#SVGID_1_);stroke:#2B53A4;stroke-width:0.5;stroke-miterlimit:10;}
	.st9{fill:none;}
	.st10{fill:url(#SVGID_2_);}
	.st11{fill:url(#SVGID_3_);}
	.st12{fill:#B3B3B3;}
	.st13{fill:url(#SVGID_4_);}
	.st14{fill:url(#SVGID_5_);}
	.st15{fill:url(#SVGID_6_);}
	.st16{fill:#FFFFFF;stroke:#FFFFFF;stroke-width:0.25;stroke-miterlimit:10;}
	.st17{fill:#00001D;}
	.st18{fill:#4DA0C5;}
	.st19{fill:url(#SVGID_7_);}
	.st20{fill:#2E6A85;}
	.st21{fill:none;stroke:#144FA1;stroke-width:0.113;stroke-linejoin:round;stroke-miterlimit:10;}
	.st22{fill:#F27337;}
	.st23{fill:#8EB8D4;}
	.st24{fill:#F38056;}
	.st25{fill:#626365;}
	.st26{fill:#EF6D23;}
	.st27{fill:#284B82;}
	.st28{fill:#242956;}
	.st29{fill:#15142A;}
	.st30{fill:#84C343;}
	.st31{fill:#4CA1C6;}
	.st32{fill:#121617;}
	.st33{fill:#CF8966;}
	.st34{fill:#F37639;}
	.st35{opacity:0.3;fill:url(#SVGID_8_);}
	.st36{fill:#373277;}
	.st37{fill:#E61E25;}
	.st38{fill:#2555A5;}
	.st39{fill:#2E225E;}
	.st40{fill:#F8A425;}
	.st41{fill:#2058A7;}
	.st42{fill:none;stroke:#205AA8;stroke-width:0.156;stroke-miterlimit:10;}
	.st43{fill:#49A3C7;}
	.st44{fill-rule:evenodd;clip-rule:evenodd;}
	.st45{fill-rule:evenodd;clip-rule:evenodd;fill:url(#SVGID_9_);}
	.st46{fill-rule:evenodd;clip-rule:evenodd;fill:url(#SVGID_10_);}
	.st47{fill-rule:evenodd;clip-rule:evenodd;fill:url(#SVGID_11_);}
	.st48{fill:#1D2251;}
	.st49{fill:#2260AC;}
	.st50{fill:url(#SVGID_12_);}
	.st51{fill:#FFFFFC;}
	.st52{fill:#4C9FC5;}
	.st53{fill:#28306D;}
	.st54{fill:#4C9EC5;}
	.st55{fill:#28306E;}
	.st56{fill:#29306F;}
	.st57{fill:#F7F7FB;}
	.st58{fill:url(#SVGID_13_);}
	.st59{fill:url(#SVGID_14_);}
	.st60{fill:url(#SVGID_15_);}
	.st61{fill:url(#SVGID_16_);}
	.st62{fill:#10123C;}
	.st63{fill:#F5842C;}
	.st64{fill:#1F305E;}
	.st65{fill:#87BBD1;}
	.st66{fill:#203160;}
	.st67{fill:#235779;}
	.st68{fill:#359FA1;}
	.st69{fill:#A4D1A4;}
	.st70{fill:#B9DBBC;}
	.st71{fill:#C6DDCA;}
	.st72{fill:#662E14;}
	.st73{fill:#1D79A4;}
	.st74{fill:#C14B28;}
	.st75{fill:url(#SVGID_17_);}
	.st76{fill:url(#SVGID_18_);}
	.st77{fill:url(#SVGID_19_);}
	.st78{fill:url(#SVGID_20_);}
	.st79{fill:url(#SVGID_21_);}
	.st80{fill:url(#SVGID_22_);}
	.st81{fill:url(#SVGID_23_);}
	.st82{fill:url(#SVGID_24_);}
	.st83{fill:url(#SVGID_25_);}
	.st84{fill:url(#SVGID_26_);}
	.st85{fill:url(#SVGID_27_);}
	.st86{fill:url(#SVGID_28_);}
	.st87{fill:url(#SVGID_29_);}
	.st88{fill:url(#SVGID_30_);}
	.st89{fill:#1F164B;}
	.st90{clip-path:url(#SVGID_32_);fill:#253D97;}
	.st91{fill:url(#SVGID_33_);}
	.st92{fill:url(#SVGID_34_);}
	.st93{fill:url(#SVGID_35_);}
	.st94{fill:url(#SVGID_36_);}
	.st95{fill:url(#SVGID_37_);}
	.st96{fill:url(#SVGID_38_);}
	.st97{fill:url(#SVGID_39_);}
	.st98{fill:url(#SVGID_40_);}
	.st99{fill:url(#SVGID_41_);}
	.st100{fill:#443F41;}
	.st101{fill:#28306F;}
	.st102{fill:#71C49D;}
	.st103{fill:#F0C6A7;}
	.st104{fill:#DB8D82;}
	.st105{fill:#EFB7AC;}
	.st106{opacity:0.21;}
	.st107{fill-rule:evenodd;clip-rule:evenodd;fill:#A9196E;}
	.st108{fill-rule:evenodd;clip-rule:evenodd;fill:#FBE42C;}
	.st109{fill:#FBE42C;}
	.st110{fill:#A9196E;}
	.st111{fill:#7FC143;}
	.st112{clip-path:url(#SVGID_45_);fill:#7FC143;}
	.st113{clip-path:url(#SVGID_51_);fill:#7FC143;}
	.st114{fill:#243F8F;}
	.st115{fill:#EF4E2F;}
	.st116{fill:#010007;}
	.st117{fill:#0C0D37;}
	.st118{fill:#FBAF2D;}
	.st119{fill:url(#SVGID_54_);}
	.st120{fill-rule:evenodd;clip-rule:evenodd;fill:#FFFFFF;}
	.st121{fill:#1D4690;}
	.st122{fill:#3AA949;}
	.st123{fill:#F37A24;}
	.st124{fill:none;stroke:#F37A24;stroke-width:3.7145;stroke-miterlimit:10;}
	.st125{fill:#3AA949;stroke:#FFFFFF;stroke-width:1.3104;stroke-miterlimit:10;}
	.st126{fill:#46A2BB;}
	.st127{fill:#7153A0;}
	.st128{fill:#27316C;}
	.st129{fill:#2C65AE;}
	.st130{fill:#452D7A;}
	.st131{fill:#442C7A;}
	.st132{fill:#1A2642;}
	.st133{fill-rule:evenodd;clip-rule:evenodd;fill:#567EB8;}
	.st134{fill-rule:evenodd;clip-rule:evenodd;fill:#6A7EB8;}
	.st135{fill-rule:evenodd;clip-rule:evenodd;fill:#6A7EB9;}
	.st136{fill-rule:evenodd;clip-rule:evenodd;fill:#EE3C2D;}
	.st137{fill-rule:evenodd;clip-rule:evenodd;fill:#EF493F;}
	.st138{fill-rule:evenodd;clip-rule:evenodd;fill:#ED2C24;}
	.st139{fill-rule:evenodd;clip-rule:evenodd;fill:#E9AE28;}
	.st140{fill-rule:evenodd;clip-rule:evenodd;fill:#D69B28;}
	.st141{fill-rule:evenodd;clip-rule:evenodd;fill:#FCB729;}
	.st142{fill-rule:evenodd;clip-rule:evenodd;fill:#409E47;}
	.st143{fill-rule:evenodd;clip-rule:evenodd;fill:#4BB450;}
	.st144{fill-rule:evenodd;clip-rule:evenodd;fill:#338440;}
	.st145{fill:#C09C36;}
	.st146{fill:#1E552A;}
	.st147{clip-path:url(#SVGID_56_);fill:url(#SVGID_57_);}
	.st148{fill:#023A1E;}
	.st149{fill:#FFFFFA;}
	.st150{fill:#0D4F28;}
	.st151{fill:#0E5128;}
	.st152{fill:#0D4E27;}
	.st153{fill:#0E5229;}
	.st154{fill:#0E4823;}
	.st155{fill:#0E4C27;}
	.st156{fill:#F3F6E0;}
	.st157{fill:#0E4F28;}
	.st158{fill:#114823;}
	.st159{fill:#105229;}
	.st160{fill:#0A4A2B;}
	.st161{fill:#134F27;}
	.st162{fill:#165229;}
	.st163{fill:#0D5029;}
	.st164{fill:#0B4E2B;}
	.st165{fill:#105028;}
	.st166{fill:#0A492A;}
	.st167{fill:#E9F3E2;}
	.st168{fill:#144D26;}
	.st169{fill:#185C2F;}
	.st170{fill:#0F5028;}
	.st171{fill:#F3F8EA;}
	.st172{fill:#114D26;}
	.st173{fill:#70A685;}
	.st174{fill:#0D4F2A;}
	.st175{fill:#094A24;}
	.st176{fill:#0F4F27;}
	.st177{fill:#0A4C26;}
	.st178{fill:#A2D29A;}
	.st179{fill:#4D7E44;}
	.st180{fill:#E8F2E1;}
	.st181{fill:#EDF5E5;}
	.st182{fill:#E6F2E7;}
	.st183{fill:#E5F1DC;}
	.st184{fill:#E9F3E3;}
	.st185{fill:#E9F3E5;}
	.st186{fill:#E5F1DB;}
	.st187{fill:#D8ECD7;}
	.st188{fill:#D9EBD4;}
	.st189{fill:#E2F0DE;}
	.st190{fill:#366B4B;}
	.st191{fill:#5D6162;}
	.st192{fill:#212E5F;}
	.st193{fill:#DD1F26;}
	.st194{clip-path:url(#SVGID_59_);}
	.st195{fill:#23396F;}
	.st196{fill:#7FC24E;}
	.st197{clip-path:url(#SVGID_59_);fill:#23396F;}
	.st198{clip-path:url(#SVGID_59_);fill:#7FC24E;}
	.st199{fill:#91CEA4;}
	.st200{fill:#90CEA4;}
	.st201{fill:#C02026;}
	.st202{fill:#362E7E;}
</style>
<g>
	<g>
		<g>
			<path class="st40" d="M57.93,5.58c-0.46,0-0.84,0.37-0.84,0.84c0,0.46,0.37,0.84,0.84,0.84c0.7,0,0.84-0.21,0.84-0.84
				C58.77,5.96,58.39,5.58,57.93,5.58z"/>
			<path class="st40" d="M47.96,0.29v2.26l0.24-0.68c1.02-0.27,2.16-0.41,3.23-0.41c3.94,0,7.49,1.9,9.66,4.84
				c0.37,0.5,0.07,1.86,0.64,2.21c0,0,0.43,1.32-0.13,2.06c0-0.79,0.06-1.4-0.39-1.29c-0.45,0.11-0.79-0.07-1.01-0.29
				c-0.22-0.22-1.35,0.06-1.53,0.24c-0.18,0.18-0.67-0.6,0.26-0.85c0.92-0.25,2.19-1.19,1.07-2.43c-1.12-1.24-3.28-3.36-6.19-1.96
				c-0.92,0.61-4.08,4.03-1.89,7.24c-1.65-0.63-3.1-1.31-3.96-1.09v2.14c0.86-0.85,3.35-1.71,6.29,1.73h8.31V2.83V0.29H47.96z
				 M57.22,12.41c-0.49,1.29-0.86-0.07-0.6-1.28c1-4.72-2.6-5.14-3.17-3.81c-0.96,2.25,0.45,3.75,2.73,5.26c0,0-0.45-0.05-0.61-0.12
				c-1.71-0.6-2.79-1.54-3.36-3.96c-0.44-1.85,0.47-2.98,0.47-2.98s-0.02,0.21-0.16,1.03c0.23-0.84,0.23-1.18,0.96-1.91
				c-0.21,0.21-0.04,0.28-0.33,1.32c0.19-0.61,0.44-1.36,1.23-1.86c-0.15,0.15-0.11,0.18-0.74,1.25c1.07-1.27,1.61-1.35,1.87-1.55
				c-0.54,0.37-0.55,0.61-1.13,1.29c0.79-0.7,1.51-1.05,2.02-1.21c-0.49,0.25-0.74,0.73-1.08,1.11c0.56-0.56,1.84-0.82,2.21-0.76
				c-2.25,0.8-1.31,0.86-1.17,0.78c1.87-1.27,3.17,0.42,3.34,1.59c0.17,1.17-0.4,1.32-0.24,0.87c0.16-0.45-0.14-1.38-0.37-1.76
				c-0.73-1.13-2.62-0.91-2.48,0.76c0.14,1.67,1.7,1.4,2.14,1.45c0.44,0.05,0.49-0.52,0.55-0.12c0.06,0.4-0.43,0.35-0.81,0.47
				c-1.05,0.34-0.42,1.04-0.1,1.22C57.58,10.34,57.71,11.12,57.22,12.41z M59.07,6.42c0,0.86-0.19,1.14-1.14,1.14
				c-0.63,0-1.14-0.51-1.14-1.14c0-0.63,0.51-1.14,1.14-1.14C58.56,5.28,59.07,5.79,59.07,6.42z"/>
		</g>
		<g>
			<path class="st40" d="M14.2,12.54v0.83c-0.91-0.03-1.7-0.04-2.37-0.04c-0.52,0-1.03,0.01-1.51,0.04
				c-0.18-0.37-0.69-1.02-1.5-1.96L6.08,8.23C5.51,7.56,5.14,7.17,4.97,7.06c-0.1-0.07-0.2-0.11-0.3-0.11
				c-0.08,0-0.14,0.03-0.18,0.08C4.47,7.06,4.45,7.14,4.45,7.28v2.15c0,0.11,0.01,0.75,0.04,1.91c0.01,0.49,0.05,0.8,0.13,0.92
				c0.05,0.07,0.13,0.13,0.27,0.17c0.13,0.05,0.56,0.08,1.29,0.11v0.83c-1.05-0.04-2.16-0.06-3.34-0.06c-1.04,0-1.97,0.02-2.77,0.06
				v-0.83c0.64-0.03,1.06-0.08,1.26-0.13c0.07-0.02,0.13-0.06,0.18-0.11c0.05-0.05,0.09-0.14,0.11-0.26
				c0.03-0.12,0.05-0.36,0.08-0.73c0.06-0.94,0.09-1.64,0.09-2.09V5.75L1.72,2.76c-0.01-0.72-0.05-1.2-0.1-1.44
				C1.6,1.19,1.56,1.1,1.51,1.06c-0.05-0.04-0.11-0.08-0.2-0.1C1.18,0.92,0.74,0.88,0,0.84V0c0.81,0.04,1.75,0.06,2.81,0.06
				C4,0.06,5.13,0.04,6.18,0v0.84C5.41,0.85,4.95,0.91,4.79,0.99c-0.1,0.06-0.17,0.18-0.21,0.36C4.5,1.77,4.45,2.56,4.45,3.72v2.64
				l0.16,0.07c0.6-0.48,1.42-1.25,2.47-2.33l1.36-1.39c0.51-0.52,0.9-0.94,1.16-1.24l0.47-0.55l0.14-0.17V0.63
				c0-0.13-0.01-0.34-0.03-0.63c0.66,0.02,1.1,0.03,1.31,0.03L13.73,0v0.77c-0.48,0.01-0.83,0.04-1.03,0.09
				c-0.2,0.04-0.38,0.11-0.53,0.2c-0.23,0.13-0.6,0.42-1.13,0.87c-0.32,0.28-0.95,0.85-1.9,1.72L7.26,5.47
				c0.24,0.33,0.68,0.86,1.3,1.6l2.09,2.46c0.95,1.1,1.59,1.84,1.95,2.22c0.36,0.38,0.62,0.61,0.78,0.68
				C13.55,12.51,13.82,12.54,14.2,12.54z"/>
			<path class="st40" d="M15.21,13.37v-0.81c0.71-0.05,1.13-0.1,1.27-0.15c0.08-0.03,0.14-0.07,0.19-0.13
				c0.05-0.06,0.09-0.17,0.1-0.32c0.03-0.18,0.07-0.89,0.11-2.13c0.03-0.61,0.04-1.91,0.04-3.93c0-1.02-0.01-2.06-0.04-3.11
				c-0.01-0.85-0.05-1.36-0.11-1.55c-0.02-0.09-0.06-0.16-0.12-0.2C16.6,1,16.49,0.96,16.33,0.94c-0.42-0.07-0.79-0.11-1.12-0.12V0
				c1.31,0.05,2.22,0.07,2.73,0.07c0.66,0,1.31-0.02,1.97-0.07c0.05,0.11,0.15,0.33,0.29,0.65c0.27,0.63,0.49,1.1,0.65,1.44
				l0.44,0.99c0.04,0.09,0.08,0.17,0.12,0.26l3.04,6.27l1.03-2.05l0.43-0.88l1.27-2.64l1.31-2.79C28.64,0.9,28.82,0.49,29,0
				c0.83,0.05,1.37,0.07,1.62,0.07L33.55,0v0.81h-0.14c-0.24,0-0.5,0.02-0.77,0.05c-0.21,0.03-0.37,0.08-0.48,0.15
				c-0.11,0.07-0.18,0.16-0.22,0.26c-0.07,0.18-0.1,0.4-0.1,0.67v0.29l-0.06,3.6v3.36l-0.01,0.68c0,0.35,0.02,0.81,0.07,1.37
				c0.04,0.56,0.08,0.88,0.1,0.95c0.03,0.07,0.06,0.13,0.11,0.17c0.07,0.06,0.17,0.1,0.31,0.12c0.07,0.01,0.43,0.04,1.09,0.09v0.81
				l-3.07-0.06l-3.02,0.06v-0.81c0.82-0.03,1.29-0.07,1.4-0.14c0.12-0.07,0.2-0.22,0.24-0.45c0.05-0.24,0.08-1.03,0.08-2.37l0-6.96
				l-2.22,4.48l-0.98,2.02c-0.77,1.62-1.42,3.04-1.95,4.26l-0.68-0.03c-0.17-0.35-0.37-0.72-0.6-1.14c-0.73-1.58-1.43-3.07-2.1-4.46
				l-2.51-5.13v4.69c0,0.78,0.01,1.71,0.03,2.79c0.03,1.08,0.05,1.69,0.08,1.84c0.03,0.15,0.06,0.25,0.12,0.31
				c0.05,0.06,0.14,0.11,0.27,0.16c0.16,0.05,0.57,0.09,1.23,0.13v0.81l-1.07-0.05c-0.22-0.01-0.6-0.01-1.12-0.01
				C16.57,13.32,15.79,13.33,15.21,13.37z"/>
			<path class="st40" d="M37.54,13.37v-0.79c0.76-0.03,1.22-0.08,1.36-0.16c0.14-0.08,0.24-0.2,0.29-0.38
				c0.07-0.27,0.1-1.1,0.1-2.48V3.85c0-1.51,0-2.31-0.01-2.4c0-0.01-0.01-0.09-0.02-0.22H37.9c-0.8,0-1.4,0.02-1.81,0.06
				c-0.17,0.03-0.29,0.07-0.36,0.14c-0.07,0.07-0.12,0.19-0.15,0.38c-0.06,0.45-0.1,0.89-0.11,1.33h-0.79L34.64,1.4
				c-0.01-0.24-0.02-0.45-0.03-0.64c-0.02-0.19-0.04-0.41-0.08-0.67L34.61,0c0.29,0.03,0.61,0.05,0.94,0.07
				c0.33,0.01,1.39,0.02,3.18,0.03h3.86c1.61,0,2.68-0.01,3.23-0.03c0.29-0.01,0.58-0.03,0.88-0.07l0.1,0.09
				c-0.06,0.37-0.09,0.71-0.11,1l-0.04,2.05h-0.79c-0.01-0.35-0.04-0.75-0.11-1.19c-0.03-0.25-0.09-0.42-0.16-0.52
				c-0.04-0.05-0.13-0.1-0.27-0.12c-0.29-0.06-0.96-0.08-1.99-0.08h-1.28l-0.02,0.22v0.2v2.2v5.73c0,1.38,0.03,2.21,0.09,2.49
				c0.04,0.16,0.14,0.29,0.29,0.37c0.15,0.08,0.61,0.13,1.37,0.16v0.79c-1.25-0.06-2.29-0.09-3.13-0.09
				C39.77,13.29,38.73,13.32,37.54,13.37z"/>
		</g>
	</g>
	<g>
		<path class="st32" d="M1.41,14.95c0,0.16-0.05,0.28-0.16,0.37c-0.11,0.09-0.23,0.13-0.36,0.13c-0.04,0-0.09-0.01-0.14-0.02
			c-0.01-0.02-0.02-0.05-0.04-0.08l0.02-0.02c0.03,0.01,0.06,0.02,0.09,0.02c0.08,0,0.14-0.03,0.18-0.08
			c0.05-0.05,0.07-0.13,0.07-0.23c0-0.21-0.09-0.32-0.29-0.32c-0.02,0-0.07,0-0.14,0.01c-0.01,0.02-0.01,0.14-0.01,0.37v0.6
			c0,0.18,0.01,0.3,0.02,0.35c0,0.02,0.02,0.04,0.04,0.04c0.01,0,0.06,0.01,0.16,0.01l0.01,0.01v0.08l-0.01,0.01
			c-0.1,0-0.23-0.01-0.37-0.01c-0.16,0-0.28,0-0.35,0.01L0.12,16.2v-0.08l0.01-0.01c0.08,0,0.12-0.01,0.13-0.01
			c0.02-0.01,0.04-0.02,0.04-0.04C0.31,16,0.32,15.88,0.32,15.7v-0.6c0-0.18-0.01-0.3-0.02-0.35c0-0.02-0.02-0.04-0.04-0.04
			c-0.01,0-0.06-0.01-0.13-0.01l-0.01-0.01v-0.08l0.01-0.01c0.07,0,0.19,0.01,0.34,0.01c0.06,0,0.16,0,0.28,0c0.12,0,0.19,0,0.21,0
			c0.21,0,0.34,0.05,0.41,0.16C1.39,14.81,1.41,14.88,1.41,14.95z"/>
		<path class="st32" d="M9.91,16.2L9.9,16.21c-0.08,0-0.19-0.01-0.35-0.01c-0.16,0-0.28,0-0.35,0.01L9.19,16.2v-0.08l0.01-0.01
			c0.08,0,0.12-0.01,0.13-0.01c0.02-0.01,0.03-0.02,0.04-0.04C9.39,16,9.39,15.88,9.39,15.7v-0.27c-0.04,0-0.16-0.01-0.37-0.01
			c-0.19,0-0.32,0-0.38,0.01v0.27c0,0.18,0.01,0.3,0.02,0.35c0,0.02,0.02,0.04,0.04,0.04c0.01,0,0.06,0.01,0.13,0.01l0.01,0.01v0.08
			l-0.01,0.01c-0.08,0-0.19-0.01-0.35-0.01c-0.16,0-0.28,0-0.35,0.01L8.12,16.2v-0.08l0.01-0.01c0.08,0,0.12-0.01,0.13-0.01
			c0.02-0.01,0.03-0.02,0.04-0.04C8.31,16,8.32,15.88,8.32,15.7v-0.6c0-0.18-0.01-0.3-0.02-0.35c0-0.02-0.02-0.04-0.04-0.04
			c-0.01,0-0.06-0.01-0.13-0.01l-0.01-0.01v-0.08l0.01-0.01c0.07,0,0.19,0.01,0.35,0.01c0.17,0,0.28,0,0.35-0.01l0.01,0.01v0.08
			L8.83,14.7c-0.08,0-0.12,0.01-0.13,0.01c-0.02,0.01-0.03,0.02-0.04,0.04c-0.01,0.06-0.02,0.17-0.02,0.35v0.19
			c0.08,0,0.19,0.01,0.33,0.01c0.22,0,0.36,0,0.41-0.01V15.1c0-0.18,0-0.3-0.01-0.35c0-0.02-0.02-0.04-0.04-0.04
			c-0.01,0-0.06-0.01-0.13-0.01l-0.01-0.01v-0.08L9.2,14.6c0.07,0,0.19,0.01,0.35,0.01c0.17,0,0.28,0,0.35-0.01l0.01,0.01v0.08
			L9.91,14.7c-0.08,0-0.12,0.01-0.14,0.01c-0.02,0.01-0.04,0.02-0.04,0.04c-0.01,0.06-0.01,0.17-0.01,0.35v0.6
			c0,0.18,0,0.3,0.01,0.35c0,0.02,0.02,0.04,0.04,0.04c0.01,0,0.06,0.01,0.13,0.01l0.01,0.01V16.2z"/>
		<path class="st32" d="M18.32,16.2l-0.01,0.01c-0.17,0-0.27-0.01-0.31-0.01c-0.14,0-0.27,0-0.39,0.01l-0.01-0.01v-0.07l0.01-0.01
			l0.1-0.01c0.04,0,0.06-0.02,0.06-0.04c0-0.02-0.01-0.05-0.03-0.11l-0.09-0.24c-0.1,0-0.21,0-0.32,0c-0.06,0-0.15,0-0.27,0
			l-0.05,0.14c-0.04,0.11-0.06,0.17-0.06,0.2c0,0.03,0.02,0.05,0.05,0.05c0.02,0,0.06,0.01,0.12,0.01l0.01,0.01v0.07l-0.01,0.01
			c-0.14,0-0.23-0.01-0.27-0.01c-0.03,0-0.11,0-0.23,0.01l-0.01-0.01v-0.07l0.01-0.01c0.08,0,0.13-0.02,0.14-0.05
			c0.02-0.03,0.09-0.19,0.2-0.47l0.3-0.74c0.02-0.06,0.05-0.14,0.1-0.26h0.16l0.6,1.42c0.02,0.05,0.04,0.08,0.06,0.09
			c0.02,0.01,0.06,0.01,0.11,0.01l0.01,0.01V16.2z M17.6,15.59l-0.24-0.6l-0.23,0.6c0.06,0,0.14,0,0.24,0
			C17.46,15.59,17.54,15.59,17.6,15.59z"/>
		<path class="st32" d="M26.58,16.2l-0.01,0.01c0,0-0.02,0-0.04,0c-0.1,0-0.17-0.01-0.19-0.01c-0.04,0-0.1,0-0.18,0.01
			c0-0.02-0.02-0.05-0.04-0.09l-0.28-0.47l-0.13-0.19c-0.02-0.02-0.04-0.05-0.07-0.07l0.01-0.04c0.02,0,0.03,0,0.04,0
			c0.07,0,0.13-0.01,0.18-0.03c0.04-0.02,0.07-0.06,0.11-0.11c0.03-0.05,0.05-0.12,0.05-0.19c0-0.13-0.05-0.21-0.14-0.26
			c-0.05-0.02-0.11-0.03-0.2-0.03c-0.04,0-0.07,0-0.11,0.01c-0.01,0.08-0.01,0.2-0.01,0.38v0.6c0,0.18,0.01,0.3,0.02,0.35
			c0,0.02,0.02,0.04,0.04,0.04c0.01,0,0.06,0.01,0.13,0.01l0.01,0.01v0.08l-0.01,0.01c-0.08,0-0.19-0.01-0.35-0.01
			c-0.16,0-0.28,0-0.35,0.01l-0.01-0.01v-0.08l0.01-0.01c0.08,0,0.12-0.01,0.13-0.01c0.02-0.01,0.04-0.02,0.04-0.04
			c0.01-0.06,0.02-0.17,0.02-0.35v-0.6c0-0.18,0-0.3-0.02-0.35c0-0.02-0.02-0.04-0.04-0.04c-0.01,0-0.06-0.01-0.13-0.01l-0.01-0.01
			v-0.08l0.01-0.01c0.07,0,0.19,0.01,0.35,0.01c0.09,0,0.17,0,0.23,0c0.11,0,0.2-0.01,0.26-0.01c0.13,0,0.23,0.01,0.29,0.04
			c0.08,0.03,0.14,0.09,0.17,0.16c0.01,0.04,0.02,0.08,0.02,0.13c0,0.21-0.12,0.35-0.35,0.44c0.04,0.06,0.08,0.13,0.12,0.19
			l0.18,0.27c0.1,0.16,0.17,0.25,0.21,0.27c0.02,0.01,0.04,0.02,0.07,0.02l0.01,0.01V16.2z"/>
		<path class="st32" d="M35.44,16.2l-0.01,0.01c-0.08,0-0.19-0.01-0.35-0.01c-0.16,0-0.28,0-0.35,0.01l-0.01-0.01v-0.08l0.01-0.01
			c0.08,0,0.12-0.01,0.13-0.01c0.02-0.01,0.03-0.02,0.04-0.04c0.01-0.06,0.02-0.17,0.02-0.35v-0.77l-0.25,0.52
			c-0.02,0.03-0.06,0.14-0.15,0.32l-0.21,0.45h-0.08c-0.04-0.09-0.09-0.21-0.16-0.36l-0.16-0.34l-0.3-0.62v0.79
			c0,0.18,0,0.3,0.02,0.35c0,0.02,0.02,0.04,0.04,0.04c0.01,0,0.06,0.01,0.13,0.01l0.01,0.01v0.08l-0.01,0.01
			c-0.09,0-0.17-0.01-0.24-0.01c-0.09,0-0.18,0-0.26,0.01l-0.01-0.01v-0.08l0.01-0.01c0.08,0,0.12-0.01,0.13-0.01
			c0.02-0.01,0.03-0.02,0.04-0.04c0.01-0.06,0.02-0.17,0.02-0.35v-0.6c0-0.18-0.01-0.3-0.02-0.35c0-0.02-0.02-0.04-0.04-0.04
			c-0.01,0-0.06-0.01-0.13-0.01l-0.01-0.01v-0.08l0.01-0.01c0.08,0,0.18,0.01,0.3,0.01c0.09,0,0.17,0,0.24-0.01
			c0.03,0.06,0.06,0.14,0.11,0.24L34.02,15l0.36,0.76l0.17-0.35l0.27-0.58c0.03-0.07,0.06-0.14,0.09-0.22
			c0.09,0,0.14,0.01,0.17,0.01c0.15,0,0.26,0,0.34-0.01l0.01,0.01v0.08l-0.01,0.01c-0.08,0-0.12,0.01-0.13,0.01
			c-0.02,0.01-0.04,0.02-0.04,0.04c-0.01,0.06-0.02,0.17-0.02,0.35v0.6c0,0.18,0.01,0.3,0.02,0.35c0,0.02,0.02,0.04,0.04,0.04
			c0.01,0,0.06,0.01,0.13,0.01l0.01,0.01V16.2z"/>
		<path class="st32" d="M43.86,16.2l-0.01,0.01c-0.17,0-0.27-0.01-0.31-0.01c-0.14,0-0.27,0-0.39,0.01l-0.01-0.01v-0.07l0.01-0.01
			l0.1-0.01c0.04,0,0.06-0.02,0.06-0.04c0-0.02-0.01-0.05-0.03-0.11l-0.09-0.24c-0.11,0-0.21,0-0.32,0c-0.06,0-0.15,0-0.27,0
			l-0.05,0.14c-0.04,0.11-0.06,0.17-0.06,0.2c0,0.03,0.02,0.05,0.05,0.05c0.02,0,0.06,0.01,0.11,0.01l0.01,0.01v0.07l-0.01,0.01
			c-0.14,0-0.23-0.01-0.27-0.01c-0.03,0-0.11,0-0.23,0.01l-0.01-0.01v-0.07l0.01-0.01c0.08,0,0.13-0.02,0.14-0.05
			c0.02-0.03,0.08-0.19,0.2-0.47l0.3-0.74c0.02-0.06,0.05-0.14,0.1-0.26h0.16l0.6,1.42c0.02,0.05,0.04,0.08,0.06,0.09
			c0.03,0.01,0.06,0.01,0.11,0.01l0.01,0.01V16.2z M43.14,15.59l-0.24-0.6l-0.23,0.6c0.06,0,0.14,0,0.24,0
			C43,15.59,43.08,15.59,43.14,15.59z"/>
	</g>
</g>
</svg>
