<?xml version="1.0" encoding="utf-8"?>
<!-- Generator: Adobe Illustrator 25.0.1, SVG Export Plug-In . SVG Version: 6.00 Build 0)  -->
<svg version="1.0" id="Layer_1" xmlns="http://www.w3.org/2000/svg" xmlns:xlink="http://www.w3.org/1999/xlink" x="0px" y="0px"
	 viewBox="0 0 70.5 43.93" style="enable-background:new 0 0 70.5 43.93;" xml:space="preserve">
<style type="text/css">
	.st0{fill:#000104;}
	.st1{fill:#FFFFFF;}
	.st2{fill:#EF493E;}
	.st3{opacity:0.6;fill-rule:evenodd;clip-rule:evenodd;fill:#FBBE43;}
	.st4{opacity:0.6;fill-rule:evenodd;clip-rule:evenodd;fill:#EF930E;}
	.st5{opacity:0.6;fill-rule:evenodd;clip-rule:evenodd;fill:#E67906;}
	.st6{fill:#9F8829;}
	.st7{fill:#3972A6;}
	.st8{fill:url(#SVGID_1_);stroke:#2B53A4;stroke-width:0.5;stroke-miterlimit:10;}
	.st9{fill:none;}
	.st10{fill:url(#SVGID_2_);}
	.st11{fill:url(#SVGID_3_);}
	.st12{fill:#B3B3B3;}
	.st13{fill:url(#SVGID_4_);}
	.st14{fill:url(#SVGID_5_);}
	.st15{fill:url(#SVGID_6_);}
	.st16{fill:#FFFFFF;stroke:#FFFFFF;stroke-width:0.25;stroke-miterlimit:10;}
	.st17{fill:#00001D;}
	.st18{fill:#4DA0C5;}
	.st19{fill:url(#SVGID_7_);}
	.st20{fill:#2E6A85;}
	.st21{fill:none;stroke:#144FA1;stroke-width:0.113;stroke-linejoin:round;stroke-miterlimit:10;}
	.st22{fill:#F27337;}
	.st23{fill:#8EB8D4;}
	.st24{fill:#F38056;}
	.st25{fill:#626365;}
	.st26{fill:#EF6D23;}
	.st27{fill:#284B82;}
	.st28{fill:#242956;}
	.st29{fill:#15142A;}
	.st30{fill:#84C343;}
	.st31{fill:#4CA1C6;}
	.st32{fill:#121617;}
	.st33{fill:#CF8966;}
	.st34{fill:#F37639;}
	.st35{opacity:0.3;fill:url(#SVGID_8_);}
	.st36{fill:#373277;}
	.st37{fill:#E61E25;}
	.st38{fill:#2555A5;}
	.st39{fill:#2E225E;}
	.st40{fill:#F8A425;}
	.st41{fill:#2058A7;}
	.st42{fill:none;stroke:#205AA8;stroke-width:0.156;stroke-miterlimit:10;}
	.st43{fill:#49A3C7;}
	.st44{fill-rule:evenodd;clip-rule:evenodd;}
	.st45{fill-rule:evenodd;clip-rule:evenodd;fill:url(#SVGID_9_);}
	.st46{fill-rule:evenodd;clip-rule:evenodd;fill:url(#SVGID_10_);}
	.st47{fill-rule:evenodd;clip-rule:evenodd;fill:url(#SVGID_11_);}
	.st48{fill:#1D2251;}
	.st49{fill:#2260AC;}
	.st50{fill:url(#SVGID_12_);}
	.st51{fill:#FFFFFC;}
	.st52{fill:#4C9FC5;}
	.st53{fill:#28306D;}
	.st54{fill:#4C9EC5;}
	.st55{fill:#28306E;}
	.st56{fill:#29306F;}
	.st57{fill:#F7F7FB;}
	.st58{fill:url(#SVGID_13_);}
	.st59{fill:url(#SVGID_14_);}
	.st60{fill:url(#SVGID_15_);}
	.st61{fill:url(#SVGID_16_);}
	.st62{fill:#10123C;}
	.st63{fill:#F5842C;}
	.st64{fill:#1F305E;}
	.st65{fill:#87BBD1;}
	.st66{fill:#203160;}
	.st67{fill:#235779;}
	.st68{fill:#359FA1;}
	.st69{fill:#A4D1A4;}
	.st70{fill:#B9DBBC;}
	.st71{fill:#C6DDCA;}
	.st72{fill:#662E14;}
	.st73{fill:#1D79A4;}
	.st74{fill:#C14B28;}
	.st75{fill:url(#SVGID_17_);}
	.st76{fill:url(#SVGID_18_);}
	.st77{fill:url(#SVGID_19_);}
	.st78{fill:url(#SVGID_20_);}
	.st79{fill:url(#SVGID_21_);}
	.st80{fill:url(#SVGID_22_);}
	.st81{fill:url(#SVGID_23_);}
	.st82{fill:url(#SVGID_24_);}
	.st83{fill:url(#SVGID_25_);}
	.st84{fill:url(#SVGID_26_);}
	.st85{fill:url(#SVGID_27_);}
	.st86{fill:url(#SVGID_28_);}
	.st87{fill:url(#SVGID_29_);}
	.st88{fill:url(#SVGID_30_);}
	.st89{fill:#1F164B;}
	.st90{clip-path:url(#SVGID_32_);fill:#253D97;}
	.st91{fill:url(#SVGID_33_);}
	.st92{fill:url(#SVGID_34_);}
	.st93{fill:url(#SVGID_35_);}
	.st94{fill:url(#SVGID_36_);}
	.st95{fill:url(#SVGID_37_);}
	.st96{fill:url(#SVGID_38_);}
	.st97{fill:url(#SVGID_39_);}
	.st98{fill:url(#SVGID_40_);}
	.st99{fill:url(#SVGID_41_);}
	.st100{fill:#443F41;}
	.st101{fill:#28306F;}
	.st102{fill:#71C49D;}
	.st103{fill:#F0C6A7;}
	.st104{fill:#DB8D82;}
	.st105{fill:#EFB7AC;}
	.st106{opacity:0.21;}
	.st107{fill-rule:evenodd;clip-rule:evenodd;fill:#A9196E;}
	.st108{fill-rule:evenodd;clip-rule:evenodd;fill:#FBE42C;}
	.st109{fill:#FBE42C;}
	.st110{fill:#A9196E;}
	.st111{fill:#7FC143;}
	.st112{clip-path:url(#SVGID_45_);fill:#7FC143;}
	.st113{clip-path:url(#SVGID_51_);fill:#7FC143;}
	.st114{fill:#243F8F;}
	.st115{fill:#EF4E2F;}
	.st116{fill:#010007;}
	.st117{fill:#0C0D37;}
	.st118{fill:#FBAF2D;}
	.st119{fill:url(#SVGID_54_);}
	.st120{fill-rule:evenodd;clip-rule:evenodd;fill:#FFFFFF;}
	.st121{fill:#1D4690;}
	.st122{fill:#3AA949;}
	.st123{fill:#F37A24;}
	.st124{fill:none;stroke:#F37A24;stroke-width:3.7145;stroke-miterlimit:10;}
	.st125{fill:#3AA949;stroke:#FFFFFF;stroke-width:1.3104;stroke-miterlimit:10;}
	.st126{fill:#46A2BB;}
	.st127{fill:#7153A0;}
	.st128{fill:#27316C;}
	.st129{fill:#2C65AE;}
	.st130{fill:#452D7A;}
	.st131{fill:#442C7A;}
	.st132{fill:#1A2642;}
	.st133{fill-rule:evenodd;clip-rule:evenodd;fill:#567EB8;}
	.st134{fill-rule:evenodd;clip-rule:evenodd;fill:#6A7EB8;}
	.st135{fill-rule:evenodd;clip-rule:evenodd;fill:#6A7EB9;}
	.st136{fill-rule:evenodd;clip-rule:evenodd;fill:#EE3C2D;}
	.st137{fill-rule:evenodd;clip-rule:evenodd;fill:#EF493F;}
	.st138{fill-rule:evenodd;clip-rule:evenodd;fill:#ED2C24;}
	.st139{fill-rule:evenodd;clip-rule:evenodd;fill:#E9AE28;}
	.st140{fill-rule:evenodd;clip-rule:evenodd;fill:#D69B28;}
	.st141{fill-rule:evenodd;clip-rule:evenodd;fill:#FCB729;}
	.st142{fill-rule:evenodd;clip-rule:evenodd;fill:#409E47;}
	.st143{fill-rule:evenodd;clip-rule:evenodd;fill:#4BB450;}
	.st144{fill-rule:evenodd;clip-rule:evenodd;fill:#338440;}
	.st145{fill:#C09C36;}
	.st146{fill:#1E552A;}
	.st147{clip-path:url(#SVGID_56_);fill:url(#SVGID_57_);}
	.st148{fill:#023A1E;}
	.st149{fill:#FFFFFA;}
	.st150{fill:#0D4F28;}
	.st151{fill:#0E5128;}
	.st152{fill:#0D4E27;}
	.st153{fill:#0E5229;}
	.st154{fill:#0E4823;}
	.st155{fill:#0E4C27;}
	.st156{fill:#F3F6E0;}
	.st157{fill:#0E4F28;}
	.st158{fill:#114823;}
	.st159{fill:#105229;}
	.st160{fill:#0A4A2B;}
	.st161{fill:#134F27;}
	.st162{fill:#165229;}
	.st163{fill:#0D5029;}
	.st164{fill:#0B4E2B;}
	.st165{fill:#105028;}
	.st166{fill:#0A492A;}
	.st167{fill:#E9F3E2;}
	.st168{fill:#144D26;}
	.st169{fill:#185C2F;}
	.st170{fill:#0F5028;}
	.st171{fill:#F3F8EA;}
	.st172{fill:#114D26;}
	.st173{fill:#70A685;}
	.st174{fill:#0D4F2A;}
	.st175{fill:#094A24;}
	.st176{fill:#0F4F27;}
	.st177{fill:#0A4C26;}
	.st178{fill:#A2D29A;}
	.st179{fill:#4D7E44;}
	.st180{fill:#E8F2E1;}
	.st181{fill:#EDF5E5;}
	.st182{fill:#E6F2E7;}
	.st183{fill:#E5F1DC;}
	.st184{fill:#E9F3E3;}
	.st185{fill:#E9F3E5;}
	.st186{fill:#E5F1DB;}
	.st187{fill:#D8ECD7;}
	.st188{fill:#D9EBD4;}
	.st189{fill:#E2F0DE;}
	.st190{fill:#366B4B;}
	.st191{fill:#5D6162;}
	.st192{fill:#212E5F;}
	.st193{fill:#DD1F26;}
	.st194{clip-path:url(#SVGID_59_);}
	.st195{fill:#23396F;}
	.st196{fill:#7FC24E;}
	.st197{clip-path:url(#SVGID_59_);fill:#23396F;}
	.st198{clip-path:url(#SVGID_59_);fill:#7FC24E;}
	.st199{fill:#91CEA4;}
	.st200{fill:#90CEA4;}
	.st201{fill:#C02026;}
	.st202{fill:#362E7E;}
</style>
<g>
	<path d="M47.05,10.2h-3.43c0.59,0.81,0.47,1.92-0.34,2.58c-0.39,0.32-0.87,0.47-1.34,0.47c-0.58,0-1.15-0.23-1.56-0.68L40.3,12.5
		c-0.02-0.02-0.04-0.05-0.06-0.07l-0.04-0.05l-0.04-0.04l-2.1-2.12h-0.02l-0.01-0.01h-4.35l4.19,4.25c0.69,0.81,0.58,2-0.26,2.69
		c-0.39,0.32-0.87,0.47-1.34,0.47c-0.58,0-1.15-0.23-1.56-0.68l-6.64-6.72h-4.31c0.06,0.08,0.12,0.15,0.19,0.23l0.04,0.05l0.04,0.04
		l8.33,8.43c0.99,1.06,2.42,1.66,3.92,1.66c1.26,0,2.47-0.43,3.42-1.2c1-0.82,1.62-1.94,1.77-3.17c0.16,0.01,0.32,0.02,0.47,0.02
		c1.26,0,2.47-0.43,3.42-1.2c1.06-0.86,1.7-2.07,1.8-3.39C47.2,11.17,47.16,10.68,47.05,10.2z"/>
	<g>
		<path d="M8.59,24.78h2.16c1.82,0,2.52,0.44,2.52,1.24v0.2c0,0.77-0.52,1-0.98,1.1c0.47,0.1,1.17,0.3,1.17,1.09v0.41
			c0,0.92-0.74,1.41-2.57,1.41h-2.3V24.78z M10.57,27.01c0.91,0,1.18-0.15,1.18-0.69v-0.21c0-0.45-0.31-0.63-1.09-0.63h-0.5v1.53
			H10.57z M10.16,29.55h0.54c0.94,0,1.17-0.21,1.17-0.74v-0.36c0-0.53-0.26-0.76-1.29-0.76h-0.42V29.55z"/>
		<path d="M16.07,28.78l-0.37,1.46h-1.65l1.69-5.45h2.29l1.76,5.45h-1.69l-0.41-1.46H16.07z M17.49,28.01
			c-0.24-0.93-0.47-1.8-0.59-2.42h-0.06c-0.04,0.45-0.36,1.62-0.57,2.42H17.49z"/>
		<path d="M20.57,24.78h2.34c1.67,0,2.52,0.43,2.52,1.39v0.32c0,0.9-0.62,1.5-2.61,1.5h-0.63v2.24h-1.62V24.78z M22.19,27.31h0.44
			c1.01,0,1.18-0.31,1.18-0.84V26.2c0-0.4-0.14-0.72-1.04-0.72h-0.59V27.31z"/>
	</g>
	<g>
		<path d="M32.19,27.9c0-1.02,0.04-2.08,0.07-2.65h-0.02c-0.29,0.91-1.2,3.35-1.83,4.98h-1.06c-0.48-1.4-1.43-4.02-1.71-4.99h-0.03
			c0.03,0.63,0.1,1.87,0.1,2.8v2.18h-1.01v-5.45h1.59c0.66,1.67,1.47,3.77,1.62,4.45h0.02c0.18-0.66,1.1-2.88,1.75-4.45h1.56v5.45
			h-1.05V27.9z"/>
		<path d="M38.55,27.56H36v2.2h2.88l-0.15,0.48h-3.8v-5.45h3.76v0.48H36v1.82h2.54V27.56z"/>
		<path d="M39.87,24.78h1.96c2.45,0,2.69,0.76,2.69,1.59v2.17c0,0.84-0.26,1.69-2.78,1.69h-1.87V24.78z M40.94,29.78h0.71
			c1.42,0,1.77-0.38,1.77-1.13V26.3c0-0.66-0.25-1.06-1.76-1.06h-0.73V29.78z"/>
		<path d="M47.07,24.78v5.45H46v-5.45H47.07z"/>
		<path d="M52.98,28.69v0.18c0,0.71-0.27,1.44-2.23,1.44c-1.92,0-2.23-0.68-2.23-1.47v-2.78c0-0.88,0.77-1.34,2.24-1.34
			c1.84,0,2.17,0.64,2.17,1.35v0.21h-1.09v-0.24c0-0.45-0.13-0.84-1.09-0.84c-0.91,0-1.12,0.35-1.12,0.86v2.82
			c0,0.59,0.27,0.97,1.16,0.97c0.94,0,1.1-0.4,1.1-0.94v-0.21H52.98z"/>
		<path d="M55.4,28.43l-0.57,1.81h-1.09l1.86-5.45h1.53l1.94,5.45h-1.13l-0.61-1.81H55.4z M57.2,27.95c-0.43-1.26-0.72-2.2-0.82-2.7
			h-0.04c-0.04,0.42-0.46,1.66-0.78,2.7H57.2z"/>
		<path d="M60.08,24.78h1.07v4.98h2.84l-0.13,0.47h-3.78V24.78z"/>
	</g>
	<g>
		<path d="M15.33,33.52c0-0.43,0.01-0.88,0.03-1.12h-0.01c-0.11,0.38-0.44,1.42-0.68,2.11h-0.39c-0.18-0.59-0.53-1.7-0.63-2.11
			h-0.01c0.01,0.27,0.04,0.79,0.04,1.18v0.92h-0.37v-2.3h0.58c0.24,0.7,0.54,1.59,0.6,1.88h0.01c0.06-0.28,0.4-1.22,0.65-1.88h0.58
			v2.3h-0.39V33.52z"/>
		<path d="M17.68,33.38h-0.94v0.93h1.06l-0.05,0.2h-1.4v-2.3h1.39v0.2h-0.99v0.77h0.94V33.38z"/>
		<path d="M18.16,32.2h0.72c0.9,0,0.99,0.32,0.99,0.67v0.92c0,0.35-0.1,0.72-1.03,0.72h-0.69V32.2z M18.56,34.31h0.26
			c0.52,0,0.65-0.16,0.65-0.48v-0.99c0-0.28-0.09-0.45-0.65-0.45h-0.27V34.31z"/>
		<path d="M20.82,32.2v2.3h-0.4v-2.3H20.82z"/>
		<path d="M23,33.85v0.08c0,0.3-0.1,0.61-0.82,0.61c-0.71,0-0.82-0.29-0.82-0.62v-1.17c0-0.37,0.29-0.57,0.83-0.57
			c0.68,0,0.8,0.27,0.8,0.57v0.09h-0.4v-0.1c0-0.19-0.05-0.36-0.4-0.36c-0.33,0-0.41,0.15-0.41,0.36v1.19c0,0.25,0.1,0.41,0.43,0.41
			c0.35,0,0.4-0.17,0.4-0.4v-0.09H23z"/>
		<path d="M23.89,33.74l-0.21,0.76h-0.4l0.69-2.3h0.57l0.71,2.3h-0.41l-0.23-0.76H23.89z M24.55,33.54
			c-0.16-0.53-0.26-0.93-0.3-1.14h-0.02c-0.01,0.17-0.17,0.7-0.29,1.14H24.55z"/>
		<path d="M25.62,32.2h0.4v2.11h1.05l-0.05,0.2h-1.39V32.2z"/>
		<path d="M29.75,33.85v0.08c0,0.3-0.1,0.61-0.82,0.61c-0.71,0-0.82-0.29-0.82-0.62v-1.17c0-0.37,0.29-0.57,0.83-0.57
			c0.68,0,0.8,0.27,0.8,0.57v0.09h-0.4v-0.1c0-0.19-0.05-0.36-0.4-0.36c-0.33,0-0.41,0.15-0.41,0.36v1.19c0,0.25,0.1,0.41,0.43,0.41
			c0.35,0,0.4-0.17,0.4-0.4v-0.09H29.75z"/>
		<path d="M30.65,33.74l-0.21,0.76h-0.4l0.69-2.3h0.57l0.71,2.3h-0.41l-0.23-0.76H30.65z M31.31,33.54
			c-0.16-0.53-0.26-0.93-0.3-1.14h-0.02c-0.01,0.17-0.17,0.7-0.29,1.14H31.31z"/>
		<path d="M32.77,33.42v1.09h-0.4v-2.3h0.69c0.62,0,0.91,0.15,0.91,0.52v0.11c0,0.3-0.18,0.44-0.42,0.49
			c0.27,0.05,0.39,0.17,0.39,0.47c0,0.2-0.01,0.56,0.04,0.71h-0.39c-0.05-0.14-0.04-0.53-0.04-0.69c0-0.3-0.08-0.39-0.5-0.39H32.77z
			 M32.77,33.23h0.3c0.41,0,0.51-0.14,0.51-0.38v-0.11c0-0.22-0.11-0.35-0.54-0.35h-0.27V33.23z"/>
		<path d="M35.83,33.38H34.9v0.93h1.06l-0.05,0.2h-1.4v-2.3h1.39v0.2H34.9v0.77h0.94V33.38z"/>
		<path d="M37.17,32.2h1.41v0.2h-1.01v0.78h0.95v0.2h-0.95v1.11h-0.4V32.2z"/>
		<path d="M40.64,32.76v1.18c0,0.4-0.29,0.6-0.89,0.6c-0.64,0-0.86-0.23-0.86-0.6v-1.18c0-0.38,0.3-0.59,0.88-0.59
			C40.38,32.17,40.64,32.41,40.64,32.76z M39.29,32.75v1.2c0,0.27,0.18,0.38,0.47,0.38c0.3,0,0.47-0.1,0.47-0.39v-1.19
			c0-0.26-0.16-0.38-0.47-0.38C39.44,32.37,39.29,32.49,39.29,32.75z"/>
		<path d="M41.58,33.42v1.09h-0.4v-2.3h0.69c0.62,0,0.91,0.15,0.91,0.52v0.11c0,0.3-0.18,0.44-0.42,0.49
			c0.27,0.05,0.39,0.17,0.39,0.47c0,0.2-0.01,0.56,0.04,0.71H42.4c-0.05-0.14-0.04-0.53-0.04-0.69c0-0.3-0.08-0.39-0.5-0.39H41.58z
			 M41.58,33.23h0.3c0.41,0,0.51-0.14,0.51-0.38v-0.11c0-0.22-0.11-0.35-0.54-0.35h-0.27V33.23z"/>
		<path d="M44.48,32.4h-0.67v-0.2h1.74v0.2h-0.67v2.1h-0.4V32.4z"/>
		<path d="M45.86,32.2h0.4v0.97h0.91V32.2h0.4v2.3h-0.4v-1.14h-0.91v1.14h-0.4V32.2z"/>
		<path d="M49.51,33.38h-0.94v0.93h1.06l-0.05,0.2h-1.4v-2.3h1.39v0.2h-0.99v0.77h0.94V33.38z"/>
		<path d="M51.02,33.86V34c0,0.23,0.15,0.35,0.45,0.35c0.31,0,0.44-0.12,0.44-0.39c0-0.28-0.11-0.39-0.55-0.57
			c-0.44-0.19-0.67-0.31-0.67-0.65c0-0.29,0.16-0.56,0.79-0.56c0.58,0,0.76,0.21,0.76,0.52v0.1h-0.39v-0.1
			c0-0.2-0.07-0.33-0.37-0.33c-0.3,0-0.38,0.15-0.38,0.33c0,0.23,0.08,0.31,0.47,0.47c0.57,0.24,0.75,0.37,0.75,0.75
			c0,0.32-0.16,0.62-0.84,0.62c-0.65,0-0.84-0.24-0.84-0.54v-0.13H51.02z"/>
		<path d="M52.77,32.2h0.39v1.13h0.01c0.18-0.21,0.65-0.78,0.92-1.13h0.43l-0.8,0.92l0.88,1.38h-0.43l-0.71-1.16l-0.3,0.33v0.83
			h-0.39V32.2z"/>
		<path d="M55.25,32.2v2.3h-0.4v-2.3H55.25z"/>
		<path d="M55.88,34.51v-2.3h0.48c0.24,0.45,0.83,1.67,0.91,1.88h0.01c-0.02-0.32-0.03-0.64-0.03-1.01V32.2h0.38v2.3h-0.46
			c-0.24-0.47-0.85-1.74-0.94-1.94h-0.01c0.03,0.28,0.04,0.66,0.04,1.07v0.87H55.88z"/>
	</g>
</g>
</svg>
