<svg xmlns="http://www.w3.org/2000/svg" width="17.736" height="23.503" viewBox="0 0 17.736 23.503">
  <g id="medal" transform="translate(-4.5)">
    <path id="Path_1529" data-name="Path 1529" d="M12.3,5.2a.591.591,0,0,1,.995,0l1.394,2.17a.591.591,0,0,0,.347.252l2.494.655a.591.591,0,0,1,.307.946l-1.633,2a.592.592,0,0,0-.133.408L16.22,14.2a.591.591,0,0,1-.8.585l-2.4-.936a.591.591,0,0,0-.429,0l-2.4.936a.591.591,0,0,1-.8-.585l.148-2.574a.591.591,0,0,0-.133-.408l-1.633-2a.591.591,0,0,1,.307-.946l2.494-.655a.591.591,0,0,0,.347-.252Zm-.4,2.809.9-1.4.9,1.4a1.774,1.774,0,0,0,1.042.757l1.6.421-1.05,1.283a1.773,1.773,0,0,0-.4,1.225l.1,1.655-1.545-.6a1.773,1.773,0,0,0-1.288,0l-1.545.6.1-1.655a1.773,1.773,0,0,0-.4-1.225L9.256,9.184l1.6-.421A1.774,1.774,0,0,0,11.9,8.006Z" transform="translate(0.57 -1.466)" fill="#2095d3"/>
    <path id="Path_1530" data-name="Path 1530" d="M22.236,10.868a8.867,8.867,0,0,1-4.73,7.845v5.961a.828.828,0,0,1-1.2.74l-2.941-1.47-2.941,1.47a.828.828,0,0,1-1.2-.74V18.713a8.869,8.869,0,1,1,13.006-7.845Zm-8.868,7.686a7.686,7.686,0,1,0-7.686-7.686A7.686,7.686,0,0,0,13.368,18.554Zm0,1.182a8.853,8.853,0,0,0,2.956-.5V24.1l-2.586-1.293a.828.828,0,0,0-.74,0L10.412,24.1V19.231a8.853,8.853,0,0,0,2.956.5Z" transform="translate(0 -2)" fill="#fff"/>
    <path id="Path_1531" data-name="Path 1531" d="M17.641,11.122,21.5,13.8l-1.422,4.47-4.773-.194L14.09,13.669Z" transform="translate(-4.272 -6.063)" fill="#2095d3"/>
  </g>
</svg>
