<svg id="megaphone" xmlns="http://www.w3.org/2000/svg" width="26.162" height="19.186" viewBox="0 0 26.162 19.186">
  <g id="Group_658" data-name="Group 658" transform="translate(0 0)">
    <path id="Path_1482" data-name="Path 1482" d="M28.357,9.407a.872.872,0,1,0-.971,1.449,3.049,3.049,0,0,1,0,5.074.872.872,0,0,0,.971,1.449,4.794,4.794,0,0,0,0-7.973Z" transform="translate(-4.327 -5.545)" fill="#3498db"/>
    <path id="Path_1483" data-name="Path 1483" d="M4.488,11.744a.872.872,0,1,0,0-1.744,3.488,3.488,0,1,0,0,6.976.872.872,0,1,0,0-1.744,1.744,1.744,0,0,1,0-3.488Z" transform="translate(-1 -5.639)" fill="#fff"/>
    <path id="Path_1484" data-name="Path 1484" d="M23.569,11.347V5.872a.872.872,0,0,0-1.262-.78L19.415,6.538a12.337,12.337,0,0,1-4.566,1.078H11.36a.872.872,0,0,0-.872.872v7.864a.826.826,0,0,0-.839,1.1l1.426,4.993h-.8L8.711,16.969a.872.872,0,0,0-1.678.479l1.744,6.1a.873.873,0,0,0,.839.633h2.616a.872.872,0,0,0,.839-1.111l-1.426-4.993h3.2a12.337,12.337,0,0,1,4.566,1.078L22.307,20.6a.872.872,0,0,0,1.262-.78V14.35a1.728,1.728,0,0,0,0-3Zm-1.744,7.067-1.63-.815a13.971,13.971,0,0,0-5.346-1.262H12.232V9.36h2.616A13.971,13.971,0,0,0,20.195,8.1l1.63-.815Z" transform="translate(-1.768 -4.999)" fill="#fff"/>
    <path id="Path_1485" data-name="Path 1485" d="M11.848,8V18.465H6.616A2.623,2.623,0,0,1,4,15.848V10.616A2.623,2.623,0,0,1,6.616,8Z" transform="translate(-1.384 -5.383)" fill="#3498db"/>
  </g>
</svg>
