<?xml version="1.0" encoding="utf-8"?>
<!-- Generator: Adobe Illustrator 25.0.1, SVG Export Plug-In . SVG Version: 6.00 Build 0)  -->
<svg version="1.0" id="Layer_1" xmlns="http://www.w3.org/2000/svg" xmlns:xlink="http://www.w3.org/1999/xlink" x="0px" y="0px"
	 viewBox="0 0 84.91 41.31" style="enable-background:new 0 0 84.91 41.31;" xml:space="preserve">
<style type="text/css">
	.st0{fill:#000104;}
	.st1{fill:#FFFFFF;}
	.st2{fill:#EF493E;}
	.st3{opacity:0.6;fill-rule:evenodd;clip-rule:evenodd;fill:#FBBE43;}
	.st4{opacity:0.6;fill-rule:evenodd;clip-rule:evenodd;fill:#EF930E;}
	.st5{opacity:0.6;fill-rule:evenodd;clip-rule:evenodd;fill:#E67906;}
	.st6{fill:#9F8829;}
	.st7{fill:#3972A6;}
	.st8{fill:url(#SVGID_1_);stroke:#2B53A4;stroke-width:0.5;stroke-miterlimit:10;}
	.st9{fill:none;}
	.st10{fill:url(#SVGID_2_);}
	.st11{fill:url(#SVGID_3_);}
	.st12{fill:#B3B3B3;}
	.st13{fill:url(#SVGID_4_);}
	.st14{fill:url(#SVGID_5_);}
	.st15{fill:url(#SVGID_6_);}
	.st16{fill:#FFFFFF;stroke:#FFFFFF;stroke-width:0.25;stroke-miterlimit:10;}
	.st17{fill:#00001D;}
	.st18{fill:#4DA0C5;}
	.st19{fill:url(#SVGID_7_);}
	.st20{fill:#2E6A85;}
	.st21{fill:none;stroke:#144FA1;stroke-width:0.113;stroke-linejoin:round;stroke-miterlimit:10;}
	.st22{fill:#F27337;}
	.st23{fill:#8EB8D4;}
	.st24{fill:#F38056;}
	.st25{fill:#626365;}
	.st26{fill:#EF6D23;}
	.st27{fill:#284B82;}
	.st28{fill:#242956;}
	.st29{fill:#15142A;}
	.st30{fill:#84C343;}
	.st31{fill:#4CA1C6;}
	.st32{fill:#121617;}
	.st33{fill:#CF8966;}
	.st34{fill:#F37639;}
	.st35{opacity:0.3;fill:url(#SVGID_8_);}
	.st36{fill:#373277;}
	.st37{fill:#E61E25;}
	.st38{fill:#2555A5;}
	.st39{fill:#2E225E;}
	.st40{fill:#F8A425;}
	.st41{fill:#2058A7;}
	.st42{fill:none;stroke:#205AA8;stroke-width:0.156;stroke-miterlimit:10;}
	.st43{fill:#49A3C7;}
	.st44{fill-rule:evenodd;clip-rule:evenodd;}
	.st45{fill-rule:evenodd;clip-rule:evenodd;fill:url(#SVGID_9_);}
	.st46{fill-rule:evenodd;clip-rule:evenodd;fill:url(#SVGID_10_);}
	.st47{fill-rule:evenodd;clip-rule:evenodd;fill:url(#SVGID_11_);}
	.st48{fill:#1D2251;}
	.st49{fill:#2260AC;}
	.st50{fill:url(#SVGID_12_);}
	.st51{fill:#FFFFFC;}
	.st52{fill:#4C9FC5;}
	.st53{fill:#28306D;}
	.st54{fill:#4C9EC5;}
	.st55{fill:#28306E;}
	.st56{fill:#29306F;}
	.st57{fill:#F7F7FB;}
	.st58{fill:url(#SVGID_13_);}
	.st59{fill:url(#SVGID_14_);}
	.st60{fill:url(#SVGID_15_);}
	.st61{fill:url(#SVGID_16_);}
	.st62{fill:#10123C;}
	.st63{fill:#F5842C;}
	.st64{fill:#1F305E;}
	.st65{fill:#87BBD1;}
	.st66{fill:#203160;}
	.st67{fill:#235779;}
	.st68{fill:#359FA1;}
	.st69{fill:#A4D1A4;}
	.st70{fill:#B9DBBC;}
	.st71{fill:#C6DDCA;}
	.st72{fill:#662E14;}
	.st73{fill:#1D79A4;}
	.st74{fill:#C14B28;}
	.st75{fill:url(#SVGID_17_);}
	.st76{fill:url(#SVGID_18_);}
	.st77{fill:url(#SVGID_19_);}
	.st78{fill:url(#SVGID_20_);}
	.st79{fill:url(#SVGID_21_);}
	.st80{fill:url(#SVGID_22_);}
	.st81{fill:url(#SVGID_23_);}
	.st82{fill:url(#SVGID_24_);}
	.st83{fill:url(#SVGID_25_);}
	.st84{fill:url(#SVGID_26_);}
	.st85{fill:url(#SVGID_27_);}
	.st86{fill:url(#SVGID_28_);}
	.st87{fill:url(#SVGID_29_);}
	.st88{fill:url(#SVGID_30_);}
	.st89{fill:#1F164B;}
	.st90{clip-path:url(#SVGID_32_);fill:#253D97;}
	.st91{fill:url(#SVGID_33_);}
	.st92{fill:url(#SVGID_34_);}
	.st93{fill:url(#SVGID_35_);}
	.st94{fill:url(#SVGID_36_);}
	.st95{fill:url(#SVGID_37_);}
	.st96{fill:url(#SVGID_38_);}
	.st97{fill:url(#SVGID_39_);}
	.st98{fill:url(#SVGID_40_);}
	.st99{fill:url(#SVGID_41_);}
	.st100{fill:#443F41;}
	.st101{fill:#28306F;}
	.st102{fill:#71C49D;}
	.st103{fill:#F0C6A7;}
	.st104{fill:#DB8D82;}
	.st105{fill:#EFB7AC;}
	.st106{opacity:0.21;}
	.st107{fill-rule:evenodd;clip-rule:evenodd;fill:#A9196E;}
	.st108{fill-rule:evenodd;clip-rule:evenodd;fill:#FBE42C;}
	.st109{fill:#FBE42C;}
	.st110{fill:#A9196E;}
	.st111{fill:#7FC143;}
	.st112{clip-path:url(#SVGID_45_);fill:#7FC143;}
	.st113{clip-path:url(#SVGID_51_);fill:#7FC143;}
	.st114{fill:#243F8F;}
	.st115{fill:#EF4E2F;}
	.st116{fill:#010007;}
	.st117{fill:#0C0D37;}
	.st118{fill:#FBAF2D;}
	.st119{fill:url(#SVGID_54_);}
	.st120{fill-rule:evenodd;clip-rule:evenodd;fill:#FFFFFF;}
	.st121{fill:#1D4690;}
	.st122{fill:#3AA949;}
	.st123{fill:#F37A24;}
	.st124{fill:none;stroke:#F37A24;stroke-width:3.7145;stroke-miterlimit:10;}
	.st125{fill:#3AA949;stroke:#FFFFFF;stroke-width:1.3104;stroke-miterlimit:10;}
	.st126{fill:#46A2BB;}
	.st127{fill:#7153A0;}
	.st128{fill:#27316C;}
	.st129{fill:#2C65AE;}
	.st130{fill:#452D7A;}
	.st131{fill:#442C7A;}
	.st132{fill:#1A2642;}
	.st133{fill-rule:evenodd;clip-rule:evenodd;fill:#567EB8;}
	.st134{fill-rule:evenodd;clip-rule:evenodd;fill:#6A7EB8;}
	.st135{fill-rule:evenodd;clip-rule:evenodd;fill:#6A7EB9;}
	.st136{fill-rule:evenodd;clip-rule:evenodd;fill:#EE3C2D;}
	.st137{fill-rule:evenodd;clip-rule:evenodd;fill:#EF493F;}
	.st138{fill-rule:evenodd;clip-rule:evenodd;fill:#ED2C24;}
	.st139{fill-rule:evenodd;clip-rule:evenodd;fill:#E9AE28;}
	.st140{fill-rule:evenodd;clip-rule:evenodd;fill:#D69B28;}
	.st141{fill-rule:evenodd;clip-rule:evenodd;fill:#FCB729;}
	.st142{fill-rule:evenodd;clip-rule:evenodd;fill:#409E47;}
	.st143{fill-rule:evenodd;clip-rule:evenodd;fill:#4BB450;}
	.st144{fill-rule:evenodd;clip-rule:evenodd;fill:#338440;}
	.st145{fill:#C09C36;}
	.st146{fill:#1E552A;}
	.st147{clip-path:url(#SVGID_56_);fill:url(#SVGID_57_);}
	.st148{fill:#023A1E;}
	.st149{fill:#FFFFFA;}
	.st150{fill:#0D4F28;}
	.st151{fill:#0E5128;}
	.st152{fill:#0D4E27;}
	.st153{fill:#0E5229;}
	.st154{fill:#0E4823;}
	.st155{fill:#0E4C27;}
	.st156{fill:#F3F6E0;}
	.st157{fill:#0E4F28;}
	.st158{fill:#114823;}
	.st159{fill:#105229;}
	.st160{fill:#0A4A2B;}
	.st161{fill:#134F27;}
	.st162{fill:#165229;}
	.st163{fill:#0D5029;}
	.st164{fill:#0B4E2B;}
	.st165{fill:#105028;}
	.st166{fill:#0A492A;}
	.st167{fill:#E9F3E2;}
	.st168{fill:#144D26;}
	.st169{fill:#185C2F;}
	.st170{fill:#0F5028;}
	.st171{fill:#F3F8EA;}
	.st172{fill:#114D26;}
	.st173{fill:#70A685;}
	.st174{fill:#0D4F2A;}
	.st175{fill:#094A24;}
	.st176{fill:#0F4F27;}
	.st177{fill:#0A4C26;}
	.st178{fill:#A2D29A;}
	.st179{fill:#4D7E44;}
	.st180{fill:#E8F2E1;}
	.st181{fill:#EDF5E5;}
	.st182{fill:#E6F2E7;}
	.st183{fill:#E5F1DC;}
	.st184{fill:#E9F3E3;}
	.st185{fill:#E9F3E5;}
	.st186{fill:#E5F1DB;}
	.st187{fill:#D8ECD7;}
	.st188{fill:#D9EBD4;}
	.st189{fill:#E2F0DE;}
	.st190{fill:#366B4B;}
	.st191{fill:#5D6162;}
	.st192{fill:#212E5F;}
	.st193{fill:#DD1F26;}
	.st194{clip-path:url(#SVGID_59_);}
	.st195{fill:#23396F;}
	.st196{fill:#7FC24E;}
	.st197{clip-path:url(#SVGID_59_);fill:#23396F;}
	.st198{clip-path:url(#SVGID_59_);fill:#7FC24E;}
	.st199{fill:#91CEA4;}
	.st200{fill:#90CEA4;}
	.st201{fill:#C02026;}
	.st202{fill:#362E7E;}
</style>
<path class="st41" d="M12.79,34.33c0,0.54-0.34,0.82-0.74,0.82c-0.42,0-0.72-0.32-0.72-0.79c0-0.5,0.32-0.82,0.74-0.82
	C12.51,33.54,12.79,33.87,12.79,34.33 M11.54,34.35c0,0.33,0.19,0.63,0.51,0.63c0.33,0,0.51-0.29,0.51-0.65
	c0-0.31-0.17-0.63-0.51-0.63C11.72,33.7,11.54,34.01,11.54,34.35"/>
<path class="st42" d="M12.79,34.33c0,0.54-0.34,0.82-0.74,0.82c-0.42,0-0.72-0.32-0.72-0.79c0-0.5,0.32-0.82,0.74-0.82
	C12.51,33.54,12.79,33.87,12.79,34.33z M11.54,34.35c0,0.33,0.19,0.63,0.51,0.63c0.33,0,0.51-0.29,0.51-0.65
	c0-0.31-0.17-0.63-0.51-0.63C11.72,33.7,11.54,34.01,11.54,34.35z"/>
<path class="st41" d="M14.21,33.56v0.92c0,0.35,0.16,0.5,0.37,0.5c0.24,0,0.39-0.15,0.39-0.5v-0.92h0.21v0.91
	c0,0.48-0.26,0.68-0.61,0.68c-0.33,0-0.57-0.18-0.57-0.67v-0.92H14.21z"/>
<path class="st42" d="M14.21,33.56v0.92c0,0.35,0.16,0.5,0.37,0.5c0.24,0,0.39-0.15,0.39-0.5v-0.92h0.21v0.91
	c0,0.48-0.26,0.68-0.61,0.68c-0.33,0-0.57-0.18-0.57-0.67v-0.92H14.21z"/>
<g>
	<path class="st43" d="M33.24,29.74c-0.75,0.75-1.71,1.13-2.85,1.13c-1.08,0-2.02-0.38-2.8-1.15c-0.79-0.77-1.18-1.69-1.18-2.78
		c0-1.08,0.39-2.01,1.18-2.78c0.79-0.77,1.72-1.15,2.8-1.15c1.11,0,2.06,0.38,2.83,1.15c0.77,0.77,1.16,1.69,1.16,2.78
		C34.37,28.06,34,28.99,33.24,29.74"/>
	<path class="st43" d="M58.3,29.74c-0.76,0.75-1.71,1.13-2.85,1.13c-1.08,0-2.02-0.38-2.8-1.15c-0.79-0.77-1.18-1.69-1.18-2.78
		c0-1.08,0.39-2.01,1.18-2.78c0.79-0.77,1.72-1.15,2.8-1.15c1.11,0,2.06,0.38,2.83,1.15c0.77,0.77,1.16,1.69,1.16,2.78
		C59.43,28.06,59.05,28.99,58.3,29.74"/>
	<path class="st41" d="M26.11,30.9l-1.83,0.01v-6.86l1.83-0.01V30.9z M26.6,20.46c-0.4-0.39-0.88-0.59-1.44-0.59
		c-0.55,0-1.03,0.2-1.43,0.59c-0.4,0.39-0.6,0.87-0.6,1.42c0,0.55,0.2,1.02,0.6,1.42c0.4,0.39,0.88,0.59,1.43,0.59
		c0.59,0,1.07-0.19,1.46-0.57c0.39-0.38,0.58-0.86,0.58-1.43C27.2,21.33,27,20.85,26.6,20.46 M25.84,22.55
		c-0.18,0.18-0.41,0.27-0.68,0.27c-0.26,0-0.48-0.09-0.67-0.27c-0.19-0.18-0.28-0.4-0.28-0.66c0-0.26,0.09-0.48,0.28-0.66
		c0.19-0.18,0.41-0.27,0.67-0.27c0.27,0,0.49,0.09,0.67,0.27c0.18,0.18,0.28,0.4,0.28,0.66C26.11,22.15,26.02,22.37,25.84,22.55"/>
	<path class="st1" d="M29.35,28.05c0.11,0.14,0.25,0.25,0.43,0.32c0.18,0.07,0.36,0.11,0.55,0.11c0.59,0,1.18-0.23,1.76-0.7
		l0.95,1.38c-0.41,0.29-0.84,0.52-1.29,0.68c-0.45,0.16-0.93,0.25-1.45,0.25c-0.46,0.02-0.89-0.07-1.29-0.26
		c-0.4-0.19-0.74-0.43-1.04-0.74c-0.29-0.3-0.52-0.63-0.68-1c-0.16-0.37-0.24-0.73-0.23-1.08c-0.02-0.43,0.06-0.83,0.23-1.23
		c0.17-0.39,0.4-0.74,0.69-1.04c0.29-0.3,0.63-0.54,1.02-0.71c0.39-0.17,0.8-0.26,1.22-0.25c0.63,0,1.22,0.16,1.77,0.49
		c0.56,0.34,0.97,0.78,1.23,1.32L29.35,28.05z M31.04,25.52c-0.16-0.16-0.42-0.24-0.8-0.24c-0.39,0-0.73,0.15-1.01,0.46
		c-0.27,0.31-0.41,0.66-0.41,1.04v0.21L31.04,25.52z"/>
	<polygon class="st41" points="33.56,23.93 35.45,23.95 36.44,26.64 37.87,23.84 37.93,23.84 39.3,26.61 40.25,23.95 42.21,23.93 
		39.53,29.98 39.47,29.98 37.9,26.94 36.32,29.98 36.27,29.98 	"/>
	<polygon class="st41" points="48.69,30.1 48.66,30.1 45.72,23.91 47.57,23.9 48.72,26.81 49.83,23.9 51.77,23.9 	"/>
	<path class="st1" d="M54.65,28.05c0.11,0.14,0.25,0.25,0.43,0.32c0.18,0.07,0.36,0.11,0.55,0.11c0.59,0,1.18-0.23,1.76-0.7
		l0.95,1.38c-0.41,0.29-0.84,0.52-1.29,0.68c-0.45,0.16-0.93,0.25-1.45,0.25c-0.46,0.02-0.89-0.07-1.29-0.26
		c-0.4-0.19-0.74-0.43-1.04-0.74c-0.29-0.3-0.52-0.63-0.68-1c-0.16-0.37-0.24-0.73-0.23-1.08c-0.02-0.43,0.06-0.83,0.23-1.23
		c0.17-0.39,0.4-0.74,0.69-1.04c0.29-0.3,0.63-0.54,1.02-0.71c0.39-0.17,0.8-0.26,1.23-0.25c0.63,0,1.22,0.16,1.77,0.49
		c0.56,0.34,0.97,0.78,1.23,1.32L54.65,28.05z M56.33,25.52c-0.16-0.16-0.42-0.24-0.8-0.24c-0.39,0-0.73,0.15-1.01,0.46
		c-0.27,0.31-0.41,0.66-0.41,1.04v0.21L56.33,25.52z"/>
	<path class="st41" d="M58.95,25.39l0.38-1.51h0.59V22.7L61.73,22v1.89h1.04v1.51h-1.04v2.1c0,0.51,0.32,0.76,0.97,0.76
		c0.21,0,0.37-0.02,0.48-0.07l-0.53,1.78c-0.06,0.01-0.1,0.01-0.15,0.02c-0.04,0-0.08,0.01-0.12,0.01c-0.83,0-1.45-0.19-1.86-0.58
		c-0.41-0.38-0.62-0.98-0.62-1.79v-2.24H58.95z"/>
	<path class="st41" d="M23.37,23.65c0.27,0.26,0.56,0.45,0.88,0.57l-7.43,9.01l-5.03-14.65l6.14,8.23l4.7-4.75
		C22.67,22.66,22.92,23.2,23.37,23.65"/>
	<path class="st41" d="M43.13,1.32L27.29,20.52c-0.09-0.14-0.21-0.28-0.34-0.41c-0.47-0.46-1.03-0.7-1.7-0.73L43.13,1.32z"/>
	<polygon class="st41" points="21.94,33.74 21.45,33.74 21.45,33.56 22.64,33.56 22.64,33.74 22.15,33.74 22.15,35.12 21.94,35.12 	
		"/>
	<polygon class="st42" points="21.94,33.74 21.45,33.74 21.45,33.56 22.64,33.56 22.64,33.74 22.15,33.74 22.15,35.12 21.94,35.12 	
		"/>
	<path class="st41" d="M23.72,34.88c0.09,0.06,0.23,0.1,0.37,0.1c0.21,0,0.34-0.11,0.34-0.27c0-0.15-0.09-0.23-0.3-0.31
		c-0.26-0.09-0.42-0.22-0.42-0.44c0-0.24,0.21-0.42,0.52-0.42c0.16,0,0.28,0.04,0.35,0.08l-0.06,0.16c-0.05-0.03-0.16-0.07-0.3-0.07
		c-0.22,0-0.3,0.13-0.3,0.23c0,0.15,0.1,0.22,0.32,0.3c0.27,0.1,0.41,0.23,0.41,0.46c0,0.24-0.18,0.45-0.56,0.45
		c-0.15,0-0.32-0.04-0.41-0.1L23.72,34.88z"/>
	<path class="st42" d="M23.72,34.88c0.09,0.06,0.23,0.1,0.37,0.1c0.21,0,0.34-0.11,0.34-0.27c0-0.15-0.09-0.23-0.3-0.31
		c-0.26-0.09-0.42-0.22-0.42-0.44c0-0.24,0.21-0.42,0.52-0.42c0.16,0,0.28,0.04,0.35,0.08l-0.06,0.16c-0.05-0.03-0.16-0.07-0.3-0.07
		c-0.22,0-0.3,0.13-0.3,0.23c0,0.15,0.1,0.22,0.32,0.3c0.27,0.1,0.41,0.23,0.41,0.46c0,0.24-0.18,0.45-0.56,0.45
		c-0.15,0-0.32-0.04-0.41-0.1L23.72,34.88z"/>
	<polygon class="st41" points="26.18,33.74 25.69,33.74 25.69,33.56 26.88,33.56 26.88,33.74 26.39,33.74 26.39,35.12 26.18,35.12 	
		"/>
	<polygon class="st42" points="26.18,33.74 25.69,33.74 25.69,33.56 26.88,33.56 26.88,33.74 26.39,33.74 26.39,35.12 26.18,35.12 	
		"/>
	<path class="st41" d="M28.09,34.63l-0.17,0.49h-0.21l0.54-1.56h0.25l0.55,1.56h-0.22l-0.17-0.49H28.09z M28.61,34.48l-0.16-0.45
		c-0.04-0.1-0.06-0.19-0.08-0.28h-0.01c-0.02,0.09-0.05,0.19-0.08,0.28l-0.16,0.45H28.61z"/>
	<path class="st42" d="M28.09,34.63l-0.17,0.49h-0.21l0.54-1.56h0.25l0.55,1.56h-0.22l-0.17-0.49H28.09z M28.61,34.48l-0.16-0.45
		c-0.04-0.1-0.06-0.19-0.08-0.28h-0.01c-0.02,0.09-0.05,0.19-0.08,0.28l-0.16,0.45H28.61z"/>
	<path class="st41" d="M30.23,35.12v-1.56h0.23l0.51,0.79c0.12,0.18,0.21,0.35,0.29,0.51l0.01,0c-0.02-0.21-0.02-0.4-0.02-0.64
		v-0.65h0.2v1.56h-0.21l-0.51-0.79c-0.11-0.17-0.22-0.35-0.3-0.52l-0.01,0c0.01,0.2,0.02,0.38,0.02,0.64v0.67H30.23z"/>
	<path class="st42" d="M30.23,35.12v-1.56h0.23l0.51,0.79c0.12,0.18,0.21,0.35,0.29,0.51l0.01,0c-0.02-0.21-0.02-0.4-0.02-0.64
		v-0.65h0.2v1.56h-0.21l-0.51-0.79c-0.11-0.17-0.22-0.35-0.3-0.52l-0.01,0c0.01,0.2,0.02,0.38,0.02,0.64v0.67H30.23z"/>
	<path class="st41" d="M32.75,33.59c0.13-0.02,0.28-0.03,0.44-0.03c0.3,0,0.51,0.07,0.65,0.19c0.14,0.13,0.23,0.31,0.23,0.56
		c0,0.25-0.08,0.46-0.23,0.61c-0.15,0.15-0.4,0.22-0.71,0.22c-0.15,0-0.27-0.01-0.38-0.02V33.59z M32.95,34.96
		c0.05,0.01,0.13,0.01,0.21,0.01c0.44,0,0.68-0.24,0.68-0.66c0-0.37-0.21-0.6-0.65-0.6c-0.11,0-0.19,0.01-0.24,0.02V34.96z"/>
	<path class="st42" d="M32.75,33.59c0.13-0.02,0.28-0.03,0.44-0.03c0.3,0,0.51,0.07,0.65,0.19c0.14,0.13,0.23,0.31,0.23,0.56
		c0,0.25-0.08,0.46-0.23,0.61c-0.15,0.15-0.4,0.22-0.71,0.22c-0.15,0-0.27-0.01-0.38-0.02V33.59z M32.95,34.96
		c0.05,0.01,0.13,0.01,0.21,0.01c0.44,0,0.68-0.24,0.68-0.66c0-0.37-0.21-0.6-0.65-0.6c-0.11,0-0.19,0.01-0.24,0.02V34.96z"/>
	<rect x="35.28" y="33.56" class="st41" width="0.21" height="1.56"/>
	<rect x="35.28" y="33.56" class="st42" width="0.21" height="1.56"/>
	<path class="st41" d="M36.8,35.12v-1.56h0.23l0.51,0.79c0.12,0.18,0.21,0.35,0.29,0.51l0.01,0c-0.02-0.21-0.02-0.4-0.02-0.64v-0.65
		H38v1.56h-0.21l-0.51-0.79c-0.11-0.17-0.22-0.35-0.3-0.52l-0.01,0c0.01,0.2,0.02,0.38,0.02,0.64v0.67H36.8z"/>
	<path class="st42" d="M36.8,35.12v-1.56h0.23l0.51,0.79c0.12,0.18,0.21,0.35,0.29,0.51l0.01,0c-0.02-0.21-0.02-0.4-0.02-0.64v-0.65
		H38v1.56h-0.21l-0.51-0.79c-0.11-0.17-0.22-0.35-0.3-0.52l-0.01,0c0.01,0.2,0.02,0.38,0.02,0.64v0.67H36.8z"/>
	<path class="st41" d="M40.53,35.05c-0.09,0.03-0.28,0.09-0.49,0.09c-0.24,0-0.44-0.06-0.6-0.21c-0.14-0.13-0.22-0.34-0.22-0.58
		c0-0.47,0.33-0.81,0.87-0.81c0.19,0,0.33,0.04,0.4,0.07l-0.05,0.16c-0.09-0.04-0.19-0.07-0.35-0.07c-0.39,0-0.64,0.24-0.64,0.63
		c0,0.4,0.24,0.63,0.62,0.63c0.14,0,0.23-0.02,0.27-0.04v-0.47H40v-0.16h0.53V35.05z"/>
	<path class="st42" d="M40.53,35.05c-0.09,0.03-0.28,0.09-0.49,0.09c-0.24,0-0.44-0.06-0.6-0.21c-0.14-0.13-0.22-0.34-0.22-0.58
		c0-0.47,0.33-0.81,0.87-0.81c0.19,0,0.33,0.04,0.4,0.07l-0.05,0.16c-0.09-0.04-0.19-0.07-0.35-0.07c-0.39,0-0.64,0.24-0.64,0.63
		c0,0.4,0.24,0.63,0.62,0.63c0.14,0,0.23-0.02,0.27-0.04v-0.47H40v-0.16h0.53V35.05z"/>
	<path class="st41" d="M44.57,35.35c-0.22-0.06-0.43-0.12-0.61-0.18c-0.03-0.01-0.07-0.02-0.1-0.02c-0.38-0.01-0.71-0.29-0.71-0.79
		c0-0.5,0.31-0.82,0.75-0.82c0.44,0,0.72,0.33,0.72,0.79c0,0.4-0.19,0.66-0.46,0.75v0.01c0.16,0.04,0.33,0.08,0.47,0.1L44.57,35.35z
		 M44.4,34.34c0-0.31-0.17-0.63-0.51-0.63c-0.35,0-0.52,0.31-0.52,0.65c0,0.33,0.19,0.63,0.51,0.63
		C44.22,34.98,44.4,34.69,44.4,34.34"/>
	<path class="st42" d="M44.57,35.35c-0.22-0.06-0.43-0.12-0.61-0.18c-0.03-0.01-0.07-0.02-0.1-0.02c-0.38-0.01-0.71-0.29-0.71-0.79
		c0-0.5,0.31-0.82,0.75-0.82c0.44,0,0.72,0.33,0.72,0.79c0,0.4-0.19,0.66-0.46,0.75v0.01c0.16,0.04,0.33,0.08,0.47,0.1L44.57,35.35z
		 M44.4,34.34c0-0.31-0.17-0.63-0.51-0.63c-0.35,0-0.52,0.31-0.52,0.65c0,0.33,0.19,0.63,0.51,0.63
		C44.22,34.98,44.4,34.69,44.4,34.34z"/>
	<path class="st41" d="M46.05,33.56v0.92c0,0.35,0.16,0.5,0.37,0.5c0.24,0,0.39-0.15,0.39-0.5v-0.92h0.21v0.91
		c0,0.48-0.26,0.68-0.61,0.68c-0.33,0-0.57-0.18-0.57-0.67v-0.92H46.05z"/>
	<path class="st42" d="M46.05,33.56v0.92c0,0.35,0.16,0.5,0.37,0.5c0.24,0,0.39-0.15,0.39-0.5v-0.92h0.21v0.91
		c0,0.48-0.26,0.68-0.61,0.68c-0.33,0-0.57-0.18-0.57-0.67v-0.92H46.05z"/>
	<path class="st41" d="M48.5,34.63l-0.17,0.49h-0.21l0.54-1.56h0.25l0.55,1.56h-0.22l-0.17-0.49H48.5z M49.03,34.48l-0.16-0.45
		c-0.04-0.1-0.06-0.19-0.08-0.28h0c-0.02,0.09-0.05,0.19-0.08,0.28l-0.16,0.45H49.03z"/>
	<path class="st42" d="M48.5,34.63l-0.17,0.49h-0.21l0.54-1.56h0.25l0.55,1.56h-0.22l-0.17-0.49H48.5z M49.03,34.48l-0.16-0.45
		c-0.04-0.1-0.06-0.19-0.08-0.28h0c-0.02,0.09-0.05,0.19-0.08,0.28l-0.16,0.45H49.03z"/>
	<polygon class="st41" points="50.65,33.56 50.86,33.56 50.86,34.96 51.54,34.96 51.54,35.12 50.65,35.12 	"/>
	<polygon class="st42" points="50.65,33.56 50.86,33.56 50.86,34.96 51.54,34.96 51.54,35.12 50.65,35.12 	"/>
	<rect x="52.72" y="33.56" class="st41" width="0.21" height="1.56"/>
	<rect x="52.72" y="33.56" class="st42" width="0.21" height="1.56"/>
	<polygon class="st41" points="54.54,33.74 54.06,33.74 54.06,33.56 55.24,33.56 55.24,33.74 54.75,33.74 54.75,35.12 54.54,35.12 	
		"/>
	<polygon class="st42" points="54.54,33.74 54.06,33.74 54.06,33.56 55.24,33.56 55.24,33.74 54.75,33.74 54.75,35.12 54.54,35.12 	
		"/>
	<path class="st41" d="M56.79,35.12v-0.66l-0.51-0.9h0.24l0.23,0.43c0.06,0.12,0.11,0.21,0.16,0.32h0c0.04-0.1,0.1-0.2,0.16-0.32
		l0.23-0.43h0.24L57,34.46v0.66H56.79z"/>
	<path class="st42" d="M56.79,35.12v-0.66l-0.51-0.9h0.24l0.23,0.43c0.06,0.12,0.11,0.21,0.16,0.32h0c0.04-0.1,0.1-0.2,0.16-0.32
		l0.23-0.43h0.24L57,34.46v0.66H56.79z"/>
</g>
</svg>
