<?xml version="1.0" encoding="utf-8"?>
<!-- Generator: Adobe Illustrator 25.0.1, SVG Export Plug-In . SVG Version: 6.00 Build 0)  -->
<svg version="1.0" id="Layer_1" xmlns="http://www.w3.org/2000/svg" xmlns:xlink="http://www.w3.org/1999/xlink" x="0px" y="0px"
	 viewBox="0 0 65.73 43.73" style="enable-background:new 0 0 65.73 43.73;" xml:space="preserve">
<style type="text/css">
	.st0{fill:#000104;}
	.st1{fill:#FFFFFF;}
	.st2{fill:#EF493E;}
	.st3{opacity:0.6;fill-rule:evenodd;clip-rule:evenodd;fill:#FBBE43;}
	.st4{opacity:0.6;fill-rule:evenodd;clip-rule:evenodd;fill:#EF930E;}
	.st5{opacity:0.6;fill-rule:evenodd;clip-rule:evenodd;fill:#E67906;}
	.st6{fill:#9F8829;}
	.st7{fill:#3972A6;}
	.st8{fill:url(#SVGID_1_);stroke:#2B53A4;stroke-width:0.5;stroke-miterlimit:10;}
	.st9{fill:none;}
	.st10{fill:url(#SVGID_2_);}
	.st11{fill:url(#SVGID_3_);}
	.st12{fill:#B3B3B3;}
	.st13{fill:url(#SVGID_4_);}
	.st14{fill:url(#SVGID_5_);}
	.st15{fill:url(#SVGID_6_);}
	.st16{fill:#FFFFFF;stroke:#FFFFFF;stroke-width:0.25;stroke-miterlimit:10;}
	.st17{fill:#00001D;}
	.st18{fill:#4DA0C5;}
	.st19{fill:url(#SVGID_7_);}
	.st20{fill:#2E6A85;}
	.st21{fill:none;stroke:#144FA1;stroke-width:0.113;stroke-linejoin:round;stroke-miterlimit:10;}
	.st22{fill:#F27337;}
	.st23{fill:#8EB8D4;}
	.st24{fill:#F38056;}
	.st25{fill:#626365;}
	.st26{fill:#EF6D23;}
	.st27{fill:#284B82;}
	.st28{fill:#242956;}
	.st29{fill:#15142A;}
	.st30{fill:#84C343;}
	.st31{fill:#4CA1C6;}
	.st32{fill:#121617;}
	.st33{fill:#CF8966;}
	.st34{fill:#F37639;}
	.st35{opacity:0.3;fill:url(#SVGID_8_);}
	.st36{fill:#373277;}
	.st37{fill:#E61E25;}
	.st38{fill:#2555A5;}
	.st39{fill:#2E225E;}
	.st40{fill:#F8A425;}
	.st41{fill:#2058A7;}
	.st42{fill:none;stroke:#205AA8;stroke-width:0.156;stroke-miterlimit:10;}
	.st43{fill:#49A3C7;}
	.st44{fill-rule:evenodd;clip-rule:evenodd;}
	.st45{fill-rule:evenodd;clip-rule:evenodd;fill:url(#SVGID_9_);}
	.st46{fill-rule:evenodd;clip-rule:evenodd;fill:url(#SVGID_10_);}
	.st47{fill-rule:evenodd;clip-rule:evenodd;fill:url(#SVGID_11_);}
	.st48{fill:#1D2251;}
	.st49{fill:#2260AC;}
	.st50{fill:url(#SVGID_12_);}
	.st51{fill:#FFFFFC;}
	.st52{fill:#4C9FC5;}
	.st53{fill:#28306D;}
	.st54{fill:#4C9EC5;}
	.st55{fill:#28306E;}
	.st56{fill:#29306F;}
	.st57{fill:#F7F7FB;}
	.st58{fill:url(#SVGID_13_);}
	.st59{fill:url(#SVGID_14_);}
	.st60{fill:url(#SVGID_15_);}
	.st61{fill:url(#SVGID_16_);}
	.st62{fill:#10123C;}
	.st63{fill:#F5842C;}
	.st64{fill:#1F305E;}
	.st65{fill:#87BBD1;}
	.st66{fill:#203160;}
	.st67{fill:#235779;}
	.st68{fill:#359FA1;}
	.st69{fill:#A4D1A4;}
	.st70{fill:#B9DBBC;}
	.st71{fill:#C6DDCA;}
	.st72{fill:#662E14;}
	.st73{fill:#1D79A4;}
	.st74{fill:#C14B28;}
	.st75{fill:url(#SVGID_17_);}
	.st76{fill:url(#SVGID_18_);}
	.st77{fill:url(#SVGID_19_);}
	.st78{fill:url(#SVGID_20_);}
	.st79{fill:url(#SVGID_21_);}
	.st80{fill:url(#SVGID_22_);}
	.st81{fill:url(#SVGID_23_);}
	.st82{fill:url(#SVGID_24_);}
	.st83{fill:url(#SVGID_25_);}
	.st84{fill:url(#SVGID_26_);}
	.st85{fill:url(#SVGID_27_);}
	.st86{fill:url(#SVGID_28_);}
	.st87{fill:url(#SVGID_29_);}
	.st88{fill:url(#SVGID_30_);}
	.st89{fill:#1F164B;}
	.st90{clip-path:url(#SVGID_32_);fill:#253D97;}
	.st91{fill:url(#SVGID_33_);}
	.st92{fill:url(#SVGID_34_);}
	.st93{fill:url(#SVGID_35_);}
	.st94{fill:url(#SVGID_36_);}
	.st95{fill:url(#SVGID_37_);}
	.st96{fill:url(#SVGID_38_);}
	.st97{fill:url(#SVGID_39_);}
	.st98{fill:url(#SVGID_40_);}
	.st99{fill:url(#SVGID_41_);}
	.st100{fill:#443F41;}
	.st101{fill:#28306F;}
	.st102{fill:#71C49D;}
	.st103{fill:#F0C6A7;}
	.st104{fill:#DB8D82;}
	.st105{fill:#EFB7AC;}
	.st106{opacity:0.21;}
	.st107{fill-rule:evenodd;clip-rule:evenodd;fill:#A9196E;}
	.st108{fill-rule:evenodd;clip-rule:evenodd;fill:#FBE42C;}
	.st109{fill:#FBE42C;}
	.st110{fill:#A9196E;}
	.st111{fill:#7FC143;}
	.st112{clip-path:url(#SVGID_45_);fill:#7FC143;}
	.st113{clip-path:url(#SVGID_51_);fill:#7FC143;}
	.st114{fill:#243F8F;}
	.st115{fill:#EF4E2F;}
	.st116{fill:#010007;}
	.st117{fill:#0C0D37;}
	.st118{fill:#FBAF2D;}
	.st119{fill:url(#SVGID_54_);}
	.st120{fill-rule:evenodd;clip-rule:evenodd;fill:#FFFFFF;}
	.st121{fill:#1D4690;}
	.st122{fill:#3AA949;}
	.st123{fill:#F37A24;}
	.st124{fill:none;stroke:#F37A24;stroke-width:3.7145;stroke-miterlimit:10;}
	.st125{fill:#3AA949;stroke:#FFFFFF;stroke-width:1.3104;stroke-miterlimit:10;}
	.st126{fill:#46A2BB;}
	.st127{fill:#7153A0;}
	.st128{fill:#27316C;}
	.st129{fill:#2C65AE;}
	.st130{fill:#452D7A;}
	.st131{fill:#442C7A;}
	.st132{fill:#1A2642;}
	.st133{fill-rule:evenodd;clip-rule:evenodd;fill:#567EB8;}
	.st134{fill-rule:evenodd;clip-rule:evenodd;fill:#6A7EB8;}
	.st135{fill-rule:evenodd;clip-rule:evenodd;fill:#6A7EB9;}
	.st136{fill-rule:evenodd;clip-rule:evenodd;fill:#EE3C2D;}
	.st137{fill-rule:evenodd;clip-rule:evenodd;fill:#EF493F;}
	.st138{fill-rule:evenodd;clip-rule:evenodd;fill:#ED2C24;}
	.st139{fill-rule:evenodd;clip-rule:evenodd;fill:#E9AE28;}
	.st140{fill-rule:evenodd;clip-rule:evenodd;fill:#D69B28;}
	.st141{fill-rule:evenodd;clip-rule:evenodd;fill:#FCB729;}
	.st142{fill-rule:evenodd;clip-rule:evenodd;fill:#409E47;}
	.st143{fill-rule:evenodd;clip-rule:evenodd;fill:#4BB450;}
	.st144{fill-rule:evenodd;clip-rule:evenodd;fill:#338440;}
	.st145{fill:#C09C36;}
	.st146{fill:#1E552A;}
	.st147{clip-path:url(#SVGID_56_);fill:url(#SVGID_57_);}
	.st148{fill:#023A1E;}
	.st149{fill:#FFFFFA;}
	.st150{fill:#0D4F28;}
	.st151{fill:#0E5128;}
	.st152{fill:#0D4E27;}
	.st153{fill:#0E5229;}
	.st154{fill:#0E4823;}
	.st155{fill:#0E4C27;}
	.st156{fill:#F3F6E0;}
	.st157{fill:#0E4F28;}
	.st158{fill:#114823;}
	.st159{fill:#105229;}
	.st160{fill:#0A4A2B;}
	.st161{fill:#134F27;}
	.st162{fill:#165229;}
	.st163{fill:#0D5029;}
	.st164{fill:#0B4E2B;}
	.st165{fill:#105028;}
	.st166{fill:#0A492A;}
	.st167{fill:#E9F3E2;}
	.st168{fill:#144D26;}
	.st169{fill:#185C2F;}
	.st170{fill:#0F5028;}
	.st171{fill:#F3F8EA;}
	.st172{fill:#114D26;}
	.st173{fill:#70A685;}
	.st174{fill:#0D4F2A;}
	.st175{fill:#094A24;}
	.st176{fill:#0F4F27;}
	.st177{fill:#0A4C26;}
	.st178{fill:#A2D29A;}
	.st179{fill:#4D7E44;}
	.st180{fill:#E8F2E1;}
	.st181{fill:#EDF5E5;}
	.st182{fill:#E6F2E7;}
	.st183{fill:#E5F1DC;}
	.st184{fill:#E9F3E3;}
	.st185{fill:#E9F3E5;}
	.st186{fill:#E5F1DB;}
	.st187{fill:#D8ECD7;}
	.st188{fill:#D9EBD4;}
	.st189{fill:#E2F0DE;}
	.st190{fill:#366B4B;}
	.st191{fill:#5D6162;}
	.st192{fill:#212E5F;}
	.st193{fill:#DD1F26;}
	.st194{clip-path:url(#SVGID_59_);}
	.st195{fill:#23396F;}
	.st196{fill:#7FC24E;}
	.st197{clip-path:url(#SVGID_59_);fill:#23396F;}
	.st198{clip-path:url(#SVGID_59_);fill:#7FC24E;}
	.st199{fill:#91CEA4;}
	.st200{fill:#90CEA4;}
	.st201{fill:#C02026;}
	.st202{fill:#362E7E;}
</style>
<g>
	<path class="st32" d="M29.84,26.13c0.15-0.76,0.5-1.17,1.07-1.17c0.61,0,0.72,0.67,0.72,1.01c0,0.09-0.14,0.16-0.38,0.16H29.84z
		 M29.8,26.89v-0.35l2.82-0.06c0.21,0,0.33-0.01,0.33-0.18c0-0.46-0.43-1.76-1.76-1.76c-1.01,0-1.54,0.23-2.03,0.84
		c-0.5,0.63-0.57,1.05-0.57,1.68c0,0.7,0.12,1.27,0.65,1.87c0.41,0.45,0.93,0.61,1.68,0.61c1.28,0,1.88-0.77,2.12-1.2
		c0.08-0.15,0.06-0.19,0-0.23l-0.17-0.1c-0.05-0.02-0.09-0.02-0.14,0.06c-0.24,0.36-0.69,0.66-1.41,0.66
		C30.65,28.72,29.8,28.04,29.8,26.89"/>
	<path class="st32" d="M42.77,28.37c0,0.2-0.42,0.52-0.75,0.54c-0.28,0-0.54-0.23-0.54-0.69c0-0.83,0.77-1.02,1.28-1.34V28.37z
		 M44.99,29.04l-0.22-0.16c-0.05-0.02-0.33-0.05-0.49-0.05c-0.21,0-0.3-0.18-0.3-0.79V27.5l-0.02-1.79c0-0.31-0.02-0.62-0.28-0.85
		c-0.21-0.18-0.42-0.32-1.07-0.32c-0.77,0-1.4,0.27-1.89,0.63c-0.35,0.25-0.54,0.61-0.54,0.93c0,0.25,0.19,0.39,0.4,0.39
		c0.49,0,0.7-0.25,0.7-0.66c0-0.27-0.12-0.44,0.05-0.56c0.19-0.14,0.47-0.2,0.68-0.2c0.26,0,0.47,0.05,0.58,0.17
		c0.14,0.14,0.16,0.41,0.19,0.63v0.59c-0.26,0.18-0.7,0.36-1.42,0.7c-0.84,0.36-1.07,0.87-1.07,1.39c0,0.63,0.37,0.98,0.8,0.98
		c0.23,0,0.48,0,0.75-0.08c0.45-0.15,0.76-0.34,1.01-0.61h0.05c0.16,0.49,0.54,0.71,0.98,0.69c0.61-0.02,0.82-0.15,0.82-0.15
		S45.04,29.07,44.99,29.04"/>
	<path class="st32" d="M56.09,26.97c0.08,1.16-0.25,2.1-1.01,2.1c-0.47,0-0.74-0.18-0.95-0.49c-0.35-0.49-0.43-0.92-0.47-1.58
		c-0.06-0.83,0.05-1.3,0.38-1.7c0.18-0.22,0.41-0.31,0.71-0.31C55.27,24.99,56,25.72,56.09,26.97 M57.51,27
		c-0.05-0.67-0.35-1.26-0.93-1.79c-0.42-0.37-1.03-0.67-1.81-0.67c-0.48,0-1.08,0.09-1.61,0.54c-0.66,0.54-0.88,1.34-0.84,1.88
		c0.05,0.69,0.2,1.17,0.75,1.76c0.57,0.61,1.21,0.82,1.95,0.82c0.78,0,1.46-0.3,1.9-0.82C57.32,28.25,57.56,27.63,57.51,27"/>
	<path class="st32" d="M27.41,22.65c-0.01-0.12,0-0.21-0.14-0.24c-0.14-0.03-1.37-0.24-2.44-0.24c-1.4,0-2.45,0.48-3.14,1.06
		c-0.9,0.76-1.37,1.71-1.48,2.69c-0.1,0.88,0.17,2.05,0.97,2.71c0.66,0.56,1.46,0.94,2.95,0.94c1.65,0,2.86-0.82,3.65-1.69
		c0.03-0.04,0.02-0.12-0.01-0.15l-0.42-0.56c-0.03-0.03,0.03,0.55-0.04,0.62c-0.56,0.61-1.5,1.07-2.78,1.07
		c-0.56,0-1.23-0.08-1.92-0.78c-0.78-0.8-0.86-1.99-0.79-2.61c0.16-1.45,1.08-2.89,2.94-2.89c0.91,0,1.48,0.32,1.95,0.74
		c0.21,0.21,0.37,0.44,0.49,0.65C27.2,23.98,27.43,22.69,27.41,22.65"/>
	<path class="st32" d="M36.54,29.57c0.14,0,0.21-0.09,0.29-0.24c0.06-0.11,0.93-2.05,1.08-2.36c0.23-0.48,0.77-1.6,0.98-1.8
		c0.12-0.1,0.3-0.12,0.44-0.12h0.2c0.06,0,0.08-0.03,0.08-0.09v-0.25c0-0.06-0.02-0.08-0.12-0.08c-0.09,0-0.37,0.03-0.91,0.03
		c-0.63,0-0.89-0.03-1.03-0.03c-0.07,0-0.09,0.02-0.09,0.08v0.25c0,0.06,0.02,0.09,0.07,0.09h0.19c0.21,0,0.35,0.2,0.26,0.5
		c-0.16,0.53-0.86,2.18-1,2.49h-0.07l-0.58-1.47c-0.07-0.2-0.4-1.12-0.4-1.33c0-0.12,0.12-0.19,0.26-0.19h0.19
		c0.07,0,0.09-0.05,0.09-0.11v-0.22c0-0.07-0.02-0.09-0.12-0.09c-0.14,0-0.44,0.03-1.16,0.03c-0.95,0-1.14-0.03-1.28-0.03
		c-0.09,0-0.12,0.02-0.12,0.09v0.24c0,0.07,0.02,0.09,0.08,0.09h0.22c0.21,0,0.3,0.09,0.49,0.41c0.09,0.15,0.55,1.32,0.63,1.54
		c0.12,0.28,0.96,2.2,1.03,2.31C36.33,29.48,36.4,29.57,36.54,29.57"/>
	<path class="st32" d="M51.42,29.36V29.1c0-0.06-0.03-0.08-0.14-0.08h-0.33c-0.14,0-0.28-0.07-0.28-0.32c0-0.23,0.01-0.73,0.01-1.09
		v-1.63c0-0.46-0.13-0.81-0.64-1.17c-0.26-0.2-0.63-0.27-1.03-0.27c-0.35,0-0.65,0.11-0.93,0.27c-0.23,0.11-0.44,0.29-0.58,0.45
		h-0.07l-0.09-0.59c-0.02-0.09-0.07-0.14-0.14-0.14c-0.07,0-1.51,0.02-1.51,0.02c-0.03,0.01-0.06,0.18-0.08,0.36h0.63v0.76
		c0.01,0.02,0.01,0.05,0.01,0.09v3.02c0,0.18-0.16,0.23-0.3,0.23h-0.23c-0.09,0-0.12,0.02-0.12,0.09v0.22
		c0,0.07,0.02,0.11,0.07,0.11c0.07,0,0.44-0.03,1.16-0.03c0.7,0,1.03,0.03,1.1,0.03c0.07,0,0.09-0.05,0.09-0.11v-0.2
		c0-0.08-0.02-0.1-0.12-0.1H47.7c-0.16,0-0.22-0.14-0.22-0.39V26.3c0-0.31,0.06-0.62,0.24-0.81c0.28-0.25,0.56-0.3,0.75-0.3
		c0.26,0,0.47,0,0.7,0.2c0.28,0.23,0.3,0.52,0.3,0.98v1.3c0,0.45-0.01,0.77-0.05,1.07c-0.02,0.2-0.12,0.27-0.21,0.27h-0.23
		c-0.12,0-0.14,0.02-0.14,0.09v0.19c0,0.09,0.02,0.14,0.09,0.14c0.07,0,0.44-0.03,1.14-0.03c0.81,0,1.16,0.03,1.26,0.03
		C51.4,29.44,51.42,29.41,51.42,29.36"/>
	<g>
		<path class="st32" d="M40.56,31.72c0.13-0.02,0.31-0.04,0.53-0.04c0.27,0,0.47,0.06,0.6,0.17c0.12,0.1,0.19,0.25,0.19,0.44
			c0,0.19-0.06,0.34-0.17,0.45c-0.15,0.15-0.38,0.23-0.66,0.23c-0.08,0-0.16,0-0.22-0.02v0.84h-0.28V31.72z M40.84,32.73
			c0.06,0.02,0.14,0.02,0.23,0.02c0.33,0,0.54-0.16,0.54-0.45c0-0.28-0.2-0.41-0.51-0.41c-0.12,0-0.21,0.01-0.26,0.02V32.73z"/>
		<path class="st32" d="M42.88,31.7v0.87h1.04V31.7h0.28v2.09h-0.28v-0.98h-1.04v0.98H42.6V31.7H42.88z"/>
		<path class="st32" d="M45.37,33.13l-0.22,0.66h-0.29l0.73-2.09h0.33l0.73,2.09h-0.3l-0.23-0.66H45.37z M46.08,32.92l-0.21-0.6
			c-0.05-0.14-0.08-0.26-0.11-0.38h-0.01c-0.03,0.12-0.07,0.25-0.11,0.38l-0.21,0.6H46.08z"/>
		<path class="st32" d="M47.32,31.72c0.14-0.03,0.34-0.04,0.53-0.04c0.3,0,0.49,0.05,0.62,0.17c0.11,0.09,0.17,0.24,0.17,0.4
			c0,0.28-0.18,0.46-0.4,0.53v0.01c0.17,0.06,0.26,0.2,0.31,0.42c0.07,0.29,0.12,0.49,0.17,0.57h-0.29
			c-0.04-0.06-0.08-0.24-0.14-0.5c-0.06-0.29-0.18-0.4-0.43-0.41H47.6v0.9h-0.28V31.72z M47.6,32.67h0.28c0.3,0,0.48-0.16,0.48-0.4
			c0-0.27-0.2-0.39-0.49-0.39c-0.13,0-0.23,0.01-0.27,0.03V32.67z"/>
		<path class="st32" d="M51.19,32.87c-0.02-0.29-0.03-0.64-0.03-0.9h-0.01c-0.07,0.24-0.16,0.5-0.27,0.79l-0.38,1.01h-0.21
			l-0.35-0.99c-0.1-0.29-0.19-0.56-0.25-0.81h-0.01c-0.01,0.26-0.02,0.61-0.04,0.92l-0.06,0.9h-0.26l0.15-2.09h0.35l0.37,1.01
			c0.09,0.26,0.16,0.49,0.22,0.7h0.01c0.05-0.21,0.13-0.44,0.23-0.7l0.38-1.01h0.35l0.13,2.09h-0.27L51.19,32.87z"/>
		<path class="st32" d="M52.6,33.13l-0.22,0.66h-0.29l0.73-2.09h0.33l0.73,2.09h-0.3l-0.23-0.66H52.6z M53.3,32.92l-0.21-0.6
			c-0.05-0.14-0.08-0.26-0.11-0.38h-0.01c-0.03,0.12-0.07,0.25-0.11,0.38l-0.21,0.6H53.3z"/>
	</g>
	<path class="st126" d="M24.2,19.77c0.45,0,0.81-0.35,0.81-0.79c0-0.43-0.36-0.79-0.81-0.79c-0.45,0-0.81,0.35-0.81,0.79
		C23.39,19.42,23.75,19.77,24.2,19.77"/>
	<path class="st126" d="M22.16,19.02c0.45,0,0.81-0.35,0.81-0.79c0-0.43-0.36-0.79-0.81-0.79c-0.45,0-0.81,0.35-0.81,0.79
		C21.36,18.66,21.72,19.02,22.16,19.02"/>
	<path class="st126" d="M19.92,18.74c0.45,0,0.81-0.35,0.81-0.79c0-0.43-0.36-0.79-0.81-0.79c-0.45,0-0.81,0.35-0.81,0.79
		C19.11,18.39,19.47,18.74,19.92,18.74"/>
	<path class="st126" d="M17.74,19.09c0.45,0,0.81-0.35,0.81-0.79c0-0.43-0.36-0.79-0.81-0.79c-0.45,0-0.81,0.35-0.81,0.79
		C16.93,18.73,17.29,19.09,17.74,19.09"/>
	<path class="st126" d="M15.84,19.97c0.45,0,0.81-0.35,0.81-0.79c0-0.43-0.36-0.79-0.81-0.79c-0.45,0-0.81,0.35-0.81,0.79
		C15.03,19.62,15.4,19.97,15.84,19.97"/>
	<path class="st126" d="M14.08,21.27c0.45,0,0.81-0.35,0.81-0.79c0-0.43-0.36-0.79-0.81-0.79c-0.45,0-0.81,0.35-0.81,0.79
		C13.28,20.92,13.64,21.27,14.08,21.27"/>
	<path class="st126" d="M12.89,22.92c0.45,0,0.81-0.35,0.81-0.79c0-0.43-0.36-0.79-0.81-0.79c-0.45,0-0.81,0.35-0.81,0.79
		C12.08,22.56,12.44,22.92,12.89,22.92"/>
	<path class="st126" d="M12.19,24.9c0.45,0,0.81-0.35,0.81-0.79c0-0.43-0.36-0.79-0.81-0.79c-0.45,0-0.81,0.35-0.81,0.79
		C11.38,24.55,11.74,24.9,12.19,24.9"/>
	<path class="st126" d="M12.19,26.81c0.45,0,0.81-0.35,0.81-0.79c0-0.43-0.36-0.79-0.81-0.79c-0.45,0-0.81,0.35-0.81,0.79
		C11.38,26.46,11.74,26.81,12.19,26.81"/>
	<path class="st126" d="M12.61,28.93c0.45,0,0.81-0.35,0.81-0.79c0-0.43-0.36-0.79-0.81-0.79c-0.45,0-0.81,0.35-0.81,0.79
		C11.8,28.58,12.16,28.93,12.61,28.93"/>
	<path class="st126" d="M13.66,30.64c0.45,0,0.81-0.35,0.81-0.79c0-0.43-0.36-0.79-0.81-0.79c-0.45,0-0.81,0.35-0.81,0.79
		C12.86,30.29,13.22,30.64,13.66,30.64"/>
	<path class="st127" d="M15.14,32.08c0.45,0,0.81-0.35,0.81-0.79c0-0.43-0.36-0.79-0.81-0.79c-0.45,0-0.81,0.35-0.81,0.79
		C14.33,31.73,14.69,32.08,15.14,32.08"/>
	<path class="st127" d="M16.97,33.11c0.45,0,0.81-0.35,0.81-0.79c0-0.43-0.36-0.79-0.81-0.79c-0.45,0-0.81,0.35-0.81,0.79
		C16.16,32.75,16.52,33.11,16.97,33.11"/>
	<path class="st127" d="M19.14,33.58c0.45,0,0.81-0.35,0.81-0.79c0-0.43-0.36-0.79-0.81-0.79c-0.45,0-0.81,0.35-0.81,0.79
		C18.33,33.23,18.7,33.58,19.14,33.58"/>
	<path class="st127" d="M21.32,33.58c0.45,0,0.81-0.35,0.81-0.79c0-0.43-0.36-0.79-0.81-0.79c-0.45,0-0.81,0.35-0.81,0.79
		C20.51,33.23,20.87,33.58,21.32,33.58"/>
	<path class="st127" d="M23.5,33.04c0.45,0,0.81-0.35,0.81-0.79c0-0.43-0.36-0.79-0.81-0.79c-0.45,0-0.81,0.35-0.81,0.79
		C22.69,32.68,23.05,33.04,23.5,33.04"/>
	<path class="st127" d="M25.39,33.65c0.27,0,0.49-0.21,0.49-0.48c0-0.26-0.22-0.48-0.49-0.48c-0.27,0-0.49,0.21-0.49,0.48
		C24.9,33.44,25.12,33.65,25.39,33.65"/>
	<path class="st127" d="M23.04,34.76c0.27,0,0.49-0.21,0.49-0.48c0-0.26-0.22-0.48-0.49-0.48c-0.27,0-0.49,0.21-0.49,0.48
		C22.55,34.55,22.77,34.76,23.04,34.76"/>
	<path class="st127" d="M20.3,35.12c0.27,0,0.49-0.21,0.49-0.48c0-0.26-0.22-0.48-0.49-0.48c-0.27,0-0.49,0.21-0.49,0.48
		C19.81,34.9,20.03,35.12,20.3,35.12"/>
	<path class="st127" d="M17.59,34.82c0.27,0,0.49-0.21,0.49-0.48c0-0.26-0.22-0.48-0.49-0.48c-0.27,0-0.49,0.21-0.49,0.48
		C17.1,34.6,17.32,34.82,17.59,34.82"/>
	<path class="st127" d="M15.1,33.89c0.27,0,0.49-0.21,0.49-0.48c0-0.26-0.22-0.48-0.49-0.48c-0.27,0-0.49,0.21-0.49,0.48
		C14.61,33.67,14.83,33.89,15.1,33.89"/>
	<path class="st127" d="M13.02,32.33c0.27,0,0.49-0.21,0.49-0.48c0-0.26-0.22-0.48-0.49-0.48c-0.27,0-0.49,0.21-0.49,0.48
		C12.53,32.11,12.75,32.33,13.02,32.33"/>
	<path class="st126" d="M11.37,30.3c0.27,0,0.49-0.21,0.49-0.48c0-0.26-0.22-0.48-0.49-0.48c-0.27,0-0.49,0.21-0.49,0.48
		C10.87,30.09,11.09,30.3,11.37,30.3"/>
	<path class="st126" d="M10.41,27.96c0.27,0,0.49-0.21,0.49-0.48c0-0.26-0.22-0.48-0.49-0.48c-0.27,0-0.49,0.21-0.49,0.48
		C9.92,27.75,10.14,27.96,10.41,27.96"/>
	<path class="st126" d="M10.17,25.47c0.27,0,0.49-0.21,0.49-0.48c0-0.26-0.22-0.48-0.49-0.48c-0.27,0-0.49,0.21-0.49,0.48
		C9.68,25.26,9.9,25.47,10.17,25.47"/>
	<path class="st126" d="M10.68,23.01c0.27,0,0.49-0.21,0.49-0.48c0-0.26-0.22-0.48-0.49-0.48c-0.27,0-0.49,0.21-0.49,0.48
		C10.19,22.8,10.41,23.01,10.68,23.01"/>
	<path class="st126" d="M11.87,20.77c0.27,0,0.49-0.21,0.49-0.48c0-0.26-0.22-0.48-0.49-0.48c-0.27,0-0.49,0.21-0.49,0.48
		C11.38,20.55,11.6,20.77,11.87,20.77"/>
	<path class="st126" d="M13.71,18.92c0.27,0,0.49-0.21,0.49-0.48c0-0.26-0.22-0.48-0.49-0.48c-0.27,0-0.49,0.21-0.49,0.48
		C13.22,18.71,13.44,18.92,13.71,18.92"/>
	<path class="st126" d="M15.96,17.53c0.27,0,0.49-0.21,0.49-0.48c0-0.26-0.22-0.48-0.49-0.48c-0.27,0-0.49,0.21-0.49,0.48
		C15.47,17.31,15.69,17.53,15.96,17.53"/>
	<path class="st126" d="M18.57,16.81c0.27,0,0.49-0.21,0.49-0.48c0-0.26-0.22-0.48-0.49-0.48c-0.27,0-0.49,0.21-0.49,0.48
		C18.08,16.6,18.3,16.81,18.57,16.81"/>
	<path class="st126" d="M21.24,16.83c0.27,0,0.49-0.21,0.49-0.48c0-0.26-0.22-0.48-0.49-0.48c-0.27,0-0.49,0.21-0.49,0.48
		C20.75,16.61,20.97,16.83,21.24,16.83"/>
	<path class="st126" d="M23.87,17.39c0.27,0,0.49-0.21,0.49-0.48c0-0.26-0.22-0.48-0.49-0.48c-0.27,0-0.49,0.21-0.49,0.48
		C23.38,17.18,23.6,17.39,23.87,17.39"/>
	<path class="st126" d="M26.2,18.66c0.27,0,0.49-0.21,0.49-0.48c0-0.26-0.22-0.48-0.49-0.48c-0.27,0-0.49,0.21-0.49,0.48
		C25.71,18.45,25.93,18.66,26.2,18.66"/>
	<path class="st126" d="M25.63,16.91c0.2,0,0.36-0.16,0.36-0.35c0-0.19-0.16-0.35-0.36-0.35c-0.2,0-0.36,0.16-0.36,0.35
		C25.28,16.75,25.44,16.91,25.63,16.91"/>
	<path class="st126" d="M22.89,15.87c0.2,0,0.36-0.16,0.36-0.35c0-0.19-0.16-0.35-0.36-0.35c-0.2,0-0.36,0.16-0.36,0.35
		C22.54,15.71,22.7,15.87,22.89,15.87"/>
	<path class="st126" d="M19.87,15.49c0.2,0,0.36-0.16,0.36-0.35c0-0.19-0.16-0.35-0.36-0.35c-0.2,0-0.36,0.16-0.36,0.35
		C19.52,15.33,19.68,15.49,19.87,15.49"/>
	<path class="st126" d="M16.87,15.94c0.2,0,0.36-0.16,0.36-0.35c0-0.19-0.16-0.35-0.36-0.35c-0.2,0-0.36,0.16-0.36,0.35
		C16.51,15.78,16.67,15.94,16.87,15.94"/>
	<path class="st126" d="M14.14,17.12c0.2,0,0.36-0.16,0.36-0.35c0-0.19-0.16-0.35-0.36-0.35c-0.2,0-0.36,0.16-0.36,0.35
		C13.78,16.96,13.94,17.12,14.14,17.12"/>
	<path class="st126" d="M11.87,18.92c0.2,0,0.36-0.16,0.36-0.35c0-0.19-0.16-0.35-0.36-0.35c-0.2,0-0.36,0.16-0.36,0.35
		C11.51,18.76,11.67,18.92,11.87,18.92"/>
	<path class="st126" d="M10.19,21.27c0.2,0,0.36-0.16,0.36-0.35c0-0.19-0.16-0.35-0.36-0.35c-0.2,0-0.36,0.16-0.36,0.35
		C9.83,21.12,10,21.27,10.19,21.27"/>
	<path class="st126" d="M9.24,23.89c0.2,0,0.36-0.16,0.36-0.35c0-0.19-0.16-0.35-0.36-0.35c-0.2,0-0.36,0.16-0.36,0.35
		C8.88,23.73,9.04,23.89,9.24,23.89"/>
	<path class="st126" d="M9.08,26.72c0.2,0,0.36-0.16,0.36-0.35c0-0.19-0.16-0.35-0.36-0.35c-0.2,0-0.36,0.16-0.36,0.35
		C8.72,26.56,8.89,26.72,9.08,26.72"/>
	<path class="st126" d="M9.69,29.43c0.2,0,0.36-0.16,0.36-0.35c0-0.19-0.16-0.35-0.36-0.35c-0.2,0-0.36,0.16-0.36,0.35
		C9.33,29.27,9.49,29.43,9.69,29.43"/>
	<path class="st127" d="M11.16,31.89c0.2,0,0.36-0.16,0.36-0.35c0-0.19-0.16-0.35-0.36-0.35c-0.2,0-0.36,0.16-0.36,0.35
		C10.8,31.73,10.96,31.89,11.16,31.89"/>
	<path class="st127" d="M13.28,33.87c0.2,0,0.36-0.16,0.36-0.35c0-0.19-0.16-0.35-0.36-0.35c-0.2,0-0.36,0.16-0.36,0.35
		C12.93,33.72,13.09,33.87,13.28,33.87"/>
	<path class="st127" d="M15.87,35.29c0.2,0,0.36-0.16,0.36-0.35c0-0.19-0.16-0.35-0.36-0.35c-0.2,0-0.36,0.16-0.36,0.35
		C15.51,35.14,15.67,35.29,15.87,35.29"/>
	<path class="st127" d="M18.83,36.01c0.2,0,0.36-0.16,0.36-0.35c0-0.19-0.16-0.35-0.36-0.35c-0.2,0-0.36,0.16-0.36,0.35
		C18.48,35.85,18.64,36.01,18.83,36.01"/>
	<path class="st127" d="M21.84,35.91c0.2,0,0.36-0.16,0.36-0.35c0-0.19-0.16-0.35-0.36-0.35c-0.2,0-0.36,0.16-0.36,0.35
		C21.48,35.75,21.64,35.91,21.84,35.91"/>
	<path class="st127" d="M24.71,35.1c0.2,0,0.36-0.16,0.36-0.35c0-0.19-0.16-0.35-0.36-0.35c-0.2,0-0.36,0.16-0.36,0.35
		C24.35,34.95,24.51,35.1,24.71,35.1"/>
</g>
</svg>
