<?xml version="1.0" encoding="utf-8"?>
<!-- Generator: Adobe Illustrator 25.0.1, SVG Export Plug-In . SVG Version: 6.00 Build 0)  -->
<svg version="1.0" id="Layer_1" xmlns="http://www.w3.org/2000/svg" xmlns:xlink="http://www.w3.org/1999/xlink" x="0px" y="0px"
	 viewBox="0 0 88.12 46.73" style="enable-background:new 0 0 88.12 46.73;" xml:space="preserve">
<style type="text/css">
	.st0{fill:#000104;}
	.st1{fill:#FFFFFF;}
	.st2{fill:#EF493E;}
	.st3{opacity:0.6;fill-rule:evenodd;clip-rule:evenodd;fill:#FBBE43;}
	.st4{opacity:0.6;fill-rule:evenodd;clip-rule:evenodd;fill:#EF930E;}
	.st5{opacity:0.6;fill-rule:evenodd;clip-rule:evenodd;fill:#E67906;}
	.st6{fill:#9F8829;}
	.st7{fill:#3972A6;}
	.st8{fill:url(#SVGID_1_);stroke:#2B53A4;stroke-width:0.5;stroke-miterlimit:10;}
	.st9{fill:none;}
	.st10{fill:url(#SVGID_2_);}
	.st11{fill:url(#SVGID_3_);}
	.st12{fill:#B3B3B3;}
	.st13{fill:url(#SVGID_4_);}
	.st14{fill:url(#SVGID_5_);}
	.st15{fill:url(#SVGID_6_);}
	.st16{fill:#FFFFFF;stroke:#FFFFFF;stroke-width:0.25;stroke-miterlimit:10;}
	.st17{fill:#00001D;}
	.st18{fill:#4DA0C5;}
	.st19{fill:url(#SVGID_7_);}
	.st20{fill:#2E6A85;}
	.st21{fill:none;stroke:#144FA1;stroke-width:0.113;stroke-linejoin:round;stroke-miterlimit:10;}
	.st22{fill:#F27337;}
	.st23{fill:#8EB8D4;}
	.st24{fill:#F38056;}
	.st25{fill:#626365;}
	.st26{fill:#EF6D23;}
	.st27{fill:#284B82;}
	.st28{fill:#242956;}
	.st29{fill:#15142A;}
	.st30{fill:#84C343;}
	.st31{fill:#4CA1C6;}
	.st32{fill:#121617;}
	.st33{fill:#CF8966;}
	.st34{fill:#F37639;}
	.st35{opacity:0.3;fill:url(#SVGID_8_);}
	.st36{fill:#373277;}
	.st37{fill:#E61E25;}
	.st38{fill:#2555A5;}
	.st39{fill:#2E225E;}
	.st40{fill:#F8A425;}
	.st41{fill:#2058A7;}
	.st42{fill:none;stroke:#205AA8;stroke-width:0.156;stroke-miterlimit:10;}
	.st43{fill:#49A3C7;}
	.st44{fill-rule:evenodd;clip-rule:evenodd;}
	.st45{fill-rule:evenodd;clip-rule:evenodd;fill:url(#SVGID_9_);}
	.st46{fill-rule:evenodd;clip-rule:evenodd;fill:url(#SVGID_10_);}
	.st47{fill-rule:evenodd;clip-rule:evenodd;fill:url(#SVGID_11_);}
	.st48{fill:#1D2251;}
	.st49{fill:#2260AC;}
	.st50{fill:url(#SVGID_12_);}
	.st51{fill:#FFFFFC;}
	.st52{fill:#4C9FC5;}
	.st53{fill:#28306D;}
	.st54{fill:#4C9EC5;}
	.st55{fill:#28306E;}
	.st56{fill:#29306F;}
	.st57{fill:#F7F7FB;}
	.st58{fill:url(#SVGID_13_);}
	.st59{fill:url(#SVGID_14_);}
	.st60{fill:url(#SVGID_15_);}
	.st61{fill:url(#SVGID_16_);}
	.st62{fill:#10123C;}
	.st63{fill:#F5842C;}
	.st64{fill:#1F305E;}
	.st65{fill:#87BBD1;}
	.st66{fill:#203160;}
	.st67{fill:#235779;}
	.st68{fill:#359FA1;}
	.st69{fill:#A4D1A4;}
	.st70{fill:#B9DBBC;}
	.st71{fill:#C6DDCA;}
	.st72{fill:#662E14;}
	.st73{fill:#1D79A4;}
	.st74{fill:#C14B28;}
	.st75{fill:url(#SVGID_17_);}
	.st76{fill:url(#SVGID_18_);}
	.st77{fill:url(#SVGID_19_);}
	.st78{fill:url(#SVGID_20_);}
	.st79{fill:url(#SVGID_21_);}
	.st80{fill:url(#SVGID_22_);}
	.st81{fill:url(#SVGID_23_);}
	.st82{fill:url(#SVGID_24_);}
	.st83{fill:url(#SVGID_25_);}
	.st84{fill:url(#SVGID_26_);}
	.st85{fill:url(#SVGID_27_);}
	.st86{fill:url(#SVGID_28_);}
	.st87{fill:url(#SVGID_29_);}
	.st88{fill:url(#SVGID_30_);}
	.st89{fill:#1F164B;}
	.st90{clip-path:url(#SVGID_32_);fill:#253D97;}
	.st91{fill:url(#SVGID_33_);}
	.st92{fill:url(#SVGID_34_);}
	.st93{fill:url(#SVGID_35_);}
	.st94{fill:url(#SVGID_36_);}
	.st95{fill:url(#SVGID_37_);}
	.st96{fill:url(#SVGID_38_);}
	.st97{fill:url(#SVGID_39_);}
	.st98{fill:url(#SVGID_40_);}
	.st99{fill:url(#SVGID_41_);}
	.st100{fill:#443F41;}
	.st101{fill:#28306F;}
	.st102{fill:#71C49D;}
	.st103{fill:#F0C6A7;}
	.st104{fill:#DB8D82;}
	.st105{fill:#EFB7AC;}
	.st106{opacity:0.21;}
	.st107{fill-rule:evenodd;clip-rule:evenodd;fill:#A9196E;}
	.st108{fill-rule:evenodd;clip-rule:evenodd;fill:#FBE42C;}
	.st109{fill:#FBE42C;}
	.st110{fill:#A9196E;}
	.st111{fill:#7FC143;}
	.st112{clip-path:url(#SVGID_45_);fill:#7FC143;}
	.st113{clip-path:url(#SVGID_51_);fill:#7FC143;}
	.st114{fill:#243F8F;}
	.st115{fill:#EF4E2F;}
	.st116{fill:#010007;}
	.st117{fill:#0C0D37;}
	.st118{fill:#FBAF2D;}
	.st119{fill:url(#SVGID_54_);}
	.st120{fill-rule:evenodd;clip-rule:evenodd;fill:#FFFFFF;}
	.st121{fill:#1D4690;}
	.st122{fill:#3AA949;}
	.st123{fill:#F37A24;}
	.st124{fill:none;stroke:#F37A24;stroke-width:3.7145;stroke-miterlimit:10;}
	.st125{fill:#3AA949;stroke:#FFFFFF;stroke-width:1.3104;stroke-miterlimit:10;}
	.st126{fill:#46A2BB;}
	.st127{fill:#7153A0;}
	.st128{fill:#27316C;}
	.st129{fill:#2C65AE;}
	.st130{fill:#452D7A;}
	.st131{fill:#442C7A;}
	.st132{fill:#1A2642;}
	.st133{fill-rule:evenodd;clip-rule:evenodd;fill:#567EB8;}
	.st134{fill-rule:evenodd;clip-rule:evenodd;fill:#6A7EB8;}
	.st135{fill-rule:evenodd;clip-rule:evenodd;fill:#6A7EB9;}
	.st136{fill-rule:evenodd;clip-rule:evenodd;fill:#EE3C2D;}
	.st137{fill-rule:evenodd;clip-rule:evenodd;fill:#EF493F;}
	.st138{fill-rule:evenodd;clip-rule:evenodd;fill:#ED2C24;}
	.st139{fill-rule:evenodd;clip-rule:evenodd;fill:#E9AE28;}
	.st140{fill-rule:evenodd;clip-rule:evenodd;fill:#D69B28;}
	.st141{fill-rule:evenodd;clip-rule:evenodd;fill:#FCB729;}
	.st142{fill-rule:evenodd;clip-rule:evenodd;fill:#409E47;}
	.st143{fill-rule:evenodd;clip-rule:evenodd;fill:#4BB450;}
	.st144{fill-rule:evenodd;clip-rule:evenodd;fill:#338440;}
	.st145{fill:#C09C36;}
	.st146{fill:#1E552A;}
	.st147{clip-path:url(#SVGID_56_);fill:url(#SVGID_57_);}
	.st148{fill:#023A1E;}
	.st149{fill:#FFFFFA;}
	.st150{fill:#0D4F28;}
	.st151{fill:#0E5128;}
	.st152{fill:#0D4E27;}
	.st153{fill:#0E5229;}
	.st154{fill:#0E4823;}
	.st155{fill:#0E4C27;}
	.st156{fill:#F3F6E0;}
	.st157{fill:#0E4F28;}
	.st158{fill:#114823;}
	.st159{fill:#105229;}
	.st160{fill:#0A4A2B;}
	.st161{fill:#134F27;}
	.st162{fill:#165229;}
	.st163{fill:#0D5029;}
	.st164{fill:#0B4E2B;}
	.st165{fill:#105028;}
	.st166{fill:#0A492A;}
	.st167{fill:#E9F3E2;}
	.st168{fill:#144D26;}
	.st169{fill:#185C2F;}
	.st170{fill:#0F5028;}
	.st171{fill:#F3F8EA;}
	.st172{fill:#114D26;}
	.st173{fill:#70A685;}
	.st174{fill:#0D4F2A;}
	.st175{fill:#094A24;}
	.st176{fill:#0F4F27;}
	.st177{fill:#0A4C26;}
	.st178{fill:#A2D29A;}
	.st179{fill:#4D7E44;}
	.st180{fill:#E8F2E1;}
	.st181{fill:#EDF5E5;}
	.st182{fill:#E6F2E7;}
	.st183{fill:#E5F1DC;}
	.st184{fill:#E9F3E3;}
	.st185{fill:#E9F3E5;}
	.st186{fill:#E5F1DB;}
	.st187{fill:#D8ECD7;}
	.st188{fill:#D9EBD4;}
	.st189{fill:#E2F0DE;}
	.st190{fill:#366B4B;}
	.st191{fill:#5D6162;}
	.st192{fill:#212E5F;}
	.st193{fill:#DD1F26;}
	.st194{clip-path:url(#SVGID_59_);}
	.st195{fill:#23396F;}
	.st196{fill:#7FC24E;}
	.st197{clip-path:url(#SVGID_59_);fill:#23396F;}
	.st198{clip-path:url(#SVGID_59_);fill:#7FC24E;}
	.st199{fill:#91CEA4;}
	.st200{fill:#90CEA4;}
	.st201{fill:#C02026;}
	.st202{fill:#362E7E;}
</style>
<g>
	<g>
		<g>
			<path class="st41" d="M14.61,13.23v4.56h2.06v4.72h-2.06c0,0.95,0.15,1.6,0.46,1.96c0.31,0.36,0.87,0.54,1.69,0.54v4.69
				c-0.24,0.01-0.41,0.01-0.53,0.01c-1.04,0-2.02-0.23-2.94-0.7c-0.92-0.47-1.66-1.11-2.21-1.91c-0.7-1.03-1.06-2.39-1.06-4.09
				v-9.78H14.61z"/>
			<path class="st41" d="M24.74,17.51v4.78c-0.32-0.18-0.61-0.26-0.87-0.26c-0.83,0-1.25,0.62-1.25,1.86v5.65h-4.59v-6.51
				c0-1.72,0.48-3.09,1.45-4.12c0.97-1.02,2.25-1.54,3.87-1.54C23.7,17.38,24.16,17.42,24.74,17.51z"/>
			<path class="st41" d="M30.07,17.63v11.91h-4.59V17.63H30.07z M27.79,13.23c0.62,0,1.16,0.21,1.61,0.64
				c0.45,0.43,0.68,0.93,0.68,1.51c0,0.62-0.21,1.13-0.64,1.53c-0.43,0.4-0.98,0.6-1.65,0.6c-0.67,0-1.22-0.2-1.65-0.6
				c-0.43-0.4-0.64-0.91-0.64-1.53c0-0.58,0.23-1.08,0.68-1.51C26.63,13.45,27.17,13.23,27.79,13.23z"/>
		</g>
		<path class="st41" d="M82.02,38.2c0,0-69.74,0-71.82,0c-2.4,0-2.69-0.81-2.69-2.9c0-1.68,0-2.39,0-2.39h74.51V38.2z"/>
		<g>
			<g>
				<g>
					<g>
						<path class="st41" d="M35.5,25.88v-2.77c0.65,0,0.98-0.24,0.98-0.73c0-0.44-0.25-0.67-0.75-0.67c-0.5,0-0.76,0.3-0.76,0.91
							v6.91h-3.23v-6.58c0-0.68,0.07-1.24,0.21-1.68c0.14-0.44,0.38-0.84,0.72-1.22c0.38-0.42,0.86-0.75,1.43-0.99
							c0.57-0.24,1.16-0.36,1.77-0.36c1.1,0,2.03,0.36,2.78,1.08c0.75,0.72,1.13,1.62,1.13,2.69c0,1.04-0.34,1.88-1.01,2.53
							c-0.62,0.59-1.54,0.89-2.78,0.89L35.5,25.88z"/>
						<path class="st41" d="M34.98,29.7h-3.23l-0.16-0.16v-6.58c0-0.69,0.07-1.28,0.22-1.72c0.15-0.45,0.4-0.88,0.75-1.28
							c0.4-0.43,0.9-0.78,1.49-1.03c0.59-0.25,1.21-0.38,1.84-0.38c1.14,0,2.12,0.38,2.89,1.13c0.78,0.75,1.17,1.69,1.17,2.8
							c0,1.08-0.36,1.96-1.06,2.64c-0.64,0.62-1.62,0.94-2.9,0.94l-0.5-0.01l-0.16-0.16v-2.77l0.16-0.16c0.72,0,0.82-0.3,0.82-0.57
							c0-0.36-0.18-0.51-0.59-0.51c-0.28,0-0.59,0.09-0.59,0.76v6.91L34.98,29.7z M31.91,29.38h2.91v-6.75
							c0-0.89,0.5-1.07,0.92-1.07c0.59,0,0.91,0.29,0.91,0.82c0,0.38-0.17,0.83-0.98,0.88v2.46L36,25.73c1.19,0,2.09-0.28,2.67-0.84
							c0.64-0.61,0.96-1.42,0.96-2.41c0-1.02-0.36-1.89-1.08-2.58c-0.72-0.69-1.61-1.04-2.67-1.04c-0.58,0-1.16,0.12-1.71,0.35
							c-0.55,0.23-1.01,0.55-1.38,0.95c-0.32,0.36-0.55,0.75-0.69,1.16c-0.14,0.42-0.2,0.97-0.2,1.63V29.38z"/>
					</g>
					<g>
						<path class="st41" d="M44.38,22.75v2.79h-0.9v4h-3.23V18.97h3.23v3.78H44.38z M48.16,18.97v10.57h-3.23V18.97H48.16z"/>
						<path class="st41" d="M48.16,29.7h-3.23l-0.16-0.16V18.97l0.16-0.16h3.23l0.16,0.16v10.57L48.16,29.7z M45.09,29.38h2.91
							V19.13h-2.91V29.38z M43.48,29.7h-3.23l-0.16-0.16V18.97l0.16-0.16h3.23l0.16,0.16v3.62h0.74l0.16,0.16v2.79l-0.16,0.16h-0.74
							v3.85L43.48,29.7z M40.41,29.38h2.91v-3.85l0.16-0.16h0.74V22.9h-0.74l-0.16-0.16v-3.62h-2.91V29.38z"/>
					</g>
					<g>
						<path class="st41" d="M53.63,26.64v3c-0.24,0.04-0.47,0.06-0.67,0.06c-1.19,0-2.19-0.38-2.98-1.15
							c-0.8-0.76-1.19-1.72-1.19-2.87c0-1.12,0.4-2.07,1.21-2.85c0.8-0.78,1.78-1.17,2.93-1.17c1.28,0,2.3,0.37,3.04,1.1
							c0.74,0.73,1.11,1.73,1.11,2.99v3.79h-2.98v-3.58c0-0.41-0.1-0.73-0.31-0.98c-0.2-0.24-0.48-0.36-0.82-0.36
							c-0.31,0-0.58,0.11-0.81,0.33c-0.23,0.22-0.34,0.49-0.34,0.79c0,0.32,0.1,0.58,0.31,0.79c0.21,0.21,0.47,0.31,0.79,0.31
							C53.17,26.84,53.41,26.78,53.63,26.64z"/>
						<path class="st41" d="M52.96,29.86c-1.23,0-2.27-0.4-3.1-1.19c-0.82-0.79-1.24-1.8-1.24-2.99c0-1.16,0.42-2.16,1.25-2.96
							c0.83-0.81,1.86-1.22,3.05-1.22c1.32,0,2.38,0.38,3.15,1.14c0.77,0.76,1.16,1.8,1.16,3.1v3.79l-0.16,0.16h-2.98l-0.16-0.16
							v-3.58c0-0.37-0.09-0.66-0.27-0.88c-0.17-0.21-0.4-0.31-0.7-0.31c-0.27,0-0.5,0.09-0.7,0.29c-0.2,0.19-0.3,0.41-0.3,0.68
							c0,0.28,0.09,0.5,0.26,0.68c0.18,0.18,0.4,0.26,0.67,0.26c0.23,0,0.44-0.06,0.64-0.18l0.25,0.13v3l-0.13,0.16
							C53.41,29.84,53.17,29.86,52.96,29.86z M52.92,21.82c-1.1,0-2.05,0.38-2.82,1.12c-0.77,0.75-1.16,1.67-1.16,2.74
							c0,1.1,0.39,2.03,1.15,2.76c0.76,0.73,1.73,1.1,2.87,1.1c0.15,0,0.32-0.01,0.51-0.04V26.9c-0.18,0.07-0.37,0.1-0.56,0.1
							c-0.36,0-0.67-0.12-0.9-0.36c-0.24-0.24-0.36-0.54-0.36-0.9c0-0.35,0.13-0.65,0.39-0.9c0.26-0.25,0.57-0.38,0.93-0.38
							c0.39,0,0.71,0.14,0.95,0.42c0.23,0.27,0.34,0.63,0.34,1.08v3.42h2.65v-3.63c0-1.22-0.36-2.19-1.06-2.88
							C55.14,22.17,54.16,21.82,52.92,21.82z"/>
					</g>
					<g>
						<path class="st41" d="M62.28,21.74v3.1c-0.21-0.11-0.4-0.17-0.56-0.17c-0.54,0-0.81,0.4-0.81,1.21v3.66h-2.98v-4.22
							c0-1.11,0.31-2,0.94-2.67c0.63-0.66,1.46-1,2.51-1C61.6,21.66,61.9,21.68,62.28,21.74z"/>
						<path class="st41" d="M60.9,29.7h-2.98l-0.16-0.16v-4.22c0-1.15,0.33-2.08,0.98-2.77c0.66-0.69,1.54-1.05,2.63-1.05
							c0.24,0,0.55,0.03,0.93,0.09l0.14,0.16v3.1l-0.24,0.14c-0.18-0.1-0.34-0.15-0.49-0.15c-0.28,0-0.65,0.11-0.65,1.05v3.66
							L60.9,29.7z M58.09,29.38h2.65v-3.51c0-1.13,0.53-1.37,0.97-1.37c0.13,0,0.26,0.03,0.4,0.08v-2.71
							c-0.3-0.04-0.55-0.06-0.74-0.06c-0.99,0-1.8,0.32-2.39,0.94c-0.59,0.63-0.9,1.49-0.9,2.56V29.38z"/>
					</g>
					<g>
						<path class="st41" d="M73.15,29.54h-2.98v-4.17c0-0.32-0.03-0.54-0.1-0.67c-0.07-0.12-0.19-0.19-0.37-0.19
							c-0.33,0-0.5,0.29-0.5,0.86v4.16h-2.98v-4.17c0-0.32-0.04-0.54-0.11-0.67c-0.07-0.12-0.2-0.19-0.38-0.19
							c-0.33,0-0.49,0.29-0.49,0.86v4.16h-2.98v-4.76c0-0.87,0.3-1.6,0.9-2.21c0.6-0.61,1.33-0.91,2.18-0.91
							c0.88,0,1.67,0.36,2.37,1.08c0.78-0.72,1.56-1.08,2.34-1.08c0.99,0,1.79,0.35,2.39,1.05c0.47,0.55,0.71,1.35,0.71,2.39V29.54z
							"/>
						<path class="st41" d="M73.15,29.7h-2.98l-0.16-0.16v-4.17c0-0.36-0.05-0.52-0.08-0.59c-0.03-0.05-0.08-0.1-0.23-0.1
							c-0.08,0-0.34,0-0.34,0.7v4.16L69.2,29.7h-2.98l-0.16-0.16v-4.17c0-0.36-0.05-0.52-0.09-0.59c-0.03-0.05-0.08-0.11-0.24-0.11
							c-0.08,0-0.33,0-0.33,0.7v4.16l-0.16,0.16h-2.98l-0.16-0.16v-4.76c0-0.91,0.32-1.69,0.94-2.32c0.63-0.64,1.4-0.96,2.3-0.96
							c0.88,0,1.67,0.34,2.38,1.02c0.77-0.68,1.55-1.02,2.33-1.02c1.04,0,1.88,0.37,2.51,1.11c0.49,0.57,0.74,1.41,0.74,2.49v4.43
							L73.15,29.7z M70.34,29.38h2.65v-4.27c0-1.01-0.23-1.78-0.67-2.29c-0.57-0.66-1.33-1-2.26-1c-0.73,0-1.48,0.35-2.23,1.04
							l-0.23-0.01c-0.66-0.69-1.42-1.03-2.25-1.03c-0.82,0-1.49,0.28-2.06,0.86c-0.57,0.57-0.85,1.28-0.85,2.1v4.6h2.65v-4
							c0-0.84,0.36-1.02,0.66-1.02c0.3,0,0.45,0.14,0.52,0.27c0.09,0.15,0.13,0.39,0.13,0.74v4.01h2.65v-4
							c0-0.84,0.36-1.02,0.66-1.02c0.3,0,0.45,0.15,0.52,0.27c0.08,0.15,0.12,0.39,0.12,0.74V29.38z"/>
					</g>
					<g>
						<path class="st41" d="M78.42,26.64v3c-0.24,0.04-0.47,0.06-0.67,0.06c-1.19,0-2.19-0.38-2.98-1.15
							c-0.8-0.76-1.19-1.72-1.19-2.87c0-1.12,0.4-2.07,1.21-2.85c0.8-0.78,1.78-1.17,2.93-1.17c1.28,0,2.3,0.37,3.04,1.1
							c0.74,0.73,1.11,1.73,1.11,2.99v3.79h-2.98v-3.58c0-0.41-0.1-0.73-0.31-0.98c-0.2-0.24-0.48-0.36-0.82-0.36
							c-0.31,0-0.58,0.11-0.81,0.33c-0.23,0.22-0.34,0.49-0.34,0.79c0,0.32,0.1,0.58,0.31,0.79c0.21,0.21,0.47,0.31,0.79,0.31
							C77.96,26.84,78.2,26.78,78.42,26.64z"/>
						<path class="st41" d="M77.76,29.86c-1.23,0-2.27-0.4-3.1-1.19c-0.82-0.79-1.24-1.8-1.24-2.99c0-1.16,0.42-2.16,1.25-2.96
							c0.83-0.81,1.86-1.22,3.05-1.22c1.32,0,2.38,0.38,3.15,1.14c0.77,0.76,1.16,1.8,1.16,3.1v3.79l-0.16,0.16h-2.98l-0.16-0.16
							v-3.58c0-0.37-0.09-0.66-0.27-0.88c-0.17-0.21-0.4-0.31-0.7-0.31c-0.27,0-0.5,0.09-0.7,0.29c-0.2,0.19-0.29,0.41-0.29,0.68
							c0,0.28,0.09,0.5,0.26,0.68c0.18,0.18,0.4,0.26,0.67,0.26c0.23,0,0.44-0.06,0.64-0.18l0.25,0.13v3l-0.13,0.16
							C78.19,29.84,77.97,29.86,77.76,29.86z M77.72,21.82c-1.1,0-2.05,0.38-2.82,1.12c-0.77,0.75-1.16,1.67-1.16,2.74
							c0,1.1,0.39,2.03,1.14,2.76c0.76,0.73,1.73,1.1,2.87,1.1c0.15,0,0.32-0.01,0.51-0.04V26.9C78.08,26.97,77.9,27,77.7,27
							c-0.36,0-0.67-0.12-0.9-0.36c-0.24-0.24-0.36-0.54-0.36-0.9c0-0.35,0.13-0.65,0.39-0.9c0.26-0.25,0.57-0.38,0.93-0.38
							c0.39,0,0.71,0.14,0.95,0.42c0.23,0.27,0.34,0.63,0.34,1.08v3.42h2.65v-3.63c0-1.22-0.36-2.19-1.06-2.88
							C79.93,22.17,78.95,21.82,77.72,21.82z"/>
					</g>
				</g>
			</g>
			<g>
				<g>
					<path class="st41" d="M64.7,30.91l-6.06,11.59l-7.31-10.32L64.7,30.91 M65.66,30.28l-1.01,0.1l-13.36,1.28l-0.94,0.09
						l0.54,0.76l7.31,10.32l0.53,0.75l0.42-0.81l6.06-11.59L65.66,30.28L65.66,30.28z"/>
					<polygon class="st41" points="50.84,31.96 65.18,30.6 58.68,43.03 					"/>
				</g>
			</g>
			<g>
				<g>
					<g>
						<g>
							<path class="st1" d="M11.98,35.92c0,0.22-0.06,0.39-0.19,0.5c-0.13,0.11-0.34,0.17-0.63,0.17c-0.32,0-0.55-0.05-0.69-0.16
								c-0.14-0.1-0.21-0.27-0.21-0.51v-1.69c0-0.23,0.06-0.38,0.19-0.47c0.13-0.09,0.36-0.14,0.7-0.14c0.29,0,0.49,0.04,0.6,0.12
								c0.11,0.09,0.16,0.23,0.16,0.43v0.26h-0.35v-0.19c0-0.13-0.03-0.22-0.1-0.26c-0.07-0.04-0.18-0.06-0.35-0.06
								c-0.18,0-0.31,0.03-0.38,0.08c-0.07,0.05-0.11,0.14-0.11,0.27v1.59c0,0.15,0.04,0.25,0.11,0.31c0.07,0.06,0.2,0.1,0.39,0.1
								c0.18,0,0.3-0.02,0.36-0.07c0.07-0.06,0.11-0.17,0.11-0.33v-0.68h-0.62v-0.3h0.99V35.92z"/>
						</g>
					</g>
					<g>
						<g>
							<path class="st1" d="M16.16,35.92c0,0.25-0.06,0.42-0.17,0.52c-0.12,0.11-0.33,0.16-0.62,0.16c-0.29,0-0.5-0.05-0.62-0.16
								c-0.12-0.1-0.18-0.28-0.18-0.52v-1.14c0-0.25,0.06-0.42,0.18-0.53c0.12-0.1,0.32-0.15,0.62-0.15c0.29,0,0.49,0.05,0.62,0.15
								c0.12,0.11,0.18,0.28,0.18,0.53V35.92z M15.82,35.9v-1.12c0-0.14-0.04-0.25-0.11-0.31c-0.07-0.06-0.19-0.1-0.35-0.1
								c-0.17,0-0.28,0.04-0.36,0.12c-0.06,0.07-0.09,0.16-0.09,0.29v1.12c0,0.15,0.03,0.26,0.1,0.31c0.07,0.06,0.18,0.08,0.35,0.08
								c0.17,0,0.28-0.03,0.35-0.09C15.79,36.16,15.82,36.05,15.82,35.9z"/>
						</g>
					</g>
					<g>
						<g>
							<path class="st1" d="M19.08,36.55h-0.35v-2.9h0.35V36.55z"/>
						</g>
					</g>
					<g>
						<g>
							<path class="st1" d="M23.15,35.94c0,0.23-0.06,0.4-0.17,0.5c-0.12,0.11-0.29,0.16-0.53,0.16c-0.23,0-0.39-0.04-0.5-0.12
								c-0.11-0.08-0.18-0.21-0.21-0.4l-0.19-1.28c-0.01-0.05-0.01-0.1-0.01-0.15c0-0.16,0.05-0.29,0.14-0.37
								c0.09-0.09,0.21-0.13,0.37-0.13h0.68v0.3l-0.54,0c-0.2,0-0.3,0.09-0.3,0.26c0,0.02,0,0.03,0,0.05c0,0.02,0,0.03,0,0.04
								l0.18,1.17c0.02,0.12,0.05,0.2,0.11,0.26c0.06,0.05,0.15,0.08,0.28,0.08c0.12,0,0.2-0.03,0.26-0.09
								c0.05-0.06,0.08-0.16,0.08-0.3v-2.27h0.34V35.94z"/>
						</g>
					</g>
					<g>
						<g>
							<path class="st1" d="M30.72,33.65L30.1,36.4c-0.02,0.07-0.06,0.12-0.12,0.15c-0.06,0.03-0.14,0.05-0.22,0.05
								c-0.09,0-0.18-0.02-0.25-0.06c-0.07-0.04-0.12-0.1-0.14-0.17l-0.62-2.72h0.38l0.55,2.51c0.02,0.06,0.03,0.09,0.05,0.09
								c0.02,0,0.04-0.03,0.05-0.09l0.56-2.51H30.72z"/>
						</g>
					</g>
					<g>
						<g>
							<path class="st1" d="M33.43,34h-0.38v-0.35h0.38V34z M33.41,36.55h-0.35v-2.41h0.35V36.55z"/>
						</g>
					</g>
					<g>
						<g>
							<path class="st1" d="M37.35,35.89c0,0.24-0.05,0.41-0.14,0.51c-0.09,0.1-0.25,0.15-0.46,0.15h-0.84v-0.29h0.68
								c0.14,0,0.25-0.02,0.31-0.07c0.06-0.05,0.09-0.13,0.09-0.24c0-0.12-0.01-0.2-0.05-0.24c-0.03-0.05-0.11-0.1-0.24-0.17
								l-0.36-0.19c-0.18-0.1-0.3-0.19-0.36-0.27c-0.06-0.08-0.09-0.21-0.09-0.37c0-0.18,0.05-0.31,0.15-0.41
								c0.1-0.09,0.25-0.14,0.44-0.14h0.72v0.31h-0.55c-0.14,0-0.24,0.02-0.31,0.07c-0.07,0.05-0.1,0.12-0.1,0.21
								c0,0.02,0,0.04,0,0.05c0,0.1,0.05,0.18,0.16,0.24L37,35.34c0.15,0.09,0.25,0.16,0.29,0.22
								C37.33,35.62,37.35,35.73,37.35,35.89z"/>
						</g>
					</g>
					<g>
						<g>
							<path class="st1" d="M40.19,34h-0.38v-0.35h0.38V34z M40.18,36.55h-0.35v-2.41h0.35V36.55z"/>
						</g>
					</g>
					<g>
						<g>
							<path class="st1" d="M44.35,35.92c0,0.25-0.06,0.42-0.17,0.52c-0.12,0.11-0.33,0.16-0.62,0.16c-0.29,0-0.5-0.05-0.62-0.16
								c-0.12-0.1-0.18-0.28-0.18-0.52v-1.14c0-0.25,0.06-0.42,0.18-0.53c0.12-0.1,0.32-0.15,0.62-0.15c0.29,0,0.49,0.05,0.62,0.15
								c0.12,0.11,0.18,0.28,0.18,0.53V35.92z M44.01,35.9v-1.12c0-0.14-0.04-0.25-0.11-0.31c-0.07-0.06-0.19-0.1-0.35-0.1
								c-0.17,0-0.28,0.04-0.35,0.12c-0.06,0.07-0.09,0.16-0.09,0.29v1.12c0,0.15,0.03,0.26,0.1,0.31c0.07,0.06,0.18,0.08,0.36,0.08
								c0.17,0,0.28-0.03,0.35-0.09C43.98,36.16,44.01,36.05,44.01,35.9z"/>
						</g>
					</g>
					<g>
						<g>
							<path class="st1" d="M48.52,36.55l-0.34,0v-1.77c0-0.14-0.04-0.24-0.11-0.3c-0.07-0.06-0.19-0.09-0.34-0.09
								c-0.16,0-0.27,0.03-0.34,0.09c-0.07,0.06-0.11,0.16-0.11,0.3v1.77h-0.34v-1.81c0-0.22,0.06-0.39,0.18-0.48
								c0.12-0.1,0.32-0.14,0.62-0.14c0.3,0,0.51,0.05,0.62,0.14c0.12,0.1,0.17,0.26,0.17,0.49V36.55z"/>
						</g>
					</g>
					<path class="st1" d="M55.92,34.43h-0.31v-0.18c0-0.14-0.03-0.23-0.1-0.26c-0.02-0.01-0.07-0.02-0.15-0.02h-0.16v2.59h-0.37
						v-2.59l-0.16-0.01c-0.09,0-0.16,0.03-0.19,0.08c-0.04,0.05-0.05,0.12-0.05,0.22v0.18h-0.31v-0.25c0-0.18,0.05-0.31,0.14-0.4
						c0.09-0.09,0.24-0.13,0.44-0.13h0.64c0.2,0,0.35,0.04,0.44,0.12c0.09,0.08,0.13,0.22,0.13,0.41V34.43z"/>
					<path class="st1" d="M58.78,34.41c-0.12,0-0.22,0.03-0.29,0.1c-0.07,0.07-0.1,0.16-0.1,0.29v1.75h-0.35V34.8
						c0-0.46,0.25-0.69,0.74-0.69V34.41z"/>
					<path class="st1" d="M61.46,34h-0.38v-0.35h0.38V34z M61.44,36.55h-0.35v-2.41h0.35V36.55z"/>
					<g>
						<g>
							<path class="st1" d="M69.01,35.93c0,0.19-0.06,0.34-0.18,0.46c-0.12,0.11-0.29,0.17-0.52,0.17h-1.01v-2.9h1
								c0.41,0,0.62,0.16,0.62,0.49v0.4c0,0.13-0.03,0.23-0.1,0.31c-0.07,0.08-0.16,0.13-0.28,0.15c0.19,0.04,0.31,0.08,0.37,0.14
								c0.06,0.06,0.08,0.17,0.08,0.33V35.93z M68.64,35.85v-0.37c0-0.11-0.03-0.19-0.1-0.23c-0.07-0.05-0.18-0.07-0.35-0.07h-0.42
								v-0.3h0.41c0.26,0,0.39-0.12,0.39-0.37v-0.24c0-0.12-0.02-0.2-0.06-0.24c-0.04-0.04-0.14-0.06-0.3-0.06h-0.53v2.27h0.52
								C68.49,36.24,68.64,36.11,68.64,35.85z"/>
						</g>
					</g>
					<g>
						<g>
							<path class="st1" d="M71.9,36.55h-0.35v-2.9h0.35V36.55z"/>
						</g>
					</g>
					<g>
						<g>
							<path class="st1" d="M76.07,35.91c0,0.24-0.06,0.42-0.18,0.53c-0.12,0.11-0.32,0.16-0.61,0.16c-0.28,0-0.48-0.05-0.6-0.15
								c-0.14-0.11-0.21-0.29-0.21-0.54v-1.77h0.34v1.77c0,0.14,0.04,0.25,0.11,0.31c0.07,0.06,0.18,0.09,0.34,0.09
								c0.04,0,0.08,0.01,0.09,0.01c0.25,0,0.37-0.13,0.37-0.4v-1.77h0.34V35.91z"/>
						</g>
					</g>
					<g>
						<g>
							<path class="st1" d="M80.24,35.43h-1.18v-0.29h0.84l0-0.47c0-0.09-0.04-0.15-0.13-0.21c-0.09-0.05-0.19-0.07-0.3-0.07
								c-0.16,0-0.28,0.03-0.36,0.09c-0.08,0.06-0.12,0.16-0.12,0.29v1.11c0,0.14,0.03,0.24,0.09,0.29
								c0.06,0.05,0.18,0.08,0.34,0.08h0.72v0.29h-0.83c-0.25,0-0.42-0.05-0.52-0.15c-0.1-0.09-0.16-0.25-0.16-0.48v-1.22
								c0-0.21,0.07-0.36,0.21-0.46c0.13-0.09,0.34-0.14,0.62-0.14c0.28,0,0.48,0.05,0.6,0.14c0.12,0.09,0.17,0.25,0.17,0.46V35.43z
								"/>
						</g>
					</g>
				</g>
			</g>
			<g>
				<g>
					<path class="st41" d="M57.48,16.21c-0.04-0.15-0.09-0.29-0.16-0.44c-0.07-0.14-0.17-0.27-0.29-0.37
						c-0.11-0.1-0.24-0.18-0.38-0.24c-0.14-0.06-0.29-0.1-0.43-0.13c-0.15-0.03-0.29-0.04-0.44-0.05c-0.15-0.01-0.28-0.01-0.4-0.01
						c-0.12,0-0.26,0-0.41,0.01c-0.15,0.01-0.29,0.02-0.44,0.05c-0.15,0.03-0.29,0.07-0.43,0.13c-0.14,0.06-0.27,0.14-0.38,0.24
						c-0.12,0.11-0.22,0.23-0.29,0.37c-0.07,0.14-0.12,0.29-0.16,0.44c-0.04,0.15-0.06,0.3-0.07,0.44
						c-0.01,0.15-0.02,0.27-0.02,0.38c0,0.04,0,0.08,0,0.12c0,0.04,0,0.09,0,0.14c-0.01,0.19-0.03,0.33-0.06,0.43
						c-0.03,0.1-0.05,0.17-0.08,0.21c-0.05,0.1-0.11,0.18-0.19,0.23c-0.07,0.06-0.15,0.1-0.23,0.12c-0.08,0.03-0.16,0.04-0.24,0.05
						c-0.08,0-0.15,0.01-0.21,0.01h-0.06v0h-0.44c-0.17,0-0.3-0.02-0.41-0.06c-0.1-0.04-0.18-0.1-0.25-0.18
						c-0.07-0.1-0.12-0.21-0.14-0.33c-0.02-0.12-0.03-0.25-0.03-0.38v-3.66h-0.91v3.93c0,0.14,0.01,0.26,0.03,0.37
						c0.02,0.11,0.05,0.2,0.09,0.29c0.04,0.08,0.08,0.16,0.13,0.22c0.05,0.06,0.1,0.12,0.15,0.16c0.08,0.07,0.17,0.13,0.26,0.18
						c0.09,0.04,0.18,0.08,0.28,0.1c0.1,0.02,0.19,0.04,0.3,0.04c0.1,0.01,0.21,0.01,0.32,0.01h0.53v0h0.41c0.1,0,0.2,0,0.31-0.01
						c0.11-0.01,0.22-0.03,0.32-0.06c0.11-0.03,0.21-0.07,0.32-0.13c0.1-0.05,0.2-0.13,0.28-0.21c0.02,0.01,0.03,0.02,0.03,0.03
						c0.11,0.1,0.24,0.18,0.38,0.24c0.14,0.06,0.28,0.1,0.43,0.13c0.15,0.03,0.3,0.05,0.44,0.05c0.15,0.01,0.28,0.01,0.41,0.01
						c0.12,0,0.25,0,0.39-0.01c0.15-0.01,0.3-0.03,0.45-0.05c0.15-0.03,0.3-0.07,0.44-0.13c0.14-0.06,0.27-0.14,0.38-0.24
						c0.08-0.07,0.15-0.15,0.21-0.25c0.06-0.1,0.12-0.22,0.17-0.35c0.05-0.13,0.08-0.29,0.11-0.46c0.03-0.17,0.04-0.36,0.04-0.58
						c0-0.1-0.01-0.23-0.02-0.37C57.54,16.51,57.51,16.36,57.48,16.21z M56.62,17.04c0,0.09,0,0.18,0,0.27
						c0,0.09-0.01,0.18-0.03,0.27c-0.02,0.09-0.04,0.17-0.08,0.26c-0.04,0.08-0.09,0.16-0.16,0.23c-0.07,0.07-0.14,0.13-0.22,0.18
						c-0.08,0.04-0.16,0.08-0.24,0.1c-0.08,0.02-0.17,0.04-0.26,0.04c-0.09,0.01-0.17,0.01-0.26,0.01c-0.08,0-0.17,0-0.26-0.01
						c-0.09-0.01-0.18-0.02-0.26-0.04c-0.08-0.02-0.17-0.06-0.25-0.1c-0.08-0.04-0.15-0.1-0.22-0.18c-0.1-0.11-0.16-0.23-0.2-0.36
						c-0.04-0.13-0.06-0.26-0.06-0.4c0.01-0.1,0.01-0.21,0-0.33c0-0.12,0-0.23,0.01-0.35c0.01-0.12,0.03-0.23,0.07-0.34
						c0.03-0.11,0.09-0.21,0.17-0.31c0.06-0.07,0.14-0.13,0.22-0.17s0.17-0.07,0.26-0.1c0.09-0.02,0.18-0.04,0.27-0.04
						c0.09-0.01,0.17-0.01,0.24-0.01c0.08,0,0.17,0,0.26,0.01c0.09,0.01,0.17,0.02,0.26,0.04c0.09,0.02,0.17,0.05,0.25,0.1
						c0.08,0.04,0.15,0.1,0.22,0.17c0.05,0.05,0.1,0.11,0.13,0.18c0.03,0.07,0.06,0.14,0.08,0.21c0.02,0.07,0.03,0.15,0.04,0.22
						c0.01,0.07,0.01,0.14,0.01,0.21V17.04z"/>
					<path class="st41" d="M59.16,18.75c0,0.11-0.01,0.2-0.02,0.28c-0.01,0.08-0.03,0.15-0.06,0.21c-0.03,0.06-0.06,0.11-0.1,0.16
						c-0.04,0.04-0.09,0.08-0.14,0.12c-0.05,0.04-0.11,0.07-0.16,0.09c-0.05,0.02-0.12,0.04-0.19,0.06
						c-0.07,0.01-0.15,0.02-0.24,0.03c-0.09,0-0.2,0-0.32,0v0.68c0.39,0.01,0.71,0,0.97-0.05c0.26-0.05,0.47-0.13,0.64-0.25
						c0.05-0.03,0.1-0.08,0.16-0.14c0.06-0.06,0.12-0.13,0.17-0.22c0.06-0.09,0.1-0.2,0.14-0.33c0.04-0.13,0.06-0.28,0.06-0.46
						v-3.91h-0.91V18.75z"/>
					<rect x="64.86" y="13.74" class="st41" width="0.91" height="0.71"/>
					<path class="st41" d="M66.9,15.18c-0.1-0.08-0.2-0.12-0.32-0.14c-0.11-0.01-0.23-0.02-0.35-0.02h-1.33c-0.1,0-0.21,0-0.32,0.01
						c-0.11,0.01-0.22,0.02-0.33,0.05c-0.11,0.03-0.22,0.07-0.32,0.13c-0.11,0.06-0.21,0.14-0.3,0.24c-0.18,0.19-0.3,0.41-0.36,0.66
						c-0.05,0.25-0.08,0.53-0.08,0.85c0,0.6,0.07,1.06,0.22,1.39h-0.65v0h-0.44c-0.17,0-0.3-0.02-0.41-0.06
						c-0.1-0.04-0.18-0.1-0.25-0.18c-0.07-0.1-0.12-0.21-0.14-0.33c-0.02-0.12-0.03-0.25-0.03-0.38v-3.66H60.6v3.93
						c0,0.14,0.01,0.26,0.03,0.37c0.02,0.11,0.05,0.2,0.09,0.29c0.04,0.08,0.08,0.16,0.13,0.22c0.05,0.06,0.1,0.12,0.15,0.16
						c0.08,0.07,0.17,0.13,0.26,0.18c0.09,0.04,0.18,0.08,0.28,0.1c0.1,0.02,0.19,0.04,0.3,0.04c0.1,0.01,0.21,0.01,0.32,0.01h0.55
						v0l2.89,0c0.11,0,0.21,0,0.32-0.01c0.1-0.01,0.2-0.02,0.3-0.04c0.1-0.02,0.19-0.05,0.28-0.1c0.09-0.04,0.18-0.1,0.26-0.18
						c0.05-0.05,0.1-0.1,0.15-0.16c0.05-0.06,0.09-0.14,0.13-0.22c0.04-0.08,0.07-0.18,0.09-0.29c0.02-0.11,0.03-0.23,0.03-0.37
						v-1.9c0-0.09-0.02-0.18-0.05-0.29C67.07,15.37,67.01,15.27,66.9,15.18z M66.23,17.56c-0.01,0.1-0.02,0.2-0.04,0.3
						c-0.02,0.09-0.07,0.18-0.12,0.26c-0.07,0.09-0.15,0.15-0.25,0.18c-0.1,0.04-0.24,0.06-0.41,0.06l-0.26,0
						c-0.07,0-0.13,0-0.2-0.01c-0.07,0-0.14-0.01-0.21-0.02c-0.14-0.02-0.26-0.09-0.36-0.21c-0.03-0.02-0.05-0.06-0.08-0.11
						c-0.03-0.05-0.05-0.12-0.07-0.2c-0.02-0.09-0.04-0.19-0.06-0.32c-0.02-0.13-0.02-0.28-0.02-0.45c0-0.05,0-0.12,0-0.21
						c0-0.09,0.01-0.19,0.03-0.3c0.02-0.11,0.04-0.21,0.07-0.31c0.03-0.1,0.08-0.19,0.15-0.26c0.07-0.08,0.17-0.14,0.29-0.18
						c0.12-0.04,0.26-0.06,0.41-0.06h0.78c0.04,0,0.08,0,0.12,0.01c0.04,0.01,0.08,0.02,0.12,0.05c0.05,0.04,0.09,0.08,0.1,0.11
						c0.01,0.04,0.02,0.09,0.02,0.14V17.56z"/>
					<path class="st41" d="M74.33,17.3c-0.07-0.11-0.16-0.2-0.26-0.28c-0.11-0.08-0.23-0.15-0.37-0.2l-0.88-0.24
						c-0.03,0-0.06-0.01-0.11-0.03c-0.05-0.01-0.09-0.03-0.14-0.05c-0.05-0.02-0.1-0.04-0.15-0.06c-0.05-0.02-0.08-0.05-0.11-0.07
						c-0.06-0.05-0.1-0.1-0.11-0.15c-0.01-0.05-0.02-0.1-0.02-0.16c0-0.05,0.01-0.11,0.02-0.15c0.01-0.05,0.04-0.09,0.1-0.13
						c0.05-0.04,0.11-0.06,0.16-0.07c0.05,0,0.11-0.01,0.16-0.01h1.75v-0.68h-1.89c-0.09,0-0.18,0-0.27,0.01
						c-0.09,0-0.18,0.02-0.26,0.04c-0.08,0.02-0.17,0.06-0.24,0.1c-0.08,0.05-0.15,0.11-0.21,0.2c-0.08,0.11-0.13,0.23-0.16,0.35
						c-0.02,0.12-0.04,0.23-0.04,0.33c0,0.1,0.01,0.21,0.04,0.33c0.02,0.12,0.08,0.23,0.16,0.35c0.08,0.11,0.2,0.21,0.35,0.28
						c0.15,0.08,0.33,0.15,0.55,0.2c0.13,0.03,0.26,0.07,0.4,0.1c0.14,0.03,0.28,0.08,0.4,0.13c0.12,0.06,0.22,0.13,0.3,0.21
						c0.08,0.09,0.12,0.19,0.12,0.33c0,0.03,0,0.07-0.01,0.12c-0.01,0.05-0.03,0.09-0.07,0.13c-0.04,0.05-0.09,0.08-0.15,0.09
						c-0.06,0.01-0.11,0.02-0.15,0.02l-2.22,0c-0.17,0-0.31-0.02-0.43-0.05c-0.12-0.03-0.22-0.1-0.31-0.21
						c-0.06-0.08-0.1-0.17-0.12-0.28c-0.02-0.11-0.03-0.25-0.03-0.43v-1.32h-0.91v1.48c0,0.12,0.01,0.24,0.02,0.35
						c0.01,0.11,0.03,0.22,0.06,0.31c0.03,0.1,0.07,0.19,0.13,0.28c0.05,0.09,0.12,0.17,0.21,0.24c0.14,0.12,0.29,0.2,0.46,0.24
						c0.17,0.04,0.37,0.06,0.61,0.06l2.85,0c0.05,0,0.1,0,0.16-0.01c0.06,0,0.11-0.01,0.17-0.02c0.06-0.01,0.11-0.03,0.17-0.05
						c0.06-0.02,0.11-0.05,0.17-0.09c0.08-0.06,0.16-0.16,0.23-0.29c0.08-0.13,0.11-0.32,0.11-0.56c0-0.13-0.02-0.25-0.05-0.37
						C74.45,17.52,74.4,17.41,74.33,17.3z"/>
					<rect x="71.99" y="19.65" class="st41" width="0.91" height="0.71"/>
					<rect x="70.77" y="19.65" class="st41" width="0.91" height="0.71"/>
					<rect x="75.05" y="13.74" class="st41" width="0.91" height="5.3"/>
					<rect x="80.95" y="13.72" class="st41" width="0.91" height="0.71"/>
					<rect x="79.73" y="13.72" class="st41" width="0.91" height="0.71"/>
					<path class="st41" d="M80.95,17.4c0,0.13-0.01,0.26-0.03,0.38c-0.02,0.12-0.07,0.23-0.14,0.33c-0.07,0.09-0.15,0.15-0.25,0.18
						c-0.1,0.04-0.24,0.06-0.41,0.06h-0.99v0h-0.56v-3.33h-0.91v3.73c0,0.11-0.01,0.2-0.02,0.28c-0.01,0.08-0.03,0.15-0.06,0.21
						c-0.03,0.06-0.06,0.11-0.1,0.16c-0.04,0.04-0.09,0.08-0.14,0.12c-0.05,0.04-0.11,0.07-0.16,0.09
						c-0.05,0.02-0.12,0.04-0.19,0.06c-0.07,0.01-0.15,0.02-0.24,0.03c-0.09,0-0.2,0-0.32,0v0.68c0.39,0.01,0.71,0,0.97-0.05
						c0.26-0.05,0.47-0.13,0.64-0.25c0.04-0.03,0.09-0.08,0.15-0.13c0.06-0.05,0.11-0.12,0.17-0.21c0.05-0.08,0.1-0.18,0.14-0.3
						c0.04-0.12,0.06-0.26,0.07-0.42h0.68v0h1.06c0.11,0,0.21,0,0.32-0.01c0.1-0.01,0.2-0.02,0.3-0.04c0.1-0.02,0.19-0.05,0.28-0.1
						c0.09-0.04,0.18-0.1,0.26-0.18c0.05-0.05,0.1-0.1,0.15-0.16c0.05-0.06,0.09-0.14,0.13-0.22c0.04-0.08,0.07-0.18,0.09-0.29
						c0.02-0.11,0.03-0.23,0.03-0.37v-2.64h-0.91V17.4z"/>
				</g>
			</g>
		</g>
	</g>
</g>
</svg>
