<?xml version="1.0" encoding="utf-8"?>
<!-- Generator: Adobe Illustrator 25.0.1, SVG Export Plug-In . SVG Version: 6.00 Build 0)  -->
<svg version="1.0" id="Layer_1" xmlns="http://www.w3.org/2000/svg" xmlns:xlink="http://www.w3.org/1999/xlink" x="0px" y="0px"
	 viewBox="0 0 84 63.07" style="enable-background:new 0 0 84 63.07;" xml:space="preserve">
<style type="text/css">
	.st0{fill:#000104;}
	.st1{fill:#FFFFFF;}
	.st2{fill:#EF493E;}
	.st3{opacity:0.6;fill-rule:evenodd;clip-rule:evenodd;fill:#FBBE43;}
	.st4{opacity:0.6;fill-rule:evenodd;clip-rule:evenodd;fill:#EF930E;}
	.st5{opacity:0.6;fill-rule:evenodd;clip-rule:evenodd;fill:#E67906;}
	.st6{fill:#9F8829;}
	.st7{fill:#3972A6;}
	.st8{fill:url(#SVGID_1_);stroke:#2B53A4;stroke-width:0.5;stroke-miterlimit:10;}
	.st9{fill:none;}
	.st10{fill:url(#SVGID_2_);}
	.st11{fill:url(#SVGID_3_);}
	.st12{fill:#B3B3B3;}
	.st13{fill:url(#SVGID_4_);}
	.st14{fill:url(#SVGID_5_);}
	.st15{fill:url(#SVGID_6_);}
	.st16{fill:#FFFFFF;stroke:#FFFFFF;stroke-width:0.25;stroke-miterlimit:10;}
	.st17{fill:#00001D;}
	.st18{fill:#4DA0C5;}
	.st19{fill:url(#SVGID_7_);}
	.st20{fill:#2E6A85;}
	.st21{fill:none;stroke:#144FA1;stroke-width:0.113;stroke-linejoin:round;stroke-miterlimit:10;}
	.st22{fill:#F27337;}
	.st23{fill:#8EB8D4;}
	.st24{fill:#F38056;}
	.st25{fill:#626365;}
	.st26{fill:#EF6D23;}
	.st27{fill:#284B82;}
	.st28{fill:#242956;}
	.st29{fill:#15142A;}
	.st30{fill:#84C343;}
	.st31{fill:#4CA1C6;}
	.st32{fill:#121617;}
	.st33{fill:#CF8966;}
	.st34{fill:#F37639;}
	.st35{opacity:0.3;fill:url(#SVGID_8_);}
	.st36{fill:#373277;}
	.st37{fill:#E61E25;}
	.st38{fill:#2555A5;}
	.st39{fill:#2E225E;}
	.st40{fill:#F8A425;}
	.st41{fill:#2058A7;}
	.st42{fill:none;stroke:#205AA8;stroke-width:0.156;stroke-miterlimit:10;}
	.st43{fill:#49A3C7;}
	.st44{fill-rule:evenodd;clip-rule:evenodd;}
	.st45{fill-rule:evenodd;clip-rule:evenodd;fill:url(#SVGID_9_);}
	.st46{fill-rule:evenodd;clip-rule:evenodd;fill:url(#SVGID_10_);}
	.st47{fill-rule:evenodd;clip-rule:evenodd;fill:url(#SVGID_11_);}
	.st48{fill:#1D2251;}
	.st49{fill:#2260AC;}
	.st50{fill:url(#SVGID_12_);}
	.st51{fill:#FFFFFC;}
	.st52{fill:#4C9FC5;}
	.st53{fill:#28306D;}
	.st54{fill:#4C9EC5;}
	.st55{fill:#28306E;}
	.st56{fill:#29306F;}
	.st57{fill:#F7F7FB;}
	.st58{fill:url(#SVGID_13_);}
	.st59{fill:url(#SVGID_14_);}
	.st60{fill:url(#SVGID_15_);}
	.st61{fill:url(#SVGID_16_);}
	.st62{fill:#10123C;}
	.st63{fill:#F5842C;}
	.st64{fill:#1F305E;}
	.st65{fill:#87BBD1;}
	.st66{fill:#203160;}
	.st67{fill:#235779;}
	.st68{fill:#359FA1;}
	.st69{fill:#A4D1A4;}
	.st70{fill:#B9DBBC;}
	.st71{fill:#C6DDCA;}
	.st72{fill:#662E14;}
	.st73{fill:#1D79A4;}
	.st74{fill:#C14B28;}
	.st75{fill:url(#SVGID_17_);}
	.st76{fill:url(#SVGID_18_);}
	.st77{fill:url(#SVGID_19_);}
	.st78{fill:url(#SVGID_20_);}
	.st79{fill:url(#SVGID_21_);}
	.st80{fill:url(#SVGID_22_);}
	.st81{fill:url(#SVGID_23_);}
	.st82{fill:url(#SVGID_24_);}
	.st83{fill:url(#SVGID_25_);}
	.st84{fill:url(#SVGID_26_);}
	.st85{fill:url(#SVGID_27_);}
	.st86{fill:url(#SVGID_28_);}
	.st87{fill:url(#SVGID_29_);}
	.st88{fill:url(#SVGID_30_);}
	.st89{fill:#1F164B;}
	.st90{clip-path:url(#SVGID_32_);fill:#253D97;}
	.st91{fill:url(#SVGID_33_);}
	.st92{fill:url(#SVGID_34_);}
	.st93{fill:url(#SVGID_35_);}
	.st94{fill:url(#SVGID_36_);}
	.st95{fill:url(#SVGID_37_);}
	.st96{fill:url(#SVGID_38_);}
	.st97{fill:url(#SVGID_39_);}
	.st98{fill:url(#SVGID_40_);}
	.st99{fill:url(#SVGID_41_);}
	.st100{fill:#443F41;}
	.st101{fill:#28306F;}
	.st102{fill:#71C49D;}
	.st103{fill:#F0C6A7;}
	.st104{fill:#DB8D82;}
	.st105{fill:#EFB7AC;}
	.st106{opacity:0.21;}
	.st107{fill-rule:evenodd;clip-rule:evenodd;fill:#A9196E;}
	.st108{fill-rule:evenodd;clip-rule:evenodd;fill:#FBE42C;}
	.st109{fill:#FBE42C;}
	.st110{fill:#A9196E;}
	.st111{fill:#7FC143;}
	.st112{clip-path:url(#SVGID_45_);fill:#7FC143;}
	.st113{clip-path:url(#SVGID_51_);fill:#7FC143;}
	.st114{fill:#243F8F;}
	.st115{fill:#EF4E2F;}
	.st116{fill:#010007;}
	.st117{fill:#0C0D37;}
	.st118{fill:#FBAF2D;}
	.st119{fill:url(#SVGID_54_);}
	.st120{fill-rule:evenodd;clip-rule:evenodd;fill:#FFFFFF;}
	.st121{fill:#1D4690;}
	.st122{fill:#3AA949;}
	.st123{fill:#F37A24;}
	.st124{fill:none;stroke:#F37A24;stroke-width:3.7145;stroke-miterlimit:10;}
	.st125{fill:#3AA949;stroke:#FFFFFF;stroke-width:1.3104;stroke-miterlimit:10;}
	.st126{fill:#46A2BB;}
	.st127{fill:#7153A0;}
	.st128{fill:#27316C;}
	.st129{fill:#2C65AE;}
	.st130{fill:#452D7A;}
	.st131{fill:#442C7A;}
	.st132{fill:#1A2642;}
	.st133{fill-rule:evenodd;clip-rule:evenodd;fill:#567EB8;}
	.st134{fill-rule:evenodd;clip-rule:evenodd;fill:#6A7EB8;}
	.st135{fill-rule:evenodd;clip-rule:evenodd;fill:#6A7EB9;}
	.st136{fill-rule:evenodd;clip-rule:evenodd;fill:#EE3C2D;}
	.st137{fill-rule:evenodd;clip-rule:evenodd;fill:#EF493F;}
	.st138{fill-rule:evenodd;clip-rule:evenodd;fill:#ED2C24;}
	.st139{fill-rule:evenodd;clip-rule:evenodd;fill:#E9AE28;}
	.st140{fill-rule:evenodd;clip-rule:evenodd;fill:#D69B28;}
	.st141{fill-rule:evenodd;clip-rule:evenodd;fill:#FCB729;}
	.st142{fill-rule:evenodd;clip-rule:evenodd;fill:#409E47;}
	.st143{fill-rule:evenodd;clip-rule:evenodd;fill:#4BB450;}
	.st144{fill-rule:evenodd;clip-rule:evenodd;fill:#338440;}
	.st145{fill:#C09C36;}
	.st146{fill:#1E552A;}
	.st147{clip-path:url(#SVGID_56_);fill:url(#SVGID_57_);}
	.st148{fill:#023A1E;}
	.st149{fill:#FFFFFA;}
	.st150{fill:#0D4F28;}
	.st151{fill:#0E5128;}
	.st152{fill:#0D4E27;}
	.st153{fill:#0E5229;}
	.st154{fill:#0E4823;}
	.st155{fill:#0E4C27;}
	.st156{fill:#F3F6E0;}
	.st157{fill:#0E4F28;}
	.st158{fill:#114823;}
	.st159{fill:#105229;}
	.st160{fill:#0A4A2B;}
	.st161{fill:#134F27;}
	.st162{fill:#165229;}
	.st163{fill:#0D5029;}
	.st164{fill:#0B4E2B;}
	.st165{fill:#105028;}
	.st166{fill:#0A492A;}
	.st167{fill:#E9F3E2;}
	.st168{fill:#144D26;}
	.st169{fill:#185C2F;}
	.st170{fill:#0F5028;}
	.st171{fill:#F3F8EA;}
	.st172{fill:#114D26;}
	.st173{fill:#70A685;}
	.st174{fill:#0D4F2A;}
	.st175{fill:#094A24;}
	.st176{fill:#0F4F27;}
	.st177{fill:#0A4C26;}
	.st178{fill:#A2D29A;}
	.st179{fill:#4D7E44;}
	.st180{fill:#E8F2E1;}
	.st181{fill:#EDF5E5;}
	.st182{fill:#E6F2E7;}
	.st183{fill:#E5F1DC;}
	.st184{fill:#E9F3E3;}
	.st185{fill:#E9F3E5;}
	.st186{fill:#E5F1DB;}
	.st187{fill:#D8ECD7;}
	.st188{fill:#D9EBD4;}
	.st189{fill:#E2F0DE;}
	.st190{fill:#366B4B;}
	.st191{fill:#5D6162;}
	.st192{fill:#212E5F;}
	.st193{fill:#DD1F26;}
	.st194{clip-path:url(#SVGID_59_);}
	.st195{fill:#23396F;}
	.st196{fill:#7FC24E;}
	.st197{clip-path:url(#SVGID_59_);fill:#23396F;}
	.st198{clip-path:url(#SVGID_59_);fill:#7FC24E;}
	.st199{fill:#91CEA4;}
	.st200{fill:#90CEA4;}
	.st201{fill:#C02026;}
	.st202{fill:#362E7E;}
</style>
<g>
	<g>
		<path class="st107" d="M59.06,13.11C55.7,6.81,51,2.43,47.47,5.23c-1.47,1.17-0.97,3.39-0.6,5.2c0.75-1.21,2.16-2.02,3.78-2.02
			c2.4,0,4.34,1.79,4.34,3.98c0,0.37-0.05,0.72-0.15,1.06c0.3-0.11,0.63-0.16,0.97-0.16c0.74,0,1.41,0.27,1.9,0.7
			C58.03,13.56,58.5,13.24,59.06,13.11L59.06,13.11z"/>
		<path class="st107" d="M45.03,12.33c-0.04-0.07-0.07-0.14-0.1-0.21l0.02-0.02C43.12,8.31,43.1,4.05,44.02,0c0,0-0.02,0-0.04,0
			c-0.18,0-1.42,0-3.76,0c-0.01,0-0.04,0-0.04,0c0.92,4.05,0.9,8.31-0.93,12.09l0.02,0.02c-0.03,0.07-0.06,0.14-0.1,0.21
			c-0.84,1.67-2.97,3.75-5.03,4.01c1.26,0.68,2.12,1.92,2.15,3.35c0.22-0.06,0.45-0.09,0.69-0.09c0.44,0,0.85,0.1,1.22,0.28
			c-0.36-2.88-0.03-5.25,3.9-5.29c3.93,0.03,4.26,2.41,3.9,5.29c0.36-0.18,0.78-0.28,1.22-0.28c0.24,0,0.47,0.03,0.69,0.09
			c0.03-1.43,0.89-2.68,2.15-3.35C48,16.07,45.87,13.99,45.03,12.33z"/>
		<path class="st107" d="M52.25,16.85c-1.76,0-3.19,1.31-3.19,2.93c0,1.62,1.43,2.93,3.19,2.93c1.76,0,3.19-1.31,3.19-2.93
			C55.44,18.16,54.01,16.85,52.25,16.85L52.25,16.85z"/>
		<path class="st107" d="M62,24.9c-0.88,0-1.6,0.66-1.6,1.47c0,0.81,0.72,1.47,1.6,1.47c0.88,0,1.6-0.66,1.6-1.47
			C63.61,25.55,62.89,24.9,62,24.9L62,24.9z"/>
		<path class="st107" d="M58.21,21.36c-0.88,0-1.6,0.66-1.6,1.47c0,0.81,0.72,1.47,1.6,1.47c0.88,0,1.6-0.66,1.6-1.47
			C59.81,22.01,59.1,21.36,58.21,21.36L58.21,21.36z"/>
		<path class="st107" d="M49.31,27.37c-1.02,0-1.85,0.76-1.85,1.7c0,0.93,0.83,1.69,1.85,1.69c1.02,0,1.85-0.76,1.85-1.69
			C51.16,28.13,50.33,27.37,49.31,27.37L49.31,27.37z"/>
		<path class="st107" d="M55.81,14.34c-0.88,0-1.6,0.66-1.6,1.47c0,0.81,0.72,1.47,1.6,1.47c0.88,0,1.6-0.66,1.6-1.47
			C57.41,14.99,56.7,14.34,55.81,14.34L55.81,14.34z"/>
		<path class="st107" d="M47.22,20.66c-0.81,0-1.46,0.6-1.46,1.34c0,0.74,0.66,1.34,1.46,1.34c0.81,0,1.46-0.6,1.46-1.34
			C48.68,21.26,48.03,20.66,47.22,20.66L47.22,20.66z"/>
		<path class="st107" d="M52.42,26.79c-0.64,0-1.16,0.48-1.16,1.07c0,0.59,0.52,1.07,1.16,1.07c0.64,0,1.16-0.48,1.16-1.07
			C53.58,27.27,53.06,26.79,52.42,26.79L52.42,26.79z"/>
		<path class="st107" d="M62.03,30.3c-0.31,0-0.56,0.23-0.56,0.52c0,0.29,0.25,0.52,0.56,0.52c0.31,0,0.57-0.23,0.57-0.52
			C62.6,30.53,62.35,30.3,62.03,30.3L62.03,30.3z"/>
		<path class="st107" d="M55.05,28.17c-0.31,0-0.57,0.23-0.57,0.52c0,0.29,0.25,0.52,0.57,0.52c0.31,0,0.57-0.23,0.57-0.52
			C55.61,28.4,55.36,28.17,55.05,28.17L55.05,28.17z"/>
		<path class="st107" d="M52.39,23.89c-0.31,0-0.57,0.23-0.57,0.52c0,0.29,0.25,0.52,0.57,0.52c0.31,0,0.57-0.23,0.57-0.52
			C52.95,24.13,52.7,23.89,52.39,23.89L52.39,23.89z"/>
		<path class="st107" d="M50.39,26.27c-0.31,0-0.57,0.23-0.57,0.52c0,0.29,0.25,0.52,0.57,0.52c0.31,0,0.57-0.23,0.57-0.52
			C50.96,26.5,50.7,26.27,50.39,26.27L50.39,26.27z"/>
		<g>
			<path class="st108" d="M59.64,14.1c-0.64,0-1.16,0.48-1.16,1.07c0,0.59,0.52,1.07,1.16,1.07c0.64,0,1.16-0.48,1.16-1.07
				C60.8,14.58,60.28,14.1,59.64,14.1L59.64,14.1z"/>
			<path class="st108" d="M61.67,22.37c-0.64,0-1.16,0.48-1.16,1.07c0,0.59,0.52,1.07,1.16,1.07c0.64,0,1.16-0.48,1.16-1.07
				C62.83,22.85,62.31,22.37,61.67,22.37L61.67,22.37z"/>
			<path class="st108" d="M54.22,29.78c-0.88,0-1.6,0.66-1.6,1.47c0,0.81,0.72,1.47,1.6,1.47c0.88,0,1.6-0.66,1.6-1.47
				C55.82,30.44,55.1,29.78,54.22,29.78L54.22,29.78z"/>
			<path class="st108" d="M50.66,9.46c-1.76,0-3.19,1.31-3.19,2.93c0,1.62,1.43,2.93,3.19,2.93c1.76,0,3.19-1.31,3.19-2.93
				C53.85,10.77,52.42,9.46,50.66,9.46L50.66,9.46z"/>
			<path class="st108" d="M57.31,18.28c-0.64,0-1.16,0.48-1.16,1.07c0,0.59,0.52,1.07,1.16,1.07c0.64,0,1.16-0.48,1.16-1.07
				C58.47,18.76,57.95,18.28,57.31,18.28L57.31,18.28z"/>
			<path class="st108" d="M49.89,22.82c-0.88,0-1.6,0.66-1.6,1.47c0,0.81,0.72,1.47,1.6,1.47c0.88,0,1.6-0.66,1.6-1.47
				C51.5,23.48,50.78,22.82,49.89,22.82L49.89,22.82z"/>
			<path class="st108" d="M55.12,23.56c-1.16,0-2.1,0.86-2.1,1.92c0,1.06,0.94,1.92,2.1,1.92c1.16,0,2.09-0.86,2.09-1.92
				C57.21,24.42,56.27,23.56,55.12,23.56L55.12,23.56z"/>
			<path class="st108" d="M61.4,28.04c-0.48,0-0.86,0.36-0.86,0.79c0,0.44,0.39,0.79,0.86,0.79c0.48,0,0.86-0.36,0.86-0.79
				C62.27,28.4,61.88,28.04,61.4,28.04L61.4,28.04z"/>
			<path class="st108" d="M59.54,29.02c-0.48,0-0.86,0.36-0.86,0.79c0,0.44,0.39,0.79,0.86,0.79c0.48,0,0.86-0.36,0.86-0.79
				C60.4,29.37,60.02,29.02,59.54,29.02L59.54,29.02z"/>
			<path class="st108" d="M58.94,25.39c-0.48,0-0.86,0.36-0.86,0.79c0,0.44,0.39,0.79,0.86,0.79c0.48,0,0.86-0.36,0.86-0.79
				C59.8,25.74,59.42,25.39,58.94,25.39L58.94,25.39z"/>
			<path class="st108" d="M57.11,29.87c-0.31,0-0.57,0.23-0.57,0.52c0,0.29,0.25,0.52,0.57,0.52c0.31,0,0.56-0.23,0.56-0.52
				C57.68,30.11,57.42,29.87,57.11,29.87L57.11,29.87z"/>
			<path class="st108" d="M55.85,21.24c-0.31,0-0.57,0.23-0.57,0.52c0,0.29,0.25,0.52,0.57,0.52c0.31,0,0.57-0.23,0.57-0.52
				C56.41,21.47,56.16,21.24,55.85,21.24L55.85,21.24z"/>
			<path class="st108" d="M51.92,25.19c-0.41,0-0.75,0.31-0.75,0.69c0,0.38,0.33,0.69,0.75,0.69c0.41,0,0.75-0.31,0.75-0.69
				C52.67,25.5,52.34,25.19,51.92,25.19L51.92,25.19z"/>
			<path class="st108" d="M48.1,25.75c-0.41,0-0.75,0.31-0.75,0.69c0,0.38,0.33,0.69,0.75,0.69c0.41,0,0.75-0.31,0.75-0.69
				C48.85,26.06,48.51,25.75,48.1,25.75L48.1,25.75z"/>
		</g>
		<path class="st107" d="M59.34,30.79c-1.76,0-3.19,1.31-3.19,2.93c0,1.62,1.43,2.93,3.19,2.93c1.76,0,3.19-1.31,3.19-2.93
			C62.53,32.1,61.1,30.79,59.34,30.79L59.34,30.79z"/>
		<path class="st107" d="M57.51,27.28c-0.64,0-1.16,0.48-1.16,1.07c0,0.59,0.52,1.07,1.16,1.07c0.64,0,1.16-0.48,1.16-1.07
			C58.67,27.76,58.15,27.28,57.51,27.28L57.51,27.28z"/>
		<path class="st107" d="M59.36,17.42c-0.31,0-0.57,0.23-0.57,0.52c0,0.29,0.25,0.52,0.57,0.52c0.31,0,0.57-0.23,0.57-0.52
			C59.93,17.65,59.68,17.42,59.36,17.42L59.36,17.42z"/>
		<path class="st107" d="M61.77,18.1c-1.12,0-2.03,0.83-2.03,1.86c0,1.03,0.91,1.86,2.03,1.86c1.12,0,2.03-0.84,2.03-1.86
			C63.79,18.93,62.88,18.1,61.77,18.1L61.77,18.1z"/>
		<g>
			<path class="st107" d="M25.13,13.11c3.35-6.3,8.06-10.68,11.58-7.88c1.47,1.17,0.97,3.39,0.6,5.2c-0.75-1.21-2.16-2.02-3.78-2.02
				c-2.4,0-4.34,1.79-4.34,3.98c0,0.37,0.05,0.72,0.15,1.06c-0.3-0.11-0.63-0.16-0.97-0.16c-0.74,0-1.41,0.27-1.9,0.7
				C26.16,13.56,25.68,13.24,25.13,13.11L25.13,13.11z"/>
			<path class="st107" d="M31.93,16.85c1.76,0,3.19,1.31,3.19,2.93c0,1.62-1.43,2.93-3.19,2.93c-1.76,0-3.19-1.31-3.19-2.93
				C28.74,18.16,30.17,16.85,31.93,16.85L31.93,16.85z"/>
			<path class="st107" d="M22.18,24.9c0.88,0,1.6,0.66,1.6,1.47c0,0.81-0.72,1.47-1.6,1.47c-0.88,0-1.6-0.66-1.6-1.47
				C20.58,25.55,21.3,24.9,22.18,24.9L22.18,24.9z"/>
			<path class="st107" d="M25.97,21.36c0.88,0,1.6,0.66,1.6,1.47c0,0.81-0.72,1.47-1.6,1.47c-0.88,0-1.6-0.66-1.6-1.47
				C24.37,22.01,25.09,21.36,25.97,21.36L25.97,21.36z"/>
			<path class="st107" d="M34.88,27.37c1.02,0,1.85,0.76,1.85,1.7c0,0.93-0.83,1.69-1.85,1.69c-1.02,0-1.85-0.76-1.85-1.69
				C33.03,28.13,33.86,27.37,34.88,27.37L34.88,27.37z"/>
			<path class="st107" d="M28.37,14.34c0.88,0,1.6,0.66,1.6,1.47c0,0.81-0.72,1.47-1.6,1.47c-0.88,0-1.6-0.66-1.6-1.47
				C26.77,14.99,27.49,14.34,28.37,14.34L28.37,14.34z"/>
			<path class="st107" d="M36.97,20.66c0.81,0,1.46,0.6,1.46,1.34c0,0.74-0.66,1.34-1.46,1.34c-0.81,0-1.46-0.6-1.46-1.34
				C35.5,21.26,36.16,20.66,36.97,20.66L36.97,20.66z"/>
			<path class="st107" d="M31.77,26.79c0.64,0,1.16,0.48,1.16,1.07c0,0.59-0.52,1.07-1.16,1.07c-0.64,0-1.16-0.48-1.16-1.07
				C30.6,27.27,31.12,26.79,31.77,26.79L31.77,26.79z"/>
			<path class="st107" d="M22.15,30.3c0.31,0,0.56,0.23,0.56,0.52c0,0.29-0.25,0.52-0.56,0.52c-0.31,0-0.57-0.23-0.57-0.52
				C21.59,30.53,21.84,30.3,22.15,30.3L22.15,30.3z"/>
			<path class="st107" d="M29.14,28.17c0.31,0,0.57,0.23,0.57,0.52c0,0.29-0.25,0.52-0.57,0.52c-0.31,0-0.57-0.23-0.57-0.52
				C28.57,28.4,28.82,28.17,29.14,28.17L29.14,28.17z"/>
			<path class="st107" d="M31.8,23.89c0.31,0,0.57,0.23,0.57,0.52c0,0.29-0.25,0.52-0.57,0.52c-0.31,0-0.57-0.23-0.57-0.52
				C31.23,24.13,31.49,23.89,31.8,23.89L31.8,23.89z"/>
			<path class="st107" d="M33.79,26.27c0.31,0,0.57,0.23,0.57,0.52c0,0.29-0.25,0.52-0.57,0.52c-0.31,0-0.57-0.23-0.57-0.52
				C33.23,26.5,33.48,26.27,33.79,26.27L33.79,26.27z"/>
			<g>
				<path class="st108" d="M24.55,14.1c0.64,0,1.16,0.48,1.16,1.07c0,0.59-0.52,1.07-1.16,1.07c-0.64,0-1.16-0.48-1.16-1.07
					C23.38,14.58,23.9,14.1,24.55,14.1L24.55,14.1z"/>
				<path class="st108" d="M22.52,22.37c0.64,0,1.16,0.48,1.16,1.07c0,0.59-0.52,1.07-1.16,1.07c-0.64,0-1.16-0.48-1.16-1.07
					C21.36,22.85,21.88,22.37,22.52,22.37L22.52,22.37z"/>
				<path class="st108" d="M29.97,29.78c0.88,0,1.6,0.66,1.6,1.47c0,0.81-0.72,1.47-1.6,1.47c-0.88,0-1.6-0.66-1.6-1.47
					C28.37,30.44,29.09,29.78,29.97,29.78L29.97,29.78z"/>
				<path class="st108" d="M33.53,9.46c1.76,0,3.19,1.31,3.19,2.93c0,1.62-1.43,2.93-3.19,2.93c-1.76,0-3.19-1.31-3.19-2.93
					C30.34,10.77,31.77,9.46,33.53,9.46L33.53,9.46z"/>
				<path class="st108" d="M26.88,18.28c0.64,0,1.16,0.48,1.16,1.07c0,0.59-0.52,1.07-1.16,1.07c-0.64,0-1.16-0.48-1.16-1.07
					C25.71,18.76,26.23,18.28,26.88,18.28L26.88,18.28z"/>
				<path class="st108" d="M34.29,22.82c0.88,0,1.6,0.66,1.6,1.47c0,0.81-0.72,1.47-1.6,1.47c-0.88,0-1.6-0.66-1.6-1.47
					C32.69,23.48,33.41,22.82,34.29,22.82L34.29,22.82z"/>
				<path class="st108" d="M29.07,23.56c1.16,0,2.1,0.86,2.1,1.92c0,1.06-0.94,1.92-2.1,1.92c-1.16,0-2.09-0.86-2.09-1.92
					C26.98,24.42,27.91,23.56,29.07,23.56L29.07,23.56z"/>
				<path class="st108" d="M22.79,28.04c0.48,0,0.86,0.36,0.86,0.79c0,0.44-0.39,0.79-0.86,0.79c-0.48,0-0.86-0.36-0.86-0.79
					C21.92,28.4,22.31,28.04,22.79,28.04L22.79,28.04z"/>
				<path class="st108" d="M24.65,29.02c0.48,0,0.86,0.36,0.86,0.79c0,0.44-0.39,0.79-0.86,0.79c-0.48,0-0.86-0.36-0.86-0.79
					C23.78,29.37,24.17,29.02,24.65,29.02L24.65,29.02z"/>
				<path class="st108" d="M25.25,25.39c0.48,0,0.86,0.36,0.86,0.79c0,0.44-0.39,0.79-0.86,0.79c-0.48,0-0.86-0.36-0.86-0.79
					C24.38,25.74,24.77,25.39,25.25,25.39L25.25,25.39z"/>
				<path class="st108" d="M27.07,29.87c0.31,0,0.57,0.23,0.57,0.52c0,0.29-0.25,0.52-0.57,0.52c-0.31,0-0.56-0.23-0.56-0.52
					C26.51,30.11,26.76,29.87,27.07,29.87L27.07,29.87z"/>
				<path class="st108" d="M28.34,21.24c0.31,0,0.57,0.23,0.57,0.52c0,0.29-0.25,0.52-0.57,0.52c-0.31,0-0.57-0.23-0.57-0.52
					C27.77,21.47,28.03,21.24,28.34,21.24L28.34,21.24z"/>
				<path class="st108" d="M32.26,25.19c0.41,0,0.75,0.31,0.75,0.69c0,0.38-0.33,0.69-0.75,0.69c-0.41,0-0.75-0.31-0.75-0.69
					C31.52,25.5,31.85,25.19,32.26,25.19L32.26,25.19z"/>
				<path class="st108" d="M36.09,25.75c0.41,0,0.75,0.31,0.75,0.69c0,0.38-0.33,0.69-0.75,0.69c-0.41,0-0.75-0.31-0.75-0.69
					C35.34,26.06,35.68,25.75,36.09,25.75L36.09,25.75z"/>
			</g>
			<path class="st107" d="M24.85,30.79c1.76,0,3.19,1.31,3.19,2.93c0,1.62-1.43,2.93-3.19,2.93c-1.76,0-3.19-1.31-3.19-2.93
				C21.65,32.1,23.09,30.79,24.85,30.79L24.85,30.79z"/>
			<path class="st107" d="M26.68,27.28c0.64,0,1.16,0.48,1.16,1.07c0,0.59-0.52,1.07-1.16,1.07c-0.64,0-1.16-0.48-1.16-1.07
				C25.51,27.76,26.03,27.28,26.68,27.28L26.68,27.28z"/>
			<path class="st107" d="M24.82,17.42c0.31,0,0.57,0.23,0.57,0.52c0,0.29-0.25,0.52-0.57,0.52c-0.31,0-0.57-0.23-0.57-0.52
				C24.26,17.65,24.51,17.42,24.82,17.42L24.82,17.42z"/>
			<path class="st107" d="M22.42,18.1c1.12,0,2.03,0.83,2.03,1.86c0,1.03-0.91,1.86-2.03,1.86c-1.12,0-2.03-0.84-2.03-1.86
				C20.39,18.93,21.3,18.1,22.42,18.1L22.42,18.1z"/>
		</g>
	</g>
	<g>
		<path class="st109" d="M4.71,45.59c0-0.28,0.12-0.52,0.36-0.72c0.24-0.2,0.5-0.3,0.79-0.3c0.27,0,0.53,0.1,0.77,0.3
			c0.24,0.2,0.36,0.45,0.36,0.75c0,0.32-0.1,0.57-0.31,0.76c-0.21,0.19-0.47,0.29-0.77,0.29c-0.3,0-0.58-0.1-0.82-0.29
			C4.83,46.21,4.71,45.94,4.71,45.59z"/>
		<rect x="4.88" y="47.78" class="st109" width="1.9" height="9.53"/>
		<path class="st110" d="M10.12,57.31V47.18c0-1.06,0.43-1.98,1.28-2.76c0.92-0.85,2.08-1.27,3.48-1.27c1.37,0,2.52,0.31,3.44,0.93
			c1.01,0.69,1.51,1.64,1.51,2.84c0,0.82-0.14,1.46-0.41,1.91c-0.22,0.34-0.58,0.69-1.08,1.03c0.75,0.37,1.31,0.86,1.69,1.47
			c0.32,0.53,0.48,1.13,0.48,1.79c0,1.28-0.42,2.3-1.27,3.06c-0.85,0.75-1.93,1.13-3.24,1.13h-3.04v-1.75h2.91
			c0.73,0,1.33-0.17,1.79-0.52c0.55-0.4,0.82-0.99,0.82-1.77c0-0.79-0.3-1.39-0.88-1.79c-0.49-0.33-1.14-0.5-1.96-0.5h-2.67v-1.75
			h2.37c0.89,0,1.55-0.25,1.98-0.75c0.33-0.38,0.5-0.87,0.5-1.47c0-0.7-0.27-1.23-0.8-1.59c-0.53-0.36-1.21-0.54-2.03-0.54
			c-0.89,0-1.58,0.25-2.08,0.75c-0.5,0.5-0.74,1.09-0.74,1.78v9.89H10.12z"/>
		<path class="st110" d="M21.87,47.78h1.82v1.11c0.27-0.41,0.61-0.71,1-0.91c0.5-0.26,1.07-0.4,1.71-0.4h0.58v1.67h-0.45
			c-0.97,0-1.7,0.38-2.21,1.13c-0.36,0.54-0.54,1.19-0.54,1.93v5h-1.9V47.78z"/>
		<path class="st110" d="M29.35,52.75l5.18-2.62c-0.29-0.28-0.53-0.46-0.74-0.55c-0.46-0.22-1.02-0.34-1.69-0.34
			c-1.02,0-1.85,0.36-2.49,1.07c-0.56,0.66-0.84,1.46-0.84,2.38c0,0.81,0.31,1.53,0.93,2.17c0.62,0.64,1.45,0.96,2.49,0.96
			c1.07,0,1.87-0.26,2.4-0.79c0.49-0.45,0.84-1.18,1.06-2.2l1.91,0.24c0,1.02-0.45,1.98-1.36,2.88c-1.08,1.06-2.46,1.59-4.13,1.59
			c-1.4,0-2.63-0.47-3.69-1.4c-1.06-0.93-1.59-2.06-1.59-3.39c0-1.66,0.59-2.97,1.77-3.93c1.02-0.83,2.21-1.25,3.55-1.25
			c1.2,0,2.2,0.25,3,0.73c0.8,0.49,1.5,1.25,2.09,2.28l-7.01,3.57L29.35,52.75z"/>
		<path class="st110" d="M47.43,57.31v-5.5c0-0.74-0.31-1.35-0.94-1.84c-0.63-0.48-1.45-0.72-2.48-0.72c-0.81,0-1.53,0.22-2.16,0.66
			c-0.82,0.58-1.23,1.44-1.23,2.56c0,1.03,0.35,1.87,1.06,2.5c0.66,0.58,1.44,0.87,2.34,0.87c1,0,1.88-0.44,2.66-1.33v2.11
			c-0.25,0.15-0.53,0.3-0.84,0.46c-0.1,0.05-0.2,0.11-0.3,0.16c-0.48,0.19-1.04,0.28-1.69,0.28c-1.36,0-2.52-0.44-3.51-1.33
			c-1.08-0.98-1.62-2.22-1.62-3.71c0-1.39,0.45-2.53,1.36-3.44c0.97-0.97,2.33-1.45,4.09-1.45c1.63,0,2.93,0.44,3.9,1.33
			c0.88,0.81,1.32,1.82,1.32,3.04v5.36H47.43z"/>
		<path class="st110" d="M51.5,54.33v-8.99h1.88v2.44h3.72v1.67h-3.72v5.22c0,0.28,0.12,0.5,0.35,0.68c0.22,0.2,0.56,0.3,1.02,0.3
			h2.36v1.67h-2.4c-1.11,0-1.94-0.3-2.49-0.9C51.74,55.9,51.5,55.2,51.5,54.33z"/>
		<path class="st110" d="M58.47,43.39h1.86v5.16c0.4-0.3,0.84-0.54,1.32-0.72c0.48-0.15,1.01-0.22,1.6-0.22
			c1.18,0,2.13,0.3,2.83,0.91c0.81,0.68,1.21,1.63,1.21,2.88v5.9h-1.95v-5.58c0-0.79-0.21-1.4-0.64-1.82
			c-0.43-0.42-1-0.63-1.72-0.63c-0.95,0-1.65,0.29-2.1,0.85c-0.38,0.46-0.56,1.03-0.56,1.71v5.46h-1.86V43.39z"/>
		<path class="st110" d="M71.47,52.75l5.18-2.62c-0.29-0.28-0.53-0.46-0.74-0.55c-0.46-0.22-1.02-0.34-1.69-0.34
			c-1.02,0-1.85,0.36-2.49,1.07c-0.56,0.66-0.84,1.46-0.84,2.38c0,0.81,0.31,1.53,0.93,2.17c0.62,0.64,1.45,0.96,2.49,0.96
			c1.07,0,1.87-0.26,2.4-0.79c0.49-0.45,0.84-1.18,1.06-2.2l1.91,0.24c0,1.02-0.45,1.98-1.36,2.88c-1.08,1.06-2.46,1.59-4.13,1.59
			c-1.4,0-2.63-0.47-3.69-1.4c-1.06-0.93-1.59-2.06-1.59-3.39c0-1.66,0.59-2.97,1.77-3.93c1.02-0.83,2.21-1.25,3.55-1.25
			c1.2,0,2.2,0.25,3,0.73c0.8,0.49,1.5,1.25,2.09,2.28l-7.01,3.57L71.47,52.75z"/>
	</g>
</g>
</svg>
