<?xml version="1.0" encoding="utf-8"?>
<!-- Generator: Adobe Illustrator 25.0.1, SVG Export Plug-In . SVG Version: 6.00 Build 0)  -->
<svg version="1.0" id="Layer_1" xmlns="http://www.w3.org/2000/svg" xmlns:xlink="http://www.w3.org/1999/xlink" x="0px" y="0px"
	 viewBox="0 0 66.21 58.12" style="enable-background:new 0 0 66.21 58.12;" xml:space="preserve">
<style type="text/css">
	.st0{fill:#000104;}
	.st1{fill:#FFFFFF;}
	.st2{fill:#EF493E;}
	.st3{opacity:0.6;fill-rule:evenodd;clip-rule:evenodd;fill:#FBBE43;}
	.st4{opacity:0.6;fill-rule:evenodd;clip-rule:evenodd;fill:#EF930E;}
	.st5{opacity:0.6;fill-rule:evenodd;clip-rule:evenodd;fill:#E67906;}
	.st6{fill:#9F8829;}
	.st7{fill:#3972A6;}
	.st8{fill:url(#SVGID_1_);stroke:#2B53A4;stroke-width:0.5;stroke-miterlimit:10;}
	.st9{fill:none;}
	.st10{fill:url(#SVGID_2_);}
	.st11{fill:url(#SVGID_3_);}
	.st12{fill:#B3B3B3;}
	.st13{fill:url(#SVGID_4_);}
	.st14{fill:url(#SVGID_5_);}
	.st15{fill:url(#SVGID_6_);}
	.st16{fill:#FFFFFF;stroke:#FFFFFF;stroke-width:0.25;stroke-miterlimit:10;}
	.st17{fill:#00001D;}
	.st18{fill:#4DA0C5;}
	.st19{fill:url(#SVGID_7_);}
	.st20{fill:#2E6A85;}
	.st21{fill:none;stroke:#144FA1;stroke-width:0.113;stroke-linejoin:round;stroke-miterlimit:10;}
	.st22{fill:#F27337;}
	.st23{fill:#8EB8D4;}
	.st24{fill:#F38056;}
	.st25{fill:#626365;}
	.st26{fill:#EF6D23;}
	.st27{fill:#284B82;}
	.st28{fill:#242956;}
	.st29{fill:#15142A;}
	.st30{fill:#84C343;}
	.st31{fill:#4CA1C6;}
	.st32{fill:#121617;}
	.st33{fill:#CF8966;}
	.st34{fill:#F37639;}
	.st35{opacity:0.3;fill:url(#SVGID_8_);}
	.st36{fill:#373277;}
	.st37{fill:#E61E25;}
	.st38{fill:#2555A5;}
	.st39{fill:#2E225E;}
	.st40{fill:#F8A425;}
	.st41{fill:#2058A7;}
	.st42{fill:none;stroke:#205AA8;stroke-width:0.156;stroke-miterlimit:10;}
	.st43{fill:#49A3C7;}
	.st44{fill-rule:evenodd;clip-rule:evenodd;}
	.st45{fill-rule:evenodd;clip-rule:evenodd;fill:url(#SVGID_9_);}
	.st46{fill-rule:evenodd;clip-rule:evenodd;fill:url(#SVGID_10_);}
	.st47{fill-rule:evenodd;clip-rule:evenodd;fill:url(#SVGID_11_);}
	.st48{fill:#1D2251;}
	.st49{fill:#2260AC;}
	.st50{fill:url(#SVGID_12_);}
	.st51{fill:#FFFFFC;}
	.st52{fill:#4C9FC5;}
	.st53{fill:#28306D;}
	.st54{fill:#4C9EC5;}
	.st55{fill:#28306E;}
	.st56{fill:#29306F;}
	.st57{fill:#F7F7FB;}
	.st58{fill:url(#SVGID_13_);}
	.st59{fill:url(#SVGID_14_);}
	.st60{fill:url(#SVGID_15_);}
	.st61{fill:url(#SVGID_16_);}
	.st62{fill:#10123C;}
	.st63{fill:#F5842C;}
	.st64{fill:#1F305E;}
	.st65{fill:#87BBD1;}
	.st66{fill:#203160;}
	.st67{fill:#235779;}
	.st68{fill:#359FA1;}
	.st69{fill:#A4D1A4;}
	.st70{fill:#B9DBBC;}
	.st71{fill:#C6DDCA;}
	.st72{fill:#662E14;}
	.st73{fill:#1D79A4;}
	.st74{fill:#C14B28;}
	.st75{fill:url(#SVGID_17_);}
	.st76{fill:url(#SVGID_18_);}
	.st77{fill:url(#SVGID_19_);}
	.st78{fill:url(#SVGID_20_);}
	.st79{fill:url(#SVGID_21_);}
	.st80{fill:url(#SVGID_22_);}
	.st81{fill:url(#SVGID_23_);}
	.st82{fill:url(#SVGID_24_);}
	.st83{fill:url(#SVGID_25_);}
	.st84{fill:url(#SVGID_26_);}
	.st85{fill:url(#SVGID_27_);}
	.st86{fill:url(#SVGID_28_);}
	.st87{fill:url(#SVGID_29_);}
	.st88{fill:url(#SVGID_30_);}
	.st89{fill:#1F164B;}
	.st90{clip-path:url(#SVGID_32_);fill:#253D97;}
	.st91{fill:url(#SVGID_33_);}
	.st92{fill:url(#SVGID_34_);}
	.st93{fill:url(#SVGID_35_);}
	.st94{fill:url(#SVGID_36_);}
	.st95{fill:url(#SVGID_37_);}
	.st96{fill:url(#SVGID_38_);}
	.st97{fill:url(#SVGID_39_);}
	.st98{fill:url(#SVGID_40_);}
	.st99{fill:url(#SVGID_41_);}
	.st100{fill:#443F41;}
	.st101{fill:#28306F;}
	.st102{fill:#71C49D;}
	.st103{fill:#F0C6A7;}
	.st104{fill:#DB8D82;}
	.st105{fill:#EFB7AC;}
	.st106{opacity:0.21;}
	.st107{fill-rule:evenodd;clip-rule:evenodd;fill:#A9196E;}
	.st108{fill-rule:evenodd;clip-rule:evenodd;fill:#FBE42C;}
	.st109{fill:#FBE42C;}
	.st110{fill:#A9196E;}
	.st111{fill:#7FC143;}
	.st112{clip-path:url(#SVGID_45_);fill:#7FC143;}
	.st113{clip-path:url(#SVGID_51_);fill:#7FC143;}
	.st114{fill:#243F8F;}
	.st115{fill:#EF4E2F;}
	.st116{fill:#010007;}
	.st117{fill:#0C0D37;}
	.st118{fill:#FBAF2D;}
	.st119{fill:url(#SVGID_54_);}
	.st120{fill-rule:evenodd;clip-rule:evenodd;fill:#FFFFFF;}
	.st121{fill:#1D4690;}
	.st122{fill:#3AA949;}
	.st123{fill:#F37A24;}
	.st124{fill:none;stroke:#F37A24;stroke-width:3.7145;stroke-miterlimit:10;}
	.st125{fill:#3AA949;stroke:#FFFFFF;stroke-width:1.3104;stroke-miterlimit:10;}
	.st126{fill:#46A2BB;}
	.st127{fill:#7153A0;}
	.st128{fill:#27316C;}
	.st129{fill:#2C65AE;}
	.st130{fill:#452D7A;}
	.st131{fill:#442C7A;}
	.st132{fill:#1A2642;}
	.st133{fill-rule:evenodd;clip-rule:evenodd;fill:#567EB8;}
	.st134{fill-rule:evenodd;clip-rule:evenodd;fill:#6A7EB8;}
	.st135{fill-rule:evenodd;clip-rule:evenodd;fill:#6A7EB9;}
	.st136{fill-rule:evenodd;clip-rule:evenodd;fill:#EE3C2D;}
	.st137{fill-rule:evenodd;clip-rule:evenodd;fill:#EF493F;}
	.st138{fill-rule:evenodd;clip-rule:evenodd;fill:#ED2C24;}
	.st139{fill-rule:evenodd;clip-rule:evenodd;fill:#E9AE28;}
	.st140{fill-rule:evenodd;clip-rule:evenodd;fill:#D69B28;}
	.st141{fill-rule:evenodd;clip-rule:evenodd;fill:#FCB729;}
	.st142{fill-rule:evenodd;clip-rule:evenodd;fill:#409E47;}
	.st143{fill-rule:evenodd;clip-rule:evenodd;fill:#4BB450;}
	.st144{fill-rule:evenodd;clip-rule:evenodd;fill:#338440;}
	.st145{fill:#C09C36;}
	.st146{fill:#1E552A;}
	.st147{clip-path:url(#SVGID_56_);fill:url(#SVGID_57_);}
	.st148{fill:#023A1E;}
	.st149{fill:#FFFFFA;}
	.st150{fill:#0D4F28;}
	.st151{fill:#0E5128;}
	.st152{fill:#0D4E27;}
	.st153{fill:#0E5229;}
	.st154{fill:#0E4823;}
	.st155{fill:#0E4C27;}
	.st156{fill:#F3F6E0;}
	.st157{fill:#0E4F28;}
	.st158{fill:#114823;}
	.st159{fill:#105229;}
	.st160{fill:#0A4A2B;}
	.st161{fill:#134F27;}
	.st162{fill:#165229;}
	.st163{fill:#0D5029;}
	.st164{fill:#0B4E2B;}
	.st165{fill:#105028;}
	.st166{fill:#0A492A;}
	.st167{fill:#E9F3E2;}
	.st168{fill:#144D26;}
	.st169{fill:#185C2F;}
	.st170{fill:#0F5028;}
	.st171{fill:#F3F8EA;}
	.st172{fill:#114D26;}
	.st173{fill:#70A685;}
	.st174{fill:#0D4F2A;}
	.st175{fill:#094A24;}
	.st176{fill:#0F4F27;}
	.st177{fill:#0A4C26;}
	.st178{fill:#A2D29A;}
	.st179{fill:#4D7E44;}
	.st180{fill:#E8F2E1;}
	.st181{fill:#EDF5E5;}
	.st182{fill:#E6F2E7;}
	.st183{fill:#E5F1DC;}
	.st184{fill:#E9F3E3;}
	.st185{fill:#E9F3E5;}
	.st186{fill:#E5F1DB;}
	.st187{fill:#D8ECD7;}
	.st188{fill:#D9EBD4;}
	.st189{fill:#E2F0DE;}
	.st190{fill:#366B4B;}
	.st191{fill:#5D6162;}
	.st192{fill:#212E5F;}
	.st193{fill:#DD1F26;}
	.st194{clip-path:url(#SVGID_59_);}
	.st195{fill:#23396F;}
	.st196{fill:#7FC24E;}
	.st197{clip-path:url(#SVGID_59_);fill:#23396F;}
	.st198{clip-path:url(#SVGID_59_);fill:#7FC24E;}
	.st199{fill:#91CEA4;}
	.st200{fill:#90CEA4;}
	.st201{fill:#C02026;}
	.st202{fill:#362E7E;}
</style>
<g>
	<linearGradient id="SVGID_1_" gradientUnits="userSpaceOnUse" x1="27.8334" y1="53.1823" x2="28.4672" y2="53.1823">
		<stop  offset="1.285165e-06" style="stop-color:#131540"/>
		<stop  offset="1" style="stop-color:#4C9EC5"/>
	</linearGradient>
	<path style="fill-rule:evenodd;clip-rule:evenodd;fill:url(#SVGID_1_);" d="M28.47,53.18c0,0.17-0.15,0.3-0.33,0.3
		c-0.17,0-0.31-0.14-0.31-0.31c0-0.17,0.15-0.3,0.32-0.29C28.33,52.89,28.47,53.01,28.47,53.18z"/>
	<g>
		<linearGradient id="SVGID_2_" gradientUnits="userSpaceOnUse" x1="26.5877" y1="44.1788" x2="32.2297" y2="44.1788">
			<stop  offset="4.283885e-07" style="stop-color:#064723"/>
			<stop  offset="0.5446" style="stop-color:#7DC143"/>
		</linearGradient>
		<path style="fill-rule:evenodd;clip-rule:evenodd;fill:url(#SVGID_2_);" d="M31.3,46.58c-0.05,0.56-0.2,0.96-0.38,1.5
			c-0.26,0.75-1.13,3.42-2.32,2.39c-0.8-0.7-1.65-3.87-1.83-4.96c-0.39-2.31-0.26-5.62,1.52-7.38c1.33-1.31,2.9-0.75,3.15,1.03
			c0.27,1.9-0.85,4.64-1.78,6.5c0.91-0.38,2.04-0.74,2.46,0.17c0.5,1.09-0.84,3.76-1.47,4.76c-0.15,0.24-0.09,0.16-0.3,0.37
			c0.04-0.3,0.01-0.18,0.1-0.46c0.31-0.94,1.33-3.46,1.01-4.3c-0.22-0.55-2.08,0.65-2.51,0.76c-0.5,0.13-0.85-0.31-0.62-0.83
			c0.38-0.86,0.73-1.64,1.05-2.53c0.36-1.01,1.21-3.77,0.58-4.72c-0.2-0.3-0.67,0.16-0.82,0.32c-1.39,1.45-1.55,4.28-1.33,6.17
			c0.11,0.96,0.73,4.02,1.36,4.64l0,0l0.01,0c0.33,0.03,1.22-1.79,1.37-2.09C30.79,47.42,30.95,47.03,31.3,46.58L31.3,46.58z"/>
	</g>
	<g>
		<linearGradient id="SVGID_3_" gradientUnits="userSpaceOnUse" x1="21.1794" y1="34.3187" x2="40.3228" y2="34.3187">
			<stop  offset="1.285165e-06" style="stop-color:#131540"/>
			<stop  offset="1" style="stop-color:#4C9EC5"/>
		</linearGradient>
		<path style="fill-rule:evenodd;clip-rule:evenodd;fill:url(#SVGID_3_);" d="M27.41,51.82c-3.37-6.92-7.3-16.05-5.96-23.74
			c1.18-6.79,6.41-12.27,13.95-11.11c5.78,0.89,7.08,5.78,0.61,7.77c-1.23,0.38-6.19,1.25-6.91,2.41c0.64,2.13,8.56,6.15,9.1,8.14
			c0.82,3-7.79,1.6-9.39,1.43c1.47-0.08,6.54-0.29,7.85-1.03c-3.1-2.35-10.3-4.15-10.95-8c-0.86-5.11,8.81-5.38,10.95-6.83
			c-0.5-0.32-1.31-0.52-1.8-0.59c-6.15-0.95-9.57,4.08-10.19,9.35C23.79,37.14,25.29,44.61,27.41,51.82L27.41,51.82z M36.79,35.6
			c0.02-0.01,0.03-0.02,0.05-0.04l-0.01-0.01C36.82,35.56,36.8,35.58,36.79,35.6L36.79,35.6z"/>
	</g>
	<g>
		<g>
			<g>
				<path class="st48" d="M34.49,42.35v1.83H33.1v-5.02h1.69c1.4,0,2.1,0.49,2.1,1.48c0,0.58-0.29,1.03-0.87,1.35l1.5,2.19h-1.58
					l-1.09-1.83H34.49z M34.49,41.33h0.26c0.49,0,0.73-0.21,0.73-0.63c0-0.34-0.24-0.52-0.72-0.52h-0.28V41.33z"/>
				<path class="st48" d="M41.05,44.18h-3.06v-5.02h3.06v1.09h-1.67v0.79h1.55v1.09h-1.55v0.95h1.67V44.18z"/>
				<path class="st48" d="M44.85,39.16h1.56l-1.69,5.02h-1.64l-1.68-5.02h1.57l0.7,2.54c0.15,0.57,0.23,0.96,0.24,1.18
					c0.02-0.16,0.05-0.36,0.1-0.6c0.05-0.24,0.09-0.43,0.13-0.57L44.85,39.16z"/>
				<path class="st48" d="M46.97,44.18v-5.02h1.4v5.02H46.97z"/>
				<path class="st48" d="M51.33,41.02l0.89-1.86h1.51l-1.7,3.06v1.96h-1.4v-1.92l-1.7-3.1h1.52L51.33,41.02z"/>
				<path class="st48" d="M57.45,44.18l-0.25-0.94h-1.68l-0.26,0.94h-1.53l1.68-5.04h1.86l1.7,5.04H57.45z M56.91,42.12l-0.22-0.83
					c-0.05-0.18-0.11-0.42-0.19-0.71c-0.07-0.29-0.12-0.5-0.15-0.63c-0.02,0.12-0.06,0.31-0.12,0.58c-0.06,0.27-0.2,0.8-0.42,1.59
					H56.91z"/>
			</g>
		</g>
		<g>
			<g>
				<path class="st49" d="M35.8,47.26h0.84c0.39,0,0.68,0.06,0.85,0.17c0.17,0.11,0.26,0.29,0.26,0.54c0,0.17-0.05,0.31-0.15,0.42
					c-0.1,0.11-0.24,0.18-0.43,0.21v0.02c0.45,0.07,0.67,0.3,0.67,0.69c0,0.26-0.09,0.46-0.27,0.6c-0.18,0.14-0.43,0.22-0.75,0.22
					H35.8V47.26z M36.14,48.49h0.57c0.24,0,0.42-0.04,0.52-0.11c0.11-0.07,0.16-0.2,0.16-0.37c0-0.16-0.06-0.28-0.18-0.35
					c-0.12-0.07-0.31-0.11-0.57-0.11h-0.51V48.49z M36.14,48.78v1.08h0.62c0.24,0,0.42-0.04,0.54-0.13
					c0.12-0.09,0.18-0.23,0.18-0.42c0-0.18-0.06-0.31-0.18-0.39c-0.12-0.09-0.31-0.13-0.56-0.13H36.14z"/>
				<path class="st49" d="M41.13,50.14h-1.65v-2.88h1.65v0.3h-1.3v0.93h1.23v0.3h-1.23v1.06h1.3V50.14z"/>
				<path class="st49" d="M44.63,50.14l-0.37-0.91h-1.18l-0.36,0.91h-0.35l1.17-2.89h0.29l1.16,2.89H44.63z M44.16,48.92l-0.34-0.89
					c-0.04-0.11-0.09-0.25-0.14-0.41c-0.03,0.13-0.07,0.26-0.13,0.41l-0.35,0.89H44.16z"/>
				<path class="st49" d="M48.62,47.26v1.86c0,0.33-0.1,0.59-0.31,0.77c-0.2,0.19-0.48,0.28-0.84,0.28c-0.36,0-0.63-0.1-0.83-0.29
					c-0.2-0.19-0.29-0.45-0.29-0.78v-1.86h0.34v1.88c0,0.24,0.07,0.43,0.2,0.55c0.14,0.13,0.33,0.19,0.59,0.19
					c0.25,0,0.44-0.07,0.58-0.19c0.13-0.13,0.2-0.31,0.2-0.56v-1.87H48.62z"/>
				<path class="st49" d="M51.31,50.14h-0.34v-2.58h-0.94v-0.3h2.22v0.3h-0.94V50.14z"/>
				<path class="st49" d="M54.44,48.7l0.79-1.44h0.37l-0.99,1.76v1.12h-0.35v-1.1l-0.99-1.78h0.38L54.44,48.7z"/>
			</g>
		</g>
	</g>
</g>
</svg>
