<?xml version="1.0" encoding="utf-8"?>
<!-- Generator: Adobe Illustrator 25.0.1, SVG Export Plug-In . SVG Version: 6.00 Build 0)  -->
<svg version="1.0" id="Layer_1" xmlns="http://www.w3.org/2000/svg" xmlns:xlink="http://www.w3.org/1999/xlink" x="0px" y="0px"
	 viewBox="0 0 66.36 41.11" style="enable-background:new 0 0 66.36 41.11;" xml:space="preserve">
<style type="text/css">
	.st0{fill:#000104;}
	.st1{fill:#FFFFFF;}
	.st2{fill:#EF493E;}
	.st3{opacity:0.6;fill-rule:evenodd;clip-rule:evenodd;fill:#FBBE43;}
	.st4{opacity:0.6;fill-rule:evenodd;clip-rule:evenodd;fill:#EF930E;}
	.st5{opacity:0.6;fill-rule:evenodd;clip-rule:evenodd;fill:#E67906;}
	.st6{fill:#9F8829;}
	.st7{fill:#3972A6;}
	.st8{fill:url(#SVGID_1_);stroke:#2B53A4;stroke-width:0.5;stroke-miterlimit:10;}
	.st9{fill:none;}
	.st10{fill:url(#SVGID_2_);}
	.st11{fill:url(#SVGID_3_);}
	.st12{fill:#B3B3B3;}
	.st13{fill:url(#SVGID_4_);}
	.st14{fill:url(#SVGID_5_);}
	.st15{fill:url(#SVGID_6_);}
	.st16{fill:#FFFFFF;stroke:#FFFFFF;stroke-width:0.25;stroke-miterlimit:10;}
	.st17{fill:#00001D;}
	.st18{fill:#4DA0C5;}
	.st19{fill:url(#SVGID_7_);}
	.st20{fill:#2E6A85;}
	.st21{fill:none;stroke:#144FA1;stroke-width:0.113;stroke-linejoin:round;stroke-miterlimit:10;}
	.st22{fill:#F27337;}
	.st23{fill:#8EB8D4;}
	.st24{fill:#F38056;}
	.st25{fill:#626365;}
	.st26{fill:#EF6D23;}
	.st27{fill:#284B82;}
	.st28{fill:#242956;}
	.st29{fill:#15142A;}
	.st30{fill:#84C343;}
	.st31{fill:#4CA1C6;}
	.st32{fill:#121617;}
	.st33{fill:#CF8966;}
	.st34{fill:#F37639;}
	.st35{opacity:0.3;fill:url(#SVGID_8_);}
	.st36{fill:#373277;}
	.st37{fill:#E61E25;}
	.st38{fill:#2555A5;}
	.st39{fill:#2E225E;}
	.st40{fill:#F8A425;}
	.st41{fill:#2058A7;}
	.st42{fill:none;stroke:#205AA8;stroke-width:0.156;stroke-miterlimit:10;}
	.st43{fill:#49A3C7;}
	.st44{fill-rule:evenodd;clip-rule:evenodd;}
	.st45{fill-rule:evenodd;clip-rule:evenodd;fill:url(#SVGID_9_);}
	.st46{fill-rule:evenodd;clip-rule:evenodd;fill:url(#SVGID_10_);}
	.st47{fill-rule:evenodd;clip-rule:evenodd;fill:url(#SVGID_11_);}
	.st48{fill:#1D2251;}
	.st49{fill:#2260AC;}
	.st50{fill:url(#SVGID_12_);}
	.st51{fill:#FFFFFC;}
	.st52{fill:#4C9FC5;}
	.st53{fill:#28306D;}
	.st54{fill:#4C9EC5;}
	.st55{fill:#28306E;}
	.st56{fill:#29306F;}
	.st57{fill:#F7F7FB;}
	.st58{fill:url(#SVGID_13_);}
	.st59{fill:url(#SVGID_14_);}
	.st60{fill:url(#SVGID_15_);}
	.st61{fill:url(#SVGID_16_);}
	.st62{fill:#10123C;}
	.st63{fill:#F5842C;}
	.st64{fill:#1F305E;}
	.st65{fill:#87BBD1;}
	.st66{fill:#203160;}
	.st67{fill:#235779;}
	.st68{fill:#359FA1;}
	.st69{fill:#A4D1A4;}
	.st70{fill:#B9DBBC;}
	.st71{fill:#C6DDCA;}
	.st72{fill:#662E14;}
	.st73{fill:#1D79A4;}
	.st74{fill:#C14B28;}
	.st75{fill:url(#SVGID_17_);}
	.st76{fill:url(#SVGID_18_);}
	.st77{fill:url(#SVGID_19_);}
	.st78{fill:url(#SVGID_20_);}
	.st79{fill:url(#SVGID_21_);}
	.st80{fill:url(#SVGID_22_);}
	.st81{fill:url(#SVGID_23_);}
	.st82{fill:url(#SVGID_24_);}
	.st83{fill:url(#SVGID_25_);}
	.st84{fill:url(#SVGID_26_);}
	.st85{fill:url(#SVGID_27_);}
	.st86{fill:url(#SVGID_28_);}
	.st87{fill:url(#SVGID_29_);}
	.st88{fill:url(#SVGID_30_);}
	.st89{fill:#1F164B;}
	.st90{clip-path:url(#SVGID_32_);fill:#253D97;}
	.st91{fill:url(#SVGID_33_);}
	.st92{fill:url(#SVGID_34_);}
	.st93{fill:url(#SVGID_35_);}
	.st94{fill:url(#SVGID_36_);}
	.st95{fill:url(#SVGID_37_);}
	.st96{fill:url(#SVGID_38_);}
	.st97{fill:url(#SVGID_39_);}
	.st98{fill:url(#SVGID_40_);}
	.st99{fill:url(#SVGID_41_);}
	.st100{fill:#443F41;}
	.st101{fill:#28306F;}
	.st102{fill:#71C49D;}
	.st103{fill:#F0C6A7;}
	.st104{fill:#DB8D82;}
	.st105{fill:#EFB7AC;}
	.st106{opacity:0.21;}
	.st107{fill-rule:evenodd;clip-rule:evenodd;fill:#A9196E;}
	.st108{fill-rule:evenodd;clip-rule:evenodd;fill:#FBE42C;}
	.st109{fill:#FBE42C;}
	.st110{fill:#A9196E;}
	.st111{fill:#7FC143;}
	.st112{clip-path:url(#SVGID_45_);fill:#7FC143;}
	.st113{clip-path:url(#SVGID_51_);fill:#7FC143;}
	.st114{fill:#243F8F;}
	.st115{fill:#EF4E2F;}
	.st116{fill:#010007;}
	.st117{fill:#0C0D37;}
	.st118{fill:#FBAF2D;}
	.st119{fill:url(#SVGID_54_);}
	.st120{fill-rule:evenodd;clip-rule:evenodd;fill:#FFFFFF;}
	.st121{fill:#1D4690;}
	.st122{fill:#3AA949;}
	.st123{fill:#F37A24;}
	.st124{fill:none;stroke:#F37A24;stroke-width:3.7145;stroke-miterlimit:10;}
	.st125{fill:#3AA949;stroke:#FFFFFF;stroke-width:1.3104;stroke-miterlimit:10;}
	.st126{fill:#46A2BB;}
	.st127{fill:#7153A0;}
	.st128{fill:#27316C;}
	.st129{fill:#2C65AE;}
	.st130{fill:#452D7A;}
	.st131{fill:#442C7A;}
	.st132{fill:#1A2642;}
	.st133{fill-rule:evenodd;clip-rule:evenodd;fill:#567EB8;}
	.st134{fill-rule:evenodd;clip-rule:evenodd;fill:#6A7EB8;}
	.st135{fill-rule:evenodd;clip-rule:evenodd;fill:#6A7EB9;}
	.st136{fill-rule:evenodd;clip-rule:evenodd;fill:#EE3C2D;}
	.st137{fill-rule:evenodd;clip-rule:evenodd;fill:#EF493F;}
	.st138{fill-rule:evenodd;clip-rule:evenodd;fill:#ED2C24;}
	.st139{fill-rule:evenodd;clip-rule:evenodd;fill:#E9AE28;}
	.st140{fill-rule:evenodd;clip-rule:evenodd;fill:#D69B28;}
	.st141{fill-rule:evenodd;clip-rule:evenodd;fill:#FCB729;}
	.st142{fill-rule:evenodd;clip-rule:evenodd;fill:#409E47;}
	.st143{fill-rule:evenodd;clip-rule:evenodd;fill:#4BB450;}
	.st144{fill-rule:evenodd;clip-rule:evenodd;fill:#338440;}
	.st145{fill:#C09C36;}
	.st146{fill:#1E552A;}
	.st147{clip-path:url(#SVGID_56_);fill:url(#SVGID_57_);}
	.st148{fill:#023A1E;}
	.st149{fill:#FFFFFA;}
	.st150{fill:#0D4F28;}
	.st151{fill:#0E5128;}
	.st152{fill:#0D4E27;}
	.st153{fill:#0E5229;}
	.st154{fill:#0E4823;}
	.st155{fill:#0E4C27;}
	.st156{fill:#F3F6E0;}
	.st157{fill:#0E4F28;}
	.st158{fill:#114823;}
	.st159{fill:#105229;}
	.st160{fill:#0A4A2B;}
	.st161{fill:#134F27;}
	.st162{fill:#165229;}
	.st163{fill:#0D5029;}
	.st164{fill:#0B4E2B;}
	.st165{fill:#105028;}
	.st166{fill:#0A492A;}
	.st167{fill:#E9F3E2;}
	.st168{fill:#144D26;}
	.st169{fill:#185C2F;}
	.st170{fill:#0F5028;}
	.st171{fill:#F3F8EA;}
	.st172{fill:#114D26;}
	.st173{fill:#70A685;}
	.st174{fill:#0D4F2A;}
	.st175{fill:#094A24;}
	.st176{fill:#0F4F27;}
	.st177{fill:#0A4C26;}
	.st178{fill:#A2D29A;}
	.st179{fill:#4D7E44;}
	.st180{fill:#E8F2E1;}
	.st181{fill:#EDF5E5;}
	.st182{fill:#E6F2E7;}
	.st183{fill:#E5F1DC;}
	.st184{fill:#E9F3E3;}
	.st185{fill:#E9F3E5;}
	.st186{fill:#E5F1DB;}
	.st187{fill:#D8ECD7;}
	.st188{fill:#D9EBD4;}
	.st189{fill:#E2F0DE;}
	.st190{fill:#366B4B;}
	.st191{fill:#5D6162;}
	.st192{fill:#212E5F;}
	.st193{fill:#DD1F26;}
	.st194{clip-path:url(#SVGID_59_);}
	.st195{fill:#23396F;}
	.st196{fill:#7FC24E;}
	.st197{clip-path:url(#SVGID_59_);fill:#23396F;}
	.st198{clip-path:url(#SVGID_59_);fill:#7FC24E;}
	.st199{fill:#91CEA4;}
	.st200{fill:#90CEA4;}
	.st201{fill:#C02026;}
	.st202{fill:#362E7E;}
</style>
<g>
	<g>
		<path class="st51" d="M24.3,24.3c0.02,0.02,0.02,0.05,0.02,0.07c0,0.11,0,0.22,0,0.34c-0.03-0.02-0.02-0.05-0.02-0.08
			C24.3,24.52,24.3,24.41,24.3,24.3z"/>
		<polygon class="st52" points="11.01,28.07 11.02,28.07 11.02,28.07 		"/>
		<path class="st51" d="M10.7,29.02c0,0.22,0,0.45,0,0.67c0,0.02,0,0.05,0.02,0.07c-0.02-0.27-0.02-0.53,0-0.8
			C10.7,28.97,10.7,29,10.7,29.02z"/>
		<path class="st53" d="M33.01,23.73c-0.01,0-0.02-0.01-0.03-0.02c-0.03-0.02-0.03-0.04-0.01-0.06c0.01-0.01,0.02-0.02,0.03-0.02
			c0.13-0.06,0.21-0.17,0.26-0.3c0.03-0.07,0.05-0.15,0.04-0.23c-0.02-0.14-0.07-0.27-0.18-0.38c-0.13-0.14-0.3-0.2-0.47-0.22
			c-0.14-0.01-0.29-0.03-0.43-0.03c-0.37,0-0.74,0-1.11,0c-0.03,0-0.06-0.01-0.09,0.02c0,0.04,0,0.09,0,0.13c0,0.75,0,1.5,0,2.25
			c0,0.05,0.01,0.1-0.01,0.14c0.01,0.04,0.04,0.02,0.06,0.02c0.51,0,1.03,0,1.54,0c0.02,0,0.03,0,0.05-0.01
			c0.1,0.02,0.17-0.04,0.26-0.06c0.09-0.02,0.18-0.05,0.25-0.13c0.05-0.03,0.1-0.08,0.13-0.13c0.04-0.09,0.09-0.19,0.13-0.29
			c0.01-0.1,0.03-0.19-0.01-0.29C33.35,23.95,33.22,23.8,33.01,23.73z"/>
		<path class="st53" d="M38.35,22.9c-0.19-0.22-0.43-0.35-0.71-0.42c-0.06-0.01-0.12-0.02-0.17-0.04c-0.16-0.02-0.32-0.02-0.48,0
			c-0.04,0.01-0.07,0.02-0.11,0.03c-0.26,0.03-0.48,0.13-0.67,0.31c-0.13,0.12-0.23,0.26-0.29,0.43c-0.04,0.13-0.08,0.25-0.08,0.39
			c-0.02,0.11-0.02,0.23,0,0.34c0.02,0.07,0.01,0.15,0.03,0.23c0.04,0.16,0.11,0.31,0.21,0.44c0.14,0.17,0.3,0.31,0.51,0.38
			c0.29,0.09,0.29,0.11,0.47,0.11c0.12,0.02,0.24,0.02,0.36,0c0.09,0.01,0.16-0.03,0.24-0.05c0.19-0.05,0.37-0.12,0.53-0.25
			c0.08-0.07,0.16-0.14,0.22-0.23c0.16-0.24,0.22-0.51,0.23-0.79c0-0.1-0.02-0.19-0.03-0.28C38.58,23.27,38.5,23.07,38.35,22.9z"/>
		<path class="st53" d="M46.57,24.62c-0.45,0-0.9,0-1.36,0c-0.05,0-0.09,0.01-0.14-0.01l0,0c-0.03-0.17-0.01-0.35-0.01-0.52
			c0-0.15,0-0.15,0.14-0.15c0.4,0,0.8,0,1.2,0c0.04,0,0.11,0.02,0.11-0.04c0-0.14,0.03-0.28-0.02-0.42c-0.02,0-0.03,0.01-0.05,0.01
			c-0.43,0-0.86,0-1.29,0c-0.02,0-0.05,0-0.07-0.01c-0.03-0.15,0-0.3-0.01-0.44c-0.01-0.08,0.03-0.09,0.1-0.09c0.14,0,0.27,0,0.41,0
			c0.31,0,0.63,0,0.94,0c0.04,0,0.11,0.02,0.11-0.05c0-0.13,0.02-0.27-0.01-0.4c-0.51,0-1.02,0-1.53,0c-0.18,0-0.36,0-0.54,0
			c-0.06,0-0.06,0-0.07,0.07c0,0.03,0,0.06,0,0.09c0,0.75,0,1.5,0,2.25c0,0.05,0,0.1,0,0.14c0.01,0.03,0.04,0.02,0.07,0.02
			c0.69,0,1.38,0,2.07,0c0.03,0,0.06,0.02,0.08-0.03c-0.01-0.13-0.01-0.26,0-0.39C46.65,24.59,46.61,24.62,46.57,24.62z"/>
		<polygon class="st53" points="42.83,25.04 42.83,25.04 42.83,25.04 		"/>
		<path class="st53" d="M43.41,22.48c-0.16,0-0.32,0-0.48,0c-0.04,0-0.08-0.01-0.11,0.02c-0.02,0.04-0.01,0.09-0.01,0.13
			c0,0.25,0,0.5,0,0.75c0,0.08-0.02,0.12-0.11,0.11c-0.18-0.01-0.37,0-0.55,0c-0.15,0-0.3,0.02-0.46-0.01
			c-0.02-0.04-0.01-0.09-0.01-0.13c0-0.26,0-0.52,0-0.77c0-0.08-0.01-0.09-0.09-0.09c-0.16,0-0.32,0-0.48,0
			c-0.03,0.04-0.02,0.09-0.02,0.14c0,0.71,0,1.43,0,2.14c0,0.3,0,0.3,0.29,0.3c0.1,0,0.21,0.03,0.31-0.02
			c0-0.02-0.01-0.03-0.01-0.05c0-0.32,0-0.64,0-0.96c0-0.03,0-0.05,0.01-0.08c0.01,0,0.02-0.01,0.02-0.01c0.34,0,0.67,0,1.01,0
			c0.08,0,0.08,0.04,0.08,0.1c0,0.26,0,0.52,0,0.79c0,0.08-0.02,0.15,0.02,0.23c0.15,0.04,0.31,0,0.46,0.02
			c0.11,0.01,0.13-0.03,0.13-0.14c0-0.77,0-1.55,0-2.32C43.43,22.56,43.44,22.52,43.41,22.48z"/>
		<path class="st53" d="M58.8,22.48c-0.16,0-0.32,0-0.48,0c-0.09,0-0.09,0-0.09,0.09c0,0.26,0,0.51,0,0.77
			c0,0.04,0.01,0.09-0.01,0.13c-0.14,0.03-0.29,0.01-0.43,0.01c-0.23,0-0.46,0.02-0.68-0.01c-0.02-0.04-0.01-0.09-0.01-0.13
			c0-0.26,0-0.52,0-0.77c0-0.08-0.01-0.09-0.09-0.09c-0.16,0-0.32,0-0.48,0c-0.03,0.04-0.02,0.09-0.02,0.14c0,0.73,0,1.46,0,2.19
			c0,0.25,0,0.25,0.24,0.24c0.12,0,0.24,0.03,0.36-0.02c0-0.02-0.01-0.03-0.01-0.05c0-0.32,0-0.64,0-0.96c0-0.03,0-0.05,0.01-0.08
			c0.23-0.03,0.46-0.01,0.7-0.01c0.14,0,0.28-0.02,0.42,0.01c0,0.01,0.01,0.02,0.01,0.04c0,0.35,0,0.7,0,1.06
			c0.15,0.05,0.31,0,0.47,0.02c0.1,0.01,0.14-0.02,0.13-0.14c0-0.77,0-1.55,0-2.32C58.82,22.56,58.84,22.52,58.8,22.48z"/>
		<path class="st53" d="M50.18,24.97c-0.09-0.21-0.19-0.41-0.28-0.62c-0.14-0.3-0.28-0.61-0.41-0.91c-0.06-0.14-0.12-0.28-0.19-0.42
			c-0.07-0.15-0.14-0.3-0.21-0.46c-0.02-0.05-0.04-0.07-0.09-0.07c-0.17,0-0.34,0-0.51,0c-0.04,0-0.06,0.01-0.08,0.06
			c-0.08,0.19-0.16,0.37-0.24,0.55c-0.1,0.23-0.2,0.45-0.3,0.68c-0.09,0.22-0.19,0.43-0.28,0.65c-0.09,0.2-0.18,0.4-0.26,0.6
			c0,0.04,0.03,0.04,0.05,0.04c0.17,0,0.34,0,0.52,0c0.03,0,0.06-0.01,0.07-0.04c0.05-0.17,0.12-0.34,0.2-0.5
			c0.03-0.04,0.06-0.04,0.1-0.04c0.33,0,0.65,0,0.98,0c0.04,0,0.08,0,0.1,0.04c0.08,0.18,0.15,0.35,0.23,0.53
			c0.19,0.02,0.39,0.01,0.58,0.01c0.04,0,0.09,0.01,0.05-0.06C50.19,24.99,50.18,24.98,50.18,24.97z"/>
		<path class="st53" d="M55.52,22.48c-0.67,0-1.33,0-2,0c-0.03,0-0.06,0-0.09,0c-0.05,0-0.06,0.02-0.06,0.06c0,0.12,0,0.24,0,0.37
			c0.03,0.05,0.08,0.02,0.12,0.02c0.21,0,0.42,0.01,0.62,0c0.09,0,0.11,0.03,0.11,0.12c0,0.62,0,1.24,0,1.86c0,0.03,0,0.06,0,0.09
			c0,0.04,0.02,0.06,0.05,0.06c0.18-0.01,0.36,0.02,0.54-0.02c0.03-0.04,0.01-0.09,0.01-0.14c0-0.61,0-1.23,0-1.84
			c0-0.11,0.03-0.13,0.13-0.13c0.21,0.01,0.42,0,0.62,0c0.04,0,0.09,0.01,0.09-0.06c-0.01-0.13,0.02-0.27-0.02-0.4
			C55.62,22.48,55.57,22.48,55.52,22.48z"/>
		<polygon class="st53" points="54.83,25.04 54.82,25.04 54.82,25.05 		"/>
		<path class="st53" d="M52.91,24.61c-0.35,0-0.7,0-1.06,0c-0.09,0-0.18,0.02-0.26-0.01c-0.03-0.04-0.02-0.09-0.02-0.14
			c0-0.6,0-1.19,0-1.79c0-0.03,0-0.06,0-0.09c0-0.06-0.01-0.07-0.08-0.07c-0.17,0-0.33,0-0.5,0c-0.02,0.03-0.01,0.06-0.01,0.09
			c0,0.78,0,1.57,0,2.35c0,0.1,0.03,0.11,0.12,0.11c0.54,0,1.07,0,1.61,0c0.1,0,0.23,0.04,0.3-0.02c0.07-0.07,0.01-0.21,0.03-0.31
			C53.04,24.63,53,24.61,52.91,24.61z"/>
		<path class="st53" d="M34.94,22.48c-0.17,0-0.34,0-0.51,0c-0.06,0-0.06,0-0.07,0.07c0,0.03,0,0.06,0,0.09c0,0.75,0,1.5,0,2.25
			c0,0.05,0,0.1,0,0.14c0.16,0.05,0.32,0,0.47,0.02c0.11,0.01,0.13-0.03,0.12-0.13c0-0.78,0-1.56,0-2.34
			C34.95,22.56,34.97,22.51,34.94,22.48z"/>
		<path class="st51" d="M51,22.51c0,0.04-0.01,0.09-0.01,0.13c0,0.76,0,1.52,0,2.28v0.01c0,0.13-0.01,0.12,0.12,0.12
			c0.6,0,1.2,0,1.8,0c0.02,0,0.03,0,0.05,0c0.06,0,0.06,0,0.06-0.07c0-0.1,0-0.19,0-0.29c0-0.07,0-0.07-0.07-0.08
			c-0.03,0-0.06,0-0.09,0c-0.38,0-0.77,0-1.15,0c-0.04,0-0.08,0.02-0.12-0.01c0.43,0,0.87,0,1.3,0c0.03,0,0.06,0,0.09,0
			c0.03,0,0.06,0.01,0.06,0.05c0,0.12,0,0.24,0,0.37c0,0.04-0.02,0.05-0.06,0.05c-0.03,0-0.05,0-0.08,0c-0.6,0-1.2,0-1.8,0
			c-0.14,0-0.14,0.01-0.14-0.13c0-0.77,0-1.54,0-2.31C50.97,22.58,50.95,22.54,51,22.51z"/>
		<path class="st51" d="M53.37,22.91c0.11,0.02,0.21,0.01,0.32,0.01c0.16,0,0.32,0,0.48,0c0.04,0,0.06,0.01,0.06,0.06
			c0,0.03,0,0.06,0,0.09c0,0.61,0,1.21,0,1.82c0,0.03,0,0.07,0,0.1c0,0.04,0.02,0.05,0.05,0.05c0.18,0,0.36,0.01,0.53-0.01
			c-0.01,0.03-0.04,0.03-0.06,0.03c-0.16,0-0.31,0-0.47,0c-0.07,0-0.07-0.01-0.08-0.08c0-0.03,0-0.06,0-0.09c0-0.59,0-1.18,0-1.77
			c0-0.02,0-0.04,0-0.07c0-0.12,0-0.12-0.12-0.12c-0.21,0-0.42,0-0.62,0C53.44,22.95,53.39,22.97,53.37,22.91z"/>
		<path class="st51" d="M54.82,25.05c0-0.65,0-1.3,0-1.95c0-0.03,0-0.05,0-0.08c0-0.09,0-0.09,0.09-0.09c0.23,0,0.45,0,0.68,0
			c0.08,0,0.08,0,0.08-0.09c0-0.12,0.01-0.24-0.01-0.35c0.02,0.01,0.03,0.02,0.03,0.04c0,0.12,0,0.24,0,0.37
			c0,0.06-0.01,0.06-0.07,0.06c-0.2,0-0.41,0-0.61,0c-0.03,0-0.07,0-0.1,0c-0.04,0-0.05,0.02-0.06,0.06c0,0.03,0,0.07,0,0.1
			c0,0.6,0,1.2,0,1.8C54.85,24.96,54.87,25.01,54.82,25.05z"/>
		<path class="st51" d="M34.36,25.04c0.1,0.03,0.19,0.01,0.29,0.01c0.08,0,0.16,0,0.24,0c0.05,0,0.06-0.02,0.06-0.06
			c0-0.02,0-0.04,0-0.07c0-0.77,0-1.54,0-2.31c0-0.04,0-0.09-0.01-0.13c0.02,0.01,0.03,0.02,0.03,0.04c0,0.03,0,0.07,0,0.1
			c0,0.76,0,1.52,0,2.29c0,0.01,0,0.02,0,0.03c0,0.14,0.01,0.14-0.13,0.14c-0.14,0-0.27,0-0.41,0
			C34.4,25.07,34.37,25.08,34.36,25.04z"/>
		<path class="st51" d="M56.51,22.48c-0.01,0.04-0.01,0.09-0.01,0.13c0,0.77,0,1.54,0,2.31c0,0.03,0,0.05,0,0.08
			c0,0.03,0.01,0.05,0.04,0.05c0.18-0.01,0.36,0.02,0.55-0.01c-0.01,0.03-0.03,0.04-0.06,0.04c-0.16,0-0.32,0-0.48,0
			c-0.06,0-0.06-0.01-0.07-0.07c0-0.03,0-0.05,0-0.08c0-0.77,0-1.54,0-2.31C56.49,22.57,56.46,22.51,56.51,22.48z"/>
		<path class="st51" d="M58.22,25.04c0.18,0.02,0.36,0.01,0.55,0.01c0.03,0,0.04-0.02,0.04-0.05c0-0.03,0-0.05,0-0.08
			c0-0.77,0-1.54,0-2.31c0-0.04-0.01-0.09-0.01-0.13c0.02,0.01,0.03,0.02,0.03,0.04c0,0.03,0,0.07,0,0.1c0,0.77,0,1.53,0,2.3
			c0,0.16,0.01,0.15-0.14,0.15c-0.13,0-0.26,0-0.39,0C58.27,25.07,58.24,25.08,58.22,25.04z"/>
		<path class="st51" d="M42.83,25.04c0.18,0.02,0.36,0,0.53,0.01c0.05,0,0.06-0.02,0.06-0.06c0-0.02,0-0.04,0-0.07
			c0-0.77,0-1.54,0-2.31c0-0.04-0.01-0.09-0.01-0.13c0.02,0.01,0.03,0.02,0.03,0.04c0,0.03,0,0.07,0,0.1c0,0.77,0,1.53,0,2.3
			c0,0.16,0.01,0.15-0.15,0.15c-0.13,0-0.25,0-0.38,0C42.88,25.07,42.84,25.08,42.83,25.04z"/>
		<path class="st51" d="M41.12,22.48c-0.02,0.04-0.01,0.09-0.01,0.13c0,0.77,0,1.54,0,2.31c0,0.03,0,0.06,0,0.09
			c0,0.02,0.01,0.03,0.03,0.03c0.02,0,0.03,0,0.05,0c0.14,0,0.28,0,0.42,0c0.03,0,0.06,0,0.09-0.02c-0.01,0.03-0.03,0.04-0.06,0.04
			c-0.16,0-0.32,0-0.48,0c-0.06,0-0.06-0.01-0.07-0.07c0-0.03,0-0.05,0-0.08c0-0.77,0-1.54,0-2.31
			C41.09,22.57,41.07,22.51,41.12,22.48z"/>
		<path class="st51" d="M45.07,24.6c-0.02-0.01-0.02-0.04-0.02-0.06c0-0.18,0-0.36,0-0.54c0-0.08,0-0.09,0.09-0.09
			c0.4,0,0.8,0,1.2,0c0.05,0,0.12,0.03,0.16-0.02c0.03-0.04,0.01-0.1,0.01-0.15c0-0.09,0.02-0.18-0.01-0.27
			c0.03,0.01,0.04,0.03,0.04,0.06c0,0.11,0,0.23,0,0.34c0,0.06-0.01,0.07-0.07,0.07c-0.06,0-0.12,0-0.18,0c-0.35,0-0.71,0-1.06,0
			c-0.03,0-0.06,0-0.09,0c-0.04,0-0.06,0.02-0.06,0.06c0,0.07,0,0.15,0,0.22C45.07,24.36,45.07,24.48,45.07,24.6z"/>
		<path class="st51" d="M45.07,23.47c-0.01-0.01-0.02-0.02-0.02-0.03c0-0.15,0-0.31,0-0.46c0-0.04,0.02-0.06,0.06-0.06
			c0.03,0,0.06,0,0.09,0c0.42,0,0.84,0,1.26,0c0.03,0,0.06,0,0.09,0c0.03,0,0.06-0.01,0.06-0.05c0-0.13,0.01-0.26-0.01-0.39
			c0.02,0.01,0.03,0.02,0.03,0.04c0,0.12,0,0.24,0,0.37c0,0.04-0.02,0.07-0.06,0.06c-0.03,0-0.07,0-0.1,0c-0.42,0-0.83,0-1.24,0
			c-0.03,0-0.06,0-0.09,0c-0.04,0-0.06,0.02-0.06,0.06c0,0.11,0,0.22,0,0.33C45.07,23.38,45.07,23.43,45.07,23.47z"/>
		<path class="st51" d="M44.46,25.04c0.04,0.02,0.08,0.01,0.13,0.01c0.66,0,1.31,0,1.97,0c0.04,0,0.09,0.01,0.12-0.02
			c0,0.02-0.01,0.03-0.03,0.04c-0.02,0-0.03,0-0.05,0c-0.69,0-1.37,0-2.06,0C44.51,25.07,44.48,25.08,44.46,25.04z"/>
		<path class="st51" d="M41.71,23.95c0.01-0.02,0.02-0.02,0.04-0.02c0.34,0,0.67,0,1.01,0c0.07,0,0.08,0,0.08,0.08
			c0,0.34,0,0.69,0,1.03c-0.05-0.02-0.03-0.07-0.03-0.1c0-0.28,0-0.56,0-0.84c0-0.17,0.01-0.16-0.15-0.16
			C42.34,23.95,42.02,23.95,41.71,23.95z"/>
		<path class="st51" d="M42.83,22.5c0,0.31,0,0.62,0,0.92c0,0.06-0.01,0.07-0.07,0.07c-0.34,0-0.68,0-1.02,0
			c-0.02,0-0.03,0-0.04-0.02c0.31,0,0.63,0,0.94,0c0.03,0,0.07,0,0.1,0c0.03,0,0.05-0.02,0.05-0.05c0-0.03,0-0.06,0-0.09
			c0-0.24,0-0.48,0-0.72C42.8,22.58,42.79,22.53,42.83,22.5z"/>
		<path class="st51" d="M31.01,25.03c0.04,0.02,0.09,0.02,0.14,0.02c0.49,0,0.97,0,1.46-0.01c0.02,0,0.04,0,0.06,0
			c-0.02,0.03-0.05,0.03-0.08,0.03c-0.5,0-1,0-1.5,0C31.06,25.07,31.02,25.08,31.01,25.03z"/>
		<path class="st51" d="M46.68,24.64c-0.04-0.04-0.09-0.02-0.13-0.02c-0.45,0-0.9,0-1.35,0c-0.04,0-0.08,0.02-0.12-0.01
			c0.49,0,0.97,0,1.46,0c0.03,0,0.07,0,0.1,0C46.66,24.6,46.68,24.62,46.68,24.64z"/>
		<path class="st51" d="M48.16,24.52c0.01-0.03,0.02-0.05,0.05-0.05c0.03,0,0.06,0,0.09,0c0.31,0,0.61,0,0.92,0c0.03,0,0.07,0,0.1,0
			c0.03,0,0.03,0.03,0.03,0.05c-0.04-0.02-0.08-0.03-0.12-0.03c-0.31,0-0.62,0-0.94,0C48.24,24.5,48.2,24.51,48.16,24.52z"/>
		<path class="st51" d="M57.1,23.95c0.01-0.02,0.02-0.02,0.04-0.02c0.34,0,0.69,0,1.03,0c0.02,0,0.03,0,0.04,0.02
			C57.84,23.95,57.47,23.95,57.1,23.95z"/>
		<path class="st51" d="M58.22,23.47c-0.01,0.02-0.02,0.02-0.04,0.02c-0.34,0-0.69,0-1.03,0c-0.02,0-0.03,0-0.04-0.02
			C57.47,23.47,57.84,23.47,58.22,23.47z"/>
		<path class="st51" d="M49.57,25.05c0.2,0,0.39,0,0.59,0c0.04,0,0.06-0.01,0.04-0.05c0.02,0.01,0.03,0.01,0.03,0.04
			c0,0.02-0.01,0.03-0.03,0.04c-0.01,0-0.02,0-0.03,0c-0.19,0-0.37,0-0.56,0C49.59,25.07,49.58,25.06,49.57,25.05z"/>
		<path class="st51" d="M47.32,25.02c0.01,0.03,0.04,0.03,0.06,0.03c0.17,0,0.33,0,0.5,0c0.03,0,0.06-0.01,0.08-0.03
			c0,0.05-0.03,0.06-0.07,0.05c-0.11,0-0.23,0-0.34,0c-0.07,0-0.14,0-0.21,0C47.3,25.07,47.29,25.05,47.32,25.02z"/>
		<path class="st51" d="M25.06,5.36c0.02,0.02,0.02,0.05,0.02,0.07c0,0.14,0,0.29,0,0.43c-0.03-0.02-0.02-0.05-0.02-0.08
			C25.06,5.64,25.06,5.5,25.06,5.36z"/>
		<path class="st51" d="M37.47,22.45c-0.16,0-0.32,0-0.48,0c0.01-0.01,0.02-0.02,0.04-0.02c0.13,0,0.27,0,0.4,0
			C37.44,22.43,37.46,22.44,37.47,22.45z"/>
		<path class="st51" d="M37.06,25.1c0.12,0,0.24,0,0.36,0c-0.01,0.01-0.02,0.02-0.03,0.02c-0.1,0-0.2,0-0.3,0
			C37.08,25.12,37.07,25.11,37.06,25.1z"/>
		<path class="st51" d="M35.83,23.61c0,0.11,0,0.23,0,0.34c-0.02-0.01-0.02-0.03-0.02-0.06c0-0.08,0-0.15,0-0.23
			C35.81,23.64,35.81,23.62,35.83,23.61z"/>
		<path class="st51" d="M33.44,24.44c0-0.1,0.01-0.19-0.01-0.29l0.01,0.01C33.47,24.26,33.48,24.35,33.44,24.44z"/>
		<path class="st51" d="M33.18,24.86c0.04-0.04,0.08-0.09,0.13-0.13C33.3,24.81,33.25,24.85,33.18,24.86z"/>
		<path class="st53" d="M39.58,14.26c0.03,0.03,0.06,0.03,0.08,0.04c0.6,0.22,0.94,0.66,1.03,1.31c0.04,0.27-0.02,0.54-0.13,0.79
			c-0.09,0.2-0.2,0.37-0.35,0.53c-0.3,0.32-0.65,0.58-1.08,0.69c-0.19,0.05-0.39,0.08-0.59,0.09c-0.14,0.01-0.28,0.01-0.42,0.01
			c-0.81-0.02-1.62,0-2.42,0c-0.36,0-0.71,0-1.07-0.01c-0.08,0-0.17-0.01-0.25-0.02c-0.02-0.05-0.01-0.1-0.01-0.14
			c0-2.18,0-4.36,0-6.54c0-0.17-0.02-0.14,0.14-0.15c0.33-0.03,0.65-0.03,0.98-0.03c0.77,0.01,1.55,0.02,2.32,0.01
			c0.23,0,0.45,0,0.68,0.02c0.33,0.04,0.65,0.13,0.94,0.3c0.2,0.12,0.4,0.25,0.57,0.42c0.23,0.22,0.39,0.48,0.44,0.81
			c0.07,0.44-0.03,0.84-0.27,1.2c-0.12,0.18-0.28,0.34-0.44,0.49C39.69,14.14,39.63,14.19,39.58,14.26z"/>
		<path class="st54" d="M53.58,14.53c-0.08-0.13-0.16-0.26-0.23-0.39c-0.34-0.63-0.68-1.26-1.02-1.89
			c-0.48-0.87-0.96-1.73-1.52-2.54c-0.31-0.46-0.64-0.9-1.03-1.3c-0.2-0.2-0.38-0.42-0.58-0.63c-0.12-0.13-0.26-0.25-0.39-0.38
			c-0.13-0.13-0.27-0.25-0.41-0.38c-0.33-0.31-0.67-0.6-1.04-0.86c-0.38-0.27-0.75-0.55-1.13-0.83C46,5.17,45.77,5.02,45.52,4.88
			c-0.54-0.31-1.1-0.59-1.68-0.82c-0.56-0.22-1.12-0.42-1.7-0.58c-0.36-0.1-0.73-0.18-1.09-0.25c-0.2-0.04-0.41-0.06-0.62-0.09
			c-0.22-0.03-0.44-0.05-0.66-0.07c-0.01,0-0.02,0-0.03,0c-0.53-0.03-1.05-0.04-1.58-0.02c-0.25,0.01-0.5,0.03-0.75,0.05
			c-0.79,0.08-1.56,0.22-2.31,0.49c-0.68,0.25-1.31,0.61-1.87,1.07c-0.3,0.25-0.57,0.51-0.82,0.8c-0.18,0.2-0.32,0.43-0.46,0.66
			c-0.28,0.47-0.5,0.96-0.66,1.48c-0.11,0.35-0.18,0.71-0.24,1.07c-0.11,0.66-0.11,1.33-0.1,2c0,0.27,0.03,0.53,0.03,0.8
			c0.02,0.44,0.11,0.86,0.21,1.29c0.14,0.59,0.28,1.19,0.42,1.78c0.14,0.54,0.27,1.07,0.43,1.6c0.01,0.05,0.03,0.09,0.05,0.13
			c0.04,0.08,0.04,0.15,0.02,0.24c-0.04,0.19-0.08,0.37-0.12,0.56c-0.01,0.03-0.01,0.06-0.03,0.08l-0.02-0.02
			c-0.18-0.6-0.39-1.19-0.6-1.78c-0.13-0.36-0.25-0.71-0.37-1.07c-0.18-0.54-0.31-1.09-0.41-1.64c-0.06-0.32-0.11-0.63-0.14-0.95
			c-0.03-0.3-0.06-0.6-0.06-0.9c0-0.14-0.02-0.29-0.02-0.43c0.01-0.3,0.02-0.6,0.04-0.9c0.03-0.4,0.08-0.79,0.16-1.18
			c0.11-0.56,0.27-1.11,0.5-1.63c0.16-0.37,0.35-0.73,0.57-1.07c0.29-0.45,0.64-0.85,1.03-1.21c0.37-0.34,0.77-0.63,1.21-0.87
			c0.39-0.21,0.79-0.39,1.2-0.53c0.42-0.14,0.84-0.24,1.27-0.33c0.33-0.06,0.67-0.11,1.01-0.15c0.14-0.02,0.28-0.02,0.42-0.04
			c0.24-0.03,0.47-0.03,0.71-0.04c0.34-0.02,0.69-0.02,1.03,0.01c0.04,0,0.08,0,0.13,0c0.23,0,0.47,0.03,0.7,0.05
			c0.19,0.02,0.39,0.04,0.58,0.06c0.23,0.03,0.45,0.07,0.68,0.11c0.62,0.11,1.21,0.3,1.8,0.51c0.74,0.26,1.47,0.55,2.16,0.93
			c0.28,0.15,0.55,0.32,0.82,0.49c0.3,0.19,0.59,0.37,0.88,0.58c0.36,0.26,0.71,0.54,1.05,0.83c0.17,0.15,0.35,0.28,0.51,0.44
			c0.02,0.02,0.04,0.03,0.06,0.05c0.26,0.25,0.52,0.51,0.77,0.77c0.3,0.3,0.59,0.62,0.87,0.94c0.62,0.71,1.17,1.48,1.66,2.28
			c0.37,0.61,0.71,1.23,1.05,1.85c0.25,0.46,0.49,0.93,0.72,1.4c0.06,0.12,0.12,0.25,0.18,0.38c0.02,0.03,0.03,0.07,0.06,0.1
			c0.02,0.03-0.01,0.04-0.03,0.05c-0.17,0.08-0.34,0.18-0.5,0.3C53.63,14.54,53.6,14.55,53.58,14.53z"/>
		<path class="st53" d="M48.65,14.28c0,1.09,0,2.18,0,3.27c0,0.16,0.02,0.15-0.14,0.14c-0.34-0.01-0.69-0.01-1.03-0.02
			c-0.03,0-0.05,0-0.08,0c-0.06,0-0.06-0.01-0.06-0.07c0-0.03,0-0.06,0-0.09c0-0.86,0-1.71-0.01-2.57c0-0.15,0.02-0.14-0.14-0.14
			c-1.13,0-2.26,0.01-3.39,0.01c-0.14,0-0.12-0.01-0.12,0.13c0,0.86-0.01,1.72-0.01,2.58c0,0.03,0,0.07,0,0.1
			c0,0.06-0.01,0.07-0.07,0.07c-0.24,0-0.48,0-0.73-0.01c-0.15,0-0.3,0-0.45,0c-0.07,0-0.07,0-0.08-0.08c0-0.02,0-0.04,0-0.07
			c0-2.18,0-4.36,0-6.54c0-0.17-0.02-0.15,0.15-0.15c0.35,0,0.7,0.01,1.05,0.01c0.03,0,0.06,0,0.09,0c0.02,0,0.04,0.02,0.04,0.04
			c0,0.03,0,0.07,0,0.1c0,0.9,0,1.79,0.01,2.69c0,0.16-0.02,0.15,0.15,0.15c1.13,0,2.25-0.01,3.38-0.01c0.14,0,0.12,0.01,0.13-0.13
			c0-0.9,0.01-1.79,0.01-2.69c0-0.21-0.03-0.17,0.17-0.18c0.34,0,0.68,0,1.02,0c0.03,0,0.06,0,0.09,0c0.03,0,0.05,0.02,0.05,0.05
			c0,0.04,0,0.08,0,0.12C48.66,12.11,48.66,13.19,48.65,14.28L48.65,14.28z"/>
		<path class="st53" d="M53.58,14.53c0.13-0.09,0.26-0.19,0.41-0.26c0.06-0.03,0.13-0.06,0.19-0.09c0.23-0.09,0.46-0.17,0.71-0.21
			c0.89-0.13,1.7,0.06,2.4,0.65c0.39,0.33,0.65,0.75,0.76,1.27c0.12,0.58,0.02,1.11-0.29,1.6c-0.31,0.49-0.74,0.83-1.27,1.03
			c-0.95,0.36-1.87,0.28-2.74-0.27c-0.31-0.2-0.56-0.45-0.75-0.77c-0.44-0.76-0.44-1.53,0-2.29c0.13-0.23,0.31-0.42,0.5-0.59
			C53.53,14.58,53.55,14.56,53.58,14.53z"/>
		<path class="st1" d="M32.09,24.62c-0.14,0-0.28,0-0.42,0c-0.06,0-0.06-0.01-0.07-0.07c0-0.18,0-0.36,0-0.54
			c0-0.07,0-0.08,0.08-0.08c0.17,0,0.33,0,0.5,0c0.09,0,0.19,0.01,0.28,0.01c0.07,0,0.13,0.02,0.2,0.05
			c0.12,0.06,0.18,0.16,0.18,0.29c0,0.14-0.07,0.23-0.19,0.28c-0.05,0.02-0.1,0.03-0.15,0.03C32.36,24.61,32.22,24.61,32.09,24.62
			L32.09,24.62z"/>
		<path class="st1" d="M32.06,22.92c0.11,0,0.22,0,0.33,0c0.05,0,0.1,0.01,0.15,0.02c0.12,0.04,0.19,0.12,0.19,0.25
			c0,0.13-0.05,0.21-0.17,0.26c-0.06,0.03-0.13,0.04-0.2,0.04c-0.23,0-0.46,0-0.69,0c-0.07,0-0.07,0-0.07-0.08c0-0.14,0-0.28,0-0.42
			c0-0.09,0-0.09,0.08-0.09C31.81,22.92,31.93,22.92,32.06,22.92L32.06,22.92z"/>
		<path class="st1" d="M36.44,23.78c0.01-0.11,0.01-0.22,0.03-0.32c0.08-0.31,0.28-0.49,0.58-0.55c0.15-0.03,0.3-0.03,0.44,0.02
			c0.26,0.07,0.43,0.24,0.5,0.51c0.06,0.22,0.06,0.45,0,0.67c-0.08,0.29-0.27,0.46-0.56,0.53c-0.15,0.04-0.3,0.03-0.45-0.01
			c-0.3-0.09-0.5-0.34-0.53-0.67C36.44,23.89,36.44,23.83,36.44,23.78z"/>
		<path class="st1" d="M48.74,23.09c0.14,0.32,0.26,0.63,0.39,0.94c-0.26,0-0.51,0-0.77,0C48.48,23.71,48.61,23.41,48.74,23.09z"/>
		<path class="st54" d="M33.29,26.09c-0.07-0.03-0.15-0.04-0.22-0.07c-0.01-0.02-0.03-0.02-0.06-0.02c-0.06,0-0.12,0-0.18,0
			c-0.03,0-0.06,0-0.09,0c-0.11,0.02-0.23,0.02-0.34,0c-0.02,0-0.04,0-0.07,0c-0.03,0-0.06,0.01-0.06,0.05c0,0.09,0,0.19,0,0.28
			c0,0.01,0.01,0.02,0.02,0.03c0.01,0.23,0.01,0.45,0,0.68c-0.01,0.01-0.02,0.02-0.02,0.03c0,0.09,0,0.18,0,0.27
			c0,0.02,0.02,0.03,0.03,0.03c0.06,0,0.13,0,0.19,0c0.1-0.02,0.19-0.02,0.29,0c0.08,0,0.15-0.01,0.23,0
			c0.07,0.01,0.12-0.01,0.18-0.03c0.31-0.11,0.51-0.49,0.42-0.82C33.58,26.33,33.48,26.17,33.29,26.09z M33.37,26.8
			c-0.05,0.21-0.21,0.39-0.46,0.37c-0.03,0-0.06,0-0.09,0v0c-0.05,0-0.1,0-0.15,0c-0.07-0.01-0.08-0.02-0.08-0.09
			c0-0.16,0-0.31,0-0.47c0-0.1,0-0.21,0-0.31c0-0.05,0.02-0.08,0.06-0.08c0.17-0.02,0.35-0.02,0.51,0.07
			C33.34,26.38,33.42,26.59,33.37,26.8z"/>
		<path class="st54" d="M49.56,26.54c0-0.04,0-0.07-0.03-0.09c-0.07-0.04-0.14-0.03-0.21-0.03c-0.05,0-0.05,0.03-0.06,0.06
			c0,0.01-0.02,0.01-0.03,0.01c-0.02-0.01-0.05-0.02-0.07-0.03c-0.16-0.06-0.32-0.06-0.46,0.04c-0.2,0.13-0.27,0.41-0.11,0.64
			c0.1,0.15,0.25,0.19,0.41,0.2c0.07,0,0.15-0.04,0.21-0.08c0.02-0.01,0.03-0.03,0.05-0.01c0.02,0.02,0.02,0.04,0.01,0.06
			c-0.01,0.04-0.02,0.07-0.06,0.09c-0.05,0.03-0.1,0.05-0.16,0.05c-0.11,0-0.21-0.01-0.31-0.06c-0.06-0.03-0.07-0.03-0.09,0.05
			c-0.04,0.1-0.02,0.12,0.08,0.16c0.05,0.03,0.11,0.02,0.16,0.03c0.01,0.01,0.02,0.02,0.03,0.02c0.1,0,0.2,0,0.3,0
			c0.01,0,0.02-0.01,0.03-0.02c0.09-0.02,0.17-0.07,0.23-0.15c0.03-0.04,0.05-0.1,0.08-0.14c0.03-0.02,0.02-0.05,0.02-0.08
			c0-0.12,0-0.25,0-0.37C49.56,26.76,49.56,26.65,49.56,26.54z M49.02,27.12c-0.14,0-0.24-0.11-0.25-0.26
			c0-0.14,0.12-0.26,0.26-0.27c0.14,0,0.25,0.12,0.25,0.27C49.29,27.02,49.18,27.12,49.02,27.12z"/>
		<path class="st54" d="M40.07,26.51c0.03-0.02,0.02-0.05,0.02-0.08c0-0.12,0-0.25,0-0.37c-0.01-0.05-0.03-0.08-0.08-0.07
			c-0.06,0-0.12,0-0.19,0c-0.04,0.01-0.03,0.04-0.03,0.07c0,0.12,0,0.24,0,0.35c0,0.03,0.01,0.07-0.03,0.1
			c-0.2-0.14-0.4-0.14-0.6-0.03c-0.1,0.06-0.16,0.15-0.19,0.26c-0.03,0.08-0.04,0.2,0,0.29c0.01,0.11,0.08,0.19,0.15,0.26
			c0.12,0.11,0.38,0.16,0.54,0.05c0.03-0.02,0.06-0.04,0.09-0.05c0.05-0.03,0.06-0.03,0.07,0.02c0.01,0.05,0.03,0.05,0.07,0.05
			c0.06,0,0.12,0,0.18,0c0.06-0.08,0.04-0.15,0.01-0.23C40.06,26.93,40.06,26.72,40.07,26.51z M39.51,27.19
			c-0.16,0-0.3-0.15-0.3-0.3c0-0.16,0.16-0.31,0.31-0.3c0.16,0.01,0.3,0.16,0.29,0.31C39.79,27.1,39.64,27.2,39.51,27.19z"/>
		<path class="st54" d="M44.67,27.03c-0.07,0.06-0.15,0.09-0.23,0.12c-0.16,0.05-0.35-0.03-0.44-0.17c-0.09-0.14-0.09-0.3-0.06-0.45
			c0.03-0.16,0.14-0.26,0.29-0.29c0.13-0.03,0.26-0.02,0.38,0.06c0.05,0.04,0.1,0.07,0.15,0.11c0.04-0.06,0.08-0.11,0.12-0.16
			c0.03-0.04,0.02-0.07-0.01-0.09c-0.1-0.08-0.21-0.14-0.34-0.17c-0.12-0.02-0.23-0.02-0.35,0c-0.27,0.05-0.49,0.26-0.52,0.55
			c-0.03,0.09-0.03,0.23,0,0.31c0.04,0.22,0.15,0.38,0.35,0.48c0.1,0.05,0.19,0.08,0.3,0.07c0.04,0,0.08,0,0.11,0
			c0.15-0.01,0.3-0.06,0.41-0.17c0.08-0.08,0.08-0.08,0.01-0.17C44.77,26.97,44.75,26.96,44.67,27.03z"/>
		<path class="st54" d="M47.19,26.83c0.01-0.09,0.03-0.19,0.04-0.28c0.01-0.06,0-0.08-0.06-0.09c-0.02-0.01-0.04-0.01-0.06-0.01
			c-0.05-0.02-0.1-0.02-0.13,0.04c-0.01,0.03-0.04,0.03-0.06,0.01c-0.05-0.04-0.11-0.06-0.16-0.1c-0.08-0.04-0.17-0.04-0.25,0
			c-0.03,0.01-0.06,0.02-0.1,0.03c-0.16,0.06-0.26,0.17-0.29,0.34c-0.03,0.09-0.03,0.18,0,0.26c0,0.04,0.03,0.07,0.04,0.11
			c0.12,0.23,0.37,0.32,0.61,0.22c0.04-0.02,0.08-0.04,0.12-0.07c0.04-0.04,0.05-0.03,0.07,0.02c0.02,0.08,0.04,0.09,0.11,0.09
			c0.05,0,0.08-0.04,0.13-0.03c0.06-0.08,0.04-0.17,0.01-0.26C47.22,27.02,47.18,26.93,47.19,26.83z M46.67,27.19
			c-0.19-0.01-0.3-0.15-0.29-0.3c0-0.16,0.13-0.29,0.29-0.3c0.16,0,0.3,0.14,0.3,0.3C46.96,27.05,46.82,27.2,46.67,27.19z"/>
		<path class="st54" d="M45.95,26.61c-0.02-0.11-0.1-0.15-0.19-0.18c-0.18-0.05-0.34,0-0.48,0.11c0-0.13,0-0.25,0-0.38
			c0-0.04,0-0.09,0-0.13c0-0.03-0.02-0.05-0.05-0.05c-0.06,0-0.13,0-0.19,0c-0.04,0-0.06,0.03-0.06,0.07c0,0.02,0,0.03,0,0.05
			c0,0.1,0,0.21,0,0.31c0,0.03-0.01,0.06,0.02,0.08c0,0.08,0,0.15,0,0.23c0,0.18,0,0.36,0,0.54c0,0.03-0.01,0.07,0.03,0.09
			c0.05,0,0.09,0,0.14,0c0.09,0,0.1-0.01,0.1-0.1c0-0.13,0-0.27,0-0.4c0-0.17-0.01-0.13,0.13-0.21c0.02-0.01,0.04-0.02,0.06-0.03
			c0.05-0.02,0.09-0.02,0.13,0.01c0.03,0.02,0.06,0.04,0.09,0.07c0,0.07,0,0.14,0,0.22c0,0.03,0,0.05,0.02,0.07
			c0,0.05,0,0.11,0,0.16c-0.04,0.07-0.02,0.14-0.01,0.22c0,0.02,0.03,0.02,0.04,0.02c0.07,0,0.15,0,0.22,0
			c0.04-0.01,0.03-0.05,0.03-0.08c0-0.2,0-0.39,0-0.59c0-0.03,0-0.05-0.02-0.07C45.96,26.63,45.95,26.62,45.95,26.61z"/>
		<path class="st54" d="M56.09,26.47c-0.17,0.09-0.25,0.24-0.24,0.45c0.01,0.19,0.07,0.33,0.24,0.42c0.09,0.04,0.18,0.08,0.29,0.07
			c0.03,0,0.05,0,0.08,0c0.14,0,0.25-0.06,0.36-0.14c0.03-0.02,0.03-0.05,0.01-0.08c-0.01-0.01-0.02-0.03-0.03-0.04
			c-0.03-0.04-0.06-0.05-0.11-0.03c-0.02,0.01-0.04,0.03-0.06,0.04c-0.12,0.06-0.24,0.07-0.37,0.02c-0.06-0.03-0.13-0.07-0.13-0.16
			c0.06,0,0.12,0,0.19,0c0.02,0,0.05,0,0.07-0.02c0.03,0,0.07,0,0.1,0c0.06,0,0.11,0,0.17,0c0.03,0,0.05,0,0.07-0.03
			c0.02,0,0.04,0,0.06-0.01c0.04-0.03,0.09-0.06,0.09-0.12c-0.01-0.07-0.02-0.14-0.06-0.2C56.63,26.38,56.35,26.32,56.09,26.47z
			 M56.56,26.8c-0.15,0.01-0.29,0.05-0.44,0.02c0.01-0.13,0.08-0.2,0.18-0.23c0.11-0.03,0.21,0.01,0.27,0.1
			c0.01,0.02,0.02,0.04,0.02,0.06C56.59,26.77,56.58,26.79,56.56,26.8z"/>
		<path class="st54" d="M42.71,26.47c-0.04-0.02-0.09-0.04-0.14-0.06c-0.08-0.03-0.17-0.03-0.25,0c-0.03,0.01-0.06,0.02-0.1,0.03
			c-0.11,0.04-0.21,0.1-0.26,0.21c-0.05,0.11-0.1,0.22-0.05,0.35c0.07,0.2,0.18,0.33,0.38,0.38c0.09,0.04,0.22,0.03,0.31,0
			c0.16-0.05,0.28-0.16,0.34-0.32c0.03-0.07,0.05-0.14,0.03-0.22C42.94,26.68,42.86,26.55,42.71,26.47z M42.44,27.19
			c-0.15,0-0.3-0.14-0.3-0.28c0.01-0.17,0.13-0.3,0.3-0.29c0.14-0.01,0.29,0.08,0.3,0.28C42.75,27.05,42.6,27.19,42.44,27.19z"/>
		<path class="st54" d="M36.76,26.47c-0.04-0.02-0.09-0.04-0.14-0.06c-0.08-0.03-0.17-0.03-0.25,0c-0.02,0.01-0.05,0.02-0.07,0.03
			c-0.12,0.03-0.21,0.1-0.28,0.21c-0.06,0.1-0.08,0.22-0.06,0.34c0.04,0.2,0.18,0.36,0.38,0.4c0.01,0.01,0.02,0.03,0.04,0.02
			c0.09-0.01,0.18,0.03,0.26-0.02c0.15-0.04,0.25-0.14,0.33-0.27c0.05-0.08,0.07-0.17,0.05-0.26C37,26.68,36.92,26.55,36.76,26.47z
			 M36.5,27.19c-0.16,0-0.3-0.14-0.3-0.29c0-0.15,0.13-0.27,0.28-0.28c0.21-0.01,0.3,0.13,0.32,0.28
			C36.8,27.04,36.66,27.18,36.5,27.19z"/>
		<path class="st54" d="M48.23,26.45c-0.09-0.02-0.18-0.05-0.29-0.02c-0.07,0.02-0.14,0.05-0.21,0.09
			c-0.06,0.04-0.07,0.04-0.08-0.03c-0.01-0.05-0.04-0.06-0.07-0.04c-0.05,0.02-0.1,0.02-0.15,0.02c-0.07,0.01-0.06,0.01-0.06,0.08
			c0,0.05,0.03,0.08,0.03,0.12c0,0.21,0,0.42,0,0.63c0,0.03-0.01,0.07,0.04,0.09c0.08,0,0.16,0,0.24,0
			c0.02-0.12,0.01-0.25,0.01-0.37c0-0.07,0-0.15,0-0.22c0-0.02,0-0.04,0.02-0.05c0.04-0.05,0.1-0.07,0.16-0.09
			c0.14-0.04,0.2-0.01,0.25,0.13c0.02,0.16,0.02,0.32,0,0.48c0.01,0.12,0.01,0.12,0.13,0.12c0.01,0,0.02,0,0.03,0
			c0.11,0,0.12-0.01,0.12-0.12c0-0.16,0-0.32,0-0.48c0-0.07-0.02-0.13-0.03-0.19C48.34,26.52,48.29,26.47,48.23,26.45z"/>
		<path class="st54" d="M51.05,26.45c-0.09-0.03-0.19-0.05-0.29-0.02c-0.07,0.02-0.14,0.05-0.2,0.1c-0.04,0.03-0.06,0.02-0.08-0.03
			c-0.01-0.05-0.04-0.06-0.07-0.05c-0.05,0.02-0.1,0.02-0.15,0.02c-0.06,0.01-0.06,0.01-0.06,0.09c0,0.05,0.02,0.09,0.03,0.14
			c0,0.2,0,0.4,0,0.6c0,0.03-0.01,0.07,0.03,0.09c0.06,0,0.11,0,0.17,0c0.03,0,0.06,0,0.08-0.02c0.03-0.02,0.02-0.06,0.02-0.1
			c0-0.18,0-0.36,0-0.53c0.05-0.06,0.12-0.07,0.18-0.09c0.1-0.04,0.21,0.03,0.23,0.14c0,0.03,0,0.07,0,0.1
			c0.02,0.09,0.02,0.18,0,0.27c0,0.01,0,0.03,0,0.04c0.01,0.06-0.03,0.13,0.02,0.17c0.05,0.04,0.12,0.01,0.18,0.01
			c0.05,0,0.07-0.03,0.07-0.07c0-0.05,0-0.1,0-0.16c-0.02-0.1-0.02-0.2,0-0.3c-0.01-0.07-0.01-0.15-0.03-0.22
			C51.18,26.55,51.14,26.47,51.05,26.45z"/>
		<path class="st54" d="M41.72,25.99l-0.01,0c-0.28,0.02-0.55,0.02-0.83,0C40.75,26,40.75,26,40.74,26.13c0,0.03-0.03,0.05-0.01,0.1
			c0.09,0,0.18,0,0.28,0c0.01,0,0.03,0,0.04,0c0.1-0.01,0.1,0.03,0.09,0.09c0,0.03,0,0.06,0,0.09c0,0.25,0,0.51,0,0.76
			c0,0.05,0,0.09,0,0.14c0,0.04,0.02,0.06,0.06,0.06c0.08,0,0.16,0,0.24,0c0.03-0.01,0.03-0.04,0.03-0.06c0-0.13,0-0.25,0-0.38
			c0-0.02,0-0.04-0.02-0.06c-0.01-0.17-0.01-0.33,0-0.5c0.01-0.01,0.01-0.01,0.02-0.02c0.02-0.04-0.02-0.11,0.03-0.13
			c0.04-0.02,0.09-0.01,0.13-0.01c0.02,0,0.03,0,0.05,0c0.04,0,0.08,0,0.11,0c0.03,0,0.05-0.02,0.05-0.05
			c0-0.05,0.02-0.11-0.01-0.15C41.81,25.97,41.76,26,41.72,25.99z"/>
		<path class="st54" d="M54.13,27.14c-0.06,0-0.13,0-0.19,0c-0.16,0.02-0.33,0.02-0.49,0l0,0c-0.02-0.25-0.02-0.49,0-0.74
			c0-0.13,0-0.26,0-0.39c-0.1-0.05-0.2-0.04-0.3-0.01c-0.04,0.04-0.03,0.09-0.02,0.13c0.02,0.07,0.02,0.14,0.02,0.21
			c0.02,0.27,0.02,0.53,0,0.8c0,0.05,0,0.1,0,0.16c0,0.07,0,0.07,0.06,0.07c0.06,0,0.12,0,0.18,0c0.17,0,0.35,0,0.52,0.01
			c0.08,0.04,0.16,0.03,0.24,0.01c0.01,0,0.01-0.01,0.01-0.02c0-0.06,0.03-0.11,0.02-0.16C54.18,27.17,54.17,27.14,54.13,27.14z"/>
		<path class="st54" d="M55.72,26.48c-0.01-0.03-0.04-0.05-0.06-0.04c-0.06,0.02-0.13,0-0.19,0.04c0.02,0.12,0.02,0.24,0,0.37
			c-0.05,0.08-0.1,0.16-0.16,0.23c-0.04,0.05-0.08,0.05-0.11,0c-0.03-0.04-0.06-0.08-0.08-0.11c-0.09-0.12-0.13-0.25-0.09-0.4
			c0-0.02,0-0.03,0-0.05c0-0.03-0.01-0.05-0.05-0.05c-0.05,0-0.11,0-0.16-0.02c-0.05-0.01-0.07,0-0.06,0.05
			c0.01,0.11-0.03,0.22,0,0.33c0.01,0.05,0.02,0.1,0.05,0.14c0.07,0.09,0.14,0.18,0.21,0.26c0.04,0.04,0.07,0.09,0.12,0.12
			c0.07,0.06,0.15,0.07,0.23,0.01c0.02-0.02,0.05-0.04,0.07-0.06c0.12-0.14,0.23-0.29,0.32-0.45c0.03-0.08,0.03-0.17,0-0.26
			C55.74,26.56,55.73,26.52,55.72,26.48z"/>
		<path class="st54" d="M35.71,26.46c-0.02,0-0.04,0-0.06,0c-0.06-0.01-0.06,0.03-0.06,0.07c0.02,0.1,0.02,0.2,0,0.3
			c-0.02,0.03-0.04,0.06-0.05,0.09c-0.03,0.05-0.07,0.11-0.11,0.16c-0.04,0.05-0.08,0.05-0.11,0.01c-0.05-0.06-0.09-0.12-0.13-0.18
			c-0.03-0.04-0.04-0.08-0.03-0.12c-0.02-0.08-0.02-0.17,0-0.25c0-0.04-0.01-0.08-0.06-0.07c-0.06,0-0.12,0-0.17-0.02
			c-0.03-0.01-0.04,0.02-0.05,0.04c-0.03,0.08-0.03,0.22-0.01,0.3l0.01,0.01c0,0.07,0.02,0.13,0.07,0.19
			c0.08,0.1,0.15,0.2,0.23,0.29c0.02,0.02,0.04,0.04,0.06,0.06c0.09,0.08,0.17,0.08,0.26,0c0.02-0.02,0.04-0.03,0.05-0.06
			c0.09-0.12,0.18-0.24,0.27-0.36c0.02-0.03,0.04-0.06,0.04-0.09c0-0.09,0.01-0.18,0-0.27C35.84,26.45,35.82,26.44,35.71,26.46z"/>
		<path class="st54" d="M57.5,26.98c-0.03-0.06-0.07-0.11-0.13-0.14c-0.06-0.03-0.12-0.05-0.17-0.09c-0.05-0.05-0.04-0.09,0.02-0.12
			c0.05-0.02,0.09,0,0.14-0.01c0.04-0.01,0.06-0.03,0.05-0.07c-0.02-0.12-0.06-0.15-0.18-0.13c-0.05,0.01-0.1,0.02-0.14,0.04
			c-0.11,0.05-0.17,0.14-0.17,0.25c0,0.1,0.05,0.19,0.16,0.23c0.05,0.02,0.11,0.05,0.16,0.08c0.05,0.03,0.06,0.07,0.01,0.12
			c-0.02,0.02-0.04,0.05-0.07,0.04c-0.05,0-0.09,0-0.14,0c-0.08,0-0.08,0.02-0.05,0.1c0,0.02,0,0.05,0,0.07c0,0.02,0,0.04,0.02,0.04
			c0.07,0.01,0.14,0.03,0.21-0.01c0.03-0.01,0.06-0.02,0.1-0.03C57.47,27.29,57.56,27.12,57.5,26.98z"/>
		<path class="st54" d="M54.34,26.45c-0.06-0.01-0.07,0-0.08,0.07c0,0.03-0.01,0.07,0.01,0.1c0.02,0.03,0.01,0.07,0.01,0.1
			c0,0.19,0,0.38,0,0.57c0,0.02,0,0.04,0,0.06c0.01,0.02,0.03,0.03,0.05,0.03c0.05,0,0.1,0,0.15,0c0.05,0,0.07-0.02,0.07-0.07
			c0-0.03,0-0.06,0-0.09c0-0.14,0-0.29,0-0.43c0.01-0.01,0.02-0.02,0.02-0.03c0-0.09,0-0.18,0-0.27c0-0.02-0.01-0.03-0.03-0.04
			C54.49,26.47,54.42,26.47,54.34,26.45z"/>
		<path class="st54" d="M54.58,26.24c0.01-0.02,0.01-0.04,0-0.06c-0.03-0.07-0.09-0.09-0.16-0.08c-0.02,0-0.04,0-0.06,0
			c-0.05,0-0.08,0.04-0.09,0.08c-0.02,0.04,0,0.1,0.04,0.13C54.38,26.37,54.54,26.34,54.58,26.24z"/>
		<path class="st54" d="M49.91,26.34c0.09-0.03,0.14-0.09,0.13-0.15c-0.01-0.06-0.07-0.09-0.16-0.09c-0.02,0-0.03,0-0.05,0
			c-0.08,0.01-0.12,0.07-0.11,0.14C49.74,26.31,49.83,26.36,49.91,26.34z"/>
		<path class="st54" d="M52.32,26.41c-0.06,0-0.11,0-0.17,0c-0.02,0-0.05,0-0.05,0.03c-0.01,0.07-0.04,0.06-0.09,0.03
			c-0.22-0.12-0.47-0.06-0.6,0.14c-0.15,0.22-0.05,0.5,0.1,0.61c0.07,0.05,0.15,0.07,0.23,0.09c0.04,0.01,0.08,0.01,0.12,0
			c0.08-0.02,0.15-0.05,0.21-0.09c0.01,0.01,0.02,0.02,0.02,0.03c0,0.09-0.07,0.18-0.17,0.18c-0.09,0.01-0.19,0.01-0.28-0.03
			c-0.05-0.02-0.09-0.03-0.14-0.05c-0.01,0.03-0.02,0.05-0.03,0.08c-0.04,0.07,0,0.13,0.07,0.15c0.05,0.01,0.09,0.03,0.15,0.03
			c0.01,0.01,0.02,0.02,0.03,0.02c0.11,0,0.22,0,0.32,0c0.01,0,0.02-0.01,0.03-0.02c0.1-0.02,0.17-0.08,0.24-0.15
			c0.04-0.05,0.04-0.11,0.07-0.16c0.01-0.01,0.02-0.02,0.02-0.03c0-0.27,0-0.54,0-0.81C52.4,26.4,52.36,26.41,52.32,26.41z
			 M51.85,27.12c-0.14-0.01-0.24-0.12-0.24-0.27c0-0.14,0.12-0.26,0.25-0.26c0.18,0.01,0.26,0.14,0.26,0.28
			C52.11,27.02,52,27.13,51.85,27.12z"/>
		<path class="st54" d="M37.79,26.46c0-0.02-0.03-0.03-0.05-0.03c-0.08,0-0.17,0-0.25,0c-0.02-0.08-0.02-0.16,0-0.24
			c-0.07-0.07-0.16-0.08-0.24-0.07c-0.04,0-0.06,0.03-0.06,0.07c0,0.05,0,0.09,0.02,0.14c0.02,0.07,0.02,0.07-0.05,0.1
			c-0.01,0.01-0.02,0.01-0.03,0.02c-0.06,0.03-0.06,0.04-0.06,0.12c0,0.06,0.04,0.06,0.08,0.06c0.07,0.01,0.08,0.03,0.08,0.1
			c0,0.1,0,0.2-0.02,0.3c-0.03,0.16,0.02,0.34,0.2,0.34c0.08,0.03,0.15,0.03,0.23,0c0.02-0.01,0.05-0.01,0.07-0.02
			c0.07-0.02,0.11-0.08,0.1-0.15c0-0.03-0.02-0.04-0.04-0.04c-0.05,0-0.1,0.02-0.15,0.02c-0.09,0.01-0.14-0.03-0.14-0.12
			c0-0.13,0-0.25,0-0.38c0.06-0.04,0.13-0.02,0.19-0.03c0.04,0,0.08,0.02,0.11-0.03v0l0,0h0C37.82,26.59,37.8,26.52,37.79,26.46z"/>
		<path class="st54" d="M34.28,26.99c0.03,0,0.07,0,0.1,0c0.06,0,0.11,0,0.17,0c0.03,0,0.05,0,0.07-0.02
			c0.12-0.03,0.16-0.06,0.15-0.14c-0.01-0.13-0.06-0.24-0.17-0.32c-0.15-0.11-0.32-0.14-0.49-0.09c-0.18,0.05-0.3,0.17-0.34,0.36
			c-0.01,0.09-0.02,0.17,0,0.26c0,0.04,0.01,0.09,0.04,0.12c0.07,0.09,0.16,0.17,0.26,0.21c0.08,0.03,0.17,0.02,0.25,0.03
			c0.11,0.01,0.2-0.04,0.3-0.07c0.04-0.02,0.07-0.05,0.1-0.08c0.01-0.01,0.01-0.02,0.01-0.03c0-0.05-0.04-0.08-0.06-0.11
			c-0.02-0.03-0.07-0.02-0.09,0.01c-0.04,0.04-0.09,0.06-0.15,0.07c-0.16,0.05-0.29,0.01-0.38-0.12c0-0.04,0.03-0.05,0.07-0.06
			C34.17,27.01,34.23,27.04,34.28,26.99z M34.01,26.8c-0.01-0.03,0.01-0.07,0.03-0.1c0.09-0.15,0.31-0.16,0.41-0.02
			c0.02,0.03,0.03,0.05,0.03,0.08c-0.01,0.04-0.05,0.03-0.07,0.03c-0.09,0-0.17,0.04-0.24,0.03c-0.04,0-0.05,0-0.06,0
			C34.07,26.82,34.03,26.84,34.01,26.8z"/>
		<path class="st54" d="M50.02,26.44c-0.02,0.01-0.05,0.01-0.07,0.02c-0.06,0.01-0.12,0.02-0.17-0.02c-0.02,0-0.05,0-0.05,0.03
			c0,0.06-0.03,0.12,0.02,0.18c0,0.03,0,0.07,0,0.1c0.02,0.19,0.02,0.37,0,0.56c0.01,0.03,0,0.07,0.05,0.07c0.05,0,0.11,0,0.16,0
			c0.03,0,0.05-0.02,0.06-0.06c0-0.03,0-0.07,0-0.1c0-0.16-0.03-0.32,0.01-0.49c0.03-0.08,0.03-0.21,0.01-0.27
			C50.04,26.44,50.02,26.44,50.02,26.44z"/>
		<path class="st54" d="M38.41,26.99c0.12-0.01,0.24,0.01,0.36-0.03c0.06-0.02,0.09-0.05,0.1-0.12c0.02-0.18-0.12-0.36-0.29-0.41
			c-0.22-0.07-0.42-0.04-0.59,0.14c-0.13,0.14-0.16,0.38-0.08,0.55c0.06,0.14,0.17,0.22,0.31,0.26c0.08,0.03,0.17,0.01,0.25,0.02
			c0.07,0.01,0.13-0.01,0.2-0.04c0.05-0.02,0.1-0.05,0.14-0.08c0.07-0.04,0.07-0.06,0.03-0.12c-0.05-0.07-0.06-0.08-0.14-0.04
			c-0.05,0.02-0.1,0.05-0.15,0.07c-0.11,0.03-0.22,0.02-0.32-0.04c-0.04-0.03-0.09-0.06-0.07-0.13c0.07,0,0.13,0,0.2,0
			C38.37,27.01,38.4,27.01,38.41,26.99z M38.18,26.83c-0.04,0-0.05-0.02-0.04-0.06c0.02-0.09,0.11-0.17,0.2-0.18
			c0.1-0.01,0.19,0.02,0.25,0.11c0.04,0.06,0.02,0.1-0.04,0.1c-0.09,0-0.18,0.04-0.26,0.03C38.24,26.83,38.21,26.83,38.18,26.83z"/>
		<path class="st1" d="M37.15,16.74c-0.49,0-0.9,0.01-1.3-0.02c-0.02,0-0.04,0-0.06,0c-0.05,0-0.06-0.02-0.06-0.07
			c0-0.02,0-0.04,0-0.07c0-0.54,0-1.08,0-1.62c0-0.12-0.01-0.12,0.13-0.13c0.59-0.03,1.17-0.03,1.76-0.02
			c0.33,0.01,0.65,0.02,0.98,0.1c0.11,0.03,0.22,0.05,0.33,0.1c0.05,0.02,0.1,0.05,0.15,0.07c0.26,0.15,0.37,0.37,0.34,0.67
			c-0.01,0.13-0.04,0.25-0.1,0.36c-0.13,0.29-0.36,0.45-0.65,0.54c-0.13,0.04-0.26,0.06-0.39,0.06
			C37.87,16.72,37.47,16.73,37.15,16.74z"/>
		<path class="st1" d="M36.55,13.86c-0.17,0-0.46-0.02-0.74-0.03c-0.08,0-0.08,0-0.08-0.09c0-0.57,0-1.14,0-1.7
			c0-0.08,0-0.08,0.09-0.09c0.42-0.04,0.84-0.04,1.26-0.01c0.25,0.02,0.49,0.04,0.74,0.06c0.22,0.02,0.44,0.06,0.64,0.15
			c0.14,0.06,0.26,0.14,0.37,0.25c0.38,0.4,0.2,1.03-0.21,1.23c-0.2,0.1-0.42,0.14-0.64,0.17C37.54,13.87,37.11,13.87,36.55,13.86z"
			/>
		<path class="st55" d="M59.06,11.33c-0.49-0.41-1.24-0.41-1.72,0c-0.12,0.1-0.22,0.22-0.28,0.37c-0.08,0.16-0.12,0.34-0.1,0.52
			c0.03,0.3,0.17,0.54,0.41,0.73c0.24,0.19,0.52,0.28,0.83,0.29c0.1,0,0.2-0.01,0.3-0.03c0.31-0.07,0.58-0.23,0.77-0.5
			c0.15-0.22,0.21-0.47,0.16-0.74C59.38,11.7,59.25,11.49,59.06,11.33z M58.97,12.76c-0.41,0.4-1.12,0.4-1.54,0.01
			c-0.39-0.36-0.4-0.94,0-1.3c0.26-0.23,0.56-0.32,0.9-0.28c0.21,0.02,0.4,0.09,0.56,0.23c0.22,0.18,0.36,0.41,0.36,0.68
			C59.25,12.38,59.15,12.59,58.97,12.76z"/>
		<path class="st56" d="M58.35,12.19c0.15,0.11,0.24,0.26,0.34,0.43c-0.09,0-0.16,0-0.22,0c-0.05,0-0.07-0.03-0.09-0.06
			c-0.07-0.09-0.14-0.18-0.21-0.27c-0.05-0.06-0.12-0.08-0.19-0.08c-0.03,0-0.05,0.02-0.05,0.05c0,0.09,0,0.18,0,0.28
			c0,0.09,0,0.09-0.09,0.09c-0.15,0-0.14,0.02-0.14-0.14c0-0.25,0-0.51,0-0.76c0-0.08,0-0.08,0.08-0.08c0.18,0,0.36-0.01,0.54,0.01
			c0.03,0,0.07,0.01,0.1,0.02c0.1,0.03,0.17,0.12,0.18,0.23c0.01,0.11-0.05,0.21-0.14,0.25C58.42,12.16,58.39,12.17,58.35,12.19z"/>
		<path class="st57" d="M57.94,12.04c-0.02-0.29-0.04-0.22,0.2-0.23c0.04,0,0.09,0,0.13,0c0.06,0.01,0.1,0.06,0.11,0.11
			c0,0.05-0.04,0.11-0.1,0.11C58.16,12.05,58.05,12.04,57.94,12.04z"/>
		<path class="st54" d="M11.34,21.03c1.14-0.28,2.41,0.17,3.49-0.32c0.8-0.37,1.32-1.18,1.67-2.02c0.34-0.83,0.57-1.72,1.02-2.49
			c0.29-0.5,0.77-0.98,1.33-0.9c0.77,0.1,1.12,1.08,1.37,1.72c0.14,0.36,0.26,0.72,0.41,1.07c0.09,0.22,0.19,0.44,0.34,0.63
			c0.11,0.13,0.24,0.22,0.42,0.2c0.08-0.01,0.15-0.04,0.21-0.08c0.23-0.14,0.36-0.34,0.36-0.62c0-0.46,0-0.92,0-1.38
			c0-4.56-0.14-9.26,0.3-13.84c0.02-0.23,0.08-0.45,0.16-0.66c0.12-0.32,0.3-0.61,0.55-0.84c0.23-0.21,0.49-0.36,0.8-0.41
			c0.02,0,0.04,0,0.06-0.03c0.12,0,0.24,0,0.36,0c0.01,0.01,0.02,0.02,0.03,0.02c1.28,0.27,1.63,2.06,1.65,3.18
			c0.04,1.99,0.07,3.97,0.1,5.96c0.06,3.93,0.13,7.86,0.19,11.79c0.01,0.43,0.11,0.99,0.53,1.06c0.23,0.04,0.46-0.12,0.59-0.33
			c0.12-0.21,0.17-0.45,0.21-0.69c0.22-1.25,0.53-2.48,0.94-3.69c0.38-1.13,1.27-0.95,1.85-0.04c0.29,0.46,0.49,0.99,0.88,1.37
			c0.15,0.15,0.34,0.27,0.55,0.29c0.38,0.04,0.72-0.26,0.95-0.58c0.21-0.28,0.52-0.89,0.92-0.83c0.36,0.06,0.57,0.68,0.76,0.93
			c0.36,0.5,0.96,0.75,1.54,0.91c2.69,0.75,5.55,0,8.33,0.13c0.54,0.02,1.09,0.07,1.62-0.03c0.68-0.13,0.95-0.52,1.47-0.92
			c0.06-0.05,0.12-0.09,0.2-0.12c0.13-0.05,0.25-0.03,0.36,0.05c0.78,0.58,1.13,1.2,2.22,1.26c0.77,0.04,1.52-0.16,2.28-0.31
			c3.02-0.62,6.17-0.57,9.17,0.15c-0.27,0.29-0.7,0.32-1.09,0.31c-2.4-0.04-4.82-0.51-7.18-0.05c-0.93,0.18-1.83,0.51-2.78,0.56
			c-0.94,0.05-1.98-0.25-2.51-1.05c-0.07-0.1-0.13-0.21-0.23-0.28c-0.29-0.18-0.62,0.13-0.86,0.38c-0.45,0.46-1.05,0.8-1.68,0.76
			c-0.37-0.02-0.71-0.17-1.07-0.25c-0.76-0.16-1.55,0.01-2.32,0.12c-1.77,0.26-3.58,0.24-5.35-0.08c-0.92-0.16-1.91-0.46-2.46-1.23
			c-0.15-0.21-0.33-0.47-0.57-0.4c-0.11,0.03-0.19,0.14-0.27,0.23c-0.33,0.43-0.77,0.84-1.3,0.84c-0.96-0.01-1.36-1.28-2.15-1.85
			c-0.15-0.11-0.33-0.19-0.5-0.13c-0.21,0.07-0.29,0.33-0.35,0.55c-0.85,3.3-1.48,6.66-2.23,9.99c-0.05,0.22-0.1,0.44-0.22,0.62
			c-0.05,0.08-0.12,0.15-0.21,0.18c-0.15,0.04-0.31-0.06-0.39-0.2c-0.08-0.14-0.09-0.31-0.11-0.47c-0.29-3.72-0.28-7.47-0.39-11.2
			c-0.11-3.78-0.23-7.55-0.23-11.33c0-0.03-0.01-0.06,0.01-0.09c0.01-0.23,0.01-0.45,0-0.68c-0.03-0.17,0.01-0.34-0.02-0.5
			c0-0.03,0-0.07,0-0.1C24.99,5.1,25,4.92,24.98,4.75c-0.06-0.38-0.15-0.74-0.41-1.04c-0.2-0.24-0.43-0.42-0.74-0.48
			c-0.29-0.06-0.52,0.05-0.7,0.27c-0.16,0.18-0.23,0.41-0.28,0.64c-0.08,0.34-0.1,0.69-0.12,1.04c-0.02,0.5-0.03,1-0.07,1.5
			c-0.02,0.22-0.01,0.44,0,0.65c0,0.24-0.02,0.48-0.04,0.71c0,0.03,0,0.06,0,0.09c0,0.75,0,1.5,0,2.26c0,0.03,0,0.06,0,0.09
			c0.02,0.04,0.01,0.08,0.01,0.12c0,3.16,0.27,6.59-0.29,9.71c-0.02,0.11-0.02,0.22-0.03,0.32c-0.02,0.18-0.04,0.35-0.07,0.53
			c-0.02,0.13-0.04,0.26-0.06,0.38c-0.03,0.2-0.1,1.25-0.5,1.04c-0.11-0.06-0.17-0.19-0.22-0.3c-0.59-1.4-1.13-2.83-1.62-4.27
			c-0.12-0.36-0.24-0.72-0.47-1.01c-0.23-0.29-0.59-0.51-0.95-0.44c-0.44,0.08-0.72,0.52-0.93,0.93c-0.26,0.52-0.5,1.06-0.71,1.61
			c-0.19,0.51-0.37,1.05-0.73,1.45C15.01,21.67,12.68,21.36,11.34,21.03z"/>
	</g>
	<g>
		<path class="st53" d="M18.27,33.9c-0.06,0-0.12,0-0.18-0.01c-0.07-0.01-0.13-0.03-0.2-0.06c-0.07-0.03-0.13-0.08-0.19-0.13
			c-0.06-0.06-0.11-0.13-0.15-0.23c-0.01-0.03-0.03-0.07-0.04-0.11c-0.01-0.04-0.02-0.09-0.04-0.15c-0.01-0.06-0.02-0.12-0.02-0.19
			c-0.01-0.07-0.01-0.15-0.01-0.24c0-0.06,0-0.12,0.01-0.18c0-0.06,0.01-0.13,0.02-0.19c0.01-0.06,0.03-0.13,0.05-0.19
			c0.02-0.06,0.05-0.12,0.09-0.17c0.05-0.08,0.12-0.14,0.18-0.18c0.07-0.04,0.14-0.08,0.21-0.1c0.07-0.02,0.14-0.03,0.2-0.04
			c0.06,0,0.12-0.01,0.16-0.01h0.66v-0.25h0.5v2.07h0.45v0.37H18.27z M18.01,33.28c0.02,0.06,0.05,0.1,0.09,0.13
			c0.04,0.03,0.08,0.06,0.12,0.07c0.04,0.02,0.08,0.03,0.12,0.03c0.04,0.01,0.08,0.01,0.12,0.01h0.56c0-0.02,0-0.04,0-0.06
			c0-0.02,0-0.04,0-0.06c0-0.02,0-0.03,0-0.05c0-0.01,0-0.02,0-0.02v-1.26h-0.57c-0.03,0-0.07,0-0.11,0.01s-0.07,0.01-0.11,0.03
			c-0.04,0.01-0.07,0.03-0.11,0.06s-0.06,0.06-0.09,0.1c-0.01,0.02-0.02,0.04-0.04,0.07s-0.02,0.06-0.03,0.1s-0.02,0.09-0.02,0.14
			c-0.01,0.06-0.01,0.12-0.01,0.19c0,0.09,0,0.16,0.01,0.22s0.01,0.11,0.02,0.14c0.01,0.04,0.01,0.07,0.02,0.09
			C18,33.25,18.01,33.27,18.01,33.28z M18.06,31.09V30.7h0.49v0.38H18.06z M18.73,31.09V30.7h0.49v0.38H18.73z"/>
		<path class="st53" d="M19.93,33.89v-0.37h0.57c0.09,0,0.17-0.01,0.22-0.03c0.05-0.02,0.1-0.05,0.14-0.1
			c0.04-0.05,0.07-0.11,0.08-0.18c0.01-0.07,0.02-0.14,0.02-0.21v-1.29h0.49v1.44c0,0.08-0.01,0.14-0.02,0.2
			c-0.01,0.06-0.03,0.11-0.05,0.16c-0.02,0.05-0.04,0.09-0.07,0.12c-0.03,0.03-0.05,0.06-0.08,0.09c-0.04,0.04-0.09,0.07-0.14,0.09
			c-0.05,0.02-0.1,0.04-0.15,0.05c-0.05,0.01-0.11,0.02-0.16,0.02c-0.06,0-0.11,0-0.17,0H19.93z M20.21,34.61v-0.38h0.49v0.38H20.21
			z M20.88,34.61v-0.38h0.49v0.38H20.88z"/>
		<path class="st53" d="M21.91,34.25h0.95c0.03,0,0.06,0,0.09,0c0.03,0,0.07-0.01,0.11-0.01c0.08-0.01,0.15-0.04,0.21-0.08
			c0.07-0.06,0.12-0.15,0.13-0.25h-0.8c-0.06,0-0.12,0-0.18-0.01c-0.06,0-0.12-0.02-0.18-0.04c-0.06-0.02-0.12-0.05-0.17-0.08
			c-0.05-0.04-0.1-0.09-0.15-0.15c-0.12-0.17-0.17-0.46-0.17-0.84c0-0.17,0.01-0.33,0.04-0.46c0.03-0.14,0.1-0.26,0.19-0.36
			c0.05-0.06,0.11-0.1,0.16-0.13s0.12-0.06,0.17-0.07c0.06-0.02,0.12-0.03,0.18-0.03c0.06,0,0.12,0,0.17,0h0.72
			c0.07,0,0.13,0,0.19,0.01s0.12,0.03,0.17,0.07c0.06,0.05,0.09,0.1,0.11,0.16c0.02,0.06,0.02,0.11,0.02,0.16v1.53
			c0,0.14-0.01,0.27-0.04,0.39c-0.02,0.12-0.07,0.23-0.15,0.31c-0.05,0.06-0.11,0.11-0.18,0.14c-0.07,0.04-0.14,0.06-0.21,0.08
			c-0.07,0.02-0.14,0.03-0.2,0.03c-0.06,0-0.12,0.01-0.16,0.01h-1.06V34.25z M23.4,32.25c0-0.03,0-0.06-0.01-0.08
			s-0.02-0.04-0.05-0.06c-0.02-0.01-0.04-0.02-0.06-0.03c-0.02,0-0.04-0.01-0.07-0.01h-0.42c-0.08,0-0.16,0.01-0.23,0.04
			s-0.12,0.06-0.16,0.1c-0.03,0.04-0.06,0.09-0.08,0.14c-0.02,0.06-0.03,0.11-0.04,0.17c-0.01,0.06-0.01,0.11-0.01,0.16
			c0,0.05,0,0.09,0,0.11c0,0.1,0,0.18,0.01,0.25s0.02,0.13,0.03,0.17c0.01,0.05,0.03,0.08,0.04,0.11s0.03,0.05,0.04,0.06
			c0.06,0.06,0.12,0.1,0.2,0.11c0.04,0.01,0.08,0.01,0.11,0.01c0.04,0,0.08,0,0.11,0h0.59V32.25z"/>
		<path class="st53" d="M24.18,33.9v-0.37h0.8c0.05,0,0.1,0,0.16-0.01c0.05,0,0.11-0.02,0.16-0.03c0.05-0.02,0.1-0.04,0.14-0.07
			c0.04-0.03,0.08-0.07,0.11-0.12c0.01-0.03,0.03-0.06,0.04-0.1s0.02-0.08,0.02-0.12s0.01-0.08,0.01-0.12s0-0.08,0-0.11
			c0-0.02,0-0.04,0-0.08c0-0.03,0-0.07-0.01-0.11c0-0.04-0.01-0.08-0.01-0.12c0-0.04-0.01-0.08-0.02-0.11
			c-0.01-0.04-0.04-0.09-0.06-0.13c-0.03-0.04-0.06-0.08-0.11-0.11s-0.1-0.06-0.16-0.08c-0.06-0.02-0.14-0.03-0.22-0.03h-0.8v-0.37
			h0.96c0.1,0,0.19,0.01,0.26,0.02c0.08,0.02,0.14,0.04,0.2,0.06c0.05,0.02,0.1,0.05,0.14,0.08c0.04,0.03,0.07,0.05,0.09,0.07
			c0.06,0.06,0.11,0.13,0.15,0.21c0.03,0.08,0.06,0.15,0.08,0.23s0.03,0.16,0.03,0.23c0,0.08,0,0.15,0,0.21c0,0.08,0,0.15,0,0.23
			c0,0.07-0.01,0.14-0.03,0.21s-0.03,0.13-0.06,0.19c-0.03,0.06-0.07,0.12-0.11,0.17c-0.05,0.06-0.11,0.11-0.17,0.14
			c-0.06,0.04-0.12,0.06-0.18,0.08c-0.06,0.02-0.12,0.03-0.17,0.04s-0.11,0.01-0.15,0.01H24.18z"/>
		<path class="st53" d="M27.25,33.89c-0.06,0-0.12,0-0.17,0c-0.05,0-0.11-0.01-0.16-0.02s-0.1-0.03-0.15-0.05
			c-0.05-0.02-0.1-0.05-0.14-0.09c-0.03-0.03-0.06-0.06-0.08-0.09c-0.03-0.03-0.05-0.07-0.07-0.12c-0.02-0.05-0.04-0.1-0.05-0.16
			c-0.01-0.06-0.02-0.13-0.02-0.2v-2.14h0.49v2c0,0.07,0.01,0.14,0.02,0.21c0.01,0.07,0.04,0.13,0.08,0.18
			c0.04,0.05,0.08,0.08,0.14,0.1c0.05,0.02,0.13,0.03,0.22,0.03h0.24v0.37H27.25z M26.45,30.69h0.25c0.01,0,0.01,0,0.01-0.01
			c0,0,0,0,0-0.01c0,0-0.01,0-0.02-0.01c-0.01,0-0.03-0.01-0.05-0.02s-0.05-0.02-0.09-0.03c-0.04-0.01-0.07-0.03-0.09-0.05
			c-0.02-0.02-0.03-0.05-0.03-0.08c0-0.04,0.01-0.08,0.04-0.1c0.02-0.02,0.05-0.03,0.09-0.03h0.31v0.12h-0.25c0,0-0.01,0-0.02,0
			s-0.01,0-0.01,0.01c0,0,0,0.01,0.01,0.01c0,0,0.01,0.01,0.02,0.01s0.03,0.01,0.05,0.02s0.05,0.02,0.08,0.03
			c0.04,0.01,0.08,0.03,0.1,0.05s0.03,0.05,0.03,0.09c0,0.03-0.01,0.06-0.03,0.08s-0.05,0.03-0.08,0.03h-0.33V30.69z"/>
		<path class="st53" d="M27.55,33.89v-0.37h0.05c0.09,0,0.17-0.01,0.22-0.03c0.06-0.02,0.1-0.05,0.14-0.1
			c0.04-0.05,0.06-0.11,0.07-0.17c0.01-0.06,0.02-0.13,0.02-0.2c0,0,0-0.01,0-0.02c0-0.01,0-0.03,0-0.07s0-0.1,0-0.18s0-0.2,0-0.34
			s0-0.33,0-0.56c0-0.23,0-0.5,0-0.83h0.49v1.96l0.01,0.3c0.02,0.06,0.04,0.1,0.08,0.14c0.04,0.03,0.08,0.06,0.12,0.08
			c0.05,0.02,0.09,0.03,0.15,0.04c0.05,0.01,0.1,0.01,0.14,0.01h0.05v0.37h-0.2c-0.05,0-0.1,0-0.15,0c-0.05,0-0.1-0.01-0.15-0.02
			s-0.1-0.03-0.15-0.05c-0.05-0.02-0.09-0.05-0.14-0.09c-0.04,0.04-0.09,0.07-0.14,0.09s-0.1,0.04-0.15,0.05
			c-0.05,0.01-0.1,0.02-0.16,0.02s-0.11,0-0.17,0H27.55z"/>
		<path class="st53" d="M29.05,33.89v-0.37h0.24c0.09,0,0.17-0.01,0.22-0.03c0.06-0.02,0.1-0.05,0.14-0.1
			c0.04-0.05,0.07-0.11,0.08-0.18c0.01-0.07,0.02-0.14,0.02-0.21v-2h0.49v2.14c0,0.08-0.01,0.14-0.02,0.2
			c-0.01,0.06-0.03,0.11-0.05,0.16c-0.02,0.05-0.04,0.09-0.07,0.12c-0.03,0.03-0.05,0.06-0.08,0.09c-0.05,0.04-0.09,0.07-0.14,0.09
			c-0.05,0.02-0.1,0.04-0.15,0.05s-0.11,0.02-0.16,0.02c-0.06,0-0.11,0-0.17,0H29.05z"/>
		<path class="st53" d="M32.37,33.9c-0.05,0-0.11,0-0.17-0.01s-0.12-0.02-0.19-0.04s-0.13-0.05-0.19-0.09
			c-0.06-0.04-0.12-0.09-0.17-0.17c-0.04-0.05-0.08-0.11-0.1-0.17c-0.02-0.06-0.04-0.12-0.06-0.19s-0.02-0.13-0.02-0.2
			c0-0.07-0.01-0.14-0.01-0.21v-0.64h0.51l0,0.65c0,0.09,0,0.18,0.01,0.27c0.01,0.08,0.03,0.16,0.08,0.23
			c0.02,0.04,0.05,0.07,0.08,0.09c0.03,0.02,0.06,0.04,0.1,0.06c0.04,0.02,0.09,0.03,0.14,0.03c0.05,0.01,0.11,0.01,0.18,0.01
			l1.13,0c0.09,0,0.17-0.01,0.22-0.03c0.06-0.02,0.1-0.05,0.14-0.1c0.04-0.05,0.06-0.11,0.07-0.17c0.01-0.06,0.02-0.13,0.02-0.2
			c0,0,0-0.01,0-0.01c0-0.01,0-0.02,0-0.05s0-0.07,0-0.12c0-0.05,0-0.13,0-0.23s0-0.22,0-0.37c0-0.15,0-0.33,0-0.54h0.49v1.26
			l0.01,0.3c0.02,0.06,0.04,0.1,0.08,0.14c0.04,0.03,0.08,0.06,0.12,0.08c0.05,0.02,0.09,0.03,0.15,0.04
			c0.05,0.01,0.1,0.01,0.14,0.01h0.05v0.37h-0.2c-0.05,0-0.1,0-0.15,0c-0.05,0-0.1-0.01-0.15-0.02s-0.1-0.03-0.15-0.05
			c-0.05-0.02-0.09-0.05-0.14-0.09c-0.04,0.04-0.09,0.07-0.14,0.09s-0.1,0.04-0.15,0.05c-0.05,0.01-0.1,0.02-0.16,0.02
			s-0.11,0-0.17,0L32.37,33.9z M32.39,31.65v-0.38h0.49v0.38H32.39z M32.78,31.09V30.7h0.49v0.38H32.78z M33.12,31.65v-0.38h0.49
			v0.38H33.12z"/>
		<path class="st53" d="M35.16,33.89v-0.37h0.05c0.09,0,0.17-0.01,0.22-0.03c0.06-0.02,0.1-0.05,0.14-0.1
			c0.04-0.05,0.06-0.11,0.07-0.17c0.01-0.06,0.02-0.13,0.02-0.2c0,0,0-0.01,0-0.02c0-0.01,0-0.03,0-0.07s0-0.1,0-0.18s0-0.2,0-0.34
			s0-0.33,0-0.56c0-0.23,0-0.5,0-0.83h0.49v1.96l0.01,0.3c0.02,0.06,0.04,0.1,0.08,0.14c0.04,0.03,0.08,0.06,0.12,0.08
			c0.05,0.02,0.09,0.03,0.15,0.04c0.05,0.01,0.1,0.01,0.14,0.01h0.05v0.37h-0.2c-0.05,0-0.1,0-0.15,0c-0.05,0-0.1-0.01-0.15-0.02
			s-0.1-0.03-0.15-0.05c-0.05-0.02-0.09-0.05-0.14-0.09c-0.04,0.04-0.09,0.07-0.14,0.09s-0.1,0.04-0.15,0.05
			c-0.05,0.01-0.1,0.02-0.16,0.02s-0.11,0-0.17,0H35.16z"/>
		<path class="st53" d="M36.66,33.89v-0.37h0.05c0.09,0,0.17-0.01,0.22-0.03c0.06-0.02,0.1-0.05,0.14-0.1
			c0.04-0.05,0.06-0.11,0.07-0.17c0.01-0.06,0.02-0.13,0.02-0.2c0-0.01,0-0.02,0-0.03c0-0.01,0-0.02,0-0.03h0v-1.26h0.49v1.26
			l0.01,0.3c0.02,0.06,0.04,0.1,0.08,0.14c0.04,0.03,0.08,0.06,0.12,0.08c0.05,0.02,0.09,0.03,0.15,0.04
			c0.05,0.01,0.1,0.01,0.14,0.01h0.05v0.37h-0.2c-0.05,0-0.1,0-0.15,0c-0.05,0-0.1-0.01-0.15-0.02s-0.1-0.03-0.15-0.05
			c-0.05-0.02-0.09-0.05-0.14-0.09c-0.04,0.04-0.09,0.07-0.14,0.09s-0.1,0.04-0.15,0.05c-0.05,0.01-0.1,0.02-0.16,0.02
			s-0.11,0-0.17,0H36.66z M36.86,34.61v-0.38h0.49v0.38H36.86z M37.53,34.61v-0.38h0.49v0.38H37.53z"/>
		<path class="st53" d="M38.16,33.53h0.39c-0.05-0.09-0.09-0.18-0.11-0.29c-0.02-0.13-0.03-0.27-0.03-0.41c0-0.06,0-0.12,0-0.19
			s0.01-0.13,0.02-0.2c0.01-0.07,0.03-0.14,0.05-0.2c0.02-0.07,0.05-0.13,0.09-0.19c0.04-0.08,0.1-0.13,0.16-0.18
			c0.06-0.04,0.12-0.08,0.19-0.1c0.07-0.02,0.13-0.04,0.2-0.05c0.07-0.01,0.13-0.01,0.18-0.01h0.46v-0.3h0.49v0.3h0.46
			c0.06,0,0.12,0,0.19,0.01s0.13,0.02,0.2,0.05c0.06,0.02,0.13,0.06,0.19,0.1c0.06,0.04,0.11,0.1,0.16,0.18
			c0.08,0.12,0.12,0.25,0.14,0.39c0.01,0.14,0.02,0.26,0.02,0.39c0,0.07,0,0.14-0.01,0.21s-0.01,0.13-0.02,0.2
			c-0.02,0.12-0.07,0.24-0.16,0.36c-0.05,0.07-0.11,0.13-0.17,0.17c-0.06,0.04-0.12,0.07-0.19,0.09c-0.06,0.02-0.12,0.03-0.19,0.04
			s-0.12,0.01-0.17,0.01h-2.54V33.53z M39.76,32.08h-0.25c-0.04,0-0.07,0-0.12,0s-0.08,0.01-0.13,0.02
			c-0.04,0.01-0.09,0.03-0.13,0.05c-0.04,0.02-0.08,0.06-0.11,0.1c-0.04,0.05-0.06,0.12-0.08,0.21c-0.02,0.09-0.02,0.21-0.02,0.37
			c0,0.09,0,0.18,0.01,0.27c0.01,0.08,0.03,0.16,0.08,0.23c0.02,0.04,0.05,0.07,0.08,0.09c0.03,0.02,0.06,0.04,0.1,0.06
			c0.04,0.02,0.09,0.03,0.14,0.03c0.05,0.01,0.11,0.01,0.18,0.01h0.25V32.08z M40.5,33.53c0.07,0,0.13,0,0.18-0.01
			c0.05-0.01,0.1-0.02,0.14-0.03c0.04-0.01,0.08-0.04,0.11-0.06c0.03-0.03,0.05-0.06,0.08-0.09c0.04-0.07,0.07-0.15,0.08-0.23
			s0.01-0.17,0.01-0.27c0-0.14-0.01-0.25-0.02-0.35s-0.04-0.17-0.09-0.23c-0.03-0.04-0.06-0.07-0.1-0.1
			c-0.04-0.02-0.08-0.04-0.13-0.05c-0.04-0.01-0.09-0.02-0.13-0.02s-0.08,0-0.12,0h-0.25v1.44H40.5z"/>
		<path class="st53" d="M41.98,34.25h0.95c0.03,0,0.06,0,0.09,0c0.03,0,0.07-0.01,0.11-0.01c0.08-0.01,0.15-0.04,0.21-0.08
			c0.07-0.06,0.12-0.15,0.13-0.25h-0.8c-0.06,0-0.12,0-0.18-0.01c-0.06,0-0.12-0.02-0.18-0.04c-0.06-0.02-0.12-0.05-0.17-0.08
			c-0.05-0.04-0.1-0.09-0.15-0.15c-0.12-0.17-0.17-0.46-0.17-0.84c0-0.17,0.01-0.33,0.04-0.46c0.03-0.14,0.1-0.26,0.19-0.36
			c0.05-0.06,0.11-0.1,0.16-0.13s0.12-0.06,0.17-0.07c0.06-0.02,0.12-0.03,0.18-0.03c0.06,0,0.12,0,0.17,0h0.72
			c0.07,0,0.13,0,0.19,0.01s0.12,0.03,0.17,0.07c0.06,0.05,0.09,0.1,0.11,0.16c0.02,0.06,0.02,0.11,0.02,0.16v1.41h0.29v0.37h-0.3
			c-0.01,0.09-0.03,0.17-0.05,0.25c-0.03,0.08-0.06,0.15-0.12,0.21c-0.05,0.06-0.11,0.11-0.18,0.14c-0.07,0.04-0.14,0.06-0.21,0.08
			c-0.07,0.02-0.14,0.03-0.2,0.03c-0.06,0-0.12,0.01-0.16,0.01h-1.06V34.25z M43.47,32.25c0-0.03,0-0.06-0.01-0.08
			s-0.02-0.04-0.05-0.06c-0.02-0.01-0.04-0.02-0.06-0.03c-0.02,0-0.04-0.01-0.07-0.01h-0.42c-0.08,0-0.16,0.01-0.23,0.04
			s-0.12,0.06-0.16,0.1c-0.03,0.04-0.06,0.09-0.08,0.14c-0.02,0.06-0.03,0.11-0.04,0.17c-0.01,0.06-0.01,0.11-0.01,0.16
			c0,0.05,0,0.09,0,0.11c0,0.1,0,0.18,0.01,0.25s0.02,0.13,0.03,0.17c0.01,0.05,0.03,0.08,0.04,0.11s0.03,0.05,0.04,0.06
			c0.06,0.06,0.12,0.1,0.2,0.11c0.04,0.01,0.08,0.01,0.11,0.01c0.04,0,0.08,0,0.11,0h0.59V32.25z"/>
		<path class="st53" d="M44.22,33.89v-0.37h0.05c0.09,0,0.17-0.01,0.22-0.03c0.06-0.02,0.1-0.05,0.14-0.1
			c0.04-0.05,0.06-0.11,0.07-0.17c0.01-0.06,0.02-0.13,0.02-0.2c0-0.01,0-0.02,0-0.03c0-0.01,0-0.02,0-0.03h0v-1.26h0.49v1.26
			l0.01,0.3c0.02,0.06,0.04,0.1,0.08,0.14c0.04,0.03,0.08,0.06,0.12,0.08c0.05,0.02,0.09,0.03,0.15,0.04
			c0.05,0.01,0.1,0.01,0.14,0.01h0.05v0.37h-0.2c-0.05,0-0.1,0-0.15,0c-0.05,0-0.1-0.01-0.15-0.02s-0.1-0.03-0.15-0.05
			c-0.05-0.02-0.09-0.05-0.14-0.09c-0.04,0.04-0.09,0.07-0.14,0.09s-0.1,0.04-0.15,0.05c-0.05,0.01-0.1,0.02-0.16,0.02
			s-0.11,0-0.17,0H44.22z M44.42,34.61v-0.38h0.49v0.38H44.42z M45.08,34.61v-0.38h0.49v0.38H45.08z"/>
		<path class="st53" d="M45.72,33.89v-0.37h0.24c0.09,0,0.17-0.01,0.22-0.03c0.06-0.02,0.1-0.05,0.14-0.1
			c0.04-0.05,0.07-0.11,0.08-0.18c0.01-0.07,0.02-0.14,0.02-0.21v-1.29h0.49v1.44c0,0.08-0.01,0.14-0.02,0.2
			c-0.01,0.06-0.03,0.11-0.05,0.16c-0.02,0.05-0.04,0.09-0.07,0.12c-0.03,0.03-0.05,0.06-0.08,0.09c-0.05,0.04-0.09,0.07-0.14,0.09
			c-0.05,0.02-0.1,0.04-0.15,0.05s-0.11,0.02-0.16,0.02c-0.06,0-0.11,0-0.17,0H45.72z M46.1,34.61v-0.38h0.49v0.38H46.1z"/>
		<path class="st53" d="M48.94,33.9c-0.06,0-0.12,0-0.18-0.01c-0.07-0.01-0.13-0.03-0.2-0.06c-0.07-0.03-0.13-0.08-0.19-0.13
			c-0.06-0.06-0.11-0.13-0.15-0.23c-0.01-0.03-0.03-0.07-0.04-0.11c-0.01-0.04-0.02-0.09-0.04-0.15c-0.01-0.06-0.02-0.12-0.02-0.19
			c-0.01-0.07-0.01-0.15-0.01-0.24c0-0.06,0-0.12,0.01-0.18c0-0.06,0.01-0.13,0.02-0.19c0.01-0.06,0.03-0.13,0.05-0.19
			c0.02-0.06,0.05-0.12,0.09-0.17c0.05-0.08,0.12-0.14,0.18-0.18c0.07-0.04,0.14-0.08,0.21-0.1c0.07-0.02,0.14-0.03,0.2-0.04
			c0.06,0,0.12-0.01,0.16-0.01h0.66v-0.25h0.5v2.07h0.45v0.37H48.94z M48.69,33.28c0.02,0.06,0.05,0.1,0.09,0.13
			c0.04,0.03,0.08,0.06,0.12,0.07c0.04,0.02,0.08,0.03,0.12,0.03c0.04,0.01,0.08,0.01,0.12,0.01h0.56c0-0.02,0-0.04,0-0.06
			c0-0.02,0-0.04,0-0.06c0-0.02,0-0.03,0-0.05c0-0.01,0-0.02,0-0.02v-1.26h-0.57c-0.03,0-0.07,0-0.11,0.01s-0.07,0.01-0.11,0.03
			c-0.04,0.01-0.07,0.03-0.11,0.06s-0.06,0.06-0.09,0.1c-0.01,0.02-0.02,0.04-0.04,0.07s-0.02,0.06-0.03,0.1s-0.02,0.09-0.02,0.14
			c-0.01,0.06-0.01,0.12-0.01,0.19c0,0.09,0,0.16,0.01,0.22s0.01,0.11,0.02,0.14c0.01,0.04,0.01,0.07,0.02,0.09
			C48.68,33.25,48.68,33.27,48.69,33.28z M48.73,31.09V30.7h0.49v0.38H48.73z M49.4,31.09V30.7h0.49v0.38H49.4z"/>
		<path class="st53" d="M51.26,32.03c0,0.07,0.02,0.13,0.06,0.18s0.11,0.08,0.22,0.1h1.45c0.11,0,0.21,0.02,0.29,0.05
			c0.08,0.03,0.14,0.08,0.19,0.15c0.05,0.07,0.08,0.15,0.11,0.24c0.02,0.1,0.04,0.21,0.04,0.33c0,0,0,0,0,0.01c0,0,0,0,0,0
			c0,0,0,0.01,0,0.02c0,0.01,0,0.02,0,0.03c0,0.01,0,0.02,0,0.03v0.02c0,0.12-0.02,0.23-0.04,0.32c-0.02,0.09-0.06,0.16-0.11,0.22
			c-0.05,0.06-0.11,0.1-0.19,0.12c-0.08,0.03-0.17,0.04-0.29,0.04h-2.4v-0.37h2.2c0.06,0,0.11-0.01,0.15-0.03
			c0.04-0.02,0.07-0.05,0.09-0.09s0.04-0.08,0.05-0.14c0.01-0.05,0.01-0.11,0.02-0.17c0-0.06-0.01-0.12-0.02-0.17
			c-0.01-0.05-0.02-0.1-0.05-0.13c-0.02-0.04-0.05-0.07-0.09-0.09c-0.04-0.02-0.09-0.03-0.15-0.03h-1.25
			c-0.14,0-0.26-0.02-0.36-0.06c-0.09-0.04-0.17-0.09-0.22-0.15c-0.05-0.06-0.09-0.13-0.11-0.21c-0.02-0.08-0.03-0.15-0.02-0.22
			c0-0.07,0.01-0.14,0.03-0.22c0.02-0.07,0.05-0.14,0.09-0.2c0.04-0.06,0.1-0.12,0.17-0.17c0.07-0.05,0.17-0.09,0.28-0.11L52.88,31
			v0.37l-1.31,0.33c-0.06,0.02-0.11,0.03-0.14,0.06c-0.04,0.02-0.07,0.05-0.09,0.08c-0.02,0.03-0.04,0.06-0.05,0.09
			C51.27,31.97,51.27,32,51.26,32.03z"/>
		<path class="st53" d="M53.8,34.26c0.07,0,0.13,0,0.18,0s0.09-0.01,0.13-0.01c0.04-0.01,0.07-0.02,0.1-0.03
			c0.03-0.01,0.06-0.03,0.09-0.05c0.03-0.02,0.05-0.04,0.08-0.07c0.02-0.02,0.04-0.05,0.05-0.08c0.01-0.03,0.03-0.07,0.03-0.12
			c0.01-0.04,0.01-0.09,0.01-0.15v-2.03h0.49v1.81h0.37v0.37h-0.37c0,0.09-0.02,0.16-0.04,0.23c-0.02,0.06-0.05,0.12-0.08,0.16
			c-0.03,0.05-0.06,0.08-0.09,0.11c-0.03,0.03-0.06,0.05-0.08,0.07c-0.09,0.06-0.21,0.11-0.35,0.13c-0.14,0.03-0.32,0.04-0.53,0.03
			V34.26z"/>
		<path class="st53" d="M56.13,33.53h0.85v-1.81h0.5v1.81h0.46c0.02,0,0.05,0,0.07,0s0.05-0.01,0.08-0.01
			c0.03-0.01,0.05-0.02,0.08-0.03c0.03-0.01,0.05-0.03,0.07-0.06c0.02-0.02,0.04-0.05,0.05-0.07c0.01-0.03,0.02-0.05,0.03-0.08
			s0.01-0.05,0.01-0.08c0-0.03,0-0.05,0-0.08v-1.4h0.49v1.48c0,0.11-0.02,0.21-0.05,0.3c-0.03,0.09-0.08,0.17-0.15,0.23
			c-0.04,0.04-0.09,0.07-0.14,0.09c-0.05,0.02-0.1,0.04-0.15,0.05c-0.05,0.01-0.1,0.02-0.15,0.03s-0.09,0.01-0.14,0.01h-2.79v-0.37
			h0.36v-1.81h0.5V33.53z M56.22,31.09V30.7h0.49v0.38H56.22z M56.89,31.09V30.7h0.49v0.38H56.89z M57.56,31.09V30.7h0.49v0.38
			H57.56z"/>
	</g>
</g>
</svg>
