<?xml version="1.0" encoding="utf-8"?>
<!-- Generator: Adobe Illustrator 25.0.1, SVG Export Plug-In . SVG Version: 6.00 Build 0)  -->
<svg version="1.0" id="Layer_1" xmlns="http://www.w3.org/2000/svg" xmlns:xlink="http://www.w3.org/1999/xlink" x="0px" y="0px"
	 viewBox="0 0 69 51.38" style="enable-background:new 0 0 69 51.38;" xml:space="preserve">
<style type="text/css">
	.st0{fill:#000104;}
	.st1{fill:#FFFFFF;}
	.st2{fill:#EF493E;}
	.st3{opacity:0.6;fill-rule:evenodd;clip-rule:evenodd;fill:#FBBE43;}
	.st4{opacity:0.6;fill-rule:evenodd;clip-rule:evenodd;fill:#EF930E;}
	.st5{opacity:0.6;fill-rule:evenodd;clip-rule:evenodd;fill:#E67906;}
	.st6{fill:#9F8829;}
	.st7{fill:#3972A6;}
	.st8{fill:url(#SVGID_1_);stroke:#2B53A4;stroke-width:0.5;stroke-miterlimit:10;}
	.st9{fill:none;}
	.st10{fill:url(#SVGID_2_);}
	.st11{fill:url(#SVGID_3_);}
	.st12{fill:#B3B3B3;}
	.st13{fill:url(#SVGID_4_);}
	.st14{fill:url(#SVGID_5_);}
	.st15{fill:url(#SVGID_6_);}
	.st16{fill:#FFFFFF;stroke:#FFFFFF;stroke-width:0.25;stroke-miterlimit:10;}
	.st17{fill:#00001D;}
	.st18{fill:#4DA0C5;}
	.st19{fill:url(#SVGID_7_);}
	.st20{fill:#2E6A85;}
	.st21{fill:none;stroke:#144FA1;stroke-width:0.113;stroke-linejoin:round;stroke-miterlimit:10;}
	.st22{fill:#F27337;}
	.st23{fill:#8EB8D4;}
	.st24{fill:#F38056;}
	.st25{fill:#626365;}
	.st26{fill:#EF6D23;}
	.st27{fill:#284B82;}
	.st28{fill:#242956;}
	.st29{fill:#15142A;}
	.st30{fill:#84C343;}
	.st31{fill:#4CA1C6;}
	.st32{fill:#121617;}
	.st33{fill:#CF8966;}
	.st34{fill:#F37639;}
	.st35{opacity:0.3;fill:url(#SVGID_8_);}
	.st36{fill:#373277;}
	.st37{fill:#E61E25;}
	.st38{fill:#2555A5;}
	.st39{fill:#2E225E;}
	.st40{fill:#F8A425;}
	.st41{fill:#2058A7;}
	.st42{fill:none;stroke:#205AA8;stroke-width:0.156;stroke-miterlimit:10;}
	.st43{fill:#49A3C7;}
	.st44{fill-rule:evenodd;clip-rule:evenodd;}
	.st45{fill-rule:evenodd;clip-rule:evenodd;fill:url(#SVGID_9_);}
	.st46{fill-rule:evenodd;clip-rule:evenodd;fill:url(#SVGID_10_);}
	.st47{fill-rule:evenodd;clip-rule:evenodd;fill:url(#SVGID_11_);}
	.st48{fill:#1D2251;}
	.st49{fill:#2260AC;}
	.st50{fill:url(#SVGID_12_);}
	.st51{fill:#FFFFFC;}
	.st52{fill:#4C9FC5;}
	.st53{fill:#28306D;}
	.st54{fill:#4C9EC5;}
	.st55{fill:#28306E;}
	.st56{fill:#29306F;}
	.st57{fill:#F7F7FB;}
	.st58{fill:url(#SVGID_13_);}
	.st59{fill:url(#SVGID_14_);}
	.st60{fill:url(#SVGID_15_);}
	.st61{fill:url(#SVGID_16_);}
	.st62{fill:#10123C;}
	.st63{fill:#F5842C;}
	.st64{fill:#1F305E;}
	.st65{fill:#87BBD1;}
	.st66{fill:#203160;}
	.st67{fill:#235779;}
	.st68{fill:#359FA1;}
	.st69{fill:#A4D1A4;}
	.st70{fill:#B9DBBC;}
	.st71{fill:#C6DDCA;}
	.st72{fill:#662E14;}
	.st73{fill:#1D79A4;}
	.st74{fill:#C14B28;}
	.st75{fill:url(#SVGID_17_);}
	.st76{fill:url(#SVGID_18_);}
	.st77{fill:url(#SVGID_19_);}
	.st78{fill:url(#SVGID_20_);}
	.st79{fill:url(#SVGID_21_);}
	.st80{fill:url(#SVGID_22_);}
	.st81{fill:url(#SVGID_23_);}
	.st82{fill:url(#SVGID_24_);}
	.st83{fill:url(#SVGID_25_);}
	.st84{fill:url(#SVGID_26_);}
	.st85{fill:url(#SVGID_27_);}
	.st86{fill:url(#SVGID_28_);}
	.st87{fill:url(#SVGID_29_);}
	.st88{fill:url(#SVGID_30_);}
	.st89{fill:#1F164B;}
	.st90{clip-path:url(#SVGID_32_);fill:#253D97;}
	.st91{fill:url(#SVGID_33_);}
	.st92{fill:url(#SVGID_34_);}
	.st93{fill:url(#SVGID_35_);}
	.st94{fill:url(#SVGID_36_);}
	.st95{fill:url(#SVGID_37_);}
	.st96{fill:url(#SVGID_38_);}
	.st97{fill:url(#SVGID_39_);}
	.st98{fill:url(#SVGID_40_);}
	.st99{fill:url(#SVGID_41_);}
	.st100{fill:#443F41;}
	.st101{fill:#28306F;}
	.st102{fill:#71C49D;}
	.st103{fill:#F0C6A7;}
	.st104{fill:#DB8D82;}
	.st105{fill:#EFB7AC;}
	.st106{opacity:0.21;}
	.st107{fill-rule:evenodd;clip-rule:evenodd;fill:#A9196E;}
	.st108{fill-rule:evenodd;clip-rule:evenodd;fill:#FBE42C;}
	.st109{fill:#FBE42C;}
	.st110{fill:#A9196E;}
	.st111{fill:#7FC143;}
	.st112{clip-path:url(#SVGID_45_);fill:#7FC143;}
	.st113{clip-path:url(#SVGID_51_);fill:#7FC143;}
	.st114{fill:#243F8F;}
	.st115{fill:#EF4E2F;}
	.st116{fill:#010007;}
	.st117{fill:#0C0D37;}
	.st118{fill:#FBAF2D;}
	.st119{fill:url(#SVGID_54_);}
	.st120{fill-rule:evenodd;clip-rule:evenodd;fill:#FFFFFF;}
	.st121{fill:#1D4690;}
	.st122{fill:#3AA949;}
	.st123{fill:#F37A24;}
	.st124{fill:none;stroke:#F37A24;stroke-width:3.7145;stroke-miterlimit:10;}
	.st125{fill:#3AA949;stroke:#FFFFFF;stroke-width:1.3104;stroke-miterlimit:10;}
	.st126{fill:#46A2BB;}
	.st127{fill:#7153A0;}
	.st128{fill:#27316C;}
	.st129{fill:#2C65AE;}
	.st130{fill:#452D7A;}
	.st131{fill:#442C7A;}
	.st132{fill:#1A2642;}
	.st133{fill-rule:evenodd;clip-rule:evenodd;fill:#567EB8;}
	.st134{fill-rule:evenodd;clip-rule:evenodd;fill:#6A7EB8;}
	.st135{fill-rule:evenodd;clip-rule:evenodd;fill:#6A7EB9;}
	.st136{fill-rule:evenodd;clip-rule:evenodd;fill:#EE3C2D;}
	.st137{fill-rule:evenodd;clip-rule:evenodd;fill:#EF493F;}
	.st138{fill-rule:evenodd;clip-rule:evenodd;fill:#ED2C24;}
	.st139{fill-rule:evenodd;clip-rule:evenodd;fill:#E9AE28;}
	.st140{fill-rule:evenodd;clip-rule:evenodd;fill:#D69B28;}
	.st141{fill-rule:evenodd;clip-rule:evenodd;fill:#FCB729;}
	.st142{fill-rule:evenodd;clip-rule:evenodd;fill:#409E47;}
	.st143{fill-rule:evenodd;clip-rule:evenodd;fill:#4BB450;}
	.st144{fill-rule:evenodd;clip-rule:evenodd;fill:#338440;}
	.st145{fill:#C09C36;}
	.st146{fill:#1E552A;}
	.st147{clip-path:url(#SVGID_56_);fill:url(#SVGID_57_);}
	.st148{fill:#023A1E;}
	.st149{fill:#FFFFFA;}
	.st150{fill:#0D4F28;}
	.st151{fill:#0E5128;}
	.st152{fill:#0D4E27;}
	.st153{fill:#0E5229;}
	.st154{fill:#0E4823;}
	.st155{fill:#0E4C27;}
	.st156{fill:#F3F6E0;}
	.st157{fill:#0E4F28;}
	.st158{fill:#114823;}
	.st159{fill:#105229;}
	.st160{fill:#0A4A2B;}
	.st161{fill:#134F27;}
	.st162{fill:#165229;}
	.st163{fill:#0D5029;}
	.st164{fill:#0B4E2B;}
	.st165{fill:#105028;}
	.st166{fill:#0A492A;}
	.st167{fill:#E9F3E2;}
	.st168{fill:#144D26;}
	.st169{fill:#185C2F;}
	.st170{fill:#0F5028;}
	.st171{fill:#F3F8EA;}
	.st172{fill:#114D26;}
	.st173{fill:#70A685;}
	.st174{fill:#0D4F2A;}
	.st175{fill:#094A24;}
	.st176{fill:#0F4F27;}
	.st177{fill:#0A4C26;}
	.st178{fill:#A2D29A;}
	.st179{fill:#4D7E44;}
	.st180{fill:#E8F2E1;}
	.st181{fill:#EDF5E5;}
	.st182{fill:#E6F2E7;}
	.st183{fill:#E5F1DC;}
	.st184{fill:#E9F3E3;}
	.st185{fill:#E9F3E5;}
	.st186{fill:#E5F1DB;}
	.st187{fill:#D8ECD7;}
	.st188{fill:#D9EBD4;}
	.st189{fill:#E2F0DE;}
	.st190{fill:#366B4B;}
	.st191{fill:#5D6162;}
	.st192{fill:#212E5F;}
	.st193{fill:#DD1F26;}
	.st194{clip-path:url(#SVGID_59_);}
	.st195{fill:#23396F;}
	.st196{fill:#7FC24E;}
	.st197{clip-path:url(#SVGID_59_);fill:#23396F;}
	.st198{clip-path:url(#SVGID_59_);fill:#7FC24E;}
	.st199{fill:#91CEA4;}
	.st200{fill:#90CEA4;}
	.st201{fill:#C02026;}
	.st202{fill:#362E7E;}
</style>
<g>
	<path class="st44" d="M32.4,33.14c-0.14-0.04-0.25-0.17-0.36-0.25c-0.36-0.27-0.6-0.75-0.73-1.17c-0.07-0.21-0.1-0.47-0.12-0.71
		c-0.01-0.16,0.03-0.61,0.06-0.76c0.02-0.12,0.04-0.22,0.07-0.33c0.08-0.32,0.2-0.63,0.32-0.94c0.28-0.68,0.8-1.52,1.25-2.11
		c0.47-0.61,0.8-1,1.36-1.55c0.89-0.87,2.48-1.78,3.73-1.77c0.82,0,1.57-0.02,2.32,0.24c2.24,0.76,1.75,2.8,1.15,4.54
		c-0.57,1.66-1.39,3.06-2.67,4.04c-0.85,0.66-1.81,1.03-2.91,1.29c-0.36,0.08-0.73,0.11-1.09,0.16c-0.14,0.02-0.27,0.04-0.4,0.03
		c-0.27,0-0.17,0.1-0.18,0.68c0,0.27,0.14,0.18,0.61,0.12c2.99-0.42,6.38-1,8.32-3.51c0.56-0.73,0.99-1.79,1.05-2.71
		c0.06-0.87,0.1-0.97-0.06-1.92c-0.61-3.63-4.03-4.01-7.13-3.58c-1.27,0.18-2.52,0.56-3.64,1.11c-1.46,0.71-2.83,1.77-3.83,3.03
		c-0.04,0.05-0.06,0.07-0.1,0.13c-0.05,0.08-0.11,0.16-0.16,0.25c-0.27,0.48-0.47,0.96-0.59,1.51c-0.27,1.32,0.28,2.76,1.11,3.75
		c0.58,0.68,1.89,1.79,2.85,0.94c0.36-0.32,0.06-0.92-0.05-1.29c-0.21-0.71-0.23-1.51-0.12-2.22c0.07-0.45,0.21-0.93,0.38-1.29
		c0.09-0.19,0.19-0.36,0.3-0.53c0.06-0.09,0.12-0.15,0.19-0.24c0.31-0.39,2.01-1.24,2.43-1.39c0.52-0.18,1.1-0.33,1.72-0.38
		c0.24-0.02,0.56-0.1,0.79-0.06c0.14,0.02,0.22,0.07,0.37,0.07c-0.01,0.09-0.18,0.35-0.23,0.45c-0.55,1.07-0.25,2.28-0.37,3.04
		c-0.17,1.05-0.75,2.01-1.49,2.73c-0.15,0.15-0.22,0.19-0.42,0.27c-0.52,0.2-1.25,0.39-1.82,0.2c-0.36-0.12-0.56-0.36-0.67-0.72
		c-0.25-0.81,0.12-1.77,0.61-2.41l0.31-0.4c0.22-0.27,0.77-0.83,1.05-1.05c0.59-0.45,0.92-0.75,1.62-1.2
		c0.16-0.1,0.56-0.29,0.65-0.42c-0.58,0-1.44,0.46-1.92,0.81c-0.09,0.06-0.15,0.11-0.23,0.17l-0.43,0.36
		c-0.02,0.02-0.02,0.02-0.04,0.03l-0.55,0.54c-0.41,0.4-1.07,1.3-1.29,1.82c-0.36,0.85-0.54,1.59,0.03,2.4
		c0.04,0.06,0.05,0.06,0.09,0.11c0.17,0.19,0.32,0.31,0.57,0.42c0.43,0.19,0.9,0.08,1.28-0.06l1.1-0.48
		c0.98-0.48,1.63-1.02,1.82-2.11l0.19-2.14c0-0.44,0.06-1.02,0.13-1.43c0.07-0.39,0.19-0.92,0.57-1c-0.14-0.19-1.11-0.42-1.49-0.43
		c-2.16-0.02-4.58,1.25-5.38,3.27c-0.09,0.23-0.17,0.48-0.23,0.73c-0.21,0.98-0.13,2.17,0.21,3.11C32.37,33,32.39,33.07,32.4,33.14"
		/>
	<path class="st44" d="M32.78,42.45v0.03c0.52,0,1.01-0.07,1.5-0.14c0.18-0.03,0.33-0.05,0.48-0.08c1.67-0.33,3.3-0.97,4.72-1.89
		c0.22-0.15,0.44-0.29,0.64-0.45c0.11-0.08,0.19-0.15,0.3-0.23l0.59-0.5c0.18-0.13,0.33-0.29,0.49-0.45
		c0.34-0.35,0.69-0.67,1.01-1.04c0.05-0.06,0.07-0.09,0.13-0.15c0.66-0.69,2-2.47,2.67-3.35l2.3-3.16c0.16-0.21,0.3-0.41,0.46-0.63
		c0.16-0.21,0.31-0.42,0.46-0.63c0.07-0.11,0.14-0.21,0.21-0.32l0.21-0.35c0.14-0.23,0.26-0.48,0.34-0.75
		c0.05-0.15,0.07-0.27,0.12-0.41c0.09-0.26,0.2-0.5,0.34-0.75c0.08-0.14,0.13-0.22,0.22-0.33c0.38-0.48,0.87-0.8,1.54-0.8
		c0.66,0,1.24,0.65,2.26,0.65c0.25,0,0.46-0.14,0.46-0.38c0-1.22-1.61-1.05-2.46-0.89c-0.28,0.05-0.86,0.2-0.86-0.16
		c0-0.11,0.52-0.85,0.62-1l0.84-1.36c0.31-0.52,0.63-1.03,0.91-1.57l1.16-2.12c0.04-0.07,0.06-0.11,0.09-0.18
		c0.07-0.13,0.12-0.22,0.19-0.34l0.97-1.79c0.26-0.44,0.14-0.28,0.44-0.65c0.18-0.23,0.45-0.51,0.68-0.69l0.48-0.36
		c0.47-0.3,0.8-0.39,1.3-0.14c0,0.36,0.16,0.96,0.38,1.23c0.03,0.03,0.11,0.12,0.14,0.14c0.58,0.42,1.73-1.09,0.64-1.85
		c-0.53-0.37-1.17-0.36-1.79-0.24c-0.25,0.05-0.45,0.11-0.65,0.19l-0.43,0.18c-0.06,0.03-0.09,0.05-0.15,0.08
		c-0.75,0.36-1.32,0.92-1.88,1.5c-0.07,0.07-0.13,0.16-0.19,0.24l-0.37,0.47c-0.5,0.62-0.97,1.28-1.42,1.94l-0.86,1.27
		c-0.24,0.33-0.45,0.69-0.66,1.03l-1.23,2.13c-0.21,0.41-0.46,0.8-0.69,1.21l-0.69,1.2c-0.05,0.09-0.11,0.18-0.16,0.27l-0.93,1.6
		c-0.06,0.1-0.09,0.17-0.16,0.27l-1.57,2.63c-0.16,0.27-0.32,0.53-0.52,0.77c-0.51,0.63-0.97,1.3-1.42,1.97l-2.5,3.39
		c-0.26,0.33-1.18,1.49-1.54,1.83c-0.29,0.28-0.54,0.59-0.85,0.85c-0.24,0.19-0.46,0.38-0.73,0.54c-0.1,0.06-0.19,0.09-0.28,0.15
		c-0.17,0.11-0.32,0.24-0.5,0.36l-1.57,0.95c-0.11,0.05-0.18,0.09-0.29,0.14c-0.1,0.06-0.2,0.09-0.29,0.14
		C34.77,42.04,33.6,42.45,32.78,42.45"/>
	<path class="st44" d="M56.79,25.66c-0.33,0-0.44-0.05-0.57-0.05c0.01,0.15,0.07,0.35,0.08,0.5h2.34c-0.04,0.44-0.67,1.43-0.91,1.79
		l-1.1,1.6c-0.24,0.35-0.69,0.97-0.96,1.29c-0.41,0.49-0.95,1.28-1.39,1.8l-1.41,1.76c-0.04,0.05-0.06,0.07-0.1,0.12
		c-0.06,0.07-0.07,0.05-0.09,0.14c0.61,0,2.07,0.04,2.63-0.02c0.29-0.03,0.57,0,0.86-0.04l0.8-0.07c0.47-0.06,1.89-0.24,1.89-0.77
		c0-0.06-0.01-0.03-0.03-0.1c-0.27,0-1.21,0.13-1.52,0.17c-0.38,0.05-1.2,0.11-1.59,0.11l-0.52-0.04c-0.15-0.02-0.34-0.02-0.43-0.14
		c0.05-0.2,0.52-0.45,0.72-0.55c0.37-0.19,0.78-0.58,1.05-0.9c0,0,0.01-0.01,0.01-0.01l1.05-1.23c0.62-0.81,1.18-1.65,1.75-2.5
		c0.06-0.09,0.12-0.18,0.17-0.26c0.11-0.18,0.21-0.33,0.32-0.51l0.32-0.54c0.11-0.19,0.57-0.9,0.62-1.1l2.21,0
		c0.35,0,0.26-0.05,0.26-0.38c0-0.09-0.04-0.07-0.1-0.06c-0.09,0.01-0.1,0.02-0.2,0.04c-0.13,0.02-0.25,0.04-0.4,0.06
		c-0.27,0.04-1.27,0.17-1.54-0.05c-0.04-0.03-0.06-0.05-0.06-0.11c0-0.06,0-0.03,0.01-0.08c0.06-0.32,0.24-0.6,0.38-0.89
		c0.03-0.05,0.03-0.07,0.06-0.12l0.12-0.23c0.37-0.67,0.71-1.34,1.11-2l1.64-2.74c0.16-0.27,0.78-1.22,0.82-1.38
		c-0.41,0.09-0.97,0.64-1.24,0.95l-1.26,1.45c-0.52,0.63-1,1.3-1.49,1.95c-0.36,0.47-0.68,0.95-1.01,1.44
		c-0.2,0.29-0.36,0.62-0.61,0.86c-0.27,0.27-0.58,0.41-0.95,0.55C57.98,25.57,57.36,25.66,56.79,25.66"/>
	<path class="st44" d="M44.66,39.12h0.41v-1.38h1.57v1.38h0.41v-2.98h-0.41v1.15c0,0.06-0.02,0.07-0.08,0.07h-1.49v-1.23h-0.41
		V39.12z"/>
	<path class="st44" d="M51.42,36.22v2.9h0.39v-0.2c0.23,0.15,0.15,0.25,0.69,0.25c0.43,0,0.85-0.49,0.85-1V37.9
		c0-0.82-0.79-1.13-1.27-0.91c-0.14,0.06-0.14,0.12-0.25,0.19l0-0.83c0-0.23,0.04-0.2-0.34-0.2C51.43,36.15,51.42,36.16,51.42,36.22
		 M52.34,37.25c0.69,0,0.71,0.91,0.49,1.33c-0.23,0.43-0.94,0.39-1.02-0.26c-0.03-0.27-0.04-0.59,0.11-0.81
		C52,37.39,52.14,37.25,52.34,37.25z"/>
	<path class="st44" d="M47.53,37.97c0,0.35,0,0.65,0.27,0.91l0.11,0.1c0.36,0.3,1.45,0.35,1.65-0.51c-0.14-0.01-0.25-0.05-0.41-0.05
		c-0.15,0.62-1.21,0.62-1.21-0.28h1.62c0-0.48-0.05-0.9-0.56-1.13C48.44,36.74,47.53,37.02,47.53,37.97 M48.51,37.25
		c0.23,0,0.29-0.01,0.5,0.19c0.09,0.09,0.14,0.22,0.15,0.38h-1.18C47.97,37.52,48.21,37.25,48.51,37.25z"/>
	<path class="st44" d="M37,37.55c0,0.78,1.39,0.55,1.39,0.98c0,0.36-0.41,0.33-0.59,0.33c-0.29,0-0.41-0.2-0.46-0.43
		c-0.16,0-0.25,0.04-0.39,0.05c0.02,0.2,0.12,0.39,0.24,0.49c0.36,0.33,1.61,0.35,1.61-0.52c0-0.43-0.49-0.53-0.85-0.63
		c-0.16-0.04-0.46-0.09-0.53-0.21c-0.12-0.19,0.12-0.36,0.32-0.36c0.18,0,0.33-0.02,0.46,0.1c0.11,0.1,0.07,0.13,0.13,0.25
		c0.04,0,0.35-0.04,0.37-0.08c0.03-0.06-0.08-0.32-0.24-0.44c-0.31-0.23-0.92-0.2-1.22,0C37.12,37.16,37,37.37,37,37.55"/>
	<path class="st44" d="M53.7,37.5c0,0.91,1.26,0.53,1.37,0.99c0.05,0.19-0.17,0.36-0.37,0.36c-0.24,0-0.66,0.01-0.67-0.43
		c-0.19,0-0.24,0.04-0.39,0.05c0,0.4,0.36,0.7,0.82,0.7c0.28,0,0.48,0.01,0.74-0.16c0.33-0.22,0.38-0.75,0.06-0.97
		c-0.32-0.22-1.18-0.26-1.18-0.5c0-0.42,0.66-0.33,0.82-0.19c0.06,0.05,0.1,0.14,0.11,0.24c0.12-0.01,0.25-0.05,0.39-0.05
		C55.38,36.68,53.7,36.75,53.7,37.5"/>
	<path class="st44" d="M34.86,37.97c0,0.39,0.01,0.6,0.24,0.89c0.31,0.39,1.1,0.43,1.46,0.04l0.14-0.21
		c0.04-0.09,0.09-0.2,0.09-0.31c-0.11-0.01-0.28-0.04-0.39-0.05c-0.01,0.24-0.2,0.53-0.44,0.53h-0.18c-0.3,0-0.51-0.32-0.51-0.63
		c0-0.28-0.03-0.54,0.15-0.78c0.19-0.25,0.72-0.3,0.9,0.06c0.03,0.07,0.03,0.11,0.06,0.17c0.15,0,0.25-0.05,0.39-0.05
		C36.68,36.68,34.86,36.58,34.86,37.97"/>
	<path class="st44" d="M32.91,36.5v0.48c-0.32,0-0.28-0.04-0.28,0.23c0,0.1,0.08,0.07,0.28,0.07c0,0.26-0.03,1.48,0.06,1.67
		c0.12,0.25,0.42,0.21,0.69,0.21c0.13,0,0.06-0.2,0.03-0.35c-0.15,0-0.36,0.02-0.36-0.13v-1.4h0.36v-0.3h-0.36V36.3
		c0-0.12-0.09-0.04-0.2,0.03C33.05,36.36,32.91,36.41,32.91,36.5"/>
	<path class="st44" d="M50.36,37.25v-0.27H50v2.15h0.41V37.9c0-0.83,0.59-0.52,0.69-0.5c0.01-0.15,0.1-0.22,0.1-0.35
		c0-0.03-0.45-0.32-0.76,0.09L50.36,37.25z"/>
	<rect x="34.01" y="36.97" class="st44" width="0.41" height="2.15"/>
	<path class="st44" d="M34.01,36.22c0,0.45-0.08,0.38,0.41,0.38v-0.45C34.15,36.15,34.01,36.11,34.01,36.22"/>
	<path class="st44" d="M17.46,17.65c0,0.52,0.02,0.87,0.23,1.36c0.11,0.28,0.25,0.5,0.4,0.76c0.34,0.54,0.76,0.99,1.22,1.41
		l0.32,0.27c0.07,0.05,0.1,0.09,0.17,0.14l1.13,0.93c0.67,0.5,1.3,1.06,1.95,1.58c0.78,0.64,2.01,1.73,2.47,2.55
		c0.15,0.27,0.26,0.48,0.35,0.81c0.2,0.72,0.13,1.74-0.07,2.43c-0.11,0.38-0.28,0.78-0.48,1.09c-1.04,1.62-3.09,2.49-4.98,2.91
		c-1.2,0.27-2.32,0.17-3.54,0.16c-0.84-0.01-2.83-0.3-3.65-0.55c-0.43-0.13-0.85-0.25-1.25-0.43c-0.78-0.34-1.45-0.77-1.93-1.4
		c-0.07-0.09-0.11-0.13-0.18-0.23c-0.54-0.8-0.81-1.37-0.81-2.42c0-0.89,0.59-1.94,1.35-2.39c0.58-0.34,1.21-0.55,1.91-0.62
		c0.59-0.05,1.18-0.13,1.79-0.04c0.2,0.03,0.39,0.02,0.59,0.05l0.83,0.12c0.1,0.01,0.19,0.04,0.28,0.05
		c-0.05-0.13-0.59-0.38-0.69-0.43c-0.96-0.42-1.79-0.65-2.88-0.65c-0.64,0-1.38,0.13-1.87,0.28c-0.74,0.23-1.58,0.55-2.22,0.99
		c-0.07,0.05-0.08,0.06-0.14,0.11c-0.03,0.03-0.03,0.02-0.07,0.06c0,0-0.01,0.01-0.01,0.01l-0.07,0.06
		c-0.27,0.29-0.46,0.59-0.61,0.98c-1.24,3.4,2.59,6.12,5.49,6.75l1.17,0.21c0.86,0.15,1.98,0.13,2.85,0.13
		c1.58,0,3.26-0.22,4.79-0.51c0.96-0.19,1.83-0.42,2.72-0.81l0.41-0.2c0.64-0.32,1.2-0.74,1.72-1.21l0.41-0.45
		c0.18-0.22,0.36-0.44,0.51-0.68l0.31-0.57c0.27-0.57,0.44-1.2,0.44-1.87c0-0.28,0.03-0.16,0-0.53c-0.02-0.22,0.01-0.37-0.03-0.57
		c-0.11-0.59-0.45-1.16-0.74-1.58c-0.33-0.48-0.72-0.91-1.12-1.34c-0.21-0.22-0.41-0.44-0.64-0.63c-0.01,0-0.02-0.02-0.03-0.02
		c-0.06-0.05-0.1-0.09-0.16-0.15l-0.31-0.27c-0.41-0.36-2.23-1.79-2.69-2.01c-0.28-0.13-0.5-0.26-0.76-0.41
		c-0.73-0.43-1.43-0.93-1.96-1.57c-0.53-0.64-0.93-1.52-0.57-2.34c0.47-1.07,1.48-1.51,2.62-1.73c0.72-0.14,1.77-0.21,2.56-0.17
		c0.12,0.01,0.14,0.03,0.28,0.03c0.23,0,0.91,0.07,1.12,0.12c0.53,0.13,1.27,0.43,1.63,0.82c0.24,0.25,0.21,0.44,0.21,0.77
		c0,0.18-0.12,0.37-0.23,0.45c-0.4,0.31-1.1,0.14-1.52,0c-0.1-0.03-0.17-0.08-0.28-0.08c0.05,0.21,0.14,0.45,0.23,0.63
		c0.14,0.27,0.32,0.55,0.57,0.75c0.08,0.07,0.16,0.13,0.25,0.18c0.27,0.14,0.53,0.2,0.87,0.2c0.69,0,2.06-0.58,2.06-1.43
		c0-0.48-0.23-0.91-0.55-1.22l-0.09-0.09c-0.85-0.94-2.06-1.33-3.3-1.57c-0.52-0.1-1.54-0.17-2.09-0.17c-0.48,0-1.31,0.07-1.78,0.17
		c-1.06,0.22-2.11,0.58-2.97,1.24c-0.47,0.37-0.73,0.75-0.9,1.33C17.51,17.29,17.46,17.52,17.46,17.65"/>
	<path class="st44" d="M27.31,37.22v-0.25h-0.36v2.15h0.41v-1.3c0-0.65,0.9-0.82,0.9-0.12v1.43h0.39c0-0.39-0.06-1.41,0.11-1.67
		c0.16-0.24,0.6-0.29,0.75-0.05c0.11,0.18,0.07,1.44,0.07,1.71h0.39v-1.55c0-0.68-0.73-0.76-1.1-0.55
		c-0.11,0.06-0.16,0.19-0.29,0.22c-0.14-0.26-0.29-0.33-0.64-0.33C27.56,36.92,27.43,37.14,27.31,37.22"/>
	<path class="st44" d="M19.34,37.45c0,0.51,0.02,0.88,0.34,1.29c0.33,0.41,0.71,0.44,1.2,0.44c0.62,0,1.12-0.56,1.16-1
		c-0.14-0.03-0.27-0.07-0.41-0.1c-0.05,0.1-0.09,0.35-0.26,0.52c-0.49,0.48-1.59,0.25-1.59-0.82c0-0.34-0.01-0.63,0.21-0.95
		c0.1-0.16,0.3-0.29,0.53-0.34c0.38-0.08,0.72,0,0.93,0.3c0.07,0.09,0.09,0.19,0.14,0.29c0.16-0.01,0.25-0.07,0.41-0.07
		c-0.04-0.46-0.58-0.9-1.21-0.9C19.92,36.1,19.34,36.74,19.34,37.45"/>
	<path class="st44" d="M30.36,37.92c0,0.36-0.01,0.67,0.29,0.97c0.52,0.52,1.68,0.3,1.74-0.42c-0.14-0.01-0.25-0.05-0.41-0.05
		c-0.13,0.53-0.81,0.54-1.05,0.2c-0.09-0.12-0.15-0.27-0.15-0.48h1.64c0-0.34-0.05-0.67-0.25-0.88c-0.08-0.09-0.18-0.18-0.29-0.24
		C31.22,36.69,30.36,37.15,30.36,37.92 M31.34,37.25c0.2,0,0.37,0.01,0.5,0.18c0.08,0.1,0.14,0.22,0.14,0.39H30.8
		C30.8,37.53,31.04,37.25,31.34,37.25z"/>
	<path class="st44" d="M22.32,38.05c0,0.59,0.34,1.13,0.93,1.13c0.41,0,0.65-0.01,0.94-0.36c0.08-0.1,0.14-0.21,0.18-0.35
		c0.02-0.09,0.06-0.38,0.06-0.46c-0.06-0.7-0.39-1.08-1.1-1.08C22.66,36.92,22.32,37.45,22.32,38.05 M23.48,38.85
		c-0.24,0-0.43,0.01-0.6-0.24c-0.2-0.29-0.32-1.36,0.55-1.36c0.6,0,0.72,0.93,0.46,1.33C23.83,38.67,23.63,38.85,23.48,38.85z"/>
	<path class="st44" d="M24.74,37.55c0,0.52,0.58,0.59,1.04,0.71c0.11,0.03,0.35,0.07,0.35,0.26c0,0.39-0.7,0.41-0.92,0.2
		c-0.07-0.07-0.12-0.18-0.13-0.3c-0.16,0-0.25,0.04-0.39,0.05c0,0.2,0.13,0.41,0.25,0.51c0.44,0.38,1.6,0.23,1.6-0.48
		c0-0.81-1.41-0.57-1.41-0.98c0-0.32,0.62-0.35,0.82-0.17c0.11,0.1,0.07,0.12,0.13,0.25c0.12-0.01,0.22-0.05,0.36-0.05
		C26.43,36.71,24.74,36.71,24.74,37.55"/>
	<path class="st44" d="M32.68,42.48c0.03,0.03,0.09-0.04,0.03-0.01C32.71,42.46,32.63,42.44,32.68,42.48"/>
</g>
</svg>
