<?xml version="1.0" encoding="utf-8"?>
<!-- Generator: Adobe Illustrator 25.0.1, SVG Export Plug-In . SVG Version: 6.00 Build 0)  -->
<svg version="1.0" id="Layer_1" xmlns="http://www.w3.org/2000/svg" xmlns:xlink="http://www.w3.org/1999/xlink" x="0px" y="0px"
	 viewBox="0 0 48.43 42.19" style="enable-background:new 0 0 48.43 42.19;" xml:space="preserve">
<style type="text/css">
	.st0{fill:#000104;}
	.st1{fill:#FFFFFF;}
	.st2{fill:#EF493E;}
	.st3{opacity:0.6;fill-rule:evenodd;clip-rule:evenodd;fill:#FBBE43;}
	.st4{opacity:0.6;fill-rule:evenodd;clip-rule:evenodd;fill:#EF930E;}
	.st5{opacity:0.6;fill-rule:evenodd;clip-rule:evenodd;fill:#E67906;}
	.st6{fill:#9F8829;}
	.st7{fill:#3972A6;}
	.st8{fill:url(#SVGID_1_);stroke:#2B53A4;stroke-width:0.5;stroke-miterlimit:10;}
	.st9{fill:none;}
	.st10{fill:url(#SVGID_2_);}
	.st11{fill:url(#SVGID_3_);}
	.st12{fill:#B3B3B3;}
	.st13{fill:url(#SVGID_4_);}
	.st14{fill:url(#SVGID_5_);}
	.st15{fill:url(#SVGID_6_);}
	.st16{fill:#FFFFFF;stroke:#FFFFFF;stroke-width:0.25;stroke-miterlimit:10;}
	.st17{fill:#00001D;}
	.st18{fill:#4DA0C5;}
	.st19{fill:url(#SVGID_7_);}
	.st20{fill:#2E6A85;}
	.st21{fill:none;stroke:#144FA1;stroke-width:0.113;stroke-linejoin:round;stroke-miterlimit:10;}
	.st22{fill:#F27337;}
	.st23{fill:#8EB8D4;}
	.st24{fill:#F38056;}
	.st25{fill:#626365;}
	.st26{fill:#EF6D23;}
	.st27{fill:#284B82;}
	.st28{fill:#242956;}
	.st29{fill:#15142A;}
	.st30{fill:#84C343;}
	.st31{fill:#4CA1C6;}
	.st32{fill:#121617;}
	.st33{fill:#CF8966;}
	.st34{fill:#F37639;}
	.st35{opacity:0.3;fill:url(#SVGID_8_);}
	.st36{fill:#373277;}
	.st37{fill:#E61E25;}
	.st38{fill:#2555A5;}
	.st39{fill:#2E225E;}
	.st40{fill:#F8A425;}
	.st41{fill:#2058A7;}
	.st42{fill:none;stroke:#205AA8;stroke-width:0.156;stroke-miterlimit:10;}
	.st43{fill:#49A3C7;}
	.st44{fill-rule:evenodd;clip-rule:evenodd;}
	.st45{fill-rule:evenodd;clip-rule:evenodd;fill:url(#SVGID_9_);}
	.st46{fill-rule:evenodd;clip-rule:evenodd;fill:url(#SVGID_10_);}
	.st47{fill-rule:evenodd;clip-rule:evenodd;fill:url(#SVGID_11_);}
	.st48{fill:#1D2251;}
	.st49{fill:#2260AC;}
	.st50{fill:url(#SVGID_12_);}
	.st51{fill:#FFFFFC;}
	.st52{fill:#4C9FC5;}
	.st53{fill:#28306D;}
	.st54{fill:#4C9EC5;}
	.st55{fill:#28306E;}
	.st56{fill:#29306F;}
	.st57{fill:#F7F7FB;}
	.st58{fill:url(#SVGID_13_);}
	.st59{fill:url(#SVGID_14_);}
	.st60{fill:url(#SVGID_15_);}
	.st61{fill:url(#SVGID_16_);}
	.st62{fill:#10123C;}
	.st63{fill:#F5842C;}
	.st64{fill:#1F305E;}
	.st65{fill:#87BBD1;}
	.st66{fill:#203160;}
	.st67{fill:#235779;}
	.st68{fill:#359FA1;}
	.st69{fill:#A4D1A4;}
	.st70{fill:#B9DBBC;}
	.st71{fill:#C6DDCA;}
	.st72{fill:#662E14;}
	.st73{fill:#1D79A4;}
	.st74{fill:#C14B28;}
	.st75{fill:url(#SVGID_17_);}
	.st76{fill:url(#SVGID_18_);}
	.st77{fill:url(#SVGID_19_);}
	.st78{fill:url(#SVGID_20_);}
	.st79{fill:url(#SVGID_21_);}
	.st80{fill:url(#SVGID_22_);}
	.st81{fill:url(#SVGID_23_);}
	.st82{fill:url(#SVGID_24_);}
	.st83{fill:url(#SVGID_25_);}
	.st84{fill:url(#SVGID_26_);}
	.st85{fill:url(#SVGID_27_);}
	.st86{fill:url(#SVGID_28_);}
	.st87{fill:url(#SVGID_29_);}
	.st88{fill:url(#SVGID_30_);}
	.st89{fill:#1F164B;}
	.st90{clip-path:url(#SVGID_32_);fill:#253D97;}
	.st91{fill:url(#SVGID_33_);}
	.st92{fill:url(#SVGID_34_);}
	.st93{fill:url(#SVGID_35_);}
	.st94{fill:url(#SVGID_36_);}
	.st95{fill:url(#SVGID_37_);}
	.st96{fill:url(#SVGID_38_);}
	.st97{fill:url(#SVGID_39_);}
	.st98{fill:url(#SVGID_40_);}
	.st99{fill:url(#SVGID_41_);}
	.st100{fill:#443F41;}
	.st101{fill:#28306F;}
	.st102{fill:#71C49D;}
	.st103{fill:#F0C6A7;}
	.st104{fill:#DB8D82;}
	.st105{fill:#EFB7AC;}
	.st106{opacity:0.21;}
	.st107{fill-rule:evenodd;clip-rule:evenodd;fill:#A9196E;}
	.st108{fill-rule:evenodd;clip-rule:evenodd;fill:#FBE42C;}
	.st109{fill:#FBE42C;}
	.st110{fill:#A9196E;}
	.st111{fill:#7FC143;}
	.st112{clip-path:url(#SVGID_45_);fill:#7FC143;}
	.st113{clip-path:url(#SVGID_51_);fill:#7FC143;}
	.st114{fill:#243F8F;}
	.st115{fill:#EF4E2F;}
	.st116{fill:#010007;}
	.st117{fill:#0C0D37;}
	.st118{fill:#FBAF2D;}
	.st119{fill:url(#SVGID_54_);}
	.st120{fill-rule:evenodd;clip-rule:evenodd;fill:#FFFFFF;}
	.st121{fill:#1D4690;}
	.st122{fill:#3AA949;}
	.st123{fill:#F37A24;}
	.st124{fill:none;stroke:#F37A24;stroke-width:3.7145;stroke-miterlimit:10;}
	.st125{fill:#3AA949;stroke:#FFFFFF;stroke-width:1.3104;stroke-miterlimit:10;}
	.st126{fill:#46A2BB;}
	.st127{fill:#7153A0;}
	.st128{fill:#27316C;}
	.st129{fill:#2C65AE;}
	.st130{fill:#452D7A;}
	.st131{fill:#442C7A;}
	.st132{fill:#1A2642;}
	.st133{fill-rule:evenodd;clip-rule:evenodd;fill:#567EB8;}
	.st134{fill-rule:evenodd;clip-rule:evenodd;fill:#6A7EB8;}
	.st135{fill-rule:evenodd;clip-rule:evenodd;fill:#6A7EB9;}
	.st136{fill-rule:evenodd;clip-rule:evenodd;fill:#EE3C2D;}
	.st137{fill-rule:evenodd;clip-rule:evenodd;fill:#EF493F;}
	.st138{fill-rule:evenodd;clip-rule:evenodd;fill:#ED2C24;}
	.st139{fill-rule:evenodd;clip-rule:evenodd;fill:#E9AE28;}
	.st140{fill-rule:evenodd;clip-rule:evenodd;fill:#D69B28;}
	.st141{fill-rule:evenodd;clip-rule:evenodd;fill:#FCB729;}
	.st142{fill-rule:evenodd;clip-rule:evenodd;fill:#409E47;}
	.st143{fill-rule:evenodd;clip-rule:evenodd;fill:#4BB450;}
	.st144{fill-rule:evenodd;clip-rule:evenodd;fill:#338440;}
	.st145{fill:#C09C36;}
	.st146{fill:#1E552A;}
	.st147{clip-path:url(#SVGID_56_);fill:url(#SVGID_57_);}
	.st148{fill:#023A1E;}
	.st149{fill:#FFFFFA;}
	.st150{fill:#0D4F28;}
	.st151{fill:#0E5128;}
	.st152{fill:#0D4E27;}
	.st153{fill:#0E5229;}
	.st154{fill:#0E4823;}
	.st155{fill:#0E4C27;}
	.st156{fill:#F3F6E0;}
	.st157{fill:#0E4F28;}
	.st158{fill:#114823;}
	.st159{fill:#105229;}
	.st160{fill:#0A4A2B;}
	.st161{fill:#134F27;}
	.st162{fill:#165229;}
	.st163{fill:#0D5029;}
	.st164{fill:#0B4E2B;}
	.st165{fill:#105028;}
	.st166{fill:#0A492A;}
	.st167{fill:#E9F3E2;}
	.st168{fill:#144D26;}
	.st169{fill:#185C2F;}
	.st170{fill:#0F5028;}
	.st171{fill:#F3F8EA;}
	.st172{fill:#114D26;}
	.st173{fill:#70A685;}
	.st174{fill:#0D4F2A;}
	.st175{fill:#094A24;}
	.st176{fill:#0F4F27;}
	.st177{fill:#0A4C26;}
	.st178{fill:#A2D29A;}
	.st179{fill:#4D7E44;}
	.st180{fill:#E8F2E1;}
	.st181{fill:#EDF5E5;}
	.st182{fill:#E6F2E7;}
	.st183{fill:#E5F1DC;}
	.st184{fill:#E9F3E3;}
	.st185{fill:#E9F3E5;}
	.st186{fill:#E5F1DB;}
	.st187{fill:#D8ECD7;}
	.st188{fill:#D9EBD4;}
	.st189{fill:#E2F0DE;}
	.st190{fill:#366B4B;}
	.st191{fill:#5D6162;}
	.st192{fill:#212E5F;}
	.st193{fill:#DD1F26;}
	.st194{clip-path:url(#SVGID_59_);}
	.st195{fill:#23396F;}
	.st196{fill:#7FC24E;}
	.st197{clip-path:url(#SVGID_59_);fill:#23396F;}
	.st198{clip-path:url(#SVGID_59_);fill:#7FC24E;}
	.st199{fill:#91CEA4;}
	.st200{fill:#90CEA4;}
	.st201{fill:#C02026;}
	.st202{fill:#362E7E;}
</style>
<g>
	<linearGradient id="SVGID_1_" gradientUnits="userSpaceOnUse" x1="11.6041" y1="24.3149" x2="40.0127" y2="24.3149">
		<stop  offset="0" style="stop-color:#C29235"/>
		<stop  offset="0.011" style="stop-color:#C89E47"/>
		<stop  offset="0.0494" style="stop-color:#DDC483"/>
		<stop  offset="0.0822" style="stop-color:#EBE0AE"/>
		<stop  offset="0.1077" style="stop-color:#F5F1C9"/>
		<stop  offset="0.1227" style="stop-color:#F8F7D3"/>
		<stop  offset="0.1233" style="stop-color:#F7F5CF"/>
		<stop  offset="0.1298" style="stop-color:#EADDAB"/>
		<stop  offset="0.1368" style="stop-color:#E0C98C"/>
		<stop  offset="0.1448" style="stop-color:#D6B870"/>
		<stop  offset="0.1539" style="stop-color:#CFAA5A"/>
		<stop  offset="0.1644" style="stop-color:#C99F49"/>
		<stop  offset="0.1775" style="stop-color:#C5983E"/>
		<stop  offset="0.1958" style="stop-color:#C39337"/>
		<stop  offset="0.2466" style="stop-color:#C29235"/>
		<stop  offset="0.315" style="stop-color:#A3772A"/>
		<stop  offset="0.4411" style="stop-color:#704A16"/>
		<stop  offset="0.5029" style="stop-color:#5C390F"/>
		<stop  offset="0.6167" style="stop-color:#9A6F26"/>
		<stop  offset="0.6971" style="stop-color:#C29235"/>
		<stop  offset="0.7167" style="stop-color:#C4963C"/>
		<stop  offset="0.7448" style="stop-color:#CBA24F"/>
		<stop  offset="0.778" style="stop-color:#D5B66E"/>
		<stop  offset="0.8152" style="stop-color:#E4D299"/>
		<stop  offset="0.8551" style="stop-color:#F7F5D0"/>
		<stop  offset="0.8573" style="stop-color:#F8F7D3"/>
		<stop  offset="0.8619" style="stop-color:#F4EEC3"/>
		<stop  offset="0.8744" style="stop-color:#EADA9F"/>
		<stop  offset="0.888" style="stop-color:#E1C87F"/>
		<stop  offset="0.9026" style="stop-color:#DABA65"/>
		<stop  offset="0.9188" style="stop-color:#D5AF52"/>
		<stop  offset="0.9372" style="stop-color:#D1A744"/>
		<stop  offset="0.96" style="stop-color:#CFA23B"/>
		<stop  offset="1" style="stop-color:#CEA139"/>
	</linearGradient>
	<path style="fill:url(#SVGID_1_);" d="M40.01,21.6v1.75l-0.8,1.88l-2.51,1.61l-7.82-0.27l-8.1-3.88l-7.83,1.94l-1.33,3.53
		c-0.31-3.48,1.8-6.29,5.19-7.28c1.47-0.43,3.07-0.56,4.56-0.17c1.47,0.38,2.83,1.07,4.2,1.72c1.39,0.67,2.97,1.53,4.56,1.53h1.01
		l8.71-2.85L40.01,21.6z"/>
	
		<linearGradient id="SVGID_2_" gradientUnits="userSpaceOnUse" x1="-166.3236" y1="24.865" x2="-137.8468" y2="24.865" gradientTransform="matrix(1 0 0 1 177.9558 0)">
		<stop  offset="0" style="stop-color:#C29235"/>
		<stop  offset="0.011" style="stop-color:#C89E47"/>
		<stop  offset="0.0494" style="stop-color:#DDC483"/>
		<stop  offset="0.0822" style="stop-color:#EBE0AE"/>
		<stop  offset="0.1077" style="stop-color:#F5F1C9"/>
		<stop  offset="0.1227" style="stop-color:#F8F7D3"/>
		<stop  offset="0.1233" style="stop-color:#F7F5CF"/>
		<stop  offset="0.1298" style="stop-color:#EADDAB"/>
		<stop  offset="0.1368" style="stop-color:#E0C98C"/>
		<stop  offset="0.1448" style="stop-color:#D6B870"/>
		<stop  offset="0.1539" style="stop-color:#CFAA5A"/>
		<stop  offset="0.1644" style="stop-color:#C99F49"/>
		<stop  offset="0.1775" style="stop-color:#C5983E"/>
		<stop  offset="0.1958" style="stop-color:#C39337"/>
		<stop  offset="0.2466" style="stop-color:#C29235"/>
		<stop  offset="0.315" style="stop-color:#A3772A"/>
		<stop  offset="0.4411" style="stop-color:#704A16"/>
		<stop  offset="0.5029" style="stop-color:#5C390F"/>
		<stop  offset="0.6167" style="stop-color:#9A6F26"/>
		<stop  offset="0.6971" style="stop-color:#C29235"/>
		<stop  offset="0.7167" style="stop-color:#C4963C"/>
		<stop  offset="0.7448" style="stop-color:#CBA24F"/>
		<stop  offset="0.778" style="stop-color:#D5B66E"/>
		<stop  offset="0.8152" style="stop-color:#E4D299"/>
		<stop  offset="0.8551" style="stop-color:#F7F5D0"/>
		<stop  offset="0.8573" style="stop-color:#F8F7D3"/>
		<stop  offset="0.8619" style="stop-color:#F4EEC3"/>
		<stop  offset="0.8744" style="stop-color:#EADA9F"/>
		<stop  offset="0.888" style="stop-color:#E1C87F"/>
		<stop  offset="0.9026" style="stop-color:#DABA65"/>
		<stop  offset="0.9188" style="stop-color:#D5AF52"/>
		<stop  offset="0.9372" style="stop-color:#D1A744"/>
		<stop  offset="0.96" style="stop-color:#CFA23B"/>
		<stop  offset="1" style="stop-color:#CEA139"/>
	</linearGradient>
	<path class="st10" d="M39.67,20.12c0.25,0.25,2.87,10.14-8.34,9.45c-1.87-0.12-3.73-0.76-5.42-1.53c-1.52-0.69-2.79-1.78-4.3-2.48
		c-1.88-0.87-4.26-1.34-6.29-0.74c-1.68,0.5-2.96,1.77-3.62,3.33c-0.02,0.05-0.04,0.1-0.06,0.15c0.1-0.24-0.01-0.72,0.02-0.98
		c0.09-0.77,0.32-1.54,0.69-2.23c1.3-2.39,4.47-3.68,7.16-3.49c1.62,0.11,3.13,0.66,4.51,1.48c0.76,0.46,1.52,0.83,2.33,1.22
		c2.18,1.08,4.66,1.61,7.09,1.63c0.68,0.01,1.35,0,2.03-0.06c0.73-0.06,1.47-0.17,2.17-0.4c0.64-0.21,1.26-0.54,1.69-1.05
		c0.22-0.26,0.38-0.55,0.48-0.87c0.1-0.32,0.11-0.66,0.12-1c0.01-0.39,0-0.84,0-1.23c0-0.08-0.03-0.21-0.03-0.29
		C39.89,21,39.7,20.15,39.67,20.12z"/>
	
		<linearGradient id="SVGID_3_" gradientUnits="userSpaceOnUse" x1="-147.5936" y1="15.6419" x2="-139.4248" y2="29.7907" gradientTransform="matrix(1 0 0 1 177.9558 0)">
		<stop  offset="0" style="stop-color:#C29235"/>
		<stop  offset="0.011" style="stop-color:#C89E47"/>
		<stop  offset="0.0494" style="stop-color:#DDC483"/>
		<stop  offset="0.0822" style="stop-color:#EBE0AE"/>
		<stop  offset="0.1077" style="stop-color:#F5F1C9"/>
		<stop  offset="0.1227" style="stop-color:#F8F7D3"/>
		<stop  offset="0.1233" style="stop-color:#F7F5CF"/>
		<stop  offset="0.1298" style="stop-color:#EADDAB"/>
		<stop  offset="0.1368" style="stop-color:#E0C98C"/>
		<stop  offset="0.1448" style="stop-color:#D6B870"/>
		<stop  offset="0.1539" style="stop-color:#CFAA5A"/>
		<stop  offset="0.1644" style="stop-color:#C99F49"/>
		<stop  offset="0.1775" style="stop-color:#C5983E"/>
		<stop  offset="0.1958" style="stop-color:#C39337"/>
		<stop  offset="0.2466" style="stop-color:#C29235"/>
		<stop  offset="0.315" style="stop-color:#A3772A"/>
		<stop  offset="0.4411" style="stop-color:#704A16"/>
		<stop  offset="0.5029" style="stop-color:#5C390F"/>
		<stop  offset="0.6167" style="stop-color:#9A6F26"/>
		<stop  offset="0.6971" style="stop-color:#C29235"/>
		<stop  offset="0.7167" style="stop-color:#C4963C"/>
		<stop  offset="0.7448" style="stop-color:#CBA24F"/>
		<stop  offset="0.778" style="stop-color:#D5B66E"/>
		<stop  offset="0.8152" style="stop-color:#E4D299"/>
		<stop  offset="0.8551" style="stop-color:#F7F5D0"/>
		<stop  offset="0.8573" style="stop-color:#F8F7D3"/>
		<stop  offset="0.8619" style="stop-color:#F4EEC3"/>
		<stop  offset="0.8744" style="stop-color:#EADA9F"/>
		<stop  offset="0.888" style="stop-color:#E1C87F"/>
		<stop  offset="0.9026" style="stop-color:#DABA65"/>
		<stop  offset="0.9188" style="stop-color:#D5AF52"/>
		<stop  offset="0.9372" style="stop-color:#D1A744"/>
		<stop  offset="0.96" style="stop-color:#CFA23B"/>
		<stop  offset="1" style="stop-color:#CEA139"/>
	</linearGradient>
	<path class="st11" d="M23.59,15.75c1.76-0.07,3.53-0.09,5.3-0.03c1.7,0.05,3.44,0.1,5.11,0.4c1.69,0.31,3.38,0.96,4.57,2.21
		c1,1.05,1.75,2.71,1.09,4.11c-0.71,1.5-2.75,2.05-4.3,2.16c-1.95,0.14-3.93-0.21-5.81-0.7c0,0,5.32-0.02,4.11-4.23
		C32.66,16.19,23.59,15.75,23.59,15.75z"/>
	
		<linearGradient id="SVGID_4_" gradientUnits="userSpaceOnUse" x1="-145.2108" y1="17.4199" x2="-145.2108" y2="-1.9855" gradientTransform="matrix(1 0 0 1 177.9558 0)">
		<stop  offset="0" style="stop-color:#C29235"/>
		<stop  offset="0.011" style="stop-color:#C89E47"/>
		<stop  offset="0.0494" style="stop-color:#DDC483"/>
		<stop  offset="0.0822" style="stop-color:#EBE0AE"/>
		<stop  offset="0.1077" style="stop-color:#F5F1C9"/>
		<stop  offset="0.1227" style="stop-color:#F8F7D3"/>
		<stop  offset="0.1233" style="stop-color:#F7F5CF"/>
		<stop  offset="0.1298" style="stop-color:#EADDAB"/>
		<stop  offset="0.1368" style="stop-color:#E0C98C"/>
		<stop  offset="0.1448" style="stop-color:#D6B870"/>
		<stop  offset="0.1539" style="stop-color:#CFAA5A"/>
		<stop  offset="0.1644" style="stop-color:#C99F49"/>
		<stop  offset="0.1775" style="stop-color:#C5983E"/>
		<stop  offset="0.1958" style="stop-color:#C39337"/>
		<stop  offset="0.2466" style="stop-color:#C29235"/>
		<stop  offset="0.315" style="stop-color:#A3772A"/>
		<stop  offset="0.4411" style="stop-color:#704A16"/>
		<stop  offset="0.5029" style="stop-color:#5C390F"/>
		<stop  offset="0.6167" style="stop-color:#9A6F26"/>
		<stop  offset="0.6971" style="stop-color:#C29235"/>
		<stop  offset="0.7167" style="stop-color:#C4963C"/>
		<stop  offset="0.7448" style="stop-color:#CBA24F"/>
		<stop  offset="0.778" style="stop-color:#D5B66E"/>
		<stop  offset="0.8152" style="stop-color:#E4D299"/>
		<stop  offset="0.8551" style="stop-color:#F7F5D0"/>
		<stop  offset="0.8573" style="stop-color:#F8F7D3"/>
		<stop  offset="0.8619" style="stop-color:#F4EEC3"/>
		<stop  offset="0.8744" style="stop-color:#EADA9F"/>
		<stop  offset="0.888" style="stop-color:#E1C87F"/>
		<stop  offset="0.9026" style="stop-color:#DABA65"/>
		<stop  offset="0.9188" style="stop-color:#D5AF52"/>
		<stop  offset="0.9372" style="stop-color:#D1A744"/>
		<stop  offset="0.96" style="stop-color:#CFA23B"/>
		<stop  offset="1" style="stop-color:#CEA139"/>
	</linearGradient>
	<path class="st13" d="M30.33,3.41c0,0-0.27,1.72-1.11,3.9l3.47,1.76l-0.46,3.43l-2.32,1.08l-1.84,0.49l-0.93,0.07
		c0,0,5.95,1.49,9.92-2.56S34.96,2.98,30.33,3.41z"/>
	
		<linearGradient id="SVGID_5_" gradientUnits="userSpaceOnUse" x1="-147.2323" y1="3.8581" x2="-147.2323" y2="14.6574" gradientTransform="matrix(1 0 0 1 177.9558 0)">
		<stop  offset="0" style="stop-color:#C29235"/>
		<stop  offset="0.011" style="stop-color:#C89E47"/>
		<stop  offset="0.0494" style="stop-color:#DDC483"/>
		<stop  offset="0.0822" style="stop-color:#EBE0AE"/>
		<stop  offset="0.1077" style="stop-color:#F5F1C9"/>
		<stop  offset="0.1227" style="stop-color:#F8F7D3"/>
		<stop  offset="0.1233" style="stop-color:#F7F5CF"/>
		<stop  offset="0.1298" style="stop-color:#EADDAB"/>
		<stop  offset="0.1368" style="stop-color:#E0C98C"/>
		<stop  offset="0.1448" style="stop-color:#D6B870"/>
		<stop  offset="0.1539" style="stop-color:#CFAA5A"/>
		<stop  offset="0.1644" style="stop-color:#C99F49"/>
		<stop  offset="0.1775" style="stop-color:#C5983E"/>
		<stop  offset="0.1958" style="stop-color:#C39337"/>
		<stop  offset="0.2466" style="stop-color:#C29235"/>
		<stop  offset="0.315" style="stop-color:#A3772A"/>
		<stop  offset="0.4411" style="stop-color:#704A16"/>
		<stop  offset="0.5029" style="stop-color:#5C390F"/>
		<stop  offset="0.6167" style="stop-color:#9A6F26"/>
		<stop  offset="0.6971" style="stop-color:#C29235"/>
		<stop  offset="0.7167" style="stop-color:#C4963C"/>
		<stop  offset="0.7448" style="stop-color:#CBA24F"/>
		<stop  offset="0.778" style="stop-color:#D5B66E"/>
		<stop  offset="0.8152" style="stop-color:#E4D299"/>
		<stop  offset="0.8551" style="stop-color:#F7F5D0"/>
		<stop  offset="0.8573" style="stop-color:#F8F7D3"/>
		<stop  offset="0.8619" style="stop-color:#F4EEC3"/>
		<stop  offset="0.8744" style="stop-color:#EADA9F"/>
		<stop  offset="0.888" style="stop-color:#E1C87F"/>
		<stop  offset="0.9026" style="stop-color:#DABA65"/>
		<stop  offset="0.9188" style="stop-color:#D5AF52"/>
		<stop  offset="0.9372" style="stop-color:#D1A744"/>
		<stop  offset="0.96" style="stop-color:#CFA23B"/>
		<stop  offset="1" style="stop-color:#CEA139"/>
	</linearGradient>
	<path class="st14" d="M29.35,6.96c0,0-0.42,1.27-1.24,1.89c0,0,4.02-0.39,4.17,1.76s-2.93,3.29-5.04,3.53c0,0,6.97,0.33,6.98-4.15
		C34.21,7.73,30.47,6.61,29.35,6.96z"/>
	
		<linearGradient id="SVGID_6_" gradientUnits="userSpaceOnUse" x1="-160.2402" y1="2.4771" x2="-160.2402" y2="9.7757" gradientTransform="matrix(1 0 0 1 177.9558 0)">
		<stop  offset="0" style="stop-color:#C29235"/>
		<stop  offset="0.011" style="stop-color:#C89E47"/>
		<stop  offset="0.0494" style="stop-color:#DDC483"/>
		<stop  offset="0.0822" style="stop-color:#EBE0AE"/>
		<stop  offset="0.1077" style="stop-color:#F5F1C9"/>
		<stop  offset="0.1227" style="stop-color:#F8F7D3"/>
		<stop  offset="0.1233" style="stop-color:#F7F5CF"/>
		<stop  offset="0.1298" style="stop-color:#EADDAB"/>
		<stop  offset="0.1368" style="stop-color:#E0C98C"/>
		<stop  offset="0.1448" style="stop-color:#D6B870"/>
		<stop  offset="0.1539" style="stop-color:#CFAA5A"/>
		<stop  offset="0.1644" style="stop-color:#C99F49"/>
		<stop  offset="0.1775" style="stop-color:#C5983E"/>
		<stop  offset="0.1958" style="stop-color:#C39337"/>
		<stop  offset="0.2466" style="stop-color:#C29235"/>
		<stop  offset="0.315" style="stop-color:#A3772A"/>
		<stop  offset="0.4411" style="stop-color:#704A16"/>
		<stop  offset="0.5029" style="stop-color:#5C390F"/>
		<stop  offset="0.6167" style="stop-color:#9A6F26"/>
		<stop  offset="0.6971" style="stop-color:#C29235"/>
		<stop  offset="0.7167" style="stop-color:#C4963C"/>
		<stop  offset="0.7448" style="stop-color:#CBA24F"/>
		<stop  offset="0.778" style="stop-color:#D5B66E"/>
		<stop  offset="0.8152" style="stop-color:#E4D299"/>
		<stop  offset="0.8551" style="stop-color:#F7F5D0"/>
		<stop  offset="0.8573" style="stop-color:#F8F7D3"/>
		<stop  offset="0.8619" style="stop-color:#F4EEC3"/>
		<stop  offset="0.8744" style="stop-color:#EADA9F"/>
		<stop  offset="0.888" style="stop-color:#E1C87F"/>
		<stop  offset="0.9026" style="stop-color:#DABA65"/>
		<stop  offset="0.9188" style="stop-color:#D5AF52"/>
		<stop  offset="0.9372" style="stop-color:#D1A744"/>
		<stop  offset="0.96" style="stop-color:#CFA23B"/>
		<stop  offset="1" style="stop-color:#CEA139"/>
	</linearGradient>
	<ellipse class="st15" cx="17.72" cy="4.17" rx="2.59" ry="2.48"/>
	
		<linearGradient id="SVGID_7_" gradientUnits="userSpaceOnUse" x1="-153.5004" y1="1.356" x2="-153.5004" y2="17.3141" gradientTransform="matrix(1 0 0 1 177.9558 0)">
		<stop  offset="0" style="stop-color:#C29235"/>
		<stop  offset="0.011" style="stop-color:#C89E47"/>
		<stop  offset="0.0494" style="stop-color:#DDC483"/>
		<stop  offset="0.0822" style="stop-color:#EBE0AE"/>
		<stop  offset="0.1077" style="stop-color:#F5F1C9"/>
		<stop  offset="0.1227" style="stop-color:#F8F7D3"/>
		<stop  offset="0.1233" style="stop-color:#F7F5CF"/>
		<stop  offset="0.1298" style="stop-color:#EADDAB"/>
		<stop  offset="0.1368" style="stop-color:#E0C98C"/>
		<stop  offset="0.1448" style="stop-color:#D6B870"/>
		<stop  offset="0.1539" style="stop-color:#CFAA5A"/>
		<stop  offset="0.1644" style="stop-color:#C99F49"/>
		<stop  offset="0.1775" style="stop-color:#C5983E"/>
		<stop  offset="0.1958" style="stop-color:#C39337"/>
		<stop  offset="0.2466" style="stop-color:#C29235"/>
		<stop  offset="0.315" style="stop-color:#A3772A"/>
		<stop  offset="0.4411" style="stop-color:#704A16"/>
		<stop  offset="0.5029" style="stop-color:#5C390F"/>
		<stop  offset="0.6167" style="stop-color:#9A6F26"/>
		<stop  offset="0.6971" style="stop-color:#C29235"/>
		<stop  offset="0.7167" style="stop-color:#C4963C"/>
		<stop  offset="0.7448" style="stop-color:#CBA24F"/>
		<stop  offset="0.778" style="stop-color:#D5B66E"/>
		<stop  offset="0.8152" style="stop-color:#E4D299"/>
		<stop  offset="0.8551" style="stop-color:#F7F5D0"/>
		<stop  offset="0.8573" style="stop-color:#F8F7D3"/>
		<stop  offset="0.8619" style="stop-color:#F4EEC3"/>
		<stop  offset="0.8744" style="stop-color:#EADA9F"/>
		<stop  offset="0.888" style="stop-color:#E1C87F"/>
		<stop  offset="0.9026" style="stop-color:#DABA65"/>
		<stop  offset="0.9188" style="stop-color:#D5AF52"/>
		<stop  offset="0.9372" style="stop-color:#D1A744"/>
		<stop  offset="0.96" style="stop-color:#CFA23B"/>
		<stop  offset="1" style="stop-color:#CEA139"/>
	</linearGradient>
	<path class="st19" d="M29.14,0c0,0,0,3.05-5.69,5.4c-5.73,2.37-3.92,7.62-3.92,7.62s0.66-3.79,3.72-4.67c0,0-4.1,3.48-3.35,11.02
		c0,0-0.15-4.64,5.81-8.73S29.14,0,29.14,0z"/>
	
		<linearGradient id="SVGID_8_" gradientUnits="userSpaceOnUse" x1="-150.9068" y1="1.1034" x2="-150.9068" y2="11.9197" gradientTransform="matrix(1 0 0 1 177.9558 0)">
		<stop  offset="0" style="stop-color:#C29235"/>
		<stop  offset="0.011" style="stop-color:#C89E47"/>
		<stop  offset="0.0494" style="stop-color:#DDC483"/>
		<stop  offset="0.0822" style="stop-color:#EBE0AE"/>
		<stop  offset="0.1077" style="stop-color:#F5F1C9"/>
		<stop  offset="0.1227" style="stop-color:#F8F7D3"/>
		<stop  offset="0.1233" style="stop-color:#F7F5CF"/>
		<stop  offset="0.1298" style="stop-color:#EADDAB"/>
		<stop  offset="0.1368" style="stop-color:#E0C98C"/>
		<stop  offset="0.1448" style="stop-color:#D6B870"/>
		<stop  offset="0.1539" style="stop-color:#CFAA5A"/>
		<stop  offset="0.1644" style="stop-color:#C99F49"/>
		<stop  offset="0.1775" style="stop-color:#C5983E"/>
		<stop  offset="0.1958" style="stop-color:#C39337"/>
		<stop  offset="0.2466" style="stop-color:#C29235"/>
		<stop  offset="0.315" style="stop-color:#A3772A"/>
		<stop  offset="0.4411" style="stop-color:#704A16"/>
		<stop  offset="0.5029" style="stop-color:#5C390F"/>
		<stop  offset="0.6167" style="stop-color:#9A6F26"/>
		<stop  offset="0.6971" style="stop-color:#C29235"/>
		<stop  offset="0.7167" style="stop-color:#C4963C"/>
		<stop  offset="0.7448" style="stop-color:#CBA24F"/>
		<stop  offset="0.778" style="stop-color:#D5B66E"/>
		<stop  offset="0.8152" style="stop-color:#E4D299"/>
		<stop  offset="0.8551" style="stop-color:#F7F5D0"/>
		<stop  offset="0.8573" style="stop-color:#F8F7D3"/>
		<stop  offset="0.8619" style="stop-color:#F4EEC3"/>
		<stop  offset="0.8744" style="stop-color:#EADA9F"/>
		<stop  offset="0.888" style="stop-color:#E1C87F"/>
		<stop  offset="0.9026" style="stop-color:#DABA65"/>
		<stop  offset="0.9188" style="stop-color:#D5AF52"/>
		<stop  offset="0.9372" style="stop-color:#D1A744"/>
		<stop  offset="0.96" style="stop-color:#CFA23B"/>
		<stop  offset="1" style="stop-color:#CEA139"/>
	</linearGradient>
	<path style="fill:url(#SVGID_8_);" d="M29.15,0c0,0,0.04,2.56-4.72,4.95c0,0,4.05,0.93,5.23-1.56C29.66,3.4,29.73,1.75,29.15,0z"/>
	
		<linearGradient id="SVGID_9_" gradientUnits="userSpaceOnUse" x1="-166.0596" y1="28.5701" x2="-140.0033" y2="28.5701" gradientTransform="matrix(1 0 0 1 177.9558 0)">
		<stop  offset="0" style="stop-color:#C29235"/>
		<stop  offset="0.011" style="stop-color:#C89E47"/>
		<stop  offset="0.0494" style="stop-color:#DDC483"/>
		<stop  offset="0.0822" style="stop-color:#EBE0AE"/>
		<stop  offset="0.1077" style="stop-color:#F5F1C9"/>
		<stop  offset="0.1227" style="stop-color:#F8F7D3"/>
		<stop  offset="0.1233" style="stop-color:#F7F5CF"/>
		<stop  offset="0.1298" style="stop-color:#EADDAB"/>
		<stop  offset="0.1368" style="stop-color:#E0C98C"/>
		<stop  offset="0.1448" style="stop-color:#D6B870"/>
		<stop  offset="0.1539" style="stop-color:#CFAA5A"/>
		<stop  offset="0.1644" style="stop-color:#C99F49"/>
		<stop  offset="0.1775" style="stop-color:#C5983E"/>
		<stop  offset="0.1958" style="stop-color:#C39337"/>
		<stop  offset="0.2466" style="stop-color:#C29235"/>
		<stop  offset="0.315" style="stop-color:#A3772A"/>
		<stop  offset="0.4411" style="stop-color:#704A16"/>
		<stop  offset="0.5029" style="stop-color:#5C390F"/>
		<stop  offset="0.6167" style="stop-color:#9A6F26"/>
		<stop  offset="0.6971" style="stop-color:#C29235"/>
		<stop  offset="0.7167" style="stop-color:#C4963C"/>
		<stop  offset="0.7448" style="stop-color:#CBA24F"/>
		<stop  offset="0.778" style="stop-color:#D5B66E"/>
		<stop  offset="0.8152" style="stop-color:#E4D299"/>
		<stop  offset="0.8551" style="stop-color:#F7F5D0"/>
		<stop  offset="0.8573" style="stop-color:#F8F7D3"/>
		<stop  offset="0.8619" style="stop-color:#F4EEC3"/>
		<stop  offset="0.8744" style="stop-color:#EADA9F"/>
		<stop  offset="0.888" style="stop-color:#E1C87F"/>
		<stop  offset="0.9026" style="stop-color:#DABA65"/>
		<stop  offset="0.9188" style="stop-color:#D5AF52"/>
		<stop  offset="0.9372" style="stop-color:#D1A744"/>
		<stop  offset="0.96" style="stop-color:#CFA23B"/>
		<stop  offset="1" style="stop-color:#CEA139"/>
	</linearGradient>
	<path style="fill:url(#SVGID_9_);" d="M11.9,28.19c0.43-0.56,1.3-1.36,1.89-1.72c1.42-0.87,2.48-1.2,4.16-1.08
		c0.83,0.06,2.21,0.41,2.93,0.79c0.79,0.42,1.48,0.87,2.23,1.35c1.91,1.21,4.05,2.2,6.31,2.5c2.88,0.39,5.88-0.04,8.52-1.22
		c-0.44,0.19-0.85,0.65-1.26,0.91c-0.46,0.29-0.93,0.55-1.42,0.78c-0.98,0.46-2.02,0.81-3.08,1.03c-2.22,0.46-4.45,0.24-6.59-0.49
		c-1.09-0.37-2.14-0.86-3.13-1.44c-1.74-1.01-2.9-1.92-4.84-2.58c-0.84-0.28-1.73-0.37-2.6-0.24C14.08,26.93,12.49,27.41,11.9,28.19
		z"/>
	
		<linearGradient id="SVGID_10_" gradientUnits="userSpaceOnUse" x1="-164.1111" y1="2.0561" x2="-164.1111" y2="13.9087" gradientTransform="matrix(1 0 0 1 177.9558 0)">
		<stop  offset="0" style="stop-color:#C29235"/>
		<stop  offset="0.011" style="stop-color:#C89E47"/>
		<stop  offset="0.0494" style="stop-color:#DDC483"/>
		<stop  offset="0.0822" style="stop-color:#EBE0AE"/>
		<stop  offset="0.1077" style="stop-color:#F5F1C9"/>
		<stop  offset="0.1227" style="stop-color:#F8F7D3"/>
		<stop  offset="0.1233" style="stop-color:#F7F5CF"/>
		<stop  offset="0.1298" style="stop-color:#EADDAB"/>
		<stop  offset="0.1368" style="stop-color:#E0C98C"/>
		<stop  offset="0.1448" style="stop-color:#D6B870"/>
		<stop  offset="0.1539" style="stop-color:#CFAA5A"/>
		<stop  offset="0.1644" style="stop-color:#C99F49"/>
		<stop  offset="0.1775" style="stop-color:#C5983E"/>
		<stop  offset="0.1958" style="stop-color:#C39337"/>
		<stop  offset="0.2466" style="stop-color:#C29235"/>
		<stop  offset="0.315" style="stop-color:#A3772A"/>
		<stop  offset="0.4411" style="stop-color:#704A16"/>
		<stop  offset="0.5029" style="stop-color:#5C390F"/>
		<stop  offset="0.6167" style="stop-color:#9A6F26"/>
		<stop  offset="0.6971" style="stop-color:#C29235"/>
		<stop  offset="0.7167" style="stop-color:#C4963C"/>
		<stop  offset="0.7448" style="stop-color:#CBA24F"/>
		<stop  offset="0.778" style="stop-color:#D5B66E"/>
		<stop  offset="0.8152" style="stop-color:#E4D299"/>
		<stop  offset="0.8551" style="stop-color:#F7F5D0"/>
		<stop  offset="0.8573" style="stop-color:#F8F7D3"/>
		<stop  offset="0.8619" style="stop-color:#F4EEC3"/>
		<stop  offset="0.8744" style="stop-color:#EADA9F"/>
		<stop  offset="0.888" style="stop-color:#E1C87F"/>
		<stop  offset="0.9026" style="stop-color:#DABA65"/>
		<stop  offset="0.9188" style="stop-color:#D5AF52"/>
		<stop  offset="0.9372" style="stop-color:#D1A744"/>
		<stop  offset="0.96" style="stop-color:#CFA23B"/>
		<stop  offset="1" style="stop-color:#CEA139"/>
	</linearGradient>
	<path style="fill:url(#SVGID_10_);" d="M10.88,2c0,0-2.1,8,2.7,10.58c0,0,1.76,0.95,2.81,1.28l-1.95-4.34c0,0,2.58,2.3,2.77,3.76
		c-0.03-0.22,0.04-0.49,0.05-0.71c0.01-0.61-0.05-1.23-0.19-1.83C16.27,7.05,11.98,5.59,10.88,2z"/>
	
		<linearGradient id="SVGID_11_" gradientUnits="userSpaceOnUse" x1="-165.322" y1="0.6897" x2="-165.322" y2="9.3374" gradientTransform="matrix(1 0 0 1 177.9558 0)">
		<stop  offset="0" style="stop-color:#C29235"/>
		<stop  offset="0.011" style="stop-color:#C89E47"/>
		<stop  offset="0.0494" style="stop-color:#DDC483"/>
		<stop  offset="0.0822" style="stop-color:#EBE0AE"/>
		<stop  offset="0.1077" style="stop-color:#F5F1C9"/>
		<stop  offset="0.1227" style="stop-color:#F8F7D3"/>
		<stop  offset="0.1233" style="stop-color:#F7F5CF"/>
		<stop  offset="0.1298" style="stop-color:#EADDAB"/>
		<stop  offset="0.1368" style="stop-color:#E0C98C"/>
		<stop  offset="0.1448" style="stop-color:#D6B870"/>
		<stop  offset="0.1539" style="stop-color:#CFAA5A"/>
		<stop  offset="0.1644" style="stop-color:#C99F49"/>
		<stop  offset="0.1775" style="stop-color:#C5983E"/>
		<stop  offset="0.1958" style="stop-color:#C39337"/>
		<stop  offset="0.2466" style="stop-color:#C29235"/>
		<stop  offset="0.315" style="stop-color:#A3772A"/>
		<stop  offset="0.4411" style="stop-color:#704A16"/>
		<stop  offset="0.5029" style="stop-color:#5C390F"/>
		<stop  offset="0.6167" style="stop-color:#9A6F26"/>
		<stop  offset="0.6971" style="stop-color:#C29235"/>
		<stop  offset="0.7167" style="stop-color:#C4963C"/>
		<stop  offset="0.7448" style="stop-color:#CBA24F"/>
		<stop  offset="0.778" style="stop-color:#D5B66E"/>
		<stop  offset="0.8152" style="stop-color:#E4D299"/>
		<stop  offset="0.8551" style="stop-color:#F7F5D0"/>
		<stop  offset="0.8573" style="stop-color:#F8F7D3"/>
		<stop  offset="0.8619" style="stop-color:#F4EEC3"/>
		<stop  offset="0.8744" style="stop-color:#EADA9F"/>
		<stop  offset="0.888" style="stop-color:#E1C87F"/>
		<stop  offset="0.9026" style="stop-color:#DABA65"/>
		<stop  offset="0.9188" style="stop-color:#D5AF52"/>
		<stop  offset="0.9372" style="stop-color:#D1A744"/>
		<stop  offset="0.96" style="stop-color:#CFA23B"/>
		<stop  offset="1" style="stop-color:#CEA139"/>
	</linearGradient>
	<path style="fill:url(#SVGID_11_);" d="M10.89,1.95c0,0-0.37,1.57-0.43,2.94c-0.06,1.28,1.26,2.38,4.34,2.15
		C14.81,7.04,11.19,3.66,10.89,1.95z"/>
	<linearGradient id="SVGID_12_" gradientUnits="userSpaceOnUse" x1="9.8706" y1="35.7266" x2="141.9182" y2="35.7266">
		<stop  offset="0" style="stop-color:#C29235"/>
		<stop  offset="0.011" style="stop-color:#C89E47"/>
		<stop  offset="0.0494" style="stop-color:#DDC483"/>
		<stop  offset="0.0822" style="stop-color:#EBE0AE"/>
		<stop  offset="0.1077" style="stop-color:#F5F1C9"/>
		<stop  offset="0.1227" style="stop-color:#F8F7D3"/>
		<stop  offset="0.1233" style="stop-color:#F7F5CF"/>
		<stop  offset="0.1298" style="stop-color:#EADDAB"/>
		<stop  offset="0.1368" style="stop-color:#E0C98C"/>
		<stop  offset="0.1448" style="stop-color:#D6B870"/>
		<stop  offset="0.1539" style="stop-color:#CFAA5A"/>
		<stop  offset="0.1644" style="stop-color:#C99F49"/>
		<stop  offset="0.1775" style="stop-color:#C5983E"/>
		<stop  offset="0.1958" style="stop-color:#C39337"/>
		<stop  offset="0.2466" style="stop-color:#C29235"/>
		<stop  offset="0.315" style="stop-color:#A3772A"/>
		<stop  offset="0.4411" style="stop-color:#704A16"/>
		<stop  offset="0.5029" style="stop-color:#5C390F"/>
		<stop  offset="0.6167" style="stop-color:#9A6F26"/>
		<stop  offset="0.6971" style="stop-color:#C29235"/>
		<stop  offset="0.7167" style="stop-color:#C4963C"/>
		<stop  offset="0.7448" style="stop-color:#CBA24F"/>
		<stop  offset="0.778" style="stop-color:#D5B66E"/>
		<stop  offset="0.8152" style="stop-color:#E4D299"/>
		<stop  offset="0.8551" style="stop-color:#F7F5D0"/>
		<stop  offset="0.8573" style="stop-color:#F8F7D3"/>
		<stop  offset="0.8619" style="stop-color:#F4EEC3"/>
		<stop  offset="0.8744" style="stop-color:#EADA9F"/>
		<stop  offset="0.888" style="stop-color:#E1C87F"/>
		<stop  offset="0.9026" style="stop-color:#DABA65"/>
		<stop  offset="0.9188" style="stop-color:#D5AF52"/>
		<stop  offset="0.9372" style="stop-color:#D1A744"/>
		<stop  offset="0.96" style="stop-color:#CFA23B"/>
		<stop  offset="1" style="stop-color:#CEA139"/>
	</linearGradient>
	<path class="st50" d="M12.43,33.22c0.01,0.01,0.02,0.02,0.03,0.02c0.01,0,0.02,0.01,0.03,0.01c0.01,0,0.02,0,0.03,0
		c0.01,0,0.02,0,0.03,0c0.01,0,0.02,0.01,0.03,0.01c0.01,0,0.02,0,0.04,0c0,0,0.01,0,0.01,0c0,0,0.01,0,0.02,0
		c0,0,0.01,0.01,0.02,0.01c0.01,0,0.01,0,0.02,0c0.02,0,0.05,0.01,0.07,0.01c0.02,0,0.05,0.01,0.07,0.02c0.02,0,0.05,0.01,0.07,0.01
		c0.02,0,0.05,0.01,0.07,0.01c0.06,0.02,0.12,0.04,0.18,0.06c0.06,0.02,0.12,0.04,0.17,0.06c0.06,0.03,0.11,0.05,0.17,0.08
		c0.06,0.03,0.11,0.06,0.16,0.1c0.05,0.03,0.1,0.07,0.14,0.11c0.04,0.04,0.07,0.09,0.1,0.14c0.02,0.05,0.04,0.1,0.06,0.15
		c0.01,0.05,0.02,0.11,0.02,0.18v0.01v0.02l-0.01,0.03v0.02v0.02l-0.01,0.02l-0.01,0.03v0.02v0.01l-0.01,0.01v0.01v0.01v0.01
		c-0.02,0.05-0.04,0.1-0.06,0.15c-0.02,0.05-0.05,0.09-0.08,0.12c-0.03,0.04-0.07,0.08-0.11,0.11c-0.04,0.03-0.08,0.06-0.13,0.09
		c-0.02,0.01-0.05,0.03-0.07,0.04c-0.02,0.01-0.05,0.03-0.07,0.03c-0.03,0.01-0.05,0.03-0.08,0.03c-0.02,0.01-0.05,0.02-0.07,0.03
		c-0.02,0.01-0.05,0.02-0.07,0.03c-0.03,0.01-0.05,0.02-0.07,0.03c-0.03,0-0.05,0.01-0.08,0.02c-0.03,0.01-0.05,0.01-0.07,0.02
		c-0.02,0-0.04,0.01-0.05,0.01c-0.02,0-0.03,0.01-0.05,0.01c-0.02,0-0.04,0.01-0.05,0.01c-0.02,0-0.03,0.01-0.05,0.01
		c-0.02,0-0.04,0.01-0.05,0.01c-0.02,0-0.03,0-0.05,0c-0.02,0-0.04,0.01-0.05,0.01s-0.03,0-0.04,0c0.02,0,0.04,0.01,0.05,0.01
		c0.02,0,0.03,0,0.05,0c0.01,0,0.02,0,0.03,0c0.01,0,0.02,0,0.03,0c0,0,0.01,0.01,0.02,0.01c0.01,0,0.02,0,0.03,0
		c0.02,0,0.04,0.01,0.05,0.01c0.02,0,0.03,0,0.05,0c0.02,0,0.04,0,0.05,0c0.02,0,0.03,0.01,0.05,0.01c0.05,0,0.09,0.01,0.14,0.02
		c0.04,0.01,0.09,0.02,0.14,0.03c0.05,0.01,0.09,0.03,0.14,0.04c0.04,0.01,0.09,0.03,0.14,0.04c0.05,0.02,0.09,0.04,0.13,0.05
		c0.04,0.02,0.08,0.04,0.13,0.06c0.04,0.02,0.08,0.04,0.12,0.06c0.04,0.03,0.08,0.05,0.12,0.08c0.01,0.01,0.03,0.02,0.04,0.03
		c0.01,0.01,0.02,0.02,0.03,0.03c0.01,0.01,0.02,0.03,0.03,0.04c0.01,0.01,0.02,0.02,0.03,0.03c0.02,0.02,0.04,0.05,0.06,0.07
		c0.02,0.03,0.03,0.05,0.05,0.07c0,0,0.01,0.01,0.01,0.02c0,0.01,0.01,0.01,0.01,0.02c0,0,0,0.01,0,0.02c0,0.01,0.01,0.01,0.01,0.02
		c0.01,0.01,0.02,0.03,0.02,0.04c0,0.01,0.01,0.03,0.01,0.03c0,0.01,0.01,0.03,0.01,0.04c0,0.01,0.01,0.03,0.01,0.04
		c0,0.01,0,0.03,0,0.04c0,0.01,0.01,0.03,0.01,0.04v0.01v0.01v0.01v0.01v0.01v0.02v0.02l-0.01,0.02v0.02v0.02v0.01l-0.01,0.02v0.01
		c0,0.04-0.01,0.07-0.02,0.11c-0.01,0.03-0.02,0.07-0.04,0.11c-0.01,0.03-0.03,0.06-0.04,0.1c-0.01,0.03-0.03,0.06-0.06,0.1
		c-0.02,0.03-0.04,0.06-0.07,0.09c-0.03,0.03-0.05,0.05-0.08,0.08s-0.06,0.05-0.08,0.07c-0.03,0.02-0.06,0.04-0.09,0.06
		c-0.04,0.03-0.08,0.05-0.13,0.07c-0.04,0.02-0.08,0.04-0.13,0.06c-0.02,0.01-0.04,0.02-0.06,0.03c-0.02,0.01-0.04,0.02-0.06,0.03
		c-0.02,0.01-0.05,0.02-0.07,0.02c-0.02,0.01-0.04,0.01-0.07,0.02c-0.05,0.01-0.09,0.03-0.14,0.04c-0.04,0.01-0.09,0.02-0.13,0.03
		c-0.05,0-0.09,0.01-0.14,0.02c-0.04,0.01-0.09,0.01-0.14,0.01h-0.28l-3.21-0.01c0.04-0.01,0.07-0.02,0.11-0.05
		c0.04-0.02,0.07-0.05,0.1-0.08c0.03-0.03,0.05-0.06,0.08-0.09c0.02-0.03,0.04-0.07,0.06-0.11c0.02-0.04,0.04-0.08,0.05-0.12
		c0.01-0.04,0.03-0.08,0.04-0.12c0.01-0.04,0.02-0.08,0.02-0.12c0.01-0.04,0.01-0.08,0.02-0.13v-2.89v-0.01l-0.01-0.01v-0.01V33.7
		v-0.01L9.8,33.67v-0.01c0,0-0.01-0.01-0.01-0.02c0-0.01-0.01-0.02-0.01-0.04c0-0.01-0.01-0.02-0.01-0.02c0,0,0-0.01,0-0.02
		c0,0-0.01-0.01-0.01-0.02c0-0.01-0.01-0.01-0.01-0.02l-0.02-0.04l-0.01-0.03l-0.02-0.03l-0.02-0.03l-0.02-0.01l-0.02-0.01
		L9.6,33.37l-0.01-0.01l-0.02-0.01l-0.02-0.01l-0.02-0.01l-0.02-0.01v-0.01H9.5H9.49v-0.01l-0.01-0.01l-0.01-0.01l-0.01-0.01v-0.01
		v-0.01h0.28H12.43z M11.44,33.37c0,0-0.01,0.01-0.01,0.01c0,0-0.01,0-0.01,0c-0.02,0-0.04,0-0.05,0c-0.02,0-0.03,0-0.05,0
		c-0.02,0-0.04,0-0.05,0c-0.02,0-0.03,0-0.05,0c-0.02,0-0.04,0-0.05,0c-0.02,0-0.03,0-0.05,0c-0.02,0-0.04,0.01-0.05,0.01
		c-0.02,0-0.03,0-0.05,0c-0.02,0-0.04,0-0.05,0c-0.02,0-0.03,0-0.05,0c-0.01,0-0.02,0-0.03,0c-0.01,0-0.02,0-0.03,0
		c0,0-0.01,0-0.02,0c0,0-0.01,0-0.01,0c0,0-0.01,0-0.01,0c-0.01,0-0.02,0.01-0.03,0.01c-0.01,0-0.02,0-0.03,0c0,0-0.01,0-0.02,0
		c0,0-0.01,0-0.01,0c0,0-0.01,0-0.01,0v1.7c0,0.01,0.01,0.01,0.01,0.02c0,0,0.01,0,0.01,0c0,0,0,0.01,0.01,0.01c0,0,0.01,0,0.01,0
		c0.01,0,0.02,0.01,0.03,0.01c0.01,0,0.02,0,0.03,0l0.03-0.01h0.03l0.03,0.01h0.03c0.01,0.01,0.03,0.01,0.04,0.02
		c0.01,0,0.03,0,0.05,0c0.01,0,0.03,0.01,0.05,0.01c0.02,0,0.03,0,0.05,0c0.01,0,0.02,0,0.02,0c0.01,0,0.02,0,0.02,0
		c0,0,0.01,0.01,0.02,0.01c0.01,0,0.02,0,0.02,0c0.01,0,0.03,0,0.05,0c0.02,0,0.03,0,0.05,0c0.01,0,0.02,0.01,0.03,0.01
		c0.01,0,0.02,0,0.04,0c0,0,0.01,0,0.01,0c0,0,0.01,0,0.01,0c0.01,0,0.02,0,0.03,0c0.01,0,0.02,0,0.04,0l0.03-0.01l0.04-0.01h0.03
		h0.04c0.04,0,0.08,0,0.13-0.01c0.04,0,0.08-0.01,0.13-0.01c0.04-0.01,0.08-0.02,0.13-0.02s0.08-0.01,0.13-0.02
		c0.04-0.01,0.08-0.02,0.12-0.03c0.04-0.01,0.08-0.03,0.12-0.04c0.04-0.01,0.08-0.03,0.12-0.04c0.04-0.02,0.08-0.03,0.12-0.05
		c0.03-0.02,0.06-0.04,0.09-0.06c0.03-0.02,0.05-0.04,0.08-0.06c0.02-0.02,0.05-0.05,0.07-0.08c0.02-0.03,0.04-0.06,0.06-0.09
		c0.01-0.03,0.03-0.06,0.04-0.09c0.01-0.03,0.03-0.06,0.04-0.09c0.01-0.03,0.02-0.06,0.02-0.09c0-0.03,0.01-0.06,0.01-0.09v-0.01
		v-0.01v-0.01v-0.01v-0.01v-0.01V34.2v-0.01v-0.01c0-0.03-0.01-0.06-0.02-0.1c-0.01-0.03-0.02-0.07-0.03-0.1
		c-0.01-0.04-0.03-0.07-0.05-0.1c-0.02-0.03-0.04-0.06-0.06-0.09c-0.02-0.03-0.05-0.06-0.08-0.09c-0.03-0.03-0.06-0.05-0.09-0.08
		c-0.03-0.02-0.07-0.04-0.1-0.06c-0.04-0.02-0.07-0.04-0.11-0.05c-0.01,0-0.03,0-0.04,0c-0.01,0-0.02-0.01-0.03-0.01
		c-0.01,0-0.03,0-0.04,0c-0.01,0-0.02-0.01-0.03-0.01c-0.01,0-0.03,0-0.04,0c-0.01,0-0.02,0-0.03-0.01c-0.01,0-0.02,0-0.03,0
		c-0.01,0-0.02-0.01-0.03-0.01c-0.01,0-0.03,0-0.04,0c-0.01,0-0.02-0.01-0.03-0.01c-0.01,0-0.03,0-0.04,0
		c-0.01,0-0.02-0.01-0.03-0.01c-0.01,0-0.03,0-0.04,0c-0.01,0-0.02,0-0.03-0.01c-0.01,0-0.03,0-0.04,0c-0.01,0-0.02-0.01-0.03-0.01
		c-0.01,0-0.03,0-0.04,0c-0.01,0-0.02,0-0.03-0.01c-0.01,0-0.03,0-0.04,0c-0.01,0-0.02,0-0.03,0c-0.01,0-0.02,0-0.03,0
		c-0.01,0-0.02,0-0.03-0.01c-0.01,0-0.03,0-0.04,0c-0.01,0-0.02,0-0.03,0c-0.01,0-0.03,0-0.04,0c-0.01,0-0.02,0-0.03-0.01
		c-0.01,0-0.03,0-0.04,0c-0.01,0-0.02,0-0.03,0c0,0-0.01,0-0.01,0c0,0-0.01,0-0.01,0C11.45,33.38,11.44,33.38,11.44,33.37
		L11.44,33.37z M10.7,36.82c0,0.05,0.01,0.09,0.02,0.13c0.01,0.04,0.02,0.08,0.03,0.11c0.01,0.03,0.02,0.06,0.04,0.09
		c0.01,0.03,0.03,0.06,0.05,0.08c0.02,0.02,0.04,0.04,0.07,0.06c0.03,0.02,0.05,0.03,0.09,0.05c0.01,0,0.03,0.01,0.04,0.01
		c0.01,0,0.03,0.01,0.05,0.01l0.01-0.01h0.01h0.01l1.09-0.01c0.07,0,0.15,0,0.22-0.01c0.07-0.01,0.14-0.03,0.21-0.05
		c0.07-0.02,0.13-0.05,0.2-0.08c0.07-0.03,0.13-0.07,0.19-0.11c0.06-0.04,0.11-0.09,0.16-0.14c0.04-0.05,0.08-0.1,0.12-0.16
		c0.03-0.06,0.05-0.13,0.07-0.2c0.02-0.07,0.02-0.14,0.02-0.23c0-0.07-0.01-0.13-0.02-0.2c-0.01-0.06-0.03-0.12-0.06-0.18
		c-0.03-0.06-0.06-0.11-0.1-0.16c-0.04-0.05-0.08-0.1-0.13-0.14c-0.05-0.05-0.11-0.09-0.16-0.12c-0.06-0.03-0.11-0.06-0.18-0.09
		c-0.06-0.02-0.12-0.04-0.19-0.06c-0.06-0.02-0.13-0.03-0.19-0.04c-0.01,0-0.03,0-0.04,0s-0.03,0-0.04,0c-0.01,0-0.03,0-0.04,0
		c-0.01,0-0.03-0.01-0.04-0.01c-0.01,0-0.03,0-0.04,0s-0.03,0-0.04,0c0,0-0.01,0-0.02,0c-0.01,0-0.02,0-0.02-0.01c0,0-0.01,0-0.02,0
		c-0.01,0-0.02,0-0.02,0c-0.01,0-0.03,0-0.04,0s-0.03,0-0.04-0.01c-0.01,0-0.03,0-0.04,0c-0.01,0-0.03,0-0.04,0s-0.03,0-0.04,0
		s-0.03,0-0.04-0.01c-0.01,0-0.03,0-0.04,0c-0.01,0-0.03,0-0.04,0c0,0-0.01,0-0.02,0c-0.01,0-0.02,0-0.02,0c-0.01,0-0.02,0-0.02,0
		c-0.01,0-0.02,0-0.02,0c-0.01,0-0.03,0-0.04,0s-0.03,0-0.04-0.01c-0.01,0-0.03,0-0.04,0c-0.01,0-0.03,0-0.04,0s-0.03,0-0.04,0
		s-0.03,0-0.04,0s-0.03,0-0.04,0s-0.03,0-0.04,0s-0.03,0-0.04,0c-0.01,0-0.03,0-0.04-0.01c-0.01,0-0.03,0-0.04,0s-0.03,0-0.04,0
		c0,0-0.01,0-0.02,0c-0.01,0-0.01,0-0.02,0c-0.01,0-0.02,0-0.02,0c0,0-0.01,0-0.02,0L10.7,35.3V36.82z M16.55,33.97h-0.28h0.03h0.01
		l0.01-0.01h0.01h0.01h0.02h0.03h0.01l0.01-0.01h0.28h0.01h0.01h0.04h0.04l0.04,0.01h0.04l0.04,0.01h0.04l0.04,0.01h0.04
		c0.09,0.02,0.18,0.04,0.26,0.06c0.08,0.03,0.17,0.06,0.25,0.09c0.08,0.03,0.17,0.07,0.25,0.12c0.08,0.05,0.16,0.1,0.23,0.16
		c0.07,0.06,0.14,0.12,0.2,0.18c0.06,0.06,0.11,0.13,0.15,0.21c0.04,0.07,0.08,0.15,0.11,0.23c0.03,0.08,0.05,0.16,0.06,0.26
		L15.5,35.3l-0.01,0.04v0.03l-0.01,0.04v0.03c0,0.02-0.01,0.03-0.01,0.04c0,0.01,0,0.02,0,0.03c0,0.01,0,0.03,0,0.04
		c0,0.01,0,0.02,0,0.03l-0.01,0.03v0.03v0.04v0.03c0,0.02,0,0.03,0,0.04c0,0.01,0,0.02,0,0.03c0,0.01,0,0.03,0,0.04
		c0,0.01,0,0.02,0,0.03v0.03l0.01,0.03v0.04l0.01,0.03c0,0.06,0.01,0.13,0.02,0.18c0.01,0.06,0.02,0.12,0.04,0.17
		c0.01,0.06,0.03,0.12,0.05,0.17c0.02,0.05,0.04,0.11,0.07,0.16c0.02,0.05,0.05,0.11,0.08,0.16c0.03,0.05,0.07,0.1,0.1,0.14
		c0.04,0.05,0.08,0.09,0.12,0.12c0.04,0.04,0.09,0.07,0.14,0.1c0.02,0.01,0.04,0.02,0.05,0.03c0.02,0.01,0.03,0.02,0.05,0.03
		c0.02,0.01,0.04,0.02,0.06,0.02c0.02,0.01,0.04,0.01,0.06,0.02c0.02,0.01,0.04,0.02,0.06,0.02c0.02,0.01,0.04,0.01,0.06,0.02
		c0.01,0,0.02,0.01,0.03,0.01c0.01,0,0.02,0,0.04,0c0.01,0,0.02,0.01,0.03,0.01c0.01,0,0.02,0,0.03,0c0.01,0,0.03,0.01,0.04,0.01
		c0.01,0,0.03,0.01,0.04,0.01c0.01,0,0.03,0.01,0.04,0.01c0.01,0,0.03,0,0.04,0l0.02-0.01c0.03,0,0.06,0,0.08,0
		c0.03,0,0.06-0.01,0.08-0.01c0.03,0,0.05-0.01,0.08-0.02c0.03-0.01,0.05-0.01,0.08-0.02c0.03-0.01,0.06-0.02,0.09-0.03
		c0.03-0.01,0.06-0.03,0.09-0.04c0.03-0.01,0.06-0.03,0.09-0.04c0.03-0.02,0.06-0.03,0.09-0.05c0.06-0.04,0.12-0.08,0.17-0.12
		c0.05-0.04,0.1-0.09,0.15-0.13c0.05-0.05,0.1-0.1,0.14-0.15c0.04-0.05,0.08-0.1,0.11-0.16c0-0.01,0.01-0.02,0.01-0.03
		c0-0.01,0.01-0.02,0.01-0.03c0,0,0.01-0.01,0.01-0.01c0,0,0.01-0.01,0.01-0.02c0,0,0-0.01,0-0.01c0,0,0.01-0.01,0.01-0.01
		l0.01-0.03l0.01-0.03l0.01-0.03l0.01-0.03l0.01-0.03l0.01-0.03l0.01-0.03l0.01-0.03l0.01-0.03l0.01-0.03l0.01-0.03l0.01-0.03h0.28
		l0.11,0.09c-0.02,0.08-0.04,0.15-0.07,0.21c-0.03,0.06-0.05,0.13-0.09,0.18c-0.03,0.06-0.07,0.12-0.11,0.17
		c-0.04,0.06-0.08,0.11-0.13,0.16c-0.05,0.05-0.09,0.1-0.14,0.14c-0.05,0.05-0.1,0.09-0.16,0.13c-0.06,0.04-0.11,0.08-0.17,0.11
		c-0.06,0.03-0.12,0.06-0.18,0.09l-0.64,0.14h-0.28h-0.12c-0.1,0-0.21-0.01-0.31-0.02c-0.1-0.01-0.2-0.03-0.29-0.05
		c-0.1-0.02-0.19-0.05-0.28-0.08c-0.09-0.04-0.18-0.08-0.26-0.13c-0.09-0.05-0.17-0.11-0.24-0.17c-0.07-0.06-0.14-0.13-0.2-0.2
		c-0.06-0.08-0.11-0.16-0.16-0.25c-0.05-0.09-0.09-0.18-0.13-0.28l-0.01-0.02v-0.01V36.3v-0.02l-0.01-0.03l-0.01-0.04l-0.01-0.03
		v-0.03c0-0.01-0.01-0.03-0.01-0.04c0-0.02-0.01-0.03-0.01-0.05c0-0.02-0.01-0.04-0.01-0.05c0-0.02-0.01-0.03-0.01-0.05
		c0-0.02-0.01-0.04-0.01-0.05c0-0.02,0-0.03,0-0.04c0-0.01,0-0.03,0-0.04c0-0.02,0-0.03,0-0.05c0-0.04,0-0.07,0-0.11
		c0-0.03,0.01-0.07,0.01-0.11c0-0.03,0-0.07,0.01-0.1c0.01-0.04,0.02-0.07,0.02-0.1c0.02-0.07,0.04-0.14,0.07-0.2
		c0.03-0.07,0.06-0.13,0.09-0.19c0.04-0.06,0.08-0.13,0.12-0.19c0.04-0.06,0.09-0.12,0.13-0.17c0.05-0.05,0.11-0.11,0.16-0.16
		c0.06-0.05,0.12-0.1,0.18-0.15c0.03-0.02,0.07-0.04,0.1-0.05c0.04-0.02,0.07-0.03,0.1-0.05c0.02-0.01,0.04-0.02,0.05-0.02
		c0.02-0.01,0.03-0.01,0.05-0.02c0.02,0,0.04-0.01,0.06-0.02c0.02-0.01,0.04-0.02,0.06-0.02c0.04-0.01,0.07-0.03,0.11-0.04
		c0.04-0.01,0.07-0.02,0.11-0.03c0.04-0.01,0.08-0.02,0.12-0.02c0.04-0.01,0.08-0.01,0.12-0.02v-0.02h0.28L16.55,33.97z M16.5,34.1
		c-0.06,0.02-0.12,0.04-0.17,0.06c-0.05,0.02-0.1,0.04-0.15,0.06c-0.06,0.03-0.11,0.07-0.16,0.11c-0.05,0.04-0.1,0.09-0.14,0.14
		c-0.05,0.05-0.09,0.1-0.12,0.16c-0.04,0.05-0.07,0.11-0.09,0.17c-0.03,0.06-0.05,0.12-0.06,0.18c-0.01,0.06-0.03,0.13-0.04,0.19
		l2.04-0.02v-0.11c0-0.06-0.01-0.13-0.02-0.19c-0.02-0.06-0.04-0.12-0.07-0.18c-0.03-0.05-0.06-0.11-0.11-0.16
		c-0.04-0.05-0.1-0.1-0.16-0.14c-0.06-0.04-0.12-0.08-0.19-0.11c-0.06-0.03-0.13-0.06-0.19-0.08c-0.06-0.02-0.12-0.03-0.18-0.04
		C16.62,34.12,16.56,34.11,16.5,34.1L16.5,34.1z M20.79,33.95c0.02,0.01,0.04,0.02,0.05,0.02c0.02,0,0.03,0.01,0.05,0.01
		c0.01,0,0.02,0,0.03,0c0.01,0,0.02,0,0.03,0c0.01,0,0.02,0.01,0.03,0.01c0.01,0,0.02,0,0.03,0c0.02,0,0.04,0.01,0.06,0.01
		c0.02,0,0.04,0,0.06,0c0.01,0,0.02,0,0.03,0c0.01,0,0.02,0,0.03,0C21.19,34,21.2,34,21.21,34c0.01,0,0.02,0,0.03,0
		c0.07,0.01,0.15,0.03,0.22,0.05c0.07,0.02,0.14,0.04,0.21,0.07c0.07,0.03,0.13,0.06,0.2,0.09c0.07,0.03,0.13,0.07,0.19,0.1
		c0.06,0.04,0.11,0.09,0.16,0.13c0.04,0.05,0.08,0.1,0.12,0.16c0.03,0.06,0.06,0.12,0.07,0.19c0.02,0.07,0.02,0.14,0.02,0.22v0.03
		v0.03l-0.01,0.04v0.03c0,0.01-0.01,0.03-0.01,0.04c0,0.01,0,0.02,0,0.03c0,0.01,0,0.02,0,0.03c0,0.01,0,0.02,0,0.03l-0.01,0.03
		v0.03v0.01v0.01l-0.01,0.02v0.01c0,0.02-0.01,0.04-0.01,0.06c0,0.02,0,0.03,0,0.04c0,0.02,0,0.04,0,0.05c0,0.02,0,0.03,0,0.04
		c0,0.02,0,0.04,0,0.05c0,0.02,0,0.03,0,0.04c0,0.02,0,0.04,0,0.05c0,0.02,0,0.03,0,0.04c0,0.01,0,0.03,0,0.04c0,0.01,0,0.03,0,0.03
		c0,0.01,0,0.03,0,0.04c0,0.01,0,0.03,0,0.04c0,0.03,0,0.05,0,0.08c0,0.03,0,0.05,0.01,0.07c0,0.03,0,0.05,0,0.08s0,0.05,0.01,0.08
		c0,0.03,0,0.05,0,0.08c0,0.03,0.01,0.05,0.01,0.07c0,0.03,0,0.05,0,0.08c0,0.03,0.01,0.05,0.01,0.08c0,0.03,0,0.05,0,0.08
		c0,0.03,0.01,0.05,0.01,0.08c0,0.01,0,0.03,0,0.04c0,0.01,0.01,0.03,0.01,0.03c0,0.01,0,0.03,0,0.04c0,0.01,0,0.03,0,0.04
		c0,0.03,0.01,0.05,0.01,0.08c0,0.03,0.01,0.05,0.01,0.07c0,0.02,0,0.04,0.01,0.06c0.01,0.02,0.01,0.04,0.02,0.06
		c0.01,0.02,0.02,0.04,0.03,0.06c0.01,0.02,0.02,0.04,0.04,0.06c0.01,0.02,0.02,0.04,0.04,0.05c0.01,0.02,0.03,0.04,0.04,0.05
		c0.01,0.02,0.03,0.03,0.05,0.05c0.02,0.01,0.03,0.03,0.05,0.03h-0.28l-0.64-0.01c-0.01-0.01-0.02-0.02-0.03-0.04
		c-0.01-0.02-0.02-0.03-0.03-0.05c0-0.02-0.01-0.04-0.02-0.06c-0.01-0.02-0.02-0.04-0.02-0.06c0-0.01-0.01-0.02-0.01-0.02
		c0-0.01,0-0.01,0-0.02c0-0.01-0.01-0.02-0.01-0.02c0-0.01,0-0.01,0-0.02l-0.01,0.01l-0.01,0.01c-0.05,0.05-0.1,0.09-0.15,0.12
		c-0.06,0.03-0.11,0.06-0.18,0.09c-0.06,0.03-0.12,0.05-0.19,0.07c-0.06,0.02-0.13,0.03-0.19,0.05c-0.07,0.01-0.13,0.02-0.2,0.03
		c-0.07,0.01-0.13,0.01-0.2,0.01h-0.28l-0.67-0.12c-0.06,0-0.12-0.02-0.17-0.04c-0.05-0.02-0.1-0.04-0.15-0.07
		c-0.05-0.03-0.09-0.06-0.14-0.09c-0.05-0.03-0.09-0.07-0.13-0.12c-0.04-0.04-0.07-0.09-0.1-0.13c-0.03-0.05-0.05-0.09-0.08-0.14
		c-0.02-0.05-0.03-0.1-0.04-0.15c-0.01-0.05-0.01-0.1-0.01-0.15c0-0.01,0-0.02,0-0.03c0-0.01,0-0.02,0-0.03c0-0.01,0-0.02,0-0.03
		c0-0.01,0.01-0.02,0.01-0.04c0-0.01,0-0.02,0-0.03c0-0.01,0.01-0.02,0.01-0.04c0-0.01,0.01-0.02,0.01-0.03
		c0-0.01,0.01-0.02,0.01-0.04c0-0.01,0.01-0.02,0.01-0.03c0-0.01,0.01-0.02,0.01-0.03c0-0.01,0.01-0.02,0.02-0.03
		c0.01-0.01,0.01-0.02,0.02-0.04l0.01-0.03l0.02-0.04l0.02-0.03L19,35.99c0.05-0.05,0.1-0.1,0.15-0.14
		c0.05-0.05,0.11-0.09,0.17-0.12c0.06-0.04,0.12-0.07,0.19-0.1c0.07-0.03,0.14-0.06,0.21-0.08c0.07-0.02,0.14-0.04,0.22-0.06
		c0.07-0.02,0.15-0.03,0.22-0.04c0.07-0.01,0.15-0.02,0.23-0.03c0.08-0.01,0.15-0.02,0.23-0.02c0.01,0,0.03,0,0.04,0
		c0.01,0,0.03,0,0.04,0s0.03,0,0.05,0c0.02,0,0.03,0,0.05,0l0.04-0.01c0.01,0,0.02,0.01,0.03,0.01c0.01,0,0.02,0,0.03-0.01
		l0.28-0.01h0.04c0,0,0.01,0.01,0.01,0.01c0,0,0.01,0,0.01,0c0.01,0,0.02,0,0.02,0c0.01,0,0.02,0,0.03,0c0.01,0,0.02,0,0.03,0
		c0.01,0,0.02,0,0.03,0c0.01,0,0.02,0,0.04,0l0.03-0.01h0.04l0.03,0.01h0.04h0.01h0.01h0.01h0.01h0.01h0.04v-0.02v-0.03l-0.01-0.03
		v-0.03v-0.03v-0.04l-0.01-0.03v-0.04c0-0.02-0.01-0.04-0.01-0.06c0-0.02-0.01-0.05-0.01-0.08c0-0.02-0.01-0.05-0.01-0.07
		c0-0.02-0.01-0.05-0.01-0.07c-0.01-0.05-0.02-0.09-0.04-0.13c-0.01-0.04-0.03-0.09-0.05-0.13c-0.02-0.05-0.04-0.09-0.06-0.13
		c-0.02-0.04-0.05-0.07-0.09-0.11c-0.03-0.04-0.07-0.07-0.11-0.1c-0.04-0.03-0.08-0.05-0.13-0.08c0,0-0.01,0-0.02,0
		c-0.01,0-0.01-0.01-0.02-0.01c-0.01,0-0.02,0-0.02,0c0,0-0.01-0.01-0.02-0.01c-0.01-0.01-0.03-0.01-0.04-0.02
		c-0.01,0-0.02-0.01-0.03-0.01c-0.01,0-0.03-0.01-0.04-0.01c-0.01,0-0.03-0.01-0.04-0.01c-0.01,0-0.03-0.01-0.04-0.01
		c-0.01,0-0.02-0.01-0.03-0.01c-0.01,0-0.03-0.01-0.04-0.01c-0.01,0-0.03,0-0.04,0s-0.03,0-0.04,0c-0.01,0-0.02-0.01-0.03-0.01
		l-0.01-0.01c-0.05,0.01-0.09,0.02-0.14,0.03c-0.04,0.01-0.09,0.02-0.13,0.03c-0.06,0.02-0.12,0.04-0.19,0.08
		c-0.06,0.03-0.12,0.07-0.19,0.1c-0.06,0.04-0.12,0.08-0.17,0.13c-0.05,0.05-0.1,0.09-0.14,0.14c-0.04,0.05-0.08,0.1-0.12,0.16
		c-0.04,0.06-0.06,0.12-0.09,0.18l-0.28-0.01l-0.2-0.6l0.01-0.05c0.02,0,0.05-0.01,0.07-0.02c0.03-0.01,0.05-0.01,0.07-0.02
		c0.02,0,0.05-0.01,0.07-0.02c0.03-0.01,0.05-0.02,0.08-0.02c0.03-0.01,0.05-0.02,0.08-0.02c0.03-0.01,0.05-0.01,0.08-0.02
		c0.02,0,0.05-0.01,0.07-0.02c0.03-0.01,0.05-0.02,0.08-0.02c0.05-0.01,0.1-0.03,0.16-0.04c0.05-0.01,0.11-0.02,0.16-0.03
		c0.05-0.01,0.1-0.02,0.16-0.02c0.05-0.01,0.11-0.01,0.16-0.02v-0.02h0.28H20.79z M21.48,35.52c-0.02,0.01-0.04,0.02-0.05,0.02
		c-0.02,0-0.03,0.01-0.05,0.01c0,0-0.01,0-0.02,0c-0.01,0-0.02,0-0.02,0c-0.01,0-0.02,0-0.02,0c-0.01,0-0.02,0-0.02,0
		c0,0-0.01,0-0.02,0c0,0-0.01,0-0.01,0c0,0-0.01,0-0.01,0l-0.04-0.01l-0.05,0.01h-0.04c-0.08,0.01-0.16,0.02-0.23,0.03
		c-0.08,0.01-0.15,0.03-0.23,0.05c-0.07,0.02-0.15,0.04-0.22,0.06c-0.07,0.03-0.14,0.05-0.2,0.09c-0.07,0.03-0.12,0.07-0.18,0.11
		c-0.05,0.04-0.1,0.09-0.14,0.15c-0.04,0.06-0.08,0.12-0.1,0.19c-0.03,0.07-0.04,0.14-0.05,0.22v0.01l-0.01,0.01v0.01v0.01v0.01
		v0.01v0.01l-0.01,0.01v0.01l-0.01,0.03v0.02v0.02v0.01c0,0.07,0.01,0.13,0.02,0.18c0.01,0.05,0.03,0.11,0.05,0.16
		c0.02,0.05,0.05,0.09,0.09,0.13c0.04,0.04,0.08,0.08,0.13,0.12c0.05,0.03,0.1,0.06,0.15,0.09c0.05,0.03,0.1,0.05,0.16,0.07
		c0.02,0,0.05,0.01,0.07,0.02c0.02,0.01,0.04,0.01,0.07,0.02c0.02,0,0.04,0.01,0.06,0.01c0.02,0,0.04,0.01,0.06,0.01l0.01-0.01
		l0.04-0.01h0.02l0.02-0.01h0.02h0.02h0.01l0.01-0.01h0.01h0.01l0.01-0.01h0.01h0.01c0.01,0,0.02,0.01,0.02,0
		c0.01,0,0.02-0.01,0.02-0.01c0,0,0.01-0.01,0.02-0.01c0.01,0,0.02-0.01,0.02-0.01c0.01-0.01,0.03-0.02,0.05-0.02
		c0.02-0.01,0.03-0.01,0.05-0.02c0.01-0.01,0.03-0.02,0.04-0.02c0.01-0.01,0.03-0.01,0.04-0.02c0.01-0.01,0.03-0.02,0.05-0.03
		c0.02-0.01,0.03-0.02,0.05-0.03c0.03-0.02,0.06-0.05,0.09-0.07c0.03-0.02,0.06-0.05,0.08-0.08c0.02-0.03,0.05-0.06,0.07-0.09
		c0.02-0.03,0.04-0.06,0.06-0.1c0.02-0.03,0.04-0.06,0.05-0.1c0.01-0.03,0.03-0.07,0.04-0.1c0.01-0.04,0.03-0.07,0.04-0.11
		c0.01-0.04,0.02-0.07,0.02-0.11v-0.01l0.01-0.01v-0.01v-0.01v-0.01l0.01-0.01v-0.01v-0.01v-0.78l-0.04-0.07H21.48z M26.93,36.91
		c0,0.04,0.01,0.07,0.02,0.09c0.01,0.03,0.01,0.05,0.02,0.07c0.01,0.02,0.02,0.04,0.02,0.06c0.01,0.02,0.02,0.04,0.02,0.06
		c0.01,0.02,0.02,0.04,0.04,0.06c0.01,0.02,0.03,0.04,0.04,0.06c0.01,0.02,0.03,0.03,0.05,0.05c0.02,0.01,0.04,0.03,0.06,0.04v0.05
		h-0.28h-0.6c-0.01-0.02-0.03-0.04-0.04-0.06c-0.01-0.02-0.03-0.05-0.04-0.07c-0.01-0.02-0.03-0.05-0.04-0.08
		c-0.01-0.03-0.02-0.05-0.03-0.08v-0.01c0,0-0.01,0-0.01-0.01c-0.04,0.04-0.08,0.08-0.13,0.11c-0.05,0.03-0.1,0.06-0.16,0.09
		c-0.06,0.03-0.12,0.06-0.18,0.08c-0.06,0.02-0.12,0.04-0.19,0.05c-0.03,0.01-0.06,0.02-0.09,0.02c-0.03,0.01-0.06,0.01-0.09,0.02
		c-0.03,0-0.06,0.01-0.09,0.01c-0.03,0-0.06,0.01-0.09,0.01h-0.02l-0.02,0.01h-0.28H24.8h-0.02h-0.04h-0.03H24.7h-0.01
		c-0.07,0-0.15-0.01-0.22-0.02c-0.07-0.01-0.14-0.02-0.21-0.04c-0.07-0.02-0.14-0.04-0.21-0.06c-0.07-0.02-0.13-0.05-0.2-0.08
		c-0.07-0.04-0.12-0.08-0.18-0.12c-0.05-0.04-0.1-0.09-0.14-0.14c-0.04-0.05-0.08-0.11-0.11-0.17c-0.03-0.06-0.06-0.13-0.08-0.2
		c0-0.02-0.01-0.04-0.01-0.06c0-0.02,0-0.04,0-0.06c0-0.02,0-0.05,0-0.07c0-0.02,0-0.05,0-0.07c0-0.02-0.01-0.05-0.01-0.07
		c0-0.02,0-0.05,0-0.07c0-0.02,0-0.05,0-0.07c0-0.02,0-0.05,0-0.07v-0.05c0,0,0-0.01,0-0.02s0-0.01,0-0.02l-0.01-0.05
		c0-0.01,0-0.02,0-0.02c0-0.01,0-0.02,0-0.02c0-0.01,0-0.02,0-0.02c0-0.01,0-0.01,0-0.02c0,0,0-0.01,0-0.02c0-0.01,0-0.02,0-0.02
		c0-0.01,0-0.03,0-0.04c0-0.02,0-0.03,0-0.05c0-0.02-0.01-0.04-0.01-0.05c0-0.02,0-0.04,0-0.05c0-0.02,0-0.04,0-0.06
		c0-0.02,0-0.04,0-0.06c0-0.02,0-0.04,0-0.05c0-0.02,0-0.04,0-0.05c0-0.01,0-0.02,0-0.03c0-0.01,0-0.02,0-0.03c0-0.01,0-0.02,0-0.03
		c0-0.01,0-0.02,0-0.03c0-0.01,0-0.03,0-0.04c0-0.01,0-0.03,0-0.04s0-0.03,0-0.04c0-0.02,0-0.03,0-0.05v-0.05c0,0,0-0.01,0-0.02
		c0-0.01,0-0.01,0.01-0.02v-0.05c0,0,0-0.01,0-0.02c0-0.01,0-0.02,0-0.03v-0.05c0,0,0-0.01,0-0.02s0-0.01,0.01-0.02v-0.05
		c0-0.01,0-0.02,0-0.02c0-0.01,0-0.02,0-0.02c0-0.01,0-0.03,0-0.04c0-0.01,0-0.03,0-0.04c0-0.01,0-0.03,0-0.04
		c0-0.02,0.01-0.03,0.01-0.05v-0.01v-0.01v-0.01c0,0,0-0.01,0-0.02c0-0.01-0.01-0.01-0.01-0.02c0,0,0-0.01,0-0.02
		c0-0.01-0.01-0.02-0.01-0.02c0-0.01-0.01-0.02-0.01-0.02c0-0.01-0.01-0.01-0.01-0.02c0,0-0.01-0.01-0.01-0.02
		c0-0.01-0.01-0.02-0.01-0.02c0-0.01-0.01-0.02-0.02-0.02c-0.01,0-0.01-0.01-0.02-0.01c-0.01-0.01-0.02-0.02-0.02-0.02
		c0,0-0.01-0.01-0.02-0.01c-0.01-0.01-0.03-0.02-0.04-0.03c-0.01-0.01-0.03-0.02-0.04-0.02l-0.01-0.01h-0.01h-0.01l-0.01-0.01H23
		v-0.01h-0.01l0.04-0.07l0.83-0.18h0.28v2.33c0,0.08,0.01,0.16,0.03,0.23c0.01,0.07,0.04,0.13,0.06,0.19
		c0.03,0.06,0.06,0.11,0.1,0.17c0.04,0.05,0.09,0.1,0.14,0.14c0.05,0.05,0.1,0.08,0.16,0.12c0.05,0.03,0.11,0.06,0.17,0.08
		c0.03,0.01,0.06,0.02,0.08,0.02s0.06,0.01,0.08,0.02c0.01,0,0.03,0.01,0.04,0.01c0.01,0,0.03,0,0.04,0l0.01-0.01l0.02-0.01h0.01
		h0.02h0.03l0.04-0.01c0.05,0,0.1-0.02,0.15-0.03c0.05-0.02,0.09-0.04,0.13-0.05c0.04-0.02,0.08-0.05,0.13-0.08
		c0.04-0.03,0.08-0.06,0.12-0.09c0.04-0.03,0.07-0.06,0.11-0.1c0.03-0.03,0.07-0.07,0.1-0.11c0.03-0.04,0.06-0.08,0.08-0.12
		s0.05-0.08,0.08-0.13v-0.01l0.01-0.01v-0.01v-0.01v-0.03l0.01-0.03v-0.01l0.01-0.01v-0.01v-0.01V36.5l0.01-0.01v-0.01l0.01-0.01
		V34.6c0,0-0.01,0-0.01-0.01c0-0.01,0-0.01,0-0.02c0-0.01-0.01-0.02-0.01-0.03c0-0.01-0.01-0.02-0.01-0.03c0,0-0.01-0.01-0.01-0.01
		c0,0,0-0.01,0-0.01c0,0-0.01-0.01-0.01-0.01c0,0-0.01-0.01-0.01-0.01c0-0.01-0.01-0.02-0.01-0.03c0-0.01-0.01-0.02-0.01-0.03
		l-0.19-0.11h0.28v0.01h-0.28h-0.01v-0.01v-0.01l-0.01-0.01v-0.01v-0.01v-0.01l0.86-0.21h0.28V36.91z M28.64,36.7
		c0,0.03,0,0.05,0,0.07c0,0.02,0,0.04,0.01,0.06c0,0.02,0,0.04,0.01,0.05c0,0.02,0.01,0.04,0.01,0.05c0,0.02,0.01,0.04,0.01,0.05
		c0,0.02,0.01,0.03,0.01,0.05c0.01,0.02,0.02,0.04,0.02,0.05c0.01,0.02,0.01,0.03,0.02,0.05l0.01,0.02l0.01,0.02v0.02l0.01,0.02
		l0.02,0.04l0.02,0.04l0.03,0.02l0.04,0.02l0.04,0.02l0.04,0.02l0.01,0.01h0.01v0.01H29l0.02,0.01h0.02l-0.01,0.03h-0.28h-1.3
		l-0.01-0.04c0.02,0.01,0.05,0.01,0.07,0.01c0.02,0,0.04-0.01,0.06-0.02c0.02-0.01,0.04-0.02,0.05-0.03
		c0.02-0.01,0.03-0.03,0.05-0.04c0.01-0.02,0.03-0.04,0.04-0.05c0.01-0.02,0.03-0.03,0.04-0.05c0.01-0.01,0.02-0.02,0.02-0.03
		c0-0.01,0.01-0.02,0.02-0.03c0-0.01,0.01-0.02,0.02-0.03c0.01-0.01,0.01-0.02,0.02-0.03l0.01-0.03l0.02-0.04l0.01-0.01L27.87,37
		v-0.01l0.01-0.01v-3.38c0-0.01,0-0.03,0-0.05c0-0.02-0.01-0.04-0.01-0.06c0-0.02-0.01-0.05-0.01-0.07c0-0.02-0.01-0.05-0.01-0.07
		c0-0.02-0.01-0.04-0.02-0.06c-0.01-0.02-0.02-0.04-0.02-0.06c0-0.02-0.01-0.05-0.02-0.07c-0.01-0.02-0.02-0.05-0.02-0.07
		l-0.01-0.01l-0.01-0.01l-0.01-0.01l-0.01-0.01l-0.01-0.01l-0.01-0.01h-0.01l-0.01-0.01h-0.01l-0.01-0.01h-0.01v-0.01h-0.01h-0.01
		H27.6v-0.01h-0.01h-0.01h-0.01v-0.01h-0.01l0.06-0.08l0.74-0.17h0.28V36.7z M30.6,33.29v0.91h0.67l-0.06,0.17l-0.62,0.01v2.26
		c0,0.04,0.01,0.07,0.02,0.1c0.01,0.03,0.01,0.06,0.02,0.09c0.01,0.03,0.02,0.06,0.03,0.09c0.01,0.03,0.02,0.05,0.04,0.08
		s0.03,0.05,0.04,0.08s0.03,0.05,0.05,0.08c0.01,0.03,0.03,0.05,0.05,0.08c0.02,0.02,0.04,0.05,0.06,0.07l0.01,0.01h0.02l0.01,0.01
		l0.01,0.01l0.03,0.01l0.04,0.01l0.03,0.01l0.03,0.01l0.03,0.01h0.04l-0.03,0.04c0,0.01-0.01,0.02-0.02,0.02
		c0,0-0.01,0.01-0.01,0.01c0,0-0.01,0-0.01,0c0,0-0.01,0-0.02,0c0,0-0.01,0-0.01,0c0,0-0.01,0-0.01,0h-0.03h-0.02h-0.03l-0.02,0.01
		c-0.01,0-0.02,0-0.03,0c-0.01,0-0.02,0-0.03,0c0,0-0.01,0-0.02,0c0,0-0.01,0-0.01,0c0,0-0.01,0-0.01,0h-0.03l-0.02,0.01h-0.28
		h-0.02h-0.02h-0.04h-0.03l-0.04-0.01h-0.03h-0.04h-0.03l-0.04-0.01h-0.03h-0.04h-0.03h-0.04l-0.03-0.01l-0.11-0.08
		c0,0-0.01-0.01-0.02-0.02c-0.01-0.01-0.01-0.01-0.02-0.02c0-0.01-0.01-0.02-0.01-0.03c0-0.01-0.01-0.02-0.01-0.03
		c0-0.01-0.01-0.02-0.01-0.03c0-0.01-0.01-0.02-0.01-0.04c0-0.01-0.01-0.02-0.01-0.03c0-0.01-0.01-0.02-0.01-0.04l-0.01-0.03v-0.03
		l-0.01-0.02v-0.02l-0.01-0.02V37v-0.02v-0.02v-2.57l-0.51-0.01V34.3c0.06-0.01,0.12-0.03,0.18-0.05c0.06-0.03,0.11-0.06,0.15-0.09
		c0.05-0.04,0.1-0.08,0.14-0.12c0.04-0.04,0.09-0.09,0.13-0.14c0.04-0.05,0.07-0.1,0.11-0.15c0.04-0.05,0.07-0.11,0.1-0.16
		c0.03-0.05,0.06-0.11,0.09-0.16c0.03-0.05,0.05-0.11,0.08-0.17v-0.02h0.28L30.6,33.29z M32.68,34.4c0.03-0.03,0.07-0.06,0.11-0.09
		c0.04-0.03,0.08-0.05,0.13-0.08c0.07-0.04,0.13-0.07,0.19-0.1c0.06-0.03,0.13-0.06,0.2-0.08c0.07-0.02,0.14-0.04,0.21-0.05
		c0.07-0.01,0.14-0.02,0.22-0.03l0.28-0.01h0.01h0.01h0.01h0.01h0.03h0.03h0.01h0.01h0.01c0.07,0.01,0.13,0.02,0.19,0.03
		c0.06,0.01,0.12,0.02,0.18,0.03c0.06,0.01,0.12,0.03,0.18,0.05c0.06,0.02,0.12,0.04,0.17,0.07c0.06,0.03,0.11,0.06,0.16,0.1
		c0.05,0.04,0.09,0.08,0.14,0.12c0.04,0.04,0.08,0.09,0.12,0.14c0.04,0.05,0.07,0.1,0.11,0.16c0,0.01,0.01,0.03,0.01,0.04
		c0,0.01,0.01,0.03,0.01,0.03c0,0.01,0,0.03,0.01,0.04c0,0.01,0.01,0.03,0.01,0.04c0,0.01,0.01,0.03,0.01,0.04
		c0,0.01,0.01,0.03,0.01,0.03c0,0.01,0,0.03,0.01,0.04c0,0.01,0.01,0.03,0.01,0.04c0.01,0.03,0.02,0.05,0.02,0.08
		c0,0.03,0.01,0.05,0.01,0.08c0,0.03,0.01,0.05,0.01,0.08c0,0.03,0.01,0.05,0.01,0.08v1.8v0.02v0.01v0.01h0.01v0.01
		c0.01,0.02,0.02,0.04,0.02,0.06c0.01,0.02,0.02,0.03,0.02,0.05c0.01,0.02,0.02,0.03,0.04,0.05c0.01,0.01,0.03,0.03,0.04,0.04
		c0.01,0.02,0.03,0.03,0.04,0.05c0.01,0.01,0.03,0.03,0.05,0.03c0.01,0.01,0.03,0.02,0.05,0.02c0.02,0.01,0.03,0.01,0.05,0.02
		l-0.28-0.01h-1.21c0.02,0,0.04,0,0.05-0.01c0.02-0.01,0.03-0.02,0.05-0.03c0.02-0.01,0.04-0.02,0.05-0.03
		c0.02-0.01,0.03-0.03,0.05-0.05c0.01-0.01,0.03-0.03,0.04-0.05c0.01-0.02,0.02-0.04,0.03-0.05c0.01-0.02,0.02-0.04,0.02-0.06
		c0.01-0.02,0.01-0.04,0.02-0.06v-0.03l0.01-0.02v-0.02v-0.02v-0.02l0.01-0.02v-0.01v-0.02c0-0.02,0-0.04,0-0.06
		c0-0.02,0.01-0.05,0.01-0.07c0-0.02,0-0.05,0-0.07c0-0.02,0.01-0.05,0.01-0.07c0-0.01,0-0.03,0-0.04c0-0.01,0-0.02,0.01-0.04
		c0-0.01,0-0.02,0-0.03c0-0.01,0-0.02,0-0.04c0-0.02,0-0.05,0-0.07c0-0.02,0.01-0.05,0.01-0.07c0-0.01,0-0.02,0-0.03
		c0-0.01,0-0.02,0-0.03c0-0.01,0-0.02,0-0.03c0-0.01,0-0.02,0.01-0.03c0-0.01,0-0.02,0-0.03c0-0.01,0-0.02,0-0.03
		c0-0.01,0-0.02,0-0.03c0-0.01,0-0.02,0-0.03c0-0.01,0-0.02,0-0.03c0-0.01,0-0.02,0-0.03c0-0.01,0-0.02,0-0.03
		c0-0.01,0-0.02,0.01-0.03c0-0.01,0-0.02,0-0.03c0-0.01,0-0.02,0-0.03c0-0.01,0-0.02,0-0.03c0-0.01,0-0.02,0-0.03c0,0,0-0.01,0-0.01
		c0,0,0-0.01,0-0.01c0-0.01,0-0.02,0-0.02c0-0.01,0-0.02,0-0.03c0-0.01,0-0.02,0-0.03c0,0,0-0.01,0-0.01c0,0,0-0.01,0-0.01
		c0-0.01,0-0.02,0-0.02c0-0.01,0-0.02,0-0.03c0-0.01,0-0.02,0-0.03c0,0,0-0.01,0-0.01c0,0,0-0.01,0-0.01c0-0.01,0-0.02,0-0.02
		c0-0.01,0-0.02,0-0.03c0-0.01,0-0.02,0-0.03c0,0,0-0.01,0-0.01c0,0,0-0.01,0-0.01c0-0.01,0-0.02,0-0.02c0-0.01,0-0.02,0-0.03
		c0-0.01,0-0.02,0-0.03c0-0.04-0.01-0.07-0.01-0.11c0-0.04-0.01-0.08-0.02-0.11c0-0.02-0.01-0.04-0.01-0.05c0-0.02,0-0.04,0-0.06
		c0-0.02-0.01-0.04-0.01-0.05c0-0.02-0.01-0.04-0.01-0.05c0-0.02-0.01-0.04-0.01-0.05c0-0.02-0.01-0.04-0.01-0.05
		c0-0.02-0.01-0.04-0.01-0.05c0-0.02-0.01-0.04-0.01-0.05c-0.01-0.04-0.02-0.07-0.03-0.11c-0.01-0.03-0.02-0.07-0.03-0.1
		c-0.02-0.04-0.04-0.07-0.07-0.11c-0.03-0.03-0.06-0.06-0.08-0.09c-0.03-0.03-0.06-0.05-0.09-0.08c-0.04-0.03-0.07-0.05-0.11-0.08
		c-0.04-0.02-0.08-0.04-0.12-0.06c-0.04-0.02-0.08-0.03-0.12-0.04c-0.03-0.01-0.07-0.02-0.1-0.02c-0.03-0.01-0.07-0.01-0.1-0.02
		c0,0-0.01,0-0.01,0c0,0-0.01,0-0.01,0c0,0-0.01,0.01-0.01,0.01c0,0-0.01,0-0.01,0c-0.01,0-0.02,0-0.03,0c-0.01,0-0.02,0-0.03,0
		c-0.01,0-0.02,0.01-0.03,0.01c-0.01,0-0.02,0-0.03,0c-0.01,0-0.02,0.01-0.03,0.01c-0.01,0-0.02,0.01-0.03,0.01
		c-0.01,0-0.02,0.01-0.03,0.01c-0.01,0-0.02,0.01-0.03,0.01c-0.01,0-0.02,0.01-0.03,0.01c-0.01,0-0.02,0.01-0.03,0.01
		c-0.02,0.01-0.04,0.02-0.06,0.03c-0.02,0.01-0.04,0.02-0.06,0.03c-0.02,0.01-0.04,0.02-0.05,0.03c-0.01,0.01-0.03,0.02-0.04,0.04
		l-0.01,0.01l-0.01,0.01l-0.01,0.01l-0.01,0.01l-0.04,0.04l-0.03,0.03l-0.04,0.04l-0.03,0.04l-0.04,0.04l-0.03,0.03l-0.03,0.04
		l-0.03,0.04c-0.02,0.04-0.04,0.08-0.05,0.12c-0.01,0.04-0.03,0.08-0.04,0.11c0,0.02-0.01,0.04-0.02,0.06
		c-0.01,0.02-0.02,0.04-0.02,0.06c0,0.02-0.01,0.04-0.01,0.06c0,0.02-0.01,0.04-0.01,0.06c0,0.02-0.01,0.04-0.01,0.06
		c0,0.02-0.01,0.04-0.01,0.06c0,0.02-0.01,0.04-0.01,0.06c0,0.02,0,0.04,0,0.06c0,0.02-0.01,0.04-0.01,0.06c0,0.02,0,0.04,0,0.06
		c0,0.02-0.01,0.04-0.01,0.06c0,0.02,0,0.04,0,0.06v0.03v0.03l-0.01,0.04v0.03c0,0.02,0,0.03,0,0.04c0,0.01,0,0.02,0,0.03
		c0,0.01,0,0.03,0,0.04c0,0.01,0,0.02,0,0.03v0.03v0.03v0.04v0.04v0.04l0.01,0.03v0.04v0.03c0,0.02,0,0.04,0,0.06s0,0.04,0,0.06
		c0,0.02,0,0.04,0,0.05c0,0.02,0.01,0.04,0.01,0.05c0,0.02,0,0.04,0,0.05c0,0.02,0.01,0.04,0.01,0.05c0,0.02,0,0.04,0,0.05
		c0,0.02,0.01,0.03,0.01,0.05c0,0.01,0,0.03,0,0.04c0,0.01,0,0.03,0,0.04c0,0.01,0,0.03,0,0.04c0,0.01,0.01,0.03,0.01,0.03
		c0,0.01,0,0.03,0,0.04c0,0.01,0,0.03,0,0.03c0,0.01,0,0.03,0,0.04c0,0.01,0.01,0.02,0.01,0.03c0,0.03,0,0.05,0.01,0.07
		c0,0.02,0.01,0.04,0.01,0.06c0.01,0.02,0.02,0.04,0.03,0.06c0.01,0.02,0.02,0.04,0.04,0.06c0.01,0.02,0.03,0.03,0.04,0.05
		c0.01,0.01,0.03,0.03,0.05,0.04c0.02,0.01,0.04,0.03,0.06,0.03c0.02,0.01,0.04,0.02,0.07,0.03l-0.01,0.02h-0.28l-1.21-0.01v-0.05
		h0.28l0.02,0.01h-0.28l0.02-0.01h0.01l0.01-0.01h0.01l0.01-0.01l0.02-0.01l0.02-0.01h0.01l0.01-0.01h0.01l0.01-0.01
		c0.01-0.01,0.02-0.02,0.03-0.03c0.01-0.01,0.02-0.03,0.03-0.04c0.01-0.01,0.02-0.03,0.03-0.04c0.01-0.02,0.02-0.03,0.03-0.05
		c0.01-0.01,0.02-0.03,0.02-0.04c0.01-0.02,0.01-0.03,0.02-0.05c0-0.02,0.01-0.04,0.01-0.05c0-0.02,0.01-0.04,0.01-0.05v-3.64v-0.01
		l-0.01-0.01v-0.01v-0.01v-0.01l-0.01-0.01v-0.01c0,0-0.01-0.01-0.01-0.02c0-0.01-0.01-0.02-0.01-0.03c0-0.01-0.01-0.02-0.01-0.03
		c0-0.01-0.01-0.02-0.01-0.03c0,0-0.01-0.01-0.01-0.01c0,0,0-0.01,0-0.01c0,0-0.01,0-0.01-0.01c0,0-0.01-0.01-0.01-0.01l-0.04-0.05
		h-0.02l-0.02-0.01h-0.02l-0.01-0.01l-0.02-0.01l-0.02-0.01l-0.02-0.01l-0.02-0.01h-0.01v-0.01v-0.01H31.6v-0.01l0.8-0.24h0.28V34.4
		z M37.53,34.02v0.03v0.02l-0.01,0.01v0.01v0.01l-0.01,0.01v0.01l-0.01,0.01l-0.01,0.01h-0.01l-0.01,0.01l-0.01,0.01l-0.02,0.01
		l-0.02,0.01l-0.02,0.01l-0.02,0.01l-0.01,0.03v0.03v0.01v0.01l-0.01,0.01v0.01v0.01v0.01l-0.01,0.01v0.01v0.03v0.03
		c0.05,0.11,0.09,0.21,0.14,0.32c0.05,0.1,0.1,0.21,0.14,0.31c0.05,0.1,0.1,0.2,0.15,0.3c0.05,0.1,0.1,0.2,0.15,0.3
		c0.05,0.1,0.1,0.2,0.16,0.3c0.05,0.1,0.11,0.2,0.16,0.3c0.03,0.06,0.07,0.12,0.1,0.17c0.04,0.06,0.07,0.11,0.1,0.17
		c0.01-0.02,0.03-0.05,0.04-0.07c0.01-0.02,0.03-0.05,0.04-0.07c0.01-0.02,0.02-0.05,0.04-0.07c0.01-0.02,0.03-0.05,0.04-0.07
		c0.05-0.09,0.1-0.18,0.14-0.27c0.04-0.09,0.09-0.18,0.14-0.27c0.05-0.09,0.09-0.18,0.14-0.27c0.04-0.09,0.09-0.18,0.13-0.27
		c0.02-0.05,0.04-0.09,0.06-0.14c0.02-0.05,0.04-0.09,0.06-0.14c0.02-0.05,0.04-0.09,0.06-0.14c0.02-0.05,0.04-0.09,0.06-0.14v-0.01
		l0.01-0.01v-0.01v-0.01v-0.01l0.01-0.01v-0.01v-0.01v-0.02v-0.02v-0.01v-0.01v-0.01v-0.01v-0.01c0,0,0-0.01,0-0.02
		c0-0.01-0.01-0.02-0.01-0.03c0-0.01,0-0.02,0-0.03c0-0.01-0.01-0.02-0.01-0.03c0-0.01-0.01-0.02-0.01-0.03
		c0-0.01-0.01-0.02-0.01-0.03c0-0.01-0.01-0.02-0.01-0.03c0-0.01-0.01-0.02-0.02-0.03c-0.01-0.02-0.03-0.03-0.05-0.05
		c-0.02-0.01-0.03-0.03-0.05-0.04c-0.02-0.01-0.04-0.02-0.06-0.03c-0.02-0.01-0.04-0.02-0.06-0.02l0.01-0.08h0.28h0.97v0.03
		c0,0.02,0,0.04,0,0.06c0,0.02-0.01,0.03-0.02,0.05c0,0.01-0.01,0.03-0.02,0.04c-0.01,0.01-0.02,0.03-0.03,0.03
		c-0.01,0.01-0.02,0.02-0.03,0.03c-0.01,0.01-0.02,0.01-0.04,0.02c-0.01,0-0.03,0.01-0.04,0.02c-0.01,0.01-0.02,0.01-0.03,0.02
		h-0.01h-0.01c-0.07,0.13-0.14,0.25-0.21,0.38c-0.07,0.12-0.14,0.25-0.2,0.37c-0.07,0.12-0.13,0.25-0.2,0.37
		c-0.07,0.12-0.13,0.25-0.2,0.37c-0.07,0.13-0.13,0.25-0.2,0.38c-0.07,0.13-0.13,0.25-0.2,0.37c-0.03,0.06-0.06,0.12-0.09,0.18
		c-0.03,0.06-0.06,0.13-0.09,0.18c-0.03,0.06-0.06,0.13-0.09,0.19c-0.03,0.06-0.06,0.12-0.09,0.19c-0.01,0.02-0.02,0.04-0.03,0.05
		c-0.01,0.02-0.02,0.03-0.03,0.05c0,0.02-0.01,0.03-0.02,0.05c-0.01,0.01-0.02,0.03-0.03,0.04c-0.01,0.02-0.02,0.04-0.03,0.05
		c-0.01,0.02-0.02,0.03-0.03,0.05c-0.01,0.02-0.02,0.04-0.03,0.05c-0.01,0.02-0.02,0.04-0.03,0.05c-0.04,0.06-0.09,0.13-0.13,0.19
		c-0.05,0.06-0.1,0.12-0.15,0.18c-0.05,0.06-0.1,0.12-0.15,0.17c-0.06,0.06-0.11,0.11-0.18,0.17c-0.06,0.05-0.12,0.1-0.19,0.14
		c-0.07,0.04-0.13,0.08-0.2,0.1c-0.07,0.03-0.14,0.05-0.21,0.06c-0.07,0.01-0.15,0.02-0.23,0.02h-0.28h-0.15
		c0-0.03,0.01-0.05,0.02-0.08c0.01-0.03,0.01-0.05,0.02-0.08c0.01-0.03,0.02-0.05,0.02-0.08c0.01-0.03,0.02-0.05,0.02-0.08
		c0.01-0.03,0.02-0.05,0.02-0.08c0.01-0.03,0.02-0.05,0.03-0.08c0.01-0.03,0.02-0.05,0.04-0.08c0.01-0.03,0.03-0.05,0.04-0.07h0.28
		c0,0.01,0.01,0.02,0.01,0.02c0,0,0.01,0.01,0.01,0.02c0,0,0.01,0.01,0.01,0.02c0,0.01,0.01,0.01,0.01,0.02
		c0.01,0.01,0.02,0.02,0.04,0.03c0.01,0.01,0.03,0.02,0.04,0.03c0,0,0.01,0.01,0.02,0.01c0.01,0,0.01,0.01,0.02,0.01
		c0.01,0,0.02,0,0.02,0c0.01,0,0.01,0.01,0.02,0.01c0,0,0.01,0,0.01,0.01h0.01c0,0,0.01,0,0.01,0c0,0,0.01,0,0.01-0.01
		c0.01,0,0.02-0.01,0.02-0.01c0.01,0,0.02-0.01,0.03-0.01c0.01,0,0.02-0.01,0.04-0.01c0.01,0,0.02-0.01,0.03-0.01
		c0.01,0,0.02-0.01,0.03-0.01c0.01,0,0.02-0.01,0.03-0.01c0.01,0,0.02-0.01,0.04-0.01c0.01-0.01,0.02-0.02,0.03-0.02
		c0.01,0,0.02-0.01,0.03-0.01c0.01,0,0.02-0.01,0.03-0.02c0.01-0.01,0.02-0.01,0.03-0.02c0,0,0.01-0.01,0.01-0.01
		c0,0,0.01-0.01,0.01-0.01c0,0,0-0.01,0.01-0.01c0,0,0.01,0,0.01,0l0.04-0.04l0.04-0.04c0,0,0.01-0.01,0.01-0.02
		c0-0.01,0.01-0.01,0.01-0.02c0-0.01,0-0.02,0.01-0.02c0,0,0.01-0.01,0.01-0.01c0,0,0.01-0.01,0.01-0.02c0-0.01,0.01-0.01,0.01-0.02
		c0-0.01,0-0.02,0.01-0.02c0,0,0.01-0.01,0.01-0.01c0.01-0.01,0.02-0.03,0.02-0.04c0.01-0.01,0.01-0.03,0.02-0.03
		c0,0,0.01-0.01,0.01-0.02c0-0.01,0.01-0.01,0.01-0.02c0-0.01,0-0.02,0-0.02c0,0,0.01-0.01,0.01-0.01c0-0.01,0.01-0.03,0.01-0.04
		c0-0.01,0.01-0.02,0.01-0.03c0-0.01,0.01-0.03,0.01-0.04c0-0.01,0.01-0.02,0.01-0.03c0,0,0-0.01,0-0.02s0-0.01,0.01-0.02
		c0,0,0-0.01,0-0.02c0-0.01,0-0.01,0-0.02c0,0,0-0.01,0-0.02s0-0.01,0.01-0.02c0,0,0-0.01,0-0.01c0,0,0-0.01,0-0.01
		c0,0,0-0.01,0-0.01c0,0,0-0.01,0-0.02c0,0-0.01-0.01-0.01-0.01c0,0,0-0.01,0-0.01c0,0,0-0.01,0-0.02s0-0.01,0-0.02
		c0-0.01-0.01-0.02-0.01-0.02c0-0.01,0-0.01,0-0.02c0-0.01-0.01-0.02-0.01-0.03c0-0.01,0-0.02,0-0.04c0-0.01,0-0.03,0-0.04
		c0-0.01-0.01-0.03-0.01-0.04c0,0,0-0.01,0-0.01c0,0,0-0.01,0-0.01c0,0-0.01,0-0.01-0.01c0,0,0-0.01,0-0.01c0-0.01,0-0.02,0-0.03
		c0-0.01-0.01-0.02-0.01-0.03l-0.01-0.05c0,0-0.01-0.01-0.01-0.02c0-0.01,0-0.02,0-0.03c-0.06-0.11-0.11-0.23-0.17-0.34
		c-0.06-0.11-0.11-0.23-0.17-0.34c-0.06-0.12-0.11-0.23-0.17-0.34c-0.06-0.11-0.12-0.22-0.18-0.34c-0.06-0.11-0.12-0.23-0.19-0.34
		c-0.06-0.11-0.13-0.22-0.19-0.33c-0.06-0.11-0.12-0.22-0.19-0.33c-0.07-0.11-0.13-0.22-0.2-0.33l-0.04-0.03l-0.04-0.04l-0.02-0.01
		l-0.02-0.02l-0.03-0.01l-0.02-0.01h-0.01l-0.01-0.01h-0.01v-0.01v-0.01h-0.01v-0.01V34.1h-0.01v-0.01v-0.01l0.01-0.01v-0.01v-0.01
		l0.01-0.01v-0.01v-0.01h0.28H37.53z"/>
	<linearGradient id="SVGID_13_" gradientUnits="userSpaceOnUse" x1="35.7869" y1="32.3536" x2="40.9719" y2="32.3536">
		<stop  offset="0" style="stop-color:#C29235"/>
		<stop  offset="0.011" style="stop-color:#C89E47"/>
		<stop  offset="0.0494" style="stop-color:#DDC483"/>
		<stop  offset="0.0822" style="stop-color:#EBE0AE"/>
		<stop  offset="0.1077" style="stop-color:#F5F1C9"/>
		<stop  offset="0.1227" style="stop-color:#F8F7D3"/>
		<stop  offset="0.1233" style="stop-color:#F7F5CF"/>
		<stop  offset="0.1298" style="stop-color:#EADDAB"/>
		<stop  offset="0.1368" style="stop-color:#E0C98C"/>
		<stop  offset="0.1448" style="stop-color:#D6B870"/>
		<stop  offset="0.1539" style="stop-color:#CFAA5A"/>
		<stop  offset="0.1644" style="stop-color:#C99F49"/>
		<stop  offset="0.1775" style="stop-color:#C5983E"/>
		<stop  offset="0.1958" style="stop-color:#C39337"/>
		<stop  offset="0.2466" style="stop-color:#C29235"/>
		<stop  offset="0.315" style="stop-color:#A3772A"/>
		<stop  offset="0.4411" style="stop-color:#704A16"/>
		<stop  offset="0.5029" style="stop-color:#5C390F"/>
		<stop  offset="0.6167" style="stop-color:#9A6F26"/>
		<stop  offset="0.6971" style="stop-color:#C29235"/>
		<stop  offset="0.7167" style="stop-color:#C4963C"/>
		<stop  offset="0.7448" style="stop-color:#CBA24F"/>
		<stop  offset="0.778" style="stop-color:#D5B66E"/>
		<stop  offset="0.8152" style="stop-color:#E4D299"/>
		<stop  offset="0.8551" style="stop-color:#F7F5D0"/>
		<stop  offset="0.8573" style="stop-color:#F8F7D3"/>
		<stop  offset="0.8619" style="stop-color:#F4EEC3"/>
		<stop  offset="0.8744" style="stop-color:#EADA9F"/>
		<stop  offset="0.888" style="stop-color:#E1C87F"/>
		<stop  offset="0.9026" style="stop-color:#DABA65"/>
		<stop  offset="0.9188" style="stop-color:#D5AF52"/>
		<stop  offset="0.9372" style="stop-color:#D1A744"/>
		<stop  offset="0.96" style="stop-color:#CFA23B"/>
		<stop  offset="1" style="stop-color:#CEA139"/>
	</linearGradient>
	<path class="st58" d="M40.86,32.35c0,0.41-0.33,0.73-0.76,0.73c-0.43,0-0.77-0.32-0.77-0.73c0-0.4,0.34-0.72,0.77-0.72
		C40.52,31.63,40.86,31.95,40.86,32.35z M39.52,32.35c0,0.32,0.25,0.58,0.58,0.58c0.33,0,0.57-0.26,0.57-0.57
		c0-0.32-0.24-0.58-0.57-0.58C39.76,31.77,39.52,32.03,39.52,32.35z M39.98,32.73H39.8V32c0.07-0.01,0.16-0.02,0.29-0.02
		c0.14,0,0.2,0.02,0.26,0.05c0.04,0.03,0.07,0.09,0.07,0.16c0,0.08-0.06,0.14-0.15,0.17v0.01c0.07,0.03,0.11,0.08,0.14,0.18
		c0.02,0.11,0.04,0.15,0.05,0.18h-0.19c-0.02-0.03-0.04-0.09-0.06-0.18c-0.01-0.08-0.06-0.12-0.15-0.12h-0.08V32.73z M39.98,32.32
		h0.08c0.1,0,0.17-0.03,0.17-0.11c0-0.07-0.05-0.11-0.16-0.11c-0.05,0-0.08,0-0.1,0.01V32.32z"/>
</g>
</svg>
